<?xml version="1.0" encoding="UTF-8"?>
<svg width="19px" height="19px" viewBox="0 0 19 19" version="1.1" xmlns="http://www.w3.org/2000/svg" xmlns:xlink="http://www.w3.org/1999/xlink">
    <title>place-19px </title>
    <g id="NavBar-Address" stroke="none" stroke-width="1" fill="none" fill-rule="evenodd">
        <g id="Mobile-Restaurant-Home/Edit-Address" transform="translate(-36.000000, -367.000000)">
            <g id="Pop-Up" transform="translate(20.000000, 79.000000)">
                <g id="place-19px-" transform="translate(16.000000, 288.000000)">
                    <polygon id="Path" points="0 0 19 0 19 19 0 19"></polygon>
                    <path d="M9.5,1.58333333 C6.43625,1.58333333 3.95833333,4.06125 3.95833333,7.125 C3.95833333,11.28125 9.5,17.4166667 9.5,17.4166667 C9.5,17.4166667 15.0416667,11.28125 15.0416667,7.125 C15.0416667,4.06125 12.56375,1.58333333 9.5,1.58333333 Z M9.5,9.10416667 C8.4075,9.10416667 7.52083333,8.2175 7.52083333,7.125 C7.52083333,6.0325 8.4075,5.14583333 9.5,5.14583333 C10.5925,5.14583333 11.4791667,6.0325 11.4791667,7.125 C11.4791667,8.2175 10.5925,9.10416667 9.5,9.10416667 Z" id="Shape" fill="#212121" fill-rule="nonzero"></path>
                </g>
            </g>
        </g>
    </g>
</svg>