<?xml version="1.0" encoding="UTF-8"?>
<svg width="60px" height="60px" viewBox="0 0 60 60" version="1.1" xmlns="http://www.w3.org/2000/svg"
     xmlns:xlink="http://www.w3.org/1999/xlink">
  <title>restaurant_favorite</title>
  <defs>
    <rect id="path-1" x="0" y="0" width="40" height="40" rx="20"></rect>
    <filter x="-38.8%" y="-36.2%" width="177.5%" height="177.5%" filterUnits="objectBoundingBox" id="filter-2">
      <feMorphology radius="0.5" operator="erode" in="SourceAlpha" result="shadowSpreadOuter1"></feMorphology>
      <feOffset dx="0" dy="2" in="shadowSpreadOuter1" result="shadowOffsetOuter1"></feOffset>
      <feGaussianBlur stdDeviation="2" in="shadowOffsetOuter1" result="shadowBlurOuter1"></feGaussianBlur>
      <feColorMatrix values="0 0 0 0 0   0 0 0 0 0   0 0 0 0 0  0 0 0 0.2 0" type="matrix" in="shadowBlurOuter1"
                     result="shadowMatrixOuter1"></feColorMatrix>
      <feOffset dx="0" dy="1" in="SourceAlpha" result="shadowOffsetOuter2"></feOffset>
      <feGaussianBlur stdDeviation="5" in="shadowOffsetOuter2" result="shadowBlurOuter2"></feGaussianBlur>
      <feColorMatrix values="0 0 0 0 0   0 0 0 0 0   0 0 0 0 0  0 0 0 0.12 0" type="matrix" in="shadowBlurOuter2"
                     result="shadowMatrixOuter2"></feColorMatrix>
      <feOffset dx="0" dy="4" in="SourceAlpha" result="shadowOffsetOuter3"></feOffset>
      <feGaussianBlur stdDeviation="2.5" in="shadowOffsetOuter3" result="shadowBlurOuter3"></feGaussianBlur>
      <feColorMatrix values="0 0 0 0 0   0 0 0 0 0   0 0 0 0 0  0 0 0 0.14 0" type="matrix" in="shadowBlurOuter3"
                     result="shadowMatrixOuter3"></feColorMatrix>
      <feMerge>
        <feMergeNode in="shadowMatrixOuter1"></feMergeNode>
        <feMergeNode in="shadowMatrixOuter2"></feMergeNode>
        <feMergeNode in="shadowMatrixOuter3"></feMergeNode>
      </feMerge>
    </filter>
  </defs>
  <g id="Revised-Version" stroke="none" stroke-width="1" fill="none" fill-rule="evenodd">
    <g id="Restaurant-Menu-with-Table-#" transform="translate(-301.000000, -217.000000)">
      <g id="Group-4" transform="translate(0.000000, 100.000000)">
        <g id="Share/Favorite" transform="translate(257.000000, 126.000000)">
          <g id="restaurant_favorite" transform="translate(54.000000, 0.000000)">
            <g id="Surface">
              <use fill="black" fill-opacity="1" filter="url(#filter-2)" xlink:href="#path-1"></use>
              <use fill="#FFFFFF" fill-rule="evenodd" xlink:href="#path-1"></use>
            </g>
            <g id="favorite_border-24px" transform="translate(8.000000, 8.000000)">
              <polygon id="Path" points="0 0 24 0 24 24 0 24"></polygon>
              <path
                d="M16.5,3 C14.76,3 13.09,3.81 12,5.09 C10.91,3.81 9.24,3 7.5,3 C4.42,3 2,5.42 2,8.5 C2,12.28 5.4,15.36 10.55,20.04 L12,21.35 L13.45,20.03 C18.6,15.36 22,12.28 22,8.5 C22,5.42 19.58,3 16.5,3 Z M12.1,18.55 L12,18.65 L11.9,18.55 C7.14,14.24 4,11.39 4,8.5 C4,6.5 5.5,5 7.5,5 C9.04,5 10.54,5.99 11.07,7.36 L12.94,7.36 C13.46,5.99 14.96,5 16.5,5 C18.5,5 20,6.5 20,8.5 C20,11.39 16.86,14.24 12.1,18.55 Z"
                id="Shape" fill="#212121" fill-rule="nonzero"></path>
            </g>
          </g>
        </g>
      </g>
    </g>
  </g>
</svg>
