<svg xmlns="http://www.w3.org/2000/svg" width="24" height="24" viewBox="0 0 24 24">
  <g fill="none" fill-rule="evenodd">
    <g>
      <g>
        <g>
          <g>
            <path d="M0 0H24V24H0z" transform="translate(-125 -585) translate(109) translate(0 553) translate(16 32)"/>
            <path fill="#212121" fill-rule="nonzero"
                  d="M17 17h2v4c0 1.1-.9 2-2 2H7c-1.1 0-2-.9-2-2V3c0-1.1.9-1.99 2-1.99L17 1c1.1 0 2 .9 2 2v4h-2V6H7v12h10v-1zm5-5l-4-4v3h-5v2h5v3l4-4z"
                  transform="translate(-125 -585) translate(109) translate(0 553) translate(16 32)"/>
          </g>
        </g>
      </g>
    </g>
  </g>
</svg>
