<?xml version="1.0" encoding="UTF-8"?>
<svg width="20px" height="24px" viewBox="0 0 20 24" version="1.1" xmlns="http://www.w3.org/2000/svg"
>
  <title>Apple</title>
  <g id="Jose" stroke="none" stroke-width="1" fill="none" fill-rule="evenodd">
    <g id="Desktop-Log-In" transform="translate(-812.000000, -673.000000)" fill="#FFFFFF" fill-rule="nonzero">
      <g id="Google" transform="translate(735.000000, 661.000000)">
        <g id="Group-2" transform="translate(77.000000, 12.000000)">
          <g id="Apple" transform="translate(-0.000000, 0.000000)">
            <path
              d="M16.2897824,12.7261671 C16.3234438,16.3512111 19.4699034,17.5575344 19.5047619,17.5729316 C19.4781571,17.6580082 19.0020101,19.2920604 17.8470575,20.9799197 C16.8486518,22.4391595 15.8124383,23.8930539 14.1800959,23.9231653 C12.5761563,23.9527194 12.0604002,22.972025 10.226643,22.972025 C8.39343985,22.972025 7.82041135,23.8930515 6.30210382,23.9527194 C4.72647929,24.0123436 3.52665776,22.3747448 2.51995489,20.9208504 C0.46287948,17.9468605 -1.10915176,12.5170536 1.00168884,8.85184533 C2.05030942,7.03168802 3.92427365,5.87908843 5.95829429,5.84953216 C7.5055173,5.82001871 8.96591192,6.8904522 9.91174895,6.8904522 C10.8569863,6.8904522 12.6316766,5.60316213 14.497343,5.79221694 C15.2783747,5.82472423 17.4707435,6.10770955 18.8785238,8.1683344 C18.7650914,8.23865394 16.262579,9.69549752 16.2897824,12.7261705 M13.2753632,3.82466311 C14.1118728,2.81210148 14.674892,1.40252205 14.5212943,0 C13.3155285,0.0484609695 11.8574868,0.80348883 10.9926178,1.81549338 C10.2175291,2.71167054 9.53872571,4.14605924 9.72187863,5.52082234 C11.0658462,5.6248033 12.4388124,4.83786866 13.2753632,3.82466475"
              id="Shape"></path>
          </g>
        </g>
      </g>
    </g>
  </g>
</svg>
