<?xml version="1.0" encoding="UTF-8"?>
<svg width="445px" height="50px" viewBox="0 0 445 50" version="1.1" xmlns="http://www.w3.org/2000/svg" xmlns:xlink="http://www.w3.org/1999/xlink">
    <title>Buy with Apple Pay</title>
    <g id="Checkout" stroke="none" stroke-width="1" fill="none" fill-rule="evenodd">
        <g id="Artboard" transform="translate(-303.000000, -268.000000)">
            <g id="Buy-with-Apple-Pay" transform="translate(303.000000, 268.000000)">
                <rect id="Surface" fill="#000000" x="0" y="0" width="445" height="50"></rect>
                <g id="Group-2" transform="translate(130.000000, 11.000000)" fill="#FFFFFF">
                    <g id="Group-5" font-family="Montserrat-SemiBold, Montserrat" font-size="24" font-weight="500">
                        <text id="Buy-with">
                            <tspan x="0" y="23">Buy with </tspan>
                        </text>
                    </g>
                    <g id="Apple_Pay_Mark_RGB_041619" transform="translate(118.000000, 0.000000)" fill-rule="nonzero">
                        <g id="Group" transform="translate(-0.000000, 0.000000)">
                            <g id="Path">
                                <path d="M12.701892,3.63782314 C13.4782861,2.6667224 14.0051422,1.36282029 13.8661874,0.0303876422 C12.7296556,0.0869008776 11.3427366,0.780196002 10.5397787,1.75205821 C9.81880761,2.58430818 9.18068904,3.94280616 9.3470459,5.21938296 C10.6228612,5.33004832 11.8974987,4.58167525 12.701892,3.63782314"></path>
                                <path d="M13.851692,5.46863612 C11.9989004,5.35827207 10.4235748,6.5201844 9.53877237,6.5201844 C8.65348235,6.5201844 7.29856164,5.52425093 5.83310157,5.55109417 C3.92571414,5.57910975 2.15587913,6.65756153 1.18796124,8.37280615 C-0.802881278,11.804139 0.66257879,16.8940061 2.59856797,19.6886338 C3.53872776,21.071225 4.67178088,22.5935598 6.16475253,22.5388763 C7.57535926,22.4835245 8.12825877,21.6254831 9.84291174,21.6254831 C11.5563047,21.6254831 12.0543509,22.5388763 13.5475636,22.5112059 C15.0960624,22.483519 16.0641501,21.1279245 17.004299,19.7439857 C18.0828384,18.1679041 18.5243549,16.6460677 18.5521239,16.562525 C18.5243494,16.5348545 15.5661806,15.4000265 15.5387512,11.9972131 C15.5108233,9.14798959 17.8612447,7.79274019 17.9718662,7.70869346 C16.6445612,5.74560357 14.5706745,5.52425093 13.851692,5.46863612"></path>
                            </g>
                            <g transform="translate(21.912848, 1.095642)">
                                <path d="M8.07151545,0.517033652 C12.0985272,0.517033652 14.9026815,3.292893 14.9026815,7.33432889 C14.9026815,11.3901944 12.0408252,14.1804724 7.97053556,14.1804724 L3.51186261,14.1804724 L3.51186261,21.2710208 L0.290471237,21.2710208 L0.290471237,0.517033652 L8.07151545,0.517033652 L8.07151545,0.517033652 Z M3.51185713,11.4764707 L7.2081821,11.4764707 C10.0128897,11.4764707 11.6091585,9.96647829 11.6091585,7.34875302 C11.6091585,4.73130713 10.0128897,3.2354649 7.22260623,3.2354649 L3.51185713,3.2354649 L3.51185713,11.4764707 L3.51185713,11.4764707 Z" id="Shape"></path>
                                <path d="M15.744365,16.9707559 C15.744365,14.3241768 17.7723005,12.6990598 21.3682043,12.4976533 L25.5100668,12.2532483 L25.5100668,11.0883668 C25.5100668,9.40554225 24.3737596,8.39878931 22.4756578,8.39878931 C20.6774292,8.39878931 19.5555461,9.26156388 19.2825668,10.6137017 L16.3485789,10.6137017 C16.5211371,7.88084628 18.8509001,5.8673404 22.5905085,5.8673404 C26.2579852,5.8673404 28.6021724,7.80899405 28.6021724,10.8436825 L28.6021724,21.2710263 L25.6249175,21.2710263 L25.6249175,18.7828553 L25.5533447,18.7828553 C24.676146,20.4656798 22.7630667,21.5298554 20.7784091,21.5298554 C17.8155729,21.5298554 15.744365,19.6889022 15.744365,16.9707559 Z M25.5100668,15.6044679 L25.5100668,14.4107381 L21.7848826,14.6407189 C19.9295053,14.7702731 18.8797539,15.5900437 18.8797539,16.8844795 C18.8797539,18.2074896 19.9727832,19.0705381 21.6411836,19.0705381 C23.8128181,19.0705381 25.5100668,17.5746959 25.5100668,15.6044679 Z" id="Shape"></path>
                                <path d="M31.4129827,26.8371582 L31.4129827,24.3201389 C31.6426841,24.377567 32.1603478,24.377567 32.4194562,24.377567 C33.8575965,24.377567 34.6343686,23.7736215 35.1087544,22.2203566 C35.1087544,22.1915029 35.382287,21.2998801 35.382287,21.2854559 L29.917135,6.14059909 L33.2822253,6.14059909 L37.1083839,18.452174 L37.1655326,18.452174 L40.9916967,6.14059909 L44.2707901,6.14059909 L38.6036729,22.0619487 C37.3097959,25.7297047 35.8139482,26.9090104 32.6785647,26.9090104 C32.4194617,26.9090104 31.6426896,26.8801567 31.4129827,26.8371582 Z" id="Path"></path>
                            </g>
                        </g>
                    </g>
                </g>
            </g>
        </g>
    </g>
</svg>