<?xml version="1.0" encoding="UTF-8"?>
<svg width="72px" height="72px" viewBox="0 0 72 72" version="1.1" xmlns="http://www.w3.org/2000/svg"
>
  <title>cart-emptyOrder</title>
  <g id="Home-Screen" stroke="none" stroke-width="1" fill="none" fill-rule="evenodd">
    <g id="Selected-Restaurant-Screen" transform="translate(-1064.000000, -299.000000)">
      <g id="Order-Ticket" transform="translate(925.000000, 153.000000)">
        <g id="Group-3" transform="translate(24.000000, 146.000000)">
          <g id="cart-emptyOrder" transform="translate(115.000000, 0.000000)">
            <circle id="Oval" stroke-opacity="0.5" stroke="#D8D8D8" fill="#FFFFFF" cx="36" cy="36" r="35.5"></circle>
            <g id="shopping_cart-24px-(1)" transform="translate(20.000000, 20.000000)">
              <polygon id="Path" points="0 0 32 0 32 32 0 32"></polygon>
              <path
                d="M22.6666667,24 C21.2,24 20.0133333,25.2 20.0133333,26.6666667 C20.0133333,28.1333333 21.2,29.3333333 22.6666667,29.3333333 C24.1333333,29.3333333 25.3333333,28.1333333 25.3333333,26.6666667 C25.3333333,25.2 24.1333333,24 22.6666667,24 Z M9.33333333,24 C7.86666667,24 6.68,25.2 6.68,26.6666667 C6.68,28.1333333 7.86666667,29.3333333 9.33333333,29.3333333 C10.8,29.3333333 12,28.1333333 12,26.6666667 C12,25.2 10.8,24 9.33333333,24 Z M9.33333333,20 L10.8,17.3333333 L20.7333333,17.3333333 C21.7333333,17.3333333 22.6133333,16.7866667 23.0666667,15.96 L28.9333333,5.33333333 L6.94666667,5.33333333 L5.69333333,2.66666667 L1.33333333,2.66666667 L1.33333333,5.33333333 L4,5.33333333 L8.8,15.4533333 L4.82666667,22.6666667 L25.3333333,22.6666667 L25.3333333,20 L9.33333333,20 Z"
                id="Shape" fill="#D8D8D8" fill-rule="nonzero"></path>
            </g>
          </g>
        </g>
      </g>
    </g>
  </g>
</svg>
