<?xml version="1.0" encoding="UTF-8"?>
<svg width="24px" height="24px" viewBox="0 0 24 24" version="1.1" xmlns="http://www.w3.org/2000/svg">
  <title>cart-active</title>
  <g id="Categories" stroke="none" stroke-width="1" fill="none" fill-rule="evenodd">
    <g id="Artboard" transform="translate(-61.000000, -136.000000)">
      <g id="cart-active" transform="translate(61.000000, 136.000000)">
        <polygon id="Path" points="0 0 24 0 24 24 0 24"></polygon>
        <path
          d="M7,18 C5.9,18 5.01,18.9 5.01,20 C5.01,21.1 5.9,22 7,22 C8.1,22 9,21.1 9,20 C9,18.9 8.1,18 7,18 Z M1,4 L3,4 L6.6,11.59 L3.62,17 L19,17 L19,15 L7,15 L8.1,13 L16.74,13 L21.71,4 L5.21,4 L4.27,2 L1,2 L1,4 Z M17,18 C15.9,18 15.01,18.9 15.01,20 C15.01,21.1 15.9,22 17,22 C18.1,22 19,21.1 19,20 C19,18.9 18.1,18 17,18 Z"
          id="Shape" fill="#E91E63" fill-rule="nonzero"></path>
      </g>
    </g>
  </g>
</svg>
