<svg xmlns="http://www.w3.org/2000/svg" width="112" height="112" viewBox="0 0 112 112">
    <g fill="none" fill-rule="evenodd">
        <g>
            <g>
                <g>
                    <g transform="translate(-1044 -374) translate(925 160) translate(24 214) translate(95)">
                        <circle cx="56" cy="56" r="56" fill="#F5F5F5"/>
                        <g>
                            <path d="M0 0L48 0 48 48 0 48z" transform="translate(32 32)"/>
                            <path fill="#212121" fill-rule="nonzero" d="M2.82 2.26L0 5.08l8.78 8.78 4.42 9.32L7.24 34h21.68l2.76 2.76c-1 .72-1.66 1.9-1.66 3.24 0 2.2 1.78 4 3.98 4 1.34 0 2.52-.66 3.24-1.68L42.92 48l2.82-2.82L2.82 2.26zM14 30l2.2-4h4.72l4 4H14zm18.1-4.12h1.46L43.4 8H14.24L32.1 25.88zM14 36c-2.2 0-3.98 1.8-3.98 4s1.78 4 3.98 4 4-1.8 4-4-1.8-4-4-4z" transform="translate(32 32)"/>
                        </g>
                    </g>
                </g>
            </g>
        </g>
    </g>
</svg>
