<svg xmlns="http://www.w3.org/2000/svg" width="193" height="163" viewBox="0 0 193 163">
    <g fill="none" fill-rule="evenodd">
        <g fill="#212121">
            <g>
                <path d="M209.047 112.804l35.708 35.709h.015l1.796 1.795v.015l3.479 3.48.007-.007 2.82 2.82-.008.007 10.444 10.443h.015l3.747 3.747h-.015l39.263 39.263.007-.008 2.656 2.656-.007.007 9.242 9.242h.014l2.78 2.78-.008.006 5.668 5.67.009-.005 2.982 2.98h-.014l5.858 5.858.011-.003 2.831 2.831-.01.004 10.212 10.21.003-.01 3.082 3.083v.014l5.707 5.707.01-.005 3.068 3.069-.008.006 6.32 6.32-4.242 4.243-6.323-6.322-.031.04h-.375l-.188.374h-.187l-.188.374h-.375l-.187.376-1.125.374-.187.375-.75.188-.188.374h-.375v.187h-.375v.188h-.562v.188l-.75.187v.187h-.562v.188h-.375v.187h-.563v.187h-.562v.187h-.563v.188h-1.124c-2.273.73-6.18 1.119-8.812.375h-1.686v-.187h-.376v-.188h-.75v-.188h-.561v-.187h-.75v-.187h-.375v-.187h-.563v-.188h-.75v-.187h-.375l-.187-.375h-.563v-.188h-.375l-.187-.374h-.375v-.187h-.375v-.188h-.374v-.188h-.375v-.187l-.563-.187-.187-.375h-.375l-.188-.375h-.375l-.562-.75h-.375l-.375-.562h-.375l-.375-.562-1.5-1.312v-.374l-1.125-.937-.187-.562-.375-.188v-.375l-.375-.187-.188-.562h-.187v-.375l-.375-.188-.187-.75c-.125-.061-.25-.124-.375-.187l-.562-1.686h-.188l-.187-.75h-.188v-.562h-.188v-.375h-.187l-.187-1.311h-.188l-.375-2.062h-.187l-.188-2.998h-.187c-.269-.967-.006-2.88.187-3.56l.188-3.187h.187v-.561h.188v-.563h.187l.562-2.624h.188l.375-1.124h.188v-.375h.187v-.562h.187l.375-1.124h.188v-.375l.562-.375.187-.75.563-.374c.286-.404.353-.768.693-1.075l-5.858-5.86h-.084l-.375.75-.375.188v.375l-.75.562v.375l-.562.375-.375 1.124h-.188l-.187.562c-.125.063-.25.126-.375.187v.376h-.187v.374h-.188v.375h-.187v.375h-.188v.374h-.187v.375h-.187l-.375 1.125h-.188l-.188.937h-.187v.375h-.187l-.188 1.124h-.187v.562h-.188v.563h-.187v.749h-.188v.75h-.187v.749h-.188l-.187 1.686h-.188v1.875c-.412 1.443-.482 3.45-.187 5.06l-.188.936h.188l.187 2.624h.188v.937h.187c.045.383-.08.22-.187.375-.304.94-2.39.562-3.562.562h-57.74l-.375.562h-.187l-.188 1.125h-.187l-.188.749h-.187v.563h-.188v.374h-.187v.375l-.375.187v.562l-.375.188-.375 1.125-.375.187v.375h-.187l-.188.561-.375.188v.375l-1.312 1.124v.375l-.937.75-1.313 1.5h-.374l-.375.561h-.375l-.563.75h-.375l-.375.562h-.375l-.187.374-1.125.376-.187.374-.75.187v.188l-1.125.375v.187h-.562v.188h-.563v.187h-.375v.187h-.562v.187l-1.5.188v.188h-.375v.187l-2.624.187v.187h-.75v.188h-.938v.188l-1.874-.188-1.125.188v-.188h-.562v-.188h-.563v-.187l-2.624-.187v-.187h-.375v-.188l-1.5-.188v-.187h-.562v-.187l-.75-.187v-.188h-.75v-.187l-1.125-.375v-.188l-.75-.187-.187-.374-.75-.188-.375-.562h-.375l-.188-.375h-.375l-.187-.375h-.375v-.187l-.562-.187-.188-.375h-.375l-1.5-1.687-1.687-1.5v-.374l-.375-.187v-.375l-.562-.375v-.375l-.563-.374v-.375h-.187v-.375l-.375-.188-.375-1.124-.374-.187v-.375h-.188v-.562h-.187l-.376-1.125h-.187v-.75h-.187v-.374h-.188l-.187-1.5h-.188l-.375-1.873h-.187v-2.624h-.188v-2.06s-.126-.035-.187-.376l-.563-.188c-.258-.23-4.014-.357-4.686-.187v.187l-1.125-.187c-.225-1.396.175-3.382.562-4.684l.187-2.062h.188v-.75h.188v-.562h.187v-.562h.188v-.75h.187v-.375h.188l.187-1.124h.188l.187-.75h.188v-.374h.187l.562-1.687h.188l.188-.562.374-.187v-.375h.188v-.375h.187v-.375h.188v-.374l.374-.188v-.375l.563-.374v-.375c.187-.126.375-.25.562-.375v-.375l.375-.187v-.375l1.5-1.312v-.375l1.5-1.311.375-.562h.374l.75-.937h.375l.375-.563h.375l.375-.562h.375l.188-.375h.375c.494-.28 1.015-.63 1.312-1.124-.473-.25-.657-.373-1.5-.375-.32.278-1.088.187-1.687.188h-20.247c-.091-.16-.562-.563-.562-.563v-.937h.188l-.188-.749c-.858-.315-2.403-.188-3.562-.188h-7.31c-.215-.213-.002-.074-.376-.187-.402-2.243-.188-5.314-.188-7.87v-28.298c0-2.557-.213-5.627.188-7.87 1.504-.268 3.638-.188 5.437-.188h38.056c.82 1.602.375 6.086.375 8.433v20.24c.286.107.307.142.75.186.313-.538.603-.593 1.124-.937l.188-.374h.562l.187-.375h.375v-.188c1.91-.791 5.01-.57 7.686-.562.114-.3.166-.445.188-.936-.64-.385-.384-.55-.75-1.125l-.375-.188v-.374h-.187v-.375h-.188v-.375h-.187v-.375h-.188v-.374h-.187l-.375-1.125h-.188v-.563h-.187v-.562h-.188v-.561h-.187v-.563h-.188v-.75h-.187v-1.124h-.187v-.561h-.188v-1.5h-.187c-.253-.903.002-4.59.187-5.247v-1.687h.188v-.75h.187v-1.124h.187v-.562h.188v-.562h.187v-.375h.188l.187-1.312h.188l.187-.75h.188l.187-.936.375-.188.375-1.124.375-.188.375-1.124.375-.187v-.375l.75-.562v-.375l.75-.563v-.374l.937-.75v-.374l4.874-4.498 3.75-3.936 4.124-3.935 1.123-1.237-5.885-5.885h-34.419c-.43-.792-.582-2.527-.188-3.56h31.047l-31.466-31.466 4.243-4.243zm-1.386 135.967c-.909 0-1.8-.074-2.25.375-.297.32-.205 1.26-.188 1.874.395.467-.035 1.362.188 2.062h.187v.562h.188l.188 1.5h.187v.561h.187v.562h.188v.75h.187l.188.75h.187v.562h.188v.374h.187v.375l.375.187v.563l.375.187v.375l.375.187v.375l.563.375v.375l.562.374v.376l.937.749v.374h.188l.375.563h.374l.75.937h.375l.563.75h.375l.375.562h.375l.187.374h.375l.187.375h.563l.187.375h.375v.187h.375v.188h.563v.187l.75.188v.187h.562v.188h.375v.187l1.312.187v.187h.75v.188h1.124v.188h.75v.187h1.5c2.473.004 4.027-.148 5.812-.75l1.312-.187v-.187h.375v-.188h.75v-.187l1.125-.375v-.188h.375v-.187h.375v-.187h.375v-.188h.375v-.187h.374l.188-.375h.375l.375-.562h.374l.188-.375h.375l.937-1.124h.375l1.125-1.312.375-.187v-.375l.75-.563v-.374c.187-.126.375-.25.562-.375v-.375l.375-.187v-.375l.375-.188.188-.75.374-.187v-.562h.188v-.374h.187l.375-1.125h.188v-.562h.187v-.562h.188v-.937h.187v-.375h.188v-.562h.187v-.937c.343-1.143.376-2.641.375-4.123l-.562-.188c-.336-.302-1.248-.186-1.875-.187-1.793-.001-3.94-.1-5.436.187l-.188.563h-.188v2.623h-.187v.563h-.187v.375h-.188l-.187 1.311h-.188l-.375 1.125-.374.187v.375c-.493.738-1.247 1.443-1.875 2.06l-.375.563h-.375l-.563.75-1.124.375-.188.374-.937.188v.187h-.375v.188l-1.125.187v.187h-.937v.188c-1.217.35-4.31-.125-5.062-.375h-.75v-.187h-.375v-.188l-1.125-.187-.187-.375-1.125-.374-.374-.563h-.375l-.563-.75h-.375l-.187-.375h-.188v-.374l-.75-.562v-.375l-.562-.375-.188-.75-.375-.187v-.374h-.187v-.376h-.187v-.561h-.188v-.375h-.187v-.562h-.188l-.562-4.124c-1.55-.302-3.775-.189-5.624-.187zm117.623-11.244h-.082c-.119.22-.31.275-.374.375v.375h-.188v.375l-.562.374-.188.75-.375.188v.375h-.187v.374h-.188v.562h-.187v.375h-.188l-.187.75h-.188v.562h-.187v.375h-.188v.936h-.187v.75h-.187v.563h-.188v1.124c-.457 1.584-.443 4.06 0 5.622v1.499h.188v.375h.187v.75h.187v.749h.188v.375h.187v.562h.188v.562h.187l.375 1.125h.188v.374h.187l.375 1.125.375.187v.375l.375.187v.375l.562.375v.375l.75.562v.375l1.5 1.312.375.562h.375l.75.937h.375l.187.374h.375l.375.563.75.187.188.375.75.187v.188l1.124.374v.188l1.687.375v.187h.75v.188h.563v.187h.375v.187l2.624.187v.188h1.875c.046.01.063.237.375.188v-.188h1.874v-.188l2.625-.187v-.187h.375v-.187l1.312-.188v-.187l1.687-.375v-.188l1.125-.374v-.188l.75-.187v-.188l.562-.187.188-.375h.375l.187-.375h.375l.33-.493-5.55-5.547-.029.044h-.375v.187l-.75.187v.188h-.562v.187h-.563l-.187.375-1.875.187v.188c-.977.308-3.337.32-4.312 0v-.188h-.937v-.187l-1.125-.187v-.188h-.374v-.187l-.938-.188-.187-.374-.75-.187-.375-.563h-.375l-1.125-1.312-.75-.562v-.374l-.75-.563v-.375l-.375-.187-.375-1.312h-.187l-.187-.75h-.188v-.749h-.187l-.188-1.312h-.187v-3.935h.187v-.562h.188l.187-1.5h.188l.187-.75h.187v-.562l.375-.186.255-.764-5.797-5.796zm17.728-11.618h2.437v.187l2.062.375v.188l1.5.187v.187h.375v.188h.75v.187l1.125.375v.187l.937.188.187.374 1.125.375.187.375.75.188.188.374h.375l.375.562h.375l.187.375h.375l1.687 1.874 1.687 1.5v.374l.375.188v.374l.75.562v.375l.375.188v.375l.563.374.562 1.687.375.187.188.75h.187l.375 1.124h.187v.75h.188v.562h.187v.562h.187v.562h.188v.563h.187v.936h.188l.188.75h.187v8.246l-.375.187v.375h-.188v.937h-.187v.937h-.188v.562h-.187v.562h-.187v.562h-.188v.563h-.187l-.076.299-3.299-3.298h.188v-.75h.187v-.561h.188v-.563h.187v-1.499h.188v-2.249h.187v-.75h-.187v-2.436h-.188v-1.124h-.187v-.562h-.188v-.75h-.187v-.75h-.188v-.374h-.187v-.563h-.188v-.374h-.187v-.562h-.188l-.187-.75h-.188l-.187-.75-.375-.187-.375-1.124-.375-.187v-.375l-.562-.375v-.375l-.75-.562v-.375l-.937-.75-1.313-1.499h-.375l-.562-.75h-.375l-.188-.374-.562-.187v-.188h-.375l-.187-.375h-.375v-.187h-.375v-.187h-.375v-.188h-.375v-.187h-.375v-.188l-1.125-.374v-.188l-1.687-.187v-.188h-.375v-.187l-1.312-.188v-.187l-3.187-.187v-.187c-.608-.169-1.552.096-1.875.187h-2.062v.187h-.75v.187h-.75v.188h-.75v.187h-.552l-3.01-3.01v-.175h.75v-.188h.376v-.187l1.125-.187v-.188l1.874-.187v-.188h.562v-.187h2.25v-.187c.895-.25 3.31.012 3.937.187zm-114.355 22.862h-10.685c-.67.79-.773.257-.75 1.874h.187v1.125h.188v.562h.187v.375h.188v.562h.187v.375l.375.187v.375l1.687 1.499.375.562 1.125.375v.188h.374v.187l1.125.375v.187h1.125v.187l2.812-.187v-.187h.375v-.188l1.125-.187v-.187h.375l.187-.375h.375l.188-.375h.375l.375-.562h.375l.187-.562.937-.75.188-.75h.187c.613-1.18.771-2.493.75-4.31l-.562-.188c-.443-.387-3.053-.187-3.937-.187zm105.33-2.542l-.161.48h-.187v.75h-.188c-.177.52-.401 2.65-.187 3.374h.187v.937h.188v.562h.187v.375h.188v.562l.562.375v.375l.375.187v.374l.937.75.188.375h.375l.374.562.75.188c.063.124.126.25.187.375h.563v.187l1.312.187v.188c1.293.426 2.75.01 3.75-.375h.562v-.187l.51-.128-10.473-10.473zm-29.406-29.128v.375l-1.125.938v.373l-.75.563v.375l-.75.562v.375l-.562.375v.374l-.375.188-.187.562h-.188v.375l-.375.187-.187.562h-.188l-.375 1.124-.375.188-.187.75-.375.187-.375 1.125-.375.187-.374 1.312-.376.187-.75 2.249h-.187v.375h-.187v.562h-.188v.375h-.187l-.188.937h-.187v.561h-.188l-.375 1.874h-.187v.375h-.188l-.187 1.687h-.188v.375h-.187l-1.125 6.558c-.95.486-2.285.375-3.75.375h-33.368c-.122.323-.179.589-.188 1.125.414.444.392 1.901.375 2.811l-.562.187v.187h-.937c-1.33-.336-3.722-.228-5.062 0l-.188 3.561c1.143.584 3.345.375 5.062.375h50.991c.213-.213 0-.075.375-.187.133-3.161-.147-7.391.75-10.308v-1.311h.187v-.562h.188l.187-1.5h.188v-.374h.187l.188-1.312h.187v-.375h.188l.187-1.124h.188l.374-1.124h.188v-.375h.187l.563-1.687.375-.187.187-.75.375-.187v-.375h.188v-.375h.187v-.375l.563-.375v-.374h.187l.187-.562.376-.188v-.375l.562-.374v-.375l.562-.375.188-.562.763-.636-9.235-9.235-.152.126zm38.097 20.835l1.834.154v.187h.562v.188h.375v.187h.563v.187h.562l.187.375.75.187.375.563.75.187.562.75 1.313 1.124v.374l.375.188v.375l.562.375.375 1.124h.187v.375h.188l.187 1.125h.187v.561h.188v.563h.188v1.12l-10.27-10.269zm-120.02-15.025c-.457.39-1.752.166-2.437.374v.188h-1.125v.187h-.375v.188h-1.124v.186h-.563v.188h-.375v.187c-.508.22-1.028.135-1.5.375v.188h-.375v.187h-.562v.188l-1.125.375v.187l-.75.187-.187.375-.75.188-.187.374-.75.188-.375.562-.75.187-.562.75h-.375l-1.125 1.311-1.312.938v.374l-1.5 1.312v.375l-.562.374v.376l-.375.187v.375l-.563.375-.187.749-.375.187-.188.75-.375.188v.374h-.187v.562l-.375.188-.75 2.249h-.188v.375h-.187v.561h-.188l-.187 1.312c-.258.77-.551 1.32-.562 2.436 1.089.556 3.04.375 4.687.375h47.053c.26-.489.332-.317.375-1.124-.476-.49-.121-.819-.375-1.5h-.187v-.374h-.188l-.187-1.312h-.187v-.562h-.188l-.187-.937h-.188v-.375h-.187v-.562l-.375-.187v-.563h-.188v-.374h-.187v-.375l-.375-.187-.187-.75-.375-.188-.188-.749-.375-.187v-.375l-.375-.188v-.374l-.75-.563v-.374c-1.124-1.188-2.25-2.374-3.374-3.561h-.375l-.375-.562h-.375l-.562-.75-.562-.187-.188-.375-.75-.187-.375-.562-1.125-.375-.187-.375h-.562l-.188-.375h-.375v-.187l-1.125-.188v-.187l-.75-.188v-.187l-1.124-.188v-.187h-.375v-.188h-.563v-.186h-.937v-.188h-.375v-.187h-1.125c-2.08-.623-4.919-.561-7.686-.562zm38.623-49.387l-.755.85-3.186 2.999c-.663.662-1.242 1.784-2.25 2.06v.376c-.265.434-.667-.016-.937.937h-.376v.375c-.264.434-.666-.016-.937.936h-.375c-.258.938-.673.44-.937 1.312h-.375l-.375.75h-.375l-.187.563h-.375c-.667 1.122-2.528 1.875-2.625 3.373.213.158.028-.024.188.187.805-.002 1.129.123 1.687.375v.187h.937v.187h.375v.188h.562v.187l1.313.188v.187h.562v.188h.375v.187h.75v.187h.563v.187h.562v.188h.562v.187l1.313.188v.187h.375v.188h.937v.187h.375v.188l1.125.187v.187h.75v.187h.562v.189h.375v.187l1.312.187v.187h.562v.187h.563v.188h.562v.188h.75v.187h.375v.187h.562v.187h.75v.188h.375v.187h.562v.188l2.063.375v.187h.375v.188h.75v.187h.562v.187h.562v.187h.563v.188h.75v.187h.375v.187h.562v.188h.75v.188h.375v.187h.75v.188h.374v.187h.75v.187c1.256.478 2.56.628 3.75 1.124l.187.563h.188v1.312h.187v1.311h.187v1.5h.188v1.873h.187v1.312h.188v.937h.187l.188 3.373h.187v2.062h.188l.187 3.185h.188v1.313h.187v.937h.188v2.248h.187v1.312h.188v1.687h.187v1.311h.188v1.874h.187v1.5h.188v.749h.187v2.061h.188v1.687h.187v1.687c.443 1.538.686 3.793.75 5.622.264.137.567.336.75.561 1.011.039 1.68.031 2.062-.561.474-.546.121-1.115.375-1.874h.187v-.563h.188v-.937h.188l.187-1.5h.187v-.561h.188v-.562h.187v-.938c.125-.061.25-.124.375-.187l.375-1.874h.187v-.374h.188l.187-1.125h.188l.187-.75h.188v-.562h.187l.188-.75h.187l.562-1.686.375-.187.188-.937.375-.188v-.562l.375-.188.375-1.123.375-.188v-.375h.187v-.374l.375-.188v-.375l.375-.187v-.375h.187l.188-.562.375-.188v-.374l.375-.188v-.375h.187l.188-.561.374-.187v-.376l.75-.562v-.375l.75-.562.188-.562.375-.188v-.375l1.247-1.092-40.798-40.798zm-20.439 49.387l.188.75c1.061.44 1.935.872 2.812 1.498l.562.75h.375l.75.937h.375l.375.562 1.5 1.312v.375l1.124.936v.375l.75.563.188.562.375.187.187.75.562.375.188.749.375.188v.374h.188v.375h.187v.375h.188v.374h.187v.375h.187v.375h.188v.375h.187l.375 1.124h.188v.75h.187v.562h.187v.562h.188v.563h.188l.187.562h.188l.187.374h9.186c.213-.213 0-.074.375-.187.164-.434.19-.825.187-1.5h-.187v-1.123h-.188v-.937h-.187v-2.249c-.545-1.906-.389-4.448-.938-6.372v-1.499h-.187v-.562h-.187v-2.623h-.188c-.12-.331-.08-.488-.187-.75-1.415-.517-4.56-.187-6.374-.187h-13.685v-.188c-.316-.18-1.1.142-1.313.188zm7.69-62.136l2.996-3.08c-2.187 2.25-4.374 4.5-6.561 6.747-2.35 1.699-4.16 3.972-6.187 5.997-2.575 2.575-5.321 4.889-7.311 8.058v.375h-.187l-.375 1.124h-.188v.563h-.187v.562h-.188v.375h-.187v.75h-.188v.562h-.187v.561h-.188v.563h-.187v.937h-.188v2.436h-.187v2.061h.187v2.25h.188v.937h.187v.748h.188v.376h.187v.561h.188v.938h.187v.375h.188v.561h.187v.375h.188v.563l.375.187.374 1.125.375.187.188.75 3.562 4.122h.375v.188h.375v.187h.562v.187h.562v.188h.563v.187l1.312.187v.188h.375v.187l2.437.562v.188h.75v.187h.562v.188h.375v.187l1.5.188v.187h.375v.187l1.875.375v.188h.562v.187h.562v.187h.563v.187h.562v.188h.562v.188l1.313.187v.187h.375v.188h.75v.187h.75v.187h.375v.188l1.124.187v.187l1.313.188v.187h.375v.188h.75v.187l2.436.562v.188h.563v.187h.375v.188h.75v.187h.562v.188h.562v.187c.874.344 1.324.028 1.875.75h.188v1.311c.335.4.006 1.066.187 1.687h.187v1.124h.188v1.686h.187v1.312h.188v2.062h.187v1.124h.188v1.312h.187v2.25h.188v.936h.187v1.874h.188v1.499h.187v1.687c.533 1.85.56 4.364.937 6.37 1.212.237 1.746-.051 2.813-.374h2.437v-.187h1.5v-.187h1.686v-.188h1.125v-.187h1.875v-.188c.71-.204 2.114.123 2.437-.375v-.374c.123-.153.153-1.167 0-1.687h-.188l-.187-2.998h-.187v-1.687h-.188v-1.874h-.187v-.937h-.188v-1.874h-.187v-1.312h-.187v-2.06h-.188v-1.125h-.188v-1.312h-.187v-2.249h-.188v-.937h-.187v-1.874h-.187v-1.311h-.188v-2.062h-.187v-1.124h-.188v-.938h-.187v-2.248h-.188v-1.5h-.187l-.188-3.185h-.187l-.188-.937-.75-.187v-.187h-.937v-.189h-.375v-.186l-1.125-.188v-.187h-.562v-.188h-.562v-.187h-.563v-.188h-.75v-.187h-.375v-.187h-.562v-.188h-.75v-.187h-.562v-.187h-.563v-.188h-.562v-.188h-.938v-.187l-.75-.187v-.187l-3.186-.75v-.187h-.563v-.188h-.375v-.187l-3.186-.75v-.188h-.563v-.187h-.375v-.187l-1.312-.187v-.188h-.562v-.187h-.563v-.188h-.75v-.187h-.562v-.188h-.562v-.187h-.563v-.188h-.562v-.187h-.563v-.187h-.562v-.187l-1.313-.188v-.188h-.375v-.187l-1.874-.374v-.187h-.375v-.189c-.5-.061-1-.124-1.5-.187v-.187h-.562v-.187h-.375v-.188l-1.312-.187c-.493-.228-.732-.794-1.125-1.125-.06-1.196-.472-2.943 0-4.122.62-1.549 2.439-2.813 3.562-3.936l7.311-7.495 1.687-1.5.563-.75h.375l.375-.561.562-.188v-.375h.187v-.562h-6.186c-.457-.871-.39-1.999-.375-3.373.75-.383 2-.427 3.261-.41l-6.257-6.256zm73.483-1.018h6.75c.088.187.365.356.375.375v.75h.187v.375h.187v.562h.188l.187.75h.188v.561h.187v.376h.187l.188 1.124h.187l.188.75h.188l.187 1.124.375.187v.562h.187v.563h.188l.187.749h.188l.187 1.125h.188l.187.75h.188l.187 1.124h.188v.375h.187v.562h.188l.375 1.124h.187v.75h.187l.188.75h.187l.188 1.123h.187l.375 1.125h.188v.75h.187l.188.75h.187l.187 1.123.375.188.188 1.124h.187c.063.25.126.5.187.75h.188v.562h.187v.562h.188v.375h.188c.47.913-.12 1.42 1.312 1.499.581-.581 1.166-.134 2.062-.374v-.188h.937v.188h1.875v.187h.562v.187h.376v.187h.562v.188h.562l.188.375.562.187v.188h.375l.188.375h.374l.375.562h.375v.187l.375.187v.375l.75.562v.375l.375.187.188.563h.187v.375h.188l.187.749h.187v.562h.188v.375h.187l.188 2.25h.187v.936h-.187v1.686h-.188v.938h-.187v.374h-.188v.75h-.187l-.375 1.124h-.187v.375l-.563.375v.375l-.75.561v.376l-.375.187v.187h-.375l-.562.75h-.375v.187c-.914.514-1.053.062-1.125 1.5h.188v.562h.187l.187.75h.188v.562h.187v.374h.188v.563h.188v.374h.187v.563h.187l.188.749h.187v.562h.188v.375h.187v.562h.188v.375h.187l.188.937h.187v.562h.188v.376h.187v.56h.188v.376h.187v.562h.188v.375h.187v.562h.188v.375h.187v.562h.187v.375h.188v.562h.187v.375c.365.705.507.523.562 1.686-1.539-.02-2.271-.4-3.374-.748h-.937v-.189h-.75v-.187h-.937v-.187h-.937v-.187h-2.25v-.188h-1.5v-.187c-.568-.158-1.404.107-1.687.187h-1.875v.188h-1.874v.187h-.75v.187h-1.5v.187l-1.312.189v.187h-.563v.186h-.562v.188h-.562v.187h-.563v.188h-.75v.187h-.375v.188l-.937.187v.187l-.75.188v.187h-.375v.188h-.562l-.188.375h-.375v.187l-.362-.001-2.814-2.814c.184-.06.368-.122.552-.184l.187-.374.938-.187.187-.375.937-.188.188-.375h.375v-.187h.562v-.188h.375v-.187l1.688-.375v-.187h.374v-.188l1.875-.374v-.188h.562v-.187h.75v-.187h.75v-.188h1.125v-.187h.937v-.187h1.125v-.188h2.812v-.188l1.687.188 1.875-.188v.188l3 .188.374-.563h-.187v-.561h-.187v-.376h-.188v-.374h-.187v-.375h-.188v-.563h-.188v-.562h-.187l-.187-.75h-.188l-.187-1.124h-.188l-.187-.937h-.188l-.187-.75h-.188l-.562-1.873h-.188l-.187-.563-.375-.187v-1.124h-.188v-.562h-.187l-.187-.937h-.188v-.376h-.187v-.561h-.188l-.187-.75h-.188v-.562h-.187v-.375h-.188l-.187-.937h-.188v-.562h-.187v-.375h-.188l-.187-1.125h-.188l-.187-.749h-.188l-.187-1.125h-.187l-.188-.749h-.188v-.562h-.187l-.188-.75h-.187v-.562h-.187v-.562h-.188l-.187-.75h-.188l-.187-1.124h-.187l-.188-.75h-.187v-.75h-.188v-.374h-.188v-.375h-.187v-.374h-.187v-.563h-.188l-.187-.75h-.188l-.187-1.124h-.187v-.374h-.188l-.187-1.125h-.188l-.187-.75h-.188l-.187-1.124h-.188l-.187-.75h-.188v-.562h-.187l-.188-.75h-.187l-.188-1.124h-.187l-.188-.75h-.187l-.187-1.123h-.188l-.188-.75h-.187v-.563h-.188V174h-.187v-.562h-.187v-.376h-.188v-.561h-.187v-.376h-.188v-.561h-.187V171h-.187l-.188-.562c-.377.108-.162-.022-.375.188-.356.415-.187 1.703-.188 2.435l-.187 5.622h-.187v4.685h-.188v5.622c-.325 1.157.145 3.128-.187 4.31h-.188l-.187 5.81v2.624h-.188l-.187.937-3.375 1.124v.187h-.375v.188l-1.125.187v.187h-.374l-.188.375h-.563v.188l-.75.187v.187h-.374v.188h-.562l-.188.375-.562.187v.188h-.563l-.187.374-1.125.375-.188.375-.75.187-.187.375-.75.188v.187l-.562.187c-.062.126-.125.25-.188.375l-.17-.001-2.747-2.747.106-.156.187-.282.75-.187.375-.562.75-.188.187-.375h.375l.187-.374h.376l.187-.375h.375v-.187h.375v-.188h.374v-.187h.375v-.188l.75-.187.188-.375.75-.188v-.187l.75-.187v-.187h.562v-.187h.375v-.189h.375l.187-.374 1.125-.187.187-.375h.563v-.188h.75l.187-.374c.495-.342.34.2.563-.562.377-.44.185-1.858.187-2.625l.188-5.809c.255-.912-.1-2.529.187-3.56h.188v-1.5h-.188v-.749h.188v-2.623s.156-.018.187-.376v-4.31c.286-1.02-.13-2.798.188-3.935h.187v-4.497c.4-1.43.374-4.517.188-5.622-1.673-.299-4.028-.19-6-.187-.456-.872-.39-2-.374-3.374.918-.473 2.137-.375 3.561-.375zm-88.671 46.475h-5.25l-4.311.188v.187h-.563v.187c-.374.126-.75.25-1.125.375l-.374.562h-.375l-.75.937-.563.375-.187.75-.375.187v.375h-.187v.562h-.188v.375h-.187v.937c-.278.922-.187 2.526-.188 3.748 0 1.065.04 2.195.188 2.998h42.555c.308-.58.356-.336.375-1.311-.593-.707.184-1.389-.938-2.062v-.188l-1.312-.187v-.187h-.75v-.188h-.375v-.187l-1.312-.187v-.188h-.562v-.187h-.375v-.187l-1.313-.188v-.188h-.562v-.187h-.563v-.187h-.562v-.188h-.562v-.186h-.562v-.188l-1.5-.188v-.187h-.563v-.187h-.375v-.188h-.75v-.187h-.562v-.188h-.375v-.187h-.75v-.188h-.562v-.187h-.75v-.187h-.375v-.188l-1.312-.187v-.188h-.375v-.187h-.563v-.188l-1.312-.187v-.187h-.375v-.188l-1.5-.187v-.187h-.374v-.188h-.75v-.187h-.563v-.187h-.75v-.188h-.374v-.188l-1.313-.187v-.187h-.375v-.187l-1.312-.188v-.187h-.375l-.562-.75zm-18.934-26.236h-35.994c-.11.24-.185.402-.375.563.467 2.65.187 6.21.187 9.182v25.86c-.006.031-.308.068-.187.376h.187v.374c.256.368 1.655.188 2.25.188h33.932c.33-.906.187-2.538.187-3.747v-32.608c-.213-.158-.027.024-.187-.188zm126.352 8.621c-.017.873.097 1.297.375 1.873h.188c.222.5.135 1.032.375 1.5h.187v.374h.187l.188 1.125h.187l.188.75h.187l.188 1.124h.187l.188.75h.187v.561h.188l.187.75h.188v.562l.937 1.875h.75l1.5-1.687.374-.188.188-.936h.188v-.376h.187v-.936h.187c.173-.568.167-1.739 0-2.249h-.187v-.936h-.187v-.376h-.188l-.375-1.124-.562-.375c-.665-.678-1.325-1.469-2.25-1.874l-1.125-.187v-.188c-.847-.265-2.212.075-2.812.188zM275.9 114.033v.374l1.124.187v.188h1.5v.187h.375v.188l1.312.187v.188h.376v.187h.562v.188l1.124.374v.187h.375v.188l1.125.375.375.562h.375l.375.562h.375l.937 1.125h.375l.188.562.937.75v.374l.938.75v.374h.187v.376l.375.187.375 1.125.375.186v.375h.188v.563h.187l.187.75h.188l.187 1.311h.188l.187 1.312h.187v1.499h.188c.241.868-.018 3.15-.188 3.748v1.874h-.187v.75h-.187v.562h-.188v.562h-.187v.937h-.188l-.187.75h-.187v.561h-.188v.375l-.375.188-.375 1.124-.375.188v.375h-.187l-.188.561-.375.188v.375l-.938.75v.374l-.562.187-.937 1.125h-.375l-.75.937h-.375l-.187.375h-.375v.187h-.375v.188h-.375v.187h-.375l-.188.375h-.375v.187h-.562l-.187.375h-.375v.187h-.75v.187h-.562v.188h-.75v.188h-.375v.187l-3.375.187v.187c-1.312-.061-2.624-.124-3.936-.187l-4.125-1.311c-.898-.479-1.918-1.437-2.999-1.687v.562l3.936 3.748v.375l.563.187v.188l.937.749v.375l.563.188v.374l.562.375v.187h.375v.188h42.555c.468 1.28.187 3.63.187 5.247v11.431c-1.089.556-3.04.375-4.686.375l-33.339-.001-3.747-3.747h37.648l.188-.562c.34-.381.187-1.557.187-2.249 0-2.14.162-4.725-.187-6.56-1.56-.277-3.768-.187-5.625-.187H264.651c-.32-.55-.542-.536-.563-1.498h.188v-.937h-.188l.188-1.125.562-.187v-.75c-.983-.557-1.828-1.826-2.624-2.623-.444-.445-.934-.59-1.125-1.312h-.75c-.608 1.046-2.128 2.128-3 2.998l-.26.263-2.64-2.64 1.494-1.558 2.156-2.249c.675-.675 2.37-1.876 2.625-2.811-.25-.204-.346-.514-.563-.75l-.374-.187v-.374l-.375-.188v-.375l-.375-.187-.375-1.125h-.188v-.375h-.187v-.562h-.188l-.187-.75h-.188v-.75h-.187v-.56h-.187v-.376h-.188v-1.124c-.626-2.144-.658-4.902 0-6.934v-1.125h.188v-.561h.187v-.563h.187v-.749h.188l.375-1.125h.187v-.375h.188l.375-1.124.375-.187v-.375l.375-.188v-.374l.562-.375v-.375l.562-.375v-.375l.375-.186.938-1.125h.375l.75-.936h.375l.374-.563.75-.188.375-.562h.375v-.188l1.125-.374v-.187h.562v-.188h.375l.187-.375h1.125v-.187h.375v-.188h.563v-.187h1.125v-.188h.937s-.005-.119.375-.187v-.374h3.562zm-83.61 46.849h14.997c.471.9.39 2.15.375 3.56-.214.214-.075.001-.188.375-2.66.222-6.68 0-9.935 0-3.782 0-8.453.24-11.623 0-.172-.956-.19-2.332-.188-3.56 1.42-.728 4.513-.375 6.562-.375zm79.86-42.54c-.546.52-.939.101-1.687.375v.188h-.375v.187h-.562v.188h-.563v.187l-1.125.375v.188l-.75.186-.374.563h-.375l-.375.562h-.375l-.75.937-1.5 1.311v.375l-.562.375v.375h-.187v.375h-.188v.375h-.187v.375l-.375.187-.375 1.686h-.188v.375h-.187v.937h-.188v.562h-.187l-.188 3.561h.188v1.125h.187v.562h.188v1.124h.187l.188.75h.187l.188 1.124.375.188.187.749h.188l.187.562.375.187v.375c.187.126.375.25.563.375v.375l.562.375 1.124 1.311h.375l.563.75h.375l.187.375.75.187.187.375h.375v.187l.938.188v.187h.375v.188c.849.366 4.763 1.156 6.186.75v-.188h1.312v-.187h.375v-.188h.75v-.187h.563v-.188h.375v-.187h.562v-.188h.562l.188-.374 1.125-.375.187-.375h.375l.562-.75h.375l.563-.749h.375l.187-.562.563-.375v-.375l.75-.562v-.375l.375-.187.187-.75h.187l.375-1.124h.188v-.562h.187v-.375h.187l.188-1.312h.187v-.75h.188v-1.498h.188v-1.125h-.188v-2.062h-.188v-.749h-.187v-.562h-.188v-.75h-.187v-.374h-.187v-.75h-.188v-.375l-.375-.187-.187-.75-.375-.187-.187-.75-.375-.188v-.375l-1.125-.936v-.375l-.563-.188-.562-.749h-.375l-.375-.562-.562-.188-.188-.375-.75-.186v-.188l-1.124-.375v-.187l-1.313-.188v-.187h-.375v-.188h-.937c-1.335-.41-2.865-.385-4.687-.374z" transform="translate(-624 -406) translate(450 294)"/>
            </g>
        </g>
    </g>
</svg>
