<?xml version="1.0" encoding="UTF-8"?>
<svg width="151px" height="93px" viewBox="0 0 151 93" version="1.1" xmlns="http://www.w3.org/2000/svg"
     xmlns:xlink="http://www.w3.org/1999/xlink">
  <title>curbsidepickup-car</title>
  <g id="Curbside-Pickup" stroke="none" stroke-width="1" fill="none" fill-rule="evenodd">
    <g id="Curbside-Pick-Up-Pop-Up" transform="translate(-111.000000, -272.000000)">
      <g id="Group-3" transform="translate(20.000000, 104.000000)">
        <g id="curbsidepickup-car" transform="translate(91.000000, 168.000000)">
          <path
            d="M143.292221,93 L1.70777899,93 C0.764401877,93 0,92.1048 0,91 C0,89.8952 0.764401877,89 1.70777899,89 L143.292221,89 C144.235598,89 145,89.8952 145,91 C145,92.1048 144.235598,93 143.292221,93 Z"
            id="Path" fill="#212121" fill-rule="nonzero"></path>
          <path
            d="M42.5,37 C41.6714,37 41,36.0900421 41,34.9670289 L41,28.0329711 C41,26.9099579 41.6714,26 42.5,26 C43.3286,26 44,26.9099579 44,28.0329711 L44,34.9670289 C44,36.0900421 43.3286,37 42.5,37 Z"
            id="Path" fill="#212121" fill-rule="nonzero"></path>
          <path
            d="M35.5,37 C34.6714,37 34,36.0900421 34,34.9670289 L34,28.0329711 C34,26.9099579 34.6714,26 35.5,26 C36.3286,26 37,26.9099579 37,28.0329711 L37,34.9670289 C37,36.0900421 36.3286,37 35.5,37 Z"
            id="Path" fill="#212121" fill-rule="nonzero"></path>
          <path
            d="M75.8289698,15 C77.0685508,15 78.2877615,15.3559203 79.374319,16.0326917 L79.6431298,16.2085487 L103.104585,32.315491 C103.427668,32.3835452 104.086813,32.5094846 104.776695,32.6401173 C122.130303,35.9340969 135.118529,39.7928482 143.542604,44.1451879 C143.562412,44.1553569 143.583587,44.1647437 143.603396,44.1764772 C145.741347,45.2841179 147.588318,46.4230479 149.131332,47.5940494 C150.826842,48.8559665 151.492444,51.6892668 150.609367,53.7593845 L150.515877,53.9637659 L143.757765,67.7725101 C142.997529,69.325241 142.190162,70.29912 142.100682,70.4047213 C141.814711,70.7433409 141.433214,70.9503138 141.027191,70.9921272 L140.873921,71 L131.135655,71 C130.192361,71 129.428026,70.1246822 129.428026,69.0444196 C129.428026,68.0181701 130.117838,67.1768834 130.995577,67.0953203 L131.135655,67.0888392 L140.076117,67.0888392 C140.246311,66.8307026 140.450657,66.4970589 140.655557,66.1032991 L140.778294,65.8599525 L147.536406,52.0519905 C147.681213,51.7555245 147.481079,51.0288308 147.258405,50.8629976 C146.268663,50.1121525 145.143474,49.3732854 143.883296,48.6474442 L143.334956,48.33717 L139.809727,53.4811286 C139.47913,53.9629837 138.980503,54.2297248 138.466165,54.2297248 C138.325285,54.2297248 138.183253,54.2094846 138.04295,54.168344 L137.90333,54.1202123 L127.400046,49.9196256 C126.706535,49.6416888 126.250759,48.8907459 126.255591,48.0612552 L126.262765,47.8944266 L126.751147,41.7961447 C120.383741,39.9070541 112.864709,38.1368627 104.218642,36.4957396 C103.234417,36.309448 102.674477,36.202472 102.326074,36.1231308 L102.243257,36.1038413 L53.6591651,36.1038413 C50.9029687,36.1038413 48.6486791,33.5992093 48.5403534,30.4727232 L48.5362783,30.2371002 L48.5362783,19.3875402 C42.5026354,20.1021092 36.5735503,21.6327614 30.8292233,23.9944641 L30.0098706,24.3375052 L5.24310384,34.8952926 C5.17548173,34.9242352 5.10649352,34.9484844 5.03613921,34.967258 C4.13492856,35.2088374 3.48960927,36.0804685 3.42068864,37.1228501 L3.41457479,37.3084788 L3.41457479,38.8095823 L10.9534149,38.8095823 C11.8495444,38.8095823 12.584163,39.5995566 12.6553845,40.6047442 L12.6610439,40.7651627 L12.6610439,53.4396703 C12.6610439,54.4659198 11.9712318,55.3072066 11.0934937,55.3887696 L10.9534149,55.3952507 L3.41457479,55.3952507 L3.41457479,56.3722587 C3.41457479,62.0826595 7.40219962,66.7460827 12.3561454,66.9025244 L12.6132303,66.9065791 L22.2818252,66.9065791 C23.2251194,66.9065791 23.9894541,67.7818969 23.9894541,68.8621595 C23.9894541,69.888409 23.2996421,70.7296958 22.421904,70.8112588 L22.2818252,70.8177399 L12.6139133,70.8177399 C5.75500355,70.8177399 0.15742797,64.516479 0.00326285188,56.7032803 L-2.64499533e-12,56.3722587 L-2.64499533e-12,37.3084788 C-2.64499533e-12,34.4920638 1.59671238,32.0596019 3.92441923,31.260713 L4.14475691,31.1906412 L7.87558458,29.6003632 L22.1807336,23.5020813 L28.8179457,20.6727476 C37.379521,17.0227101 46.3412379,15.1173794 55.4682936,15.0052565 L56.3244323,15 L75.8289698,15 Z M99.0814113,66.461489 C100.024706,66.461489 100.78904,67.3368068 100.78904,68.4170694 C100.78904,69.4433189 100.099228,70.2846057 99.2214901,70.3661687 L99.0814113,70.3726498 L54.254786,70.3726498 C53.3114918,70.3726498 52.5471571,69.497332 52.5471571,68.4170694 C52.5471571,67.3908199 53.2369692,66.5495332 54.1147073,66.4679701 L54.254786,66.461489 L99.0814113,66.461489 Z M9.24578603,42.7207431 L3.41457479,42.7207431 L3.41457479,51.48409 L9.24578603,51.48409 L9.24578603,42.7207431 Z M130.096734,42.8388602 L129.785262,46.7328118 L137.876691,49.968124 L140.113685,46.7038693 C137.255797,45.3678167 133.914309,44.0794804 130.096734,42.8388602 Z M75.8289698,18.9111608 L56.3244323,18.9111608 C55.1539551,18.9111608 53.9878495,18.9532136 52.8240171,19.0192965 L51.9515362,19.0730828 L51.9515362,30.2386646 C51.9515362,31.2626847 52.6425811,32.1059779 53.5192713,32.187077 L53.6591651,32.1934633 L96.2863643,32.1934633 L77.8876873,19.5627602 C77.2661103,19.1372259 76.5543706,18.9111608 75.8289698,18.9111608 Z"
            id="Combined-Shape" fill="#212121" fill-rule="nonzero"></path>
          <g id="Group" transform="translate(20.000000, 49.000000)" fill="#212121" fill-rule="nonzero">
            <path
              d="M95.1620455,39.7605195 C85.6595455,39.7605195 77.9290909,30.9257143 77.9290909,20.0657143 C77.9290909,9.20571429 85.6602273,0.370909091 95.1620455,0.370909091 C104.663864,0.370909091 112.394318,9.20571429 112.394318,20.0657143 C112.395,30.9257143 104.664545,39.7605195 95.1620455,39.7605195 Z M95.1620455,4.26701299 C87.5393182,4.26701299 81.3381818,11.354026 81.3381818,20.0657143 C81.3381818,28.7774026 87.54,35.8644156 95.1620455,35.8644156 C102.784091,35.8644156 108.985227,28.7766234 108.985227,20.0657143 C108.985227,11.3548052 102.784773,4.26701299 95.1620455,4.26701299 Z M95.1620455,29.7545455 C90.4875,29.7545455 86.6836364,25.4080519 86.6836364,20.0657143 C86.6836364,14.7233766 90.4868182,10.3768831 95.1620455,10.3768831 C99.8359091,10.3768831 103.639773,14.7233766 103.639773,20.0657143 C103.639773,25.4080519 99.8365909,29.7545455 95.1620455,29.7545455 Z M95.1620455,14.272987 C92.3665909,14.272987 90.0927273,16.8709091 90.0927273,20.0657143 C90.0927273,23.2605195 92.3665909,25.8584416 95.1620455,25.8584416 C97.9568182,25.8584416 100.230682,23.2597403 100.230682,20.0657143 C100.230682,16.8716883 97.9568182,14.272987 95.1620455,14.272987 Z"
              id="Shape"></path>
            <path
              d="M17.5615909,39.7605195 C8.05909091,39.7605195 0.328636364,30.9257143 0.328636364,20.0657143 C0.328636364,9.20571429 8.05977273,0.370909091 17.5615909,0.370909091 C27.0634091,0.370909091 34.7938636,9.20571429 34.7938636,20.0657143 C34.7938636,30.9257143 27.0634091,39.7605195 17.5615909,39.7605195 Z M17.5615909,4.26701299 C9.93886364,4.26701299 3.73772727,11.354026 3.73772727,20.0657143 C3.73772727,28.7774026 9.93954545,35.8644156 17.5615909,35.8644156 C25.1836364,35.8644156 31.3847727,28.7766234 31.3847727,20.0657143 C31.3847727,11.3548052 25.1843182,4.26701299 17.5615909,4.26701299 Z M17.5615909,29.7545455 C12.8870455,29.7545455 9.08318182,25.4080519 9.08318182,20.0657143 C9.08318182,14.7233766 12.8863636,10.3768831 17.5615909,10.3768831 C22.2354545,10.3768831 26.0393182,14.7233766 26.0393182,20.0657143 C26.0393182,25.4080519 22.2354545,29.7545455 17.5615909,29.7545455 Z M17.5615909,14.272987 C14.7661364,14.272987 12.4922727,16.8709091 12.4922727,20.0657143 C12.4922727,23.2605195 14.7661364,25.8584416 17.5615909,25.8584416 C20.3563636,25.8584416 22.6302273,23.2597403 22.6302273,20.0657143 C22.6302273,16.8716883 20.3556818,14.272987 17.5615909,14.272987 Z"
              id="Shape"></path>
          </g>
          <g id="Group-2" transform="translate(108.000000, 0.000000)" fill="#FFFFFF" stroke="#212121" stroke-width="2">
            <path
              d="M13.5302704,21.0524225 L13.9704081,36.1428571 L6.47040827,36.1428571 L6.02890877,21.447231 L13.5302704,21.0524225 Z"
              id="Rectangle"></path>
            <rect id="Rectangle" x="1" y="1" width="18" height="26.5714286" rx="2"></rect>
          </g>
        </g>
      </g>
    </g>
  </g>
</svg>
