<?xml version="1.0" encoding="UTF-8"?>
<svg width="130px" height="40px" viewBox="0 0 130 40" version="1.1" xmlns="http://www.w3.org/2000/svg">
  <title>eatos_logo_no text</title>
  <g id="Home-Screen" stroke="none" stroke-width="1" fill="none" fill-rule="evenodd">
    <g id="RefundReceived---Desktop" transform="translate(-165.000000, -35.000000)" fill-rule="nonzero">
      <g id="Group" transform="translate(0.000000, 24.000000)">
        <g id="eatos_logo_no-text" transform="translate(165.000000, 11.000000)">
          <path
            d="M19.0291262,17.5056362 C18.0011057,16.6488793 16.6989422,16.1976252 15.365133,16.2359095 C13.9452146,16.2351256 12.563145,16.6969944 11.4253553,17.5525295 C10.2585312,18.3869961 9.50132957,19.6838199 9.34443634,21.1164217 L20.7805365,21.1164217 C20.6157821,19.5581207 20.0319787,18.3545255 19.0291262,17.5056362 Z M40.8554946,25.6037515 C37.9472223,25.6037515 36.4930862,26.5199747 36.4930862,28.3379926 C36.4550686,29.1904506 36.8471222,30.0045778 37.5353365,30.5022996 C38.23017,31.0073045 39.2222777,31.2561998 40.5152411,31.2561998 C41.7585979,31.2741553 42.9684457,30.8501131 43.9321028,30.0586166 C44.9020747,29.2929951 45.450431,28.1066871 45.4077286,26.8662639 L45.4077286,25.5929299 L40.8554946,25.6037515 Z M40.8554946,25.6037515 C37.9472223,25.6037515 36.4930862,26.5199747 36.4930862,28.3379926 C36.4550686,29.1904506 36.8471222,30.0045778 37.5353365,30.5022996 C38.23017,31.0073045 39.2222777,31.2561998 40.5152411,31.2561998 C41.7585979,31.2741553 42.9684457,30.8501131 43.9321028,30.0586166 C44.9020747,29.2929951 45.450431,28.1066871 45.4077286,26.8662639 L45.4077286,25.5929299 L40.8554946,25.6037515 Z M19.0291262,17.5056362 C18.0011057,16.6488793 16.6989422,16.1976252 15.365133,16.2359095 C13.9452146,16.2351256 12.563145,16.6969944 11.4253553,17.5525295 C10.2585312,18.3869961 9.50132957,19.6838199 9.34443634,21.1164217 L20.7805365,21.1164217 C20.6157821,19.5581207 20.0319787,18.3545255 19.0291262,17.5056362 L19.0291262,17.5056362 Z M73.0291518,10.62314 L73.0291518,6.02038056 C73.0291518,2.70899089 70.8157131,0 68.08294,0 L4.9462118,0 C2.21702035,0 0,2.70899089 0,6.02038056 L0,33.9615836 C0,37.2910091 2.21702035,40 4.9462118,40 L68.0936848,40 C70.7655704,40 72.9611011,37.3884029 73.0398966,34.1599784 C70.7655704,36.2341059 68.3837957,37.269366 65.8981542,37.269366 C63.5356086,37.3251151 61.248615,36.4292368 59.5443673,34.780413 C57.8251916,33.1247182 56.9512772,30.8521959 56.9512772,28.002525 L56.9512772,15.9040491 L53.9069036,15.9040491 L53.9069036,10.62314 L56.9512772,10.62314 L56.9512772,2.77031292 L64.2756821,2.77031292 L64.2756821,10.62314 L73.0291518,10.62314 Z M28.1407575,26.3396158 L9.15819231,26.3396158 C9.38290212,27.7710107 10.1903356,29.0431005 11.3859575,29.8494003 C12.6241554,30.7571063 14.1202845,31.2378676 15.6516623,31.2201281 C18.2017729,31.2201281 20.3005999,30.3580124 21.9481433,28.6337812 L26.0204408,33.0706105 C23.2618707,35.796375 19.5410829,37.3067309 15.6767336,37.269366 C11.7202417,37.269366 8.44903232,36.0405206 5.86310552,33.5828298 C3.27717871,31.125139 1.98182756,27.8317853 1.97705207,23.7027685 C1.97705207,19.5737518 3.2903113,16.2876123 5.91682976,13.8443503 C8.43260019,11.4552254 11.7714902,10.1437646 15.2290316,10.1866715 C18.8106476,10.1866715 21.8562152,11.2760393 24.3657342,13.454775 C26.8752532,15.6335107 28.126431,18.6274687 28.1192678,22.4366489 L28.1407575,26.3396158 Z M52.7249703,36.8797908 L45.8948284,36.8797908 L45.8948284,33.6910452 C44.0204493,36.0669733 41.7019498,37.2549373 38.93933,37.2549373 C36.1767101,37.2549373 33.8594045,36.4505366 31.9874132,34.8417351 C30.1154218,33.228124 29.1782323,31.0806505 29.1758402,28.3993146 C29.1734568,25.7179788 30.1428809,23.7087805 32.0841168,22.3717197 C34.022965,21.0370638 36.672167,20.3697358 40.0317229,20.3697358 L45.450708,20.3697358 L45.450708,20.2254486 C45.450708,17.4262783 43.9810515,16.0266931 41.0417386,16.0266931 C39.6760693,16.0461293 38.3239331,16.3023795 37.0446551,16.7842006 C35.7607824,17.2187159 34.5523018,17.8528279 33.463039,18.6635404 L30.2180948,13.9309225 C33.6192583,11.4316007 37.7344618,10.1125274 41.9443059,10.1722428 C45.1104545,10.1722428 47.6939935,10.9694292 49.6949231,12.563802 C51.6958526,14.1581748 52.6975112,16.6831996 52.6998989,20.1388764 L52.7249703,36.8797908 Z M36.4966678,28.3379926 C36.4586503,29.1904506 36.8507038,30.0045778 37.5389181,30.5022996 C38.2337516,31.0073045 39.2258593,31.2561998 40.5188227,31.2561998 C41.7621795,31.2741553 42.9720273,30.8501131 43.9356844,30.0586166 C44.9056563,29.2929951 45.4540126,28.1066871 45.4113102,26.8662639 L45.4113102,25.5929299 L40.8554946,25.5929299 C37.9472223,25.6037515 36.4966678,26.5199747 36.4966678,28.3379926 Z M19.0327078,17.5164578 C18.0052831,16.6549777 16.7015388,16.1997702 15.365133,16.2359095 C13.9452146,16.2351256 12.563145,16.6969944 11.4253553,17.5525295 C10.2585312,18.3869961 9.50132957,19.6838199 9.34443634,21.1164217 L20.7805365,21.1164217 C20.6157821,19.5581207 20.0319787,18.3545255 19.0291262,17.5056362 L19.0327078,17.5164578 Z M19.0327078,17.5164578 C18.0052831,16.6549777 16.7015388,16.1997702 15.365133,16.2359095 C13.9452146,16.2351256 12.563145,16.6969944 11.4253553,17.5525295 C10.2585312,18.3869961 9.50132957,19.6838199 9.34443634,21.1164217 L20.7805365,21.1164217 C20.6157821,19.5581207 20.0319787,18.3545255 19.0291262,17.5056362 L19.0327078,17.5164578 Z M19.0327078,17.5164578 C18.0052831,16.6549777 16.7015388,16.1997702 15.365133,16.2359095 C13.9452146,16.2351256 12.563145,16.6969944 11.4253553,17.5525295 C10.2585312,18.3869961 9.50132957,19.6838199 9.34443634,21.1164217 L20.7805365,21.1164217 C20.6157821,19.5581207 20.0319787,18.3545255 19.0291262,17.5056362 L19.0327078,17.5164578 Z M64.2792637,15.9148706 L64.2792637,27.6742718 C64.2294553,28.5283553 64.5048394,29.3694338 65.0493112,30.026152 C65.5058466,30.5735627 66.1804457,30.8881551 66.8902618,30.8846605 C68.2548576,30.8846605 69.3973931,30.2642258 70.3357765,29.0305708 L73.0434783,34.152764 L73.0434783,15.9040491 L64.2792637,15.9148706 Z"
            id="Shape" fill="#E91E63"></path>
          <path
            d="M102.605564,23.9401118 C102.684981,27.5374339 101.250779,31.0047903 98.6480474,33.5078858 C96.0097028,36.0992331 92.692996,37.3937037 88.6979269,37.391301 C84.7028578,37.3888916 81.3849396,36.094421 78.7441723,33.5078858 C73.4620875,28.1980849 73.4620875,19.656875 78.7441723,14.347074 C81.3873624,11.7412903 84.7052806,10.4371953 88.6979269,10.4347859 C92.6905732,10.4323832 96.0072801,11.7364781 98.6480474,14.347074 C101.250256,16.8609518 102.683699,20.3356238 102.605564,23.9401118 L102.605564,23.9401118 Z M82.1602108,23.9401118 C82.1602108,26.0767102 82.7719482,27.8163055 83.9954229,29.1588976 C85.213214,30.4458243 86.912405,31.175698 88.6906587,31.175698 C90.4689125,31.175698 92.1681035,30.4458243 93.3858945,29.1588976 C94.5972557,27.8163055 95.2029363,26.0767102 95.2029363,23.9401118 C95.2029363,21.8035135 94.5972557,20.0542939 93.3858945,18.6924531 C92.1753017,17.3927274 90.4734298,16.6537706 88.6906587,16.6537706 C86.9078876,16.6537706 85.2060158,17.3927274 83.9954229,18.6924531 C82.7743709,20.0542939 82.1626335,21.8035135 82.1602108,23.9401118 Z"
            id="Shape" fill="#E91E63"></path>
          <path
            d="M123.478261,28.8665615 C123.478261,31.4434736 122.533342,33.5078906 120.643504,35.0598124 C118.753666,36.6117343 116.355395,37.3888983 113.44869,37.3913043 C111.389079,37.3710068 109.346096,37.01884 107.397852,36.3482685 C105.341241,35.6745892 103.423829,34.6314374 101.73913,33.2696886 L104.933628,28.7041511 C107.646073,30.8118775 110.534791,31.8645377 113.599781,31.8621316 C114.381201,31.9042567 115.157155,31.709322 115.826576,31.3027179 C116.343087,30.9907247 116.656473,30.4278139 116.650382,29.8229785 C116.650382,29.209428 116.272655,28.6391869 115.513602,28.1230827 C114.489184,27.4896106 113.381149,27.0036467 112.221974,26.6794344 C110.783012,26.2294974 109.685802,25.8409154 108.930347,25.5136885 C108.030761,25.1149099 107.164592,24.6442075 106.340214,24.1061314 C104.36164,22.8597818 103.372353,21.0311607 103.372353,18.6202681 C103.329098,16.2973925 104.411292,14.0977037 106.275461,12.7193559 C108.213264,11.1963071 110.714661,10.4347826 113.779652,10.4347826 C116.844642,10.4347826 119.910832,11.4718033 122.978221,13.5458446 L120.280166,18.4001118 C118.020994,16.8481899 115.770217,16.0710259 113.527833,16.0686199 C111.285449,16.0662138 110.164258,16.6821704 110.164258,17.9164896 C110.177078,18.6175661 110.599927,19.2454203 111.24348,19.5189392 C112.379719,20.0738368 113.561677,20.5290801 114.776133,20.8795776 C116.423746,21.3968849 117.594102,21.7926851 118.287203,22.0669783 C119.150825,22.4297178 119.984436,22.8605518 120.780206,23.3554343 C122.576511,24.4574192 123.475863,26.2944616 123.478261,28.8665615 Z"
            id="Path" fill="#E91E63"></path>
          <path
            d="M128.911686,11.4007228 L128.12517,12.8266345 L127.74521,12.8266345 L126.939695,11.4007228 L126.939695,13.0434783 L126.289964,13.0434783 L126.289964,10.4380681 L127.17147,10.4380681 L127.93139,11.8705509 L128.69131,10.4380681 L129.565217,10.4380681 L129.565217,13.0434783 L128.915486,13.0434783 L128.911686,11.4007228 Z M124.952505,10.9374658 L124.952505,13.0401927 L124.302774,13.0401927 L124.302774,10.9374658 L123.478261,10.9374658 L123.478261,10.4347826 L125.75802,10.4347826 L125.75802,10.9374658 L124.952505,10.9374658 Z"
            id="Shape" fill="#EC298F"></path>
        </g>
      </g>
    </g>
  </g>
</svg>
