<?xml version="1.0" encoding="UTF-8"?>
<svg width="88px" height="88px" viewBox="0 0 88 88" version="1.1" xmlns="http://www.w3.org/2000/svg">
  <title>emptyOrder</title>
  <g id="Empty-States" stroke="none" stroke-width="1" fill="none" fill-rule="evenodd">
    <g id="Mobile-Empty-Order-Screen" transform="translate(-144.000000, -276.000000)">
      <g id="Group-3" transform="translate(20.000000, 276.000000)">
        <g id="emptyOrder" transform="translate(124.000000, 0.000000)">
          <circle id="Oval" stroke-opacity="0.5" stroke="#D8D8D8" fill="#FFFFFF" cx="44" cy="44" r="43.5"></circle>
          <g id="receipt_long-24px-(2)" transform="translate(20.000000, 20.000000)">
            <polygon id="Path" points="0 0 48 0 48 48 0 48"></polygon>
            <g id="Group" transform="translate(6.000000, 4.000000)" fill="#D8D8D8" fill-rule="nonzero">
              <path
                d="M33,3 L30,0 L27,3 L24,0 L21,3 L18,0 L15,3 L12,0 L9,3 L6,0 L6,28 L0,28 L0,34 C0,37.32 2.68,40 6,40 L30,40 C33.32,40 36,37.32 36,34 L36,0 L33,3 Z M32,34 C32,35.1 31.1,36 30,36 C28.9,36 28,35.1 28,34 L28,28 L10,28 L10,6 L32,6 L32,34 Z"
                id="Shape"></path>
              <rect id="Rectangle" x="12" y="10" width="12" height="4"></rect>
              <rect id="Rectangle" x="26" y="10" width="4" height="4"></rect>
              <rect id="Rectangle" x="12" y="16" width="12" height="4"></rect>
              <rect id="Rectangle" x="26" y="16" width="4" height="4"></rect>
            </g>
          </g>
        </g>
      </g>
    </g>
  </g>
</svg>
