<?xml version="1.0" encoding="UTF-8"?>
<svg width="445px" height="50px" viewBox="0 0 445 50" version="1.1" xmlns="http://www.w3.org/2000/svg" xmlns:xlink="http://www.w3.org/1999/xlink">
    <title>Buy with Google Pay</title>
    <g id="Checkout" stroke="none" stroke-width="1" fill="none" fill-rule="evenodd">
        <g id="Artboard" transform="translate(-303.000000, -208.000000)">
            <g id="Buy-with-Google-Pay" transform="translate(303.000000, 208.000000)">
                <rect id="Surface" fill="#000000" x="0" y="0" width="445" height="50"></rect>
                <g id="Group-5" transform="translate(127.000000, 11.000000)">
                    <text id="Buy-with" font-family="Montserrat-SemiBold, Montserrat" font-size="24" font-weight="500" fill="#FFFFFF">
                        <tspan x="0" y="23">Buy with </tspan>
                    </text>
                    <g id="GPay-logo" transform="translate(118.000000, 0.000000)" fill-rule="nonzero">
                        <g id="Pay" transform="translate(31.265536, 1.650143)" fill="#FFFFFF">
                            <path d="M2.65184127,12.4750797 L2.65184127,20.8578052 L0.0163693906,20.8578052 L0.0163693906,0.165014282 L7.0060992,0.165014282 C8.69214644,0.132011425 10.3290855,0.775567125 11.524051,1.96366995 C13.913982,4.20786418 14.0613066,7.98669124 11.8187,10.4124012 C11.7204837,10.5114098 11.6222673,10.6104183 11.524051,10.7094269 C10.2963467,11.8810283 8.79036277,12.4750797 7.0060992,12.4750797 L2.65184127,12.4750797 Z M2.65184127,2.70623423 L2.65184127,9.93385975 L7.07157675,9.93385975 C8.0537402,9.96686262 9.00316484,9.57082834 9.67430986,8.86126692 C11.0493387,7.42564268 11.0165999,5.11544273 9.59246292,3.72932276 C8.9213179,3.06926564 8.02100141,2.70623423 7.07157675,2.70623423 L2.65184127,2.70623423 Z" id="Shape"></path>
                            <path d="M19.4959442,6.23753984 C21.4439017,6.23753984 22.9826245,6.76558556 24.1121125,7.80517552 C25.2416003,8.84476549 25.7981597,10.2968912 25.7981597,12.1285497 L25.7981597,20.8578052 L23.2772736,20.8578052 L23.2772736,18.8941353 L23.1626877,18.8941353 C22.0659385,20.5112752 20.6254322,21.3198452 18.8084298,21.3198452 C17.2697071,21.3198452 15.9601559,20.8578052 14.9288843,19.9337252 C13.913982,19.075651 13.3410534,17.805041 13.3737922,16.4684253 C13.3737922,14.9997982 13.9303514,13.8446982 15.0271006,12.9701226 C16.1238498,12.0955468 17.5970949,11.6665097 19.4304667,11.6665097 C21.0019282,11.6665097 22.2787407,11.9635354 23.2936429,12.524584 L23.2936429,11.9140311 C23.2936429,11.0064526 22.9007774,10.1483783 22.2132631,9.55432691 C21.5093793,8.92727263 20.6090628,8.58074265 19.6760075,8.58074265 C18.2027624,8.58074265 17.0405356,9.20779693 16.1893273,10.4619055 L13.8648739,8.99327834 C15.1089476,7.16161982 16.9914275,6.23753984 19.4959442,6.23753984 Z M16.091111,16.5179296 C16.091111,17.2109896 16.4184988,17.8545453 16.9586887,18.2505796 C17.5479868,18.7126195 18.2682399,18.960141 19.0048625,18.9436395 C20.1179811,18.9436395 21.1819915,18.498101 21.9677221,17.7060324 C22.8352998,16.880961 23.2772736,15.9073768 23.2772736,14.7852796 C22.4588039,14.1252225 21.3129466,13.795194 19.8397015,13.8116954 C18.7756911,13.8116954 17.8753746,14.0757182 17.1551214,14.5872625 C16.4512376,15.0988068 16.091111,15.7423625 16.091111,16.5179296 Z" id="Shape"></path>
                            <polygon id="Path" points="40.2687009 6.69957983 31.4619688 27.0788437 28.74465 27.0788437 32.0185281 19.9502266 26.2401332 6.69957983 29.1047766 6.69957983 33.2789713 16.8644596 33.3280793 16.8644596 37.4040576 6.69957983"></polygon>
                        </g>
                        <g id="Super-G">
                            <path d="M23.2609041,12.3100654 C23.2609041,11.5014954 23.1954265,10.6929254 23.0644713,9.90085691 L11.9496552,9.90085691 L11.9496552,14.4717525 L18.3173481,14.4717525 C18.0554379,15.9403796 17.2042296,17.2604939 15.9601559,18.0855653 L15.9601559,21.0558223 L19.7578545,21.0558223 C21.9840916,18.9931438 23.2609041,15.9403796 23.2609041,12.3100654 Z" id="Path" fill="#4285F4"></path>
                            <path d="M11.9496552,23.9270709 C15.1253169,23.9270709 17.809897,22.8709794 19.7578545,21.0558223 L15.9601559,18.0855653 C14.8961455,18.8116281 13.5374861,19.2241638 11.9496552,19.2241638 C8.87220972,19.2241638 6.26947662,17.1284824 5.33642135,14.3232397 L1.42413699,14.3232397 L1.42413699,17.3925053 C3.42120263,21.4023523 7.4971809,23.9270709 11.9496552,23.9270709 Z" id="Path" fill="#34A853"></path>
                            <path d="M5.33642135,14.3232397 C4.84533963,12.8546125 4.84533963,11.253974 5.33642135,9.76884547 L5.33642135,6.71608126 L1.42413699,6.71608126 C-0.261910251,10.0658712 -0.261910251,14.026214 1.42413699,17.3760039 L5.33642135,14.3232397 Z" id="Path" fill="#FBBC04"></path>
                            <path d="M11.9496552,4.8679213 C13.6357024,4.83491846 15.2562721,5.47847414 16.467607,6.65007555 L19.8397015,3.25078136 C17.6953113,1.23760711 14.8797761,0.132011425 11.9496552,0.165014282 C7.4971809,0.165014282 3.42120263,2.70623423 1.42413699,6.71608126 L5.33642135,9.7853469 C6.26947662,6.96360269 8.87220972,4.8679213 11.9496552,4.8679213 Z" id="Path" fill="#EA4335"></path>
                        </g>
                    </g>
                </g>
            </g>
        </g>
    </g>
</svg>