<?xml version="1.0" encoding="UTF-8"?>
<svg width="64px" height="64px" viewBox="0 0 64 64" version="1.1" xmlns="http://www.w3.org/2000/svg">
  <title>info-24px (1)</title>
  <g id="Replace-Item" stroke="none" stroke-width="1" fill="none" fill-rule="evenodd">
    <g id="Desktop-Refund-Item1" transform="translate(-689.000000, -214.000000)">
      <g id="Pop-Up" transform="translate(553.000000, 189.000000)">
        <g id="Content" transform="translate(16.000000, 25.000000)">
          <g id="info-24px-(1)" transform="translate(120.000000, 0.000000)">
            <polygon id="Path" points="0 0 64 0 64 64 0 64"></polygon>
            <path
              d="M29.3333333,18.6666667 L34.6666667,18.6666667 L34.6666667,24 L29.3333333,24 L29.3333333,18.6666667 Z M29.3333333,29.3333333 L34.6666667,29.3333333 L34.6666667,45.3333333 L29.3333333,45.3333333 L29.3333333,29.3333333 Z M32,5.33333333 C17.28,5.33333333 5.33333333,17.28 5.33333333,32 C5.33333333,46.72 17.28,58.6666667 32,58.6666667 C46.72,58.6666667 58.6666667,46.72 58.6666667,32 C58.6666667,17.28 46.72,5.33333333 32,5.33333333 Z M32,53.3333333 C20.24,53.3333333 10.6666667,43.76 10.6666667,32 C10.6666667,20.24 20.24,10.6666667 32,10.6666667 C43.76,10.6666667 53.3333333,20.24 53.3333333,32 C53.3333333,43.76 43.76,53.3333333 32,53.3333333 Z"
              id="Shape" fill="#E91E63" fill-rule="nonzero"></path>
          </g>
        </g>
      </g>
    </g>
  </g>
</svg>
