<?xml version="1.0" encoding="UTF-8"?>
<svg width="24px" height="24px" viewBox="0 0 24 24" version="1.1" xmlns="http://www.w3.org/2000/svg">
  <title>menu-active</title>
  <g id="Categories" stroke="none" stroke-width="1" fill="none" fill-rule="evenodd">
    <g id="Artboard" transform="translate(-58.000000, -56.000000)">
      <g id="menu-active" transform="translate(58.000000, 56.000000)">
        <rect id="Rectangle" x="0" y="0" width="24" height="24"></rect>
        <g id="Group" transform="translate(1.000000, 4.000000)" fill="#E91E63" fill-rule="nonzero">
          <path
            d="M20,1 C18.89,0.65 17.67,0.5 16.5,0.5 C14.55,0.5 12.45,0.9 11,2 C9.55,0.9 7.45,0.5 5.5,0.5 C3.55,0.5 1.45,0.9 0,2 L0,17.5 C1.45,16.4 3.55,16 5.5,16 C7.45,16 9.55,16.4 11,17.5 C12.45,16.4 14.55,16 16.5,16 C17.67,16 18.89,16.15 20,16.5 C20.75,16.75 21.4,17.05 22,17.5 L22,2 C21.4,1.55 20.75,1.25 20,1 Z M20,14.5 C18.9,14.15 17.7,14 16.5,14 C14.8,14 12.35,14.65 11,15.5 L11,4 C12.35,3.15 14.8,2.5 16.5,2.5 C17.7,2.5 18.9,2.65 20,3 L20,14.5 Z"
            id="Shape"></path>
          <g transform="translate(12.000000, 5.000000)" id="Path">
            <path
              d="M4.5,1.5 C5.38,1.5 6.23,1.59 7,1.76 L7,0.24 C6.21,0.09 5.36,0 4.5,0 C2.8,0 1.26,0.29 0,0.83 L0,2.49 C1.13,1.85 2.7,1.5 4.5,1.5 Z"></path>
            <path
              d="M0,3.49 L0,5.15 C1.13,4.51 2.7,4.16 4.5,4.16 C5.38,4.16 6.23,4.25 7,4.42 L7,2.9 C6.21,2.75 5.36,2.66 4.5,2.66 C2.8,2.66 1.26,2.96 0,3.49 Z"></path>
            <path
              d="M4.5,5.33 C2.8,5.33 1.26,5.62 0,6.16 L0,7.82 C1.13,7.18 2.7,6.83 4.5,6.83 C5.38,6.83 6.23,6.92 7,7.09 L7,5.57 C6.21,5.41 5.36,5.33 4.5,5.33 Z"></path>
          </g>
        </g>
      </g>
    </g>
  </g>
</svg>
