<?xml version="1.0" encoding="UTF-8"?>
<svg width="24px" height="24px" viewBox="0 0 24 24" version="1.1" xmlns="http://www.w3.org/2000/svg">
  <title>schedule-24px</title>
  <g id="Home-Screen" stroke="none" stroke-width="1" fill="none" fill-rule="evenodd">
    <g id="Selected-Restaurant-Screen" transform="translate(-197.000000, -378.000000)">
      <g id="Hero" transform="translate(165.000000, 153.000000)">
        <g id="Text" transform="translate(32.000000, 32.000000)">
          <g id="Group-8" transform="translate(0.000000, 191.000000)">
            <g id="schedule-24px" transform="translate(0.000000, 2.000000)">
              <polygon id="Path" points="0 0 24 0 24 24 0 24"></polygon>
              <path
                d="M11.99,2 C6.47,2 2,6.48 2,12 C2,17.52 6.47,22 11.99,22 C17.52,22 22,17.52 22,12 C22,6.48 17.52,2 11.99,2 Z M12,20 C7.58,20 4,16.42 4,12 C4,7.58 7.58,4 12,4 C16.42,4 20,7.58 20,12 C20,16.42 16.42,20 12,20 Z M12.5,7 L11,7 L11,13 L16.25,16.15 L17,14.92 L12.5,12.25 L12.5,7 Z"
                id="Shape" fill="#FFFFFF" fill-rule="nonzero"></path>
            </g>
          </g>
        </g>
      </g>
    </g>
  </g>
</svg>
