<?xml version="1.0" encoding="UTF-8"?>
<svg width="135px" height="40px" viewBox="0 0 135 40" version="1.1" xmlns="http://www.w3.org/2000/svg" xmlns:xlink="http://www.w3.org/1999/xlink">
    <title>App Store</title>
    <g id="Footer" stroke="none" stroke-width="1" fill="none" fill-rule="evenodd">
        <g id="Desktop-Footer1" transform="translate(-1140.000000, -847.000000)">
            <g id="Footer" transform="translate(0.000000, 802.000000)">
                <g id="App-Store" transform="translate(1140.000000, 45.000000)">
                    <rect id="Rectangle" stroke="#FFFFFF" stroke-width="0.5" fill="#000000" x="0.25" y="0.25" width="134.5" height="39.5" rx="8"></rect>
                    <g id="_Group_" transform="translate(11.000000, 5.000000)" fill="#FFFFFF" fill-rule="nonzero">
                        <g id="_Group_3">
                            <path d="M17.73999,13.838265 C17.7645791,11.9297353 18.7651383,10.1668344 20.39112,9.1671975 C19.3607017,7.69557686 17.696691,6.79598815 15.901065,6.7398075 C14.01192,6.541515 12.1804762,7.87024125 11.2178025,7.87024125 C10.2364987,7.87024125 8.75431125,6.759495 7.15824,6.79233375 C5.05822642,6.86018072 3.14790432,8.02521616 2.126205,9.8611875 C-0.049545,13.62816 1.57336875,19.1643413 3.657555,22.2092775 C4.7003175,23.7002963 5.9190075,25.3658025 7.51363875,25.30674 C9.07408125,25.2420187 9.65687625,24.3117 11.5404637,24.3117 C13.4065687,24.3117 13.9533525,25.30674 15.5803387,25.2691875 C17.2547662,25.2420075 18.309735,23.7715425 19.3159125,22.266405 C20.0651356,21.2039997 20.6416616,20.0298104 21.024135,18.7873313 C19.0354236,17.9462039 17.7423112,15.9975386 17.73999,13.838265 L17.73999,13.838265 Z" id="_Path_"></path>
                            <path d="M14.6669063,4.73725125 C15.5798737,3.64126714 16.0296581,2.23256526 15.9207412,0.81030375 C14.5259301,0.956801798 13.2375152,1.62343088 12.3122137,2.677365 C11.3985211,3.71721265 10.9356465,5.07761176 11.02554,6.45892875 C12.4390539,6.47348261 13.7811556,5.83892237 14.6669063,4.73725125 L14.6669063,4.73725125 Z" id="_Path_2"></path>
                        </g>
                        <g id="Group" transform="translate(28.125000, 10.125000)">
                            <path d="M9.34005375,11.4071062 L4.01497875,11.4071062 L2.73616875,15.1831125 L0.48067875,15.1831125 L5.52450375,1.2128625 L7.86787875,1.2128625 L12.9117037,15.1831125 L10.61775,15.1831125 L9.34005375,11.4071062 Z M4.5664875,9.6646725 L8.7874875,9.6646725 L6.70667625,3.53649375 L6.64844625,3.53649375 L4.5664875,9.6646725 Z" id="Shape"></path>
                            <path d="M23.8046512,10.0909463 C23.8046512,13.2561113 22.1105587,15.2896725 19.5540412,15.2896725 C18.2325997,15.3587977 16.987874,14.6666595 16.3493325,13.5076725 L16.3009575,13.5076725 L16.3009575,18.5526 L14.2102575,18.5526 L14.2102575,4.9976775 L16.233975,4.9976775 L16.233975,6.69177 L16.2724275,6.69177 C16.9393368,5.54004891 18.1854048,4.84820869 19.5155887,4.89110625 C22.100625,4.8911175 23.8046512,6.9345675 23.8046512,10.0909463 Z M21.6557212,10.0909463 C21.6557212,8.02882125 20.5900425,6.673095 18.9640687,6.673095 C17.3666587,6.673095 16.2921937,8.05737375 16.2921937,10.0909463 C16.2921937,12.1431938 17.3666587,13.5175838 18.9640687,13.5175838 C20.5900537,13.5175838 21.6557212,12.1717575 21.6557212,10.0909463 Z" id="Shape"></path>
                            <path d="M35.0150962,10.0909463 C35.0150962,13.2561113 33.3210037,15.2896725 30.7644862,15.2896725 C29.4430447,15.3587977 28.198319,14.6666595 27.5597775,13.5076725 L27.5114025,13.5076725 L27.5114025,18.5526 L25.4207025,18.5526 L25.4207025,4.9976775 L27.444375,4.9976775 L27.444375,6.69177 L27.4828275,6.69177 C28.1497417,5.5400496 29.3958144,4.84821346 30.726,4.8911175 C33.311115,4.8911175 35.0150962,6.9345675 35.0150962,10.0909463 Z M32.8661775,10.0909462 C32.8661775,8.02882125 31.8004875,6.673095 30.1745137,6.673095 C28.5771037,6.673095 27.5026387,8.05737375 27.5026387,10.0909462 C27.5026387,12.1431938 28.5771037,13.5175838 30.1745137,13.5175838 C31.8004987,13.5175838 32.8661775,12.1717575 32.8661775,10.0909462 L32.8661775,10.0909462 Z" id="Shape"></path>
                            <path d="M42.4242787,11.2906462 C42.5791912,12.6760275 43.9250288,13.5856462 45.7641225,13.5856462 C47.5263338,13.5856462 48.7941525,12.6759825 48.7941525,11.4268275 C48.7941525,10.3424737 48.0295013,9.6932025 46.21896,9.2482425 L44.4084187,8.81208 C41.843115,8.1924525 40.65219,6.99274125 40.65219,5.0459625 C40.65219,2.63556 42.7527787,0.97992 45.7355587,0.97992 C48.6875587,0.97992 50.711265,2.63556 50.7793837,5.0459625 L48.6688837,5.0459625 C48.5425462,3.651795 47.3900737,2.81025 45.70587,2.81025 C44.0216662,2.81025 42.869205,3.661695 42.869205,4.90095 C42.869205,5.88862125 43.6052925,6.46979625 45.405945,6.9147 L46.945125,7.2926325 C49.8114562,7.97049 51.0023812,9.1218825 51.0023812,11.16531 C51.0023812,13.778955 48.9204675,15.41592 45.6091875,15.41592 C42.5110387,15.41592 40.4192475,13.8174075 40.2841125,11.290545 L42.4242787,11.2906462 Z" id="Path"></path>
                            <path d="M55.5144862,2.587275 L55.5144862,4.9976775 L57.4513763,4.9976775 L57.4513763,6.6533175 L55.5144862,6.6533175 L55.5144862,12.2684287 C55.5144862,13.1407425 55.9023075,13.5472387 56.7537413,13.5472387 C56.9836816,13.5432292 57.2132499,13.5270817 57.4414875,13.4988638 L57.4414875,15.144615 C57.0586819,15.216142 56.6695922,15.2485363 56.2802288,15.2412975 C54.2181038,15.2412975 53.4138975,14.4667575 53.4138975,12.491415 L53.4138975,6.6533175 L51.9329475,6.6533175 L51.9329475,4.9976775 L53.413875,4.9976775 L53.413875,2.587275 L55.5144862,2.587275 Z" id="Path"></path>
                            <path d="M58.573125,10.0909462 C58.573125,6.8862375 60.4605712,4.8724425 63.4038187,4.8724425 C66.3569437,4.8724425 68.2356037,6.8861925 68.2356037,10.0909462 C68.2356037,13.3044525 66.3668325,15.30945 63.4038187,15.30945 C60.4418512,15.30945 58.573125,13.3044412 58.573125,10.0909462 Z M66.1053488,10.0909462 C66.1053488,7.89258375 65.0979,6.59509875 63.4038075,6.59509875 C61.709715,6.59509875 60.7033688,7.9024725 60.7033688,10.0909462 C60.7033688,12.298095 61.709715,13.5857025 63.4038075,13.5857025 C65.0979,13.5857025 66.1053488,12.298095 66.1053488,10.0909462 L66.1053488,10.0909462 Z" id="Shape"></path>
                            <path d="M69.9593062,4.9976775 L71.953335,4.9976775 L71.953335,6.7313025 L72.00171,6.7313025 C72.2797831,5.61528946 73.3023591,4.8472105 74.4516562,4.891095 C74.6925908,4.89025376 74.9328606,4.91641959 75.1679662,4.9691025 L75.1679662,6.9246675 C74.8638011,6.83172373 74.5465046,6.7890502 74.2285912,6.79833 C73.6139455,6.77339487 73.0191048,7.01835157 72.6002566,7.46888172 C72.1814085,7.91941187 71.9803986,8.53050458 72.0500062,9.141705 L72.0500062,15.18309 L69.9593062,15.18309 L69.9593062,4.9976775 Z" id="Path"></path>
                            <path d="M84.8073375,12.1915237 C84.5260875,14.0405175 82.7254237,15.3094387 80.4215925,15.3094387 C77.4585788,15.3094387 75.6194737,13.3242075 75.6194737,10.1392762 C75.6194737,6.94445625 77.4684675,4.87243125 80.3337075,4.87243125 C83.1516975,4.87243125 84.9237975,6.80821875 84.9237975,9.89647875 L84.9237975,10.6127887 L77.7299512,10.6127887 L77.7299512,10.7391262 C77.6627858,11.4974118 77.924623,12.2480094 78.4488599,12.7999912 C78.9730968,13.351973 79.7092059,13.6521375 80.469945,13.6241325 C81.4845175,13.7191946 82.4410609,13.1365999 82.8221175,12.1915125 L84.8073375,12.1915237 Z M77.7398202,9.15161625 L82.831995,9.15161625 C82.8699361,8.47023468 82.6219086,7.80392597 82.1476688,7.31321049 C81.673429,6.82249501 81.0159759,6.55186546 80.3337075,6.56652375 C79.646042,6.56242001 78.9852271,6.83317646 78.4981412,7.3186124 C78.0110554,7.80404834 77.7380583,8.46394078 77.7398202,9.15161625 L77.7398202,9.15161625 Z" id="Shape"></path>
                        </g>
                        <g id="Group" transform="translate(29.250000, 0.000000)">
                            <path d="M3.17946375,0.822375 C4.06702863,0.758682204 4.9363788,1.09636586 5.54823145,1.74248079 C6.16008411,2.38859573 6.44994661,3.27503789 6.33803625,4.15782 C6.33803625,6.30235125 5.1789825,7.53507 3.17946375,7.53507 L0.754785,7.53507 L0.754785,0.822375 L3.17946375,0.822375 Z M1.79737875,6.58575 L3.06300375,6.58575 C3.69730344,6.62366476 4.31492234,6.37375388 4.74437083,5.90540826 C5.17381932,5.43706265 5.36937706,4.80014372 5.276745,4.1715 C5.36263764,3.5454651 5.16426366,2.91380199 4.73587996,2.44927573 C4.30749626,1.98474947 3.69393263,1.73597209 3.06300375,1.77098625 L1.79737875,1.77098625 L1.79737875,6.58575 Z" id="Shape"></path>
                            <path d="M7.515765,4.9998825 C7.42890052,4.09187818 7.86429412,3.21312593 8.63934292,2.73217204 C9.41439172,2.25121815 10.395092,2.25121815 11.1701408,2.73217204 C11.9451896,3.21312593 12.3805832,4.09187818 12.2937187,4.9998825 C12.3822359,5.90886255 11.9472397,6.78931918 11.1715037,7.27130846 C10.3957677,7.75329775 9.41371602,7.75329775 8.63798001,7.27130846 C7.86224401,6.78931918 7.42724782,5.90886255 7.515765,4.9998825 Z M11.2654012,4.9998825 C11.2654012,3.90180375 10.7721,3.25965375 9.90639,3.25965375 C9.0373725,3.25965375 8.548515,3.90180375 8.548515,4.99989375 C8.548515,6.10677 9.03740625,6.74397 9.90639,6.74397 C10.7721225,6.74397 11.2654012,6.10236 11.2654012,4.9998825 L11.2654012,4.9998825 Z" id="Shape"></path>
                            <polygon id="Path" points="18.6449175 7.53496875 17.6078138 7.53496875 16.5608213 3.8040075 16.4817225 3.8040075 15.4391175 7.53496875 14.4118913 7.53496875 13.01553 2.4691725 14.0295713 2.4691725 14.9370413 6.3346725 15.0117525 6.3346725 16.053255 2.4691725 17.0123625 2.4691725 18.053865 6.3346725 18.1329638 6.3346725 19.036035 2.4691725 20.0357887 2.4691725"></polygon>
                            <path d="M21.2102213,2.4691725 L22.172625,2.4691725 L22.172625,3.27391875 L22.2473363,3.27391875 C22.507138,2.68141268 23.1142195,2.31897091 23.759055,2.3713875 C24.2583489,2.33384824 24.7476216,2.52538864 25.0887271,2.89192733 C25.4298326,3.25846602 25.5857547,3.76022673 25.5124688,4.2555375 L25.5124688,7.5349125 L24.512715,7.5349125 L24.512715,4.5065925 C24.512715,3.69250875 24.1589588,3.287655 23.419575,3.287655 C23.0809116,3.27188151 22.7522477,3.40479289 22.5197489,3.65154388 C22.2872502,3.89829487 22.1741044,4.23427614 22.209975,4.57140375 L22.209975,7.53496875 L21.2102213,7.53496875 L21.2102213,2.4691725 Z" id="Path"></path>
                            <polygon id="Path" points="27.1054912 0.491625 28.105245 0.491625 28.105245 7.5349575 27.1054912 7.5349575"></polygon>
                            <path d="M29.4950137,4.9998825 C29.408216,4.09181878 29.8436783,3.21304428 30.6187846,2.73208298 C31.3938909,2.25112167 32.3746416,2.25112167 33.1497479,2.73208298 C33.9248542,3.21304428 34.3603165,4.09181878 34.2735188,4.9998825 C34.3619235,5.90889509 33.9268476,6.78932684 33.1510731,7.2712949 C32.3752986,7.75326295 31.3932339,7.75326295 30.6174594,7.2712949 C29.8416849,6.78932684 29.406609,5.90889509 29.4950137,4.9998825 L29.4950137,4.9998825 Z M33.24465,4.9998825 C33.24465,3.90180375 32.7513488,3.25965375 31.8856388,3.25965375 C31.0166213,3.25965375 30.5277638,3.90180375 30.5277638,4.99989375 C30.5277638,6.10677 31.016655,6.74397 31.8856388,6.74397 C32.75136,6.74397 33.24465,6.10236 33.24465,4.9998825 L33.24465,4.9998825 Z" id="Shape"></path>
                            <path d="M35.3260125,6.10236 C35.3260125,5.19049125 36.0049725,4.66480125 37.2101625,4.59009 L38.5823587,4.51099125 L38.5823587,4.0737375 C38.5823587,3.53869875 38.2286025,3.23658 37.545255,3.23658 C36.9871538,3.23658 36.600435,3.44147625 36.489465,3.79963125 L35.5215713,3.79963125 C35.6237438,2.92951125 36.4422263,2.37141 37.5913913,2.37141 C38.861415,2.37141 39.577725,3.00366 39.577725,4.0737375 L39.577725,7.53498 L38.6153213,7.53498 L38.6153213,6.82306875 L38.5362225,6.82306875 C38.2093522,7.34296088 37.6280703,7.64680864 37.014615,7.61844375 C36.5845681,7.66317579 36.1556675,7.52389949 35.8339453,7.2350465 C35.512223,6.94619351 35.3277068,6.53472372 35.3260125,6.10236 L35.3260125,6.10236 Z M38.5823587,5.66949375 L38.5823587,5.24597625 L37.3452975,5.325075 C36.6476625,5.3717625 36.3312563,5.60907 36.3312563,6.05566125 C36.3312563,6.51159 36.7267613,6.77691 37.2706312,6.77691 C37.5925906,6.8095011 37.9139922,6.71003443 38.1612604,6.50128004 C38.4085287,6.29252564 38.5604906,5.99235869 38.5823587,5.66949375 Z" id="Shape"></path>
                            <path d="M40.89168,4.9998825 C40.89168,3.39917625 41.7145612,2.385135 42.9944625,2.385135 C43.6407489,2.3553564 44.246056,2.70165698 44.54793,3.273885 L44.6226412,3.273885 L44.6226412,0.491625 L45.622395,0.491625 L45.622395,7.5349575 L44.66439,7.5349575 L44.66439,6.73459875 L44.5852912,6.73459875 C44.2605984,7.30207911 43.6478338,7.64252604 42.9944737,7.61844375 C41.705775,7.6185 40.89168,6.60443625 40.89168,4.9998825 Z M41.92443,4.9998825 C41.92443,6.0743475 42.430905,6.72089625 43.2779512,6.72089625 C44.1205762,6.72089625 44.64135,6.06502125 44.64135,5.00428125 C44.64135,3.94849125 44.1151087,3.2832675 43.2779512,3.2832675 C42.4363612,3.2832675 41.9243963,3.93420375 41.9243963,4.9998825 L41.92443,4.9998825 Z" id="Shape"></path>
                            <path d="M49.75875,4.9998825 C49.6718855,4.09187818 50.1072791,3.21312593 50.8823279,2.73217204 C51.6573767,2.25121815 52.638077,2.25121815 53.4131258,2.73217204 C54.1881746,3.21312593 54.6235682,4.09187818 54.5367038,4.9998825 C54.6252209,5.90886255 54.1902247,6.78931918 53.4144887,7.27130846 C52.6387527,7.75329775 51.656701,7.75329775 50.880965,7.27130846 C50.105229,6.78931918 49.6702328,5.90886255 49.75875,4.9998825 L49.75875,4.9998825 Z M53.508375,4.9998825 C53.508375,3.90180375 53.015085,3.25965375 52.149375,3.25965375 C51.2803575,3.25965375 50.7915,3.90180375 50.7915,4.99989375 C50.7915,6.10677 51.2803913,6.74397 52.149375,6.74397 C53.0150963,6.74397 53.508375,6.10236 53.508375,4.9998825 Z" id="Shape"></path>
                            <path d="M55.8781313,2.4691725 L56.840535,2.4691725 L56.840535,3.27391875 L56.9152463,3.27391875 C57.175048,2.68141268 57.7821295,2.31897091 58.426965,2.3713875 C58.9262589,2.33384824 59.4155316,2.52538864 59.7566371,2.89192733 C60.0977426,3.25846602 60.2536647,3.76022673 60.1803788,4.2555375 L60.1803788,7.5349125 L59.180625,7.5349125 L59.180625,4.5065925 C59.180625,3.69250875 58.8268688,3.287655 58.087485,3.287655 C57.7488216,3.27188151 57.4201577,3.40479289 57.1876589,3.65154388 C56.9551602,3.89829487 56.8420144,4.23427614 56.877885,4.57140375 L56.877885,7.53496875 L55.8781313,7.53496875 L55.8781313,2.4691725 Z" id="Path"></path>
                            <path d="M65.829555,1.20794625 L65.829555,2.49224625 L66.9270937,2.49224625 L66.9270937,3.33435375 L65.829555,3.33435375 L65.829555,5.9392125 C65.829555,6.4698525 66.0481875,6.70221 66.545865,6.70221 C66.6732775,6.70180223 66.8005621,6.69409837 66.9270937,6.67913625 L66.9270937,7.511895 C66.7475544,7.54401456 66.5656488,7.56110255 66.3832687,7.56298125 C65.2714537,7.56298125 64.8286987,7.17186375 64.8286987,6.19518375 L64.8286987,3.33430875 L64.0245037,3.33430875 L64.0245037,2.49220125 L64.8286987,2.49220125 L64.8286987,1.20794625 L65.829555,1.20794625 Z" id="Path"></path>
                            <path d="M68.2926863,0.491625 L69.2836537,0.491625 L69.2836537,3.28325625 L69.3627525,3.28325625 C69.6350337,2.68556463 70.2527402,2.32266098 70.9073775,2.37578625 C71.4038362,2.34877194 71.8864856,2.54452918 72.2238629,2.90973809 C72.5612402,3.27494699 72.7182055,3.77156884 72.652005,4.264335 L72.652005,7.53496875 L71.65125,7.53496875 L71.65125,4.51096875 C71.65125,3.70182375 71.274375,3.29203125 70.5679987,3.29203125 C70.2201813,3.26350538 69.8775065,3.38995233 69.6315851,3.63756769 C69.3856638,3.88518305 69.2615721,4.22871785 69.292485,4.57633125 L69.292485,7.53496875 L68.2927312,7.53496875 L68.2926863,0.491625 Z" id="Path"></path>
                            <path d="M78.4814063,6.16717125 C78.2010642,7.12272317 77.2763613,7.74011592 76.28634,7.6327425 C75.6108494,7.65057397 74.9616653,7.37058454 74.5110318,6.86706206 C74.0603982,6.36353958 73.8538722,5.68738793 73.94625,5.01800625 C73.8563258,4.34676429 74.062078,3.6695292 74.5102022,3.16175282 C74.9583264,2.65397645 75.6047273,2.36562385 76.2819413,2.37139875 C77.6914875,2.37139875 78.54183,3.33439875 78.54183,4.92514875 L78.54183,5.274 L74.9646788,5.274 L74.9646788,5.330025 C74.9330235,5.70593266 75.0614071,6.07775372 75.3182559,6.35404579 C75.5751047,6.63033786 75.9365864,6.78546441 76.3138013,6.781275 C76.8029196,6.83999402 77.2790428,6.59737467 77.5190025,6.1671375 L78.4814063,6.16717125 Z M74.9646563,4.534605 L77.5233675,4.534605 C77.548852,4.19080549 77.4279658,3.85223071 77.190499,3.60231648 C76.9530323,3.35240225 76.6210697,3.21439075 76.2764175,3.2222925 C75.927096,3.21790378 75.5908065,3.35477389 75.3438334,3.60185499 C75.0968603,3.84893609 74.9601373,4.18528545 74.9646788,4.534605 L74.9646563,4.534605 Z" id="Shape"></path>
                        </g>
                    </g>
                </g>
            </g>
        </g>
    </g>
</svg>