<?xml version="1.0" encoding="UTF-8"?>
<svg width="64px" height="64px" viewBox="0 0 64 64" version="1.1" xmlns="http://www.w3.org/2000/svg" xmlns:xlink="http://www.w3.org/1999/xlink">
    <title>Logo</title>
    <defs>
        <circle id="path-1" cx="32" cy="32" r="32"></circle>
    </defs>
    <g id="Footer" stroke="none" stroke-width="1" fill="none" fill-rule="evenodd">
        <g id="Desktop-Footer1" transform="translate(-165.000000, -842.000000)">
            <g id="Footer" transform="translate(0.000000, 802.000000)">
                <g id="Logo" transform="translate(165.000000, 40.000000)">
                    <mask id="mask-2" fill="white">
                        <use xlink:href="#path-1"></use>
                    </mask>
                    <g id="Mask"></g>
                    <g id="Transparent-E" mask="url(#mask-2)" fill="#FFFFFF" fill-rule="nonzero">
                        <path d="M24.07125,38.17625 C24.1574153,38.33375 24.2463042,38.48875 24.3379167,38.64125 L24.2049547,38.155625 L24.07125,38.17625 Z" id="Path"></path>
                        <path d="M37.5625,21.665 C35.6158333,20.3283333 33.2825,19.9116667 30.5625,20.415 C27.9970833,20.8904167 26.0054167,22.095625 24.5875,24.030625 C23.2004167,25.920625 22.5164583,28.2502083 22.535625,31.019375 L41.3125,27.381875 C40.6758333,24.851875 39.4258333,22.94625 37.5625,21.665 Z" id="Path"></path>
                        <path d="M22.5800417,31.2885417 L22.753375,31.2782853 L22.5720417,31.021875 C22.5720417,31.1124733 22.5747083,31.2005075 22.5800417,31.2885417 Z" id="Path"></path>
                        <path d="M0,0 L0,64 L64,64 L64,0 L0,0 Z M53.76875,32.64375 L53.720625,32.675625 C53.2037513,33.011777 52.6169791,33.2255374 52.005,33.300625 L52.005,33.300625 L24.295625,38.64125 C25.4347917,40.89375 27.020625,42.5395833 29.053125,43.57875 C31.2197917,44.68875 33.638125,44.99625 36.308125,44.50125 C38.2367526,44.148183 40.0758151,43.4147676 41.718125,42.34375 C43.3747917,41.2675 44.7883333,39.8777083 45.95875,38.174375 L53.361875,43.3275 C51.6952083,46.0775 49.4785417,48.3591667 46.711875,50.1725 C43.9452083,51.9858333 40.7147917,53.2358333 37.020625,53.9225 C32.6597917,54.7316667 28.689375,54.56625 25.109375,53.42625 C21.529375,52.28625 18.5589583,50.29 16.198125,47.4375 C14.5685417,45.4683333 13.3185417,43.1883333 12.448125,40.5975 C10.673125,40.1875 9.35375,38.625 9.35375,36.763125 C9.35715403,35.4639889 10.0050925,34.2512411 11.083125,33.52625 C10.913125,30.6120833 11.2629167,27.8727083 12.1325,25.308125 C13.3325,21.7697917 15.384375,18.815625 18.288125,16.445625 C20.1527083,14.924375 22.275,13.7329167 24.655,12.87125 C24.363047,11.3350079 24.9128467,9.75970666 26.0972948,8.73874691 C27.281743,7.71778717 28.9208937,7.40627705 30.3972949,7.9215594 C31.873696,8.43684175 32.9630471,9.70063292 33.255,11.236875 C37.96,11.0664583 41.9227083,12.2166667 45.143125,14.6875 C48.3977083,17.185 50.7710417,20.7964583 52.263125,25.521875 C54.12,25.8725 55.5225,27.470625 55.5225,29.39125 C55.5187445,30.7005096 54.8605629,31.9211716 53.76875,32.64375 Z" id="Shape"></path>
                    </g>
                </g>
            </g>
        </g>
    </g>
</svg>