<?xml version="1.0" encoding="UTF-8"?>
<svg width="108px" height="50px" viewBox="0 0 108 50" version="1.1" xmlns="http://www.w3.org/2000/svg" xmlns:xlink="http://www.w3.org/1999/xlink">
    <title>Apple Pay</title>
    <g id="Checkout-V2" stroke="none" stroke-width="1" fill="none" fill-rule="evenodd">
        <g id="Mobile-Checkout-V2" transform="translate(-153.000000, -1742.000000)">
            <g id="Payment" transform="translate(20.000000, 1704.000000)">
                <g id="Apple-Pay" transform="translate(133.000000, 38.000000)">
                    <path d="M0,4.00718972 C0,1.79407995 1.7844345,0 4.00418053,0 L103.995819,0 C106.207267,0 108,1.79426827 108,4.00718972 L108,45.9928103 C108,48.2059201 106.215566,50 103.995819,50 L4.00418053,50 C1.79273269,50 0,48.2057317 0,45.9928103 L0,4.00718972 Z" id="Rectangle-Copy-4" fill="#000000"></path>
                    <g id="Apple_Pay_logo" transform="translate(25.000000, 13.000000)" fill="#FFFFFF" fill-rule="nonzero">
                        <path d="M10.53,3.08246445 C9.855,3.89004739 8.775,4.52701422 7.695,4.43601896 C7.56,3.34407583 8.08875,2.18388626 8.7075,1.46729858 C9.3825,0.636966825 10.56375,0.0454976303 11.52,0 C11.6325,1.13744076 11.19375,2.2521327 10.53,3.08246445 L10.53,3.08246445 Z M11.50875,4.6521327 C9.945,4.56113744 8.60625,5.5507109 7.86375,5.5507109 C7.11,5.5507109 5.97375,4.69763033 4.73625,4.72037915 C3.1275,4.74312796 1.63125,5.66445498 0.81,7.13175355 C-0.8775,10.0663507 0.37125,14.4113744 2.0025,16.8 C2.80125,17.9829384 3.7575,19.2796209 5.0175,19.2341232 C6.21,19.1886256 6.6825,18.4492891 8.1225,18.4492891 C9.57375,18.4492891 9.99,19.2341232 11.25,19.2113744 C12.555,19.1886256 13.37625,18.028436 14.175,16.8454976 C15.08625,15.5033175 15.4575,14.1952607 15.48,14.1270142 C15.4575,14.1042654 12.96,13.1374408 12.9375,10.2255924 C12.915,7.79146919 14.90625,6.63127962 14.99625,6.56303318 C13.87125,4.87962085 12.11625,4.69763033 11.50875,4.6521327 L11.50875,4.6521327 Z M20.5425,1.3535545 L20.5425,19.0862559 L23.265,19.0862559 L23.265,13.0236967 L27.03375,13.0236967 C30.47625,13.0236967 32.895,10.6350711 32.895,7.17725118 C32.895,3.71943128 30.52125,1.3535545 27.12375,1.3535545 L20.5425,1.3535545 Z M23.265,3.67393365 L26.40375,3.67393365 C28.76625,3.67393365 30.11625,4.9478673 30.11625,7.18862559 C30.11625,9.42938389 28.76625,10.7146919 26.3925,10.7146919 L23.265,10.7146919 L23.265,3.67393365 L23.265,3.67393365 Z M37.8675,19.2227488 C39.5775,19.2227488 41.16375,18.3469194 41.88375,16.9592417 L41.94,16.9592417 L41.94,19.0862559 L44.46,19.0862559 L44.46,10.2597156 C44.46,7.70047393 42.435,6.05118483 39.31875,6.05118483 C36.4275,6.05118483 34.29,7.72322275 34.21125,10.0208531 L36.66375,10.0208531 C36.86625,8.92890995 37.8675,8.21232227 39.24,8.21232227 C40.905,8.21232227 41.83875,8.9971564 41.83875,10.4417062 L41.83875,11.4199052 L38.44125,11.6246445 C35.28,11.8180095 33.57,13.1260664 33.57,15.4009479 C33.57,17.6985782 35.33625,19.2227488 37.8675,19.2227488 Z M38.59875,17.1184834 C37.1475,17.1184834 36.225,16.4132701 36.225,15.3327014 C36.225,14.2180095 37.11375,13.5696682 38.8125,13.4672986 L41.83875,13.2739336 L41.83875,14.2748815 C41.83875,15.935545 40.44375,17.1184834 38.59875,17.1184834 Z M47.82375,23.9090047 C50.47875,23.9090047 51.7275,22.8853081 52.81875,19.7800948 L57.6,6.22180095 L54.8325,6.22180095 L51.62625,16.6976303 L51.57,16.6976303 L48.36375,6.22180095 L45.5175,6.22180095 L50.13,19.1317536 L49.8825,19.9165877 C49.46625,21.2473934 48.79125,21.7592417 47.5875,21.7592417 C47.37375,21.7592417 46.9575,21.7364929 46.78875,21.7137441 L46.78875,23.8407583 C46.94625,23.8862559 47.62125,23.9090047 47.82375,23.9090047 Z" id="XMLID_34_"></path>
                    </g>
                </g>
            </g>
        </g>
    </g>
</svg>