<?xml version="1.0" encoding="UTF-8"?>
<svg width="19px" height="18px" viewBox="0 0 19 18" version="1.1" xmlns="http://www.w3.org/2000/svg" xmlns:xlink="http://www.w3.org/1999/xlink">
    <title>Pickup</title>
    <defs>
        <polygon id="path-1" points="0 0 18 0 18 18 0 18"></polygon>
    </defs>
    <g id="Checkout-V2" stroke="none" stroke-width="1" fill="none" fill-rule="evenodd">
        <g id="Mobile-Checkout-V2" transform="translate(-168.000000, -192.000000)">
            <g id="Order-Type-CTAs" transform="translate(20.000000, 177.000000)">
                <g id="Takeout" transform="translate(125.000000, 0.000000)">
                    <g id="Pickup" transform="translate(23.500000, 15.000000)">
                        <mask id="mask-2" fill="white">
                            <use xlink:href="#path-1"></use>
                        </mask>
                        <g id="Clip-26"></g>
                        <path d="M17.994154,9.46172914 C18.0036293,8.99362093 17.8929398,8.56993398 17.3804086,8.28747601 C15.3776604,7.18399056 15.368185,5.58176153 15.2002126,4.01384411 C14.7376424,4.66055643 14.9680661,5.35567262 14.993908,6.02015345 C15.0391313,7.1579505 14.8870948,8.25898513 14.2259725,9.2984427 C13.3779271,10.632306 13.7302385,12.0381624 13.6673565,13.4198169 C13.6501286,13.805516 13.9503255,13.9501149 14.4632874,13.9442942 C15.1683409,13.936329 15.8742558,13.9421497 16.6210871,14.1336207 C15.0352551,14.5845731 13.4468389,15.0321556 11.8635911,15.4877033 C11.3402923,15.6381229 11.2713806,15.4285771 11.272242,15.1406047 C11.2748262,13.9109016 11.1624139,12.6741524 11.3153118,11.4539462 C11.4316004,10.5244696 12.2878291,9.74112357 12.9170797,8.93694552 C13.7694321,7.84663327 14.0248363,6.6864724 14.0799657,5.47729497 C14.0834113,5.46473448 14.0868569,5.45248034 14.0903025,5.4402262 C14.408158,5.43256736 14.5989574,5.27387622 14.5972346,5.0900641 C14.5912049,4.42619597 14.9986457,3.77642011 14.7260135,3.10581221 C14.7802815,1.76520911 14.7802815,1.76520911 12.9627337,1.51675639 C12.4364201,1.44506966 11.9049381,1.38778154 11.3829315,1.30138985 C8.5958813,0.840327765 5.74724121,0.579314548 2.99680039,0 L2.53552226,0 C1.06813236,0.495067324 0.569383459,1.49592434 0,2.45971259 L0,2.62361173 C0.593933276,3.20690888 1.49796949,3.23233622 2.37013402,3.24642848 C5.89195592,3.30402295 9.31557855,3.86373087 12.772365,4.25188081 C13.2112468,4.30120373 13.6070587,4.38728907 13.6014596,4.78677409 C13.6191183,4.7959647 13.6346234,4.80576801 13.6514207,4.81526497 C13.6346234,4.8177158 13.6199797,4.82108569 13.6014596,4.82292381 C10.3229824,4.44028824 7.0432131,4.06224796 3.76732006,3.67042178 C3.10102943,3.59046351 2.83787263,3.73996404 2.7004798,4.23074241 C2.27150406,5.76649272 1.2317978,7.11812454 0,8.39929506 L0,15.286429 C3.50502465,16.1589239 7.00961861,17.0329506 10.5176582,17.8996247 C10.717933,17.9495604 10.9604162,18.0770034 11.1615525,17.9348554 C12.8511828,16.7428338 15.1269938,16.2352059 17.098301,15.3725144 C17.7361656,15.0931199 18.0156889,14.8259797 17.9993224,14.2867974 C17.949792,12.679054 17.9614209,11.0697789 17.994154,9.46172914" id="Fill-25" fill-opacity="0.9" fill="#212121" mask="url(#mask-2)"></path>
                    </g>
                </g>
            </g>
        </g>
    </g>
</svg>