<svg xmlns="http://www.w3.org/2000/svg" width="162" height="226" viewBox="0 0 162 226">
  <g fill="none" fill-rule="evenodd">
    <g fill-rule="nonzero">
      <g transform="translate(-107 -168) translate(107 168)">
        <g fill="#E5F8FF">
          <path
            d="M.391.783L.542 32.231 58.923 32.231 58.773.783zM59.074 64.233L58.923 34.47.542 34.47.668 64.233zM48.636 66.447H4.616c14.439 1.157 29.28 1.484 44.02 0z"
            transform="translate(41.69 117.332)"/>
        </g>
        <ellipse cx="56.963" cy="46.912" fill="#FFA171" rx="6.726" ry="8.506"/>
        <ellipse cx="57.161" cy="47.307" fill="#F37E4E" rx="3.363" ry="4.154"/>
        <ellipse cx="109.779" cy="46.318" fill="#FFA171" rx="6.132" ry="7.912"/>
        <ellipse cx="109.383" cy="46.516" fill="#F37E4E" rx="3.363" ry="3.758"/>
        <path fill="#FFA171"
              d="M60.428 38.524S59.95 43.8 60.2 50.908c.252 6.882 2.237 9.796 3.444 13.187 1.206 3.39 5.278 10.575 12.516 13.137 7.238 2.562 15.432 1.934 19.227-2.135 3.795-4.07 8.193-8.968 9.777-15.071 1.734-6.632 1.634-7.837 1.508-13.89-.076-4.849.93-7.687.93-7.687l-7.766-18.185-13.799-2.035-21.564 5.601-4.046 14.694z"/>
        <path fill="#5E2D1E"
              d="M50.012 14.356s-6.312 7.562-2.515 13.54c3.773 5.98 8.199 6.935 8.199 6.935s1.911.703 3.018 6.38c1.005 5.125 1.383 6.583 2.137 2.663.956-4.999 3.345-9.043 3.345-9.043s3.395-.88 6.237-3.09c2.842-2.211 3.52-4.146 3.52-4.146s4.351 2.136 8.828 1.583c6.69-.829 11.342-4.723 11.342-4.723s4.4 2.21 8.198 9.747c3.773 7.562 4.2 15.677 4.2 15.677s1.308-2.035 1.735-6.507c.403-4.17-.402-6.255.88-8.466 1.258-2.21 4.678-6.406 1.51-12.385-3.144-5.98-6.514-5.653-6.514-5.653s.075-8.793-7.167-11.631c-7.243-2.84-11.644.326-11.644.326S79.36-.692 71.464 1.167c-7.47 1.758-9.758 7.562-10.387 11.958-.653 4.371-8.223 5.326-11.065 1.231z"/>
        <path fill="#8E5C3A"
              d="M75.884 34.326c-4.992-1.9-6.765 1.31-7.019 1.31-.253 0 .887-4.007 5.296-3.955 1.039 0 2.002.59 2.382 1.155.43.72.152 1.799-.659 1.49zM90.677 34.688c-.437 1.027.85 1.189 2.522.54 3.886-1.513 4.89 1.054 5.25.784.36-.27-1.056-2.89-3.86-3.134-1.622-.135-3.577 1-3.912 1.81z"/>
        <ellipse cx="73.467" cy="46.478" fill="#5E2D1E" rx="2.239" ry="2.942"
                 transform="rotate(-16.559 73.467 46.478)"/>
        <ellipse cx="93.923" cy="46.543" fill="#5E2D1E" rx="2.942" ry="2.239"
                 transform="rotate(-73.441 93.923 46.543)"/>
        <path fill="#F37E4E"
              d="M80.389 56.314c1.056-2.236 1.179-4.617 2.874-4.449 1.695.169 2.874 3.463 3.71 4.786.834 1.323-7.591 1.828-6.584-.337z"/>
        <path fill="#C82C2F"
              d="M14.435 70.652S7.915 81.427 3.677 96.748c-4.263 15.296-1.504 20.57 3.51 25.342 5.016 4.772 18.031 10.022 18.031 10.022s13.516 5.525 7.774-22.078c-5.768-27.578-7.272-35.866-9.755-39.885-2.558-4.018-6.796-3.767-8.802.503zM135.62 140.08s10.154-5.929 15.934-15.012c5.78-9.083 6.283-14.609 4.775-20.916-1.508-6.308-6.333-14.205-13.118-20.74-6.786-6.56-12.24 1.842-16.235 14.962-3.996 13.12-5.027 35.525-2.765 38.552 2.237 3.003 11.41 3.154 11.41 3.154z"/>
        <path fill="#FFC866" d="M132.077 151.158L28.468 151.158 6.719 225.534 154.682 225.534z"/>
        <path fill="#EFAA3A"
              d="M132.527 143.986L145.847 56.209 149.934 62.577 138.758 144.036zM26.239 140.08L28.874 151.28 7.291 225.534.39 215.59z"/>
        <path fill="#FFC866" d="M135.548 140.08L132.527 151.28 154.371 225.534 161.012 215.465z"/>
        <path fill="#EFAA3A"
              d="M154.96 225.93L7.295 225.93.39 215.798 161.012 215.644zM29.27 143.245L15.933 56.209 11.863 62.567 23.051 143.069z"/>
        <path fill="#FFC866" d="M15.819 59.374L29.316 145.223 132.481 145.223 145.978 59.751z"/>
        <path fill="#F37E4E"
              d="M42.776 58.458s3.147-3.371 5.765-5.313c2.618-1.941 3.676-.536 3.147 2.478-.529 3.014-1.234 4.623-3.852 6.565-2.593 1.967-9.944 3.193-5.06-3.73z"/>
        <path fill="#EFAA3A"
              d="M26.105 140.08L28.544 151.158 132.254 151.158 135.296 140.08zM11.863 62.539L150.33 62.539 146.587 56.209 15.957 56.209z"/>
        <path fill="#FFA171"
              d="M26.29 51.857c3.388 0 2.992 2.676 1.384 8.002-1.607 5.326-2.795 8.614-5.367 8.614-2.597 0-1.781-6.142-.792-9.837 1.015-3.696 2.004-6.78 4.774-6.78z"/>
        <path fill="#FFA171"
              d="M31.662 51.534c3.475-.559 3.501 2.108 2.755 7.619-.747 5.51-1.597 10.057-4.248 10.488-2.652.432-2.703-6.882-2.291-10.666.412-3.784.926-6.984 3.784-7.441z"/>
        <path fill="#FFA171"
              d="M37.461 52.047c-3.21-.946-3.527 1.669-3.43 7.123.098 5.454.317 10.907 2.774 11.63 2.432.722 3.089-7.073 3.137-10.809.025-3.76.17-7.172-2.48-7.944z"/>
        <path fill="#FFA171"
              d="M42.857 50.793c-3.474-.68-3.759 1.437-2.877 6.88.907 5.445 1.84 8.847 4.536 9.2 2.67.378 2.307-5.494 1.815-9.25-.519-3.755-1.374-6.427-3.474-6.83zM152.272 105.852c.383-3.488-2.321-3.36-7.807-2.308-5.485 1.051-8.879 1.923-9.16 4.591-.28 2.668 5.92 2.514 9.696 1.898 3.801-.615 6.965-1.308 7.271-4.18z"/>
        <path fill="#FFA171"
              d="M152.52 100.82c.93-3.287-1.706-3.586-7.201-3.437-5.496.15-10.063.473-10.766 2.988-.703 2.515 6.474 3.312 10.239 3.312 3.789 0 6.976-.174 7.729-2.863z"/>
        <path fill="#FFA171"
              d="M153.41 95.037c.604 3.402-2.061 3.452-7.519 2.746-5.457-.68-10.915-1.511-11.367-4.106-.453-2.596 7.444-2.42 11.191-2.041 3.773.378 7.193.604 7.696 3.401z"/>
        <path fill="#FFA171"
              d="M154.654 90.875c.302 3.411-1.814 3.461-7.13 2.032-5.316-1.455-8.59-2.734-8.666-5.342-.076-2.608 5.718-1.63 9.397-.752 3.653.877 6.222 2.006 6.399 4.062z"/>
        <g fill="#EFAA3A">
          <path
            d="M91.852 24.576c0 .351.227.226.277.276-.1-.603-.327-.251-.277-.276zM90.014 19.103l.126.05c-.177-.225-.353-.451-.58-.652.177.2.303.401.454.602zM87.117 14.786c0 .326.353.627.68 1.029.177.2.378.401.554.602.177.201.303.427.403.653v.176l.504.175c-.63-.954-1.662-2.008-2.14-2.635zM85.757 12.2c.026.226-.554-.301.454.477-.026-.05-.05-.075-.05-.1-.101-.1-.202-.201-.404-.377zM86.16 12.551c.403.377-.176-.326 0 0zM84.145 10.97l.655.351c-.05-.175-.554-.602-.327-.502-.655-.401-.58-.25-.328.15zM83.415 10.77c.1.05.227.1.327.175-.025-.075-.1-.15-.327-.176zM84.448 11.346l-.706-.401c.05.125-.025.226.303.2-.101.05.1.05.403.201zM84.775 11.673c.252.326.605.728-.025.351 1.058.879 1.108.527.025-.351zM86.639 14.86l.252.478.403.25c-.177-.125-.58-.828-.655-.727zM80.519 8.259c-.076.05.1.326.075.427l.504.2c-.202-.2-.63-.502-.58-.627zM80.594 8.686l-.755-.277c.604.377.755.377.755.277zM83.037 11.045c.403.15.806.377 1.21.553-.48-.252-.933-.503-1.411-.703l.201.15zM77.849 6.778L78.328 6.803 77.471 6.702zM76.01 5.924c.378 0-.302-.426.05-.376-.503-.201-1.007-.276-1.435-.302.454.1.882.327 1.385.678zM73.92 5.146c.227.05.453.075.73.1-.251-.05-.478-.1-.73-.1zM78.68 7.707c-.025-.076-.075-.251-.428-.502l.176.351c.05.05.151.1.252.15zM78.403 7.581c-.302-.176-.504-.301-.604-.326.1.025.277.125.604.326zM78.756 7.757c-.025-.025-.05-.025-.076-.05.025.05.025.05.076.05zM81.476 9.69c-.454-.15-1.335-.527-.68.125.378.05 0-.326.68-.125zM78.957 8.184c.227.15.479.3.705.451.026-.05-.075-.226.152-.15-.278-.1-.58-.201-.857-.301zM78.554 8.058L78.957 8.184 78.68 8.033zM75.154 5.9c-.378-.051-.73-.202-1.158-.352.428.226.881.426 1.284.627.1-.025.353-.075-.126-.276zM76.74 6.702c-.024 0-.05-.025-.075-.025.025.05.076.076.076.025zM69.89 4.067L69.941 4.117 69.966 4.092zM75.356 6.25c.302.176.529.227.755.252-.252-.076-.529-.201-.806-.302-.05 0-.075.026.05.05zM72.736 4.795c.151.1.353.226.53.351-.152-.15-.454-.376-.53-.351zM76.59 6.577c.025 0 .025 0 .05.025-.1-.125-.075-.1-.05-.025z"
            transform="translate(35.995 159.466)"/>
          <path
            d="M76.59 6.577c-.177-.05-.328-.05-.504-.075.202.075.403.125.58.175-.026-.025-.076-.075-.076-.1zM68.178 5.121c.126-.2 1.058-.126 1.738.351.805.1.554-.753 0-1.355-.05.075-.076.15-.907.05.252.2 1.637.828.907.803-1.058-.226-.806-.351-1.285-.602.353.376-1.436 0-1.31.452l.932.125c.05.05-.302.05-.075.176zM71.401 4.644l.328.1c-.353-.175-.58-.351-1.008-.677-.579-.076-.705-.025-.755.025.529.2 1.058.351 1.561.552h-.126zM73.164 5.272c-.327.125-1.133-.05-.755.351.932.326.705.075 1.31.176-1.512-.553.478.05-.555-.502.303.075.58.175.832.276-.252-.126-.504-.276-.73-.402l.024.025c.05.05.076.076 0 .025h-.025c-.025 0-.05.025-.1.05-.403-.225-.05-.075.1-.05l.025-.025c-.503-.175-1.032-.3-1.561-.452.327.151.73.277 1.435.528zM79.814 9.815c-.026-.05-.026-.05-.026-.075-.1-.025-.126-.025.026.075zM79.335 9.363c.126.025.252 0 .554.201.252.226-.05.1-.075.176.226.05.755.25.226-.2l-.1-.026c-.504-.402-1.084-1.054-.958-1.03.026.277.101.478.353.88zM76.262 7.23c-.403-.151-.83-.302-1.259-.427l.529.452.025-.126c.68.352.58.15.705.1zM69.764 3.89l.252-.175-.856.1c.227.026.403.05.604.076zM68.102 3.414L68.228 3.238 67.75 3.238zM11.56 38.382c.126.05.227.1.353.15-.151-.074-.277-.125-.353-.15zM9.37 36.876l-.127.05c.151 0 .202 0 .126-.05zM26.092 2.636c-.604-.076-1.31-.201-1.183.025l.226.176c.378-.126.68-.201.957-.201zM2.569 18.325c.05-.025.1-.075.151-.1v-.452c-.076.176-.1.351-.151.552zM3.249 19.153c-.151.176-.327.352-.453.553.1-.15.251-.327.453-.553zM25.236 43.804l.479-.125c-.655-.176-.403.025-.479.125zM50.648.602c-.478-.125-.881-.175-1.208-.2.579.15 1.032.401 1.208.2zM9.243 39.914c.227.1.353.1.353.075-.202-.1-.353-.15-.353-.075zM48.004.351c.076.026.176.05.252.076.352-.025.73-.05 1.158 0-.403-.15-.906-.226-1.41-.076zM77.874 39.336c.05 0 .076-.025.126-.025 0-.025-.05-.025-.126.025zM90.618 29.772c-.025.176-.15.427-.252.653.05-.1.151-.302.252-.653zM61.352 1.707c.353.05.05-.025 0 0zM62.889 2.987c-.076 0-.151.025-.177.076.05-.05.126-.076.177-.076zM44.377 1.833h-.025c.1.05.1.025.025 0zM61.856 1.908c-.126-.05-.277-.1-.453-.176.075.05.226.1.453.176zM61.806 1.782c.126.025.226.05.302.076.076 0 .025-.05-.302-.076zM60.823 1.632c.202.025.403.075.58.125-.076-.025-.101-.05-.076-.05-.1-.025-.252-.05-.504-.075zM50.145 47.093c.025 0 .05 0 .075.025.353-.125.202-.1-.075-.025zM17.932 7.882c.025 0 .025-.025.025-.025-.025 0-.05 0-.025.025zM16.824 8.535c.378-.502.655-.577 1.083-.678l-.655-.477-.428 1.155z"
            transform="translate(35.995 159.466)"/>
          <path
            d="M17.328 41.294l-.705-.552c1.108.125 1.763.502 1.133-.075-.202.326-.982 0-1.763-.352-.78-.351-1.536-.703-1.763-.427l-.428-.426c.15.075.176.05.327.15-.806-.853-1.007.1-2.216-.753-.403-.301-.63-.602-.302-.477l-1.033-.452c-.277-.2-.126-.25.151-.075-.504-.276-.957-.627-1.435-.929h.025c-.277-.05-.806-.25-1.083-.351-.277-.352.226.075.201-.075-.277-.151-.58-.302-.856-.477-.151-.402.554-.026 1.033.401-.202-1.13-.756-.326-1.814-1.933.227.176.453.377.705.527-.075-.351-.252-.602-.453-.903-.227-.276-.504-.578-.705-1.03 0 .277.856 1.858.025 1.28-.176-.225-.403-.526-.856-.828.201-.175-.202-.527-.605-1.029l.302-.176c-.503-.476-.63-.351-.982-.602-.403-.678-.252-.954-.126-1.23-.529-1.08.025.954-.73-.276-.328-.98-.756-1.557-1.26-2.711-.05-.728.252.075.278-.201-.151-.176-.277-.377-.403-.552-.026-.151.075-.126.126-.1-.177-.503-.378.024-.554-.83-.202-.1-.101-.577.05-1.104.075-.276.151-.552.201-.853.05-.301.076-.578 0-.854.126-.25.202.15.353.1 0-1.455.05-1.23.076-2.51.201-.3.428-.577.63-.853-.555.577-.48-.452-.228-1.356-.251.176-.478.352-.604.477.176-.452.353-.928.58-1.38.15-.126.176.075.15.351.026-.1.05-.2.076-.276.403-.377.428-.025.378.377-.151.1-.328.2-.454.326.026.427.076.803.277.853 0-.1.05-.276.126-.451 0 .1.026.175.076.175.05-.025.05-.175.076-.427l.503-.05-.1-.15.604-.678.63-.628c.503-1.23.83-2.51 2.367-4.041-.227.552.227.427.428.703-.327.05-.604.351-.906.728-.303.376-.58.828-.983 1.18.428-.377.454-.176.403-.026l.554-.778.605-.753c.15.251.428-.125.906-.326-.327-.1-.1-.402.252-.753.353-.352.907-.728 1.184-1.03.151.126.1.402-.705.904 1.083-.276.73-1.33 1.813-1.606-.201.125-.327.175-.352.3.176-.225.579-.501.906-.652.328-.15.605-.226.504-.075l-.201.125c.352-.175.78-.426 1.234-.703.453-.25.932-.527 1.385-.803.881-.502 1.612-1.004 1.637-1.255.05.05.05.602 0 .728.63-.853 1.284-1.732 1.99-2.56-.076.476 1.158 1.004.025 1.707.378-.076.806-.201 1.51-.603-.25.025-.805-.326-.503-.477 1.058.1.705 0 1.965-.05-.403.05-.202-.703.403-.879-.05.126.252.578.05.703.403-.351.831-.703 1.26-1.054-.328.226.1.527.478.602-.176-.075 1.26-.376 1.612-.527-.227 0-.428.025-.655.025.831-.2 1.184-.502 1.536-.828.353-.326.705-.653 1.537-.829-.177.176-.303.88.554.779.302-.402 1.385-1.883 2.87-2.41l.328.125 1.134-.401c-.328.3-.957.778-1.612 1.255-.655.502-1.36 1.004-1.839 1.305.655.025.227.176 1.159-.025.352.1-.454.351-.73.427.73-.1 1.46-.226 2.19-.301-.176-.352 1.612-.653 1.486-.954-.78.25-1.536.527-2.317.778-.176-.352 1.184-1.306 2.77-1.456.429.1-.2.703-.15.828.176-.15 1.435-.452 1.612-.376l-.63.3c.881 0 1.36-.677 2.443-.45.378-.026 1.133.376 1.184.15-.63-.377-.882-1.657-.504-2.009.126.026 1.99.226 2.418.427.63.301-.857.854-.302 1.105.025-.1.327-.251.478-.301.378.05-.126.326.68.225.126-.401 1.688-.075.378-.351.806-.15.881.05 1.838-.025-.327-.226.832-.879 1.663-.98-.05.101.15.227.226.277.857 0 1.486.05 2.116.1.63.05 1.26.1 2.04.126.151.1.881.226.554.376.227-.05.428-.175.932-.175.907.376-1.083 0-.378.427.076-.226 1.26-.226 1.965-.327-.177-.351-1.587-.176-2.292-.05 0-.226.327-.452.83-.653.53-.175 1.235-.3 2.091-.351 1.335 0 .554.351.781.301 2.443.301 2.191-.602 4.206-.025.78.402-.05.602.1.828-1.082-.05-1.611-.376-2.316-.477l.881.251c-.352.05-1.058.05-1.435-.075.327.176 1.36.301 2.543.452.58.1 1.21.176 1.814.301.604.126 1.158.251 1.612.402.352-.05.931-.05.68-.2l-.605-.051c-.504-.326 1.184-.126.454-.377.83 0 1.788-.1 2.87.276l.127.377c0-.1-.68-.377-1.008-.326.504-.05 1.612.828 2.217.527l-.73-.402c.83 0 1.913-.075 2.87.301-.352-.451-.226-.025-.83-.577.251.326-.379.15-.983 0-.58-.15-1.133-.276-.705.1-.63-.602-1.21-.502-2.09-1.054 0 .126.302.276-.53.05-.05.025-.15.05-.201.05-.025 0-.025 0-.05-.025.025 0 .025.026.05.026h.025c.202.1.353.175.403.25-.227.076-.68.05-1.133.026-.454-.025-.907-.076-1.134-.05-.478-.151.227-.1-.025-.252l-.705.076c-.025-.276-1.26-.603-.05-.578l-1.058-.175c-.605-.226-1.46-.402-2.015-.352-.504-.125-1.31.126-.856-.025-.554-.025-1.134 0-1.688-.025V.904c-1.662-.201-3.45.15-5.34-.352-.553.05-1.133.126-2.09.025l-.176-.226c-.73.05-2.166-.2-2.468.026C43.395.075 42.513.1 41.582.15c-.932.075-1.94.226-2.57.226l-.025.276c-.881.075-1.712.2-2.77.452l.1.25c-.453.151-1.057.176-1.712.201-.68.025-1.41.05-2.14.176.075-.1.453-.125.73-.125-1.839-.302-3.602 1.029-5.239.953-.378.176-.655.226-.957.226.025 0 .076-.025.1-.025-.05 0-.1.025-.15.025h-.58c.177.026.353.026.479.026-.302.075-.756.2-1.184.376l-.252-.2c-.025 0-.075.024-.1.024-.454.025-.328.226-.026.352-.201.1-.403.2-.554.301-.478-.326-1.108.452-1.712.176-.227.276-2.141.853-2.217 1.38-.025-.05-.176-.05.05-.125-.503.1-.981.25-1.384.527l-.328-.251c-.302.276-.58.552-.881.828-.706.05-1.008.05-.479-.426-1.36.979-1.158.652-2.267 1.556l-.025-.226c-.453.2-1.007.829-1.36.803-.58.05-1.813.678-3.173 1.507-1.36.828-2.846 1.857-4.08 2.635.428.076.1.226-.252.427-.378.2-.831.477-.705.703-.227 0-.58.226-.328-.2-.478.577-.932.928-1.284 1.28-.353.376-.655.702-.806 1.23-.227.05.025-.402-.151-.327-.05.126-.202.477-.353.527-.176.076.025-.25.126-.502-.957 1.255-.604 1.682-.302 2.008-.605.503-.756.904-.781 1.507-.252.15-.604.502-.201-.352-.076.126-.227.327-.378.628s-.328.652-.479 1.004c-.252.728-.453 1.406-.277 1.48-.126.152-.201.729-.201.88-.227 1.18-.277 1.28-.303 2.46l.076-.327c.378.477.076.98.202 1.908l-.05-.025c0 .552.024.879.05 1.105.05.225.1.326.125.426.05.1.076.226.126.427.026.1.05.251.076.427.025.175.075.376.126.652l.201-.2c.303 0 .353.477.479 1.054.075.301.126.628.227.954.125.301.277.627.478.853l-.075-.452c.125.126.201.302.251.528.05.226.101.477.126.728.025.25.076.527.101.778.05.226.126.452.202.602.05.15-.202-.15-.378-.3.856 1.656.403 0 1.31.978.025.301-.58.075 0 .778.075.226.654.603 1.284 1.03.302.225.655.426.932.677.302.226.554.502.73.753-.126-.276-.227-.552.328-.25.73.552 1.662 1.982 2.644 2.058.076.1.1.15.076.175.654.302 2.065 1.055 2.543 1.03.05.552 1.083 1.004 2.04 1.33.957.352 1.864.577 1.688.98.655.3 1.335.526 2.015.802l-.076.05c1.26.553 1.814.503 2.317.503.277.15.025.15 0 .2 1.864.804 2.065.829 3.803.88l.101.3c.252-.025.907.276 1.788.578.882.301 1.94.627 2.947.652-.025.025-.076.076-.227.076 1.108.075 2.393.502 3.501.778 1.133.276 2.09.452 2.569 0l1.486-.075c-1.864-.302.327-.402-.428-.653.73.05 1.864.502.957.477l-.126-.075c-.378.502 2.317.401 2.216.753 3.703.25 7.33.602 10.805.451l-.428-.376 1.209-.025c.327.075.453.301-.428.326.478.226 1.435-.276 1.46-.376 1.713.05-.63.502-.1.502l.705-.076-.151-.025c.554-.2.604-.376 1.637-.452.655.026.352.226.63.201 0 .025.1.025.402-.025.504-.025 1.008-.1 1.537-.125l-.655-.251c.655-.226 1.435-.151.68-.427.554.226 1.964.075 3.324-.126.68-.125 1.335-.25 1.89-.326.528-.1.931-.176 1.107-.176.882-.401 1.789-.627 2.922-.853-.302 0-.554-.301.428-.502-.176.803 1.839-.15 2.77.125-.402-.075.278-.276.907-.527.63-.25 1.184-.502.554-.552.806-.201.126.25.806.226 1.789-.904 4.206-1.356 6.423-2.536 0-.1-.454-.05-.026-.426.454-.05.932-.1 1.386-.176.403-.276.126-.703 1.083-.854-.151 0-.378-.025-.101-.2 2.216-1.005 4.256-2.536 6.07-4.268.906-.879 1.788-1.807 2.594-2.786.831-.98 1.587-2.009 2.367-3.088-.453.552-.277.126-.075-.377-.177.302-.227-.1-.378-.1.201-.301.403-.602.58-.929.176-.326.377-.627.503-.979-.151-.25.025-.803.1-1.355.076-.553.152-1.08-.025-1.205.026.226 0 .452-.025.678-.15-.477-.428-.176-.705.175-.277.352-.655.753-.907.628.05.25 0 .502-.1.778-.126.276-.303.552-.479.828-.378.578-.78 1.155-.856 1.958-.252.226-.025-.326-.202-.225 0 .225-.025.426-.15.677-.127.226-.328.502-.58.829v-.1c-.327.501-.655.878-.957 1.254-.328.352-.63.653-.957.954-.68.578-1.385 1.18-2.494 1.958l.328.076c-.479.326-.63.351-.882.477-.277.728 1.285-1.005 1.083-.277-.226.026-.554.201-.906.427-.353.226-.781.527-1.184.804-.831.552-1.662 1.054-2.04.928-.78.452.378.126-.403.578l-.277-.025-.1.3c-.53.252-.908.202-.983.101.126-.05.327-.226.478-.301-.377.1-.83.377-1.259.628-.403.225-.755.451-.881.502l.83-.302c-2.115 1.256-5.011 2.184-7.177 3.239l.201.05c-.83.402-1.209.477-1.586.527-.403.05-.806.126-1.763.452l.075-.05c-.352.226-.856.426-1.41.552.453-.251-1.008-.05-.378-.352-1.889.678-.907.427-2.116 1.155l-.352-.15c-.403.276-.428.376-1.41.627.78-.326-.706-.2.176-.577-2.166-.075-3.048.954-4.106.452-.881.703 1.864.05 1.335.25.479.126-.73.553-1.41.578-.68.05-1.234-.552-2.922-.402.177-.025.177-.05.353-.075-.655-.1-1.234.326-2.015.15-.403.377-1.007.05-1.108.503l1.561-.201c-.881.176-1.687.753-3.173.577.1-.1.554-.226.831-.3-.428-.101-.831.125-1.26 0 .051-.227.53-.277 1.109-.302.58-.05 1.26-.1 1.713-.276-.479-.15-1.763.426-1.335-.076-.655.628-1.688 0-2.821.502l.076-.25c-.177.05-.555.175-.882.175l.605-.351c-.932.301-1.789-.226-2.695-.076 1.863 0 .428.327 1.209.528-1.159.175-1.486 0-1.864-.201-.353-.201-.756-.427-2.04-.427.352-.025 1.31.2.755.301-.478-.075-1.133-.2-1.435-.351-1.713-.05.252.301-.479.401-.554-.351-.856.076-1.612.126l.026-.276c-1.94-.327-.555.502-2.292.15l.78-.3H37.1l.226-.277c-1.007.126-1.31.025-2.266-.176.201.201-.202.477-1.058.352-.554-.251.352-.201-.857-.352.303-.125.63-.3 1.134.025.075-.075.302-.125.352-.2-.604-.276-1.561-.276-2.015-.327.177.05.353.076.454.126l-1.814.075c-.251-.15-.025-.176.202-.226-.353-.025-.63.05-1.159-.025.177-.2.177-.402.932-.376-.579 0-1.133-.05-1.687-.076-.1-.125-.78-.427-.554-.452-.882-.326-2.317-.1-3.476-.577-.075.025-.201.025-.478 0-1.109-.377-2.015-.904-3.4-1.054-.202-.201-.403-.402-.605-.628-1.033-.276.831.829-.907.352-1.234-.327-.327-.477-.705-.728-.655-.05-1.838-.076-2.745-.854.05-.276.302-.1.655.025zM6.322 34.366c.226.125.68.376.705.602-.428.025-.479-.226-.705-.602zM4.08 16.97c-.05.2-.252.401-.504.627.101-.2.252-.427.504-.627zM57.348 1.28h-.025c-.605-.175-.378-.125.025 0zm1.209.276c.126-.025.126-.05.075-.1-.1.05-.377.025-.68-.05.076.1.227.175.605.15zM54.124 48.6l-.252-.05c.53-.126.403-.05.252.05z"
            transform="translate(35.995 159.466)"/>
          <path
            d="M3.173 19.053c-.075.05-.126.025-.176.025-.025.1.025.126.176-.025zM25.135 43.83l.05.025c.026 0 .051-.025.051-.025h-.1zM39.592 3.088c-.252-.025-.403-.05-.479-.1 0 .05.101.1.479.1zM65.08 2.385l-.806-.126c.378.076.504.15.68.251.025-.05-.1-.175.126-.125zM71.2 5.924c.126 0 .227.076.353.076l.025-.126c-.479-.15-.831-.176-.378.05zM65.584 3.414c0 .226.503.276 1.057.377-.025 0-.075-.026-.1-.026.251-.25-.353-.3-.957-.351zM66.767 3.84c.177.026.328.076.504.126.076-.1-.201-.075-.504-.125zM60.118 1.682c.252.1.202-.251.353-.15.327-.227-1.813.05-.353.15zM65.835 4.242L65.71 3.941 65.357 4.067zM61.655 3.088l.83.25c0-.05.101-.05.253-.05-.504-.1-1.083-.276-1.083-.2zM62.763 3.288c.277.05.529.1.705.1-.151-.024-.479-.074-.705-.1zM64.652 4.042L64.425 3.916 63.821 3.765zM52.336 1.782l-.957.025c-.1.1.151.176.504.151.226-.075.604-.075.453-.176zM55.132 2.812c-.252-.076-.252-.151-.403-.252l-.076.327.479-.075zM52.361 2.61c-.1.101-1.385.176-.201.252.126-.1 1.083-.076.201-.251zM38.081 2.259L38.307 2.234 38.232 1.657zM25.941 5.648c1.108-.15.177-.402 1.184-.477.227-.2-.831.05-.604-.125-.605.3-.958.326-.58.602z"
            transform="translate(35.995 159.466)"/>
          <path
            d="M26.52 5.046l.303-.15-.302.15zM91.676 27.061L91.903 26.283 91.651 26.785zM91.424 25.504l.378-.175-.302-.477c0 .176 0 .527-.076.652zM5.616 32.508l-.1.025c-.026.15.075.276.277.502-.076-.175-.126-.351-.177-.527zM12.492 38.533L12.366 38.458 12.467 38.884zM19.846 41.545c-.302-.125-.68-.2-.982-.326.68.226.932.753.982.326z"
            transform="translate(35.995 159.466)"/>
        </g>
        <g fill="#EFAA3A">
          <path
            d="M.23.325c-.026-.05-.154.15-.18.2C.154.5.28.275.23.325zM1.12.3L1.069.35 1.298.225zM1.68.675C1.86.325 1.451.6 1.426.4L1.45.325 1.222.55c.153.05.433-.025.458.125zM1.477 1.576c.076-.15.152-.075-.051-.075v.05c.025-.025.05 0 .05.025zM1.426 1.526c-.051-.025-.026.125 0 0zM1.757 1.651l-.153.05c-.025.075.025.15-.05.175.126 0 .152-.075.203-.225zM1.986 1.451l-.076.025c0 .025 0 .05.076-.025zM1.757 1.526l.153-.05c.025-.05.101-.175-.077 0 .102-.075.026 0-.076.05zM1.757 1.426c0-.1-.026-.175.127-.25-.178-.05-.305.2-.127.25zM1.96.35V.225L1.833.3c.051-.05.051.15.127.05zM2.113 2.126c.051-.075.102-.2.153-.3l-.102.05c0 .075.026.15-.05.25zM2.266 1.851l.178-.05c-.05-.1-.127-.05-.178.05zM2.266 1.101L1.96 1.251 2.291 1.126zM2.444 2.352L2.266 2.477 2.521 2.302zM2.673 2.477c-.127.1-.101.25-.203.3.076.025.203-.075.33-.125-.101.025-.127-.025-.127-.175zM2.979 2.552c-.051.025-.102.05-.178.1.025 0 .102-.025.178-.1zM2.572 1.901c-.026.05-.077.175-.077.25l.102-.225s-.025 0-.025-.025zM2.597 1.926c.025.025.05.05.05.075 0 0 0-.025-.05-.075zM2.572 1.901s0-.025 0 0zM2.368 1.426c.127-.075.305-.125.33-.35-.126.1-.152.25-.33.35zM2.699 1.626l-.051-.1c-.026.05-.076.15-.127.175l.178-.075zM2.775 1.601L2.699 1.626 2.699 1.676zM2.953 2.277c.102-.05.153-.025.204-.025-.025-.076-.076-.126-.127-.176-.051.075-.153.176-.077.2zM2.8 2.101c0-.025 0-.025 0 0 0-.025 0-.05 0 0zM3.615 2.577s0-.025.026-.05c0 .025-.026.025-.026.05zM3.055 2.051c0-.075-.076-.025-.127 0 .05 0 .076 0 .127.025 0 0 .026-.025 0-.025zM3.157 2.552v-.15c0 .075-.025.2 0 .15zM2.775 2.151c-.025.05 0 .025 0 0zM2.775 2.151c.051-.025.077-.05.128-.075-.026 0-.077 0-.102.025 0 0 0 .025-.026.05zM4.634 1.426c-.127.175-.357.275-.306.025-.178.075-.534.7-.687 1.076.05-.075.102-.15.28-.2.025-.125-.026-.376.153-.476.178 0 .05.125.05.275.102-.25.383-.225.586-.575l-.178.05c0-.05.102-.1.102-.175z"
            transform="translate(55.38 165.796)"/>
          <path
            d="M3.488 2.402h-.05c.025.05 0 .15-.052.325.128-.05.179-.1.23-.15l-.153-.15.025-.025zM3.259 2.302c.178-.176.306-.2.407-.45-.127-.05-.178.1-.305.15.204.074-.127.074-.102.3-.05-.025-.076-.025-.127-.025.025.05.025.1.025.15v-.025c0-.025.026-.05.026-.025l.076-.075c.025.075-.025.05-.05.075l-.026.025h.254c-.025-.05-.076-.075-.178-.1zM3.08.725c0 .026-.025.026-.025.05.026-.024.051-.024.026-.05zM3.08.876c-.025.025-.101.1-.127.05 0-.075.077-.1.102-.15C3.005.8 2.877.85 2.877 1l.026-.025c.025.125-.051.425-.102.45.127-.2.203-.325.28-.55zM3.208 1.551h.204l.05-.225-.076.1c-.05-.1-.102.05-.178.125zM3.565 2.702L3.412 2.877 3.692 2.652zM3.768 2.802L3.641 2.977 3.768 2.902zM15.99 7.805l.076-.025c-.026 0-.051.025-.077.025zM15.684 7.58l-.077.075c.051-.025.102-.05.077-.075zM8.428 5.93c-.051.2-.179.524-.026.3l.127-.2c-.101 0-.101-.05-.101-.1zM12.425 6.905c0-.025.025-.05.025-.075-.05.05-.127.1-.178.15.051 0 .102-.05.153-.075zM13.036 6.13V6.128zM17.823 8.756L18 8.581c-.077-.05-.102.075-.178.175zM5.754 4.028c0 .125.026.175.051.2.026-.15.076-.35-.05-.2zM14.385 9.807c.051-.025.102-.05.128-.1-.051.025-.077.05-.128.1zM5.958 4.353v-.075c-.051 0-.127 0-.153-.05 0 .125 0 .225.153.125zM23.831 13.059v0zM24.213 16.261c-.025 0-.05-.025-.076-.025 0 .025 0 .025.076.025zM4.481 3.402c-.05-.025-.025 0 0 0zM4.838 2.477l.076-.075-.076.075zM7.23 3.402c.026-.05 0-.05 0 0zM4.481 3.277v0zM4.43 3.377c0-.025-.025-.025-.025-.05-.026.025-.051.05.025.05zM4.532 3.427c-.025 0-.05-.025-.05-.075 0 .025 0 .025-.026.025.025.025.05.025.076.05zM20.165 11.358c0 .025 0 .025 0 0 .102-.025.076-.025 0 0zM11.152 4.553c-.23.2-.255.15-.255.075l-.356.6.61-.675z"
            transform="translate(55.38 165.796)"/>
          <path
            d="M16.779 8.256l.025-.25c.331-.2.357-.05.433-.35-.458.6-.433-.2-.891.4l.025-.176c.026.025.051-.025.051 0 .077-.375-.407.376-.509.176-.025-.076 0-.2.076-.25l-.229.074c-.025-.05.051-.15.077-.1l-.23-.075.026-.025c-.102.075-.255.175-.331.225 0-.125.076-.05.102-.125l-.204.075c.076-.2.28-.275.331-.2.331-.675-.204.1-.178-.425h.153c.178-.4 0-.325.05-.625-.05.125-.152.7-.381.775 0-.075-.026-.125-.179-.05.153-.225.051-.2-.025-.25l.204-.275c-.153.025-.23.175-.382.275-.077-.1.076-.325.178-.525-.127-.15-.153.425-.357.375-.05-.2-.229-.15-.483-.075-.026-.15.152-.175.178-.275l-.23.175c-.025-.025.052-.075.077-.125-.127.05-.204.275-.356.3-.255.3.127-.6-.255-.325.026-.1.153-.176.204-.276-.331.125-.28.075-.637.3v-.275c-.05.276-.356.45-.61.6-.052.126-.077.226-.103.301l-.28.05c.026-.05.102-.15.204-.25-.025.025-.05.025-.076.05.025-.15.178-.3.33-.425l-.076.225c.153-.15.331-.325.459-.5-.026.024-.077.05-.102.05.05-.05.076-.076.102-.1.025-.026-.051.024-.128.074l.204-.35-.102.125-.076-.35c-.382.225-.84.6-1.172.575.23-.2.28-.375.484-.65-.153.35.28 0 .357.15-.051-.075.076-.2.127-.225l-.407.125c.178-.225.076-.2.076-.35-.28.475-.382.2-.56.275.102-.15.229-.3.305-.175.128-.425-.534.425-.458.05.026.025.026.05.102-.025-.153.1-.23-.125-.102-.225l.026.025c-.128-.175-.535-.376-.84 0 .025-.05.356-.45.407-.526L9.98 5.954c.254-.3.713-1.176.993-1.25 0-.076-.026-.176-.204-.1 0 .074-.255.525-.331.525.153-.45.076-.25.153-.65 0 .1-.433.574-.484.524.076-.075.356-.525.407-.55l-.534.4c.101-.075.305-.425.382-.6-.051.1-.153-.1-.23-.1v.175c-.127-.2-.687.575-.865.425.102-.1.509-.6.458-.75-.23.225-1.07 1.126-1.4 1.2l.076-.175-.255.076c.357-.35 1.172-1.001 1.528-1.251 0-.175.102-.2-.025-.25.05-.176.203-.176.254-.15l-.178-.25c-.204.3-.407.174-.586.424l.484-.125c-.204.3-.764.75-.916.576.05-.15.407-.526.483-.626-.102.1-.305.075-.28 0l.178-.1c-.025-.175-.458.3-.356-.075-.025-.05.153-.475.025-.3-.178.4-.916 1.476-1.145 1.701 0-.025.025-.475.102-.675.127-.325.56-.576.662-.85-.051.074-.179.15-.204.174 0-.1.204-.25.076-.275-.229.3-.178-.15-.229.225-.153.025-.05-.125-.178-.2-.102.225-.586.626-.738.65.05-.074.101-.2.127-.25-.178-.15-.178-.375-.331-.475.025-.075.025-.225.153-.35-.077.05-.153.125-.23.1.077-.35.153.05.306-.325-.127.175-.306.15-.458.225-.179.3.152.175.305.125-.28.375-.687.7-.993.75-.203 0 .102-.3.051-.25-.229-.25-.713.5-.738.075.076-.3.33-.475.433-.675.178 0 .076.275.152.325l-.025-.175c.102-.05.23-.075.204.025.076-.275-.433-.35-.51-.7-.101.05-.229.1-.254.225h.102c-.077.25-.306.175-.306.325-.178.075-.433.225-.484.025l.179-.3c-.051.075-.026.225.05.15-.127.075.077-.5-.229-.175l-.05.25c-.179.075-.51.3-.56.125-.153.3.05-.025-.103.35.204-.45.28.2.459-.275-.178.425.025.25-.077.65.051-.1.077-.2.153-.1l.077-.075v-.025c.025 0 .025-.025 0 0 0-.05.025-.125.05-.175.204-.175.331-.075.459-.15.025.075-.102.1-.128.2l.179-.1c-.128.2-.102.45-.306.475l.102.1c0 .15.05.276.178.226.026.075.306-.125.128 0h.28l-.026.05c.153.15.611-.075.56.425.102 0 .204-.025.255.1l-.102.2c.127 0 .102.325.28.175-.254.526.306.376.382.55l.178-.224c.077.075.23.075.408.075l.127-.2c.23-.1.153.325.33.4-.075.075-.1.025-.075-.05-.128.6.636-.05.585.4.102-.05.102 0 .102.075h-.025l.025.025c0 .05-.025.1-.025.15.025-.05.025-.125.025-.15.025.025.102.025.204 0l-.128.225h.026c0 .125.102-.075.203-.25l.153-.075c-.203.375.204-.025 0 .375.153-.15.357.025.637-.325-.026.05-.026.075-.077.075.026.075.051.175.179.1l-.179.3.382-.3c-.05.225-.076.35-.305.5.407-.2.229-.025.61-.25l-.126.175c.05.025.305-.15.254.025-.127.426.56.45.637.976.305-.575-.026.325.28-.075-.077.125-.077.225-.204.3.255-.025.102.35.458.1-.076.15-.152.15-.203.25.025-.025.127-.075.101 0-.025.076-.101.1-.152.126.178.1.458-.276.738-.65-.05.224.026.224.255.024-.051.125-.102.3-.23.275.051.05.23.4.433.125-.025.075.077.075.102.05.102.1.102.126.255.2v-.074c.305-.326.153 0 .28.025l-.026.025c.051.4.179-.05.204.4l.153-.225c.356-.45 0 .4.255.325l.05-.15c.179-.1-.254.775-.229.875-.025.05-.076.05-.102.075 0 .4.23-.275.408-.25-.077.175-.306.376-.23.45-.05.15.637-.3.56.076.052-.15.103-.276.23-.326.127.025-.051.626.305.326 0 .05-.025.075-.05.1.152-.05.356 0 .56-.15-.459.8.738-.05.254.65l.255.125-.051.075c.127.15.28.025.458-.1 0 .075-.076.125-.102.15.128.3.153.275.586.05l-.127.25c.152-.1.076.576.458.45-.025.026-.05.076-.102.076.433-.1.153 1.026.815.25l.305-.1c-.152-.2.28-.325.28-.525.128 0 .026.4-.101.375l.025-.05c-.33.4.153.325-.05.6.432.25.661.75 1.018 1.05l.178-.35.127.1c-.025.1-.127.301-.229.226-.076.225.28-.05.331-.125.102.25-.356.325-.306.375l.102.025v-.05c.153-.1.255-.225.357-.15.025.125-.102.225-.077.25-.025.025-.025.05.026.05l.153.15.127-.3c.153-.075.153.125.28-.225-.204.525.51.6.484.775.229-.125.33-.05.458.075 0-.075.204-.375.28-.275-.458.576.026.4-.204.9.128-.35.357.151.535-.35.051.1-.153.226-.178.426.382-.075.382.475.687.575.051-.075.102-.225.255-.3l-.127.5c.076 0 .382-.425.28-.075.025-.075.076-.2.127-.2.255.75 1.298.426 1.324 1.501.025-.2.102-.175.153-.15 0-.05.127-.2.203-.3l.026.45c.254-.275.254.15.484-.125h-.102c.33-.275.407-.85.713-1.276-.382.3.127-.75-.433-.325.025-.125.127-.125.178-.225-.178.15-.255.15-.305 0l.05-.05c-.305-.15-.305-.4-.534-.75l-.128.225c-.05-.075-.025-.15 0-.226-.305.276.179.15-.152.45.229-.5-.459-.324-.179-.875-.101-.075-.152.275-.254.2l.076-.15-.152.15c-.051-.075.025-.275.127-.375 0 .025.076 0 .102 0 .025-.225-.28-.125-.28-.175l.05.15c-.381-.075-.585-.475-1.043-.375l-.051.125c-.331.05-.077-.225-.382-.3l.025-.025c-.127.075-.203.075-.28.025.153-.075.051-.3.23-.376-.357.05-.23.075-.637.35l.076-.2c-.153.126-.229.2-.356.15.203-.074.102-.3.356-.425.026-.525-.61.125-.356-.475-.433.4.025.4-.102.45-.051.175-.331.275-.382.2-.076-.05.28-.675.102-.8.025.025.05-.025.05 0 0-.175-.254.075-.203-.175-.255.25-.102-.1-.382.25l.23.025c-.179.025-.56.375-.586.075.076-.075.178-.125.254-.15.026-.15-.152 0-.127-.125.255-.35.28.075.56-.125.051-.175-.382.125-.05-.225-.434.45-.154-.2-.535.1l.152-.2c-.05.025-.152.1-.203.05l.254-.226c-.28.176-.05-.35-.254-.275.203.125-.128.3-.153.5-.458.1.254-.675-.127-.75.05 0 .05.225-.077.275-.025-.075-.05-.225 0-.35-.229-.075-.127.25-.305.325.127-.3-.179.05-.306.075l.153-.225c-.127-.3-.382.425-.458.1l.305-.25h-.153l.204-.225c-.255.1-.255.025-.306-.1-.076.175-.305.375-.407.325.026-.175.178-.175.026-.25.127-.125.28-.275.203-.025.051-.075.128-.125.178-.175.026-.2-.152-.15-.203-.2.025.025.025.05.025.1l-.407.175c.025-.1.102-.15.178-.2-.05 0-.153.075-.229.05.153-.175.255-.35.407-.376l-.33.075c.05-.075.05-.275.127-.325-.026-.175-.51.175-.535-.075-.025.025-.076.05-.127.05-.102-.125-.077-.425-.382-.3l.127-.375c-.178 0-.153.475-.458.475-.204 0 .127-.3.153-.425-.179.1-.535.35-.484 0 .025-.175.025-.1.102-.1zm-1.63-.876c.051-.025.23-.125.153.025-.204.2-.153.075-.153-.025zm-2.648-1.05c.077-.05.077 0 .051.1-.025.024-.05 0-.05-.1zm-7.46-2.803c0-.025 0-.025 0 0 .026.1.026.05 0 0zm-.076-.2l-.077.075c.051-.05.077-.025.102 0 .051-.05.051-.1-.025-.075zm14.589 9.807l.025-.075c.102-.025.051.025-.025.075z"
            transform="translate(55.38 165.796)"/>
          <path
            d="M12.96 6.204c-.026.05-.051.075-.077.125.051-.025.077-.05.077-.125zM17.797 8.781c.026 0 .026-.025.026-.025l-.026.025zM8.377 2.902c0 .05 0 .1-.026.15.026-.05.051-.1.026-.15zM3.997 3.202h.128c-.051-.025-.026-.075-.026-.125-.05.075-.076.15-.102.125zM4.201 1.35c-.025.026-.025-.024-.05 0l-.077.101c.05.025.152-.025.127-.1zM4.43 2.427c.127-.2.026-.175-.05-.175-.204.275-.077.225.05.175zM4.354 2.252c-.026 0-.051 0-.051-.025-.102.1 0 .025.05.025zM4.71 3.327c0-.075-.178.225-.153.125-.178.226.408-.125.153-.125zM4.812 1.801L4.659 2.026 4.838 1.876zM5.169 2.277l-.051-.126c-.026.05-.051.05-.077.05.051.076.077.15.128.076zM5.041 2.227c-.025-.025-.05-.05-.102-.025 0 0 .051.025.102.025zM4.99 1.826L4.965 1.876 5.041 1.951zM6.187 3.027h.153c.076-.075.076-.15 0-.125-.077.05-.128.05-.153.125zM6.289 2.202c0 .075-.051.125-.077.2l.204-.276-.127.076zM6.645 2.352c.077-.075.306-.125.153-.2-.05.075-.204.05-.153.2zM7.995 3.778L7.969 3.778 7.638 4.228zM10.184 3.627c-.05-.2-.229.276-.254.05-.102.1.025.176-.077.25.153-.05.153.026.331-.3zM9.853 3.928c-.025 0-.05.025-.076.05.025 0 .05-.025.076-.05zM24.315 16.711L24.34 16.862 24.391 16.686zM24.722 16.486l-.178.3.23-.225c-.026 0-.077 0-.052-.075zM15.353 6.63l-.051.075c-.051.075-.026.1 0 .15l.05-.225zM16.295 7.58L16.269 7.58 16.117 7.855zM17.44 7.88c-.025-.025-.127 0-.152-.05.127 0-.051.376.153.05z"
            transform="translate(55.38 165.796)"/>
        </g>
        <g fill="#EFAA3A">
          <path
            d="M.429.25C.403.2.277.4.252.45.353.425.48.2.43.25zM1.336.225L1.261.3 1.487.15zM1.866.6c.176-.35-.227-.075-.252-.275L1.639.25l-.227.225c.176.05.454-.025.454.125zM1.69 1.501c.075-.15.15-.075-.051-.075v.05c0-.025.025 0 .05.025zM1.639 1.451c-.076-.025-.05.125 0 0zM1.941 1.576l-.151.05c-.025.075.025.15-.05.175.126 0 .176-.075.201-.225zM2.193 1.376l-.075.025c-.025.025-.025.05.075-.025z"
            transform="translate(81.492 183.994)"/>
          <path
            d="M1.966 1.451l.152-.05c.025-.05.1-.175-.076 0 .076-.075 0 0-.076.05zM1.941 1.35c0-.1-.025-.174.126-.25-.151-.024-.302.2-.126.25zM2.143.275V.15l-.126.075c.076-.025.05.175.126.05zM2.294 2.051c.05-.075.101-.2.151-.3l-.1.05c0 .075.025.15-.05.25zM2.47 1.776l.177-.05c-.075-.075-.126-.025-.176.05zM2.445 1.026L2.143 1.176 2.471 1.051zM2.622 2.302L2.471 2.427 2.723 2.227zM2.849 2.402c-.126.1-.101.25-.202.3.076.025.202-.075.328-.125-.1.025-.126-.025-.126-.175zM3.151 2.502c-.05.025-.1.05-.176.1.05-.025.1-.05.176-.1zM2.748 1.851c-.025.05-.076.175-.076.25l.101-.225c0-.025-.025-.025-.025-.025zM2.773 1.851c.025.025.05.05.05.075 0 0 0-.025-.05-.075zM2.748 1.826s0 .025 0 0c0 0 .025-.025 0 0zM2.546 1.35c.126-.074.303-.124.328-.35-.126.126-.151.25-.328.35zM2.874 1.576l-.05-.1c-.026.05-.076.15-.126.175l.176-.075z"
            transform="translate(81.492 183.994)"/>
          <path
            d="M2.95 1.526L2.874 1.576 2.899 1.601zM3.126 2.202c.101-.05.151-.026.202-.026-.025-.075-.076-.125-.126-.175-.05.075-.151.175-.076.2zM2.975 2.026c.025-.025.025-.05 0 0zM3.782 2.502s0-.025.025-.05c0 .025-.025.05-.025.05zM3.227 1.976c0-.075-.076-.025-.126 0 .05 0 .076 0 .126.025 0 0 .025-.025 0-.025zM3.353 2.502v-.15c-.025.05-.05.175 0 .15zM2.95 2.076c-.026.05 0 .025 0 0z"
            transform="translate(81.492 183.994)"/>
          <path
            d="M2.95 2.076c.05-.025.075-.05.126-.075-.025 0-.076 0-.101.025 0 0 0 .025-.025.05zM4.79 1.376c-.126.175-.353.275-.302.025-.177.075-.53.7-.681 1.076.05-.075.1-.15.277-.2.025-.126-.025-.376.151-.476.177 0 .05.125.05.275.102-.25.38-.225.58-.575l-.176.05c.025-.05.101-.125.101-.175zM3.656 2.327h-.05c.024.05 0 .15-.051.325.126-.05.176-.1.227-.15l-.152-.15.026-.025zM3.429 2.227c.176-.176.302-.2.403-.45-.126-.05-.176.1-.302.15.201.074-.126.074-.101.3-.05-.025-.076-.025-.126-.025.025.05.025.1.025.15v-.025c0-.025.025-.05.025-.025.05-.025.076-.05.076-.075.025.075-.025.05-.05.075l-.026.025h.252c-.025-.05-.075-.075-.176-.1zM3.252.65c0 .025-.025.025-.025.05.025-.025.05-.025.025-.05zM3.252.826c-.025.025-.1.1-.126.05 0-.075.076-.1.101-.15-.05.025-.176.075-.176.225l.025-.025c.025.125-.05.425-.101.45.126-.225.202-.35.277-.55zM3.378 1.476h.202l.05-.225-.075.1c-.05-.075-.101.05-.177.125zM3.731 2.627L3.58 2.802 3.857 2.577zM3.933 2.727L3.807 2.902 3.933 2.827zM16.034 7.73l.076-.025c-.025.025-.05.025-.076.025zM15.732 7.505l-.076.075c.05-.025.101-.05.076-.075zM8.547 5.854c-.05.2-.177.525-.026.3l.126-.2c-.075 0-.1-.05-.1-.1zM12.505 6.83c0-.025.025-.05.025-.075-.05.05-.126.1-.177.15.05 0 .101-.025.152-.075zM13.11 6.054v.175c.025-.05.025-.1 0-.175zM17.85 8.681l.176-.175c-.05-.05-.1.075-.177.175zM5.9 3.978c0 .125.025.175.05.2.025-.15.1-.375-.05-.2zM14.471 9.732c.05-.025.101-.05.126-.1-.075.025-.1.05-.126.1z"
            transform="translate(81.492 183.994)"/>
          <path
            d="M6.101 4.278v-.075c-.05 0-.126 0-.151-.05 0 .15.025.225.151.125zM23.8 13.009v0zM24.177 16.186c-.025 0-.05-.025-.075-.025 0 .025.025.025.075.025zM4.639 3.327c-.05-.025-.025.025 0 0zM4.992 2.427l.075-.075-.075.075zM7.362 3.327c.025-.05.025-.025 0 0zM4.639 3.202v.1c.025-.025 0-.075 0-.1zM4.588 3.302c0-.025-.025-.025-.025-.05-.025.025-.05.05.025.05z"
            transform="translate(81.492 183.994)"/>
          <path
            d="M4.69 3.352c-.026 0-.051-.025-.051-.075 0 .025 0 .025-.025.025.025.025.05.025.075.05zM20.194 11.308c-.025 0-.025 0 0 0 .076-.05.05-.05 0 0zM11.244 4.478c-.227.2-.252.15-.252.075l-.353.6.605-.675z"
            transform="translate(81.492 183.994)"/>
          <path
            d="M16.816 8.18l.025-.25c.328-.2.353-.05.429-.35-.454.6-.429-.2-.883.4l.025-.175c.026.025.05-.025.05 0 .077-.375-.403.376-.503.175-.026-.075 0-.2.075-.25l-.227.075c-.025-.05.05-.15.076-.1l-.227-.075.025-.025c-.1.075-.252.175-.327.225 0-.125.075-.05.1-.125l-.201.075c.075-.2.277-.275.327-.2.328-.675-.201.1-.176-.425h.151c.177-.4 0-.325.05-.626-.05.126-.15.701-.377.776 0-.075-.026-.125-.177-.05.151-.225.05-.2-.025-.25l.202-.275c-.152.025-.227.175-.379.275-.075-.1.076-.325.177-.526-.126-.15-.151.426-.353.376-.05-.2-.227-.15-.48-.075-.024-.15.152-.175.177-.276l-.227.176c-.025-.025.05-.075.076-.125-.126.05-.202.275-.353.3-.252.3.126-.6-.252-.326.025-.1.151-.175.202-.275-.328.125-.278.075-.63.3V6.28c-.051.276-.354.45-.606.6-.05.126-.075.226-.1.3l-.278.051c.025-.05.101-.15.202-.25-.025.025-.05.025-.076.05.025-.15.177-.3.328-.425l-.076.225c.152-.15.328-.326.454-.5-.025.024-.075.05-.1.05l.1-.1c.025-.026-.05.024-.126.074l.202-.35-.101.125-.076-.35c-.378.225-.832.6-1.16.575.228-.2.278-.375.48-.65-.152.35.277 0 .353.15-.05-.075.075-.2.126-.225l-.404.125c.177-.225.076-.2.076-.35-.277.475-.378.2-.555.275.101-.15.227-.3.303-.175.126-.426-.53.425-.454.05.025.025.025.05.1-.025-.15.1-.226-.125-.1-.225l.025.025c-.126-.175-.53-.376-.832 0 .025-.05.353-.45.404-.526l-1.21 1.076c.252-.3.705-1.176.983-1.25 0-.076-.026-.176-.202-.1 0 .074-.252.524-.328.524.152-.45.076-.25.152-.65 0 .1-.43.575-.48.525.076-.075.353-.525.404-.55l-.53.4c.101-.075.303-.425.379-.6-.05.1-.152-.1-.227-.1v.175c-.126-.2-.681.575-.857.425.1-.1.504-.6.453-.75-.227.225-1.059 1.125-1.386 1.2l.075-.175-.252.075c.353-.35 1.16-1 1.513-1.25 0-.176.1-.2-.025-.25.05-.176.201-.176.252-.15l-.177-.25c-.201.3-.403.174-.58.424l.48-.125c-.202.3-.757.75-.908.576.05-.15.403-.526.479-.626-.1.1-.303.075-.277 0l.176-.1c-.025-.175-.454.3-.353-.075-.025-.05.151-.475.025-.3-.176.4-.907 1.476-1.134 1.701 0-.025.025-.475.1-.675.127-.326.555-.576.656-.85-.05.074-.176.15-.202.174 0-.1.202-.25.076-.275-.227.3-.176-.15-.227.225-.151.025-.05-.125-.176-.2-.101.225-.58.625-.731.65.05-.075.1-.2.126-.25-.177-.15-.177-.375-.328-.475.025-.075.025-.225.151-.35-.05.05-.151.125-.227.1.076-.35.152.05.303-.325-.126.175-.303.15-.454.225-.176.3.151.175.303.125-.278.375-.681.7-.984.75-.201 0 .101-.3.05-.25-.226-.25-.705.5-.73.075.075-.3.327-.475.428-.675.177 0 .076.275.151.325L6 2.752c.101-.05.227-.075.202.025.076-.275-.429-.35-.504-.7-.101.05-.227.1-.252.225h.1c-.075.25-.302.175-.302.325-.177.075-.429.225-.48.025l.177-.3c-.05.075-.025.225.05.15-.125.075.076-.5-.226-.175l-.05.25c-.177.075-.505.3-.555.125-.151.3.05-.025-.101.35.202-.45.277.2.454-.275-.177.425.025.25-.076.65.05-.1.076-.2.151-.1l.076-.075v-.025c.025 0 .025-.025 0 0 0-.05.025-.125.05-.175.202-.175.328-.075.454-.15.025.075-.1.1-.126.2l.177-.1c-.126.2-.101.45-.303.475l.101.1c0 .15.05.276.176.226.026.075.303-.125.127 0h.277l-.025.05c.15.15.605-.075.554.425.101 0 .202-.025.252.1l-.1.2c.126 0 .1.325.277.175-.252.526.302.376.378.55l.177-.225c.075.076.226.076.403.076l.126-.2c.227-.1.151.325.328.4-.076.075-.101.025-.076-.05-.126.6.63-.05.58.4.1-.05.1 0 .1.075h-.024l.025.025c0 .05-.025.1-.025.15.025-.05.025-.125.025-.15.025.025.1.025.201 0l-.126.225h.026c0 .125.1-.075.201-.25l.152-.075c-.202.375.201-.025 0 .375.15-.15.353.025.63-.325-.025.05-.025.075-.076.075.025.075.05.175.177.1l-.177.3.378-.3c-.05.225-.075.35-.302.5.403-.2.227-.025.605-.25l-.126.175c.05.025.302-.15.252.025-.126.426.555.45.63.976.303-.575-.025.325.278-.075-.076.125-.076.225-.202.3.252-.025.1.35.454.1-.076.15-.152.15-.202.25.025-.025.126-.075.1 0-.024.076-.1.1-.15.126.176.1.453-.276.73-.65-.05.224.026.224.253.024-.05.125-.101.3-.227.275.05.05.227.4.429.125-.026.075.075.075.1.05.101.1.101.126.252.2v-.074c.303-.326.152 0 .278.025l-.025.025c.05.4.176-.05.201.4l.152-.225c.352-.45 0 .4.252.325l.05-.15c.177-.1-.252.775-.202.875-.025.05-.075.05-.1.075 0 .4.226-.275.403-.25-.076.175-.303.376-.227.45-.05.15.63-.3.555.076.05-.15.1-.276.227-.326.126.025-.05.626.302.326 0 .05-.025.075-.05.1.15-.05.353 0 .554-.15-.453.8.731-.05.252.65l.253.125-.05.075c.125.15.276.025.453-.1 0 .075-.076.125-.1.15.125.3.15.275.579.05l-.126.25c.151-.1.076.576.454.45-.026.026-.05.076-.101.076.428-.1.151 1.025.807.25l.302-.1c-.151-.2.277-.325.277-.525.126 0 .026.4-.1.375l.025-.05c-.328.4.151.325-.05.625.428.25.655.75 1.008 1.05l.176-.35.126.1c-.025.1-.126.3-.227.226-.075.225.278-.05.328-.125.101.25-.353.325-.302.375l.1.025v-.05c.152-.1.253-.225.353-.15.026.125-.1.225-.075.25-.025.025-.025.05.025.05l.151.15.126-.3c.152-.075.152.125.278-.225-.202.525.504.6.479.775.227-.125.327-.05.454.075 0-.075.201-.375.277-.275-.454.576.025.4-.202.9.126-.35.353.151.53-.35.05.1-.152.226-.177.426.378-.075.378.475.68.575.051-.075.102-.225.253-.3l-.126.5c.075 0 .378-.425.277-.075.025-.075.076-.2.126-.2.252.75 1.286.426 1.311 1.501.025-.2.101-.175.151-.15 0-.05.127-.2.202-.3l.025.45c.252-.275.252.15.48-.125h-.101c.327-.275.403-.85.705-1.276-.378.3.127-.75-.428-.325.025-.125.126-.125.176-.225-.176.15-.252.15-.302 0l.05-.05c-.302-.15-.302-.4-.53-.75l-.125.225c-.05-.075-.025-.15 0-.226-.303.276.176.15-.152.45.227-.5-.453-.324-.176-.875-.1-.075-.151.275-.252.2l.076-.15-.152.15c-.05-.075.025-.275.126-.375 0 .025.076 0 .101 0 .025-.225-.277-.125-.277-.175l.05.15c-.378-.075-.58-.475-1.033-.375l-.05.125c-.329.05-.076-.225-.379-.3l.025-.025c-.126.075-.201.075-.277.025.151-.075.05-.3.227-.376-.353.05-.227.075-.63.35l.075-.2c-.151.126-.227.2-.353.15.202-.074.101-.3.353-.425.025-.525-.605.125-.353-.475-.428.4.025.4-.1.45-.051.175-.328.275-.379.2-.075-.05.278-.675.101-.8.025.025.05-.025.05 0 0-.175-.252.075-.201-.175-.252.25-.101-.1-.378.25l.227.025c-.177.025-.555.375-.58.075.075-.075.176-.125.252-.15.025-.15-.152 0-.126-.125.252-.35.277.075.554-.125.05-.175-.378.125-.05-.225-.429.45-.151-.2-.53.1l.152-.2c-.05.024-.152.1-.202.05l.252-.226c-.277.175-.05-.35-.252-.275.202.125-.126.3-.151.5-.454.1.252-.675-.126-.75.05 0 .05.225-.076.275-.025-.075-.05-.225 0-.35-.227-.075-.126.25-.302.325.126-.3-.177.05-.303.075l.151-.225c-.126-.3-.378.425-.453.1l.302-.25h-.151l.201-.225c-.252.1-.252.025-.302-.1-.076.175-.303.375-.403.325.025-.175.176-.175.025-.25.126-.125.277-.275.201-.025.05-.075.127-.125.177-.175.025-.2-.151-.15-.202-.2.025.025.025.05.025.1l-.403.175c.025-.1.1-.15.177-.2-.05 0-.152.075-.227.05.15-.176.252-.35.403-.376l-.328.075c.05-.075.05-.275.126-.325-.025-.175-.504.175-.53-.075-.024.025-.075.05-.125.05-.101-.125-.076-.425-.378-.3l.126-.375c-.177 0-.152.475-.454.475-.202 0 .126-.3.151-.425-.176.1-.53.35-.479 0 0-.2 0-.125.076-.125zm-1.588-.875c.05-.025.226-.125.15.025-.226.225-.15.075-.15-.025zM12.58 6.279c.076-.05.076 0 .05.1-.024 0-.05-.025-.05-.1zM5.193 3.452c.026.125.026.075 0 0zm-.075-.2l-.076.075c.05-.05.076-.025.101 0 .05-.05.05-.1-.025-.075zm14.471 9.807l.025-.075c.076-.025.025.025-.025.075z"
            transform="translate(81.492 183.994)"/>
          <path
            d="M13.034 6.154c-.025.05-.05.075-.075.125.05-.025.075-.075.075-.125zM17.824 8.706c.025 0 .025-.025.025-.025l-.025.025zM8.496 2.827c0 .05 0 .1-.025.15.05-.05.05-.1.025-.15zM4.16 3.152h.126c-.05-.025-.025-.075-.025-.125-.05.05-.076.125-.101.125zM4.362 1.276c-.026.025-.026-.025-.05 0l-.077.1c.05.05.152-.025.127-.1zM4.588 2.352c.126-.2.026-.176-.05-.176-.202.276-.076.226.05.176zM4.513 2.176c-.025 0-.05 0-.05-.025-.101.1 0 .05.05.025zM4.866 3.252c0-.075-.177.225-.152.125-.176.225.404-.125.152-.125zM4.967 1.726L4.815 1.976 4.992 1.801zM5.32 2.227L5.27 2.1c-.026.05-.051.05-.077.05.05.05.076.126.127.076zM5.193 2.151c-.025-.025-.05-.05-.1-.025 0 .025.05.025.1.025zM5.143 1.751L5.143 1.801 5.193 1.876zM6.328 2.977h.151c.076-.075.076-.15 0-.125-.05.025-.126.025-.151.125zM6.429 2.126c0 .076-.05.126-.076.2l.202-.275-.126.075zM6.782 2.277c.075-.075.302-.126.151-.2-.05.074-.202.074-.151.2zM8.118 3.703L8.093 3.703 7.765 4.153zM10.286 3.577c-.05-.2-.227.276-.252.05-.1.1.025.176-.076.25.152-.074.152.026.328-.3zM9.958 3.878c-.025 0-.05.025-.075.05.025-.025.05-.05.075-.05zM24.304 16.636L24.304 16.787 24.354 16.611zM24.682 16.411l-.177.3.227-.225c-.025 0-.076 0-.05-.075zM15.404 6.555l-.05.075c-.05.075-.026.1 0 .15l.05-.225zM16.337 7.53L16.337 7.505 16.186 7.78zM17.497 7.805c-.026-.025-.127 0-.152-.05.101.025-.075.4.152.05z"
            transform="translate(81.492 183.994)"/>
        </g>
        <g fill="#EFAA3A">
          <path
            d="M.276 6.79c-.05-.025-.025.23-.025.255.1-.076.025-.33.025-.254zM1.18 6.155L1.155 6.256 1.28 6.002zM2.059 6.053c-.126-.381-.302.102-.477-.025l-.025-.077-.025.33c.15-.075.376-.33.527-.228zM2.611 6.867c-.05-.153.075-.153-.125-.026 0 .026.025.026.025.026h.1zM2.536 6.867c-.1.025.075.127 0 0zM2.937 6.74l-.1.152c.025.077.15.102.126.178.1-.101.075-.203-.026-.33zM3.038 6.434l-.05.077c0 .025.025.025.05-.077zM2.862 6.638l.126-.127c-.025-.051-.05-.204-.05.05-.026-.127-.026-.025-.076.077zM2.762 6.587c-.076-.076-.176-.127-.076-.28-.2.077-.15.356.076.28zM2.059 5.646l-.1-.102-.076.153c.025-.102.2.076.176-.05zM3.74 6.841c0-.076-.074-.228-.074-.33l-.076.102c.025.076.126.127.15.228zM3.64 6.536l.126-.152c-.126-.026-.15.05-.126.152zM3.013 5.977L2.812 6.307 3.038 5.977zM4.243 6.816L4.193 7.019 4.293 6.689zM4.595 6.74c-.05.178.1.254.05.381.1-.05.15-.178.226-.33-.076.076-.15.076-.276-.051zM4.971 6.587c-.025.051-.075.127-.1.204l.1-.204zM3.992 6.384c.025.05.05.178.126.229l-.076-.23h-.05zM4.042 6.384h0zM3.992 6.384c0-.026 0-.026 0 0zM3.39 6.155c.075-.153.225-.305.025-.483-.026.178.075.28-.026.483zM3.892 6.104l-.151-.051c0 .05.05.153.025.229l.126-.178zM3.942 6.002L3.892 6.104 3.942 6.104zM4.695 6.41c.05-.103.125-.128.2-.154-.075-.025-.175-.05-.25-.05-.025.076-.05.203.05.203zM4.369 6.358c.025 0 .025 0 0 0 0-.025 0-.025 0 0zM5.649 6.155s0-.026-.025-.051c0 .025 0 .05.025.05zM4.62 6.155c-.076-.051-.1.025-.126.101.05-.025.1-.05.15-.05l-.024-.051zM5.172 6.46c-.025-.05-.075-.076-.126-.127.026.076.1.178.126.127zM4.419 6.41c.025.05 0 .05 0 0zM4.419 6.41c.025-.026.05-.103.075-.154-.025.026-.075.051-.1.102 0 0 .025.026.025.051zM5.7 4.603c0 .23-.126.433-.302.23-.126.177.05.89.2 1.296 0-.101-.024-.178.126-.33-.05-.127-.351-.255-.25-.458.175-.127.15.05.275.178-.1-.254.201-.432.126-.814l-.15.153c-.026-.077.024-.204-.026-.255zM5.348 6.13l-.05.025c.075.025.125.101.225.28.076-.128.1-.204.1-.28h-.3l.025-.026z"
            transform="translate(83.47 178.06)"/>
          <path
            d="M5.021 6.18c.025-.254.151-.356.025-.61-.175.025-.1.203-.2.33.276-.101-.076.153.15.255-.05.05-.1.076-.15.076.05.025.1.05.15.102v-.026c-.025-.025-.025-.05 0-.025.025-.026.025-.051.025-.102.076.051.025.051 0 .102v.025l.277-.152c-.076-.026-.126 0-.277.025zM3.515 5.137c0 .026 0 .026.025.051 0-.025 0-.05-.025-.05zM3.64 5.265c-.025.025-.025.127-.1.127-.075-.077 0-.127-.025-.204-.025.077-.126.178.025.28l.025-.025c.126.076.301.356.276.381-.05-.203-.1-.356-.2-.56zM4.343 5.672l.226-.153-.15-.204.025.128c-.15-.026-.1.127-.1.229zM5.674 6.282L5.674 6.536 5.775 6.155zM5.975 6.206L6.001 6.434 6.051 6.307zM22.646 1.653l.05-.076c-.025.025-.05.05-.05.076zM22.144 1.679v.101c.025-.05.025-.101 0-.101zM13.357 5.392c.125.203.276.508.226.254l-.05-.229c-.076.051-.126.026-.176-.025zM18.253 3.408c0-.025-.026-.05-.026-.076-.025.076-.025.152-.05.229l.076-.153zM18.227 2.39l.151.153-.15-.152zM25.308 1.094l.05-.255c-.126.026-.05.127-.05.255zM9.038 5.799c.1.076.176.127.226.127-.1-.127-.226-.33-.226-.127zM22.722 4.222c.025-.051.05-.102.05-.153-.05.051-.076.102-.05.153zM9.515 5.9l-.05-.05c-.05.05-.125.076-.2.076.1.076.2.152.25-.026zM35.074.229l.025.025c0-.025-.025-.025-.025-.025zM38.162 2.365c-.025.026-.075.026-.125.026.025.025.075.025.125-.026zM7.206 6.18c-.076.026-.025.051 0 0zM6.779 5.265c0-.026.025-.077.025-.128 0 .077 0 .102-.025.128zM9.992 4.324c-.025-.051 0-.051 0 0zM7.08 6.104c.025.025.05.05.1.05-.025-.025-.05-.025-.1-.05zM7.105 6.206c-.025 0-.05 0-.05-.026 0 .051 0 .076.05.026zM7.28 6.18c-.024 0-.074 0-.1-.025l.026.025h.075zM29.902 1.45c.025 0 .025 0 0 0 .075-.077.05-.077 0 0zM14.738 2.696s0 .025 0 0c0 .025 0 .025 0 0zM14.964 2.492c-.076.306-.126.28-.201.23l.15.686.05-.916z"
            transform="translate(83.47 178.06)"/>
          <path
            d="M23.801 1.45l-.176-.204c.151-.381.302-.28.126-.56.05.764-.628.153-.552.916l-.126-.152c.025 0 .025-.051.05-.026-.25-.33-.1.56-.376.483-.1-.05-.176-.152-.126-.254l-.176.204c-.05 0-.05-.153 0-.128l-.3.102v-.025c-.026.127-.126.33-.152.407-.1-.102.026-.077 0-.178l-.15.203c-.1-.178.025-.407.15-.381-.25-.738-.125.203-.527-.204l.15-.102c-.15-.407-.25-.254-.476-.483.05.127.452.636.276.84-.05-.051-.126-.077-.226.101-.025-.28-.125-.203-.251-.152l-.025-.356c-.126.127-.1.305-.15.457-.151-.025-.227-.28-.277-.508-.251-.026.2.432-.075.534-.226-.127-.352.05-.553.28-.15-.102 0-.23-.05-.306l-.1.306c-.025 0-.025-.102-.025-.128-.1.128.025.356-.126.484 0 .407-.402-.535-.552-.077-.05-.101 0-.229-.025-.356-.251.33-.226.23-.402.661l-.226-.203c.176.254.025.585-.1.865.075.127.125.229.15.28l-.226.228c-.025-.05-.025-.178 0-.33-.025.025-.025.05-.05.101-.1-.127-.075-.33-.025-.534.05.077.075.128.125.204.05-.229.076-.458.05-.687 0 .051-.05.076-.075.102 0-.051.025-.102 0-.153-.025-.025-.025.051-.075.153l-.1-.382v.153l-.352-.203c-.2.432-.351 1.042-.703 1.246.075-.305-.025-.483-.05-.814.15.356.276-.178.477-.127-.1-.026-.1-.204-.075-.255l-.327.382c-.025-.28-.1-.204-.2-.305.125.56-.227.407-.352.585-.025-.178-.025-.382.176-.356-.226-.407-.176.686-.402.356.05 0 .075.025.075-.077-.075.178-.351.077-.301-.101h.05c-.301-.026-.853.101-.853.56 0-.052-.026-.586-.026-.662l-.326 1.653c0-.407-.276-1.373-.05-1.628-.075-.05-.176-.101-.301.051.05.051.175.585.125.61-.226-.432-.15-.228-.402-.584.076.076.076.737-.05.712 0-.102-.075-.636-.05-.712l-.2.66c.05-.126-.051-.533-.126-.711.05.127-.226.025-.302.076l.126.127c-.327-.05-.201.916-.527.916.025-.127 0-.814-.151-.865-.025.33-.15 1.577-.402 1.857l-.075-.178-.176.229c.076-.51.327-1.552.477-1.959-.125-.127-.05-.203-.226-.178-.075-.178.076-.28.126-.28l-.402-.076c.05.382-.276.407-.226.712l.402-.432c.05.381-.15 1.094-.427 1.043-.075-.153-.025-.662-.025-.789-.025.127-.251.28-.276.178l.1-.203c-.176-.127-.2.534-.427.178-.075-.026-.25-.458-.226-.23.151.408.302 1.73.277 2.061-.026-.025-.377-.382-.477-.585-.151-.33.075-.814-.05-1.094 0 .102-.05.23-.05.28-.076-.076 0-.33-.152-.254.026.381-.3 0-.025.33-.125.128-.175-.05-.326-.025.075.229-.075.865-.2.966 0-.101-.051-.228-.076-.28-.301 0-.477-.152-.753-.126-.026-.102-.176-.178-.151-.356-.025.076-.05.203-.15.228-.202-.305.175-.076.024-.457.026.229-.2.33-.3.483.074.33.3.025.4-.127.051.457-.1.992-.376 1.246-.226.152-.125-.305-.176-.229-.451-.025-.276.865-.677.56-.176-.28-.076-.585-.126-.814.176-.128.301.152.427.127l-.176-.127c.05-.102.176-.204.251-.128-.15-.254-.728.026-1.104-.178-.05.102-.151.23-.076.331l.1-.05c.126.228-.175.355-.024.457-.126.178-.252.458-.478.356l-.075-.33c.025.101.15.177.201.076-.075.152-.351-.433-.402.025l.176.23c-.125.177-.251.559-.452.482.126.33.025-.05.201.33-.15-.482.452-.025.226-.533.176.432.251.178.452.534-.025-.102-.075-.204.075-.178 0-.026.025-.076.025-.102 0-.025 0-.025 0 0-.05-.05-.075-.102-.1-.152.05-.255.276-.28.351-.433.1.051-.025.127.05.255l.101-.204c.05.254.276.382.075.56h.201c.126.127.276.178.377.05.1.051.2-.305.125-.101l.276-.178v.05c.302 0 .553-.483.93-.076.1-.076.175-.152.35-.101l.051.203c.126-.102.402.178.427-.05.2.559.628.05.854.152l-.026-.28c.151 0 .302-.102.478-.229l-.05-.254c.15-.23.426.127.702.076 0 .102-.075.076-.125.025.376.535.602-.483.929-.101.05-.102.125-.077.175-.026l-.025.026h.025c.026.05.076.076.1.127-.024-.051-.074-.102-.1-.127.05 0 .126-.051.201-.127l.05.254h.026c.1.102.05-.127-.025-.33.025-.052.075-.102.1-.179.1.433.2-.178.326.28.025-.229.377-.203.377-.687 0 .051.025.077 0 .102.1.05.2.076.251-.05l.075.33.151-.483c.15.203.2.305.1.585.251-.433.201-.178.402-.61v.228c.075-.025.201-.33.251-.153.226.407.954-.05 1.481.28-.175-.636.252.255.226-.229.05.153.126.23.05.382.227-.178.402.203.528-.23.05.154-.025.23 0 .332.025-.026.075-.153.1-.051.025.076-.025.127-.05.203.251-.05.226-.534.2-.966.152.203.227.152.277-.153.05.153.15.28 0 .356.1 0 .578.153.552-.203.05.076.126.025.151-.026.201 0 .226.026.427-.025l-.05-.051c.025-.432.15-.102.301-.178v.05c.402.28.15-.177.552.153l-.05-.254c-.025-.585.352.305.552.05l-.1-.152c.1-.203.402.738.527.814.025.051-.025.076-.05.127.326.306 0-.356.226-.457.05.178 0 .483.15.508.101.153.377-.661.628-.33-.05-.153-.125-.28-.025-.407.15-.077.477.508.578.025.025.026.025.076.05.102.1-.127.376-.23.427-.509.2.916.703-.534.803.33l.377-.075v.076c.25.025.301-.178.376-.407.05.05.025.127.025.178.377.127.402.102.653-.356l.05.28c.05-.178.553.381.854.025 0 .025 0 .076-.025.127.351-.356 1.004.661 1.03-.356l.225-.28c-.326-.05 0-.432-.15-.585.125-.076.376.255.226.331l-.026-.05c0 .533.427.152.452.508.653-.102 1.306.127 1.934.076l-.126-.407h.226c.075.077.1.305-.05.305.1.23.226-.228.226-.305.326.127-.076.483.025.483l.125-.05-.025-.051c.076-.178.076-.356.251-.356.126.076.076.254.126.254 0 .025.025.05.075 0h.276l-.15-.305c.1-.178.25 0 .1-.356.251.534 1.03.101 1.155.254.15-.254.301-.254.502-.254-.05-.051-.125-.433.05-.407.026.763.352.28.553.814-.176-.331.477-.153.226-.636.15.05.05.28.176.432.326-.33.778.102 1.205-.05 0-.102-.1-.23-.025-.408l.276.458c.075-.05.025-.585.2-.254-.025-.076-.075-.204-.025-.229.904.381 1.683-.585 2.637.229-.126-.178-.05-.204.025-.229-.05-.05-.025-.254-.05-.382l.401.331c.025-.381.377-.076.377-.432l-.1.076c.1-.432-.302-.89-.352-1.45-.126.484-.527-.66-.728.051-.075-.101.025-.178 0-.305-.05.229-.126.305-.301.204V.509c-.427.101-.653-.102-1.155-.204l.075.255c-.1-.026-.15-.102-.2-.153-.076.407.3 0 .225.432-.2-.534-.753.077-.904-.534-.175.026.076.305-.075.305l-.05-.152-.025.229c-.1-.026-.176-.23-.201-.356.025.025.075-.051.1-.051-.15-.178-.376.101-.452.05l.176.077c-.427.203-1.004.05-1.406.432l.05.127c-.301.255-.276-.101-.627.026V.966c-.05.128-.151.204-.251.204.075-.153-.201-.254-.1-.432-.327.28-.152.203-.352.712l-.076-.204c-.05.204-.05.305-.226.356.126-.203-.15-.305 0-.56-.426-.406-.527.51-.753-.126-.125.585.352.28.276.407.1.178-.1.432-.226.406-.125 0-.276-.712-.577-.66.025 0 .025-.052.05-.052-.125-.127-.2.23-.377 0-.05.356-.175 0-.15.433l.276-.127c-.15.127-.251.66-.527.432 0-.102.075-.229.125-.28-.1-.127-.125.102-.226-.025-.025-.433.327-.127.452-.484-.1-.178-.276.357-.25-.127-.051.61-.302-.05-.478.433l-.025-.255c-.025.051-.075.178-.15.178L29.35.84c-.126.305-.352-.229-.502-.05.326-.051.1.305.276.483-.377.407-.301-.662-.753-.484.05-.05.25.128.175.255-.1-.051-.226-.127-.3-.255-.302.077.074.255-.051.433-.15-.305-.126.152-.251.254l-.025-.28c-.377-.127-.025.56-.377.407l.1-.381-.15.102v-.306c-.15.255-.226.204-.402.127.05.179.025.484-.125.51-.126-.153.025-.255-.176-.204.025-.178.075-.382.176-.153 0-.076.025-.178.025-.254-.126-.178-.302 0-.377 0 .025 0 .075.025.1.05l-.276.408c-.05-.102-.025-.178 0-.255-.05.026-.1.153-.175.204 0-.23-.025-.458.1-.56l-.276.28c-.025-.102-.176-.254-.15-.33-.177-.102-.377.457-.603.33 0 .05-.025.076-.076.127-.226-.025-.426-.28-.652.05l-.176-.38c-.176.101.25.483-.075.66-.226.153-.126-.33-.201-.432-.1.204-.251.636-.502.331.05-.102.1-.05.15-.076zm-2.385.432c.05-.05.126-.254.176-.102-.025.33-.076.178-.176.102zm-3.565 1.043c.025-.102.075-.051.15.05-.05.026-.1 0-.15-.05zM7.884 5.9c.1.077.075.051 0 0zM7.632 5.8c-.025.05 0 .076 0 .101 0-.076.05-.076.1-.076 0-.05-.024-.076-.1-.025zm23.149-2.62l-.05-.076c.1-.076.075 0 .05.076z"
            transform="translate(83.47 178.06)"/>
          <path
            d="M18.227 2.518c.026.05.026.102.026.152.025-.076 0-.127-.026-.152zM25.282 1.144s.026 0 0 0v-.05.05zM10.746 3.154c.05.025.075.076.1.127 0-.051-.025-.102-.1-.127zM6.553 6.384l.125-.077c-.075.026-.1-.025-.125-.076 0 .05.05.153 0 .153zM5.172 4.858c-.025.025-.05 0-.05.05l.025.128c.075-.026.125-.153.025-.178zM6.327 5.493c-.025-.228-.126-.127-.201-.076h.025c0 .33.075.204.176.076zM6.1 5.417c-.024.026-.05.026-.1.026.026.127.05.025.1-.026zM7.381 5.977c-.05-.051 0 .28-.025.203-.025.305.276-.381.025-.203zM6.176 4.781L6.226 5.036 6.277 4.807zM6.955 4.883l-.151-.05c0 .05 0 .076-.025.101.075 0 .2.05.176-.05zM6.754 4.934c-.05 0-.1 0-.126.05.05 0 .1-.025.126-.05zM6.377 4.654L6.427 4.705 6.528 4.73zM8.612 4.756l.15-.102c0-.102-.05-.152-.1-.102-.025.077-.076.128-.05.204zM8.034 4.044c.05.05.05.127.1.203l-.025-.356-.075.153zM8.511 3.917c0-.102.226-.306 0-.255 0 .102-.15.204 0 .255zM11.097 4.095L11.072 4.095 11.122 4.654zM13.206 2.492c-.226-.101 0 .356-.2.204-.026.127.15.127.125.254.1-.178.176-.102.075-.458zM13.106 2.925c-.025.025-.025.05-.05.102.05-.051.05-.077.05-.102zM38.664 2.62L38.815 2.721 38.689 2.543zM38.865 2.162l.076.356.05-.33c-.05.025-.1.076-.126-.026zM20.99 1.195v.077c.024.101.05.101.125.101l-.126-.178zM22.772 1.272L22.747 1.272 22.822 1.577zM24.178.687c-.05 0-.126.076-.176.076.126-.076.251.33.176-.076z"
            transform="translate(83.47 178.06)"/>
        </g>
        <g fill="#EFAA3A">
          <path
            d="M.302 18.187c-.05 0 .075.203.1.254.025-.102-.125-.305-.1-.254zM.754 17.321L.78 17.397.78 17.142zM1.433 16.939c-.251-.306-.2.203-.402.127l-.075-.077.1.306c.126-.102.226-.407.377-.356zM2.213 17.499c-.1-.127.025-.153-.1 0 .024 0 .024.025.024.025s.026-.025.076-.025zM2.137 17.524c-.075.051.1.077 0 0zM2.414 17.27l-.025.178c.075.076.15.05.15.127.076-.153 0-.203-.125-.305zM2.364 16.964l-.025.076c.025.026.05.026.025-.076zM2.288 17.193l.05-.178c-.05-.051-.1-.153-.025.076-.05-.102 0 0-.025.102zM2.213 17.193c-.1-.05-.176-.05-.151-.229-.15.127 0 .357.15.23zM1.257 16.556l-.125-.05v.152c0-.076.2 0 .125-.102zM3.093 17.117c-.025-.077-.151-.178-.201-.28l-.025.127c.075.025.15.051.226.153zM2.892 16.837l.025-.179c-.1.026-.076.102-.025.179zM2.163 16.556L2.137 16.913 2.188 16.531zM3.495 16.913L3.52 17.117 3.495 16.786zM3.747 16.735c.025.178.2.204.2.33.051-.076.051-.228.051-.356-.05.077-.126.102-.251.026zM3.973 16.48v.204c.025-.051.025-.102 0-.204zM3.118 16.607c.025.051.1.153.201.179l-.15-.179c-.026-.025-.026-.025-.051 0zM3.168 16.582c.05-.026.076-.026.1-.026-.024-.025-.05 0-.1.026zM3.118 16.607c0-.025-.025-.025 0 0zM2.54 16.607c0-.152.05-.356-.176-.458.05.153.176.23.176.458zM2.917 16.378l-.126.026c.025.05.1.127.1.203l.026-.229zM2.942 16.276L2.917 16.378 2.967 16.353zM3.671 16.378c0-.127.05-.153.1-.204-.075 0-.15 0-.225.051.025.077.075.204.125.153zM3.42 16.455c-.025-.026-.025-.026 0 0zM4.35 15.869l-.025-.026.025.026z"
            transform="translate(82.679 165.004)"/>
          <path
            d="M3.52 16.2c-.075-.026-.075.05-.05.127.025-.05.05-.076.1-.102-.024-.025-.05-.05-.05-.025zM4.074 16.276l-.151-.076c.075.076.176.153.15.076zM3.47 16.48s0 .026 0 0c.05.051.025.026 0 0zM3.47 16.48v-.153c-.025.026-.025.077-.05.102.025.026.025.051.05.051zM3.797 14.417c.1.204.075.458-.15.306-.026.203.401.815.678 1.12-.05-.076-.075-.153-.05-.33-.1-.077-.377-.103-.377-.332.1-.178.15 0 .276.076-.201-.203 0-.458-.226-.79l-.05.205c-.05-.102-.05-.23-.101-.255zM4.099 15.92l-.025.05c.075 0 .15.052.301.179.025-.127 0-.23-.025-.28l-.226.102-.025-.051zM3.872 16.073c-.075-.23-.025-.383-.226-.56-.126.076 0 .228-.025.356.201-.153.025.153.251.204l-.1.101c.05 0 .1.026.15.026l-.024-.026c0-.025 0-.05-.026-.101.076 0 .05.05.026.076 0 0 0 .025.025.025l.15-.229c-.05.026-.1.051-.2.128zM2.238 15.614c.025.025.025.025.025.051 0-.026 0-.051-.025-.051z"
            transform="translate(82.679 165.004)"/>
          <path
            d="M2.389 15.69c0 .026.025.128-.025.128-.076-.051-.05-.102-.1-.179 0 .077-.026.204.125.255v-.025c.126.025.377.229.377.254-.126-.152-.226-.28-.377-.433zM3.118 15.843l.126-.204-.201-.127.075.102c-.126 0-.05.127 0 .23zM4.426 15.945L4.526 16.2 4.451 15.818zM4.652 15.792L4.752 15.996 4.727 15.843zM16.194 6.139l.025-.077c-.025.026-.025.051-.025.077zM15.816 6.342l.05.102c-.024-.076-.024-.127-.05-.102zM10.234 12.608c.176.128.403.382.277.153l-.151-.204c-.025.077-.076.077-.126.051zM13.377 9.195c-.025-.025-.05-.025-.05-.05.025.076.05.152.05.229v-.179zM12.95 8.278l.176.077c-.05-.026-.126-.051-.176-.077zM18.105 4.763l-.05-.255c-.101.051 0 .153.05.255zM6.94 14.391c.1.051.176.051.226.026-.15-.051-.301-.204-.226-.026zM17.3 8.482c0-.05 0-.102-.025-.153-.025.051-.025.102.025.153zM7.368 14.34c-.026-.025-.05-.025-.05-.025-.026.05-.051.127-.126.127.075.051.176.077.176-.102zM25.598.764s.025 0 .025.026c0-.026 0-.026-.025-.026zM28.942 1.707l-.075.076c.025 0 .05-.025.075-.076zM5.607 15.385c-.025.025 0 .025 0 0zM4.903 14.672c0-.026 0-.077-.025-.102.025.025.025.076.025.102zM7.116 12.736c-.05-.026-.025-.026 0 0zM5.482 15.308c.025.026.075.026.1.026-.025 0-.05 0-.1-.026zM5.557 15.41h-.05c0 .051.025.051.05 0zM5.683 15.334c-.025.025-.05.025-.1.025.024 0 .024.026.024.026.026-.026.026-.051.076-.051zM21.952 3.566s.025 0 0 0c.025-.102 0-.076 0 0zM10.36 9.45c.075.306 0 .306-.076.28l.403.586-.327-.866z"
            transform="translate(82.679 165.004)"/>
          <path
            d="M17.049 5.578l-.227-.127c-.025-.408.151-.357-.125-.56.352.687-.428.33-.101 1.018l-.15-.102c.024 0 0-.05.024-.05-.327-.23.151.534-.1.56-.1 0-.202-.076-.202-.178l-.075.254c-.05.026-.1-.102-.05-.127l-.201.178V6.42c.025.127.025.33.025.407-.1-.05 0-.076-.076-.152l-.05.229c-.15-.153-.126-.382-.025-.408-.478-.586-.025.23-.503 0l.075-.153c-.276-.33-.301-.152-.578-.305.1.102.604.433.553.687-.075-.025-.125-.025-.125.153-.126-.229-.176-.127-.252-.076l-.176-.306c-.05.153.05.306.05.484-.125.026-.276-.204-.427-.382-.201.051.352.331.15.51-.226-.026-.25.152-.326.433-.176-.051-.076-.204-.176-.28l.05.305c-.025 0-.05-.076-.075-.127-.025.153.176.305.075.484.151.356-.528-.357-.478.127-.075-.076-.075-.204-.176-.306-.075.382-.075.28-.05.739l-.251-.127c.226.178.251.535.251.84.1.102.201.179.226.204l-.1.28c-.05-.05-.1-.153-.126-.305v.101c-.126-.076-.201-.28-.251-.484.05.051.125.102.176.153-.05-.229-.126-.458-.227-.637 0 .051 0 .077-.025.128-.025-.051-.025-.102-.05-.128-.025-.025 0 .051 0 .153l-.226-.33.075.152-.377-.076c0 .458.126 1.07-.076 1.375-.075-.306-.226-.433-.377-.739.252.28.151-.254.327-.28-.1 0-.15-.153-.176-.204l-.1.433c-.126-.254-.151-.152-.277-.229.327.459-.025.433-.05.662-.101-.152-.176-.356 0-.382-.352-.28.125.688-.176.459.025-.026.05 0 .025-.102 0 .178-.252.178-.277 0l.025-.025c-.251.05-.653.356-.452.79-.025-.052-.252-.51-.277-.612l.377 1.63c-.15-.382-.754-1.146-.704-1.452-.075-.025-.176-.05-.201.153.075.025.377.458.352.535-.352-.331-.201-.153-.553-.408.1.051.352.637.251.663-.025-.102-.301-.56-.301-.637l.1.662c0-.127-.251-.484-.377-.611.075.102-.176.102-.201.178l.15.076c-.276.051.202.917-.05.994-.025-.128-.327-.739-.477-.739.1.306.503 1.503.427 1.834l-.126-.127-.05.28c-.126-.484-.352-1.528-.402-1.961-.151-.077-.126-.179-.252-.077-.125-.127-.05-.28-.025-.305l-.352.076c.201.331-.05.458.1.739l.152-.535c.2.33.326 1.044.075 1.095-.126-.102-.277-.611-.352-.713.025.127-.075.33-.15.255v-.23c-.177-.05.05.535-.278.306-.05 0-.377-.331-.276-.153.276.331.93 1.477 1.056 1.809-.025-.026-.453-.204-.629-.357-.251-.255-.251-.764-.477-.993.05.101.05.229.075.28-.1-.051-.126-.28-.226-.179.176.357-.252.102.1.306-.05.153-.15 0-.276.077.15.203.276.79.226.967-.05-.076-.126-.178-.176-.229-.251.102-.453.026-.654.128-.075-.077-.226-.102-.251-.28 0 .076.025.203-.025.254-.277-.23.125-.127-.176-.407.1.203-.026.356-.05.534.2.28.25-.05.276-.229.226.408.302.943.176 1.248-.126.204-.226-.229-.226-.153-.378.102.125.892-.327.74-.252-.205-.302-.51-.428-.689.1-.178.302.051.403-.025l-.176-.051c0-.102.05-.23.15-.178-.226-.179-.578.28-.955.203 0 .102-.025.255.075.332l.05-.077c.202.179 0 .382.177.433-.025.204-.025.51-.227.484l-.2-.28c.05.076.2.127.2 0 0 .178-.452-.28-.301.153l.226.153c-.025.203.025.611-.176.585.226.255 0-.05.302.23-.327-.382.352-.179-.026-.56.327.356.277.076.579.356-.05-.102-.151-.153 0-.178 0-.026-.025-.077-.025-.102h-.025c0-.026 0-.026 0 0-.05-.026-.101-.077-.151-.128-.076-.254.125-.356.1-.509.1 0 .025.127.126.204v-.23c.126.204.377.255.302.484l.15-.076c.151.076.302.051.327-.076.101 0 .026-.331.076-.128l.15-.254.026.05c.226-.101.251-.61.73-.356.05-.102.075-.204.25-.204l.126.178c.05-.127.403.026.327-.203.377.458.528-.153.73-.153l-.126-.255c.125-.05.2-.178.276-.356l-.125-.204c.025-.255.402-.026.578-.153.025.102-.025.102-.1.076.502.357.301-.636.703-.407 0-.102.05-.102.126-.077v.026h.025c.05.025.1.05.126.076-.05-.05-.1-.076-.126-.076.05-.026.076-.102.126-.178l.15.229v-.026c.101.051-.024-.127-.15-.305v-.179c.251.357.1-.229.377.153-.075-.229.227-.33.025-.764.026.051.076.076.026.102.1 0 .176.025.176-.127l.2.28-.075-.484c.201.127.277.23.327.51.025-.485.1-.23.1-.688l.101.203c.05-.05.025-.356.151-.229.352.28.755-.357 1.308-.23-.377-.534.327.154.075-.305.1.127.201.178.201.331.126-.229.403.051.327-.407.1.127.076.229.126.28 0-.026 0-.153.05-.077.076.077.025.128.025.204.176-.127-.025-.56-.226-.968.201.128.226.077.176-.229.1.102.226.204.151.331.075-.025.528-.05.352-.356.075.076.1-.026.1-.077.151-.076.202-.05.327-.153l-.075-.025c-.15-.408.075-.153.176-.28l.025.05c.428.128.05-.203.503-.05l-.15-.23c-.252-.509.402.153.452-.127l-.126-.102c0-.229.629.56.754.56.05.026 0 .077 0 .128.403.178-.15-.331 0-.484.126.153.202.433.327.408.126.101.026-.74.378-.484-.101-.102-.202-.23-.176-.357.1-.102.603.306.477-.178l.076.076c.025-.153.2-.331.15-.586.529.764.353-.713.78.026l.252-.204.025.076c.2-.05.176-.28.15-.484.076.026.076.102.101.153.352 0 .352-.05.377-.535l.151.23c-.025-.179.604.152.704-.255 0 .025.025.076.025.127.126-.458 1.082.28.705-.662l.075-.331c-.277.076-.176-.408-.352-.484.075-.102.402.127.302.23l-.05-.026c.2.484.402 0 .578.305.477-.305 1.106-.305 1.584-.56l-.252-.331.176-.077c.101.051.202.255.076.306.176.178.1-.28.05-.357.302.026.151.459.226.433l.076-.076-.05-.025c0-.179-.076-.357.075-.408.126.026.176.204.201.178.025.026.025.026.05-.025l.227-.077-.226-.229c.025-.178.2-.102-.076-.356.402.407.855-.255 1.031-.153 0-.28.15-.357.302-.408-.076-.025-.277-.33-.126-.382.302.688.402.153.78.56-.277-.254.326-.28-.05-.662.15 0 .15.255.301.357.126-.408.679-.153.956-.433-.05-.077-.176-.178-.176-.357l.402.331c.05-.076-.226-.534.075-.305-.05-.051-.15-.153-.125-.204.88.05 1.106-1.07 2.187-.662-.176-.128-.126-.179-.075-.204-.076-.026-.126-.204-.201-.331l.452.178c-.125-.356.277-.178.126-.51l-.05.103C29.093.84 28.565.56 28.314.076c.1.484-.68-.433-.553.28-.101-.076-.05-.178-.126-.28.05.23.025.306-.151.28l-.025-.05c-.302.229-.553.127-1.006.203l.15.23c-.1.025-.15-.051-.225-.077.1.408.226-.102.377.331-.377-.407-.579.306-.93-.178-.126.077.175.255.05.306l-.101-.128.075.204c-.1.026-.251-.153-.301-.255.025 0 .025-.076.05-.076-.201-.102-.277.23-.327.204l.176.025c-.276.331-.78.382-.955.84l.075.103c-.15.356-.277 0-.503.229v-.026c0 .153-.05.23-.126.255 0-.178-.276-.178-.251-.356-.15.382-.05.254 0 .764l-.15-.153c.024.204.075.28-.051.407.025-.229-.252-.229-.227-.509-.502-.23-.2.637-.653.127.15.586.402.128.377.28.15.128.1.434-.025.434-.1.05-.503-.56-.73-.408.026 0 0-.05.026-.05-.151-.077-.076.28-.302.126.1.332-.15.051.05.459l.151-.204c-.075.178.076.688-.251.586-.026-.076-.026-.23-.026-.306-.125-.076-.075.128-.2.051-.202-.407.2-.229.175-.611-.15-.127-.1.408-.251-.051.201.586-.277.051-.201.56l-.126-.229c0 .051 0 .178-.05.204l-.076-.357c.025.331-.377-.076-.402.128.251-.153.201.254.402.356-.15.484-.503-.51-.804-.203.025-.051.251.05.251.178-.1 0-.226-.051-.327-.153-.201.178.176.23.151.408-.226-.23-.05.178-.1.33l-.126-.229c-.352 0 .2.535-.151.484l-.076-.382-.075.153-.126-.28c-.025.28-.1.255-.276.255.125.153.226.433.1.51-.15-.103-.075-.256-.226-.128-.05-.179-.1-.382.1-.204-.025-.076-.05-.178-.075-.255-.176-.102-.226.077-.302.128.026 0 .076 0 .1.025l-.05.459c-.075-.077-.1-.153-.1-.255-.025.05 0 .178-.075.255-.076-.204-.202-.408-.151-.535l-.126.33c-.05-.076-.251-.152-.251-.254-.202-.05-.101.56-.352.484 0 .051.025.076 0 .127-.176.051-.453-.101-.503.255l-.302-.28c-.1.153.377.357.201.611-.126.204-.226-.254-.352-.33 0 .228.05.661-.251.458.075-.102.15-.077.176-.128zM15.314 6.75c0-.076 0-.255.1-.127.1.28 0 .178-.1.127zm-2.465 2.14c-.025-.102.05-.077.151-.026-.025.051-.075.051-.15.026zm-6.814 5.985c.126.051.075.026 0 0zm-.226 0c0 .051.025.077.05.102-.025-.076.025-.102.075-.102-.05-.05-.1-.076-.125 0zm17.526-10.01l-.076-.05c.05-.103.076-.026.076.05z"
            transform="translate(82.679 165.004)"/>
          <path
            d="M13 8.38c.025.026.05.077.076.127 0-.05-.026-.101-.076-.127zM18.13 4.814v-.05.05zM7.242 11.437c.05.025.1.05.126.076-.026-.05-.05-.102-.126-.076zM5.18 15.767l.075-.128c-.05.051-.1 0-.125-.025 0 .051.075.127.05.153zM3.445 14.799c0 .025-.025.025-.025.05l.075.103c.05-.026.05-.128-.05-.153zM4.652 15.028c-.126-.204-.151-.102-.201 0h.025c.1.28.15.128.176 0zM4.426 15.028c-.026.026-.05.051-.076.051.076.127.05 0 .076-.05zM5.683 15.13c-.076-.025.126.255.05.204.1.255.076-.459-.05-.204zM4.224 14.417L4.375 14.646 4.325 14.417zM4.903 14.264h-.15c.025.051.025.076.025.102.05-.026.176-.026.125-.102zM4.752 14.366c-.05.025-.075.05-.075.102.025-.026.075-.051.075-.102zM4.35 14.239L4.4 14.264 4.501 14.239zM6.186 13.602l.1-.153c-.025-.102-.1-.127-.125-.051 0 .076-.026.127.025.204zM5.431 13.143c.05.026.101.077.151.153l-.176-.306.025.153zM5.758 12.863c-.025-.102.05-.356-.1-.23.05.077-.05.23.1.23zM7.896 12.15L7.871 12.175 8.147 12.685zM8.952 10.01c-.227-.025.125.331-.076.255.025.127.176.051.201.178 0-.178.101-.127-.125-.433zM9.077 10.443v0zM29.445 1.758L29.596 1.808 29.445 1.681zM29.42 1.299l.201.306-.1-.331c0 .025-.05.076-.1.025zM14.685 6.266l.025.076c.05.077.075.077.15.051l-.175-.127zM16.143 5.757L16.118 5.757 16.319 6.011zM17.049 4.763c-.05.026-.076.102-.126.128.075-.128.352.229.126-.128z"
            transform="translate(82.679 165.004)"/>
        </g>
        <g fill="#EFAA3A">
          <path
            d="M29.916.277c.05 0-.05-.201-.05-.252-.077.076.075.302.05.252zM29.385 1.057L29.36.957 29.334 1.208zM28.703 1.31c.202.352.227-.152.404-.076l.05.075-.05-.327c-.152.126-.278.403-.404.327zM28.02.655c.076.125-.025.15.102 0-.026 0-.026-.026-.026-.026-.025.026-.025.026-.075.026z"
            transform="translate(47.073 185.577)"/>
          <path
            d="M28.096.63c.076-.026-.1-.101 0 0zM27.793.856l.05-.176c-.05-.076-.15-.076-.126-.126-.075.1-.025.176.076.302zM27.818 1.158l.026-.075c-.026-.026-.05-.05-.026.075zM27.894.932l-.05.15c.025.05.076.177.025-.05.025.1.025-.025.025-.1zM27.97.957c.076.05.177.075.126.251.177-.125.05-.377-.126-.251zM28.804 1.712l.1.075v-.15c.026.075-.15-.05-.1.075zM27.136.881c.026.076.101.202.152.302l.025-.126c-.05-.025-.126-.05-.177-.176zM27.288 1.183l-.05.176c.1-.025.1-.1.05-.176zM27.945 1.561L28.021 1.208 27.92 1.586zM26.732 1.032L26.732.831 26.732 1.133zM26.48 1.158c-.026-.176-.152-.226-.152-.352-.05.05-.076.201-.076.352.025-.075.101-.075.227 0zM26.227 1.36c.025-.05.025-.126.025-.202-.025.05-.025.126-.025.201zM27.06 1.385c-.025-.05-.1-.151-.176-.202l.126.202h.05zM27.01 1.41c-.05 0-.076.025-.101.025.025-.025.05-.025.1-.025zM27.06 1.385c0 .025 0 .025 0 0zM27.616 1.485c-.025.151-.075.328.101.479-.025-.177-.126-.277-.1-.479zM27.212 1.636h.126c-.025-.05-.075-.125-.075-.201l-.05.201zM27.187 1.737L27.212 1.636 27.187 1.636zM26.505 1.51c0 .126-.05.152-.101.177.075.025.151.025.227 0-.05-.076-.076-.227-.126-.176zM26.757 1.485c0 .026.026.026 0 0zM25.797 1.913l.025.026s0-.026-.025-.026z"
            transform="translate(47.073 185.577)"/>
          <path
            d="M26.63 1.712c.077.025.077-.05.077-.126-.026.025-.05.076-.101.076 0 .05.025.075.025.05zM26.1 1.536c.05.025.076.075.127.1-.05-.075-.127-.15-.127-.1zM26.707 1.435c-.026-.05-.026-.025 0 0zM26.707 1.435v.151c.025-.025.05-.05.05-.1-.025 0-.025-.026-.05-.051zM26.176 3.399c-.076-.202-.025-.453.177-.277.05-.202-.278-.831-.53-1.183.025.1.075.176 0 .327.075.1.353.176.328.377-.101.152-.152-.025-.253-.1.152.226-.05.453.152.805l.076-.176c.025.076 0 .176.05.227zM26.05 1.888l.025-.05c-.076-.025-.126-.076-.253-.227-.025.126-.025.202 0 .277l.228-.05v.05zM26.277 1.762c.05.227-.025.378.152.58.126-.076.025-.227.05-.353-.177.15.026-.126-.202-.227.05-.025.076-.05.101-.075-.05 0-.1-.025-.151-.05.025.025.025.05.025.025.025.05.025.075.025.1-.076-.025-.025-.05-.025-.1v-.026l-.177.202c.076.025.126 0 .202-.076zM27.793 2.467c-.025-.025-.025-.025-.025-.05 0 .025 0 .05.025.05zM27.642 2.367c0-.026-.026-.126.05-.126.076.05.05.1.076.176 0-.076.05-.202-.101-.277v.025c-.126-.05-.329-.277-.329-.302.101.201.177.327.304.504zM26.985 2.115l-.127.176.177.151-.05-.126c.1.025.025-.1 0-.201zM25.747 1.813L25.671 1.561 25.696 1.939zM25.519 1.913L25.443 1.712 25.443 1.863zM13.518 9.516l-.026.076c.026-.025.026-.05.026-.076zM13.897 9.39l-.026-.1c0 .05 0 .1.026.1zM19.885 4.154c-.152-.151-.354-.428-.253-.201l.101.226c.025-.075.076-.075.152-.025zM16.524 6.999c.026.025.026.05.05.05 0-.075-.024-.15-.024-.226-.026.05-.026.1-.026.176zM16.828 7.956l-.152-.101c.05.025.101.075.152.1zM11.547 10.574l.025.252c.101-.05.025-.151-.025-.252zM23.195 2.92c-.101-.05-.177-.075-.228-.075.152.1.278.277.228.075zM12.734 7.074c-.025.05 0 .101 0 .151.026-.025.026-.075 0-.15zM22.79 2.92l.051.05c.025-.05.076-.1.126-.125-.076-.076-.177-.1-.177.075zM4.017 13.293s-.025 0-.025-.025c0 .025 0 .025.025.025zM.935 11.858c.025-.025.05-.025.076-.05 0 0-.026 0-.076.05zM24.56 2.19c.05-.025 0-.025 0 0zM25.14 2.97c0 .026 0 .076.025.127-.025-.05-.025-.101-.025-.126zM22.841 4.506c.025.05.025.05 0 0zM24.66 2.266c-.025-.025-.05-.025-.1-.05.05.025.075.025.1.05zM24.61 2.165h.05c0-.05 0-.05-.05 0zM24.483 2.215c.026-.025.05-.025.076 0-.025 0-.025-.025-.025-.025s0 .025-.05.025zM7.782 11.128s-.025 0 0 0c-.025.1-.025.075 0 0zM19.506 6.974c0-.025 0-.025 0 0zM19.405 7.2c-.026-.302.025-.302.1-.251l-.302-.63.202.881z"
            transform="translate(47.073 185.577)"/>
          <path
            d="M12.633 9.944l.202.152c-.025.377-.176.327.05.553-.252-.705.456-.251.203-.956l.152.126c-.026 0-.026.05-.05.05.277.277-.077-.554.15-.529.102.025.178.101.178.202l.1-.227c.051 0 .076.126.026.126l.227-.151v-.378c.101.076 0 .076.05.176l.077-.226c.126.151.075.378-.026.378.405.654.05-.227.48.075l-.1.126c.227.378.277.176.53.378-.076-.126-.53-.504-.455-.756.05.025.127.05.152-.126.1.252.151.151.252.101l.127.327c.076-.125 0-.302 0-.478.126 0 .252.227.354.428.202-.025-.278-.352-.102-.503.203.075.253-.101.354-.378.152.075.05.201.127.277v-.302c.025 0 .05.075.05.126.05-.126-.126-.328-.025-.479-.101-.377.455.428.455-.05.075.075.05.201.126.327.101-.352.101-.277.126-.705l.228.151c-.202-.201-.177-.554-.152-.83-.076-.101-.152-.202-.202-.227l.126-.252c.05.05.076.176.101.327v-.1c.127.1.152.302.177.503-.05-.05-.1-.126-.151-.176.025.227.075.453.151.655 0-.05 0-.076.025-.126 0 .05.026.1.051.15.025.026 0-.05 0-.15l.177.352-.05-.15.353.125c.05-.453-.025-1.057.227-1.31.026.303.152.454.278.781-.202-.302-.176.227-.353.227.1 0 .126.176.126.227l.152-.403c.1.251.126.176.252.251-.252-.503.076-.428.101-.629.076.176.127.353-.025.378.303.327-.05-.68.227-.403-.025.025-.05 0-.025.1.025-.176.253-.125.278.026l-.025.025c.253-.025.657-.252.53-.705.026.05.177.529.203.63L19 5.437c.127.403.607 1.234.506 1.51.076.026.151.076.227-.1-.05-.05-.303-.504-.278-.554.303.378.177.201.48.478-.075-.05-.252-.68-.177-.68.026.101.228.58.228.655l-.025-.654c0 .125.176.503.303.654-.076-.1.177-.05.227-.15l-.151-.102c.278 0-.101-.906.151-.956.025.126.228.755.38.805-.051-.327-.33-1.535-.203-1.838l.101.152.076-.252c.076.478.177 1.536.152 1.963.151.101.1.202.227.126.101.151.025.277 0 .302l.354-.025c-.152-.352.1-.428-.026-.73l-.202.479c-.151-.353-.202-1.058.05-1.083.102.126.203.63.253.755-.025-.126.127-.302.177-.226l-.025.226c.177.076.025-.528.303-.251.05 0 .329.377.253.176-.228-.353-.733-1.586-.809-1.914.026.026.405.277.556.454.202.276.177.78.354 1.032-.025-.101-.025-.227-.025-.277.075.05.1.302.202.226-.127-.352.252-.05-.05-.327.075-.15.15.025.277-.05-.126-.202-.177-.831-.1-.957.024.1.1.201.125.252.253-.05.43.05.632-.025.05.075.202.15.202.302 0-.076 0-.202.05-.227.253.252-.126.1.102.428-.076-.201.05-.352.101-.503-.152-.302-.253.025-.278.176-.177-.428-.177-.957-.05-1.234.126-.176.176.252.202.177.353-.05-.026-.882.379-.655.227.227.227.554.328.73-.101.151-.303-.1-.379-.05l.177.075c0 .1-.076.227-.152.151.202.202.581-.176.935-.05 0-.1.05-.227-.025-.327l-.076.075c-.151-.201.025-.377-.1-.428.05-.201.075-.503.277-.428l.152.302c-.05-.1-.177-.15-.177-.025 0-.176.404.327.303-.1l-.202-.177c.05-.201.05-.579.227-.554-.177-.277-.025.05-.252-.277.252.428-.354.126-.026.554-.278-.377-.252-.126-.505-.428.05.1.126.176 0 .176v.101c0 .025 0 .025 0 0 .05.025.101.076.126.126.026.252-.151.327-.151.478-.076-.025-.026-.125-.101-.226l-.026.226c-.1-.226-.328-.327-.227-.503l-.152.05c-.126-.1-.278-.1-.303.025-.076-.025-.076.328-.076.126l-.177.227-.025-.05c-.227.05-.303.553-.733.251-.05.076-.1.202-.252.177l-.101-.202c-.076.1-.38-.1-.329.126-.303-.504-.505.076-.707.025l.1.277c-.125.025-.201.151-.302.302l.1.227c-.05.226-.378-.05-.58.05-.026-.1.025-.1.1-.05-.429-.428-.353.579-.707.277-.025.1-.076.1-.126.05V4.28h-.025c-.05-.025-.076-.076-.127-.1l.101.1c-.05.025-.1.075-.126.151l-.126-.227c-.101-.075 0 .126.1.302-.024.05-.024.101-.024.177-.203-.378-.102.201-.354-.202.05.227-.253.277-.101.73-.026-.05-.05-.075-.026-.1-.075-.025-.176-.05-.176.1l-.152-.302.025.479c-.177-.151-.252-.252-.252-.53-.076.454-.127.202-.152.656l-.076-.202c-.05.025-.05.353-.177.202-.303-.328-.758.226-1.263.025.303.579-.278-.202-.101.277-.076-.126-.152-.202-.152-.353-.126.227-.379-.1-.353.327-.076-.125-.05-.226-.101-.302 0 .026-.026.151-.076.076-.05-.076-.026-.126 0-.202-.177.101-.026.554.1.957-.176-.15-.227-.1-.176.202-.076-.126-.202-.252-.101-.328-.076 0-.505-.025-.38.302-.05-.075-.1.026-.1.05-.152.051-.177.026-.329.101l.076.026c.101.428-.1.125-.202.226v-.05c-.404-.176-.076.176-.48-.025l.101.251c.177.554-.379-.226-.455.05l.101.127c-.025.226-.53-.63-.631-.655-.026-.05 0-.075.025-.126-.354-.226.1.327-.05.479-.102-.152-.127-.454-.253-.454-.101-.126-.101.705-.405.428.076.126.177.252.127.378-.101.1-.53-.378-.48.076-.026-.026-.05-.076-.076-.101-.05.15-.228.302-.202.554-.43-.831-.43.654-.733-.151l-.278.15-.025-.075c-.202.025-.202.227-.177.453-.076-.025-.05-.126-.076-.176-.328-.05-.354 0-.404.478l-.126-.251c0 .176-.556-.252-.683.15 0-.024-.025-.075-.025-.125-.177.428-.985-.428-.733.529l-.1.302c.277-.026.126.428.277.528-.076.101-.379-.176-.252-.277l.025.05c-.152-.503-.38-.05-.506-.377-.48.227-1.086.126-1.566.302l.202.353-.177.05c-.076-.075-.177-.277-.05-.302-.152-.201-.127.252-.101.327-.278-.075-.076-.478-.152-.453l-.076.076.05.025c-.024.176.051.352-.1.377-.127-.05-.127-.226-.177-.226 0-.025-.025-.025-.05 0l-.228.05.202.277c-.025.176-.202.05.025.353-.353-.479-.833.1-.985-.026-.05.277-.177.303-.329.353.051.05.228.378.076.378-.227-.705-.353-.202-.657-.655.228.302-.353.227-.025.63-.126 0-.101-.252-.253-.378-.151.377-.657.05-.96.277.026.1.152.201.127.377l-.354-.377c-.05.075.151.553-.101.277.05.075.126.176.076.226-.809-.201-1.188.881-2.148.302.152.151.101.176.05.227.051.025.076.226.152.352l-.404-.226c.076.352-.278.126-.177.478l.076-.1c.025.427.505.805.682 1.283-.05-.478.606.529.556-.201.076.075.025.176.1.277-.024-.227.026-.302.178-.252v.05c.328-.176.556-.025.985-.05l-.126-.226c.1 0 .151.075.202.125-.05-.402-.227.076-.303-.377.303.453.58-.227.884.327.126-.05-.152-.277-.025-.302l.1.151-.05-.201c.101 0 .202.176.278.302-.025 0-.05.05-.05.075.177.151.278-.176.328-.126l-.151-.05c.278-.277.783-.227.985-.68l-.076-.1c.177-.303.253.05.48-.152v.026c0-.126.05-.227.152-.252-.025.15.227.201.202.403.177-.328.076-.227.076-.73l.126.176c0-.202-.025-.302.076-.403-.05.201.202.252.152.529.454.302.277-.58.631-.025-.076-.58-.379-.202-.328-.328-.127-.15-.05-.428.076-.428.1-.025.429.63.656.504-.025 0 0 .05-.025.05.152.1.101-.252.303-.075-.075-.353.152-.026 0-.454l-.177.177c.076-.151 0-.68.304-.529.025.1 0 .227-.026.302.101.1.076-.126.203-.025.151.428-.228.201-.228.554.126.15.126-.403.228.075-.127-.604.252-.025.252-.503l.076.252c0-.05.025-.177.076-.202l.05.353c.026-.328.329.15.405-.05-.253.1-.177-.278-.354-.404.177-.453.43.58.733.303-.026.05-.228-.076-.203-.227.076.025.203.075.304.201.227-.15-.127-.226-.101-.428.202.277.075-.176.126-.302l.101.252c.328.05-.126-.554.177-.453l.025.378.101-.126.076.302c.05-.252.126-.227.278-.202-.101-.15-.152-.453-.05-.503.151.126.05.252.202.15.025.177.05.379-.102.177.026.076.026.176.051.252.152.126.227-.05.303-.076-.025 0-.05 0-.1-.025l.1-.453c.076.076.076.176.076.252.05-.05.025-.176.101-.227.05.202.152.428.076.554l.151-.327c.051.075.203.201.203.277.176.075.151-.529.404-.428 0-.05 0-.076.025-.126.177-.025.43.176.505-.176l.253.327c.126-.151-.328-.403-.126-.63.126-.176.177.277.278.353.025-.227.025-.655.303-.428-.152.05-.202.025-.253.075zm1.794-.88c-.025.075-.025.251-.1.125-.077-.302 0-.176.1-.126zm2.552-1.687c0 .1-.05.075-.126 0 .025-.05.076-.05.126 0zm7.125-4.784s0 .025 0 0c-.126-.05-.076-.025 0 0zm.202.05c0-.05 0-.075-.025-.1.025.075-.025.075-.076.075.05.076.076.101.101.025zm-17.711 7l.05.05c-.025.1-.05.05-.05-.05z"
            transform="translate(47.073 185.577)"/>
          <path
            d="M16.802 7.83c-.025-.05-.05-.076-.076-.126 0 .05.026.1.076.126zM11.547 10.524v.05-.05zM22.588 5.765c-.05-.025-.076-.05-.126-.1.025.05.05.1.126.1zM25.014 1.888l-.076.1c.05-.024.076.026.126.051-.025-.075-.075-.15-.05-.15zM26.555 3.071c0-.025.025-.025.025-.05l-.05-.126c-.076.025-.076.151.025.176zM25.443 2.669c.101.201.127.1.177.05h-.025c-.076-.302-.101-.176-.152-.05zM25.646 2.694c.025-.025.05-.025.075-.025-.05-.126-.05-.026-.075.025zM24.458 2.417c.05.05-.076-.277-.025-.202-.05-.276-.101.428.025.202zM25.772 3.348L25.646 3.097 25.696 3.323zM25.115 3.374l.152.025c-.026-.05-.026-.076 0-.101-.076.025-.177 0-.152.076zM25.267 3.298c.05 0 .075-.025.075-.075-.025 0-.075.025-.075.075zM25.646 3.474L25.595 3.449 25.494 3.449zM23.826 3.827l-.1.126c.025.1.075.125.1.075 0-.075.05-.126 0-.201zM24.483 4.38c-.05-.05-.076-.1-.126-.176l.126.328V4.38zM24.13 4.607c.025.1-.076.327.075.252-.025-.1.076-.227-.075-.252zM22.032 4.96L22.058 4.934 21.856 4.406zM20.82 6.873c.202.076-.101-.327.1-.227-.025-.125-.15-.075-.176-.201-.025.151-.101.1.076.428zM20.744 6.445c0-.025 0-.05.025-.1-.025.05-.025.075-.025.1zM.48 11.732L.328 11.656.455 11.807zM.43 12.185l-.152-.327.05.327c.026-.025.076-.075.102 0zM14.958 9.642l-.025-.075c-.051-.076-.076-.076-.127-.076l.152.151zM13.518 9.894L13.543 9.894 13.391 9.617zM12.557 10.725c.051 0 .076-.1.127-.1-.076.1-.303-.278-.127.1z"
            transform="translate(47.073 185.577)"/>
        </g>
        <path fill="#FFE3BD"
              d="M57.595 182.714c1.844-1.894 1.408-3.863 3.3-3.863s3.13 1.446 4.076 3.065c.946 1.62-.461 2.268-2.524 3.066-2.013.797-6.113-.972-4.852-2.268zM41.538 184.657c-.076-1.876 1.013-2.64 2.38-2.64s2.253.986 2.937 2.097c.683 1.11-.33 1.53-1.798 2.098-1.494.518-3.469-.32-3.52-1.555zM58.548 176.656c-.049-1.529.735-2.157 1.691-2.157.956 0 1.618.82 2.108 1.72.49.901-.245 1.256-1.3 1.72-1.053.41-2.474-.273-2.499-1.283zM71.208 199.773c-.05-1.36.644-1.932 1.535-1.932.867 0 1.461.708 1.882 1.524.446.79-.223 1.116-1.164 1.524-.94.381-2.203-.218-2.253-1.116z"/>
        <g fill="#C98B2A">
          <path
            d="M20.854 8.397c.679 3.559.478 7.97 1.132 11.554.83 4.311 1.182 8.998 1.534 13.36-.252.024-.654-.327-.755.05-.276 1.478-.78 1.503-1.257 1.553-.252.025-.076-1.077-.302-.701-.076-1.078-.352-2.883-.503-1.78-.227.376.125 1.805-.202 2.206-.352.4-.78-.301-1.132.075.026.35.076 1.078.101 1.454-.226.376-.78-.301-.755.05-.176 1.103.076 2.531.176 3.985-.251.025-.477.401-.654-.326-1.207-12.657-2.716-25.64-3.295-38.323.025-1.454.604-.401 1.057.652-.151-.351.226-.376.075-.727.377-.025 1.057.651 1.283 2.08l-.075-1.078c.1-.376.377-.025.628-.05.026.351.05.727.177.727.125 0 .377-.025.503-.05-.026-.35-.076-1.078-.101-1.454.025.351.05.727.176.702.126 0 .377-.025.503-.05.176.727 0 1.83.201 2.531l.378-.025c.075-.727-.126-1.804-.201-2.531.15.35.276.35.528.326.201 1.077-.076 2.18.377 3.258l-.075-1.078c.629.677.251 2.532.478 3.61z"
            transform="translate(37.974 83.11)"/>
          <path
            d="M15.772 28.623c-2.34.226-4.93.226-7.546.226H5.71c-.578 0-1.157 0-1.735.025h-.227c-.075 0-.1-.025-.15-.05l-.303-.1-.603-.201c-.403-.15-.805-.276-1.208-.426l-.075-.025c-.025-.025-.025-.05-.05-.075l-.101-.15c-.076-.1-.126-.201-.201-.301-.126-.201-.227-.401-.328-.627-.402-.852-.603-1.78-.578-2.632 0-.25.05-.526.1-.777.05-.276.202-.551.302-.827.101-.276.227-.576.327-.852l.428-.777c.453-.802.88-1.604 1.333-2.406.73-1.279 1.484-2.557 2.24-3.81 1.534-2.531 3.143-5.013 4.678-7.394.201.125.277.727.629.401 1.333-1.378 1.76-1.103 2.188-.827.202.125-.78 1.178-.302.927-.78 1.178-1.936 3.234-.955 2.18.477-.25 1.282-1.98 1.861-2.18.579-.2.377.802.956.602.251-.401.78-1.178 1.031-1.58.478-.25.378.803.63.402.98-1.053 1.886-2.707 2.917-4.286.201.125.68-.125.277.727-2.189 3.509-4.377 7.018-6.566 10.577-1.081 1.78-2.188 3.559-3.27 5.339l-1.61 2.656-.352.577-.1.175-.05.075c-.026.026 0 0 0 .026.024.025.075 0 .05-.026 1.911-.025 3.848-.05 5.76-.1 4.176-.05 8.352-.05 12.477 0 1.887.1.478.627-.93 1.003.477-.126.477.25.955.125 0 .376-.93 1.003-2.817 1.153l1.408-.025c.478.125 0 .376 0 .627-.478 0-.955 0-.955.125v.501c.477 0 1.408-.025 1.886-.025-.478 0-.956 0-.956.125v.502c-.956.125-2.364-.1-3.32.025v.376c.956.125 2.364-.025 3.32-.025-.478.125-.478.25-.478.501-1.408.15-2.842-.226-4.25.175l1.408-.025c-.83.702-3.22.226-4.629.376zM83.263 8.923c.151 3.509-.679 7.695-.578 11.229.201 4.235-.151 8.797-.453 12.983-.252-.025-.604-.401-.755-.05-.478 1.378-.98 1.328-1.484 1.303-.251-.025.076-1.053-.201-.727.075-1.052.075-2.807-.252-1.78-.276.326-.125 1.755-.528 2.081-.402.326-.73-.401-1.132-.075l-.1 1.403c-.277.326-.73-.4-.755-.05-.327 1.028-.302 2.431-.403 3.835-.251-.025-.528.326-.603-.401.654-12.281 1.056-24.914 2.34-37.145.226-1.379.653-.3.955.777-.1-.351.277-.326.176-.702.377.025.956.777.981 2.18l.076-1.052c.15-.35.377.025.628.05-.025.351-.05.702.076.702s.377.025.503.025l.1-1.404c-.024.351-.05.702.076.702s.377.025.503.025c.076.702-.251 1.73-.176 2.457l.377.025c.177-.702.126-1.755.177-2.457.1.351.226.376.478.376.05 1.053-.403 2.08-.101 3.158l.075-1.052c.579.802-.05 2.531 0 3.584z"
            transform="translate(37.974 83.11)"/>
          <path
            d="M76.522 28.623c-2.34.226-4.956.226-7.572.226H64.574l-.076-.025c-.403-.15-.78-.301-1.183-.426-.377-.15-.78-.25-1.157-.451-.276-.376-.503-.777-.704-1.204-.377-.852-.528-1.78-.453-2.631.05-.25.05-.476.126-.752l.302-.802.15-.401.076-.2.126-.201.553-.827 1.585-2.407c.83-1.228 1.685-2.43 2.566-3.634 1.76-2.406 3.572-4.737 5.333-6.993.201.15.201.752.604.451 1.459-1.278 1.861-.952 2.263-.651.202.15-.88 1.128-.377.902-.88 1.128-2.239 3.083-1.157 2.105.478-.225 1.459-1.88 2.038-2.005.578-.15.301.827.905.702.302-.376.88-1.128 1.157-1.504.478-.225.302.827.604.451 1.082-.977 2.138-2.531 3.295-4.035.202.15.68-.075.202.752-2.516 3.308-5.006 6.642-7.497 10-1.232 1.68-2.49 3.36-3.723 5.038l-1.836 2.532-.402.551V23.235c.025.025.075 0 .05-.026l.73-.025 1.584-.025 3.145-.05c4.2-.05 8.376-.05 12.552 0 1.912.1.478.627-.93 1.003.477-.126.477.25.955.125 0 .376-.93 1.003-2.842 1.153l1.433-.025c.478.125 0 .376 0 .627-.478 0-.955 0-.955.125v.501c.477 0 1.433-.025 1.911-.025-.478 0-.956 0-.956.125v.502c-.955.125-2.364-.1-3.32.05v.376c.956.125 2.365-.025 3.32-.05-.478.125-.478.25-.478.501-1.433.15-2.842-.226-4.276.175l1.434-.025c-.93.702-3.32.226-4.73.376zM50.033 35.466c-.251.15-.528.3-.804.451-.277.15-.58.25-.856.376-.578.25-1.232.376-1.861.551-1.308.2-2.692.226-4.025-.125l-.503-.1-.478-.176c-.327-.125-.654-.225-.956-.35-.604-.301-1.207-.602-1.736-1.003-1.132-.727-2.037-1.654-2.867-2.632-1.585-1.98-2.667-4.186-3.396-6.416-.73-2.231-1.082-4.487-1.208-6.617-.176-2.582.05-5.264.83-7.895l.302-.978c.1-.326.252-.652.378-.977.251-.652.578-1.279.905-1.905.704-1.254 1.51-2.482 2.566-3.56 1.056-1.077 2.264-2.08 3.773-2.782C41.581.627 43.242.226 44.927.201c1.685.025 3.32.426 4.78 1.102 1.458.677 2.64 1.655 3.697 2.657-.176.176-1.107-.225-.528.526.277.376.528.702.704.978.176.3.302.576.428.802.226.451.302.802.327 1.053.025.501-.176.626-.402.752-.126.075-.428-.451-.73-.878-.302-.4-.553-.726-.402-.325-.353-.502-.856-1.003-1.359-1.48-.277-.225-.528-.425-.78-.626-.251-.2-.503-.326-.73-.476-.427-.276-.779-.401-.88-.401-.05 0-.025.05.05.125.101.075.252.2.479.401.125.176.402.376.73.652.301.3.704.602 1.03.952.68.702 1.233 1.53 1.309 1.93.05.426-.202.376-.478.326-.252-.05-.529-.075-.478.326.402.576 1.132 1.83 1.383 2.506.05.752-.956-.35-.704.301.075.25.15.501.251.777l.227.827c.1.276.176.577.226.878.076.3.151.601.227.927.276 1.278.427 2.682.452 4.085-.125 0-.251.2-.352.2-.05 0-.1-.05-.15-.2-.051-.125-.101-.35-.152-.676-.1-2.958-.955-5.915-2.465-8.272-.754-1.178-1.685-2.155-2.717-2.832-1.03-.651-2.087-1.027-3.17-.952-1.08.05-2.112.45-3.093 1.178-.981.727-1.862 1.754-2.54 2.957-1.384 2.407-2.089 5.364-2.089 8.322 0 1.478.151 2.957.478 4.36.327 1.43.83 2.758 1.51 3.961 1.333 2.406 3.395 4.21 5.383 4.311 1.006.1 2.012-.125 2.993-.677.981-.551 1.912-1.478 2.667-2.556 1.56-2.18 2.39-5.088 2.64-7.97.051-.677.127-1.053.202-1.204.076-.175.151-.1.252.126.075.225.176.576.251 1.027.1.451.1.978.151 1.504-.05-.702.327-.677.252-1.378.201 0 .427.376.553 1.127.025.176.076.401.1.627v.777c0 .551-.1 1.203-.25 1.93l.276-1.078c.1-.35.126-.727.201-1.103.252-.701.377.05.629.1-.075.377-.126.753-.176 1.028-.05.276-.076.476 0 .502.126.025.377.1.478.125.226-.752.478-2.331.528-3.108-.05.4-.075.777-.1 1.078-.026.3-.05.501.025.501.125.025.377.075.503.075-.076.802-.327 1.805-.654 2.757-.176.476-.327.953-.528 1.404-.202.451-.353.877-.504 1.253l.353.15c.2-.376.402-.802.603-1.253.202-.451.327-.952.503-1.454.277-1.002.504-2.005.63-2.832-.026.827.1.877.351.928-.1.626-.276 1.253-.452 1.854-.227.602-.428 1.203-.68 1.78-.251.576-.503 1.178-.804 1.754-.277.602-.58 1.153-.856 1.78.227-.376.478-.727.705-1.128l.603-1.153c-.125.902-.78 2.331-1.911 3.634-1.158 1.379-2.667 2.507-3.9 3.284z"
            transform="translate(37.974 83.11)"/>
        </g>
        <path fill="#638E10"
              d="M102.46 189.102s5.209-5.178 14.174-5.477c8.966-.299 17.08 2.017 17.08 2.017s-5.21 10.655-14.6 10.207c-10.018-.473-16.654-6.747-16.654-6.747zM108.79 179.43s4.464-3.366 12.87-6.48c8.406-3.113 15.614-6.759 15.614-6.759s-1.596 11.923-10.6 14.48c-9.628 2.709-17.884-1.24-17.884-1.24z"/>
        <g>
          <path fill="#C82C2F"
                d="M1.801 14.39L.025.05l15.911.322.8 3.598s.976 3.97-5.403 7.74C6.404 14.613 1.8 14.39 1.8 14.39z"
                transform="translate(34.017 161.048)"/>
          <path fill="#E84C4F" d="M15.986.248L.025.05l1.501 10.445S12.058 11.983 15.986.248z"
                transform="translate(34.017 161.048)"/>
          <path fill="#F4676E"
                d="M10.782 1.513C9.432.918 4.853.993 3.527.918 2.177.844.3.323.751.992c.475.695 1.05 4.02 1.425 5.583.376 1.563 3.828 1.712 6.205-.372 2.401-2.085 3.752-4.094 2.401-4.69zm-2.626 2.01c-.826 1.265-3.228 2.233-4.579 1.86-1.35-.371-.875-2.381-1.5-3.274-.676-.968 1.726-.447 3.602-.223 1.876.223 3.302.372 2.477 1.637z"
                transform="translate(34.017 161.048)"/>
        </g>
        <path fill="#567C01"
              d="M102.855 189.058s11.226.942 17.43.173c6.202-.768 13.033-3.322 13.033-3.322s-9.744-2.033-15.696-1.91c-6.404.125-10.422 2.158-14.767 5.059z"/>
      </g>
    </g>
  </g>
</svg>
