<svg xmlns="http://www.w3.org/2000/svg" width="260" height="223" viewBox="0 0 260 223">
  <g fill="none" fill-rule="evenodd">
    <g fill-rule="nonzero">
      <g transform="translate(-58 -202) translate(58 202)">
        <path fill="#BC0F31"
              d="M101.073 89.548s7.273 1.588 17.101.885c9.802-.703 17.205-2.265 17.205-2.265s1.382 2.968-3.18 6.82c-4.562 3.853-8.942 7.003-15.068 7.185-6.126.183-16.188-9.554-16.188-9.554l.13-3.071z"/>
        <path fill="#FFC648"
              d="M98.78 91.355s-23.684 6-36.81 18.84c-13.124 12.84 5.136 52.8 6 64.512.865 11.713-.288 46.537-.288 46.537h108.146s.865-34.248-.865-46.249c-1.702-12 6.838-29.112 8.567-38.256 1.703-9.145-4.846-19.993-4.27-25.68.576-5.712-2.28-11.136-15.405-15.119-13.125-4.009-25.962-5.712-25.962-5.712l-7.624 5.162c-7.65 5.162-17.657 5.214-25.333.079l-6.157-4.114z"/>
        <path fill="#FFA171"
              d="M105.65 82.431s.731 3.336-.158 5.819c-.889 2.456-4.549 4.784-4.549 4.784l10.275 5.379 7.347.879 14.537-6.232s-5.438-1.604-6.746-3.776c-1.333-2.172-1.176-8.12-1.176-8.12l-19.53 1.267z"/>
        <path fill="#F37E4E"
              d="M114.933 93.922c6.59.317 11.984-4.89 11.984-4.89s-1.355-.95-1.195-8.298c.16-7.347-14.377-1.454-14.377-1.454l-5.474 2.802s.16 2.194.106 3.594c-.026 1.375-.452 3.119-1.249 4.202-.77 1.031 4.57 3.78 10.205 4.044z"/>
        <path fill="#5E2D1E"
              d="M127.922 46.6s2.877.761 4.237 3.96c1.36 3.198 1.674 4.116 3.19 3.801 1.518-.314 2.878-1.52 2.276 0-.601 1.521-.445 4.117-3.034 5.48-2.589 1.363.916 11.248 3.034 12.165 2.118.918 2.72.446 3.348.446.601 0 .601 1.075-.916 3.644-1.517 2.596-4.106 3.802-5.466 4.562-1.36.76-1.961.76-2.432.158-.444-.603-1.961-1.678-1.674-.446.314 1.206-.314 2.124-2.275 2.727-1.961.603-6.983 1.363-9.258 1.363-2.275 0-16.084-3.959-16.084-3.959s-3.635-.157-5.152-.76c-1.517-.603-1.674-.446-1.83-1.678-.158-1.206 0-2.727-.76-1.836-.758.918-1.673.603-2.589.315-.915-.315-2.589-1.835-2.275-3.487.314-1.678.314-2.596 1.517-1.52 1.203 1.074 2.877 1.205 3.19-.158.315-1.363.445-5.322.445-5.322s.157-4.116.602-6.843c.444-2.727.758-5.768 1.83-7.603.367-.63 3.087-5.14 7.585-6.843 3.766-1.416 9.023-.105 12.946-.603 4.864-.577 9.545 2.438 9.545 2.438z"/>
        <path fill="#FFA171"
              d="M99.802 52.968s-2.696 6.808-.419 16.733c2.277 9.924 2.88 13.014 6.387 15.685 3.507 2.697 6.596 3.509 10.94 3.09 4.346-.419 8.063-4.137 9.921-7.018 1.858-2.88 3.507-5.577 3.507-10.946 0-5.368 1.23-8.877-.209-13.014-1.44-4.137-9.292-13.826-9.292-13.826l-20.835 9.296z"/>
        <path fill="#F37E4E"
              d="M99.706 53.9s5.273 2.64 10.966.419c5.692-2.22 8.473-7.472 8.473-7.472l3.463.13 4.722 5.121-4.434-7.315-10.834-.287-12.356 9.405z"/>
        <ellipse cx="97.026" cy="63.654" fill="#FFA171" rx="5.154" ry="5.562"/>
        <ellipse cx="96.82" cy="63.448" fill="#F37E4E" rx="2.886" ry="2.884"/>
        <ellipse cx="134.339" cy="65.302" fill="#FFA171" rx="5.772" ry="6.386"/>
        <ellipse cx="133.514" cy="65.714" fill="#F37E4E" rx="2.886" ry="3.09"/>
        <ellipse cx="106.921" cy="63.86" fill="#5E2D1E" rx="1.855" ry="2.472"/>
        <ellipse cx="120.115" cy="63.448" fill="#5E2D1E" rx="1.855" ry="2.472"/>
        <path fill="#5E2D1E"
              d="M105.168 57.474c.583-.278 1.471-.531 2.105-.405.635.152 1.726.203 1.878-.783.152-.987-.152-1.24-.888-.987s-1.522.43-2.208.531c-.685.102-.989.43-1.192 1.138-.178.708-.482.91.305.506zM117.706 55.38c-.406.63-.507 1.133.784 1.41 1.266.302 1.874-.554 2.558-.251.683.302 1.266.402.683-.353-.582-.73-1.316-1.082-2.101-.931-.81.176-1.697-.277-1.924.125zM118.247 44.943s-4.531 9.216-12.205 9.782c-7.673.567-9.114-2.394-9.716-4.376-.576-2.008-.576-4.866 1.467-6.874 2.042-2.008 2.619-1.802 2.435-.18-.183 1.622.288 3.244 2.331 3.913 2.043.67 2.017-2.368 2.017-2.368s14.168-1.21 13.67.103z"/>
        <path fill="#F37E4E"
              d="M113.567 66.352c1.124-.179 1.425.84 1.918 3.693.521 2.828.713 3.388.713 3.974 0 .56-1.124.84-2.33.943-1.205.102-3.535-.102-2.932-1.605.685-1.809 1.398-6.827 2.631-7.005zM112.09 79.627c-.157.665.965 1.277 2.14 1.091 1.174-.186 2.296-.532 1.879-1.17-.418-.64-1.175-.453-2.219-.267-1.043.16-1.592-.559-1.8.346z"/>
        <path fill="#5E2D1E"
              d="M121.688 75.9c-.777.824-2.486.11-3.263-.577-.777-.714-2.02-.824-2.874-.714-.751.11-1.424.659-1.606.796-.155-.137-.828-.687-1.605-.796-.855-.11-2.124 0-2.875.714-.777.714-2.486 1.4-3.263.577-.777-.824-1.346-1.044-1.061.934.284 1.978 2.123 2.802 4.402 3.05 1.864.191 3.78-.276 4.428-.633.648.33 2.46.797 4.325.632 2.305-.247 4.117-1.044 4.402-3.05.337-1.977-.259-1.757-1.01-.933z"/>
        <path fill="#FFF"
              d="M105.066 73.748c-4.306 0-7.834-3.5-7.834-7.828 0-4.303 3.502-7.828 7.834-7.828 4.306 0 7.834 3.5 7.834 7.828-.026 4.329-3.528 7.828-7.834 7.828zm0-14.827c-3.865 0-7.03 3.137-7.03 7.025 0 3.862 3.14 7.024 7.03 7.024 3.865 0 7.03-3.136 7.03-7.024-.026-3.888-3.165-7.025-7.03-7.025zM122.795 73.336c-4.306 0-7.834-3.5-7.834-7.828 0-4.303 3.502-7.828 7.834-7.828 4.305 0 7.833 3.5 7.833 7.828 0 4.329-3.528 7.828-7.833 7.828zm0-14.827c-3.865 0-7.03 3.137-7.03 7.025 0 3.862 3.139 7.024 7.03 7.024 3.864 0 7.029-3.136 7.029-7.024s-3.165-7.025-7.03-7.025z"/>
        <path fill="#FFF"
              d="M114.394 66.332c-.31-.289-.618-.42-.902-.42-.464.026-.824.394-.824.394l-.593-.552c.026-.026.567-.63 1.391-.656.516-.026 1.031.184 1.495.63l-.567.604z"/>
        <ellipse cx="114.343" cy="82.606" fill="#F37E4E" rx="2.268" ry="1.03"/>
        <path fill="#FFC648"
              d="M67.163 105.922s-13.754 7.706-24.641 22.83c-10.888 15.123-12.045 18.269-13.754 23.694-1.71 5.426-1.999 6.841 1.71 11.717 3.733 4.849 16.33 8.57 23.772 7.994 7.443-.577 8.31-2.569 9.441-6.841 1.157-4.273 10.02-28.832 15.464-35.988 5.47-7.13 3.76-31.69-11.992-23.406zM163.624 95.996s14.001 3.137 33.43 15.659c19.429 12.522 21.133 17.645 23.126 22.22 1.993 4.549-5.428 17.933-13.425 19.084-7.997 1.15-19.717 1.699-24.568.287-4.85-1.412-14.29-15.371-16.86-18.796-2.569-3.424-16.282-36.755-1.703-38.454z"/>
        <path fill="#FFC648"
              d="M196.567 167.272l-19.762-15.35s8.882-11.38 17.187-19.055c8.304-7.675 12.877-13.94 22.337-4.542 9.435 9.371 5.44 14.775 1.708 20.178-3.731 5.404-14.322 15.924-21.47 18.769zM101.06 89.816l-5.88 1.97s-.423 2.823 4.746 7.908c5.168 5.086 9.809 6.79 12.894 4.1 3.085-2.689 4.615-4.659 4.615-4.659s-6.856-.985-11.603-4.1c-3.823-2.477-4.772-5.22-4.772-5.22z"/>
        <path fill="#FFF"
              d="M127.352 220.832l-.984-18.974c0-.473-.492-45.068-.751-74.448-.207-25.202-2.201-26.778-2.434-26.884 0 0 .078.027.155-.052l-.543-.605c.129-.131.414-.236.725-.105 2.226.999 2.822 15.558 2.9 27.62.233 29.38.725 73.975.75 74.422l.984 18.973-.802.053zM149.315 148.732c-7.272 0-11.507-3.45-11.64-9.48-.134-6.187.133-11.348.133-11.4l.825.052c0 .053-.266 5.214-.133 11.349.133 5.503 4.076 8.689 10.815 8.689 5.407 0 7.565-5.266 7.671-8.82.134-4.135-.266-11.27-.266-11.35l.826-.052c0 .079.4 7.24.266 11.427-.16 4.74-3.116 9.585-8.497 9.585z"/>
        <path fill="#FFC648"
              d="M117.435 98.985s3.747 4.224 7.914 5.048c4.166.825 6.525-.824 10.849-5.743 4.297-4.92 5.974-7.65 5.974-7.65l-6.394-2.06s-5.843 6.181-11.687 8.602c-4.56 1.932-6.656 1.803-6.656 1.803z"/>
        <path fill="#C82C2F"
              d="M137.304 128.885l-.08-3.42c0-.395.29-.737.71-.763 1.262-.08 4.258-.342 9.62-.263 5.203.078 8.725.394 9.881.605.316.052.552.342.579.658l.236 3.289c.026.42-.315.789-.736.789l-19.5-.21c-.395.026-.71-.29-.71-.685z"/>
        <path fill="#EDA320"
              d="M71.225 169.618s-3.445-11.099-17.12-23.326c-4.496-4.014-7.152-6.69 4.05 1.076 6.206 4.303 8.915 7.557 8.915 7.557s.973-14.589 5.68-24.008c4.707-9.42 5.943-12.673 5.943-12.673s-5.654 14.011-3.313 34.24c.5 4.435 2.919 16.793 3.603 26.422 1.499 20.938 1.34 43.162 1.34 43.162H67.886l3.34-52.45z"/>
        <path fill="#FFA171"
              d="M118.672 65.649s.715-.553 1.908-.553 1.802.491 1.802.491-.424.706-1.696.737c-1.299.062-2.014-.246-2.014-.675zM105.066 66.473s.716-.553 1.908-.553c1.193 0 1.803.491 1.803.491s-.424.706-1.697.737c-1.298.062-2.014-.246-2.014-.675z"/>
        <ellipse cx="117.435" cy="115.36" fill="#FFF" rx="2.886" ry="2.884"/>
        <ellipse cx="117.022" cy="143.376" fill="#FFF" rx="2.886" ry="2.884"/>
        <ellipse cx="118.259" cy="177.572" fill="#FFF" rx="2.886" ry="2.884"/>
        <path fill="#EDA320"
              d="M164.436 115.772s3.73 12.231 4.668 30.132c.939 17.875-3.416 69.479-3.416 69.479l9.78 6.273-.757-58.795 3.886-15.25s2.973-9.686 10.145-17.219c2.373-2.494-.444-2.231-6.129 3.307-4.694 4.567-7.537 5.696-7.537 5.696s-4.355-16.405-10.64-23.623z"/>
        <path fill="#FFF"
              d="M134.423 181.28s-35.34-21.96-35.89-22.333c-.524-.371 2.122-4.86 9.588-4.86 7.466 0 36.937 20.528 36.937 20.528l-2.488 4.487s-1.232-1.434-3.904-1.248c-2.645.186-4.243 3.426-4.243 3.426z"/>
        <path fill="#5E2D1E"
              d="M172.658 190.41c-2.405 2.592-5.205 3.162-6.975 2.644-1.797-.519-6.632-5.99-11.467-8.608-4.597-2.515-8.48-3.94-10.092-4.303s-3.33-.986-1.718-3.967c1.612-2.982 1.929-3.267 4.254-2.048 2.325 1.218 23.858 11.018 25.126 11.718 1.242.7 2.668 2.645.872 4.563z"/>
        <path fill="#FFA171"
              d="M177.201 154.5s-15.044 20.214-15.96 20.841c-.915.6-2.904-1.228-5.834-1.698-2.904-.47-7.509-1.54-9.523-2.298-1.989-.757-3.532-1.07-2.617.758.916 1.828 1.989 2.454 3.69 3.055 1.7.6 3.531 2.9 3.531 2.9s-2.459 1.984-3.218 4.126c-.758 2.141-1.072 2.898.314 3.525 1.387.6 1.544 1.541 1.7 2.769.158 1.227.76 1.828 1.99 2.141 1.229.314 1.386.47 2.145 1.698.758 1.227 3.06 2.298 5.991-.157 2.904-2.455 7.064-5.51 9.21-7.051 2.145-1.541 28.387-20.998 28.387-20.998l-19.806-9.611z"/>
        <path fill="#F37E4E"
              d="M178.456 167.588c.995 6.92-3.614 12.868-3.614 12.868l18.042-13.605-15.66-12.763-3.718 5.131c-.026 0 4.06 2.21 4.95 8.369z"/>
        <path fill="#FFC648"
              d="M174.307 153.619c-.651.915-.47 2.195.442 2.875 2.109 1.62 5.884 4.679 8.878 7.868 2.993 3.215 5.05 5.045 6.013 5.881.417.34.964.419 1.458.21l7.732-3.294c.6-.261.833-.967.495-1.542-1.354-2.248-4.946-7.633-10.466-12.103-6.768-5.49-9.918-6.43-9.918-6.43l-4.634 6.535z"/>
        <path fill="#8C1D1E"
              d="M201.247 209.003c-.708-.844-2.569-1.53-5.583-2.058-2.49-.449-5.662-.739-9.123-.87-2.411-.08-4.875-.107-7.366-.027-6.422.184-14.102 1.029-16.488 2.85-.786.607-.944 1.266-.42 1.926.263.317.682.686 1.94 1.188l.813.316.131-.052c1.127.316 2.57.607 4.22.844 4.064.58 9.464.818 14.968.66 3.382-.106 6.58-.37 9.228-.739 2.673-.396 6.133-1.082 7.444-2.243.603-.607.708-1.24.236-1.795z"/>
        <path fill="#8C1D1E"
              d="M201.726 220.002c.105-1.2.891-10.693-1.232-11.067-2.49-.426-10.223 1.947-13.71 1.814-2.411-.08-5.216.613-7.707.666-6.422.187-14.81-3.253-17.17-1.44-.786.614-.105 9.84.42 10.48.13.16 4.115 1.2 19.503 1.2 13.421 0 19.87-1.333 19.896-1.653z"/>
        <path fill="#F37E4E"
              d="M199.709 209.395c-.548-.65-2.271-1.223-4.751-1.665-2.35-.417-5.404-.703-8.772-.833-2.271-.078-4.699-.104-7.179-.026-7.78.234-13.731 1.249-15.35 2.472-.47.364-.6.728-.287 1.118.13.156.365.443 1.514.885.026 0 .026-.026.052-.026 3.316 1.17 10.99 1.873 19.162 1.639 3.393-.104 6.422-.364 8.928-.702 3.367-.469 5.717-1.145 6.552-1.874.366-.286.418-.624.13-.988z"/>
        <path fill="#FCC4C0"
              d="M179.956 208.9c3.048-.092 5.862.227 6.279.66.417.455-1.694.888-4.742.956-3.048.091-5.862-.227-6.28-.66-.442-.433 1.694-.865 4.743-.957z"/>
        <path fill="#721217"
              d="M197.27 212.805c-6.334 1.434-11.807 1.304-11.807 1.304l.078 7.535s5.969.105 9.826-.313c3.597-.39 6.021-1.251 6.021-1.251s.26-4.772.104-6.362c-.156-1.59-.39-3.598-.39-3.598s-.053 1.825-3.832 2.685z"/>
        <g>
          <path fill="#8C1D1E"
                d="M38.13 2.277C37.052 1.009 34.866.285 31.68.103c-2.634-.155-5.873.104-9.323.699-2.396.414-4.819.983-7.189 1.707C9.006 4.372 1.896 7.632.474 11.253 0 12.47.184 13.66 1.001 14.591c.395.465 1 1.008 2.475 1.552l.948.336.105-.13c1.264.285 2.818.415 4.53.415 4.266 0 9.638-.854 14.93-2.458 3.24-.983 6.242-2.173 8.638-3.467 2.423-1.293 5.451-3.31 6.162-5.587.316-1.061.08-2.148-.658-2.975z"
                transform="translate(131.453 198.996)"/>
          <path fill="#8C1D1E"
                d="M40.264 7.295C39.79 5.277 38.842 1.76 36.63 1.63c-2.634-.13-9.033 3.88-12.482 4.475-2.397.414-4.82.983-7.19 1.708-6.161 1.862-15.115.827-16.537 4.45-.474 1.215 1.554 6.7 2.37 7.63.395.466 1.001 1.01 2.476 1.553l1.027.233c1.264.284 2.817.414 4.529.414 4.266 0 9.638-.854 14.931-2.458 3.24-.983 6.241-2.173 8.637-3.466 2.423-1.294 5.452-3.312 6.163-5.588.316-1.06-.027-2.2-.29-3.286z"
                transform="translate(131.453 198.996)"/>
          <path fill="#F37E4E"
                d="M37.078 3.13c-.843-.983-2.818-1.552-5.478-1.707-2.502-.13-5.635.077-9.006.672-2.265.388-4.66.958-7.03 1.682C8.057 6.027 2.738 9.21 1.737 11.719c-.29.724-.21 1.397.29 1.992.184.233.579.673 1.922 1.19 0-.026.026-.026.026-.052 3.845 1.242 11.692.595 19.566-1.785 3.265-.983 6.136-2.147 8.4-3.363 3.081-1.63 5.057-3.337 5.504-4.786.185-.646.106-1.267-.368-1.785z"
                transform="translate(131.453 198.996)"/>
          <path fill="#FCC4C0"
                d="M17.617 6.855c2.95-.88 5.872-.983 6.557-.206.658.776-1.185 2.12-4.134 3.026-2.95.88-5.873.983-6.557.207-.659-.802 1.185-2.147 4.134-3.027z"
                transform="translate(131.453 198.996)"/>
          <path fill="#721217"
                d="M27.597 12.78l1.817 5.38s4.872-1.396 7.4-3.492c2.528-2.095 3.318-2.975 3.687-4.087.369-1.113.079-1.811.079-1.811s-.421-1.785-.527-2.406c-.447-2.199-1.395-3.389-1.395-3.389s.948 3.053-3.055 5.872c-3.766 2.743-8.006 3.933-8.006 3.933z"
                transform="translate(131.453 198.996)"/>
        </g>
        <path fill="#E84C4F"
              d="M101.768 47.212l.998-23.519s5.36-5.141 13.532-4.218c8.145.923 10.247 4.218 10.247 4.218l3.259 24.099s-10.852-3.19-28.036-.58z"/>
        <path fill="#C82C2F"
              d="M111.75 28.027c3.043.052 8.972 1.726 11.115 5.23 1.641 2.693 6.114 7.531 6.114 7.531L127.073 20.6l-24.11.497-.37 13.049c-.027 0 3.07-6.25 9.157-6.12z"/>
        <path fill="#E84C4F"
              d="M96.987 14.835c.966-5.84 5.326-6.438 7.414-6.905 2.089-.468 5.796-.234 5.796-.234s6.031-10.592 16.918-6.23c10.887 4.387 9.503 14.278 9.503 14.278s10.887 6.672 5.092 15.888c-5.796 9.216-14.36 3.453-16.448.909-2.09-2.545-3.003-7.373-3.003-7.373s-3.002 1.142-7.18.233c-4.177-.908-5.326-2.544-5.326-2.544s-7.18 2.544-10.182-.233c-3.028-2.726-2.924-5.764-2.584-7.789z"/>
        <g>
          <path fill="#FFC648"
                d="M24.654 6.43H5.496s-2.539 5.377-4.24 13.627C.393 24.195.131 28.833.08 31.97c-.053 2.082 1.622 3.795 3.69 3.795h22.586c2.093 0 3.768-1.74 3.664-3.848-.105-2.9-.21-6.8-1.1-11.544-1.203-6.483-4.265-13.942-4.265-13.942z"
                transform="translate(214.736 184.576)"/>
          <path fill="#EDA320"
                d="M9.945 8.882c3.743 0 8.768-.158 11.856 1.476 3.088 1.634 5.522 4.744 5.522 4.744s-2.12-8.83-3.56-10.78c-1.465-1.95-18.031 0-18.031 0l-.21 2.135L4.45 9.725c-.026-.026 1.91-.843 5.496-.843z"
                transform="translate(214.736 184.576)"/>
          <path fill="#FFC648"
                d="M25.779 6.668H4.397c-.628 0-1.152-.527-1.152-1.16l.55-2.951C3.795 1.16 4.92.053 6.334.053h17.534c1.388 0 2.54 1.133 2.54 2.504l.549 2.951c-.026.66-.55 1.16-1.178 1.16z"
                transform="translate(214.736 184.576)"/>
          <path fill="#FFF"
                d="M.55 24.67c1.518 3.056 4.658 5.138 8.27 5.138 5.103 0 9.265-4.164 9.265-9.33 0-5.139-4.136-9.33-9.265-9.33-2.199 0-4.214.765-5.81 2.056-.602 1.95-1.204 4.244-1.754 6.826-.314 1.53-.55 3.11-.706 4.64z"
                transform="translate(214.736 184.576)"/>
          <path fill="#FFC648"
                d="M14.342 18.792l-2.853-.765c-.706-.184-1.047-.316-1.648-.158.654-2.345-.733-4.744-.733-4.744s-.707.422-1.754 2.056c-.523.817-.916 1.107-1.073 1.845-.157-.08-.419-.106-.602-.132-2.46-.369-3.245.237-3.245.237s-.13.501 1.125 2.161c.367.475.89.95 1.309 1.16-.34.316-.576.659-.916 1.239-1.492 2.61-.576 3.821-.576 3.821s.785-.237 2.46-1.212c.68-.395 1.1-.79 1.466-1.239.235.396.314.686.785 1.107 1.937 1.766 3.9 1.529 3.9 1.529l-.838-2.846c-.21-.686-.628-1.16-1.047-1.582.21-.026.497-.132.733-.21 3.167-.739 3.507-2.267 3.507-2.267z"
                transform="translate(214.736 184.576)"/>
        </g>
        <g fill="#C82C2F">
          <path
            d="M12.357 12.184c-.63-.577-1.259-1.103-1.941-1.654C9.13 9.506 7.923 8.613 6.822 7.852l-2.913 4.017c1.47 1.234 3.122 2.679 4.67 4.202l3.778-3.887zM13.17 12.92l-3.777 3.938c.183.184.367.394.55.578 1.522 1.628 2.782 2.889 3.805 3.86l4.33-3.072c-1.391-1.707-3.07-3.571-4.907-5.304zM11.124 9.69c.683.551 1.365 1.129 1.994 1.707l3.516-3.65c-.446-.394-.918-.788-1.39-1.182-1.89-1.523-3.516-2.705-4.854-3.624L7.504 6.959c1.102.788 2.309 1.68 3.62 2.73zM1.889 4.805L.577 6.617c-.656.92-.472 2.206.446 2.889.577.446 1.312.998 2.1 1.654l2.859-3.939C4.329 6.145 2.965 5.383 1.889 4.805zM6.585 6.355l2.886-4.018C6.611.5 5.247.08 5.247.08L2.52 3.913c1.102.577 2.466 1.365 4.066 2.442zM18.785 19.064l-4.224 2.994c.63.578 1.102.998 1.47 1.287.42.34.97.42 1.469.21l3.568-1.523c-.63-.867-1.39-1.865-2.283-2.968zM25.266 20.246c.603-.263.84-.972.498-1.55-.446-.735-1.154-1.838-2.072-3.124l-4.014 2.836c.944 1.181 1.757 2.258 2.413 3.177l3.175-1.34zM23.036 14.705c-1.443-1.89-3.306-4.096-5.615-6.25l-3.516 3.65c1.916 1.812 3.621 3.703 5.064 5.462l4.067-2.862z"
            transform="translate(173.506 147.084)"/>
        </g>
        <g fill="#C82C2F">
          <path
            d="M17.342 4.978l.078-.079c1.302-1.448 2.37-2.844 3.23-4.082L18.383.079s-1.328 1.449-3.333 3.214l2.291 1.685zM20.806 7.534C23.592 4.057 24.71 2.16 24.71 2.16l-2.994-1.001c-.911 1.37-2.057 2.871-3.49 4.478l2.579 1.897zM16.587 5.795L14.165 4.03c-1.484 1.238-3.228 2.582-5.077 3.662l2.187 2.423c1.849-1.238 3.672-2.66 5.312-4.32zM3.958 14.04c1.693-.738 4.01-1.844 6.406-3.346l-2.24-2.476c-.442.237-.911.475-1.38.659-4.557 1.95-6.64 1.817-6.64 1.817s1.615 1.818 3.854 3.346zM7.994 15.857c2.37.474 4.14.132 6.015-1.185l-2.89-3.161c-2.214 1.396-4.349 2.476-6.041 3.24.937.474 1.927.896 2.916 1.106zM17.472 6.427c-1.692 1.739-3.567 3.214-5.416 4.452l2.839 3.108c1.171-.975 2.421-2.292 3.88-4.03.468-.553.91-1.08 1.327-1.607l-2.63-1.923z"
            transform="translate(117.435 88.168)"/>
        </g>
        <g fill="#C82C2F">
          <path
            d="M7.805 2.839C6.417 1.314 5.998.13 5.998.13l-2.855.947C3.85 2.155 4.636 3.312 5.58 4.442l2.226-1.603zM12.494 10.355l2.54-2.917c-1.466-.552-2.96-1.262-4.295-2.129-.864-.552-1.572-1.13-2.148-1.682L6.286 5.309c.21.237.42.473.629.736 1.729 1.866 3.667 3.26 5.579 4.31zM2.095 1.446l-1.912.63s-.262 1.682 2.07 4.81L4.715 5.1c-1.022-1.235-1.886-2.47-2.62-3.653zM9.613 13.64l2.121-2.444C9.796 10.12 7.858 8.7 6.103 6.755c-.236-.263-.472-.552-.707-.815L2.907 7.753c.55.657 1.205 1.367 1.965 2.13 1.676 1.629 3.248 2.89 4.74 3.758zM17.68 13.956c.131-.105.236-.21.34-.315-1.545-.368-3.405-.973-5.29-1.919l-2.148 2.47c2.802 1.367 5.238 1.367 7.098-.236zM13.49 10.855c2.042.972 3.98 1.55 5.552 1.892 2.148-1.997 3.222-3.39 3.222-3.39s-2.855-.42-6.156-1.525l-2.619 3.023z"
            transform="translate(95.171 89.816)"/>
        </g>
        <path fill="#E91E63" fill-opacity=".12" d="M0 219.844H260V222.72799999999998H0z"/>
        <path fill="#FCC4C0"
              d="M64.91 202.096s-6.81 2.14-9.387 1.899c-2.577-.24-4.47-2.14-5.18-3.102-.71-.962-3.05-2.38-4.707-.722-1.656 1.685-3.05 2.861-1.42 5.267 1.657 2.38 1.657 3.583.237 5.027s-1.656 3.101-.473 4.545c1.84 2.246 2.734 2.353 4.706 1.899 2.104-.482 3.498-5.107 5.417-5.508 5.864-1.203 13.857-.481 13.857-.481l-3.05-8.824z"/>
        <path fill="#8C1D1E"
              d="M62.04 203.256c-2.702 1.64.473 6.978.473 6.978s2.414.807 6.559 2.552c6.56 2.786 12.148 7.03 21.383 7.369 18.287.677 27.39-.156 27.39-.156s14.064.703 12.2-18.852c-1.705-17.706-10.494-19.242-10.494-19.242s-16.739-2.864-31.694 3.671c-9.471 4.14-15.951 9.764-20.57 13.774-2.334 1.98-5.246 3.906-5.246 3.906z"/>
        <path fill="#FFA171"
              d="M75.377 199.44s3.544 4.74 6.773 9.167c3.23 4.427 5.697 6.875 9.084 8.411 3.387 1.537 3.544 1.693 4.305 1.693.762 0 0-1.823 0-1.823s2.153 2.292 3.545 1.537c1.391-.756-4.62-6.72-4.463-7.344.157-.6 1.837.755 5.696 4.27 3.86 3.516 4.464 5.053 6.17 3.829 1.706-1.224-3.544-5.964-6.012-9.636-2.468-3.671-4.62-7.03-4.017-7.786.604-.755 1.838 1.693 5.382 2.76 3.544 1.068 4.463.47 5.54-.468 1.076-.912-3.545-2.605-5.697-4.115-2.153-1.536-6.012-4.896-8.323-6.12-2.31-1.224-8.637-1.823-8.637-1.823s-12.102-.182-9.346 7.448z"/>
        <path fill="#FFA171"
              d="M49.819 183.968s4.705 5.866 13.666 10.71c8.987 4.846 13.665 7.072 13.665 7.072s7.137 4.242 10.203-2.226c3.066-6.469-.608-7.7-.608-7.7s-3.674-2.435-8.379-6.259c-4.705-3.85-12.45-12.937-12.45-12.937l-16.097 11.34z"/>
        <path fill="#FFC648"
              d="M52.762 190.344l18.908-15.987s-6.311-12.842-12.044-19.133c-5.733-6.29-13.465-13.707-20.065-11.426-6.601 2.28-9.441 5.425-10.888 8.858-1.42 3.433-4.286 8.282 1.71 15.987 6.048 7.706 22.38 21.7 22.38 21.7z"/>
        <path fill="#F37E4E"
              d="M68.437 190.403c1.39-4.157 6.532-7.535 6.532-7.535l-7.424-7.768-14.428 12.497s3.62 3.404 7.66 5.794c4.04 2.39 8.867 4.78 8.867 4.78s-2.624-3.585-1.207-7.768z"/>
        <path fill="#FFC648"
              d="M48.63 188.722l5.922 4.176c.584.417 1.38.443 2.018.052 2.416-1.488 8.55-5.402 13.222-9.29l5.072-4.255c.504-.417.664-1.122.371-1.722l-3.982-8.351s-8.39 4.62-14.63 9.865c-4.381 3.68-7.037 6.524-8.231 7.907-.372.522-.266 1.253.239 1.618z"/>
        <g fill="#C82C2F">
          <path
            d="M10.171 15.034c.66-.608 1.321-1.163 2.008-1.717L9.247 9.433c-.265.21-.502.422-.74.634-2.087 1.77-3.752 3.382-5.099 4.703l3.514 3.461c.924-.978 2.008-2.06 3.25-3.197zM19.233 8.429l-2.299-4.624c-2.14 1.4-4.57 3.117-6.868 4.94l2.958 3.885c2.114-1.612 4.254-3.039 6.209-4.201zM13.711 13.501l3.461 4.545c1.506-1.11 3.012-2.299 4.412-3.461l.502-.423-2.351-4.73c-1.902 1.11-4.016 2.484-6.024 4.07zM16.274 18.68l-3.435-4.492c-.66.529-1.294 1.084-1.928 1.665-1.242 1.136-2.299 2.193-3.223 3.144l3.329 3.303c1.505-1.004 3.355-2.246 5.257-3.62zM6.948 19.79c-.951 1.057-1.744 1.981-2.378 2.8l1.823 1.322c.582.422 1.374.449 2.008.053.45-.291 1.03-.635 1.69-1.084L6.949 19.79zM23.037.08S20.844 1.32 17.86 3.222l2.325 4.65c2.193-1.241 4.042-2.192 5.23-2.747L23.038.079zM25.89 6.13c-1.162.555-3.038 1.48-5.204 2.721l2.245 4.545 3.673-3.144c.502-.423.66-1.137.37-1.744L25.89 6.13zM6.156 19.024l-3.514-3.488C1.585 16.619.819 17.491.317 18.072c-.423.502-.317 1.216.185 1.612l3.17 2.272c.66-.845 1.48-1.823 2.484-2.932z"
            transform="translate(48.17 169.332)"/>
        </g>
        <ellipse cx="121.16" cy="200.35" fill="#F37E4E" rx="7.267" ry="15.962"
                 transform="rotate(-5.625 121.16 200.35)"/>
        <ellipse cx="122.019" cy="200.856" fill="#FCC4C0" rx="2.859" ry="4.927"
                 transform="rotate(-7.418 122.02 200.856)"/>
      </g>
    </g>
  </g>
</svg>
