<svg xmlns="http://www.w3.org/2000/svg" width="249" height="223" viewBox="0 0 249 223">
  <g fill="none" fill-rule="evenodd">
    <g fill-rule="nonzero">
      <g>
        <path fill="#E91E63" fill-opacity=".12"
              d="M50.256 42.65c32.651-11.094 32.702-32.733 63.292-28.595 18.726 2.518 26.016 24.98 46.426 33.756 20.41 8.8 37.93 14.684 51.855 29.992 13.926 15.307 22.572 46.445 12.04 70.378-14.679 33.258-70.204 57.515-108.838 54.1-53.942-4.787-86.367-24.681-106.677-58.587C-8.236 116.046-2.957 60.725 50.256 42.65zM141.032 13.632c-.378 10.492 7.621 19.83 27.557 29.619 19.935 9.764 32.2 12.625 39.694 8.358 7.495-4.267 4.895-18.725-2.953-28.59-7.848-9.89-23.821-19.126-34.495-21.16-10.624-2.057-29.197-5.195-29.803 11.773z"
              transform="translate(-64 -202) translate(64 202)"/>
        <g transform="translate(-64 -202) translate(64 202) translate(10.941 53.53)">
          <path fill="#F49D3D"
                d="M166.994 165.772H28.152c-10.964 0-19.936-9.107-19.936-20.235v-4.765c0-5.34-.756-9.681 4.486-9.681H131.76l6.83 1.622c1.714.399 3.529.449 5.268.124l9.375-1.746h29.21c5.242 0 4.486 4.366 4.486 9.68v4.766c0 11.128-8.972 20.235-19.935 20.235z"/>
          <path fill="#75342C"
                d="M176.873 131.415H151.167l-6.05 1.348c-2.192.499-4.485.474-6.678-.075l-5.192-1.273H105.297l-6.225.674c-2.218.449-4.914.224-7.132-.225l-5.923-.449H65.956l-1.462.5c-2.546.872-7.762.698-10.182-.5H18.574c-7.737 0-14.037-6.262-14.037-13.897 0-7.66 6.325-13.898 14.037-13.898h158.324c6.931 0 12.577 5.614 12.577 12.45v2.895c0 6.836-5.671 12.45-12.602 12.45z"/>
          <path fill="#5E241F"
                d="M13.08 107.537s10.409 10.604 13.56 14.372c3.15 3.743 3.477 7.485 17.036 3.119 13.56-4.367 52.019-10.604 52.019-10.604s11.669 6.562 28.706 9.68c17.037 3.12 29.639 3.444 36.897.624 7.258-2.819 13.08-5.04 17.97-5.614 5.368-.623 9.425 3.893 9.425 3.893s5.394-18.264-12.273-20.76c-12.93-1.846-163.34 5.29-163.34 5.29z"/>
          <path fill="#EF0000"
                d="M184.585 96.784H10.258c-1.487 0-2.697-1.198-2.697-2.67V83.385c0-1.472 1.21-2.67 2.697-2.67h174.327c1.487 0 2.697 1.198 2.697 2.67v10.729c0 1.472-1.235 2.67-2.697 2.67z"/>
          <path fill="#C663A3"
                d="M89.621 107.238s20.339 14.546 56.732 15.12c26.538.424 39.744-18.937 39.744-18.937l-13.332-.025s-6.93 12-27.294 10.728c-17.29-1.097-30.748-12.85-30.748-12.85l-25.102 5.964z"/>
          <path fill="#F4B8DA"
                d="M116.235 108.635s8.191 5.564 23.187 7.386c14.643 1.796 22.808-1.947 28.555-5.29 6.704-3.942 10.484-8.708 10.484-8.708l-5.57-.873s-.453 2.42-6.477 6.612c-6.023 4.192-13.383 6.836-22.733 5.514-9.375-1.322-12.047-1.996-17.39-5.514-5.368-3.543-10.056.873-10.056.873z"/>
          <path fill="#FFBB12"
                d="M104.214 109.733c-13.08 1.547-48.188 8.508-63.915 11.926-4.662.998-12.652 2.87-18.247-3.543-1.184-1.347-2.142-2.295-2.142-2.32-3.705-3.792-7.787-8.109-8.67-8.458-2.62-1.048-5.267-1.472-4.914-5.59.252-2.993 2.243-4.914 4.385-4.914h174.202c2.142 0 3.881 1.746 3.881 3.842 0 .748-.781 7.81-1.487 7.11-8.418-8.333-64.771-.224-83.093 1.947z"/>
          <path fill="#F43B49"
                d="M124.527 95.237H14.643c-1.033 0-1.865-.824-1.865-1.847V84.06c0-1.023.832-1.847 1.865-1.847h109.884c3.63 0 6.578 2.92 6.578 6.513 0 3.592-2.949 6.512-6.578 6.512z"/>
          <path fill="#FF979B"
                d="M71.047 95.337H40.55c-.831 0-1.487-.674-1.487-1.473V82.836c0-.823.68-1.472 1.487-1.472h30.496c.831 0 1.487.674 1.487 1.472v11.028c.025.799-.656 1.473-1.487 1.473z"/>
          <path fill="#C10017"
                d="M8.367 85.082s-2.344 3.967 4.965 2.67c7.31-1.323 9.955-3.943 14.265-1.972 4.31 1.972 11.619 9.532 24.548 4.591 12.929-4.915 15.272-7.235 19.91-4.59 4.637 2.62 10.61 7.235 16.91 4.915 6.302-2.296 6.957-5.914 12.602-3.943 5.646 1.972 10.081 7.111 22.96 8.484 12.879 1.372 29.462 1.696 39.09-2.895 9.627-4.59 13.937-4.915 17.591-2.944 3.655 1.971 5.318 2.296 5.318 2.296v-6.238l-19.91-4.267-156.358-.449-1.89 4.342z"/>
          <path fill="#71BC06"
                d="M6.049 68.515C2.092 71.733-1.16 74.029.706 79.318c1.865 5.29 4.889 5.739 7.661 5.739 2.798 0 8.14-1.148 11.619-2.52 3.478-1.372 8.82-.45 12.778 2.07 3.956 2.52 13.231 6.912 26.034.7 12.778-6.213 16.256-2.52 19.507-.7 3.251 1.847 10.913 3.918 14.87.225 3.957-3.692 8.418-2.17 14.164.225 49.826 20.859 56.101-5.19 72.13-.1 7.057 2.246 13.358 6.088 15.45-.823 2.091-6.912-2.32-10.804-6.982-13.349-4.637-2.52-8.594-4.366-8.594-4.366L6.05 68.515z"/>
          <path fill="#6B9E1A"
                d="M12.097 63.075s-.78 1.597-6.124 6.463c-6.83 6.237-3.2 11.227 4.26 11.177 7.485-.074 11.82-4.79 16.583-6.063 4.763-1.297 8.67 2.994 12.55 5.564 3.907 2.57 9.956 4.716 20.793-3.867s14.719-.848 19.91 1.722c5.192 2.57 9.955 1.297 14.29-3.419 4.335-4.715 12.677-.524 21.65 2.57 9.955 3.419 16.558 9.906 32.914 6.438 12.123-2.57 15.6-8.583 22.532-8.134 6.93.424 11.694 6.437 16.457 2.994 4.763-3.418-3.906-10.729-3.906-10.729L12.097 63.075z"/>
          <path fill="#F49D3D"
                d="M98.669.175h-3.024c-46.701 0-90 30.39-90 67.516 0 2.27 1.84 4.092 4.134 4.092 0 0 15.625 1.672 45.844 1.672 31.553 0 67.115-1.672 67.115-1.672l12.45-.075c2.167-.174 14.668.075 14.668.075s7.56 1.248 16.886 1.248c9.778 0 16.76-1.248 16.76-1.248 2.369 0 4.31-1.921 4.31-4.266C187.835 30.49 144.436.175 98.668.175z"/>
          <path fill="#FFE576"
                d="M18.6 106.365c5.116 7.235 8.216 11.153 12.98 11.577 4.762.424 19.48-3.868 31.175-6.862 11.694-2.994 27.295-9.431-1.739-9.855-29.008-.424-48.49-3.418-42.416 5.14z"/>
          <path fill="#FFAE4D"
                d="M90.806 4.067C70.769 2.545 47.734 9.631 28.63 27.147 14.618 39.995 8.544 65.295 10.207 67.79c.706 1.048 23.514 3.219 51.237 2.595 38.662-.873 68.754-.2 73.441-1.323 4.613-1.122 3.126-61.428-44.08-64.996zM119.739 161.93H88.537s-7.586-1.023-18.221-1.023c-6.074 0-14.542 1.023-14.542 1.023H29.563c-10.308 0-18.751-8.359-18.751-18.563v-7.486c0-1.172.958-2.12 2.142-2.12 0 0 35.965 2.17 63.511 2.17 29.89 0 56.807-2.17 56.807-2.17 1.185 0 2.143.948 2.143 2.12v10.554c0 8.509-7.057 15.495-15.676 15.495z"/>
          <path fill="#8E4640"
                d="M48.087 124.28c-.328 3.118 8.518 3.243 13.56 1.671 5.04-1.572 12.928.948 15.776 1.572 2.848.624 7.888.324 11.971-1.572 4.108-1.871 8.821-.624 11.67.624 2.847 1.247 19.229 0 15.776-1.872-3.604-1.946-16.08-7.41-19.557-7.21-3.478.2-7.561-2.296-11.972-.125-4.41 2.196-9.148 2.021-11.668 1.397-2.546-.599-25.556 5.514-25.556 5.514z"/>
          <ellipse cx="135.087" cy="146.46" fill="#F49D3D" rx="2.545" ry="2.919"/>
          <ellipse cx="134.853" cy="137.255" fill="#F49D3D" rx="1.512" ry="1.448"
                   transform="rotate(-9.422 134.853 137.255)"/>
          <ellipse cx="11.989" cy="147.793" fill="#F49D3D" rx="2.402" ry="2.412"
                   transform="rotate(-56.92 11.99 147.793)"/>
          <ellipse cx="20.565" cy="159.659" fill="#F49D3D" rx="1.865" ry="1.846"/>
          <ellipse cx="12.627" cy="152.099" fill="#F49D3D" rx="1.865" ry="1.846"/>
          <ellipse cx="29.739" cy="133.835" fill="#F49D3D" rx="1.865" ry="1.846"/>
          <ellipse cx="131.76" cy="151.276" fill="#F49D3D" rx="1.865" ry="1.846"/>
          <ellipse cx="106.86" cy="162.005" fill="#F49D3D" rx="1.865" ry="1.846"/>
          <ellipse cx="26.614" cy="36.865" fill="#FFF" rx="3.218" ry="2.476" transform="rotate(-30.001 26.614 36.865)"/>
          <ellipse cx="62.99" cy="34.477" fill="#FFF" rx="2.47" ry="3.226" transform="rotate(-86.421 62.99 34.477)"/>
          <ellipse cx="77.48" cy="43.223" fill="#FFF" rx="3.226" ry="2.47" transform="rotate(-2.349 77.48 43.223)"/>
          <ellipse cx="157.051" cy="22.337" fill="#FFF" rx="2.476" ry="3.218"
                   transform="rotate(-59.999 157.05 22.337)"/>
          <ellipse cx="152.691" cy="39.284" fill="#FFF" rx="2.47" ry="3.226"
                   transform="rotate(-87.377 152.691 39.284)"/>
          <ellipse cx="118.811" cy="28.6" fill="#FFF" rx="2.47" ry="3.226" transform="rotate(-83.869 118.81 28.6)"/>
          <ellipse cx="102.619" cy="21.775" fill="#FFF" rx="3.226" ry="2.47" transform="rotate(-2.237 102.62 21.775)"/>
          <ellipse cx="96.268" cy="4.161" fill="#FFF" rx="3.226" ry="2.47" transform="rotate(-2.237 96.268 4.16)"/>
          <ellipse cx="126.036" cy="45.306" fill="#FFF" rx="2.47" ry="3.226"
                   transform="rotate(-87.386 126.036 45.306)"/>
          <ellipse cx="130.363" cy="11.393" fill="#FFF" rx="2.471" ry="3.225"
                   transform="rotate(-79.274 130.363 11.393)"/>
          <ellipse cx="38.999" cy="23.178" fill="#FFF" rx="3.225" ry="2.471" transform="rotate(-11.082 39 23.178)"/>
          <ellipse cx="75.833" cy="10.322" fill="#FFF" rx="3.224" ry="2.471" transform="rotate(-12.627 75.833 10.322)"/>
        </g>
        <path fill="#CE7821"
              d="M181.137 88.678s.169 4.979 3.346 9.786c3.178 4.806 4.695 4.806 5.706 7.37 1.01 2.564-4.96 11.93-4.96 11.93l8.306-7.814 2.19-3.08-2.19-7.716-12.398-10.476z"
              transform="translate(-64 -202) translate(64 202)"/>
        <path fill="#618915"
              d="M149.53 131.796s.224 2.539 4.27 3.5c4.046.963 6.269 0 8.517 0 2.248 0 3.147.241 5.17 1.444 2.023 1.202 6.493 2.164 13.236-1.684 6.719-3.847 13.237 6.948 13.237 6.948l.55-16.968-44.98 6.76z"
              transform="translate(-64 -202) translate(64 202)"/>
        <g transform="translate(-64 -202) translate(64 202) translate(147.098 76.558)">
          <path fill="#F37E4E"
                d="M45.122 24.88s1.333 1.323 1.333 3.045c0 1.721-.126 3.818-.126 3.818l4.527-1.448 3.446-6.463s-.98-1.572-1.76-3.294c-.805-1.722-1.736-3.968-1.736-3.968l-5.684 8.31z"/>
          <path fill="#FFA171"
                d="M35.01 13.276s0 3.17 1.585 5.54 1.987 2.77 3.195 4.492c1.207 1.722 2.54 2.77 4.527 3.17 1.76.349 3.295.598 5.106-2.122 1.86-2.795 1.936-4.617 2.062-5.415.126-.799-1.71-5.39-2.264-7.237-.528-1.847-4.653-5.266-5.986-5.415-1.307-.125-8.224 6.987-8.224 6.987zM5.66 54.626c-1.837.325-4.83.05-5.207.325-.378.3-.453 1.222 1.358 2.42 1.81 1.198 2.414 2.346 5.71 1.897 3.294-.474 11.946-2.595 11.946-2.595l.554-3.993s-5.66.898-6.615.823c-.93-.075-.855-.873-3.144-1.123s-4.276-.399-4.955-.599c-.68-.224-1.459.275-.579.924.88.649 1.585.973 2.138 1.223.579.25.05.474-1.207.698zM58.528 133.06s.427 1.597.352 2.52c-.076.898-.63 2.57-.63 2.57l-1.76 2.92 2.188 2.171 4.15-.2 1.686-1.048 1.056-3.069s-.503-1.597-.553-2.995c-.076-1.397-.151-6.638-.151-6.638l-6.338 3.769zM83.83 117.288s5.181 1.223 6.011 1.622c.83.4 2.163 1.572 2.163 1.572l2.063 2.72 2.842-1.173 1.383-3.892-.327-1.947-2.465-2.146s-1.685-.15-3.018-.624c-1.333-.474-6.237-2.396-6.237-2.396l-2.415 6.264z"/>
          <path fill="#5E2D1E"
                d="M29.15 9.807c-.729-.35-.1 3.17 2.189 4.193 2.289.998 5.86.624 8.325-.998 2.465-1.623 3.672-5.191 3.672-5.191s2.616.125 3.974 2.495c1.383 2.371 1.786 2.52 1.987 2.945.78 1.672 2.666 6.139 2.666 6.139s1.459-2.845.629-6.114c-.83-3.27-1.736-7.112-1.56-8.11.176-.999 0-3.095-2.188-3.719-2.188-.623-2.741 0-3.194.275-.453.274-1.283.274-2.188-.45C42.556.55 41.55-.174 39.89.176c-1.66.374-2.288.998-2.465 1.896-.176.899-.276 1.373-.276 1.373s-1.66-.824-3.194.449c-1.56 1.273-1.66 2.545-1.46 3.444.152.923-1.232 3.468-3.344 2.47z"/>
          <path fill="#69422F"
                d="M38.306 18.866c-.151 0-.277-.1-.302-.25-.1-.374-.025-1.247.905-1.722.856-.449 1.761.275 1.811.3.126.1.151.3.05.45-.1.124-.301.149-.452.049 0 0-.629-.5-1.132-.25-.679.35-.578.949-.578 1.024.025.174-.076.324-.252.374 0 .025-.025.025-.05.025zM43.89 16.146c-.152 0-.277-.1-.302-.25-.076-.374.025-1.198.955-1.622.88-.4 1.61.125 1.887.45.1.124.1.324-.05.449-.126.1-.328.1-.453-.05-.05-.05-.503-.574-1.132-.275-.704.325-.629.874-.604.948.025.175-.075.325-.251.375 0-.05-.025-.025-.05-.025z"/>
          <path fill="#F37E4E"
                d="M42.33 17.743c0-.175.226-.275.352-.125.528.624 1.409 2.171 1.56 2.496.2.424-.126.673-1.007.948-.88.274-1.131.05-1.081-.824.1-1.073.15-1.971.176-2.495zM83.68 116.989l6.161 1.946s1.333-.599 1.811-2.72c.478-2.146.252-2.92.252-2.92l-7.018-2.92-1.207 6.614z"/>
          <path fill="#D36E4A"
                d="M43.411 23.083c-.729 0-1.257-.224-1.307-.25-.151-.074-.227-.249-.151-.423.075-.15.251-.225.427-.15.05.025 1.484.624 2.666-.4 1.233-1.048 1.182-2.096 1.182-2.12 0-.175.126-.325.302-.325s.327.125.327.3c0 .05.076 1.397-1.408 2.645-.704.549-1.434.723-2.038.723z"/>
          <ellipse cx="51.234" cy="14.449" fill="#FFA171" rx="2.666" ry="3.169"/>
          <ellipse cx="51.399" cy="14.581" fill="#F37E4E" rx="1.056" ry="1.498"
                   transform="rotate(-13.309 51.4 14.581)"/>
          <path fill="#006BA0"
                d="M57.823 106.233s15.167 7.611 19.367 9.608c4.2 1.996 7.118 3.094 8.4 2.894 1.283-.174 2.918-1.447 4.2-4.89 1.284-3.445 1.46-4.543.378-5.266-1.081-.724-10.237-5.091-15.896-9.258-5.659-4.168-15.72-12.503-15.72-12.503s-10.06 4.367-.729 19.415z"/>
          <path fill="#F37E4E"
                d="M58.729 130.664l.15 4.916s-.15 1.647 2.616 1.572c2.792-.075 3.496-1.223 3.496-1.223l-.15-6.638-6.112 1.373z"/>
          <path fill="#08C"
                d="M47.763 69.05s.905 15.248 1.836 28.3c.905 13.05 4.577 28.647 5.13 31.742.554 3.094.378 4.342 1.837 4.89 1.459.55 2.565.55 4.2.55 1.635 0 4.578-.724 4.93-1.273.377-.549-.176-17.418-.176-21.411 0-3.993 1.635-16.32 2.565-24.132.906-7.81 2.742-15.771 1.836-20.138-.905-4.342-2.741-8.335-13.154-6.164-10.463 2.196-9.004 7.636-9.004 7.636z"/>
          <path fill="#006BA0"
                d="M48.24 76.387s6.49 1.522 12.928.374c6.44-1.148 8.502-1.821 8.502-1.821s1.61-7.312.226-11.18c-1.383-3.893-22.259 4.292-22.259 4.292l.604 8.335z"/>
          <path fill="#E84C4F"
                d="M45.75 30.245s1.937.4 4.528-2.246c2.59-2.645 3.47-5.14 3.47-5.14s8.326 8.659 11.067 16.67c2.742 8.01 4.276 13.924 5.307 18.965 1.057 5.041 1.233 10.756 1.233 10.756s-2.792 3.469-11.897 4.167c-9.105.7-12.425.524-12.928-.174-.528-.7-1.056-4.867-1.056-10.581 0-5.715-.704-16.146-.528-18.916.176-2.77.805-13.5.805-13.5z"/>
          <path fill="#FFF"
                d="M58.402 137.377s.15 1.272 2.314 1.422c2.163.15 4.552-1.223 4.552-1.223l.553 1.897s-.955 2.096-3.672 2.645c-2.716.55-5.734-1.747-5.734-1.747l1.987-2.994z"/>
          <path fill="#F28A6A"
                d="M57.899 136.903c.553.424.905.623.503 1.821-.428 1.198-.855 1.123-.151 1.523.704.424 2.113 1.322 4.074.2 1.962-1.124 3.019-2.022 3.295-2.172.277-.15.906 1.522.981 3.27.076 1.746.076 3.418-.201 3.618-.277.2-17.002.075-17.933.075-.906 0-1.484-.974-1.333-1.747.15-.774 1.534-1.747 3.295-2.371 1.76-.624 4.703-2.795 5.76-3.419 1.081-.599 1.71-.798 1.71-.798z"/>
          <path fill="#FFF"
                d="M91.728 120.457l2.313 1.897 1.208.25 1.76-2.995-.075-2.92-1.912-2.296-.955-.474s.955 2.62.075 4.417c-.905 1.797-2.414 2.121-2.414 2.121z"/>
          <path fill="#F28A6A"
                d="M91.375 120.732c.478-.5.73-.824 1.862-.3 1.131.55 1.03.949 1.534.3.503-.649 1.182-1.822.654-3.993-.503-2.071-1.685-3.194-1.811-3.494-.126-.3 1.635-.723 3.395-.624 1.761.125 3.421.3 3.622.6.176.299-1.786 16.794-1.886 17.692-.1.899-1.132 1.348-1.887 1.123-.754-.224-1.584-1.721-2.012-3.518-.427-1.797-2.288-4.941-2.791-6.064-.554-1.073-.68-1.722-.68-1.722z"/>
          <path fill="#C82C2F"
                d="M61.018 36.36s1.081 2.295-1.434 7.086c-2.49 4.792-14.21 15.747-14.21 15.747l-.227-9.732 15.87-13.102z"/>
          <path fill="#F37E4E"
                d="M14.085 54.9c0 1.473-.126 2.172-.377 2.621-.227.45-.654.674-.654.674l5.684-1.198-.403-3.943-3.345.374-1.006.125.1 1.348z"/>
          <path fill="#E84C4F"
                d="M14.965 52.73s.076 1.048.302 2.745c.251 1.697.578 2.595.578 2.595l2.264-.15s.377 1.822 3.069 2.196c2.69.35 5.457.05 12.123-2.22 6.64-2.272 7.922-2.371 10.689-3.719 4.376-2.146 7.57-4.317 11.343-8.11 3.748-3.793 6.766-7.886 5.936-11.205-1.081-4.292-4.1-5.94-6.917-5.915-2.791.05-7.52 2.097-10.865 7.038-2.213 3.27-6.464 7.287-10.186 9.358-3.723 2.096-8.3 3.294-10.136 3.818-1.837.524-2.868.849-3.899 1.697-1.006.849-1.107 1.522-1.107 1.522l-3.194.35z"/>
          <path fill="#F37E4E"
                d="M44.367 24.106c.076.425.755.4 1.308.125.553-.274.83-.723.68-1.073-.152-.35-1.007-.125-1.359.125-.352.225-.704.35-.629.823z"/>
          <path fill="#006BA0"
                d="M55.233 75.613s.628 2.047 2.49 4.118c1.86 2.046 3.52 2.27 2.288.2-1.232-2.047-1.03-4.118-1.03-4.118l-3.748-.2z"/>
          <path fill="#C82C2F"
                d="M18.084 57.945s-.201-1.946-.252-3.12c-.05-1.172.277-2.445.277-2.445s-.905 1.448-1.132 2.92c-.226 1.472-1.157 2.77-1.157 2.77l2.264-.125z"/>
          <path fill="#FFFDFE"
                d="M45.927 71.446s2.288.848 7.092.524c4.804-.324 9.457-.649 12.802-1.947 3.346-1.297 5.307-2.745 5.307-2.745l.202 1.997s-2.868 3.419-12.199 4.267c-9.256.849-10.714.4-11.846.125-1.082-.275-1.207-1.173-1.358-2.221zM46.254 29.222s-.428.075-.503 1.023l-.076.949s2.213.3 5.106-2.646c2.892-2.92 3.823-4.741 3.823-4.741s.126-.2-.428-.923c-.553-.724-.955-.824-.955-.824s.553.824-.076 1.822c-.629.998-3.094 3.818-4.401 4.741-1.308.924-2.39 1.448-2.49.6z"/>
          <path fill="#C82C2F"
                d="M19.618 57.646c1.66 1.347 2.465 1.497 7.546.748 8.4-1.222 18.058-4.741 18.058-4.741s-1.886 1.797-12.148 4.542c-8.878 2.37-10.589 2.695-12.852 1.772-2.264-.899-2.113-2.022-2.113-2.022s-.15-1.846-.251-3.12c-.076-1.272.377 1.673 1.76 2.82z"/>
          <ellipse cx="47.587" cy="17.244" fill="#FF8080" rx="1.258" ry="1.248"/>
          <ellipse cx="39.416" cy="21.054" fill="#FF8080" rx="1.029" ry="1.251"
                   transform="rotate(-33.696 39.416 21.054)"/>
          <path fill="#FFF"
                d="M54.755 138.674s.754 1.398 1.106 1.972c.353.574 1.233.075.83-.55-.402-.623-1.056-1.996-1.056-1.996l-.88.574zM52.868 139.947s.503.923.856 1.497c.352.574 1.232.075.83-.549-.403-.623-.805-1.522-.805-1.522l-.88.574zM92.91 124.2s1.458-.598 2.087-.898c.604-.274.227-1.223-.478-.873-.704.35-2.112.848-2.112.848l.503.924zM93.94 126.197s.982-.4 1.61-.699c.604-.274.227-1.223-.477-.873-.68.324-1.61.649-1.61.649l.478.923z"/>
        </g>
      </g>
    </g>
  </g>
</svg>
