<svg xmlns="http://www.w3.org/2000/svg" width="155" height="246" viewBox="0 0 155 246">
  <g fill="none" fill-rule="evenodd">
    <g fill-rule="nonzero">
      <g>
        <g>
          <path fill="#E91E63" fill-opacity=".12"
                d="M122.18 23.94c-.195-.057-.408-.114-.621-.171-.213-.057-.427-.095-.64-.133-.31-.057-.64-.095-.989-.115-3.606.267-12.485.838-22.663.953-12.31.647-26.094 1.37-31.871 1.37h-2.772c-5.778 0-19.562-.723-31.872-1.37-9.887-.515-18.824-.99-21.83-.99-.213 0-.407 0-.62.018-.426.02-.814.058-1.182.134-.214.038-.427.076-.64.133-.213.057-.427.114-.62.171C.78 25.578.044 31.386.044 35.575c0 .228 0 .457.019.704.02.229.02.438.039.667.02.209.058.437.097.647.64 3.999 3.49 7.121 10.876 7.121h105.87c7.386 0 10.217-3.122 10.876-7.121.039-.21.058-.438.097-.647.02-.21.038-.438.038-.667.02-.228.02-.457.02-.704.02-4.17-.717-9.997-5.797-11.635z"
                transform="translate(-110 -198) translate(110 198) translate(11 200.233)"/>
          <path fill="#C1E5F2"
                d="M125.65 9.431c-.194.686-.388 1.333-.582 1.98L128.77.063c-1.202 3.046-2.23 6.264-3.122 9.368z"
                transform="translate(-110 -198) translate(110 198) translate(11 200.233)"/>
        </g>
        <g transform="translate(-110 -198) translate(110 198) translate(69 .233)">
          <path fill="#ED931B"
                d="M.058 30.574c.193-1.748 2.22-10.977 5.54-17.928C8.92 5.714 12.8 1.924 12.8 1.924l7.761 4.654 3.186 6.441s3.977 4.536 4.44 6.46c.193.786-.405 1.944-.405 1.944s-2.317.806-3.958 1.179c-5.27 1.217-18.726 6.362-20.348 7.344-2.934 1.787-3.417.628-3.417.628z"/>
          <path fill="#FFC166"
                d="M.174 30.063C.367 28.316 2.22 18.988 5.54 12.057c3.32-6.932 7.2-10.722 7.2-10.722l7.761 4.654 3.186 6.44 2.876 6.618-1.911 2.337s-19.614 7.01-21.236 7.992c-2.934 1.748-3.243.687-3.243.687z"/>
          <path fill="#FBE17B"
                d="M13.726 0c3.437.04 7.78 2.494 10.734 7.56 2.2 3.77 3.108 7.894 3.456 10.29.115.824.193 1.767.193 1.767s-.927 0-1.912.53c-.83.432-1.563 1.257-1.563 1.257s-.116-.53-.193-1.002c-.367-2.18-1.236-7.03-4.44-11.782-3.167-4.693-9.036-5.851-9.036-5.851S11.216-.04 13.726 0z"/>
          <ellipse cx="16.613" cy="16.941" fill="#C04120" rx="4.372" ry="3.788"
                   transform="rotate(-53.089 16.613 16.941)"/>
          <ellipse cx="17.801" cy="17.379" fill="#D65941" rx="1.327" ry="1.146"
                   transform="rotate(-53.089 17.801 17.379)"/>
          <ellipse cx="15.445" cy="15.311" fill="#D65941" rx="1.034" ry="1" transform="rotate(-53.089 15.445 15.311)"/>
          <ellipse cx="9.618" cy="12.176" fill="#C04120" rx="3.748" ry="3.264"
                   transform="rotate(-53.089 9.618 12.176)"/>
          <path fill="#C04120"
                d="M6.66 18.144c1.66 1.276 1.854 3.888.425 5.832s-3.958 2.494-5.618 1.218c-.096-.079-.174-.138-.27-.216.502-2.14 1.216-4.693 2.085-7.266 1.158-.432 2.413-.294 3.378.432z"/>
          <ellipse cx="5.271" cy="22.2" fill="#D65941" rx="1.034" ry="1" transform="rotate(-53.089 5.271 22.2)"/>
          <circle cx="9.056" cy="12.411" r="1" fill="#D65941" transform="rotate(-53.089 9.056 12.41)"/>
          <circle cx="14.94" cy="18.085" r="1" fill="#D65941" transform="rotate(-53.089 14.94 18.085)"/>
        </g>
        <g transform="translate(-110 -198) translate(110 198) translate(0 11.233)">
          <g>
            <path fill="#FFA171"
                  d="M7.11.889C6.664-.231 9.08.193 12.054.715c2.956.522 4.386.56 5.197.58.811.019 2.396 1.256 3.825 2.647 1.43 1.41 3.555 2.937 3.555 2.937l-1.275 4.541s-3.033.89-5.197 1.411c-2.144.541-5.931-1.14-7.863-1.97-1.951-.832-2.28-1.141-2.28-1.141L5.97 6.396l.386-1.005 2.53-.077 1.43-.135s5.796-.251 3.323-1.16c-2.511-.927-5.544-.676-6.53-3.13z"
                  transform="translate(0 145.51)"/>
            <path fill="#F37E4E"
                  d="M10.297 5.179s4.212.328 6.55.56c2.337.232 3.09 1.024 2.762 1.99-.367 1.121-.251 2.126-2.087 2.107-1.275 0-4.559-1.14-6.008-2.106-1.816-1.198-1.217-2.551-1.217-2.551z"
                  transform="translate(0 145.51)"/>
            <path fill="#333"
                  d="M18.72 9.314c-.174.483-.715.715-1.198.541L.6 3.343c-.483-.174-.715-.715-.541-1.198.174-.483.715-.715 1.198-.541l16.923 6.512c.483.174.734.715.541 1.198z"
                  transform="translate(0 145.51)"/>
            <path fill="#FFA171"
                  d="M6.453 4.232c1.41.464.27 2.319-.483 3.498-.754 1.178-1.044 1.951-2.28 1.14-1.236-.812-.155-2.107.715-3.189.87-1.063 1.333-1.68 2.048-1.45zM6.395 10.106c1.178.638 1.719-.29 2.357-2.01.637-1.72.56-2.202-.329-2.589-.889-.386-1.372.831-1.816 1.778-.464.947-1.333 2.222-.212 2.821zM9.041 10.86c1.179.638 1.72-.29 2.357-2.01.638-1.72.56-2.203-.328-2.589-.889-.387-1.372.83-1.816 1.778-.464.927-1.333 2.222-.213 2.821z"
                  transform="translate(0 145.51)"/>
          </g>
          <path fill="#FFA171"
                d="M68.525 91.248s.696 5.623.27 6.86c-.405 1.237-8.79 5.623-8.79 5.623s0 6.319 9.602 7.826c9.602 1.508 19.628-4.522 19.628-4.522l2.067-5.217-2.067-.541s-6.182-2.474-7.418-3.015c-1.237-.54-1.507-.83-1.642-2.608-.136-1.778-.27-5.353-.27-5.353l-11.38.947z"/>
          <path fill="#F37E4E"
                d="M74.263 97.74c2.84-.077 5.912-2.086 5.912-2.086l-.136-6.126-11.36.193v3.034l.194 3.034c.02.02 1.854 2.048 5.39 1.952z"/>
          <path fill="#FFA171"
                d="M102.546 125.606s2.338 15.266 2.685 17.43c.368 2.164 1.082 2.686 1.797 3.227.715.541 15.977 6.648 17.233 7.189 1.256.54 1.082 3.053.367 3.768-.715.715.715 1.43-4.85.54-5.563-.888-16.691-3.767-19.202-4.676-2.512-.888-3.42-1.43-3.768-2.512-.367-1.082-4.636-23.536-4.636-23.536l10.374-1.43zM46.173 125.857s-3.15 15.111-3.613 17.256c-.483 2.126-1.217 2.628-1.97 3.13-.754.503-16.306 5.779-17.6 6.262-1.275.464-1.237 2.995-.56 3.749.676.753-.793 1.39 4.81.792 5.603-.6 16.885-2.88 19.435-3.633 2.55-.754 3.478-1.256 3.903-2.319.425-1.063 5.873-23.247 5.873-23.247l-10.278-1.99z"/>
          <path fill="#F37E4E"
                d="M50.384 133.876c-2.202-.772-5.428-1.777-5.428-1.777l-1.855 8.599s1.951 1.874 4.81 2.782c2.86.909 4.347.986 4.347.986l2.125-8.406-3.999-2.184zM141.86 153.471c-1.506.097-5.003 3.498-5.003 3.498l-8.346-1.16 2.84 3.672 3.593.502s1.102 0 2.3-.502c1.197-.503 5.1-4.812 5.505-5.314.425-.483-.888-.696-.888-.696zM97.929 133.374c2.24-.657 5.506-1.488 5.506-1.488l1.41 8.696s-2.048 1.778-4.946 2.531c-2.897.754-4.385.754-4.385.754l-1.68-8.503 4.095-1.99z"/>
          <path fill="#F37E4E"
                d="M144.758 157.143c-1.43-.484-5.95 1.352-5.95 1.352l-7.94-.599 1.913.831.792 1.72s3.361.541 4.656.522c1.294 0 6.549-2.512 7.109-2.822.56-.309-.58-1.004-.58-1.004z"/>
          <path fill="#E84C4F"
                d="M60.971 102.707s-.309-.6-2.704.444c-2.415 1.063-4.27 2.03-4.27 2.03s-3.168 3.014-5.12 7.381c-.81 1.817-2.047 6.145-3.574 9.469-2.144 4.696-4.559 8.31-4.559 8.31s.31 3.767 5.873 6.917c5.564 3.17 9.003 2.976 9.003 2.976l.773-7.633s.599 7.536.154 14.454c-.444 6.918-.599 7.981-1.198 10.242-.598 2.261-2.414 7.227-2.414 7.227l20.768 5.276 10.529-1.198 14.605-4.812s-3.922-7.672-5.12-14.01c-1.198-6.319-2.415-17.623-2.415-17.623l1.662 6.782s6.182 0 10.104-2.26c3.922-2.261 5.448-5.257 5.448-5.257s-2.203-5.179-3.748-10.686c-1.565-5.565-2.454-11.459-2.763-12.367-.599-1.817-9.389-6.88-9.988-7.073-.599-.193-.734.541-.734.541s-3.42 7.46-17.503 8.04c-11.109.444-12.809-7.17-12.809-7.17z"/>
          <path fill="#FFA171"
                d="M135.756 150.476c.54 1.082-3.4 2.802-4.096 3.11-.695.31-2.511 2.3-2.511 2.3l4.694 1.798 1.507-2.3s-.02-1.874.193-2.995c.406-2.106 1.198-1.507 1.198-1.507l.908 5.41s-1.41 3.111-1.797 4c-.405.909-1.796.909-3.303 1.005-1.507.097-8.404-2.3-9.602-2.609-1.198-.309-3.71-1.004-4.405-1.41-.695-.406-.096-3.111 1.295-3.401 1.41-.31 2.898-.908 2.898-.908s2.511-1.508 5.003-1.701c2.512-.193 5.004-.502 6.105-.792 1.12-.31 1.72-.406 1.913 0z"/>
          <path fill="#EDA320"
                d="M24.748 159.751c4.965-2.493 14.103-1.043 21.676.638 7.573 1.681 9.466 2.531 12.403 3.15 2.936.637 9.254 2.319 18.295 1.68 9.041-.637 18.295-2.743 23.357-4.212 5.062-1.468 15.436-4 19.28-3.265 3.845.734 6.8.734 8.482 6.84 1.68 6.107-52.181 18.3-52.181 18.3s-41.865-9.469-47.332-12c-5.448-2.512-8.172-9.024-3.98-11.13z"/>
          <path fill="#FFA171"
                d="M35.103 187.732c.154.503.386 1.102.889 1.256.116.04 1.178-.096 1.255 0 .097.116-.792.406-.772.928.038.87 3.554 2.705 4.598 3.208 1.487.753 5.602 0 9.89-1.121 4.29-1.12 6.164-1.488 7.458-2.048 1.314-.56 2.415-1.682 4.096-2.242 1.68-.56 8.77-2.048 8.77-2.048l-2.8-7.653-8.945 4.097s-3.922-.56-7.264.193c-2.647.58-6.163 1.121-8.771 1.314-2.628.194-9.331.947-8.404 4.116z"/>
          <path fill="#EDA320"
                d="M60.353 186.38s2.956 3.768 4.25 5.72c1.295 1.951 2.203 3.169 3.632.83 1.43-2.338-5.061-9.16-5.061-9.16l-2.82 2.61z"/>
          <path fill="#F37E4E"
                d="M53.398 184.602c2.512.715 3.825 1.546 2.995 3.111-.831 1.565-9.312 5.14-9.312 5.14s6.027-1.256 7.747-1.797c1.739-.56 2.84-.85 4.037-1.333 1.198-.483 2.126-1.508 2.976-1.74.85-.231 4.482-1.1 4.482-1.1l-.6-4.91s-11.513-.27-13.465.349c-1.95.618-6.26 1.198-6.26 1.198s5.739.599 7.4 1.082z"/>
          <path fill="#FFA171"
                d="M111.452 187.732c-.154.56-.715.967-1.371 1.102-.677.135-1.778-.522-2.415-.387-.522.097 1.95.677 2.086.947.715 1.43-3.303 3.266-4.27 3.75-1.487.753-5.602 0-9.89-1.122-4.29-1.12-6.164-1.488-7.458-2.048-1.314-.56-2.415-1.681-4.096-2.242-1.68-.56-8.77-2.048-8.77-2.048l2.8-7.652 8.946 4.096s3.921-.56 7.264.194c2.646.58 6.162 1.12 8.77 1.314 2.608.193 9.35.927 8.404 4.096z"/>
          <path fill="#F37E4E"
                d="M84.058 187.732s2.28 1.74 4.095 2.242c1.816.502 4.579 1.333 4.579 1.333s-1.082-2.628 2.28-4.773c3.342-2.145 8.075-2.898 8.075-2.898l-14.412-2.493-4.617 6.59z"/>
          <path fill="#FFC648"
                d="M20.749 164.215c1.41-4.464 5.97-7.092 15.474-2.802 9.505 4.29 47.912 14.551 47.912 14.551s2.415 3.362-1.68 8.213c-4.096 4.85-4.29 5.043-8.385 4.096-4.096-.927-8.018-5.043-15.282-5.41-7.264-.367-17.658 1.333-27.723-4.27-10.084-5.586-11.63-10.262-10.316-14.378z"/>
          <path fill="#EDA320"
                d="M72.428 174.457s-4.888-2.764-11.457 0c-6.588 2.763-14.006 4.889-19.531 4.889-5.526 0-10.858-2.261-12.964-3.537-2.105-1.275-6.877-4.908-6.877-4.908s1.874 3.266 6.298 5.952c4.424 2.686 8.867 4.56 12.364 5.024 3.497.464 7.225 1.276 10.51 1.16 3.284-.116 8.056-.348 10.857.232s7.94 1.758 7.94 1.758l2.86-10.57z"/>
          <path fill="#FFC648"
                d="M65.666 192.331c-1.16-3.632-.541-5.159-3.941-8.193-1.391-1.237-2.763-1.333-3.69-1.295-1.217.039 1.449-1.024 5.525-3.497 4.598-2.802 11.09-7.15 17.213-9.527 11.553-4.483 32.63-11.382 36.552-11.556 3.922-.193 7.226-2.01 10.838 4.909 3.613 6.918-5.428 12.811-9.91 14.686-2.937 1.217-11.457 4.792-22.469 5.855-5.023.483-10.297 4.02-12.035 4.6-5.043 1.68-15.494 5.719-16.422 5.912-.927.155-1.024.097-1.661-1.894z"/>
          <g>
            <path fill="#F49D3D"
                  d="M25.772 22.339L8.442 28.27c-1.371.464-2.917-.406-3.438-1.932l-.232-.657c-.251-.735-.541-1.295.096-1.527l14.857-5.082.927-.078c.232-.019.464-.096.657-.212l1.082-.638 3.651-1.237c.657-.231.773.406 1.024 1.14l.232.658c.54 1.546-.155 3.169-1.526 3.633z"
                  transform="translate(14.296 55.846)"/>
            <path fill="#75342C"
                  d="M25.405 17.237l-3.188 1.101h-.02l-.675.464c-.252.174-.541.27-.831.27l-.715.02h-.02L16.48 20.29l-.734.367c-.251.155-.599.252-.908.27l-.773.194-2.492.85-.154.136c-.27.25-.928.444-1.295.367L5.661 24c-.966.329-2.087-.386-2.493-1.584-.405-1.198.039-2.454 1.005-2.783l19.744-6.763c.87-.29 1.874.348 2.241 1.43l.155.464c.367 1.062-.039 2.183-.908 2.473z"
                  transform="translate(14.296 55.846)"/>
            <path fill="#EF0000"
                  d="M24.67 12.29L3.13 19.652c-.251.078-.503-.038-.6-.29l-.888-2.608c-.077-.251.039-.503.29-.6l21.54-7.362c.252-.077.503.04.6.29l.888 2.609c.078.251-.058.502-.29.599z"
                  transform="translate(14.296 55.846)"/>
            <path fill="#FFBB12"
                  d="M15.32 17.353c-1.545.792-5.564 3.343-7.36 4.522-.522.348-1.43.966-2.454.25-.213-.154-.386-.25-.386-.25-.657-.425-1.391-.89-1.527-.908-.386-.04-.734 0-.908-.638-.116-.464.02-.831.29-.928l21.734-7.44c.27-.096.58.097.676.426.039.116.425 1.198.31 1.12-1.469-.908-8.211 2.744-10.375 3.846z"
                  transform="translate(14.296 55.846)"/>
            <path fill="#FF979B"
                  d="M10.316 16.251L6.53 17.546c-.116.039-.232-.02-.27-.135l-.522-1.527c-.039-.116.02-.232.135-.27l3.787-1.295c.115-.039.231.02.27.135l.522 1.527c.019.116-.039.232-.136.27z"
                  transform="translate(14.296 55.846)"/>
            <path fill="#C10017"
                  d="M2.01 17.508s-.097.637.733.154c.85-.483 1.063-.966 1.681-.87.638.078 1.893.812 3.284-.425 1.391-1.236 1.565-1.642 2.26-1.488.696.155 1.662.542 2.338-.038.676-.58.6-1.102 1.391-1.082.792.038 1.584.54 3.265.193 1.662-.367 3.748-1.024 4.733-2.068.986-1.043 1.507-1.275 2.048-1.16.541.117.773.097.773.097l-.56-1.661-2.415 1.082-20.208 5.932.676 1.334z"
                  transform="translate(14.296 55.846)"/>
            <path fill="#71BC06"
                  d="M.87 14.068c-.33.657-.715 1.913-.213 2.647.502.735.908.677 1.256.56.347-.115.946-.521 1.313-.888s1.082-.445 1.7-.232c.619.212 2.01.483 3.285-1.005 1.275-1.488 1.893-1.082 2.395-.947.503.135 1.565.135 1.874-.599.31-.734.927-.696 1.778-.56 7.302 1.062 6.723-3.189 9.002-3.092 1.005.038 1.99.367 1.894-.792-.097-1.14-.85-1.566-1.565-1.74-.715-.193-1.237-.695-1.237-.695L.87 14.068z"
                  transform="translate(14.296 55.846)"/>
            <path fill="#6B9E1A"
                  d="M1.236 13.74s-.019.27-.425 1.255c-.521 1.237.194 1.856 1.12 1.527.928-.329 1.218-1.237 1.759-1.643.522-.405 1.236.097 1.855.31.618.232 1.487.29 2.395-1.469.908-1.778 1.797-.754 2.57-.58.792.174 1.313-.232 1.603-1.14.29-.908 1.546-.618 2.84-.522 1.43.097 2.589.812 4.443-.425 1.372-.908 1.488-1.97 2.377-2.203.888-.232 1.796.483 2.202-.25.406-.735-1.043-1.47-1.043-1.47L1.236 13.74z"
                  transform="translate(14.296 55.846)"/>
            <path fill="#F49D3D"
                  d="M8.887.83L8.5.967c-5.834 1.99-9.794 8-8.056 13.102.097.309.425.483.715.386 0 0 2.029-.444 5.796-1.72 3.941-1.352 8.288-3.091 8.288-3.091l1.545-.541c.27-.116 1.836-.619 1.836-.619s1.004-.154 2.163-.56c1.218-.425 2.029-.89 2.029-.89.29-.096.444-.444.328-.772-1.7-5.082-8.539-7.382-14.257-5.43z"
                  transform="translate(14.296 55.846)"/>
            <path fill="#FFE576"
                  d="M4.463 20.503c1.004.87 1.603 1.333 2.221 1.198.619-.135 2.241-1.41 3.536-2.358 1.294-.947 2.917-2.59-.734-1.41-3.632 1.14-6.221 1.526-5.023 2.57z"
                  transform="translate(14.296 55.846)"/>
            <path fill="#FFAE4D"
                  d="M8.095 1.7c-2.57.638-5.12 2.61-6.685 5.817-1.14 2.358-.715 6.087-.386 6.358.135.116 3.091-.56 6.51-1.836 4.792-1.778 8.578-2.957 9.1-3.324.54-.328-2.473-8.541-8.54-7.014zM19.706 23.826l-3.903 1.334s-1.005.174-2.318.637c-.754.252-1.758.754-1.758.754l-3.265 1.12c-1.295.445-2.724-.347-3.207-1.738l-.348-1.024c-.058-.155.02-.329.174-.387 0 0 4.598-1.237 8.017-2.415 3.729-1.276 6.994-2.725 6.994-2.725.154-.058.309.039.367.193l.502 1.45c.367 1.178-.193 2.434-1.255 2.801z"
                  transform="translate(14.296 55.846)"/>
            <path fill="#8E4640"
                  d="M9.293 21.817c.135.502 1.236.154 1.777-.31.54-.463 1.661-.405 2.048-.425.386-.019 1.004-.29 1.41-.753.406-.464 1.063-.483 1.488-.406.425.077 2.395-.812 1.874-.966-.56-.155-2.396-.483-2.821-.29-.425.174-1.063-.039-1.507.502-.425.541-1.024.715-1.372.715-.347 0-2.897 1.933-2.897 1.933z"
                  transform="translate(14.296 55.846)"/>
            <path fill="#FFF"
                  d="M4.057 6.493c.077.27-.116.56-.444.638-.329.077-.638-.058-.715-.329-.077-.27.116-.56.444-.638.329-.096.657.058.715.329zM8.114 6.358c.097.25-.077.56-.386.695-.31.116-.638 0-.734-.251-.097-.251.077-.56.386-.696.309-.116.637 0 .734.252zM17.62 3.015c.076.27-.117.56-.445.657-.329.096-.638-.058-.715-.31-.077-.27.116-.56.444-.657.31-.096.638.039.715.31zM12.538 1.72c.058.27-.154.54-.464.618-.328.077-.637-.096-.695-.367-.058-.27.155-.541.464-.618.309-.058.637.096.695.367zM6.858 2.976c-.096-.251.078-.56.387-.696.309-.116.637 0 .734.251.096.252-.077.56-.387.696-.309.135-.637.02-.734-.251zM14.354 5.314c.077.27-.116.56-.444.657-.329.097-.638-.058-.715-.31-.077-.27.116-.56.444-.656.31-.097.638.039.715.31z"
                  transform="translate(14.296 55.846)"/>
          </g>
          <g>
            <path fill="#75AA00"
                  d="M22.874 13.604s3.091 1.353 6.568.541c3.459-.83 4.154-.927 4.54-.502.387.425.367 1.256-.927 2.435-1.275 1.178-4.289.792-6.993-.136-2.705-.927-5.912-2.976-5.912-2.976l2.724.638z"
                  transform="translate(6.762 11.015)"/>
            <path fill="#638E10"
                  d="M20.092 14.068s4.076 4.425 7.283 6.744c3.207 2.319 6.8 1.642 7.573-.928.792-2.57-.444-2.763-3.863-3.033-3.4-.29-11.09-3.75-10.993-2.783z"
                  transform="translate(6.762 11.015)"/>
            <path fill="#75AA00"
                  d="M19.358 15.015s3.477 2.067 4.424 6.222c.927 4.155.753 5.102 3.226 4.928 2.473-.174 4.714-1.45 2.744-3.595-1.971-2.145-11.244-10.183-11.244-10.183l.85 2.628z"
                  transform="translate(6.762 11.015)"/>
            <path fill="#E63C00"
                  d="M.155.58C-.735 2.454 2.937 8.908 7.67 13.68c4.752 4.754 10.625 8.464 14.875 2.783 4.25-5.681-.502-10.435-4.675-11.15C13.697 4.6 7.206 2.145 5.41 1.701 3.592 1.256.752-.676.154.58z"
                  transform="translate(6.762 11.015)"/>
            <path fill="#FF5E17"
                  d="M1.855 4.6c3.4 4.25 8.423 8.482 11.92 10.26 3.187 1.623 7.38 1.16 9.988-.599 1.777-4.676-2.28-8.348-5.893-8.966C13.697 4.58 7.206 2.125 5.41 1.68 4.037 1.353 2.066.155.946.135.908.792.097 2.396 1.855 4.6z"
                  transform="translate(6.762 11.015)"/>
            <path fill="#E63C00"
                  d="M17.31 5.488c.811.31 1.352.773.425 2.628-.927 1.874-2.473 3.672-1.97 1.643.502-2.03.695-3.208.714-3.691.02-.483.27-.793.831-.58zM10.8 6.88c-1.025 1.352-2.493 2.724-1.74 3.13.735.406 1.527-.213 2.242-1.817.715-1.584 1.082-2.763.811-2.763-.29 0-1.314 1.45-1.314 1.45zM21.097 12.503c-.619 1.526-1.7 3.15-.831 3.42.87.27 1.468-.502 1.72-2.203.25-1.7.27-2.937 0-2.88-.29.04-.89 1.663-.89 1.663zM4 3.266c-.716.889-1.798 1.68-1.199 2.203.6.521 1.179.174 1.642-.986.483-1.16.696-2.068.483-2.125C4.714 2.3 4 3.266 4 3.266z"
                  transform="translate(6.762 11.015)"/>
          </g>
          <g transform="translate(111.858 60.484)">
            <path fill="#F49D3D"
                  d="M14.934.155C7.36-.502.734 4.773.116 11.923c-.618 7.15 5.023 13.469 12.596 14.126s14.2-4.619 14.818-11.769C28.148 7.13 22.507.792 14.934.155zm-1.372 17.41c-3.361-.29-5.93-2.589-5.7-5.12.213-2.532 3.13-4.368 6.492-4.078 3.362.29 5.931 2.59 5.7 5.121-.213 2.55-3.13 4.367-6.492 4.077z"/>
            <path fill="#9B5033"
                  d="M25.617 7.073c-1.352-2.32-3.94-5.585-7.592-6.358C14.373-.058 8.5-1.025 4.463 3.787 2.994 5.546 3.4 7.15 2.627 8.406 1.855 9.662.04 12.058.6 13.7c.58 1.642 1.545 1.352 2.318 1.932.773.58 1.256 2.03 1.546 3.266.29 1.256.386 2.976 2.588 3.749 2.222.773 3.072.193 4.521-.097 1.45-.29 2.686-.097 4.328.483 1.642.58 2.878 1.256 4.134-.29 1.256-1.546 1.739-3.169 3.555-4.618 1.835-1.45 2.975-1.836 3.071-4.425.116-2.59.31-4.329-1.043-6.628zm-5.564 6.415c-.966 1.276-1.159 2.435-3.09 2.918-1.933.483-3.845.58-5.294 0-1.45-.58-2.589-.58-3.169-2.126-.58-1.546-1.159-3.072-1.159-4.618 0-2.416.676-3.17 2.222-2.88 1.546.29 2.415.677 3.265-.386.87-1.063 2.222-1.352 3.265-.58 1.062.773.483 1.74 1.835 2.126 1.353.387 2.222.29 2.686 2.03.483 1.719.425 2.24-.56 3.516z"/>
            <ellipse cx="10.471" cy="2.821" fill="#FFA1B3" rx="1.217" ry="1"/>
            <ellipse cx="18.768" cy="18.397" fill="#FFA1B3" rx="1.217" ry="1"
                     transform="rotate(-15.065 18.768 18.397)"/>
            <ellipse cx="19.512" cy="4.845" fill="#FFA1B3" rx="1" ry="1.217" transform="rotate(-45 19.512 4.845)"/>
            <ellipse cx="4.963" cy="12.769" fill="#FFA1B3" rx="1" ry="1.217" transform="rotate(-74.668 4.963 12.769)"/>
            <ellipse cx="13.04" cy="18.087" fill="#FFA1B3" rx="1.217" ry="1"/>
            <ellipse cx="21.695" cy="7.652" fill="#FFA1B3" rx="1.217" ry="1"/>
            <ellipse cx="8.404" cy="17.179" fill="#FFA1B3" rx="1.217" ry="1"/>
          </g>
          <g>
            <path fill="#C66D1E"
                  d="M2.666 15.865s.232.618.155 1.391c-.078.696-.619 1.469-.464 2.3.193 1.082.27 3.497 1.468 4.676 1.198 1.179 3.381 2.995 3.381 2.995l4.076-.25s-.405-.986-.019-2.05c.386-1.081 1.68-3.072 1.68-3.072s-.308-.85.155-1.526c.464-.696 1.391-1.469 1.391-1.469l4.676-6.377s-.232-.695.695-1.16c.927-.463 1.314-1.004 1.314-1.004l1.912-2.531s-.077-.464.619-.696c.695-.232 1.313-.232 1.313-.232l-1.7-5.45s-.618.31-1.159.078c-.54-.232-1.835-.928-1.835-.928l-5.757 1.604s-.773.464-1.604.619c-.85.154-2.144-.078-2.144-.078l-8.153 13.16z"
                  transform="translate(125.96 12.56)"/>
            <path fill="#F49D3D"
                  d="M13.833 14.84c1.719-1.95 2.453-3.67 2.781-4.734.329-1.062.155-1.874.155-1.874h.02c-1.43-2.068-3.285-4.6-4.772-5.643C9.524.831 6.684 1.47 2.53 6.087-.097 9.005-.386 11.497.927 14.261c1.063 2.222 4 3.517 6.994 4.541.753-.232 2.511-.811 3.38-1.45 1.14-.791 2.532-2.511 2.532-2.511zM21.097 7.807c1.468-1.391 1.777-3.324 1.796-3.498-.135-.444-.309-.908-.521-1.43C21.058-.483 20.015-.058 17.407.386c-3.362.58-3.207 2.049-2.782 3.498.386 1.295 1.236 2.705 2.955 4.541.966.232 2.512.348 3.517-.618zM9.505 22.938c.077-1.875-.58-2.86-.58-2.86L8.848 20c-1.72-.483-3.69-1.101-4.868-1.642-1.604-.735-1.758-.445-1.894 1.16-.154 1.603.735 3.497 1.314 4.81.58 1.315 2.338 1.315 4.81 1.315 0 .02 1.218-.831 1.295-2.705zM8.481 26.107c-.753.038-1.507.038-1.893.038-.715 0-.638.503.135 1.508.58.753.85 1.623 1.874 2.087.29-.329.541-.715.599-1.16.097-.908-.386-1.913-.715-2.473zM25.675 4.618c1.043-.309 1.913-.927 2.415-1.333-.251-.618-1.062-.889-1.893-1.12-1.237-.33-3.516-1.508-3.381-.464.058.483.348 1.758.58 2.82.482.213 1.294.407 2.28.097z"
                  transform="translate(125.96 12.56)"/>
            <path fill="#DD8A37"
                  d="M16.692 16.619c2.048-2.493 3.072-4.387 2.183-5.411-.348-.406-1.12-1.604-2.087-2.976h-.019s.155.812-.155 1.874c-.328 1.063-1.062 2.783-2.781 4.735 0 0-1.391 1.72-2.531 2.531-.87.619-2.628 1.198-3.381 1.45.734.25 1.487.483 2.202.715 3.632 1.159 4.52-.445 6.569-2.918zM22.526 9.314c.985-1.353 1.14-2.609.367-4.985-.02.173-.309 2.087-1.796 3.497-1.024.966-2.55.831-3.497.638.212.232.444.464.695.715 2.183 2.183 3.072 1.739 4.231.135zM12.306 23.633c1.16-1.758.87-2.493-.29-2.782-.521-.136-1.758-.445-3.168-.85l.077.077s.657.985.58 2.86c-.077 1.874-1.294 2.744-1.294 2.744 2.492-.02 2.917-.31 4.095-2.049zM11.282 26.996c.29-1.025-.367-1.276-1.081-1.063-.348.096-1.024.154-1.72.174.329.56.812 1.584.696 2.473-.058.445-.29.85-.6 1.16.33.154.735.27 1.237.328 1.526.155 1.179-2.068 1.468-3.072zM25.018 6.88c.986-.33 2.222-.774 2.937-2.339.232-.522.251-.927.135-1.237-.502.406-1.372 1.005-2.415 1.334-.985.29-1.797.116-2.28-.078.116.484.213.909.271 1.218.193.966.386 1.43 1.352 1.101z"
                  transform="translate(125.96 12.56)"/>
          </g>
          <path fill="#FFA171"
                d="M73.857 93.296c3.748 0 6.569-.251 8.365-2.222 1.797-1.971 2.396-2.899 2.898-5.971.503-3.073 1.526-6.996 1.526-6.996l-1.622-8.618-13.04-7.073-8.27 5.121-2.646 6.744s1.507 7.189 2.376 11.44c.87 4.251 1.72 4.696 3.014 5.971 1.294 1.276 4.501 1.604 7.4 1.604z"/>
          <path fill="#5E2D1E"
                d="M71.983 64.001s-3.458 1.488-6.414 3.787c-2.956 2.3-3.786 5.257-3.786 7.904 0 2.628 1.159 6.57 1.642 10.03.502 3.458.174 5.1-.985 6.898-1.16 1.816-1.99 2.724-1.643 1.623.348-1.101 1.024-2.647.85-4.947-.173-2.3-1.526-6.57-1.874-9.565-.347-2.996-1.023-6.996.426-11.517 1.448-4.522 5.97-7.672 8.017-8.619 2.048-.947 3.149-2.048 7.844-1.198 4.694.85 6.742 2.126 10.239 3.246 3.496 1.102 3.921 4.174 4.27 6.493.347 2.32.598 4.445-.078 8.967-.676 4.521-1.7 7.169-2.82 8.966-1.102 1.797-1.527 3.246-.773 5.372.772 2.126 1.7 4.02.502 2.821-1.198-1.198-1.642-2.029-2.55-3.749-.773-1.449.174-4.367.56-7.459.386-3.13.29-5.004.29-7.13 0-2.126-.773-5.295-3.574-6.821-2.82-1.566-9.293-3.324-10.143-5.102z"/>
          <path fill="#5E2D1E"
                d="M69.761 60.02s-1.313-1.391-1.99-3.285c-1.584-4.444-1.854-12.541 10.472-11.807 11.688.677 10.142 9.682 7.457 14.435-1.41 2.493-3.729 4.039-3.729 4.039l-12.21-3.382z"/>
          <path fill="#FFA171"
                d="M89.428 79.673c0 2.145-1.661 3.903-3.322 3.903-1.681 0-3.034-1.739-3.034-3.884 0-2.145 1.353-3.884 3.034-3.884 1.66 0 3.322 1.72 3.322 3.865z"/>
          <ellipse cx="61.488" cy="81.061" fill="#FFA171" rx="3.246" ry="3.807"
                   transform="rotate(-12.492 61.488 81.061)"/>
          <path fill="#AF4C31"
                d="M65.994 71.634c.27.058 1.97-.715 2.628-.85.676-.136 1.024-.406.753-.812-.27-.406-.947-.135-1.468.135-.522.27-2.318 1.43-1.913 1.527z"/>
          <path fill="#5E2D1E"
                d="M65.82 76.813c.29.232 1.295-.097 2.319-.406 1.024-.31 1.738-.348 2.048-.444.309-.097.135-.85-.174-.947-.31-.097-1.333.096-2.415.58-1.063.502-2.01 1.043-1.778 1.217z"/>
          <path fill="#AF4C31"
                d="M79.402 71.634c-.27.058-1.97-.715-2.628-.85-.676-.136-1.024-.406-.753-.812.27-.406.947-.135 1.468.135.522.27 2.318 1.43 1.913 1.527z"/>
          <path fill="#5E2D1E"
                d="M80.464 75.827c-.25.29-1.294.174-2.357.078-1.062-.097-1.777 0-2.105-.02-.329-.02-.31-.811-.02-.947.29-.154 1.333-.174 2.473.078 1.16.25 2.183.58 2.01.811z"/>
          <path fill="#F37E4E"
                d="M72.466 79.267c.908.097 2.203 1.179 2.318 1.74.097.405-.135.985-1.7 1.062-1.564.097-2.588-.27-2.415-.986.194-.695 1.334-1.855 1.797-1.816z"/>
          <path fill="#AF4C31"
                d="M72.428 85.547c-2.512 0-4.231-.985-4.328-1.043-.212-.116-.27-.387-.155-.58.116-.213.387-.27.58-.155.02.02 2.318 1.334 5.37.793 3.362-.58 4.406-1.952 4.406-1.971.135-.194.405-.232.598-.097.194.135.232.406.097.6-.039.076-1.217 1.66-4.965 2.318-.54.097-1.101.135-1.603.135z"/>
          <ellipse cx="73.586" cy="87.408" fill="#F37E4E" rx="1.642" ry="1" transform="rotate(-6.338 73.586 87.408)"/>
          <path fill="#F37E4E"
                d="M61.937 79.267l.889 3.44s-1.97.695-2.55-1.14c-.58-1.856 1.661-2.3 1.661-2.3zM85.835 78.223l-.193 3.556s1.97.232 2.164-1.7c.212-1.933-1.971-1.856-1.971-1.856z"/>
          <path fill="#5E2D1E"
                d="M81.314 61.817c-3.69 0-7.264-1.739-7.457-1.835l.387-.773c.057.038 6.298 3.072 10.49 1.043 1.797-.87 2.994-2.57 3.535-5.043.715-3.324.329-5.72-1.178-7.15-2.86-2.725-8.887-1.121-8.945-1.102l-.116.039-.116-.039c-.058-.02-6.394-1.855-9.698.58-1.275.947-1.951 2.435-1.99 4.425-.058 3.382 1.468 5.894 4.56 7.44 2.337 1.179 4.713 1.353 4.733 1.353l-.058.87c-.097 0-10.259-.774-10.104-9.663.038-2.28.83-4 2.337-5.101 3.42-2.512 9.39-.986 10.336-.735.927-.232 6.627-1.526 9.64 1.334 1.74 1.642 2.222 4.328 1.43 7.942-.599 2.763-1.951 4.657-4 5.642-1.178.56-2.491.773-3.786.773z"/>
          <path fill="#FFF8D4"
                d="M40.744 130.34s.213 3.826 5.448 6.899c5.525 3.246 9.428 2.995 9.428 2.995l.328-2.899s-4.404.329-8.635-2.666-5.255-6.706-5.255-6.706l-1.314 2.377zM60.971 102.707s-.096-.445-1.236-.116c-.696.193-1.468.56-1.468.56s1.275 3.865 5.467 6.725c4.192 2.86 9.814 2.57 13.156 2.203 3.574-.406 8.192-1.43 11.437-3.71 3.246-2.28 5.429-6.203 5.429-6.203s-1.063-.657-1.758-.89c-.425-.134-.522-.018-.734.542-.213.56-2.164 3.073-5.448 5.005-3.091 1.836-7.052 2.725-11.399 2.937-4.617.232-8.23-1.005-10.007-2.338-1.72-1.314-3.13-3.459-3.439-4.715zM92.346 136.582s4.366.27 8.288-1.643c4.52-2.203 6.935-5.913 6.935-5.913l.947 2.377s-1.642 3.324-5.448 5.256c-3.787 1.933-4.656 1.74-6.298 2.03-1.642.289-3.806.212-3.806.212l-.618-2.32z"/>
          <path fill="#FFC648"
                d="M79.788 57.006s1.662-.058 4.83 1.449c1.72.812 2.492 1.74 2.492 1.894l.792 2.067s-2.57-1.004-5.1-1.758-4.656-.754-4.656-.754l1.642-2.898z"/>
          <path fill="#EDA320"
                d="M82.261 58.59c-.116.986-.232 1.875-.232 1.875l-2.048-.406-.058-2.048-.135-1.005s.483-.097 1.179.135c.695.232 1.12.29 1.12.29s.232.638.174 1.16z"/>
          <path fill="#FFC648"
                d="M73.838 56.155c1.739-1.545 3.864-3.091 5.429-2.318 1.545.773 1.545 1.739 1.159 5.236-.387 3.479-1.16 5.43-2.705 3.285-1.546-2.125-4.463-3.671-4.463-3.671l.58-2.532z"/>
          <path fill="#FFC648"
                d="M67.675 54.339c-1.874.425-.638 3.285-.502 5.43.135 2.145.135 3.923 1.39 2.899 1.256-1.005 4.695-4 4.695-4l.58-2.513s-3.381-2.454-6.163-1.816z"/>
          <path fill="#EDA320"
                d="M74.012 56.986s1.217-.734 1.97-.946c1.43-.426 1.45.714 1.565 1.72.116 1.024-.908 1.739-1.99 1.197-1.082-.54-1.854-1.082-1.854-1.082l.309-.889zM72.447 56.697s-.83-.657-1.604-.773c-.772-.116-1.487.946-1.43 1.835.059.89.522 2.397 1.43 1.855.889-.54 2.145-1.43 2.145-1.43l-.541-1.487z"/>
          <path fill="#FFC648"
                d="M74.92 57.43c0 .948-.193 1.547-1.45 1.72-1.313.175-1.564-.753-1.429-1.777.116-.947-.116-1.759 1.43-1.681 1.738.077 1.449.773 1.449 1.739z"/>
          <path fill="#E91E63" fill-opacity=".12"
                d="M59.155 11.227c-.096-.02-.174-.058-.27-.077-.425-.097-.83-.174-1.275-.232-.425-.02-.87-.039-1.295-.039-.212 0-.444 0-.656-.019-.232 0-.445.02-.677.039-.463.019-.927.038-1.41.038-.676.02-1.39.116-2.086.252-.696.193-1.391.347-2.029.56.386-.116.773-.174 1.179-.27.386-.078.792-.174 1.178-.232l1.198-.174c.193-.02.405-.058.599-.078l.599-.038c.405-.02.792-.039 1.197-.039.406 0 .792.039 1.179.077.386.039.773.078 1.159.136.386.096.753.174 1.12.29-.309.212-.676.367-1.081.347-.483-.058-.986-.058-1.469-.096-.25 0-.483-.02-.734-.02-.25.02-.483.02-.734.039 0-.097-.02-.29-.039-.386-.347.077-.695.135-1.023.173-.348.04-.677.116-1.024.155-.348.058-.677.097-1.024.135-.329.058-.676.116-1.005.174-1.352.232-2.685.638-3.902 1.392.116.019.096.096.096.173h-.02.02c0 .058.039.097.193.02-.154.058-.193.02-.193-.02 2.512-1.14 5.081-1.739 7.805-1.816-2.106.116-4.173.56-6.143 1.295-1.97.734-3.883 1.68-5.719 2.86-.154.096-.463.29-.618.405-.773.174-1.449.542-2.01 1.005-.154-.483-1.39-.753-.038-1.565l-.232-.31c-.792.29-1.487.29-1.932.097-.425-.212-.483-.772.078-1.468 1.333-1.546 3.709-2.609 5.757-3.788 1.507-.83 3.11-1.546 4.83-1.855 2.357-.386 4.907-.908 7.283-.618.425.039 1.005-.02 1.545-.058.541-.02 1.005.02 1.218.174.29.154.29.367.231.599-.676-.058-1.371-.135-2.047-.097H55.407l-.502.039c-.83.039-1.661.039-2.492.135-.406.039-.83.077-1.256.116-.406.058-.83.116-1.256.174.406-.039.831-.097 1.237-.135.425-.02.83-.058 1.256-.097.83-.116 1.68-.116 2.511-.193l.502-.02.503.02 1.004.039c.329.019.676.019 1.005.058.328.038.657.096 1.004.135-.058.193-.115.406-.058.599 0 0 .406.02.6.039.772.54.463 1.198.057 1.661-.135.097-.25.194-.367.29zM145.377 70.417c.116-.155.212-.29.328-.445.985-1.372 1.874-2.802 2.705-4.328.425-.754.792-1.546 1.198-2.358.173-.406.367-.812.56-1.237.193-.425.386-.83.54-1.275 1.025-2.416 1.778-5.353 2.145-7.942-.908 6.164-3.71 12.251-7.244 17.043.27-.54.58-1.198 1.023-1.913.56-.83 1.044-1.72 1.527-2.57.25-.425.463-.87.676-1.314.212-.444.463-.87.637-1.333.039.02.097.039.136.058 1.1-2.57 1.99-5.121 2.608-7.749.599-2.628.908-5.333.714-8.116-.019.193-.057.077-.077.039v-.04.04c-.02-.04-.038-.02-.02.328-.018-.348 0-.367.02-.328.193 5.468-1.004 10.59-3.284 15.575 1.758-3.865 2.86-7.962 3.168-12.136.31-4.174-.232-8.425-1.623-12.522-.115-.348-.367-1.043-.521-1.391-.444-1.41-1.063-2.763-1.835-4.02.173.097.154-.212.27-.231.116-.02.406.25 1.082 1.604.039-.02.096-.058.135-.078-.599-1.391-1.043-2.357-1.082-2.705-.038-.348.464-.058 1.314 1.275.947 1.488 1.797 3.382 2.453 5.43.657 2.049 1.121 4.252 1.41 6.377.194 1.546.271 3.111.252 4.677-.039.773-.039 1.565-.155 2.338-.038.386-.096.773-.135 1.16-.058.386-.135.772-.193 1.159-.386 2.106-.966 4.27-1.7 6.377-.754 2.087-1.7 4.116-2.724 5.97-.387.658-.87 1.605-1.352 2.436-.503.83-.947 1.565-1.198 1.855-.367.425-.445.405-.464.27 1.391-2.087 2.666-4.251 3.729-6.512 1.333-2.744 2.395-5.623 3.09-8.618-.714 2.917-1.757 5.816-3.09 8.618-1.063 2.242-2.357 4.367-3.729 6.396-.02-.116-.039-.232-.193-.154 0 0-.425.618-.638.947-1.024 1.14-1.024.657-.753-.058.116-.174.193-.387.29-.6zM63.599 1.874c-.155-.038-.31-.058-.464-.096-2.86-.483-5.757-.483-8.964-.251-2.241.135-4.772.676-6.936 1.314 2.57-.715 5.274-1.198 7.98-1.372 2.704-.194 5.39-.02 7.9.405-.52.02-1.14.058-1.854-.019-1.7-.154-3.4-.232-5.08-.135v-.155c-2.396.193-4.695.464-6.956.966-2.26.503-4.482 1.218-6.646 2.261.174-.038.078.02.058.058l-.038.02.038-.02c-.019.039 0 .039.27-.077-.27.116-.289.116-.27.077 4.309-1.893 8.675-2.918 13.37-3.13-1.817.096-3.613.309-5.39.657-1.759.348-3.498.83-5.198 1.43-3.4 1.198-6.665 2.86-9.717 5.005-.27.174-.773.56-1.024.734-1.082.676-2.106 1.45-3.033 2.319.038-.174-.232-.116-.27-.232-.04-.097.115-.406 1.12-1.217-.02-.039-.077-.097-.097-.116-1.062.773-1.816 1.275-2.125 1.333-.309.077-.154-.406.792-1.353 2.125-2.145 5.525-4.309 8.752-6.01 2.357-1.236 4.849-2.241 7.418-2.898C50.79.483 54.77-.097 58.421.097c.657 0 1.565.038 2.396.058.83.058 1.565.116 1.893.212.464.097.464.193.386.27-2.144-.25-4.308-.347-6.433-.29-2.608.059-5.235.368-7.805.91 2.531-.484 5.14-.813 7.805-.91 2.125-.038 4.25.078 6.356.349-.077.077-.174.135-.058.232 0 0 .638.096.966.135 1.275.367.889.599.232.695-.174.097-.367.097-.56.116zM124.28 16.097c-.077-.077-.154-.174-.212-.251-.696-.715-1.43-1.43-2.241-2.03-.812-.618-1.642-1.275-2.531-1.932-.6-.502-1.275-.985-2.01-1.372-.714-.406-1.448-.811-2.144-1.12 3.188 1.777 6.453 3.922 8.752 6.686-.425-.04-.87-.155-1.256-.464-.212-.193-.425-.406-.657-.6-.232-.193-.444-.366-.676-.56l-1.372-1.082c.058-.077.155-.232.213-.309-.715-.406-1.41-.812-2.067-1.275-.329-.232-.657-.445-1.005-.657l-1.004-.638c-.329-.232-.677-.425-1.024-.6-.348-.192-.696-.366-1.063-.54-.715-.329-1.488-.6-2.26-.792.096.077 0 .135-.039.193h-.02.02c-.039.038-.039.077.135.154-.174-.077-.174-.116-.135-.154 2.975 1.063 5.583 2.608 8.133 4.56-2.028-1.45-4.134-2.686-6.356-3.671-2.221-.967-4.54-1.7-6.897-2.068-.193-.039-.598-.097-.81-.116-.774-.386-1.604-.502-2.339-.464.078-.25-.096-.599-.096-.889 0-.27.212-.502 1.082-.405v-.387c-.889-.251-1.546-.657-1.874-1.043-.31-.387.096-.947 1.14-1.18 1.197-.231 2.53-.134 3.883.136.676.097 1.352.31 2.028.464.657.193 1.333.367 1.99.522.927.27 1.874.54 2.763.927.908.348 1.758.792 2.57 1.314.56.348 1.12.735 1.7 1.082.579.368 1.158.715 1.7 1.121.56.387 1.1.792 1.642 1.179.521.425 1.023.87 1.487 1.314.715.599 2.164 1.391 2.357 1.913.174.31.058.483-.135.638-.58-.483-1.16-.967-1.758-1.45-.6-.444-1.217-.908-1.816-1.352-1.45-1.14-2.956-2.223-4.502-3.285 1.488 1.101 2.995 2.164 4.502 3.285l1.739 1.41c.56.483 1.12 1.005 1.661 1.488-.174.116-.328.252-.386.445 0 0 .347.29.54.425.406.947-.212 1.314-.869 1.41-.116.02-.29.02-.483.02z"/>
          <path fill="#E91E63" fill-opacity=".12"
                d="M140.72 59.325l.194-.194c.27-.309.54-.637.792-.985.251-.329.444-.715.657-1.082.212-.367.425-.754.637-1.14.194-.406.387-.812.6-1.218.675-1.14.985-2.59 1.255-3.865-.212.735-.386 1.488-.676 2.223-.135.367-.251.734-.406 1.101-.174.348-.328.696-.502 1.063-.31.715-.734 1.372-1.16 2.01-.405.637-.927 1.217-1.448 1.739-.039-.367-.02-.754.193-1.102.31-.386.522-.811.792-1.217.232-.406.502-.812.696-1.237.096.039.27.116.347.155.174-.657.464-1.276.696-1.875l.348-.927c.115-.31.25-.6.347-.928.097-.309.193-.637.29-.947.039-.154.097-.309.135-.483l.078-.483c.058-.328.096-.657.116-.985.019-.329-.02-.677-.04-1.005-.057.096-.134.038-.192 0v-.02.02c-.058-.02-.097-.02-.116.154.02-.154.058-.174.116-.154-.097 2.609-.812 5.043-2.048 7.362 1.797-3.671 2.299-7.749 1.661-11.73-.038-.173-.096-.502-.135-.676.135-.715.058-1.45-.174-2.067.502 0 1.198-1.044 1.468.444.097-.02.27-.077.368-.116.019-.812.25-1.45.56-1.836.328-.367.908-.212 1.371.58.503.889.773 2.029.947 3.208.058.599.135 1.198.155 1.797.019.31.038.599.077.908.02.29.02.6.058.889.077.87.02 1.72-.02 2.57-.057.425-.115.85-.193 1.276-.038.212-.077.425-.135.637-.058.213-.135.406-.193.619-.213.56-.367 1.14-.58 1.68-.212.561-.425 1.122-.637 1.701-.502 1.082-.985 2.203-1.72 3.092-.231.348-.425.87-.656 1.333-.252.445-.483.85-.715.947-.27.174-.445.078-.618-.077l.54-.83.27-.426c.078-.135.155-.29.233-.425l.927-1.74c.348-.714.715-1.449 1.082-2.183.155-.367.31-.754.483-1.12.154-.387.348-.754.464-1.14-.136.386-.329.733-.503 1.12-.174.367-.328.734-.483 1.12-.347.735-.695 1.47-1.043 2.223l-1.005 1.681-.25.425-.29.406c-.194.27-.387.522-.56.792-.136-.135-.29-.29-.503-.328 0 0-.213.328-.31.502-.81.406-1.274-.154-1.487-.734-.077-.193-.116-.348-.154-.502zM12.055 53.392c-.038-.077-.077-.174-.096-.251-.657-1.507-1.546-2.918-1.971-4.715-.232-1.276-.638-2.667-.715-3.98.02 1.526.329 3.091.812 4.56.483 1.488 1.081 2.879 1.622 4.29-.367-.116-.695-.329-.927-.696-.464-.908-.85-1.855-1.217-2.783.097-.038.27-.116.348-.154-.676-1.237-.966-2.648-1.063-4.02-.096-1.391-.058-2.744-.077-4.212-.058.096-.135.019-.193 0v-.02.02c-.058-.02-.097-.02-.116.154.02-.174.077-.193.116-.154-.31 2.879.038 5.604.946 8.27-.753-2.048-1.217-4.232-1.217-6.473.02-2.223.522-4.483 1.546-6.532.077-.174.27-.522.367-.695.637-.542 1.14-1.121 1.642-1.74.116.232.502.348.695.541.194.194.232.445-.25.967.077.058.231.174.308.212.58-.425 1.256-.483 1.623-.212.387.25.638.599.445 1.16-.213.598-.6 1.236-.966 1.912-.367.677-.677 1.45-.773 2.222-.155 1.121-.155 2.184-.251 3.305-.078.773.019 1.604.193 2.435.193.83.444 1.642.637 2.473.097.29.348.638.56.966.232.31.406.619.368.831.02.27-.155.387-.367.483-.56-.908-1.063-1.816-1.45-2.782-.405-1.198-.637-2.435-.617-3.633-.097 1.198.154 2.435.618 3.633.328.966.772 1.913 1.275 2.86-.193.077-.387.154-.503.328l.29.406c-.019.83-.657 1.101-1.255 1.082-.078-.02-.232-.039-.387-.058zM53.707 93.122l-.174-.058c-1.043-.251-2.086-.135-3.226-.367-.792-.232-1.72-.212-2.55-.328 1.913.444 3.922.405 5.796 1.004-.174.232-.387.426-.657.445-.638-.077-1.256-.135-1.893-.193v-.387c-.89.135-1.74-.038-2.59-.232-.85-.193-1.68-.406-2.646-.386.058.058 0 .135-.039.193h-.019.02c-.02.058-.02.097.077.116-.116-.02-.116-.077-.078-.116 1.836.348 3.459.58 5.197.812-1.352-.116-2.685-.232-4.076-.445-1.391-.251-2.82-.56-4.328-1.43-.135-.077-.386-.232-.521-.328-.348-.619-.754-1.063-1.217-1.778.25-.039.502-.348.753-.483s.464-.097.754.348c.077-.058.212-.194.27-.27-.154-.503.135-1.006.599-1.199.097-.058.174-.116.29-.155.038-.019.096-.038.135-.058l.116-.058c.174-.058.328-.096.406-.154.174-.077.405.154.753.367.329.213.792.464 1.294.522.715.116 1.469.174 2.222.483 1.043.444 2.3.406 3.458.792.425.097 1.16-.212 1.391.058.155.135.174.348.155.56-.715 0-1.43 0-2.106-.057-.85-.116-1.7-.29-2.492-.58.773.348 1.623.502 2.492.58.696.096 1.391.173 2.106.231-.02.194-.039.406.02.6 0 0 .212-.02.328-.02.463.464.405 1.14.193 1.643-.077.116-.135.212-.213.328zM111.394 92.214c-.058.02-.116.039-.154.058-.947.367-1.681 1.024-2.724 1.41-.754.213-1.488.696-2.222.967 1.816-.522 3.362-1.604 5.139-2.145 0 .29-.058.56-.251.715-.58.309-1.101.599-1.604.87-.058-.078-.154-.252-.212-.33-.638.58-1.43.87-2.222 1.122-.811.25-1.603.463-2.434.889.077.038.058.116.058.193h-.02.02c0 .058.02.096.135.077-.116.02-.135-.02-.135-.077 1.739-.503 3.207-1.121 4.733-1.836-1.14.618-2.318 1.198-3.613 1.662-1.294.444-2.743.754-4.366.56-.135-.019-.425-.058-.56-.096-.251-.194-.502-.367-.773-.522-.386-.213-.618-.348-.87-.483.194-.174.271-.541.445-.773.155-.232.367-.31.754-.058.038-.097.096-.27.135-.367-.329-.387-.29-.928.02-1.295.212-.386.54-.657.656-.83.193-.117.483-.04.811.018.348.058.754.097 1.14-.058.58-.173 1.12-.444 1.816-.502.966-.077 1.855-.676 2.917-.927.367-.136.715-.754 1.044-.638.193.02.328.193.444.386-.522.367-1.043.735-1.584 1.024-.696.329-1.41.58-2.145.696.754-.039 1.469-.328 2.145-.696.56-.25 1.12-.56 1.68-.87.097.175.213.349.368.465 0 0 .154-.116.231-.194.619.116.986.696 1.121 1.218.039.116.058.232.077.367z"/>
          <circle cx="85.082" cy="123.248" r="2.048" fill="#FFC648"/>
          <path fill="#C82C2F"
                d="M55.465 120.91c-2.473 1.74.483 16.425.483 16.425l.445-4.734s.328 2.609.328 3.826v1.218s1.777-2.918 1.12-7.054c-.637-4.135-2.376-9.68-2.376-9.68zM92.346 136.582s.29-5.817-.174-9.527c-.483-3.71-1.295-6.647-2.029-.87-.734 5.778.638 13.295.83 16.523.194 3.227.735 8.444.175 12.116-.541 3.671-3.941 6.976-5.14 7.807-1.197.83-5.872 2.376-5.872 2.376l12.287-1.101 5.506-2.203s-3.883-7.942-4.946-15.498c-1.101-7.71-1.739-15.13-1.739-15.13l1.102 5.507z"/>
          <ellipse cx="80.842" cy="79.253" fill="#FF8080" rx="1.469" ry="2.454"
                   transform="rotate(-77.65 80.842 79.253)"/>
          <ellipse cx="66.001" cy="80.238" fill="#FF8080" rx="2.454" ry="1.469" transform="rotate(-16.146 66 80.238)"/>
        </g>
      </g>
    </g>
  </g>
</svg>
