<svg xmlns="http://www.w3.org/2000/svg" xmlns:xlink="http://www.w3.org/1999/xlink" width="19" height="19" viewBox="0 0 19 19">
    <defs>
        <path id="xlmkcokfra" d="M0 0L19 0 19 19 0 19z"/>
    </defs>
    <g fill="none" fill-rule="evenodd">
        <g>
            <g>
                <g>
                    <g transform="translate(-511 -699) translate(450 294) translate(32 389) translate(29 16)">
                        <mask id="hd5lwv8x0b" fill="#fff">
                            <use xlink:href="#xlmkcokfra"/>
                        </mask>
                        <path fill="#E91E63" d="M18.994 9.987c.01-.494-.107-.941-.648-1.24-2.114-1.164-2.124-2.855-2.301-4.51-.489.682-.245 1.416-.218 2.118.048 1.2-.113 2.363-.81 3.46-.896 1.408-.524 2.892-.59 4.35-.019.407.298.56.84.554.744-.008 1.49-.002 2.277.2-1.673.476-3.35.948-5.021 1.43-.553.158-.625-.063-.625-.367.003-1.298-.115-2.604.046-3.892.123-.98 1.026-1.808 1.69-2.657.9-1.15 1.17-2.375 1.228-3.651l.011-.04c.336-.008.537-.175.535-.37-.006-.7.424-1.386.136-2.094.057-1.415.057-1.415-1.861-1.677-.556-.076-1.117-.136-1.668-.227C9.073.887 6.067.61 3.163 0h-.487C1.127.523.601 1.579 0 2.596v.173c.627.616 1.581.643 2.502.658 3.717.06 7.331.651 10.98 1.061.463.052.881.143.875.565l.053.03c-.018.002-.033.006-.053.008-3.46-.404-6.922-.803-10.38-1.217-.704-.084-.981.074-1.126.592C2.398 6.086 1.3 7.514 0 8.866v7.27c3.7.92 7.399 1.843 11.102 2.758.211.053.467.187.68.037 1.783-1.258 4.185-1.794 6.266-2.704.674-.295.969-.577.951-1.146-.052-1.698-.04-3.396-.005-5.094" mask="url(#hd5lwv8x0b)"/>
                    </g>
                </g>
            </g>
        </g>
    </g>
</svg>
