<?xml version="1.0" encoding="UTF-8"?>
<svg width="21px" height="19px" viewBox="0 0 21 19" version="1.1" xmlns="http://www.w3.org/2000/svg" xmlns:xlink="http://www.w3.org/1999/xlink">
    <title>Shape-pink</title>
    <g id="Checkout-V2" stroke="none" stroke-width="1" fill="none" fill-rule="evenodd">
        <g id="Desktop-Checkout/Delivery-Out-of-Range" transform="translate(-744.000000, -699.000000)" fill="#E91E63" fill-rule="nonzero">
            <g id="Pop-Up" transform="translate(450.000000, 294.000000)">
                <g id="CTAs" transform="translate(32.000000, 389.000000)">
                    <g id="Change-Order-to-Curbside-Pickup" transform="translate(242.000000, 0.000000)">
                        <g id="Group-6" transform="translate(20.000000, 16.000000)">
                            <path d="M18.1766667,0 L2.835,0 L0,8.3125 L0,19 L3.5,19 L3.5,16.625 L17.5,16.625 L17.5,19 L21,19 L21,8.3125 L18.1766667,0 Z M4.08333333,13.0625 C3.115,13.0625 2.33333333,12.266875 2.33333333,11.28125 C2.33333333,10.295625 3.115,9.5 4.08333333,9.5 C5.05166667,9.5 5.83333333,10.295625 5.83333333,11.28125 C5.83333333,12.266875 5.05166667,13.0625 4.08333333,13.0625 Z M16.9166667,13.0625 C15.9483333,13.0625 15.1666667,12.266875 15.1666667,11.28125 C15.1666667,10.295625 15.9483333,9.5 16.9166667,9.5 C17.885,9.5 18.6666667,10.295625 18.6666667,11.28125 C18.6666667,12.266875 17.885,13.0625 16.9166667,13.0625 Z M2.33333333,7.125 L4.08333333,1.78125 L16.9166667,1.78125 L18.6666667,7.125 L2.33333333,7.125 Z" id="Shape-pink"></path>
                        </g>
                    </g>
                </g>
            </g>
        </g>
    </g>
</svg>