<svg width="400" height="267" fill="none" xmlns="http://www.w3.org/2000/svg">
  <path d="M46.448 175.173h55.547v-42.842H46.448v42.842z" fill="#F5F5F5"/>
  <path d="M60.363 174.869c.075 0 .139-9.546.139-21.333 0-11.787-.065-21.333-.14-21.333-.074 0-.138 9.546-.138 21.333 0 11.787.043 21.333.139 21.333z" fill="#EBEBEB"/>
  <path d="M51.158 170.235h4.256v-4.816h-4.256v4.816z" fill="#FAFAFA"/>
  <path d="M85.046 132.437h-6.31v9.142h6.31v-9.142zM85.046 165.904h-6.31v9.141h6.31v-9.141zM123.163 175.776H31.461v70.725h91.702v-70.725z" fill="#EBEBEB"/>
  <path d="M100.187 246.005c-.102 0-.182-15.765-.182-35.2 0-19.434.08-35.2.182-35.2.101 0 .181 15.76.181 35.2 0 19.44-.101 35.2-.181 35.2z" fill="#E0E0E0"/>
  <path d="M115.387 230.405h-7.03v7.947h7.03v-7.947z" fill="#FAFAFA"/>
  <path d="M69.851 175.957H59.435v15.094h10.416v-15.094zM69.851 231.2H59.435v15.093h10.416V231.2z" fill="#E0E0E0"/>
  <path d="M194.805 51.2a6.476 6.476 0 0 1-2.666 0 6.48 6.48 0 0 1 2.666 0zM200.139 51.2a6.48 6.48 0 0 1-2.667 0 6.484 6.484 0 0 1 2.667 0zM205.472 51.2a6.476 6.476 0 0 1-2.666 0 6.48 6.48 0 0 1 2.666 0zM210.805 51.2a6.476 6.476 0 0 1-2.666 0 6.48 6.48 0 0 1 2.666 0zM216.139 51.2a6.48 6.48 0 0 1-2.667 0 6.484 6.484 0 0 1 2.667 0zM221.472 51.2a6.476 6.476 0 0 1-2.666 0 6.48 6.48 0 0 1 2.666 0zM226.805 51.2a6.476 6.476 0 0 1-2.666 0 6.48 6.48 0 0 1 2.666 0zM232.139 51.2a6.48 6.48 0 0 1-2.667 0 6.484 6.484 0 0 1 2.667 0zM237.472 51.2a6.476 6.476 0 0 1-2.666 0 6.48 6.48 0 0 1 2.666 0zM242.805 51.2a6.476 6.476 0 0 1-2.666 0 6.48 6.48 0 0 1 2.666 0zM248.139 51.2a6.48 6.48 0 0 1-2.667 0 6.484 6.484 0 0 1 2.667 0zM253.472 51.2a6.476 6.476 0 0 1-2.666 0 6.48 6.48 0 0 1 2.666 0zM258.805 51.2a6.476 6.476 0 0 1-2.666 0 6.48 6.48 0 0 1 2.666 0zM264.139 51.2a6.48 6.48 0 0 1-2.667 0 6.484 6.484 0 0 1 2.667 0zM269.472 51.2a6.476 6.476 0 0 1-2.666 0 6.48 6.48 0 0 1 2.666 0zM274.805 51.2a6.476 6.476 0 0 1-2.666 0 6.48 6.48 0 0 1 2.666 0zM280.139 51.2a6.48 6.48 0 0 1-2.667 0 6.484 6.484 0 0 1 2.667 0zM285.472 51.2a6.476 6.476 0 0 1-2.666 0 6.48 6.48 0 0 1 2.666 0zM290.805 51.2a6.476 6.476 0 0 1-2.666 0 6.48 6.48 0 0 1 2.666 0zM296.139 51.2a6.48 6.48 0 0 1-2.667 0 6.484 6.484 0 0 1 2.667 0zM301.472 51.2a6.476 6.476 0 0 1-2.666 0 6.48 6.48 0 0 1 2.666 0zM306.805 51.2a6.476 6.476 0 0 1-2.666 0 6.48 6.48 0 0 1 2.666 0zM312.139 51.2a6.48 6.48 0 0 1-2.667 0 6.484 6.484 0 0 1 2.667 0zM313.504 55.152a3.343 3.343 0 0 1-.138-1.333c-.044-.45.003-.903.138-1.334.139.43.186.884.139 1.334.047.449 0 .903-.139 1.333zM313.504 60.485a3.343 3.343 0 0 1-.138-1.333c-.044-.45.003-.903.138-1.333.139.43.186.884.139 1.333.047.45 0 .904-.139 1.333zM313.504 65.819a3.343 3.343 0 0 1-.138-1.334c-.044-.449.003-.902.138-1.333.139.43.186.884.139 1.333.047.45 0 .904-.139 1.334zM313.504 71.152a6.475 6.475 0 0 1 0-2.667c.185.88.185 1.788 0 2.667zM313.504 76.485a6.476 6.476 0 0 1 0-2.666c.185.879.185 1.787 0 2.666zM314.544 80.779c0 .069-.443.122-1.04.138h-.133v-.432c-.044-.449.003-.902.138-1.333.139.43.186.884.139 1.333v.294l-.139-.134c.351-.03.704.016 1.035.134zM319.878 80.779a6.484 6.484 0 0 1-2.667 0 6.48 6.48 0 0 1 2.667 0zM325.211 80.779a6.484 6.484 0 0 1-2.667 0 6.48 6.48 0 0 1 2.667 0zM330.544 80.779a6.484 6.484 0 0 1-2.667 0 6.48 6.48 0 0 1 2.667 0zM335.878 80.779a6.484 6.484 0 0 1-2.667 0 6.48 6.48 0 0 1 2.667 0zM341.211 80.779a6.484 6.484 0 0 1-2.667 0 6.48 6.48 0 0 1 2.667 0zM346.544 80.779a6.484 6.484 0 0 1-2.667 0 6.48 6.48 0 0 1 2.667 0zM351.878 80.779a6.484 6.484 0 0 1-2.667 0 6.48 6.48 0 0 1 2.667 0zM357.211 80.779a6.484 6.484 0 0 1-2.667 0 6.48 6.48 0 0 1 2.667 0zM359.286 84.043a6.475 6.475 0 0 1 0-2.667c.185.88.185 1.787 0 2.667zM359.286 89.376a6.475 6.475 0 0 1 0-2.667c.185.88.185 1.788 0 2.667zM359.286 94.71a6.476 6.476 0 0 1 0-2.667c.185.879.185 1.787 0 2.666zM359.286 100.043a6.477 6.477 0 0 1 0-2.667c.185.88.185 1.787 0 2.667zM359.286 105.376a6.477 6.477 0 0 1 0-2.667c.185.88.185 1.788 0 2.667zM359.286 110.709a6.473 6.473 0 0 1 0-2.666 6.473 6.473 0 0 1 0 2.666zM359.286 116.043a6.477 6.477 0 0 1 0-2.667 6.477 6.477 0 0 1 0 2.667zM359.286 121.376a6.477 6.477 0 0 1 0-2.667c.185.88.185 1.788 0 2.667zM359.286 126.709a6.473 6.473 0 0 1 0-2.666 6.473 6.473 0 0 1 0 2.666zM359.286 132.043a6.477 6.477 0 0 1 0-2.667 6.477 6.477 0 0 1 0 2.667zM359.286 137.376a6.477 6.477 0 0 1 0-2.667c.185.88.185 1.788 0 2.667zM222.789 60.267s-4.138-2.294-8.197 7.498c-4.059 9.792-5.445 15.36-5.445 15.36s-1.115 2.075-2.571.891c-1.456-1.184-3.6-4.693-5.867-3.856-2.336.875-2.912 3.6-2.133 7.467.779 3.866 2.133 12.442 2.245 13.216.112.773-.234 1.925-1.354 1.274-1.12-.65-7.776-6.976-10.592-3.642-2.816 3.333 1.066 13.802 1.493 14.933.427 1.131.213 1.669-.32 2.005-.533.336-2.576-2.005-4.539-3.733-1.962-1.728-4.549-3.376-6.016-1.317-1.466 2.058-1.349 10.133 7.323 22.576l4.389 5.504 7.014-.944c14.874-2.934 20.56-8.662 20.938-11.163.379-2.501-2.624-3.04-5.237-3.136-2.613-.096-5.701.144-5.867-.469-.165-.614.075-1.12 1.163-1.67 1.088-.549 11.163-5.365 11.456-9.722.293-4.358-8.896-4.422-10.133-4.736-1.238-.315-.704-1.392-.091-1.856.613-.464 7.552-5.691 10.795-7.952 3.242-2.262 4.725-4.624 3.648-6.875-1.035-2.165-5.014-1.13-6.886-1.29-1.872-.16-1.232-2.422-1.232-2.422s2.87-4.976 6.747-14.837c3.877-9.862-.811-11.094-.811-11.094" fill="#EBEBEB"/>
  <path d="M191.467 137.067c2.874-7.232 6.933-17.19 11.456-28.176 4.522-10.987 8.597-20.928 11.514-28.144 1.451-3.6 2.624-6.518 3.446-8.534l.938-2.32c.107-.256.187-.458.251-.602.027-.07.057-.137.091-.203 0 0 0 .075-.07.213-.069.139-.128.347-.229.608-.208.534-.507 1.334-.896 2.342a919.572 919.572 0 0 1-3.376 8.576c-2.875 7.232-6.933 17.189-11.451 28.17-4.517 10.982-8.597 20.934-11.514 28.15" fill="#E0E0E0"/>
  <path d="M203.525 85.216c.09.144.164.298.219.459.128.304.299.746.501 1.29.411 1.1.934 2.63 1.478 4.326.544 1.696 1.008 3.2 1.381 4.357l.421 1.317c.066.158.11.322.134.491a2.233 2.233 0 0 1-.219-.459 27.108 27.108 0 0 1-.496-1.296c-.4-1.098-.901-2.634-1.451-4.336l-1.408-4.34c-.165-.534-.309-.956-.426-1.318a2.035 2.035 0 0 1-.134-.49zM208.315 97.53c0-.063 3.083-1.285 6.933-2.725 3.851-1.44 6.998-2.565 7.019-2.501.021.064-3.077 1.285-6.933 2.725-3.856 1.44-6.998 2.571-7.019 2.502zM200.614 114.085a2.13 2.13 0 0 1 .533-.069l1.408-.112c1.189-.091 2.832-.224 4.64-.437 1.808-.214 3.435-.454 4.613-.64l1.398-.219a1.77 1.77 0 0 1 .533-.048c-.161.065-.33.114-.501.144-.326.075-.8.176-1.387.293-1.168.224-2.8.496-4.613.71-1.814.213-3.462.32-4.656.368-.598 0-1.067.037-1.414.032a2.388 2.388 0 0 1-.554-.022zM193.835 103.899c.118.109.222.233.309.368.182.245.448.608.768 1.066.64.896 1.515 2.134 2.464 3.536.95 1.403 1.798 2.667 2.406 3.579.304.459.533.837.704 1.099.095.13.174.271.234.421 0 0-.122-.123-.309-.368a41.072 41.072 0 0 1-.773-1.067c-.64-.901-1.51-2.133-2.464-3.536a422.005 422.005 0 0 1-2.406-3.578c-.298-.459-.533-.838-.704-1.099a1.737 1.737 0 0 1-.229-.421zM185.179 117.648c.146.144.276.303.389.475.261.362.597.81.992 1.354a457.075 457.075 0 0 1 3.2 4.507 292.983 292.983 0 0 1 3.136 4.549c.373.534.683 1.024.928 1.392.12.169.225.347.315.534a2.652 2.652 0 0 1-.39-.475l-.992-1.349a567.507 567.507 0 0 1-3.2-4.507 267.396 267.396 0 0 1-3.13-4.549l-.928-1.392a2.67 2.67 0 0 1-.32-.539zM194 130.091c.213-.056.431-.092.651-.107l1.781-.203c1.504-.17 3.579-.41 5.867-.741s4.346-.683 5.834-.944l1.766-.309a3.53 3.53 0 0 1 .656-.086 3.418 3.418 0 0 1-.635.176c-.416.102-1.013.235-1.755.384a94.65 94.65 0 0 1-5.834 1.014c-2.288.325-4.374.533-5.867.677a54.33 54.33 0 0 1-1.787.128 3.734 3.734 0 0 1-.677.011z" fill="#E0E0E0"/>
  <path d="M378.027 150.427a18.738 18.738 0 0 0-15.119-18.422 18.744 18.744 0 0 0-19.777 27.888l.053.07c.715 1.21 1.6 2.074 2.528 3.349l10.88 14.4a3.383 3.383 0 0 0 2.699 1.348 3.371 3.371 0 0 0 2.699-1.348l10.704-14.171a40.616 40.616 0 0 0 2.72-3.61l.037-.048a18.663 18.663 0 0 0 2.576-9.456zm-18.741 8.16a8.254 8.254 0 0 1-7.627-5.09 8.25 8.25 0 0 1 6.01-11.253 8.253 8.253 0 0 1 9.862 8.092 8.253 8.253 0 0 1-8.245 8.251zM289.547 67.104v22.037a.858.858 0 0 0 .858.859h46.208a.852.852 0 0 0 .859-.87l-.101-8.063a.92.92 0 0 0-.171-.534l-6.629-8.858a.858.858 0 0 0-.683-.342l-7.637-.058a.866.866 0 0 1-.854-.859v-3.333a.858.858 0 0 0-.858-.859h-30.134a.858.858 0 0 0-.858.88z" fill="#F5F5F5"/>
  <path d="M323.547 73.216v7.072a.497.497 0 0 0 .147.35.492.492 0 0 0 .354.14l10.203-.18a.491.491 0 0 0 .4-.769l-4.8-7.034a.484.484 0 0 0-.416-.22l-5.435.15a.491.491 0 0 0-.453.49z" fill="#EBEBEB"/>
  <path d="M338.395 90.672h-49.776v1.536h49.776v-1.536z" fill="#F5F5F5"/>
  <path d="M303.633 94.74a4.922 4.922 0 1 0-6.961-6.962 4.922 4.922 0 1 0 6.961 6.962z" fill="#EBEBEB"/>
  <path d="M303.051 91.259a2.897 2.897 0 0 1-5.737.565 2.897 2.897 0 0 1 2.841-3.461 2.902 2.902 0 0 1 2.896 2.896z" fill="#FAFAFA"/>
  <path d="M321.36 90c-.122 0-.224-5.333-.224-11.877 0-6.544.102-11.878.224-11.878.123 0 .224 5.334.224 11.878 0 6.544-.101 11.877-.224 11.877zM330.468 94.737a4.923 4.923 0 1 0-6.964-6.961 4.923 4.923 0 0 0 6.964 6.961z" fill="#EBEBEB"/>
  <path d="M329.883 91.259a2.905 2.905 0 0 1-1.789 2.684 2.9 2.9 0 1 1 1.789-2.684z" fill="#FAFAFA"/>
  <path d="M326.998 82.176c0 .123-.704.224-1.6.224-.896 0-1.574-.101-1.574-.224s.704-.224 1.574-.224c.869 0 1.6.096 1.6.224z" fill="#EBEBEB"/>
  <path d="M387.274 246.501c0 .08-83.589.139-186.666.139-103.078 0-186.699-.059-186.699-.139 0-.08 83.573-.138 186.699-.138 103.125 0 186.666.064 186.666.138z" fill="#263238"/>
  <path d="M88.459 244.155c7.189-4.987 8.848-14.278 8.592-22.635-.043-1.392.117-2.864-.534-4.091-.65-1.226-2.202-2.064-3.456-1.482-1.034.485-1.493 1.685-2.074 2.666a8.152 8.152 0 0 1-3.28 3.115c-.891.453-1.99.731-2.87.245-1.2-.666-1.333-2.33-1.322-3.733.028-2.585.053-5.17.074-7.755a12.865 12.865 0 0 0-.389-4.085c-.427-1.317-1.376-2.544-2.699-2.923-1.322-.378-2.949.384-3.232 1.739a12.416 12.416 0 0 0-.048 1.728 1.461 1.461 0 0 1-.858 1.371c-.534.16-1.11-.235-1.52-.64-1.43-1.408-2.395-3.2-3.296-5.014-.902-1.813-1.776-3.637-3.072-5.168-1.296-1.53-3.088-2.752-5.072-2.869-1.984-.117-4.107 1.099-4.619 3.045-.512 1.947.624 3.947 1.861 5.531a30.944 30.944 0 0 0 6.4 6.171c.47.264.844.672 1.067 1.162.293.928-.581 1.84-1.499 2.134-1.034.341-2.133.229-3.237.352-1.104.122-2.256.597-2.667 1.6-.57 1.418.608 2.906 1.771 3.882a26.395 26.395 0 0 0 7.84 4.56 8.994 8.994 0 0 1 2.912 1.43c.821.72 1.312 1.968.81 2.944-.5.976-1.775 1.285-2.847 1.066-1.072-.218-2.022-.784-3.04-1.173-1.904-.725-4.368-.603-5.595 1.04a4.397 4.397 0 0 0-.48 3.883 10.125 10.125 0 0 0 2.09 3.434 26.667 26.667 0 0 0 11.366 8.043c4.416 1.552 8.533 1.979 12.912.389" fill="#DF1683"/>
  <path d="M88 246.507c-.288-3.312-.438-3.382-1.664-7.6-1.37-4.558-3-9.033-4.886-13.403a563.426 563.426 0 0 1-1.46-3.445c-.486-1.131-.96-2.251-1.5-3.318a61.792 61.792 0 0 0-3.445-5.941c-1.179-1.845-2.368-3.547-3.493-5.136-1.126-1.589-2.203-3.04-3.243-4.325a49.506 49.506 0 0 0-5.333-5.696c-.683-.624-1.227-1.067-1.6-1.398l-.427-.346c-.096-.08-.15-.118-.155-.112.044.047.09.091.14.133l.41.368c.362.32.896.795 1.568 1.429a52.318 52.318 0 0 1 5.274 5.739c1.03 1.285 2.096 2.747 3.2 4.336 1.104 1.589 2.294 3.296 3.472 5.136a62.704 62.704 0 0 1 3.398 5.941c.533 1.067 1.008 2.176 1.488 3.307.48 1.131.965 2.283 1.461 3.445a127.431 127.431 0 0 1 4.896 13.371c1.232 4.203 1.397 4.267 1.712 7.547" fill="#263238"/>
  <path d="M78.4 218.731c.065-.192.11-.391.133-.592.075-.384.165-.939.267-1.632.197-1.382.41-3.296.64-5.408.23-2.112.464-4.022.682-5.398.112-.688.203-1.242.278-1.626.049-.197.074-.4.074-.603a3.409 3.409 0 0 0-.176.581c-.096.379-.218.934-.352 1.6-.266 1.371-.533 3.286-.762 5.398-.23 2.112-.416 3.973-.566 5.418-.069.651-.133 1.2-.18 1.638-.04.205-.053.415-.038.624zM60.576 215.333c.235.054.474.084.715.091.453.043 1.12.096 1.936.197 1.632.182 3.877.534 6.341.987a80.9 80.9 0 0 1 6.261 1.429 41.58 41.58 0 0 1 1.878.534c.228.076.461.133.699.17a4.308 4.308 0 0 0-.667-.272 33.099 33.099 0 0 0-1.862-.597 68.91 68.91 0 0 0-6.26-1.509 61.619 61.619 0 0 0-6.4-.912 29.641 29.641 0 0 0-1.947-.118c-.231-.02-.463-.02-.694 0zM86.101 238.581a.967.967 0 0 0 .128-.218c.08-.176.181-.39.304-.646.267-.56.624-1.381 1.067-2.4.864-2.042 1.978-4.896 3.157-8.069 1.179-3.173 2.267-6.032 3.088-8.085l.987-2.432c.101-.267.192-.486.261-.662.07-.176.085-.234.075-.24-.05.068-.091.141-.123.219l-.304.64a81.67 81.67 0 0 0-1.067 2.405c-.869 2.038-1.978 4.896-3.157 8.064s-2.267 6.032-3.093 8.091c-.4.997-.736 1.819-.982 2.427-.106.266-.192.485-.26.666a1.234 1.234 0 0 0-.08.24zM62.427 230.859c.074.04.153.072.234.096l.688.234 2.54.832c2.132.699 5.082 1.707 8.335 2.816 3.253 1.11 6.213 2.096 8.368 2.752 1.067.331 1.952.587 2.56.752l.704.192c.08.024.162.04.245.048 0 0-.074-.042-.234-.101l-.683-.229-2.517-.832a891.276 891.276 0 0 1-8.342-2.822c-3.258-1.114-6.208-2.096-8.362-2.752a82.963 82.963 0 0 0-2.56-.752l-.704-.186a.703.703 0 0 0-.272-.048z" fill="#263238"/>
  <path d="M175.061 246.501h-74.224c-8.965-.037-16.533-7.685-16.506-16.656l.789-186.938a16.242 16.242 0 0 1 16.315-16.176l74.565.346a16.24 16.24 0 0 1 14.958 10.09 16.233 16.233 0 0 1 1.207 6.22l-.789 186.938a16.227 16.227 0 0 1-4.806 11.469 16.244 16.244 0 0 1-11.509 4.707z" fill="#263238"/>
  <path d="m175.899 34.176-14.459-.043a3.589 3.589 0 0 0-3.525 3.654v2.624a3.598 3.598 0 0 1-3.526 3.653l-28.181-.133a3.59 3.59 0 0 1-3.493-3.686v-2.618a3.608 3.608 0 0 0-3.499-3.691h-5.083l-12.656-.059a11.378 11.378 0 0 0-11.424 11.328l-.773 182.427a11.375 11.375 0 0 0 11.323 11.424l74.416.341a11.368 11.368 0 0 0 11.429-11.328L187.2 45.6a11.384 11.384 0 0 0-11.301-11.424z" fill="#F5F5F5"/>
  <path d="M144.315 204.917c-.086 2.203-.166 4.267-.235 5.99h10.667l-1.307-6.571-9.125.581zM100.869 207.664l.091 3.243h42.053c.069-1.824.149-3.84.229-5.92l-42.373 2.677zM154 204.304l1.312 6.597h19.712l-.24-7.909L154 204.304zM145.381 112.043l3.728-21.606-9.76-.725v22.331h6.032zM99.99 195.669l-10.593 4.15-.032 7.504 10.939-.694-.315-10.96zM99.942 193.984l-.576-20.123h-.011v-7.098l-9.824 1.04-.128 30.298 10.533-4.128.005.011zM99.354 150.923l-9.744-1.291-.069 16.565 9.813-1.04v-14.234zM171.989 167.061l-.41 5.771-11.51 1.237.891 4.566 13.061-.987-.192-6.544 1.04-4.331-2.88.288zM151.243 179.365l9.178-.693-2-10.24-8.01.811.832 10.122zM151.333 180.432l.699 8.539 1.243 11.712.512 2.565 20.965-1.323-.698-23.21-22.721 1.717z" fill="#F5F5F5"/>
  <path d="m115.248 140.107.805 1.381-16.165 9.445v22.374l17.066-1.211 32.912-3.333-1.205-14.662-31.419-4.106.208-1.6 31.078 4.058-2.038-24.816-30.762 2.955-.102-1.067 30.774-2.954-1.067-12.95h-29.6l-25.979 4.726L89.626 148l9.83 1.333 15.792-9.226zm-13.707 31.045s.123-18.443 0-19.131l13.195-7.018 1.712 25.21-14.907.939zM170.907 167.173l-11.952 1.206.906 4.64 10.715-1.152.331-4.694zM144.464 200.965c-.037.971-.075 1.931-.107 2.88l8.896-.565-.458-2.293-8.331-.022zM125.301 112.043l1.568-7.11h11.947V89.675l-37.35-2.768v14.33l-11.664 2.64-.053 12.864 25.829-4.698h9.723zM150.224 69.573l-.32-1.306 14.261-5.643L154.891 44a3.33 3.33 0 0 1-.534.043l-15.76-.075.427 26.064 11.2-.459zM171.834 59.584V34.16l-10.394-.027a3.585 3.585 0 0 0-3.277 2.275 3.591 3.591 0 0 0-.249 1.379v2.624a3.728 3.728 0 0 1-1.525 3.008l9.28 18.634 6.165-2.469zM118.224 60.677l-1.205-26.773h-2.886l-11.28-.053-4.8 23.941 20.171 2.885zm-2.571-24.058.384 21.802-14.992-2.192 3.28-19.61h11.328zM118.768 60.757v.224c0 2.091.064 5.867.096 9.872l19.642-.8-.426-26.085-11.888-.059a3.59 3.59 0 0 1-3.494-3.685v-2.619a3.607 3.607 0 0 0-3.498-3.69h-1.659l1.205 26.842h.022zM96.464 57.552l4.757-23.707a11.37 11.37 0 0 0-11.168 11.318L90 56.98l.053-.346 6.411.917z" fill="#F5F5F5"/>
  <path d="m99.866 86.79-9.989-.742-.07 16.187 10.06-2.278V86.79zM96.357 58.075 90 57.163l-.112 26.213 1.37.101 5.099-25.402zM116.533 193.675l.165-21.04-16.805 1.189.597 20.613 16.043-.762zM119.626 188.8l23.798 11.403c.288-7.467.533-14.4.533-14.864l.533-.027.256-.501c.336.165.336.165.16 5.248-.101 2.832-.24 6.602-.384 10.373h8.23l-1.211-11.435-1.6-19.733-31.099 3.136.784 16.4zM177.968 153.899l-.272-2.779-28.528 2.971 1.2 14.618 24.635-2.485 2.965-12.325zM138.816 106.533h-10.662l-1.216 5.51h11.878v-5.51zM173.563 108.395l-26.694-1.846-1.066 6.304 1.125 13.686 28.149-2.71-1.514-15.434zm-25.712 4.448 1.434-3.979 23.184 1.467 1.339 11.381-25.173 2.987-.784-11.856zM176.33 136.997l-1.173-12.101-28.165 2.704 1.061 12.88 28.277-3.483zM100.336 207.701l-10.928.688-.043-.709-.016 3.221h11.077l-.09-3.2zM187.024 53.573l.16.411.016-8.384a11.383 11.383 0 0 0-11.323-11.424h-3.546v25.216l14.693-5.819z" fill="#F5F5F5"/>
  <path d="m143.403 200.805-24.294-11.642-.858-16.678-1.014.102-.176 21.6-16.56.784v.48l.32 11.136 42.448-2.667c.054-1.04.096-2.08.134-3.115zm-41.862-4.458 23.179-1.6 15.077 6.992-38.256 2.069v-7.461zM180.117 81.6l.998-5.893c-8.715-3.11-9.318-12.198-9.291-14.934l-5.685 2.251 8.56 17.19 5.418 1.386zM149.034 152.496l11.846-1.232-2.331-10.464-10.368 1.28.853 10.416zM173.6 90.613h-22.123l-1.835-.138-2.501 14.49 26.261 1.814-.608-6.299 2.587-9.301-1.781-.566zM173.061 87.947l.278-6.934-8.694-17.456-13.482 5.334 4.634 19.029 17.264.027zM164.117 65.7l7.968 15.158-1.152 4.725-13.632-.533-3.408-14.336 10.224-5.014zM176.501 171.381l.411 13.584 9.584-.538.032.533-9.6.539.485 16.256 9.067-.576.064 1.066-9.099.576.246 8.08h8.832l.192-45.322-9.035.912-1.179 4.89zM118.24 61.216l-20.299-2.912-5.077 25.29 25.466 1.889c.102-3.883.011-15.84-.09-24.267zM151.627 87.947h3.072L150.352 70.1l-11.296.464.272 16.47 12.299.912zM118.848 85.52l19.941 1.477-.266-16.41-19.648.8c.058 5.552.058 11.472-.027 14.133zM176.485 138.592l-17.408 2.144 2.341 10.469 16.123-1.674-1.056-10.939z" fill="#F5F5F5"/>
  <path d="m181.205 75.147 1.115-6.614 4.8.374.064-14.246-14.821 5.867c-.304 10.021 5.994 13.547 8.842 14.619zM175.499 100.715l.602 6.25 10.859.752.053-12.869-9.088-2.87-2.426 8.737zM180.661 154.085l-2.848 11.856 8.902-.901.053-12.432c-2.731-.72-5.115-1.307-6.4-1.552l.293 3.029zM174.656 88.15l12.368 3.909.032-7.035-12.15-3.141-.25 6.266zM180.213 149.429c.997.15 2.885.534 6.56 1.52l.117-27.2-9.066.875 2.389 24.805zM177.712 123.579l9.184-.886.053-13.37-10.693-.742 1.456 14.998z" fill="#F5F5F5"/>
  <path d="M182.229 75.483c1.598.495 3.219.91 4.859 1.242v-6.752l-3.91-.304-.949 5.814zM181.157 81.845l5.904 1.526.027-6.096c-1.531-.31-3.2-.726-4.949-1.259l-.982 5.83z" fill="#F5F5F5"/>
  <path d="m100.336 207.696.091 3.2h.533l-.091-3.243 42.374-2.666-.23 5.92h1.067c.069-1.723.149-3.787.235-5.99l9.146-.581 1.307 6.571h.533l-1.312-6.603 20.8-1.312.24 7.915h2.667l-.245-8.086 9.098-.576-.064-1.066-9.066.576-.486-16.256 9.6-.534-.032-.533-9.6.533-.41-13.584 1.178-4.89 9.035-.912v-.534l-8.901.902 2.848-11.856-.294-3.03c1.286.246 3.67.832 6.4 1.552v-1.68c-3.674-.97-5.562-1.37-6.56-1.52l-2.4-24.789 9.067-.875v-1.066l-9.184.885-1.456-14.997 10.667.741v-1.6l-10.859-.752-.603-6.251 2.427-8.736 9.067 2.87v-2.79l-12.368-3.909.25-6.267 12.15 3.142v-1.654l-5.904-1.525.981-5.83c1.771.534 3.419.95 4.949 1.26v-.534a49.825 49.825 0 0 1-4.858-1.243l.976-5.813 3.909.304v-1.067l-4.8-.373-1.115 6.613c-2.848-1.066-9.146-4.597-8.842-14.624l14.821-5.866v-.678l-.16-.41-14.656 5.802V34.165h-.533V59.59l-6.176 2.448-9.28-18.634a3.385 3.385 0 0 1-1.488.602l9.274 18.624-14.149 5.638.32 1.306-11.2.459-.427-26.064h-.533l.427 26.085-19.643.8c-.032-4.021-.075-7.781-.096-9.872v-.224l-1.205-26.842h-.534l1.206 26.773-20.176-2.896 4.8-23.941h-1.632l-4.758 23.706-6.4-.917-.053.347v.181l6.357.912-5.098 25.403-1.371-.102v2.667l9.99.741v13.168l-10.06 2.278v1.642l11.665-2.666V86.933l37.333 2.768v15.264h-11.947l-1.568 7.104h-9.722l-25.83 4.699v1.627l25.984-4.752h29.59l1.066 12.949-30.773 2.955.101 1.066 30.763-2.954 2.037 24.816-31.077-4.059-.208 1.6 31.419 4.107 1.216 14.64-32.891 3.317-17.067 1.211v-22.358l16.166-9.429-.806-1.381-15.813 9.21-9.856-1.312v1.6l9.755 1.312v14.235l-9.814 1.04v1.6l9.824-1.04v7.099l.582 20.122-10.534 4.128v1.718l10.592-4.15.315 10.96-10.939.694v.357l.043.709 10.912-.709zm44.021-3.851c.032-.949.07-1.909.107-2.88h8.331l.458 2.294-8.896.586zm9.43-.597-.534-2.565-1.242-11.734-.699-8.533 22.72-1.717.699 23.205-20.944 1.344zm5.146-34.869 11.958-1.206-.336 4.694-10.715 1.152-.907-4.64zm-.533.053 2 10.24-9.179.693-.832-10.133 8.011-.8zm15.6 9.216-13.061.987-.891-4.566 11.509-1.237.411-5.771 2.88-.288-1.04 4.331.192 6.544zM158.533 140.8l2.331 10.464-11.845 1.232-.854-10.416 10.368-1.28zm2.87 10.405-2.342-10.469 17.408-2.133 1.067 10.938-16.133 1.664zm11.984-44.426-26.262-1.819 2.502-14.485 1.834.138h22.128l1.776.566-2.565 9.301.587 6.299zm-1.6-46.043c-.027 2.752.576 11.84 9.29 14.933l-.96 5.931-5.418-1.403-8.56-17.21 5.648-2.251zm-7.179 2.843 8.725 17.456-.277 6.933h-17.259l-4.634-19.03 13.445-5.36zM150.315 70.1l4.346 17.846h-3.034l-12.299-.907-.272-16.475 11.259-.464zm-11.83.486.267 16.41-19.941-1.477c.085-2.667.069-8.581 0-14.133l19.674-.8zM97.904 58.32l20.299 2.912c.101 8.427.192 20.373.09 24.267L92.827 83.61l5.077-25.291zm51.168 32.133-3.733 21.606h-5.99V89.712l9.723.741zm-20.955 16.102h10.667v5.504h-11.851l1.184-5.504zm17.6 6.314 1.067-6.304 26.693 1.846 1.494 15.434-28.15 2.71-1.104-13.686zm29.376 12.043 1.174 12.101L148 140.501l-1.067-12.885 28.16-2.704zm-25.989 29.195 28.528-2.971.272 2.779-2.965 12.325-24.635 2.485-1.2-14.618zm2.336 34.928 1.211 11.434h-8.166c.144-3.77.283-7.541.384-10.373.176-5.083.176-5.083-.16-5.248l-.256.501-.533.027c0 .443-.229 7.413-.533 14.864l-23.76-11.44-.843-16.389 31.083-3.115 1.573 19.739zm-34.805-16.384-.166 21.04-16.042.762-.598-20.613 16.806-1.189zm-16.182 22.826v-.48l16.56-.784.176-21.6 1.014-.101.858 16.677 24.294 11.643c-.038 1.035-.08 2.075-.118 3.109l-42.448 2.667-.336-11.131z" fill="#fff"/>
  <path d="m124.72 194.72-23.179 1.621v7.446l38.261-2.075-15.082-6.992zM172.469 110.331l-23.184-1.467-1.434 3.979.784 11.856 25.173-2.987-1.339-11.381zM100.603 239.056l74.416.341a11.368 11.368 0 0 0 11.429-11.328l.075-17.162H89.349l-.053 12.981v4.085a11.371 11.371 0 0 0 11.307 11.083zM116.037 58.421l-.384-21.802h-11.322l-3.286 19.61 14.992 2.192zM170.933 85.584l1.152-4.725-7.968-15.158-10.224 5.035 3.408 14.336 13.632.512zM101.541 152c.123.688 0 19.131 0 19.131l14.933-.939-1.712-25.211L101.541 152zM151.248 166.997l-.79-11.429 25.563-3.285v1.973l-3.093 10.512-21.68 2.229z" fill="#EBEBEB"/>
  <path d="M132.341 72.208a3.117 3.117 0 0 1-3.722 3.055 3.117 3.117 0 0 1-2.27-4.247 3.117 3.117 0 0 1 2.877-1.923 3.114 3.114 0 0 1 3.115 3.115z" fill="#DF1683"/>
  <path opacity=".6" d="M132.336 72.075a3.12 3.12 0 0 1-1.797 2.959 3.115 3.115 0 1 1 1.797-2.96z" fill="#fff"/>
  <path d="M129.227 74.17a2.07 2.07 0 1 0-.001-4.139 2.07 2.07 0 0 0 .001 4.14zM177.349 196.555a1.338 1.338 0 0 1-.834 1.215 1.33 1.33 0 0 1-.766.069 1.328 1.328 0 0 1-1.04-1.044 1.33 1.33 0 0 1 1.811-1.496 1.334 1.334 0 0 1 .829 1.256z" fill="#DF1683"/>
  <path d="m175.221 196.123-.325-7.467-22.464 1.093a3.426 3.426 0 0 1-1.702-.362l-31.866-16.096a2.315 2.315 0 0 1-1.264-1.942l-4.342-84.128a1.405 1.405 0 0 1 1.51-1.472l13.658 1.008V71.824h1.6V86.96A1.416 1.416 0 0 1 129.6 88a1.442 1.442 0 0 1-1.067.368l-13.648-1.008 4.325 83.909a.715.715 0 0 0 .39.592l31.866 16.107c.279.141.59.207.902.192l22.656-1.104a1.425 1.425 0 0 1 1.482 1.355l.326 7.642-1.611.07z" fill="#DF1683"/>
  <path d="M115.872 127.792a4.032 4.032 0 1 0 0-8.064 4.032 4.032 0 0 0 0 8.064z" fill="#DF1683"/>
  <path d="M115.872 126.56a2.8 2.8 0 1 0-.001-5.601 2.8 2.8 0 0 0 .001 5.601z" fill="#FAFAFA"/>
  <path d="M115.872 126.763a3 3 0 0 1-2.951-3.586 3.004 3.004 0 0 1 5.442-1.086 3.005 3.005 0 0 1-.373 3.789 3.012 3.012 0 0 1-2.118.883zm0-5.606a2.608 2.608 0 0 0-2.409 1.603 2.608 2.608 0 0 0 .561 2.838 2.603 2.603 0 0 0 4.445-1.838 2.605 2.605 0 0 0-2.597-2.603zM139.621 106.848h-19.2a1.69 1.69 0 0 0-1.691 1.691v6.933a1.691 1.691 0 0 0 1.691 1.691h.224v1.658l1.925-1.658h17.067a1.688 1.688 0 0 0 1.691-1.691v-6.933a1.688 1.688 0 0 0-1.707-1.691z" fill="#DF1683"/>
  <path opacity=".4" d="M139.621 106.848h-19.2a1.69 1.69 0 0 0-1.691 1.691v6.933a1.691 1.691 0 0 0 1.691 1.691h.224v1.658l1.925-1.658h17.067a1.688 1.688 0 0 0 1.691-1.691v-6.933a1.688 1.688 0 0 0-1.707-1.691z" fill="#fff"/>
  <path d="M123.051 111.904a1.15 1.15 0 0 1 1.948-.874 1.149 1.149 0 0 1-.148 1.783c-.19.129-.414.199-.643.2a1.098 1.098 0 0 1-1.07-.672 1.093 1.093 0 0 1-.087-.437zm1.994 0a.84.84 0 0 0-1.669-.168.849.849 0 0 0 .362.866c.139.092.303.14.47.139a.805.805 0 0 0 .781-.512.802.802 0 0 0 .056-.325zM127.466 112.171a.786.786 0 0 1-.228.601.776.776 0 0 1-.274.181.78.78 0 0 1-.324.055.687.687 0 0 1-.587-.277v.261h-.288v-2.304h.299v.907a.7.7 0 0 1 .576-.262.796.796 0 0 1 .826.838zm-.298 0a.533.533 0 1 0-.534.576.544.544 0 0 0 .408-.163.54.54 0 0 0 .147-.413h-.021zM127.333 113.509l.096-.229c.07.055.157.084.246.08.154 0 .245-.101.245-.288v-1.723h.293v1.718a.48.48 0 0 1-.321.506.509.509 0 0 1-.212.027.592.592 0 0 1-.347-.091zm.534-2.666a.19.19 0 0 1 .122-.179.177.177 0 0 1 .075-.013.188.188 0 0 1 .186.112.19.19 0 0 1-.041.217.197.197 0 0 1-.067.043.206.206 0 0 1-.078.012.2.2 0 0 1-.077-.012.187.187 0 0 1-.12-.186v.006zM130.261 112.267h-1.333a.52.52 0 0 0 .197.366.542.542 0 0 0 .4.114.62.62 0 0 0 .475-.198l.165.192a.9.9 0 0 1-1.536-.57.813.813 0 0 1 .232-.599.805.805 0 0 1 .595-.239.801.801 0 0 1 .592.242.794.794 0 0 1 .218.601.556.556 0 0 1-.005.091zm-1.333-.214h1.066a.534.534 0 0 0-1.066 0zM130.528 112.171a.832.832 0 0 1 .251-.609.818.818 0 0 1 .618-.229.721.721 0 0 1 .667.347l-.224.149a.535.535 0 0 0-.448-.24.585.585 0 0 0-.526.579.582.582 0 0 0 .526.579.538.538 0 0 0 .448-.235l.224.144a.734.734 0 0 1-.667.352.834.834 0 0 1-.616-.23.827.827 0 0 1-.253-.607zM133.397 112.896a.59.59 0 0 1-.363.112.47.47 0 0 1-.403-.13.471.471 0 0 1-.13-.403v-.907h-.283v-.24h.283v-.363h.299v.363h.469v.24h-.469v.891a.244.244 0 0 0 .06.201.246.246 0 0 0 .196.076.366.366 0 0 0 .229-.075l.112.235zM133.701 110.837a.216.216 0 0 1 .017-.075.214.214 0 0 1 .045-.063.21.21 0 0 1 .065-.041.217.217 0 0 1 .076-.013.213.213 0 0 1 .075.011.186.186 0 0 1 .11.102.187.187 0 0 1 .018.074.202.202 0 0 1-.06.143.202.202 0 0 1-.143.06.202.202 0 0 1-.143-.06.202.202 0 0 1-.06-.143v.005zm.054.534h.298v1.642h-.298v-1.642zM136.075 111.349l-.72 1.643h-.304l-.72-1.643h.314l.534 1.318.576-1.318h.32zM137.786 112.267h-1.333a.534.534 0 0 0 .597.48.62.62 0 0 0 .475-.198l.16.192a.804.804 0 0 1-.645.267.84.84 0 0 1-.627-.224.839.839 0 0 1-.259-.613.813.813 0 0 1 .232-.599.81.81 0 0 1 .595-.239.795.795 0 0 1 .811.843.464.464 0 0 1-.006.091zm-1.333-.214h1.067a.534.534 0 0 0-1.067 0z" fill="#fff"/>
  <path d="M133.28 61.75a3.982 3.982 0 0 0-1.554-3.192 3.991 3.991 0 0 0-6.413 3.47c.048.614.238 1.209.553 1.737.155.256.347.443.534.715l2.32 3.067a.72.72 0 0 0 1.152 0l2.277-3.019a8.5 8.5 0 0 0 .581-.768c.359-.61.549-1.303.55-2.01zm-3.99 1.717a1.76 1.76 0 1 1-.01-3.52 1.76 1.76 0 0 1 .01 3.52z" fill="#DF1683"/>
  <path d="M107.435 219.013h-.742v-.272h1.792v.272h-.752v1.899h-.309l.011-1.899zM108.458 220.091a.852.852 0 0 1 .519-.796.858.858 0 0 1 .493-.054.858.858 0 0 1 .633 1.159.856.856 0 0 1-.786.533.817.817 0 0 1-.859-.842zm1.408 0a.555.555 0 0 0-.161-.391.555.555 0 0 0-.781 0 .556.556 0 0 0 0 .781.551.551 0 0 0 .942-.39zM111.504 220.8a.532.532 0 0 1-.357.117.47.47 0 0 1-.534-.533v-.901h-.277v-.246h.277v-.357h.32v.357h.47v.246h-.47v.89a.247.247 0 0 0 .007.108.25.25 0 0 0 .143.154c.034.013.07.018.106.016a.413.413 0 0 0 .235-.08l.08.229zM113.168 219.92v.992h-.283v-.213a.63.63 0 0 1-.533.234c-.374 0-.608-.197-.608-.485s.17-.48.656-.48h.474v-.059c0-.25-.144-.4-.442-.4a.804.804 0 0 0-.534.182l-.128-.224a1.07 1.07 0 0 1 .683-.214.617.617 0 0 1 .679.389.627.627 0 0 1 .036.278zm-.299.491v-.23h-.459c-.293 0-.378.118-.378.256 0 .139.133.267.362.267.1.008.2-.017.285-.07a.47.47 0 0 0 .19-.223zM113.717 218.613h.299v2.299h-.299v-2.299zM116.965 218.613v2.299h-.282v-.261a.704.704 0 0 1-.587.282.842.842 0 0 1 0-1.68.693.693 0 0 1 .576.267v-.907h.293zm-.293 1.478a.53.53 0 0 0-.36-.458.534.534 0 1 0 .36.458zM117.477 218.763a.202.202 0 0 1 .06-.142.199.199 0 0 1 .143-.056.204.204 0 0 1 .16.044.197.197 0 0 1 0 .301.204.204 0 0 1-.16.045.217.217 0 0 1-.076-.013.217.217 0 0 1-.065-.041.214.214 0 0 1-.045-.063.216.216 0 0 1-.017-.075zm.053.506h.299v1.643h-.299v-1.643zM118.187 220.741l.128-.24c.17.113.371.172.576.171.277 0 .389-.08.389-.219 0-.373-1.067-.053-1.067-.704 0-.298.267-.496.688-.496.209-.002.414.05.598.15l-.128.234a.875.875 0 0 0-.475-.128c-.261 0-.384.096-.384.224 0 .39 1.067.075 1.067.71 0 .298-.272.49-.71.49a1.22 1.22 0 0 1-.682-.192zM120.874 220.8a.533.533 0 0 1-.362.117.464.464 0 0 1-.401-.132.468.468 0 0 1-.133-.401v-.901h-.282v-.246H120v-.357h.298v.357h.47v.246h-.47v.89a.247.247 0 0 0 .061.201.236.236 0 0 0 .195.077.382.382 0 0 0 .23-.08l.09.229zM122.539 219.92v.992h-.283v-.213a.624.624 0 0 1-.533.234c-.368 0-.608-.197-.608-.485s.17-.48.661-.48h.475v-.059c0-.25-.15-.4-.443-.4a.827.827 0 0 0-.533.182l-.123-.224c.196-.148.437-.223.683-.214a.614.614 0 0 1 .704.667zm-.299.491v-.23h-.459c-.298 0-.378.118-.378.256 0 .139.133.267.362.267a.476.476 0 0 0 .475-.293zM124.645 219.968v.944h-.293V220c0-.32-.166-.48-.448-.48a.493.493 0 0 0-.534.533v.843h-.298v-1.643h.282v.251a.71.71 0 0 1 .598-.267.632.632 0 0 1 .672.443.639.639 0 0 1 .021.288zM125.056 220.091a.815.815 0 0 1 .251-.609.818.818 0 0 1 .618-.229.746.746 0 0 1 .672.352l-.229.144a.533.533 0 0 0-.448-.234.581.581 0 0 0 0 1.157.531.531 0 0 0 .448-.235l.229.139a.748.748 0 0 1-.672.357.822.822 0 0 1-.807-.511.818.818 0 0 1-.062-.331zM128.432 220.192h-1.333a.52.52 0 0 0 .197.366.528.528 0 0 0 .4.114.62.62 0 0 0 .475-.197l.165.192a.854.854 0 0 1-.651.266.828.828 0 0 1-.885-.842.805.805 0 0 1 .827-.838.798.798 0 0 1 .594.244.79.79 0 0 1 .216.604.55.55 0 0 1-.005.091zm-1.333-.213h1.066a.536.536 0 0 0-.533-.534.534.534 0 0 0-.533.534zM109.387 223.349v5.174h-1.2v-4.214h-1.035v-.96h2.235zM111.686 227.861a1.767 1.767 0 0 1-.198.736l-.426 1.067h-.731l.325-1.173a.65.65 0 0 1-.4-.63.715.715 0 1 1 1.43 0zM114.133 223.349v5.174h-1.226v-4.214h-1.035v-.96h2.261zM115.008 225.936c0-1.707.944-2.667 2.218-2.667 1.275 0 2.219.971 2.219 2.667 0 1.696-.939 2.667-2.219 2.667-1.28 0-2.218-.96-2.218-2.667zm3.232 0c0-1.173-.416-1.664-1.014-1.664-.597 0-1.008.491-1.008 1.664s.416 1.664 1.008 1.664c.592 0 1.014-.485 1.014-1.664zM120.026 225.936c0-1.707.95-2.667 2.224-2.667 1.275 0 2.219.971 2.219 2.667 0 1.696-.939 2.667-2.219 2.667-1.28 0-2.224-.96-2.224-2.667zm3.238 0c0-1.173-.416-1.664-1.014-1.664-.597 0-1.008.491-1.008 1.664s.416 1.664 1.008 1.664c.592 0 1.014-.485 1.014-1.664zM134.112 226.245v2.278h-1.152v-2.096c0-.646-.288-.944-.757-.944-.47 0-.88.336-.88 1.066v1.995h-1.152v-2.096c0-.645-.272-.944-.752-.944s-.875.336-.875 1.067v1.994h-1.152v-4.032h1.099v.459a1.592 1.592 0 0 1 1.253-.533 1.476 1.476 0 0 1 1.307.65 1.799 1.799 0 0 1 1.434-.65c.95.026 1.627.576 1.627 1.786z" fill="#263238"/>
  <path d="M103.97 223.953a4.464 4.464 0 1 0-8.691-2.043 4.464 4.464 0 0 0 8.691 2.043z" fill="#DF1683"/>
  <path d="M97.824 223.755c.38-.055.763-.078 1.146-.07.731 0 1.776-.037 3.024-.048l-.09.198c-.358-.406-.736-.854-1.142-1.318l-.069-.08.069-.09 1.126-1.403.106.224h-4.197l.128-.123c0 1.355-.032 2.496-.053 3.296a7.91 7.91 0 0 1-.075 1.264 8.797 8.797 0 0 1-.075-1.264c0-.8-.037-1.941-.048-3.296v-.122h4.582l-.182.224-1.136 1.402v-.17l1.12 1.333.171.197h-.261c-1.248 0-2.294-.032-3.024-.048a6.574 6.574 0 0 1-1.12-.106z" fill="#FAFAFA"/>
  <path d="M171.851 215.323h-13.494a2.586 2.586 0 0 0-2.586 2.586v10.624a2.585 2.585 0 0 0 2.586 2.582h.342v2.533l2.938-2.533h10.214a2.587 2.587 0 0 0 2.586-2.582v-10.624a2.586 2.586 0 0 0-2.586-2.586z" fill="#DF1683"/>
  <path d="M159.643 220.197v5.451a.213.213 0 0 0 .213.213h11.424a.205.205 0 0 0 .149-.066.208.208 0 0 0 .059-.152l-.027-1.995a.207.207 0 0 0-.037-.123l-1.643-2.192a.203.203 0 0 0-.165-.085h-1.888a.213.213 0 0 1-.213-.208v-.827a.208.208 0 0 0-.128-.197.22.22 0 0 0-.08-.016h-7.467a.215.215 0 0 0-.197.197z" fill="#FAFAFA"/>
  <path d="M168.048 221.712v1.755a.122.122 0 0 0 .123.122l2.522-.042a.126.126 0 0 0 .105-.068.128.128 0 0 0 .013-.063.122.122 0 0 0-.022-.061l-1.189-1.75a.117.117 0 0 0-.043-.04.108.108 0 0 0-.058-.013l-1.344.037a.117.117 0 0 0-.078.04.116.116 0 0 0-.029.083z" fill="#DF1683"/>
  <path d="M171.717 226.027h-12.304v.378h12.304v-.378z" fill="#FAFAFA"/>
  <path d="M163.483 226.171a1.22 1.22 0 0 1-1.459 1.203 1.221 1.221 0 0 1 .243-2.419 1.217 1.217 0 0 1 1.216 1.216z" fill="#DF1683"/>
  <path d="M162.981 226.171a.717.717 0 0 1-.859.711.716.716 0 0 1-.567-.567.718.718 0 0 1 .711-.859.715.715 0 0 1 .715.715z" fill="#FAFAFA"/>
  <path d="M167.509 225.861c-.032 0-.058-1.317-.058-2.938 0-1.622 0-2.939.058-2.939.059 0 .054 1.317.054 2.939 0 1.621-.027 2.938-.054 2.938zM170.133 226.171a1.212 1.212 0 0 1-.75 1.123 1.218 1.218 0 0 1-1.589-1.589 1.212 1.212 0 0 1 1.123-.75 1.215 1.215 0 0 1 1.216 1.216z" fill="#DF1683"/>
  <path d="M169.6 226.171a.724.724 0 0 1-.441.669.726.726 0 0 1-.787-.153.718.718 0 0 1-.158-.785.718.718 0 0 1 1.173-.237.723.723 0 0 1 .213.506z" fill="#FAFAFA"/>
  <path d="M168.901 223.925c0 .032-.176.054-.389.054-.213 0-.389 0-.389-.054 0-.053.176-.058.389-.058.213 0 .389.026.389.058z" fill="#DF1683"/>
  <path d="M296.181 134.469s8.603 1.451 9.296 1.638c.694.186 3.419 1.477 3.558 2.309a24.93 24.93 0 0 1 0 3.28s-.496.4-.8-.4a8.188 8.188 0 0 1-.262-2.384l-1.525-.587.832 1.478.139 3.461s-1.067-.096-1.275-.923a8.15 8.15 0 0 1-.203-1.754l-1.109-.939.832 1.125.277 2.491s-.81.267-1.066-.288a8.574 8.574 0 0 1-.278-2.203l-3.136-1.098-2.074 1.157-3.878-2.165.672-4.198z" fill="#FFBE9D"/>
  <path d="M266.059 113.205c.043.171 10.368 14.4 10.368 14.4l20.747 6.454-.944 7.792-25.424-5.12-9.024-10.358 4.277-13.168z" fill="#DF1683"/>
  <path opacity=".2" d="M266.059 113.205c.043.171 10.368 14.4 10.368 14.4l20.747 6.454-.944 7.792-25.424-5.12-9.024-10.358 4.277-13.168z" fill="#000"/>
  <path d="M229.92 132.773h-42.389c-.898 0-1.627.729-1.627 1.627v5.008c0 .898.729 1.627 1.627 1.627h42.389c.899 0 1.627-.729 1.627-1.627V134.4c0-.898-.728-1.627-1.627-1.627z" fill="#F5F5F5"/>
  <path d="M229.925 141.035s.091 0 .267-.038a1.6 1.6 0 0 0 1.301-1.402v-5.232a1.609 1.609 0 0 0-.533-1.142 1.55 1.55 0 0 0-.603-.314 2.418 2.418 0 0 0-.72-.048h-4.944l-37.125.042a1.49 1.49 0 0 0-1.414 1.019 1.538 1.538 0 0 0-.074.613v4.667c-.01.204.008.409.053.608a1.51 1.51 0 0 0 1.275 1.093h10.485l16.688.032 11.254.043 3.061.027H229.963 228.896l-3.061.026-11.254.043-16.688.032h-10.554a1.78 1.78 0 0 1-1.19-.662 1.773 1.773 0 0 1-.314-.618 2.153 2.153 0 0 1-.064-.683v-4.645a1.838 1.838 0 0 1 .464-1.333 1.746 1.746 0 0 1 1.306-.576l37.126.042h4.944c.256-.01.512.011.762.064a1.703 1.703 0 0 1 1.254 1.606V137.776c0 .667 0 1.248-.027 1.771a1.684 1.684 0 0 1-.645 1.114 1.591 1.591 0 0 1-.736.304.964.964 0 0 1-.294.07zM345.021 246.599c12.03-.577 21.314-10.798 20.737-22.829-.578-12.03-10.799-21.314-22.83-20.736-12.03.578-21.314 10.798-20.736 22.829.578 12.03 10.799 21.314 22.829 20.736z" fill="#263238"/>
  <path d="M322.176 224.448v.059a21.808 21.808 0 0 0 43.611.629v-.059l-43.611-.629z" fill="#263238"/>
  <path d="M328.667 224.597a15.316 15.316 0 0 0 9.246 14.283 15.314 15.314 0 0 0 21.037-10.856 15.305 15.305 0 0 0-.744-8.859 15.306 15.306 0 0 0-14.009-9.656 15.314 15.314 0 0 0-15.53 15.088z" fill="#FAFAFA"/>
  <path d="M344.197 209.509a15.31 15.31 0 0 0-15.53 15.088l30.618.443a15.31 15.31 0 0 0-15.088-15.531z" fill="#E0E0E0"/>
  <path d="M334.651 224.683a9.324 9.324 0 0 0 5.631 8.702 9.333 9.333 0 0 0 10.195-1.873 9.333 9.333 0 0 0 2.17-10.136 9.332 9.332 0 0 0-8.535-5.883 9.33 9.33 0 0 0-9.461 9.19z" fill="#263238"/>
  <path d="M333.627 192.843s22.325-6.752 31.557 17.504l-46.72 14.474 15.163-31.978z" fill="#DF1683"/>
  <path d="M210.472 246.602c12.03-.578 21.314-10.799 20.736-22.83-.578-12.03-10.799-21.314-22.829-20.736-12.03.578-21.314 10.799-20.737 22.829.578 12.03 10.799 21.314 22.83 20.737z" fill="#263238"/>
  <path d="M187.621 224.448v.059a21.808 21.808 0 0 0 43.611.629v-.069l-43.611-.619z" fill="#263238"/>
  <path d="M194.133 224.597a15.31 15.31 0 0 0 18.08 15.282 15.308 15.308 0 0 0 11.46-20.714 15.306 15.306 0 0 0-14.009-9.656 15.315 15.315 0 0 0-15.531 15.088z" fill="#FAFAFA"/>
  <path d="M209.643 209.509a15.313 15.313 0 0 0-15.51 15.088l30.619.443a15.309 15.309 0 0 0-9.261-14.286 15.325 15.325 0 0 0-5.848-1.245z" fill="#E0E0E0"/>
  <path d="M200.096 224.683a9.324 9.324 0 0 0 5.631 8.702 9.334 9.334 0 0 0 10.195-1.873 9.333 9.333 0 0 0-1.205-14.372 9.332 9.332 0 0 0-14.621 7.543z" fill="#263238"/>
  <path d="M240.442 216.064c-.122.064-11.477-1.755-11.477-1.755a6.94 6.94 0 0 1-5.179 2.71 5015.5 5015.5 0 0 1-13.866.64 7.039 7.039 0 0 0-6.72 7.322 7.046 7.046 0 0 0 6.757 6.742l24.176.954c3.973.155 9.253-2.256 11.733-5.365l-5.424-11.248z" fill="#455A64"/>
  <path d="M181.109 206.4s-1.034-21.253 18.939-25.68v-2.725h69.963v6.538s-10.267 12.368-6.934 22.635c3.334 10.267 4.4 11.317 4.4 11.317h39.819a27.203 27.203 0 0 0 5.029-15.088c.214-9.013-3.53-24.421-6.33-34.272-2.528-8.986-4.128-16.474-4.128-16.474l11.946-3.984S335.92 177.6 336.821 179.2c.902 1.6 3.974 5.419 3.254 13.728-.72 8.309-20.608 33.941-25.824 36.832-5.216 2.891-9.931 3.072-14.63 3.792-4.074.629-34.218.213-42.106.091a15.475 15.475 0 0 1-7.787-2.16c-2.357-1.43-4.128-3.798-6.085-7.68l-4.176-8.128-58.358-9.275z" fill="#DF1683"/>
  <path d="m186.464 204.939-8.811 13.802a2.134 2.134 0 0 0 2.619 3.158 10.248 10.248 0 0 0 2.96-2.006c4.027-3.834 11.2-13.936 11.2-13.936l-7.968-1.018z" fill="#455A64"/>
  <path d="M249.659 207.424s0-.069.053-.203l.176-.581a15.37 15.37 0 0 0 .464-2.277 16.08 16.08 0 0 0-1.365-8.331 17.462 17.462 0 0 0-3.248-4.88 21.312 21.312 0 0 0-5.334-4.085 26.963 26.963 0 0 0-6.986-2.603 36.837 36.837 0 0 0-8-.827c-2.677.02-5.35.218-8 .592-2.582.347-5.056.774-7.392 1.307a43.776 43.776 0 0 0-11.867 4.389 29.368 29.368 0 0 0-6.779 5.179 26.544 26.544 0 0 0-1.546 1.739l-.379.474a.89.89 0 0 1-.139.155 18.04 18.04 0 0 1 1.984-2.443 28.837 28.837 0 0 1 6.763-5.274 43.407 43.407 0 0 1 11.909-4.47c2.336-.533 4.8-.976 7.408-1.328a60.787 60.787 0 0 1 8.064-.597 36.73 36.73 0 0 1 8.043.837 27.35 27.35 0 0 1 7.051 2.667 21.437 21.437 0 0 1 5.402 4.149 17.568 17.568 0 0 1 3.259 4.96 16.013 16.013 0 0 1 1.291 8.427 13.57 13.57 0 0 1-.534 2.277c-.085.246-.149.432-.202.576-.027.06-.059.117-.096.171z" fill="#263238"/>
  <path d="M245.632 202.667c-.032 0 .112-.336.261-.944.2-.876.228-1.781.08-2.667a10.938 10.938 0 0 0-1.301-3.701 12.524 12.524 0 0 0-1.291-1.942 11.736 11.736 0 0 0-1.733-1.797 15.14 15.14 0 0 0-4.16-2.432 19.597 19.597 0 0 0-3.819-1.067 25.084 25.084 0 0 0-2.666-.304 7.871 7.871 0 0 1-.982-.074.845.845 0 0 1 .256 0h.731a20.01 20.01 0 0 1 2.667.218c1.326.191 2.628.525 3.882.998a15.185 15.185 0 0 1 4.267 2.458 12.28 12.28 0 0 1 1.771 1.84c.49.624.924 1.289 1.296 1.99a10.602 10.602 0 0 1 1.269 3.797c.133.901.076 1.82-.165 2.699a3.846 3.846 0 0 1-.256.688.938.938 0 0 1-.107.24z" fill="#F5F5F5"/>
  <path opacity=".4" d="M231.931 184.032c3.765.688 7.35 2.14 10.533 4.267a18.613 18.613 0 0 1 7.056 8.768c1.397 3.594 1.189 8.357-.283 11.333l4.944.411c1.664-5.552-.144-12.363-4.144-16.71a24.527 24.527 0 0 0-18.106-8.09" fill="#000"/>
  <path d="M230.352 140.619h-43.248a4.576 4.576 0 0 0-4.576 4.576v28.24a4.576 4.576 0 0 0 4.576 4.576h43.248a4.576 4.576 0 0 0 4.576-4.576v-28.24a4.575 4.575 0 0 0-4.576-4.576z" fill="#455A64"/>
  <path d="M234.928 148.96c0 .08-11.781.139-26.309.139s-26.315-.059-26.315-.139c0-.08 11.776-.139 26.315-.139 14.539 0 26.309.064 26.309.139zM269.979 180.485c0 .075-15.728.139-35.12.139-19.392 0-35.12-.064-35.12-.139 0-.074 15.722-.138 35.12-.138 19.397 0 35.12.064 35.12.138z" fill="#263238"/>
  <path d="M270.011 178.011a6.055 6.055 0 0 0 1.269-3.136c.107-1.755-.693-3.952-2.587-3.952h-24.16a7.086 7.086 0 0 0-7.088 7.088h32.566z" fill="#455A64"/>
  <path d="m301.867 152.651-4.203-8.763a5.33 5.33 0 0 1 2.134-6.853l12.565-7.494a4.213 4.213 0 0 1 2.171-.602h2.714l1.067 17.712-4.181 1.616 2.666 4.309-14.933.075z" fill="#DF1683"/>
  <path d="M317.286 129.6s4.298.987 4.837 7.611c.539 6.624-3.792 8.693-3.792 8.693l-1.045-16.304z" fill="#EBEBEB"/>
  <path d="M303.333 140.453s-8.688 4.118-9.749 4.8c-.736.47-1.366 1.291-.79 2.736.982 2.459 5.046.144 5.046.144l8.09-4.042s3.11-1.467 1.958-3.307c-1.286-2.059-4.555-.331-4.555-.331z" fill="#263238"/>
  <path d="M291.035 138.955s8.165 1.397 8.858 1.6c.694.202 3.414 1.477 3.552 2.309a24.93 24.93 0 0 1 0 3.28s-.49.4-.8-.4a8.4 8.4 0 0 1-.261-2.389l-1.525-.587.832 1.477.138 3.467s-1.066-.096-1.269-.928a8.112 8.112 0 0 1-.203-1.749l-1.114-.944.832 1.125.282 2.496s-.81.261-1.066-.293a8.574 8.574 0 0 1-.278-2.203l-3.136-1.093-2.074 1.157-3.264-1.813.496-4.512z" fill="#FFBE9D"/>
  <path d="M303.749 127.584c0 3.307-1.52 5.984-3.392 5.984-1.872 0-3.392-2.667-3.392-5.984s1.515-5.984 3.392-5.984c1.878 0 3.392 2.667 3.392 5.984z" fill="#263238"/>
  <path d="m300.912 131.696 1.867 6.464a1.675 1.675 0 0 0 .869-1.909c-.469-2.214-.736-3.787-1.248-5.728-.064-.192-1.488 1.173-1.488 1.173" fill="#263238"/>
  <path opacity=".4" d="M264 209.904c-.181-.533-.373-1.067-.533-1.637-.16-.571-.363-1.067-.502-1.6-.215-.8-.371-1.615-.469-2.438-3.147 12.8 1.659 21.83 9.904 22.464 12.053.928 26.747 1.6 32.688.043 10.832-2.843 14.805-11.877 15.755-13.365.949-1.488 9.562-17.238 4.266-32.4-5.296-15.163-14.48-31.264-14.48-31.264l-8.762 2.944s1.6 7.466 4.144 16.448c2.8 9.85 6.544 25.258 6.33 34.272a27.195 27.195 0 0 1-5.029 15.088h-39.813s-.854-.854-3.483-8.534" fill="#000"/>
  <path d="m179.52 203.083.283-3.04 72.682 8.373a7.17 7.17 0 0 1 4.924 2.848 7.172 7.172 0 0 1 1.306 5.536l-.326 1.84-75.2-10.928a4.266 4.266 0 0 1-3.669-4.629z" fill="#DF1683"/>
  <path opacity=".6" d="m179.52 203.083.283-3.04 72.682 8.373a7.17 7.17 0 0 1 4.924 2.848 7.172 7.172 0 0 1 1.306 5.536l-.326 1.84-75.2-10.928a4.266 4.266 0 0 1-3.669-4.629z" fill="#000"/>
  <path opacity=".3" d="M320.843 223.413s16-17.6 19.301-31.434c1.659-.01 3.316.113 4.955.368 0 0-9.462 25.722-24.256 31.066z" fill="#000"/>
  <path d="M339.909 185.781c.042.145.07.293.086.443.042.293.128.725.181 1.285a19.573 19.573 0 0 1-.123 4.8 24.2 24.2 0 0 1-2.133 6.763 76.435 76.435 0 0 1-4.235 7.573 101.05 101.05 0 0 1-9.365 12.662 196.729 196.729 0 0 1-3.125 3.61l-.864.966a3.864 3.864 0 0 1-.315.325c.079-.127.17-.247.272-.357l.827-1.003 3.056-3.664a109.93 109.93 0 0 0 9.28-12.683 81.188 81.188 0 0 0 4.266-7.536 24.72 24.72 0 0 0 2.134-6.688c.245-1.566.315-3.154.208-4.736-.038-.56-.107-.992-.128-1.29a2.385 2.385 0 0 1-.022-.47zM312.251 223.285a21.485 21.485 0 0 1-2.566-2.314 22.057 22.057 0 0 1-2.368-2.512 42.757 42.757 0 0 1 4.934 4.826zM264.763 222.747a7.405 7.405 0 0 1 1.178-2.278 7.517 7.517 0 0 1 1.68-1.936c.059.059-.672.934-1.45 2.091-.779 1.157-1.334 2.155-1.408 2.123zM234.021 232.907a10.754 10.754 0 0 0 2.182-2.774 9.53 9.53 0 0 0 1.066-3.653 8.48 8.48 0 0 0-3.829-8 9.523 9.523 0 0 0-3.509-1.467 10.755 10.755 0 0 0-3.526-.048c.075-.032.154-.055.235-.069a5.84 5.84 0 0 1 .704-.139 8.4 8.4 0 0 1 2.624.064 9.527 9.527 0 0 1 3.616 1.446 8.622 8.622 0 0 1 3.941 8.261 9.518 9.518 0 0 1-1.152 3.733 8.244 8.244 0 0 1-1.6 2.08 5.352 5.352 0 0 1-.533.464.992.992 0 0 1-.219.102zM207.467 227.333a11.465 11.465 0 0 1-.262-2.56 12.103 12.103 0 0 1 0-2.581c.267 1.7.349 3.424.246 5.141h.016zM209.408 227.339a24.716 24.716 0 0 1-.656-5.152c.243.835.398 1.693.464 2.56.154.855.219 1.723.192 2.592zM239.387 178.011c0 .074-8.838.138-19.734.138-10.896 0-19.733-.064-19.733-.138 0-.075 8.837-.139 19.733-.139s19.734.059 19.734.139z" fill="#263238"/>
  <path d="M210.768 177.984c-.08 0-.139-10.133-.139-22.603 0-12.469.038-22.581.139-22.581s.139 10.133.139 22.608c0 12.475-.064 22.576-.139 22.576zM205.333 177.947c-.075 0 .304-10.134.848-22.592.544-12.459 1.067-22.587 1.12-22.582.053.006-.299 10.134-.843 22.592-.544 12.459-1.024 22.587-1.125 22.582z" fill="#263238"/>
  <path d="M193.115 239.627a1.72 1.72 0 0 1-.235-.24c-.139-.16-.368-.39-.619-.715a20.566 20.566 0 0 1-1.968-2.891 22.097 22.097 0 0 1 .091-22.122 20.13 20.13 0 0 1 1.989-2.875c.256-.325.486-.533.63-.715.144-.181.229-.24.234-.229a1.32 1.32 0 0 1-.192.267c-.128.176-.346.41-.586.746a22.545 22.545 0 0 0-1.995 24.832 22.714 22.714 0 0 0 1.883 2.918c.234.336.448.576.576.752.128.176.202.261.192.272zM269.52 198.992l-.165.309-3.222 6.032-4.501 4.331 8.997 11.979 7.493-1.243s-.837-1.712-4.602-2.043l-1.424-7.157 5.285-8.192" fill="#455A64"/>
  <path d="m261.643 209.68 8.997 11.979 7.493-1.243-1.029-.987-6.149.672-8.352-11.344-.96.923z" fill="#E0E0E0"/>
  <path d="M272.933 215.083c-.042.085-.533-.091-1.066.026-.534.118-.966.422-1.035.358-.069-.064.267-.566.971-.688.704-.123 1.189.234 1.13.304zM272.533 213.333c-.064.064-.474-.32-1.066-.341-.592-.021-1.067.336-1.115.267-.048-.07.037-.166.229-.32.26-.19.575-.287.896-.278.322.009.631.127.875.336.144.15.181.294.181.336zM272.187 211.013c-.075.059-.406-.33-.955-.426-.549-.096-.992.154-1.067.074-.074-.08.048-.154.245-.266a1.32 1.32 0 0 1 1.6.288c.182.17.214.309.177.33zM273.893 208.907c-.08.042-.362-.347-.88-.571-.517-.224-.986-.192-1.008-.283-.021-.09.534-.309 1.147 0 .613.31.832.827.741.854zM274.619 207.205c-.038.027-.331-.229-.784-.677l-.768-.795a2.435 2.435 0 0 1-.448-.533.606.606 0 0 1-.032-.464.463.463 0 0 1 .41-.309c.273.003.539.089.763.245.195.125.375.274.533.443.265.291.461.64.571 1.018.14.342.14.725 0 1.067a7.929 7.929 0 0 0-.224-.976 2.666 2.666 0 0 0-.571-.88 2.41 2.41 0 0 0-.485-.373 1.249 1.249 0 0 0-.565-.198.143.143 0 0 0-.078.026.134.134 0 0 0-.05.065.287.287 0 0 0 0 .219c.104.171.229.329.373.469l.731.848c.249.233.46.505.624.805z" fill="#263238"/>
  <path d="M274.923 207.381c-.038 0-.075-.394.256-.912a1.9 1.9 0 0 1 2.133-.773.367.367 0 0 1 .16.251.451.451 0 0 1-.053.25c-.06.107-.138.203-.23.283a3.445 3.445 0 0 1-.48.389 3.32 3.32 0 0 1-.938.438 1.533 1.533 0 0 1-.939.069c0-.053.347-.085.864-.293.298-.118.579-.274.837-.464.153-.113.295-.237.427-.374a.82.82 0 0 0 .165-.197c.027-.075 0-.053 0-.069a.58.58 0 0 0-.229-.048 1.672 1.672 0 0 0-.283 0 1.853 1.853 0 0 0-.533.128 1.832 1.832 0 0 0-.741.533 6.456 6.456 0 0 0-.416.789z" fill="#263238"/>
  <path d="M267.584 208.459a.899.899 0 0 1-.918 1.049.897.897 0 0 1-.848-1.106.893.893 0 0 1 .732-.685.906.906 0 0 1 1.034.742z" fill="#E0E0E0"/>
  <path d="m296.827 204.752 2.405 15.616 19.451-2.891c-.395-1.84-11.008-4.074-11.008-4.074l-1.131-10.07-9.717 1.419z" fill="#455A64"/>
  <path d="M301.536 213.456a.798.798 0 0 0-.416.987.778.778 0 0 0 .976.421.848.848 0 0 0 .432-1.067.804.804 0 0 0-1.067-.325M299.232 220.368l-.181-1.6 18.714-2.181s.923.25.918.874l-19.451 2.907z" fill="#E0E0E0"/>
  <path d="M307.973 213.259c0 .096-.453.208-.88.581-.426.373-.608.811-.704.789-.096-.021-.031-.597.486-1.04.517-.442 1.109-.421 1.098-.33zM310.139 213.797c.037.091-.352.31-.614.763-.261.453-.293.885-.389.896-.096.011-.235-.533.101-1.067.336-.533.886-.682.902-.592zM311.664 216.064c-.085.037-.288-.421-.122-.976.165-.555.581-.832.634-.757.054.074-.181.394-.314.853-.134.459-.107.859-.198.88zM307.461 210.992c0 .091-.48.027-1.013.139-.533.112-.923.352-.987.277-.064-.075.294-.475.918-.603.624-.128 1.12.102 1.082.187zM306.667 208.752a1.846 1.846 0 0 1-.976.139 4.478 4.478 0 0 1-1.067-.16 4.568 4.568 0 0 1-.624-.198 1.052 1.052 0 0 1-.325-.186.406.406 0 0 1-.117-.496.529.529 0 0 1 .384-.283c.121-.019.246-.019.368 0 .216.016.431.055.64.117.35.1.683.253.986.454.534.352.72.682.688.709-.032.027-.304-.229-.81-.507a3.849 3.849 0 0 0-.944-.357 2.916 2.916 0 0 0-.587-.091c-.213 0-.389 0-.427.102-.037.101 0 .048.038.106a.958.958 0 0 0 .24.134c.182.082.369.155.56.218.324.104.658.177.997.219.327.003.653.03.976.08z" fill="#263238"/>
  <path d="M306.555 208.907c-.032 0-.272-.294-.4-.902a3.287 3.287 0 0 1 0-1.066c.034-.214.088-.425.16-.63a.817.817 0 0 1 .533-.581.462.462 0 0 1 .448.208c.067.108.119.225.155.347a2.265 2.265 0 0 1-.171 1.722c-.304.534-.683.731-.693.699-.011-.032.261-.272.48-.8a2.222 2.222 0 0 0 .069-1.52c-.059-.203-.16-.357-.235-.325a.698.698 0 0 0-.293.368 3.265 3.265 0 0 0-.165.565 3.585 3.585 0 0 0-.043.997c.048.544.203.896.155.918zM281.525 168.069l-16.677 36.342 11.013 6.613 23.062-43.728" fill="#263238"/>
  <path d="m309.029 211.851-11.962 1.92-7.163-42.742-35.387 2.566a8.623 8.623 0 0 1-2.784-.262c-9.936-2.725-8.592-15.397-7.632-17.429l48.966-1.403a10.42 10.42 0 0 1 10.624 8.976l5.338 48.374z" fill="#263238"/>
  <path d="m243.605 157.909.176-18.069s-2.33-11.733-3.024-16.368c-1.066-7.168-2.538-10.576 9.206-15.669l2.57-.992 3.974.053c4.736.357 9.728 4.64 9.845 7.467l4.581 40.73-27.328 2.848z" fill="#DF1683"/>
  <path d="M244.342 112s-3.318 7.136-2.667 13.637l12.357 11.862c2.768 3.082 6.235 4.394 10.667 4.661l25.568 2.795.709-6.688-24.309-6.891c-.971-.181-1.456-1.189-2.197-1.84L244.342 112z" fill="#DF1683"/>
  <path d="M242.341 114.059c.144-.138.31-.249.491-.331a6.092 6.092 0 0 1 1.653-.464 8.539 8.539 0 0 1 2.763 0c.283.051.556.145.811.277.26.164.511.342.752.534.49.384.986.826 1.493 1.306 1.024.955 1.995 2.166 3.131 3.392a188.246 188.246 0 0 0 8.101 8.246c.784.746 1.6 1.504 2.448 2.245.432.352.859.768 1.269 1.157.387.401.876.688 1.414.832l24.357 6.88.112.032v.118c-.048.474-.107.981-.16 1.498-.187 1.776-.373 3.536-.533 5.19v.138h-.139l-10.837-1.205-5.12-.56-4.902-.496c-1.6-.176-3.141-.357-4.64-.576a20.91 20.91 0 0 1-4.298-.997 15.812 15.812 0 0 1-3.616-1.947 45.254 45.254 0 0 1-2.992-2.309c-3.654-3.115-6.336-5.904-8.198-7.803a152.352 152.352 0 0 1-2.106-2.219l-.534-.586-.176-.208s.07.058.198.186.314.326.533.571l2.133 2.187c1.883 1.872 4.587 4.64 8.246 7.728a43.56 43.56 0 0 0 2.981 2.282 15.922 15.922 0 0 0 3.584 1.91c1.384.472 2.814.797 4.267.97 1.498.214 3.045.395 4.634.566l4.902.48 5.12.56 10.826 1.178-.154.123c.176-1.653.362-3.413.533-5.195.059-.533.112-1.024.16-1.498l.101.149-24.32-6.907a3.245 3.245 0 0 1-1.557-.901c-.432-.411-.821-.795-1.264-1.163a71.643 71.643 0 0 1-2.448-2.256 184.829 184.829 0 0 1-4.357-4.341 202.284 202.284 0 0 1-3.734-3.952c-1.146-1.243-2.085-2.448-3.098-3.403a18.045 18.045 0 0 0-1.472-1.306 6.383 6.383 0 0 0-.736-.534 2.596 2.596 0 0 0-.774-.272 8.28 8.28 0 0 0-2.725-.042 6.137 6.137 0 0 0-1.648.421 3.76 3.76 0 0 0-.475.315z" fill="#263238"/>
  <path d="m248.725 91.136 1.238 17.6a5.481 5.481 0 0 0 5.472 5.093 5.468 5.468 0 0 0 4.001-1.734 5.48 5.48 0 0 0 1.471-4.106c-.112-1.674-.208-3.045-.208-3.045s4.266-.661 4.309-4.923c.032-2.458-.395-8.037-.757-12.314a5.586 5.586 0 0 0-5.584-5.11h-2.576a7.876 7.876 0 0 0-7.014 5.437 7.875 7.875 0 0 0-.352 3.102z" fill="#FFBE9D"/>
  <path d="M260.704 104.875a9.923 9.923 0 0 1-5.552-1.574s1.312 3.062 5.563 2.667l-.011-1.093z" fill="#EB996E"/>
  <path d="M263.296 93.173a.608.608 0 0 1-.587.614.576.576 0 0 1-.629-.534.617.617 0 0 1 1.013-.479.585.585 0 0 1 .203.4zM263.52 91.973c-.08.08-.533-.261-1.194-.261-.662 0-1.131.33-1.206.25-.074-.08.043-.18.256-.33.281-.198.617-.302.96-.299.342 0 .674.108.95.31.181.149.266.293.234.33zM257.152 93.173a.602.602 0 0 1-.587.614.576.576 0 0 1-.629-.534.617.617 0 0 1 1.013-.479.585.585 0 0 1 .203.4zM257.067 92.096c-.075.08-.534-.261-1.195-.261s-1.131.33-1.2.25c-.069-.08.037-.181.251-.33.281-.198.616-.302.96-.299.34-.002.673.104.949.304.235.155.293.299.235.336zM259.462 96.95a4.356 4.356 0 0 1 1.066-.193c.166 0 .326-.053.352-.165a.793.793 0 0 0-.112-.496l-.501-1.27a21.426 21.426 0 0 1-1.109-3.327 22.74 22.74 0 0 1 1.376 3.226l.469 1.28a.964.964 0 0 1 .091.656.43.43 0 0 1-.278.246 1.177 1.177 0 0 1-.282.037 4.269 4.269 0 0 1-1.072.005zM257.536 97.403c.107 0 .107.704.715 1.205.608.501 1.365.427 1.371.533.005.107-.171.134-.491.144a1.768 1.768 0 0 1-1.141-.4 1.538 1.538 0 0 1-.534-1.013c-.048-.272.032-.475.08-.47zM257.253 89.53c-.064.177-.714.097-1.482.187-.768.091-1.392.304-1.494.144-.101-.16.064-.245.315-.416a2.578 2.578 0 0 1 2.267-.25c.282.112.426.25.394.336zM263.275 90.08c-.112.15-.565 0-1.104 0-.539 0-1.003.096-1.109-.059-.107-.154.026-.224.229-.362.267-.175.582-.261.901-.246.317.007.625.111.88.3.192.143.256.292.203.367z" fill="#263238"/>
  <path d="M250.16 94.336c-.075-.032-2.928-.87-2.832 2.043.096 2.912 2.992 2.218 2.997 2.133.006-.085-.165-4.176-.165-4.176z" fill="#FFBE9D"/>
  <path d="M249.398 97.44s-.048.037-.134.08a.532.532 0 0 1-.378 0 1.258 1.258 0 0 1-.614-1.104 1.69 1.69 0 0 1 .118-.73.59.59 0 0 1 .368-.406.263.263 0 0 1 .304.133c.042.08.026.14.042.144.016.006.059-.053.032-.17a.316.316 0 0 0-.122-.182.386.386 0 0 0-.283-.064.698.698 0 0 0-.533.47 1.686 1.686 0 0 0-.15.816 1.306 1.306 0 0 0 .779 1.232.534.534 0 0 0 .459-.09c.112-.06.122-.124.112-.129z" fill="#EB996E"/>
  <path d="M248.533 94.235a1.536 1.536 0 0 1 1.403.72c.187.416.229.885.416 1.301a1.069 1.069 0 0 0 1.067.688.898.898 0 0 0 .608-.667 2.43 2.43 0 0 0 0-.938c-.171-1.36-.454-2.704-.507-4.075a6.93 6.93 0 0 1 .859-3.957 3.804 3.804 0 0 1 3.402-1.915c.907.075 1.734.533 2.635.672a3.564 3.564 0 0 0 2.955-.987c.17-.143.348-.276.533-.4a1.65 1.65 0 0 0-.304-.896c-1.787-1.653-4.997-2.133-7.355-1.52a8.494 8.494 0 0 0-5.573 4.464c-1.013 2.208-.715 5.275-.155 7.51" fill="#263238"/>
  <path d="M264.299 87.045s-11.168-3.594-16 6.07a18.047 18.047 0 0 1-.726-3.734c0-.864.534-6.021 5.824-7.642 0 .021 7.995-3.03 10.902 5.306z" fill="#DF1683"/>
  <path d="M254.699 87.285a2.425 2.425 0 0 0 1.848 1.143 2.433 2.433 0 0 0 2.024-.79 1.425 1.425 0 0 0 1.401.9 1.426 1.426 0 0 0 1.303-1.04c.298.335.661.605 1.066.795a1.11 1.11 0 0 0 1.243-.261 1.072 1.072 0 0 0-.08-1.28 2.607 2.607 0 0 0-1.131-.763 8.185 8.185 0 0 0-4.213-.64 5.69 5.69 0 0 0-3.696 2.011" fill="#263238"/>
  <path opacity=".4" d="M264.299 87.045a5.192 5.192 0 0 0-3.552-1.6c-3.296-.144-9.462 1.707-12.448 7.68a18.046 18.046 0 0 1-.726-3.733c0-.864.534-6.021 5.824-7.643 0 .011 7.995-3.04 10.902 5.296z" fill="#000"/>
  <path d="M248.763 91.984a21.026 21.026 0 0 1 6.506-6.23c2.571-1.6 6.816-3.2 9.739-3.967a6.356 6.356 0 0 1 2.693-.283 2.425 2.425 0 0 1 1.995 1.632c.277 1.104-1.68 2.805-2.603 3.472-.9.602-1.833 1.154-2.794 1.653 0 0 .026-2.048-3.248-2.469-4.454-.57-12.288 6.192-12.288 6.192z" fill="#DF1683"/>
  <path opacity=".3" d="M244.832 128.277c1.152 2.779 2.315 6.208 3.984 8.71 1.669 2.501 3.899 4.725 6.672 5.866 3.488 1.462 7.611 1.696 11.077.203.283-.123.838-.277.784-.581 0 0-1.146-.134-1.504-.192-7.002-1.163-7.765-2.016-11.12-4.683-2.09-1.648-6.725-6.645-9.893-9.323z" fill="#000"/>
  <path d="M267.104 148.512a2.93 2.93 0 0 1-.293.651 8.136 8.136 0 0 1-1.131 1.6 12.267 12.267 0 0 1-5.413 3.301 24.813 24.813 0 0 1-6.315.944 48.64 48.64 0 0 1-1.931.037 4.098 4.098 0 0 1-.709-.032c.231-.053.467-.08.704-.08l1.925-.122a27.649 27.649 0 0 0 6.246-1.014 12.693 12.693 0 0 0 5.365-3.2 13.68 13.68 0 0 0 1.552-2.085z" fill="#263238"/>
  <path d="M297.275 215.045a.522.522 0 0 1-.043-.165c0-.123-.053-.288-.096-.491-.08-.448-.197-1.066-.341-1.888-.294-1.664-.704-4.037-1.216-6.965-.998-5.899-2.374-14.021-3.894-22.992-.677-4.064-1.322-7.947-1.914-11.493l.138.112-15.312 1.104-4.394.298-1.174.07H268.624h.101l.304-.038 1.168-.106 4.39-.374 15.301-1.221h.117v.117c.598 3.547 1.254 7.43 1.936 11.488 1.488 8.976 2.832 17.104 3.814 23.008.469 2.934.853 5.334 1.125 6.976l.288 1.904c.032.203.053.368.069.491a.67.67 0 0 1 .038.165z" fill="#455A64"/>
  <path d="M293.493 167.221c.048.064-.885.864-1.941 1.942-1.056 1.077-1.845 2.021-1.909 1.968a12.7 12.7 0 0 1 3.85-3.91z" fill="#455A64"/>
  <path d="M260.8 108.357s.032.059.064.176c.053.174.087.353.101.534a4.364 4.364 0 0 1-.256 1.941 4.963 4.963 0 0 1-1.76 2.304 5.329 5.329 0 0 1-3.418.917 6.171 6.171 0 0 1-3.323-1.248 7.05 7.05 0 0 1-1.888-2.202 7.61 7.61 0 0 1-.725-1.814 5.005 5.005 0 0 1-.107-.533c-.016-.133 0-.187 0-.187.247.842.585 1.653 1.008 2.422a7.314 7.314 0 0 0 1.872 2.096 6.044 6.044 0 0 0 3.2 1.173 5.181 5.181 0 0 0 3.259-.848 4.925 4.925 0 0 0 1.717-2.165 4.53 4.53 0 0 0 .336-1.862c-.037-.448-.08-.693-.08-.704zM268.325 131.648c-.06-.172-.1-.351-.117-.533-.059-.422-.128-.934-.213-1.526-.176-1.36-.406-3.109-.656-5.045a101.97 101.97 0 0 1-.534-5.056 50.141 50.141 0 0 1-.117-1.536 2.138 2.138 0 0 1 0-.565c.056.173.093.352.112.533.059.421.128.928.208 1.525.171 1.36.389 3.11.629 5.046.24 1.936.448 3.733.576 5.05.059.651.102 1.174.128 1.542.017.188.012.378-.016.565z" fill="#263238"/>
</svg>
