<?xml version="1.0" encoding="UTF-8"?>
<svg width="24px" height="24px" viewBox="0 0 24 24" version="1.1" xmlns="http://www.w3.org/2000/svg"
     xmlns:xlink="http://www.w3.org/1999/xlink">
  <title>radio_button_unchecked-24px </title>
  <g id="Revised-Version" stroke="none" stroke-width="1" fill="none" fill-rule="evenodd">
    <g id="Product-Without-Image" transform="translate(-20.000000, -434.000000)">
      <g id="Spice-Level" transform="translate(20.000000, 311.000000)">
        <g id="Medium" transform="translate(0.000000, 113.000000)">
          <g id="radio_button_unchecked-24px-" transform="translate(0.000000, 10.000000)">
            <polygon id="Path" points="0 0 24 0 24 24 0 24"></polygon>
            <path
              d="M12,2 C6.48,2 2,6.48 2,12 C2,17.52 6.48,22 12,22 C17.52,22 22,17.52 22,12 C22,6.48 17.52,2 12,2 Z M12,20 C7.58,20 4,16.42 4,12 C4,7.58 7.58,4 12,4 C16.42,4 20,7.58 20,12 C20,16.42 16.42,20 12,20 Z"
              id="Shape" fill="#212121" fill-rule="nonzero"></path>
          </g>
        </g>
      </g>
    </g>
  </g>
</svg>
