<?xml version="1.0" encoding="UTF-8"?>
<svg width="46px" height="32px" viewBox="0 0 46 32" version="1.1" xmlns="http://www.w3.org/2000/svg" xmlns:xlink="http://www.w3.org/1999/xlink">
    <title>American Express</title>
    <g id="Checkout" stroke="none" stroke-width="1" fill="none" fill-rule="evenodd">
        <g id="Desktop-Checkout-V2/Change-Payment-Method" transform="translate(-221.000000, -951.000000)">
            <g id="AMEX" transform="translate(165.000000, 935.000000)">
                <g id="American-Express" transform="translate(56.000000, 16.000000)">
                    <path d="M0,2.99610022 C0,1.34139976 1.35178054,0 3.00044415,0 L42.9995558,0 C44.6566554,0 46,1.33425951 46,2.99610022 L46,29.0038998 C46,30.6586002 44.6482195,32 42.9995558,32 L3.00044415,32 C1.34334461,32 0,30.6657405 0,29.0038998 L0,2.99610022 Z" id="Rectangle-Copy-4" fill="#016FD0"></path>
                    <g id="American_Express_logo_(2018)" transform="translate(0.000000, 7.652174)">
                        <path d="M8.93557575,16.5497487 L8.93557575,9.41162127 L16.5480832,9.41162127 L17.3648228,10.4687117 L18.2085698,9.41162127 L45.8400926,9.41162127 L45.8400926,16.0574662 C45.8400926,16.0574662 45.1174794,16.542611 44.2817439,16.5497487 L28.9815994,16.5497487 L28.0607575,15.4245264 L28.0607575,16.5497487 L25.0432286,16.5497487 L25.0432286,14.6289602 C25.0432286,14.6289602 24.6310296,14.8970797 23.7398834,14.8970797 L22.7127901,14.8970797 L22.7127901,16.5497487 L18.1439967,16.5497487 L17.328424,15.4699871 L16.500329,16.5497487 L8.93557575,16.5497487 Z" id="path3082" fill="#FFFFFF"></path>
                        <path d="M0.0459081836,4.03165588 L1.76255863,0.0582182815 L4.73132633,0.0582182815 L5.70554527,2.28397707 L5.70554527,0.0582182815 L9.39599719,0.0582182815 L9.97595022,1.66693074 L10.5381951,0.0582182815 L27.1044983,0.0582182815 L27.1044983,0.866970623 C27.1044983,0.866970623 27.9753742,0.0582182815 29.4066036,0.0582182815 L34.7817629,0.0768692803 L35.7391638,2.27349842 L35.7391638,0.0582182815 L38.8275262,0.0582182815 L39.6775346,1.32000484 L39.6775346,0.0582182815 L42.7942306,0.0582182815 L42.7942306,7.19634113 L39.6775346,7.19634113 L38.8629435,5.93046612 L38.8629435,7.19634113 L34.3254543,7.19634113 L33.8691458,6.0711189 L32.6493158,6.0711189 L32.2004343,7.19634113 L29.1232675,7.19634113 C27.8917396,7.19634113 27.1044983,6.40410213 27.1044983,6.40410213 L27.1044983,7.19634113 L22.4648713,7.19634113 L21.5440288,6.0711189 L21.5440288,7.19634113 L4.29152134,7.19634113 L3.83552729,6.0711189 L2.61958707,6.0711189 L2.16681577,7.19634113 L0.0459081836,7.19634113 L0.0459081836,4.03165588 Z" id="path3080" fill="#FFFFFF"></path>
                        <path d="M2.37014908,0.938197201 L0.0547624491,6.28299826 L1.56219861,6.28299826 L1.98941622,5.21272628 L4.47303357,5.21272628 L4.89803776,6.28299826 L6.43867739,6.28299826 L4.12550403,0.938197201 L2.37014908,0.938197201 Z M3.22679762,2.18209394 L3.98383643,4.05233971 L2.46754559,4.05233971 L3.22679762,2.18209394 L3.22679762,2.18209394 Z" id="path3046" fill="#016FD0" fill-rule="nonzero"></path>
                        <polygon id="path3048" fill="#016FD0" points="6.59805361 6.28210035 6.59805361 0.937294733 8.74020429 0.945193605 9.98615194 4.39118442 11.2022643 0.937294733 13.3272844 0.937294733 13.3272844 6.28210035 11.9814382 6.28210035 11.9814382 2.34382253 10.5548129 6.28210035 9.37450297 6.28210035 7.94389976 2.34382253 7.94389976 6.28210035"></polygon>
                        <polygon id="path3050" fill="#016FD0" points="14.2481263 6.28210035 14.2481263 0.937294733 18.6398349 0.937294733 18.6398349 2.13284564 15.6081393 2.13284564 15.6081393 3.04708642 18.5690009 3.04708642 18.5690009 4.17230866 15.6081393 4.17230866 15.6081393 5.12171378 18.6398349 5.12171378 18.6398349 6.28210035"></polygon>
                        <path d="M19.4190088,0.938197201 L19.4190088,6.28299826 L20.764855,6.28299826 L20.764855,4.38418801 L21.3315267,4.38418801 L22.9452141,6.28299826 L24.5898913,6.28299826 L22.819041,4.3138639 C23.5458088,4.25297468 24.2954872,3.63367219 24.2954872,2.67218403 C24.2954872,1.54744949 23.4063251,0.938197201 22.4139591,0.938197201 L19.4190088,0.938197201 L19.4190088,0.938197201 Z M20.764855,2.13374355 L22.3032809,2.13374355 C22.672328,2.13374355 22.9407872,2.42035452 22.9407872,2.69635466 C22.9407872,3.05143923 22.5929533,3.25896578 22.3232032,3.25896578 L20.764855,3.25896578 L20.764855,2.13374355 L20.764855,2.13374355 Z" id="path3052" fill="#016FD0" fill-rule="nonzero"></path>
                        <polygon id="path3054" fill="#016FD0" points="26.2190736 6.28210035 24.8448938 6.28210035 24.8448938 0.937294733 26.2190736 0.937294733"></polygon>
                        <path d="M29.4774377,6.28210035 L29.1808203,6.28210035 C27.7456515,6.28210035 26.874288,5.1595217 26.874288,3.63167582 C26.874288,2.06608582 27.7358956,0.937294733 29.5482717,0.937294733 L31.0357859,0.937294733 L31.0357859,2.20316975 L29.4938875,2.20316975 C28.7581629,2.20316975 28.2378423,2.77321483 28.2378423,3.64486187 C28.2378423,4.67994673 28.8328064,5.11468091 29.6899398,5.11468091 L30.0441095,5.11468091 L29.4774377,6.28210035 Z" id="path3056" fill="#016FD0"></path>
                        <path d="M32.4059808,0.938197201 L30.0905947,6.28299826 L31.5980308,6.28299826 L32.0252482,5.21272628 L34.5088658,5.21272628 L34.9338695,6.28299826 L36.4745091,6.28299826 L34.1613362,0.938197201 L32.4059808,0.938197201 Z M33.2626298,2.18209394 L34.0196682,4.05233971 L32.5033778,4.05233971 L33.2626298,2.18209394 Z" id="path3058" fill="#016FD0" fill-rule="nonzero"></path>
                        <polygon id="path3060" fill="#016FD0" points="36.6316721 6.28210035 36.6316721 0.937294733 38.342756 0.937294733 40.5275425 4.29538155 40.5275425 0.937294733 41.8733887 0.937294733 41.8733887 6.28210035 40.2176439 6.28210035 37.9775183 2.83610953 37.9775183 6.28210035"></polygon>
                        <polygon id="path3062" fill="#016FD0" points="9.85641816 15.6355079 9.85641816 10.2907023 14.2481263 10.2907023 14.2481263 11.4862532 11.2164311 11.4862532 11.2164311 12.400494 14.1772923 12.400494 14.1772923 13.5257162 11.2164311 13.5257162 11.2164311 14.4751213 14.2481263 14.4751213 14.2481263 15.6355079"></polygon>
                        <polygon id="path3064" fill="#016FD0" points="31.3757888 15.6355079 31.3757888 10.2907023 35.7674974 10.2907023 35.7674974 11.4862532 32.7358018 11.4862532 32.7358018 12.400494 35.6824966 12.400494 35.6824966 13.5257162 32.7358018 13.5257162 32.7358018 14.4751213 35.7674974 14.4751213 35.7674974 15.6355079"></polygon>
                        <polygon id="path3066" fill="#016FD0" points="14.4185705 15.6355079 16.5568723 12.9960679 14.3676588 10.2907023 16.0632477 10.2907023 17.367036 11.9631481 18.6752517 10.2907023 20.304434 10.2907023 18.1439967 12.9631051 20.2862346 15.6355079 18.5909138 15.6355079 17.3249786 13.9894251 16.0898107 15.6355079"></polygon>
                        <path d="M20.446102,10.2916047 L20.446102,15.6364058 L21.827365,15.6364058 L21.827365,13.9485724 L23.2440451,13.9485724 C24.4427569,13.9485724 25.3513566,13.3171915 25.3513566,12.0893204 C25.3513566,11.0721572 24.6387371,10.2916047 23.4189168,10.2916047 L20.446102,10.2916047 L20.446102,10.2916047 Z M21.827365,11.5003371 L23.3193061,11.5003371 C23.7065628,11.5003371 23.9833749,11.735986 23.9833749,12.1156925 C23.9833749,12.4724042 23.7079602,12.7310478 23.3148792,12.7310478 L21.827365,12.7310478 L21.827365,11.5003371 Z" id="path3068" fill="#016FD0" fill-rule="nonzero"></path>
                        <path d="M25.9357374,10.2907023 L25.9357374,15.6355079 L27.2815836,15.6355079 L27.2815836,13.7366931 L27.8482554,13.7366931 L29.4619427,15.6355079 L31.1066199,15.6355079 L29.3357696,13.666369 C30.062537,13.6054706 30.8122158,12.9861773 30.8122158,12.0246845 C30.8122158,10.8999546 29.9230537,10.2907023 28.9306877,10.2907023 L25.9357374,10.2907023 L25.9357374,10.2907023 Z M27.2815836,11.4862532 L28.8200095,11.4862532 C29.1890567,11.4862532 29.4575153,11.7728596 29.4575153,12.0488597 C29.4575153,12.4039489 29.1096814,12.6114709 28.8399314,12.6114709 L27.2815836,12.6114709 L27.2815836,11.4862532 L27.2815836,11.4862532 Z" id="path3072" fill="#016FD0" fill-rule="nonzero"></path>
                        <path d="M36.3908364,15.6355079 L36.3908364,14.4751213 L39.0842999,14.4751213 C39.4828357,14.4751213 39.655399,14.2613003 39.655399,14.0267909 C39.655399,13.8021038 39.4833797,13.5749463 39.0842999,13.5749463 L37.8671546,13.5749463 C36.8091679,13.5749463 36.2199496,12.9349736 36.2199496,11.9741418 C36.2199496,11.1171485 36.7595306,10.2907023 38.3316884,10.2907023 L40.9525467,10.2907023 L40.3858745,11.4932815 L38.1191863,11.4932815 C37.6858953,11.4932815 37.5525141,11.7190169 37.5525141,11.9345836 C37.5525141,12.1561531 37.717341,12.400494 38.0483523,12.400494 L39.3233644,12.400494 C40.502759,12.400494 41.0145264,13.0646919 41.0145264,13.9344885 C41.0145264,14.8696045 40.4442495,15.6355079 39.25916,15.6355079 L36.3908364,15.6355079 Z" id="path3074" fill="#016FD0"></path>
                        <path d="M41.3304023,15.6355079 L41.3304023,14.4751213 L44.0238639,14.4751213 C44.422402,14.4751213 44.5949663,14.2613003 44.5949663,14.0267909 C44.5949663,13.8021038 44.4229437,13.5749463 44.0238639,13.5749463 L42.8067204,13.5749463 C41.7487337,13.5749463 41.159515,12.9349736 41.159515,11.9741418 C41.159515,11.1171485 41.6990959,10.2907023 43.2712538,10.2907023 L45.8921112,10.2907023 L45.3254389,11.4932815 L43.0587517,11.4932815 C42.6254611,11.4932815 42.4920799,11.7190169 42.4920799,11.9345836 C42.4920799,12.1561531 42.6569064,12.400494 42.9879177,12.400494 L44.2629307,12.400494 C45.4423257,12.400494 45.9540918,13.0646919 45.9540918,13.9344885 C45.9540918,14.8696045 45.3838158,15.6355079 44.1987236,15.6355079 L41.3304023,15.6355079 Z" id="path3076" fill="#016FD0"></path>
                    </g>
                </g>
            </g>
        </g>
    </g>
</svg>