<?xml version="1.0" encoding="UTF-8"?>
<svg width="46px" height="32px" viewBox="0 0 46 32" version="1.1" xmlns="http://www.w3.org/2000/svg" xmlns:xlink="http://www.w3.org/1999/xlink">
    <title>Mastercard</title>
    <g id="Checkout" stroke="none" stroke-width="1" fill="none" fill-rule="evenodd">
        <g id="Desktop-Checkout-V2/Change-Payment-Method" transform="translate(-221.000000, -1014.000000)">
            <g id="MC" transform="translate(165.000000, 998.000000)">
                <g id="Mastercard" transform="translate(56.000000, 16.000000)">
                    <path d="M0,2.99610022 C0,1.34139976 1.35178054,0 3.00044415,0 L42.9995558,0 C44.6566554,0 46,1.33425951 46,2.99610022 L46,29.0038998 C46,30.6586002 44.6482195,32 42.9995558,32 L3.00044415,32 C1.34334461,32 0,30.6657405 0,29.0038998 L0,2.99610022 Z" id="Rectangle-Copy-4" fill="#262626"></path>
                    <g id="mc_symbol" transform="translate(9.060606, 6.956522)">
                        <g id="Group" opacity="0" fill="#FFFFFF">
                            <rect id="Rectangle" x="0" y="0" width="27.7499541" height="18.0661669"></rect>
                        </g>
                        <rect id="Rectangle" fill="#FF5F00" x="10.2158861" y="3.14754623" width="7.32029385" height="11.7689955"></rect>
                        <path d="M10.9698806,9.03308346 C10.9680426,6.73687187 12.0389073,4.5673471 13.873921,3.14962519 C10.7565214,0.73804175 6.27981045,1.08930973 3.58990038,3.95656744 C0.899990311,6.82382514 0.899990311,11.2444207 3.58990038,14.1116784 C6.27981045,16.9789361 10.7565214,17.3302041 13.873921,14.9186207 C12.0383233,13.5004486 10.9673932,11.3300246 10.9698806,9.03308346 Z" id="Path" fill="#EB001B"></path>
                        <path d="M25.5346597,14.2286748 L25.5346597,13.5256445 L25.701642,13.5256445 L25.701642,13.3801899 L25.3042241,13.3801899 L25.3042241,13.5256445 L25.4611874,13.5256445 L25.4611874,14.2286748 L25.5346597,14.2286748 Z M26.306118,14.2286748 L26.306118,13.3801899 L26.1858907,13.3801899 L26.0456256,13.9862505 L25.9053604,13.3801899 L25.7851331,13.3801899 L25.7851331,14.2286748 L25.871964,14.2286748 L25.871964,13.5862505 L26.0022102,14.1377657 L26.0923806,14.1377657 L26.2226268,13.5862505 L26.2226268,14.2286748 L26.306118,14.2286748 Z" id="Shape" fill="#F79E1B" fill-rule="nonzero"></path>
                        <path d="M26.1764922,9.03308346 C26.1764922,11.8985938 24.5142028,14.512527 21.8957794,15.7647356 C19.277356,17.0169441 16.1624294,16.6875863 13.873921,14.9165417 C15.7081341,13.4976162 16.7790794,11.3283799 16.7790794,9.03204398 C16.7790794,6.73570807 15.7081341,4.56647174 13.873921,3.14754623 C16.1624294,1.37650163 19.277356,1.04714384 21.8957794,2.2993524 C24.5142028,3.55156095 26.1764922,6.16549413 26.1764922,9.0310045 L26.1764922,9.03308346 Z" id="Path" fill="#F79E1B"></path>
                    </g>
                </g>
            </g>
        </g>
    </g>
</svg>