<?xml version="1.0" encoding="UTF-8"?>
<svg width="46px" height="32px" viewBox="0 0 46 32" version="1.1" xmlns="http://www.w3.org/2000/svg" xmlns:xlink="http://www.w3.org/1999/xlink">
    <title>Visa</title>
    <g id="Checkout" stroke="none" stroke-width="1" fill="none" fill-rule="evenodd">
        <g id="Desktop-Checkout-V2/Change-Payment-Method" transform="translate(-221.000000, -888.000000)">
            <g id="VISA" transform="translate(165.000000, 872.000000)">
                <g transform="translate(56.000000, 16.000000)" id="Visa">
                    <path d="M0,2.99610022 C0,1.34139976 1.35178054,0 3.00044415,0 L42.9995558,0 C44.6566554,0 46,1.33425951 46,2.99610022 L46,29.0038998 C46,30.6586002 44.6482195,32 42.9995558,32 L3.00044415,32 C1.34334461,32 0,30.6657405 0,29.0038998 L0,2.99610022 Z" id="Rectangle-Copy-4" fill="#0742A6"></path>
                    <g id="Visa_Inc._logo" transform="translate(7.666667, 11.130435)" fill="#FFFFFF">
                        <polygon id="polygon9" points="13.2579973 9.56103779 10.7909375 9.56103779 12.3340135 0.286522781 14.8009384 0.286522781"></polygon>
                        <path d="M22.2013083,0.513258209 C21.7146957,0.32560153 20.9428879,0.118405476 19.9885498,0.118405476 C17.552249,0.118405476 15.8366259,1.38125231 15.8261031,3.18674299 C15.8058669,4.51883002 17.054439,5.25870353 17.9882711,5.70286368 C18.9427442,6.15672795 19.2671975,6.45296585 19.2671975,6.8575227 C19.2574842,7.47884859 18.4959294,7.76525123 17.7856396,7.76525123 C16.8006774,7.76525123 16.2729179,7.61759126 15.4708907,7.27191481 L15.1460326,7.12373029 L14.8008034,9.20565722 C15.3794232,9.46189842 16.445465,9.68928953 17.552249,9.69925592 C20.1408607,9.69925592 21.8261296,8.45594846 21.8460959,6.53191017 C21.8559442,5.47612825 21.1966496,4.66714568 19.7752605,4.00608536 C18.9123899,3.58172686 18.3839559,3.29558649 18.3839559,2.86139273 C18.3940739,2.46667113 18.8309056,2.06237655 19.8049402,2.06237655 C20.6069674,2.04257491 21.1962448,2.22996931 21.6426549,2.41749485 L21.8657925,2.51597855 L22.2013083,0.513258209 L22.2013083,0.513258209 L22.2013083,0.513258209 Z" id="path11"></path>
                        <path d="M25.4802435,6.2754067 C25.6834147,5.74259811 26.4652057,3.68047283 26.4652057,3.68047283 C26.4549527,3.70027447 26.6679722,3.13782898 26.789794,2.79254594 L26.9622062,3.59169325 C26.9622062,3.59169325 27.4293921,5.81170717 27.5308428,6.2754067 C27.1452762,6.2754067 25.9675307,6.2754067 25.4802435,6.2754067 L25.4802435,6.2754067 Z M28.5255183,0.286522781 L26.6172468,0.286522781 C26.0287788,0.286522781 25.5816942,0.454115538 25.3277976,1.05603319 L21.6632958,9.56090666 L24.2519076,9.56090666 C24.2519076,9.56090666 24.6780815,8.41621403 24.7696839,8.16967695 C25.0536649,8.16967695 27.5718548,8.16967695 27.9371852,8.16967695 C28.0080118,8.49528948 28.2315541,9.56090666 28.2315541,9.56090666 L30.5158138,9.56090666 L28.5255183,0.286522781 L28.5255183,0.286522781 L28.5255183,0.286522781 Z" id="path13" fill-rule="nonzero"></path>
                        <path d="M8.73035506,0.286522781 L6.31429044,6.61085449 L6.05027578,5.328206 C5.6035959,3.84819672 4.20271282,2.24019798 2.63940069,1.44065726 L4.85242901,9.55120254 L7.46127695,9.55120254 L11.3390681,0.286522781 L8.73035506,0.286522781 L8.73035506,0.286522781 L8.73035506,0.286522781 Z" id="path15"></path>
                        <path d="M4.07077294,0.286522781 L0.101514274,0.286522781 L0.0609070124,0.473917186 C3.157177,1.24355873 5.20777628,3.09875023 6.05027578,5.32859941 L5.18740519,1.06613072 C5.04534723,0.47378605 4.60878544,0.306062155 4.07077294,0.286522781 L4.07077294,0.286522781 Z" id="path17"></path>
                    </g>
                </g>
            </g>
        </g>
    </g>
</svg>