<svg xmlns="http://www.w3.org/2000/svg" width="280" height="217" viewBox="0 0 280 217">
  <g fill="none" fill-rule="evenodd">
    <g fill-rule="nonzero">
      <g transform="translate(-48 -188) translate(48 188)">
        <path fill="#F37E4E"
              d="M176.554 92.806c-1.912.122-8.982 2.336-8.982 2.336l-8.83-1.679 3.597 4.184 4.579.584s1.384 0 2.919-.584c1.534-.583 7.346-3.478 7.85-4.038.528-.56-1.133-.803-1.133-.803z"/>
        <g>
          <path fill="#C82C2F"
                d="M18.367 17.593s-.179-4.462.816-9.05C20.178 3.955 22.04.228 26.045.025c3.597-.177 5.663 2.18 6.735 6.54.995 4.158 1.097 11.763 1.097 11.763s-.536.532-1.429.507c-.893 0-1.25-.659-1.25-.659s.179-8.594-.714-11.433c-.893-2.84-2.143-4.563-4.286-4.335-2.142.228-3.75 2.637-4.49 5.73-.765 3.092-.586 9.43-.586 9.43s-.408.81-1.48.735c-1.097-.026-1.275-.71-1.275-.71z"
                transform="translate(160.555 39.46)"/>
          <path fill="#FFC648"
                d="M9.311 13.233L.383 50.7s-1.276 1.014 2.806 1.825c4.081.811 11.964 2.434 20.662 3.245 8.7.811 12.653 1.09 13.316.938.69-.127 4.235-2.915 4.516-3.6.28-.684-1.123-37.62-1.123-37.62l-3.393 1.09-27.856-3.345z"
                transform="translate(160.555 39.46)"/>
          <path fill="#FFB92C"
                d="M37.04 38.43c0 7.935.153 18.253.153 18.253l4.515-3.6-1.148-37.594-3.393 1.09c0-.025-.127 16.63-.127 21.852z"
                transform="translate(160.555 39.46)"/>
          <path fill="#FFA300" d="M40.56 15.489L13.29 12.219 9.311 13.233 37.167 16.554z"
                transform="translate(160.555 39.46)"/>
          <path fill="#E84C4F"
                d="M16.581 16.96s.179-4.462 1.53-8.975c1.353-4.487 3.496-8.086 7.5-7.96 3.597.102 5.97 2.865 5.97 7.352 0 4.791-.612 11.585-.612 11.585s-.562.481-1.454.405c-.893-.076-1.2-.735-1.2-.735s1.021-7.757 1.046-11.002c0-2.966-1.632-5.247-3.8-5.196-2.143.05-3.929 2.332-4.924 5.374-.995 3.042-1.3 9.354-1.3 9.354s-.46.786-1.557.634c-1.097-.152-1.199-.837-1.199-.837z"
                transform="translate(160.555 39.46)"/>
        </g>
        <path fill="#FFA171"
              d="M215.446 32.599s-11.535.147-14.387.147c-2.851 0-6.441-1.156-7.944-1.869-1.502-.713-2.393-.713-4.201.86-1.808 1.6-3.743 2.608-4.634 3.173-.891.59-1.502 2.165-.611 3.173s.305 1.008 0 1.599c-.306.59-.611 1.746.458 2.606 1.044.861.611-.442 1.044.861.458 1.304.738 2.312 1.808 2.46 1.044.147 2.673-.296 3.055.664.382.934 2.343.22 5.78-1.23 3.438-1.451 5.551-3.32 5.551-3.32l15.43-.148-1.35-8.976z"/>
        <path fill="#F37E4E"
              d="M209.663 32.27s-1.406 3.09-3.256 5.247c-1.875 2.158-5.032 3.752-5.032 3.752l13.099-.196s2.812-9.563-4.81-8.803z"/>
        <path fill="#FFC648"
              d="M210.452 28.876s-1.052 3.824-.898 9.397c.154 5.599.616 8.373.616 8.373s15.405.3 18.434-.6c3.03-.875 3.466-3.374 3.466-3.374l1.053-15.87-22.67 2.074z"/>
        <path fill="#F37E4E"
              d="M176.865 93.808c-1.722-.57-6.914 1.547-6.914 1.547l-9.396-.787 2.305 1.004 1.064 2.008s4.001.651 5.52.651c1.52 0 7.523-2.903 8.181-3.256.633-.353-.76-1.167-.76-1.167z"/>
        <path fill="#FFA171"
              d="M167.325 86.156c.624 1.267-3.398 3.132-4.572 3.952-.724.522-2.948 2.684-2.948 2.684l5.87 2.287 1.924-1.292s2.324-1.392 3.323-2.287c2.373-2.113 4.147-.82 4.147-.82l-4.222 4.126s-2.023 2.113-3.123 3.157c-.849.795-2.123 1.043-3.872 1.168-1.773.124-9.168-2.287-12.44-1.914-1.45.149-7.17 1.74-7.994 1.268-.825-.473 3.822-7.656 5.47-8.004 1.65-.348 3.423-1.044 3.423-1.044s2.948-1.765 5.896-1.989c2.947-.223 5.17-1.292 6.445-1.69 1.324-.423 2.448-.05 2.673.398z"/>
        <g>
          <path fill="#F37E4E"
                d="M25.767 12.35c-2.693-.277-5.888-2.752-5.888-2.752l-6.82 5.885.982-5.582 3.674-2.778s.277.05 1.887-.203c1.61-.227 6.542 3.991 7.096 4.522.68.63-.931.909-.931.909z"
                transform="translate(126.993 58.448)"/>
          <path fill="#F37E4E"
                d="M29.29 1.44c-1.007 1.465-6.291 3.106-6.291 3.106l-6.92 6.315 1.233-2.147-.327-2.122s2.768-2.93 3.976-3.864C22.169 1.793 28.51.253 29.214.126c.705-.126.076 1.314.076 1.314z"
                transform="translate(126.993 58.448)"/>
          <path fill="#FFA171"
                d="M28.46 13.614c-.907-1.364-6.392-.48-7.852-.43-.905.05-4-.328-4-.328l4.202-5.203 2.49.833s3.65 2.122 4.933 2.526c1.359.43 1.56-.303 1.56-.303l-4.655-4.294s-2.894-1.515-4.53-1.944c-1.132-.278-1.887-.329-3.397 1.515-1.132 1.39-7.246 6.82-10.065 8.562-1.258.758-6.769 3.056-7.12 3.94-.353.884 7.8 3.764 9.335 3.031 1.535-.732 3.371-1.263 3.371-1.263s3.423-.404 5.914-2.046c2.49-1.641 6.894-2.348 8.203-2.677 1.686-.454 2.139-1.136 1.61-1.92z"
                transform="translate(126.993 58.448)"/>
        </g>
        <path fill="#5E2D1E"
              d="M77.181 152.659l-13.554 62.595s-.546 1.344.596 1.42c1.142.076 1.39-1.344 1.39-1.344l15.118-62.849-3.55.178zM72.646 152.659l-13.554 62.593s-.547 1.344.595 1.42c1.142.101 1.39-1.344 1.39-1.344l15.119-62.847-3.55.178zM126.915 152.659l13.554 62.595s.546 1.344-.596 1.42c-1.142.076-1.39-1.344-1.39-1.344l-15.118-62.849 3.55.178z"/>
        <path fill="#FFA171"
              d="M124.003 186.84s-5.246 10.248-6.29 11.69c-1.044 1.443-2.317 1.841-3.769 2.86-1.477 1.02-2.088 2.463-.636 4.105 1.477 1.642 7.36 6.368 9.04 7.587 1.68 1.218 12.809.82 12.809.82l-7.97-5.323-2.089-5.124 6.723-12.312-7.818-4.303z"/>
        <path fill="#F37E4E"
              d="M119.736 195.528s.91 1.976 3.51 3.074c2.6 1.098 3.964.878 3.964.878l4.318-7.221-8.282-3.611-3.51 6.88z"/>
        <path fill="#C82C2F"
              d="M141.213 139.864s-7.249 11.82-12.19 24.67c-4.966 12.852-6.622 21.352-7.249 23.213-.627 1.861-.2 2.289 4.766 5.18 4.966 2.893 5.794 3.522 6.822 2.49 1.028-1.03 8.076-12.448 12.616-19.49 4.54-7.041 9.732-17 12.416-21.351 2.684-4.35 9.305-10.361 5.593-17.202-3.712-6.84-8.478-9.33-12.817-8.098-4.364 1.258-9.957 10.588-9.957 10.588z"/>
        <path fill="#5E2D1E"
              d="M131.45 152.659l13.554 62.595s.546 1.344-.596 1.42c-1.141.076-1.39-1.344-1.39-1.344L127.9 152.481l3.55.178zM61.686 140.23s-.18 2.374 1.955 4.526c2.134 2.127 3.755 2.3 3.755 2.3l1.543-2.473s-1.878-.668-3.164-2.053c-1.286-1.385-1.62-3.611-1.62-3.611l-2.469 1.31z"/>
        <path fill="#F37E4E"
              d="M127.9 36.438s1.007.495 2.744.234c1.712-.234 2.04-.156 1.637-1.458s-1.007-3.724-1.184-5.183c-.15-1.458-.226-3.229-.226-3.229s-2.895 7.214-2.971 9.636z"/>
        <path fill="#FFA171"
              d="M113.753 50.3s.622-1.73 2.364-3.829 1.866-3.457 3.484-3.704c1.618-.247-11.821-12.348-11.821-12.348s.498 3.457-1.369 6.05c-1.866 2.593-5.724 5.31-5.724 5.31s5.475 8.89 13.066 8.52z"/>
        <path fill="#F37E4E"
              d="M108.294 38.99c.785 3.766.707 5.75.89 7.581.183 1.831.183 2.442 1.519 3.052 1.335.61 1.859 1.069 2.854.23.995-.84.471-.916 1.178-2.061s2.514-4.095 3.247-4.706c.707-.61 1.754-.992 1.754-.992L107.22 30.42l-.183 3.408c0 .026.812 3.002 1.257 5.164z"/>
        <path fill="#FFA171"
              d="M110.046 30.702s-2.187 3.404-.643 5.42c1.543 2.018 4.116 3.909 7.46 5.548 3.346 1.638 5.275 2.52 6.948 2.269 1.672-.252 2.058-1.513 2.444-2.27l.386-.756s-1.544-1.134-2.316-2.521c-.772-1.387-.772-2.143-.772-2.143s1.287 1.008 2.96 1.387c1.671.378 2.057.504 2.186-.379.129-.882.515-3.277 1.286-5.546.772-2.27 1.287-3.908 1.93-5.925s1.544-5.547 1.415-6.555c-.128-1.009-3.473-4.16-9.52-1.009-6.046 3.152-12.864 9.707-13.764 12.48z"/>
        <path fill="#1949B7"
              d="M113.525 65.744s1.91 9.176 3.47 12.052c1.532 2.875.778 3.25 3.267 2.1 2.488-1.15 14.428-8.801 14.428-8.801s2.112 3.05 3.469 5.55c1.357 2.476 1.533 4.976 1.533 4.976s-12.87 11.102-16.54 13.778c-3.644 2.675-9.023 4.975-14.227 4.6-5.203-.375-10.959-36.33-10.959-36.33s9.024-13.028 15.56 2.075z"/>
        <path fill="#2D63D9"
              d="M98.604 41.269s-10.313 7.14-19.391 23.026c-9.078 15.886-12.23 22.6-14.6 35.604-2.371 13.004-.228 25.457-.228 25.457l25.746-4.159 24.914-8.62 5.598-1.377s-3.354-11.952-4.186-24.48c-.832-12.503-1.967-34.803-1.967-34.803s-6.354-.576-9.834-3.457c-3.48-2.882-6.052-7.191-6.052-7.191z"/>
        <path fill="#1949B7"
              d="M85.191 71.106s-2.946 16.589-1.168 29.724c1.524 11.285 8.738 11.485 17.323 10.684 8.586-.8 18.39-2.552 18.39-2.552l-1.778-7.906s-13.386-3.178-19.38-15.463C92.582 73.358 85.19 71.106 85.19 71.106z"/>
        <path fill="#4074E6"
              d="M97.302 52.253c8.764-1.114 10.717 4.66 12.27 18.99 1.552 14.332 2.479 21.878 2.88 27.12.375 5.24-3.055 8.533-8.815 9.495-5.734.962-12.07 0-15.324-6.381-3.256-6.38-3.256-22.08-2.88-30.03.376-7.951 1.127-17.827 11.87-19.194z"/>
        <path fill="#4074E6"
              d="M102.49 89.93c5.375.153 15.374 1.555 23.438.383 8.065-1.173 20.751-2.932 20.751-2.932s1.91 1.377 1.91 7.596c0 6.245.779 6.245-.955 7.214-1.733.968-18.264 4.104-26.906 5.072-8.642.969-16.907 1.173-20.952.587-4.045-.587-6.733-1.555-9.02-4.487-2.31-2.905-1.155-13.84 11.733-13.433z"/>
        <g fill="#E91E63" fill-opacity=".12">
          <g>
            <path
              d="M22.45 76.665c-.406-.78-.863-1.56-1.32-2.264C14.654 64.391.38 52.846.38 52.846s-1.548 4.88 2.591 18.99c4.14 14.11 6.476 13.356 9.32 15.921 2.845 2.566 2.337 2.818 2.337 5.132 0 2.314 1.296 4.376 4.42 6.665 1.27.956 2.793 2.566 4.113 4.125h6.35c-.483-2.666-1.169-6.188-2.134-10.463-1.066-4.93-2.87-10.766-4.927-16.55z"
              transform="translate(0 81.956)"/>
            <path
              d="M46.526 57.952C44.723 40.999 34.768 20.097 28.393 12.5 22.857 5.936 17.168.176 15.517.176h-.101c-1.55.252-3.632 13.105-3.632 13.105s2.336 1.534 5.968 6.413c3.327 4.478 4.267 6.993 3.403 6.993-.076 0-.178-.025-.28-.076-1.294-.503-4.672-5.659-6.73-6.942-2.082-1.282-3.885-2.062-3.885-2.062s-.787 7.445-.254 12.073c.508 4.628 1.295 6.414 1.295 6.414s3.378 3.069 6.222 5.131c2.845 2.063 3.632 3.848 4.14 5.131.152.403.152.579-.025.579-.356 0-1.473-.88-3.099-2.113-2.336-1.786-7.517-4.88-7.517-4.88s1.295 8.477 5.714 18.236c2.311 5.106 4.876 11.444 7.162 17.858 2.082 5.86 3.911 11.772 5.028 16.802.99 4.452 1.702 8.1 2.185 10.79h8.355c.33-2.69.787-6.137 1.397-10.236 1.066-7.018 2.666-15.62 5.917-23.87.152-4.2.102-8.175-.254-11.57zM61.307 52.317s-4.673 1.283-9.854 10.79c-1.194 2.19-2.235 4.453-3.15 6.742-.304.78-.609 1.584-.913 2.364-.33.93-.66 1.887-.94 2.842-1.93 6.112-3.15 12.45-4.063 18.588-.61 4-1.067 7.395-1.372 10.01h9.27c3.352-3.621 7.695-9.33 9.193-15.92 2.59-11.294 1.829-35.416 1.829-35.416z"
              transform="translate(0 81.956)"/>
          </g>
          <path
            d="M57.015 105.188H17.752c-1.55 12.073 10.108 28.498 10.108 28.498h19.022c.025 0 11.682-16.425 10.133-28.498z"
            transform="translate(0 81.956)"/>
        </g>
        <path fill="#FFA171"
              d="M164.184 192.355s3.344 9.349 4.18 11.415c.837 2.066.406 4.158-.202 6.224-.634 2.066-.203 2.898.202 3.528.406.63.837.403 2.914.403h24.654s-15.253-6.653-16.723-7.484c-1.47-.832-2.078-2.495-3.345-6.45-1.241-3.957-2.71-12.247-2.71-12.247l-8.97 4.611z"/>
        <path fill="#F37E4E"
              d="M167.452 200.943s2.062.567 4.672.284c2.386-.284 3.852-.825 3.852-.825l-2.262-9.946-8.623 3.376 2.36 7.111z"/>
        <path fill="#E84C4F"
              d="M145.5 144.413s-23.161.833-41.54.202c-18.377-.631-27.971-.833-32.553-6.233-4.582-5.4-5.19-9.387-5.19-9.387l26.277-7.898 25.263-7.495s.658.404 3.974.732c3.316.303 15.214-.53 25.238 1.968s13.568 4.567 17.315 9.362c3.746 4.794 3.746 11.23 6.252 24.124 2.506 12.894 6.48 35.378 7.316 38.28.835 2.902 1.468 5.4-.203 6.03-1.67.631-5.417 1.666-8.353 1.666-2.911 0-4.81.63-5.645-1.035-.836-1.665-9.594-19.985-12.53-28.514-2.912-8.479-5.62-21.802-5.62-21.802z"/>
        <path fill="#FFC648"
              d="M101.637 40.641s-.051-.67-1.402.077c-1.351.749-2.269 1.6-2.269 1.6s.841 2.58 6.45 6.89c5.608 4.308 10.4 6.527 10.4 6.527s.357-3.405.383-4.618c.05-1.187-.842-1.832-.842-1.832s-.076 1.238-1.147 1.342c-1.045.077-4.308-1.162-7.8-4.18-3.518-2.993-4.13-4.413-3.773-5.806zM120.345 110.89l1.205 3.71s-8.461 1.287-19.132 5.64c-10.671 4.354-23.703 7.57-29.026 8.09-5.348.52-6.904.643-6.904.643l-2.084-4.626s15.743-1.41 23.05-3.587c7.28-2.177 15.792-5.541 22.27-7.446 6.001-1.756 10.621-2.424 10.621-2.424z"/>
        <path fill="#452F27"
              d="M129.84 34.94c-.174 0-.347 0-.52-.052-2.685-.41-2.815-3.64-1.56-6.459 1.213-2.82 3.985-5.613 6.67-5.203 2.684.41 2.814 3.64 1.558 6.459-1.169 2.64-3.637 5.255-6.149 5.255zm4.026-10.997c-1.255 0-3.55 1.666-4.85 4.665-1.385 3.153-.563 5.332.607 5.511 1.169.18 3.68-1.486 5.066-4.64 1.386-3.152.563-5.33-.606-5.51-.087 0-.13-.026-.217-.026z"/>
        <path fill="#5E2D1E"
              d="M130.007 154.29H73.182c-3.343 0-6.057-2.634-6.057-5.877 0-3.244 2.714-5.878 6.057-5.878h56.825c3.343 0 6.057 2.634 6.057 5.877-.025 3.268-2.714 5.878-6.057 5.878zM53.924 137.34L45.42 80.785c-.489-3.312 1.824-6.422 5.215-6.902 3.366-.48 6.526 1.795 7.014 5.132l8.504 56.555c.488 3.312-1.824 6.422-5.216 6.902-3.365.48-6.5-1.82-7.013-5.132z"/>
        <g fill="#FFF" transform="translate(230.175 160.619)">
          <ellipse cx="24.781" cy="24.406" rx="23.859" ry="23.884"/>
        </g>
        <path fill="#452F27" d="M124.162 23.621L124.918 23.622 124.924 30.972 124.168 30.971z"
              transform="rotate(-73.8 124.543 27.296)"/>
        <ellipse cx="129.622" cy="28.346" fill="#5E2D1E" rx="1.461" ry="1" transform="rotate(-71.888 129.622 28.346)"/>
        <path fill="#5E2D1E"
              d="M257.284 106.369H160.86c-1.664 0-3.026-1.424-3.026-3.165 0-1.74 1.362-3.164 3.026-3.164h96.45c1.664 0 3.026 1.424 3.026 3.164-.026 1.74-1.362 3.165-3.052 3.165z"/>
        <path fill="#FFA300"
              d="M210.768 42.807s8.76.127 12.825-2.058c2.309-1.245 4.994-9.426 4.994-9.426l-.702 14.761s-4.719.61-9.738.61c-4.116-.026-8.257 0-8.257 0l-.352-3.811 1.23-.076z"/>
        <path fill="#5E2D1E"
              d="M175.626 105.742l-18.524 108.456s-.738 2.321.815 2.472c1.552.152 1.908-2.32 1.908-2.32l20.686-108.885-4.885.277zM246.172 105.742l18.524 108.456s.738 2.321-.815 2.472c-1.552.152-1.908-2.32-1.908-2.32l-20.686-108.885 4.885.277z"/>
        <g>
          <path fill="#E84C4F"
                d="M21.19 1.692l-5.003 6.44H.553s-.603.279-.302 1.264c.302.985 1.131 1.136 1.131 1.136h31.973s.905-.985.678-2.121c-.2-1.137-12.844-6.719-12.844-6.719z"
                transform="translate(108.851 205.827)"/>
          <path fill="#C1E5F2"
                d="M18.65.152s.528-.228 1.81.378c1.282.607 1.282 1.516 1.282 1.516l-5.58 6.087-4.097.05c.025 0 4.022-5.986 6.585-8.031z"
                transform="translate(108.851 205.827)"/>
        </g>
        <g>
          <path fill="#E84C4F"
                d="M21.397 1.692l-5.063 6.44H.509s-.61.279-.305 1.264 1.144 1.136 1.144 1.136h32.363s.915-.985.686-2.121c-.229-1.137-13-6.719-13-6.719z"
                transform="translate(165.998 205.827)"/>
          <path fill="#C1E5F2"
                d="M18.827.152s.534-.228 1.832.378c1.297.607 1.297 1.516 1.297 1.516l-5.648 6.087-4.147.05c.026 0 4.07-5.986 6.666-8.031z"
                transform="translate(165.998 205.827)"/>
        </g>
        <ellipse cx="124.272" cy="32.227" fill="#FF8080" rx="1.814" ry="1.808"/>
        <path fill="#5E2D1E"
              d="M109.034 5.852s-1.368.96-1.368 2.727c0 1.768.279 2.601.279 2.601s-3.015.555-3.42 4.646c-.406 4.09.557 5.05.81 7.651.279 2.601 0 3.813-1.089 5.05-1.09 1.238-1.267 2.02.38 3.788 1.647 1.768 3.724 1.768 3.724 1.768l1.52 1.515c.963.96 2.179-1.086 3.015-2.727.81-1.642 1.241-3.536 1.241-3.536l5.625-1.64s-.279 1.236 1.368 1.64c1.646.404 1.494.682 2.178-1.49.684-2.17.963-5.05 3.294-5.731 2.33-.682 3.42-.96 5.75-1.086 2.332-.126 3.826-.808 4.789-2.727.963-1.92.81-3.687.557-3.535-.278.126-2.178 1.085-3.546.555-1.368-.555-1.495-1.641-1.242-2.853.279-1.238-.405-2.323-1.368-2.727-.963-.404-1.925-.278-1.925-.278s-.279-2.601-2.458-3.283c-2.178-.682-3.977 0-3.977 0s-2.052-3.686-6.156-2.727c-4.105.96-5.067 3.131-5.067 3.131s-2.382.505-2.914-.732z"/>
        <ellipse cx="116.561" cy="27.254" fill="#FFA171" rx="4.082" ry="4.069"/>
        <ellipse cx="117.015" cy="27.706" fill="#F37E4E" rx="1.814" ry="1.808"/>
        <g fill="#9E9E9F">
          <path d="M10.291.202L.171 90.105l1.475.177L11.765.353s-1.056-.1-1.474-.151z"
                transform="translate(222.238 .581)"/>
          <path
            d="M11.765.353s2.333 11.676 2.898 15.585c1.179 8.398.737 18.182.246 27.261l-.418 4.035c-1.4 9.205-2.874 18.41-6.46 28.27-1.375 3.783-6.36 14.778-6.36 14.778L11.764.353z"
            transform="translate(222.238 .581)"/>
        </g>
        <path fill="#9E9E9F"
              d="M248.354 100.944h-28.71c-.555 0-1.035-.452-1.035-1.028 0-.552.454-1.028 1.035-1.028h28.71c1.11 0 1.892-.251 2.27-.728.707-.902.38-2.883 0-4.513-.73-3.21-10.343-36.009-12.059-41.3-1.009-3.16-1.917-3.56-2.043-3.61-.454.2-1.01.05-1.287-.377-.303-.476-.176-1.103.303-1.404.353-.226.984-.376 1.69-.15 1.287.45 2.372 2.056 3.28 4.89 1.716 5.29 11.378 38.24 12.11 41.474.53 2.307.832 4.664-.404 6.22-.807 1.052-2.094 1.554-3.86 1.554z"/>
        <path fill="#E5F8FF"
              d="M214.143 14.784c1.293.345 2.687 1.207 4.004 1.576 1.571.419 3.193 1.108 4.663 1.724-.05.098-.228.197-.152.32.43.37.33.566.228.788-.05.099-.38-.148-.304 0-.38-.148-1.014-.37-.684-.098.076.147.608.27.659.467.05.197-.254.271-.203.468l.507.197c.076.148-.254.271-.152.32.33.271.836.42 1.343.616-.05.099.025.271-.228.197-4.359-1.724-8.92-3.398-13.178-5.393-.481-.27 0-.32.431-.32-.152 0-.076-.148-.228-.148.076-.148.43-.32.963-.148l-.38-.147c-.102-.099.076-.148.126-.271.127.049.254.098.28.049l.1-.197-.506-.197c.126.05.253.099.279.05.025-.05.076-.148.1-.198.28.05.584.32.863.37l.076-.148c-.229-.148-.609-.271-.862-.37.152 0 .177-.049.228-.147.405.098.684.418 1.14.418l-.38-.147c.355-.197.887.27 1.267.369zM217.634 6.542c.725.242 1.376.992 2.101 1.26.901.295 1.727.858 2.503 1.367-.05.107-.226.215-.176.322.176.321.05.536-.075.75-.05.107-.2-.134-.2.027-.2-.134-.55-.295-.4-.054 0 .161.325.215.3.403-.025.187-.25.268-.275.482.075.054.2.134.25.16 0 .162-.25.269-.175.322.125.242.425.349.676.537-.05.107-.05.24-.226.214-2.302-1.394-4.729-2.734-6.88-4.396-.226-.214.1-.295.375-.322-.1 0 0-.16-.1-.134.1-.16.375-.321.65-.214-.075-.054-.125-.08-.2-.134-.025-.107.1-.16.15-.268.075.054.125.08.15.027.025-.054.1-.161.125-.215-.075-.053-.2-.134-.25-.16.075.053.125.08.15.026.025-.053.1-.16.125-.214.15.027.3.268.45.295l.1-.161c-.1-.134-.324-.215-.45-.295.1 0 .126-.054.176-.16.225.08.325.375.6.32-.075-.053-.125-.08-.2-.133.3-.16.5.268.726.348zM212.844 57.259c.874-.6 2.16-.91 3.034-1.51 1.055-.72 2.315-1.295 3.472-1.822.051.096.026.288.154.288.463-.024.566.168.669.36.051.095-.283.12-.155.191-.282.12-.745.408-.411.36.154.048.489-.216.669-.12.18.096.051.335.231.455.103-.048.283-.12.386-.168.154.048.051.336.154.288.334-.024.694-.264 1.08-.431.051.095.206.143.026.287-3.343 1.63-6.712 3.404-10.183 4.794-.412.12-.232-.216-.026-.48-.077.097-.154-.047-.231.049-.078-.144-.026-.48.36-.72-.103.049-.206.097-.283.12-.129 0-.077-.143-.129-.24.103-.047.206-.095.18-.143l-.103-.192c-.103.048-.283.12-.385.168.102-.048.205-.096.18-.144l-.103-.192c.18-.143.514-.167.668-.311l-.077-.144c-.231.048-.488.216-.668.312.077-.096.051-.144 0-.24.257-.192.642-.168.848-.456-.103.048-.206.096-.283.12.077-.287.643-.311.926-.48zM213.833 69.993c.38-.594 1.118-.955 1.522-1.549.452-.723 1.094-1.316 1.69-1.859.07.104.118.284.213.284.31-.051.452.13.595.31.071.103-.143.13-.024.18-.143.13-.357.414-.143.362.12.052.238-.232.405-.129.166.103.166.31.31.413.047-.051.142-.129.19-.18.118.051.166.31.214.284.214-.052.38-.284.57-.465.072.103.19.129.12.284-1.666 1.678-3.307 3.51-5.139 4.956-.238.13-.238-.18-.19-.464-.024.103-.12-.052-.143.051-.095-.129-.19-.464-.024-.67-.047.05-.095.102-.142.128-.096 0-.096-.129-.167-.232.048-.052.095-.103.071-.13-.023-.05-.095-.128-.142-.18-.048.052-.143.13-.19.18.047-.05.095-.102.07-.128-.023-.052-.094-.13-.142-.181.071-.129.285-.18.357-.31l-.095-.129c-.143.052-.238.233-.357.31.024-.103-.024-.13-.095-.232.119-.181.357-.181.404-.465-.047.052-.095.103-.143.129-.095-.336.286-.387.405-.568z"/>
      </g>
    </g>
  </g>
</svg>
