<svg xmlns="http://www.w3.org/2000/svg" width="184" height="184" viewBox="0 0 184 184">
  <g fill="none" fill-rule="evenodd">
    <g>
      <g>
        <path d="M0 0L184 0 184 184 0 184z" opacity=".87" transform="translate(-96 -196) translate(96 196)"/>
        <path fill="#E02020" fill-rule="nonzero"
              d="M92 15.333c-42.397 0-76.667 34.27-76.667 76.667S49.603 168.667 92 168.667s76.667-34.27 76.667-76.667S134.397 15.333 92 15.333zm0 138c-33.81 0-61.333-27.523-61.333-61.333S58.19 30.667 92 30.667 153.333 58.19 153.333 92 125.81 153.333 92 153.333zm27.523-99.666L92 81.19 64.477 53.667l-10.81 10.81L81.19 92l-27.523 27.523 10.81 10.81L92 102.81l27.523 27.523 10.81-10.81L102.81 92l27.523-27.523-10.81-10.81z"
              transform="translate(-96 -196) translate(96 196)"/>
      </g>
    </g>
  </g>
</svg>
