<svg xmlns="http://www.w3.org/2000/svg" width="184" height="184" viewBox="0 0 184 184">
  <g fill="none" fill-rule="evenodd">
    <g>
      <g>
        <path d="M0 0h184v184H0V0zm0 0h184v184H0V0z" transform="translate(-96 -196) translate(96 196)"/>
        <path fill="#4CAF50" fill-rule="nonzero"
              d="M127.19 58.113l-50.523 50.524L49.143 81.19 38.333 92l38.334 38.333L138 69l-10.81-10.887zM92 15.333C49.68 15.333 15.333 49.68 15.333 92S49.68 168.667 92 168.667 168.667 134.32 168.667 92 134.32 15.333 92 15.333zm0 138c-33.887 0-61.333-27.446-61.333-61.333S58.113 30.667 92 30.667 153.333 58.113 153.333 92 125.887 153.333 92 153.333z"
              transform="translate(-96 -196) translate(96 196)"/>
      </g>
    </g>
  </g>
</svg>
