<svg xmlns="http://www.w3.org/2000/svg" xmlns:xlink="http://www.w3.org/1999/xlink" width="48" height="48"
     viewBox="0 0 48 48">
  <defs>
    <filter id="x24314yc6a" width="178.1%" height="178.1%" x="-39.1%" y="-35.9%" filterUnits="objectBoundingBox">
      <feMorphology in="SourceAlpha" radius=".5" result="shadowSpreadOuter1"/>
      <feOffset dy="3" in="shadowSpreadOuter1" result="shadowOffsetOuter1"/>
      <feGaussianBlur in="shadowOffsetOuter1" result="shadowBlurOuter1" stdDeviation="1.5"/>
      <feComposite in="shadowBlurOuter1" in2="SourceAlpha" operator="out" result="shadowBlurOuter1"/>
      <feColorMatrix in="shadowBlurOuter1" result="shadowMatrixOuter1"
                     values="0 0 0 0 0 0 0 0 0 0 0 0 0 0 0 0 0 0 0.2 0"/>
      <feOffset dy="1" in="SourceAlpha" result="shadowOffsetOuter2"/>
      <feGaussianBlur in="shadowOffsetOuter2" result="shadowBlurOuter2" stdDeviation="4"/>
      <feComposite in="shadowBlurOuter2" in2="SourceAlpha" operator="out" result="shadowBlurOuter2"/>
      <feColorMatrix in="shadowBlurOuter2" result="shadowMatrixOuter2"
                     values="0 0 0 0 0 0 0 0 0 0 0 0 0 0 0 0 0 0 0.12 0"/>
      <feOffset dy="3" in="SourceAlpha" result="shadowOffsetOuter3"/>
      <feGaussianBlur in="shadowOffsetOuter3" result="shadowBlurOuter3" stdDeviation="2"/>
      <feComposite in="shadowBlurOuter3" in2="SourceAlpha" operator="out" result="shadowBlurOuter3"/>
      <feColorMatrix in="shadowBlurOuter3" result="shadowMatrixOuter3"
                     values="0 0 0 0 0 0 0 0 0 0 0 0 0 0 0 0 0 0 0.14 0"/>
      <feMerge>
        <feMergeNode in="shadowMatrixOuter1"/>
        <feMergeNode in="shadowMatrixOuter2"/>
        <feMergeNode in="shadowMatrixOuter3"/>
      </feMerge>
    </filter>
    <rect id="4gmyzxdeib" width="32" height="32" x="0" y="0" rx="16"/>
  </defs>
  <g fill="none" fill-rule="evenodd">
    <g>
      <g>
        <g transform="translate(-315 -169) translate(323 176)">
          <use fill="#000" filter="url(#x24314yc6a)" xlink:href="#4gmyzxdeib"/>
          <rect width="31.2" height="31.2" x=".4" y=".4" fill="#FFF" stroke="#E91E63" stroke-linejoin="square"
                stroke-width=".8" rx="15.6"/>
        </g>
        <g>
          <path d="M0 0L18.667 0 18.667 18.667 0 18.667z"
                transform="translate(-315 -169) translate(323 176) translate(6.667 6.667)"/>
          <path fill="#E91E63" fill-rule="nonzero"
                d="M9.333 16.667l-1.16-1.055c-4.12-3.733-6.84-6.195-6.84-9.216C1.333 3.934 3.27 2 5.733 2c1.392 0 2.728.647 3.6 1.67.872-1.023 2.208-1.67 3.6-1.67 2.464 0 4.4 1.934 4.4 4.396 0 3.021-2.72 5.483-6.84 9.224l-1.16 1.047z"
                transform="translate(-315 -169) translate(323 176) translate(6.667 6.667)"/>
        </g>
      </g>
    </g>
  </g>
</svg>
