<svg xmlns="http://www.w3.org/2000/svg" width="145" height="160" viewBox="0 0 145 160">
  <g fill="none" fill-rule="evenodd">
    <g fill-rule="nonzero">
      <g>
        <path fill="#E91E63" fill-opacity=".12"
              d="M1.063 97.371C-2.143 78.446 3.326 64.2 13.474 55.731 23.623 47.28 37.08 47.16 48.943 37.114 60.806 27.07 69.994 17.95 83.829 13.954c13.834-3.994 35.691.206 47.16 10.389 18.668 16.594 17.211 68.16-1.098 88.183-22.285 24.36-53.022 23.76-80.211 21.291-26.623-2.4-44.846-14.16-48.617-36.446zM22.509 39.326c6.291 3.428 14.537 1.303 26.794-8.109C61.56 21.79 67.166 15.034 66.926 9.086c-.24-5.949-9.909-8.743-18.429-6.875-8.52 1.869-19.2 9-23.794 15-4.612 6-12.377 16.578-2.194 22.115z"
              transform="translate(-115 -177) translate(115 177)"/>
        <g transform="translate(-115 -177) translate(115 177) translate(8.914 45.771)">
          <path fill="#F49D3D"
                d="M113.606 113.829H19.183c-7.457 0-13.56-6.258-13.56-13.903V96.65c0-3.668-.514-6.651 3.051-6.651h80.983l4.646 1.114c1.166.275 2.4.309 3.583.086l6.377-1.2h19.851c3.566 0 3.052 3 3.052 6.651v3.275c0 7.645-6.103 13.903-13.56 13.903z"/>
          <path fill="#75342C"
                d="M120.343 90.223h-17.486l-4.114.926c-1.492.342-3.052.325-4.543-.052l-3.531-.874H71.657l-4.234.463c-1.509.308-3.343.154-4.852-.155l-4.028-.308H44.897l-.994.343c-1.732.6-5.28.48-6.926-.343H12.651c-5.262 0-9.548-4.303-9.548-9.549 0-5.263 4.303-9.548 9.548-9.548h107.692c4.714 0 8.554 3.857 8.554 8.554v1.989c0 4.697-3.84 8.554-8.554 8.554z"/>
          <path fill="#5E241F"
                d="M8.931 73.817s7.08 7.286 9.223 9.874c2.143 2.572 2.366 5.143 11.589 2.143s35.383-7.285 35.383-7.285 7.937 4.508 19.525 6.651c11.589 2.143 20.16 2.366 25.098.429 4.937-1.938 8.897-3.463 12.222-3.858 3.652-.428 6.412 2.675 6.412 2.675s3.668-12.549-8.349-14.263C111.24 68.914 8.931 73.817 8.931 73.817z"/>
          <path fill="#EF0000"
                d="M125.571 66.429H6.994c-1.011 0-1.834-.823-1.834-1.835v-7.371c0-1.012.823-1.834 1.834-1.834h118.577c1.012 0 1.835.822 1.835 1.834v7.371c0 1.012-.823 1.835-1.835 1.835z"/>
          <path fill="#C663A3"
                d="M60.977 73.611S74.811 83.606 99.566 84c18.051.291 27.034-13.011 27.034-13.011l-9.069-.018s-4.714 8.246-18.565 7.372c-11.76-.754-20.915-8.829-20.915-8.829l-17.074 4.097z"/>
          <path fill="#F4B8DA"
                d="M79.097 74.571s5.572 3.823 15.772 5.075c9.96 1.234 15.514-1.337 19.422-3.635 4.56-2.708 7.132-5.982 7.132-5.982l-3.789-.6s-.308 1.662-4.405 4.542c-4.098 2.88-9.103 4.698-15.463 3.789-6.377-.909-8.195-1.371-11.829-3.789-3.651-2.434-6.84.6-6.84.6z"/>
          <path fill="#FFBB12"
                d="M70.92 75.326c-8.897 1.063-32.777 5.845-43.474 8.194-3.172.686-8.606 1.971-12.412-2.434-.805-.926-1.457-1.577-1.457-1.595-2.52-2.605-5.297-5.571-5.897-5.811-1.783-.72-3.583-1.011-3.343-3.84.172-2.057 1.526-3.377 2.983-3.377h118.491c1.458 0 2.64 1.2 2.64 2.64 0 .514-.531 5.366-1.011 4.886-5.743-5.726-44.057-.155-56.52 1.337z"/>
          <path fill="#F43B49"
                d="M84.737 65.366H9.994c-.703 0-1.268-.566-1.268-1.269v-6.411c0-.703.565-1.269 1.268-1.269h74.743c2.469 0 4.474 2.006 4.474 4.474 0 2.469-2.022 4.475-4.474 4.475z"/>
          <path fill="#FF979B"
                d="M48.36 65.434H27.617c-.566 0-1.011-.463-1.011-1.011v-7.577c0-.566.463-1.012 1.011-1.012H48.36c.566 0 1.011.463 1.011 1.012v7.577c.018.548-.445 1.011-1.011 1.011z"/>
          <path fill="#C10017"
                d="M5.709 58.389s-1.595 2.725 3.377 1.834c4.971-.909 6.771-2.709 9.703-1.354 2.931 1.354 7.902 6.548 16.697 3.154 8.794-3.377 10.388-4.972 13.543-3.154 3.154 1.8 7.217 4.971 11.502 3.377 4.286-1.577 4.732-4.063 8.572-2.709 3.84 1.354 6.857 4.886 15.617 5.829 8.76.943 20.04 1.165 26.589-1.989 6.548-3.154 9.48-3.377 11.965-2.023 2.486 1.355 3.617 1.577 3.617 1.577v-4.285l-13.542-2.932-106.355-.308-1.285 2.983z"/>
          <path fill="#71BC06"
                d="M4.131 47.006C1.44 49.217-.77 50.794.497 54.429c1.269 3.634 3.326 3.942 5.212 3.942 1.902 0 5.537-.788 7.902-1.731 2.366-.943 6-.309 8.692 1.423 2.691 1.731 9 4.748 17.708.48 8.692-4.269 11.058-1.732 13.269-.48 2.211 1.268 7.423 2.691 10.114.154 2.692-2.537 5.726-1.491 9.635.154 33.891 14.332 38.16-3.565 49.062-.068 4.8 1.543 9.086 4.183 10.509-.566 1.423-4.748-1.577-7.423-4.749-9.171-3.154-1.732-5.845-3-5.845-3L4.13 47.006z"/>
          <path fill="#6B9E1A"
                d="M8.263 43.269s-.532 1.097-4.166 4.44c-4.646 4.285-2.177 7.714 2.897 7.68 5.092-.052 8.04-3.292 11.28-4.166 3.24-.892 5.897 2.057 8.537 3.823 2.658 1.765 6.772 3.24 14.143-2.657 7.372-5.898 10.012-.583 13.543 1.182 3.532 1.766 6.772.892 9.72-2.348 2.949-3.24 8.623-.36 14.726 1.766 6.771 2.348 11.263 6.805 22.388 4.422 8.246-1.765 10.612-5.897 15.326-5.588 4.714.291 7.954 4.423 11.194 2.057 3.24-2.349-2.657-7.371-2.657-7.371L8.263 43.269z"/>
          <path fill="#F49D3D"
                d="M67.149.051H65.09C33.326.051 3.874 20.931 3.874 46.44c0 1.56 1.252 2.811 2.812 2.811 0 0 10.628 1.149 31.183 1.149 21.462 0 45.651-1.149 45.651-1.149l8.469-.051c1.474-.12 9.977.051 9.977.051s5.143.858 11.485.858c6.652 0 11.4-.858 11.4-.858 1.612 0 2.932-1.32 2.932-2.931C127.783 20.88 98.28.051 67.149.051z"/>
          <path fill="#FFE576"
                d="M12.669 73.011c3.48 4.972 5.588 7.663 8.828 7.955 3.24.291 13.252-2.657 21.206-4.715 7.954-2.057 18.566-6.48-1.183-6.771-19.714-.291-32.966-2.349-28.851 3.531z"/>
          <path fill="#FFAE4D"
                d="M61.8 2.726C48.171 1.68 32.503 6.549 19.509 18.583 9.977 27.41 5.846 44.794 6.977 46.509c.48.72 15.994 2.211 34.852 1.782 26.297-.6 46.765-.137 49.954-.908C94.92 46.61 93.909 5.177 61.8 2.726zM81.48 111.189H60.257s-5.16-.703-12.394-.703c-4.132 0-9.892.703-9.892.703H20.143c-7.012 0-12.754-5.743-12.754-12.755v-5.143c0-.805.651-1.457 1.457-1.457 0 0 24.463 1.492 43.2 1.492 20.331 0 38.64-1.492 38.64-1.492.805 0 1.457.652 1.457 1.457v7.252c0 5.846-4.8 10.646-10.663 10.646z"/>
          <path fill="#8E4640"
                d="M32.743 85.32c-.223 2.143 5.794 2.229 9.223 1.149 3.428-1.08 8.794.651 10.731 1.08 1.937.428 5.366.222 8.143-1.08 2.794-1.286 6-.429 7.937.428 1.937.857 13.08 0 10.732-1.286-2.452-1.337-10.938-5.091-13.303-4.954-2.366.137-5.143-1.577-8.143-.086-3 1.492-6.223 1.389-7.937.96-1.732-.411-17.383 3.789-17.383 3.789z"/>
          <ellipse cx="91.92" cy="100.56" fill="#F49D3D" rx="1.731" ry="2.006"/>
          <ellipse cx="91.762" cy="94.233" fill="#F49D3D" rx="1.029" ry="1" transform="rotate(-9.422 91.762 94.233)"/>
          <circle cx="8.187" cy="101.471" r="1.646" fill="#F49D3D" transform="rotate(-56.92 8.187 101.471)"/>
          <circle cx="14.023" cy="109.629" r="1.269" fill="#F49D3D"/>
          <circle cx="8.623" cy="104.434" r="1.269" fill="#F49D3D"/>
          <circle cx="20.263" cy="91.886" r="1.269" fill="#F49D3D"/>
          <circle cx="89.657" cy="103.869" r="1.269" fill="#F49D3D"/>
          <circle cx="72.72" cy="111.24" r="1.269" fill="#F49D3D"/>
          <ellipse cx="18.122" cy="25.266" fill="#FFF" rx="2.194" ry="1.697" transform="rotate(-30.001 18.122 25.266)"/>
          <ellipse cx="42.874" cy="23.63" fill="#FFF" rx="1.697" ry="2.194" transform="rotate(-86.421 42.874 23.63)"/>
          <ellipse cx="52.736" cy="29.628" fill="#FFF" rx="2.194" ry="1.697" transform="rotate(-2.349 52.736 29.628)"/>
          <ellipse cx="109.506" cy="20.208" fill="#FFF" rx="1.697" ry="2.194"
                   transform="rotate(-59.999 109.506 20.208)"/>
          <ellipse cx="118.197" cy="26.431" fill="#FFF" rx="1.697" ry="2.194"
                   transform="rotate(-59.999 118.197 26.43)"/>
          <ellipse cx="95.232" cy="20.911" fill="#FFF" rx="1.697" ry="2.194" transform="rotate(-87.377 95.232 20.911)"/>
          <ellipse cx="80.842" cy="19.592" fill="#FFF" rx="1.697" ry="2.194" transform="rotate(-83.869 80.842 19.592)"/>
          <ellipse cx="85.758" cy="31.053" fill="#FFF" rx="1.697" ry="2.194" transform="rotate(-87.386 85.758 31.053)"/>
          <ellipse cx="88.703" cy="7.752" fill="#FFF" rx="1.697" ry="2.194" transform="rotate(-79.274 88.703 7.752)"/>
          <ellipse cx="26.561" cy="15.855" fill="#FFF" rx="2.194" ry="1.697" transform="rotate(-11.082 26.561 15.855)"/>
          <ellipse cx="51.599" cy="7.026" fill="#FFF" rx="2.194" ry="1.697" transform="rotate(-12.627 51.599 7.026)"/>
          <path fill="#DD853C"
                d="M33.909 12.24s.068 2.863 7.148-.257c8.263-3.652 9.052-5.314 7.886-6.72-1.166-1.406 7.577-3.189 12.051-3.189 2.606 0 5.915.377 7.217.806 1.303.429.909-1.423.618-2.76l-.223.086s-6.909-.48-14.212.771c-6.6 1.149-10.028 2.143-10.028 2.143l-10.457 9.12zM59.606 43.303s2.674 2.794 5.485 1.2c2.538-1.423 3.12-7.594 3.48-10.457.206-1.646-.394-2.195-.394-2.195l.652-5.022s1.2.497 1.594-.823c.377-1.32 1.817-9.686 2.143-11.092.325-1.405 5.914-7.988 5.914-7.988l1.046-3.635L70.2 9.737l-4.783 13.594-2.88 15.326-2.931 4.646z"/>
        </g>
        <g transform="translate(-115 -177) translate(115 177) translate(42.514)">
          <path fill="#D67500"
                d="M44.674 19.766l8.366-2.572-3.034 3.257-3.72 1.766-1.355-.051c0-.017-1.508-1.56-.257-2.4z"/>
          <path fill="#FFA171"
                d="M20.829 14.571c.24-.497.857.463 1.594 1.629.737 1.166 1.166 1.663 1.423 1.954.24.292.325 1.2.291 2.126-.034.926.103 2.126.103 2.126l-1.937.977s-1.252-.754-2.092-1.337c-.857-.566-1.457-2.383-1.765-3.292-.326-.925-.326-1.131-.326-1.131l.497-1.732.463-.171.823.84.48.446s1.886 1.903 1.423.771c-.48-1.148-1.509-2.108-.977-3.206z"/>
          <path fill="#F37E4E"
                d="M20.366 17.006s1.2 1.543 1.851 2.417c.652.874.617 1.371.189 1.56-.497.223-.806.566-1.372-.052-.394-.445-1.028-1.92-1.148-2.708-.172-1.012.48-1.217.48-1.217z"/>
          <path fill="#333"
                d="M21.566 21.154c-.223.086-.463-.017-.549-.24l-3.051-7.8c-.086-.223.017-.463.24-.548.223-.086.463.017.548.24l3.052 7.8c.085.223-.017.463-.24.548z"/>
          <path fill="#FFA171"
                d="M19.474 15.394c.275.635-.703.823-1.354.926-.634.103-.994.24-1.097-.429-.103-.668.668-.702 1.32-.737.634-.051.994-.085 1.131.24z"/>
          <path fill="#333"
                d="M23.246 25.046c-.137.085-.326.051-.412-.086l-.685-1.08c-.086-.137-.052-.326.085-.411.137-.086.326-.052.412.085l.685 1.08c.103.137.052.326-.085.412z"/>
          <path fill="#FFA171"
                d="M17.451 17.194c.155.6.635.497 1.423.172.789-.326.926-.497.789-.926-.137-.429-.703-.206-1.166-.069-.463.155-1.183.258-1.046.823zM18.034 18.343c.155.6.635.497 1.423.171.789-.325.926-.497.789-.925-.137-.429-.703-.206-1.166-.069-.48.137-1.2.257-1.046.823zM37.749 29.434l-1.355-5.211-2.297 1.114 1.68 4.92c1.183-.514 1.972-.823 1.972-.823zM32.76 25.954c-.634.292-1.183.549-1.491.686-1.08.446-1.526.994-2.435.086-.891-.892-5.28-6-5.28-6L21.48 21.89s1.577 3.12 3.737 6.446c2.16 3.326 2.246 3.412 3.154 3.874.892.446 1.44.892 4.132-.445.034-.017.068-.035.086-.052-.052-.428-.086-.96-.138-1.611-.051-1.32.103-2.846.309-4.149z"/>
          <path fill="#F37E4E"
                d="M34.097 25.32c-.446.223-.908.429-1.337.634-.206 1.286-.36 2.812-.274 4.149.051.651.085 1.166.137 1.611 1.148-.565 2.263-1.08 3.154-1.474l-1.68-4.92z"/>
          <path fill="#FFC648"
                d="M43.149 20.074s-4.766 2.332-6.566 3.326c-1.8.994-2.794 1.08-2.88 1.526-.086.445-.274 2.691.891 5.04 1.166 2.331 1.612 3.24 2.246 3.874.634.634 4.234-5.211 5.04-7.92.823-2.691 1.269-5.846 1.269-5.846z"/>
          <path fill="#FFA171"
                d="M55.663 34.851s.634 3.686 2.246 8.915c1.611 5.211 2.16 7.011 2.605 7.92.446.891 2.092 1.543 3.12.411.395-.428-.325-2.571-.788-3.926-.446-1.354-1.8-11.691-1.972-13.045-.171-1.355-5.211-.275-5.211-.275z"/>
          <path fill="#EDA320"
                d="M42.943 21.377c-.874 1.389-2.263 3.549-3.652 5.623-1.508 2.263-3.171 3.48-4.131 4.063.754 1.491 1.149 2.194 1.629 2.708l2.228-2.194c1.166-1.783 2.434-4.183 2.88-5.657.48-1.611.823-3.377 1.046-4.543z"/>
          <path fill="#FFA171"
                d="M62.263 49.166s.154.703 1.406 1.2c1.251.497 2.108.48 2.742 1.148.635.669 2.486 2.297 2.915 2.709.428.428-.292.943-2.023.12-1.714-.823-2.383-1.697-3.24-1.68-.857.017-1.8 0-2.709-.377-.891-.377-1.937-2.126.909-3.12zM9.343 42.977L7.834 46.87c-.068.154-.703 1.491-.788 1.645L5.52 51.206l.343 1.303h5.074l.669-1.783s-.532.068-.343-1.183c.171-1.252 1.988-5.76 1.988-5.76l-3.908-.806z"/>
          <path fill="#F37E4E"
                d="M9.72 41.589l-.926 2.76-.788 1.971s.84.789 2.023.909c1.217.12 1.954-.052 1.954-.052l1.32-3.308-3.583-2.28z"/>
          <path fill="#FFA171"
                d="M29.829 69.977s-.018 2.297-.086 4.046c-.069 1.8-.36 3.257-.36 3.257l-1.337 3.48 2.485 3.12 1.423-2.04 1.166-4.097.617-4.097.892-4.389-4.8.72z"/>
          <path fill="#F37E4E"
                d="M31.166 73.731c1.303.138 2.571-.102 2.571-.102l.343-2.143.429-2.623-4.68-.566v2.537l-.103 2.332c.017 0 .497.463 1.44.565z"/>
          <g>
            <path fill="#FFA171"
                  d="M1.526 3.394v.035c.017-.035.051-.069.068-.103l-.068.068zM7.2 3.669c-.051-.823-.154-2.229-.24-3.292-.051.446-.343 2.503-.943 3.36-.668.977-1.937 2.366-3.514 2.726-.412.086-.72.086-.977 0-.017.206-.052.411-.086.617C1.08 9.154 0 9.771 0 9.771c2.794 2.16 7.474-2.074 7.474-2.074S7.286 5.11 7.2 3.67z"
                  transform="translate(44.229 12)"/>
            <path fill="#F37E4E" d="M6.96.274h-.017v.103C6.96.326 6.96.274 6.96.274z" transform="translate(44.229 12)"/>
            <path fill="#F37E4E"
                  d="M2.503 6.446c1.577-.36 3.188-1.68 3.84-2.657.926-1.406.583-2.966.651-3.412 0-.034-.034-.068-.034-.103L5.623 0 1.61 3.326c-.017.034-.051.068-.068.103.034.222.188 1.44 0 3.017.24.085.548.103.96 0z"
                  transform="translate(44.229 12)"/>
          </g>
          <g>
            <path fill="#E82A2A"
                  d="M34.731 21.051c2.4-5.108-2.108-7.217-2.108-7.217 2.177-.171 4.217.137 6.034.652L25.354 7.13s-2.005-.994-5.468-2.777C16.406 2.571 11.949-.394 9.549.137 7.149.67 5.589 1.92 4.25 5.571 2.914 9.223.017 16.166.017 16.166l2.229 1.165c.96.498 1.868.858 2.571 1.098.737-1.492 3.943-8.058 4.56-9.446.703-1.56 1.389-1.749 4.354.343 2.966 2.091 11.846 8.04 11.76 9.685 0 0-.034.84-1.422 3.755-1.355 2.845-2.486 4.56-2.76 9.445-.12 1.955-.086 10.235-.086 10.235s.411 1.045 2.588 1.337c1.098.154 1.938.154 2.572.086.548-3.412 1.611-9.995 2.04-12.618.6-3.582 3.908-5.091 6.308-10.2z"
                  transform="translate(7.714 27.6)"/>
            <path fill="#FF7415" d="M28.251 43.08l-.102.137c.085-.086.102-.137.102-.137z"
                  transform="translate(7.714 27.6)"/>
            <path fill="#CC1B1B"
                  d="M42.857 16.817l-4.2-2.331c-1.8-.515-3.84-.823-6.034-.652 0 0 4.508 2.109 2.108 7.217-2.4 5.109-5.708 6.618-6.308 10.218-.429 2.622-1.492 9.205-2.04 12.617 1.114-.12 1.594-.48 1.783-.669l.103-.137s2.142-8.811 2.485-10.337c.36-1.509 4.372-5.88 6.412-7.663 2.04-1.783 5.674-3.634 5.845-5.143.189-1.491-.154-3.12-.154-3.12zM13.731 9.343C10.766 7.25 10.08 7.423 9.377 9c-.617 1.389-3.823 7.954-4.56 9.446.926.308 1.526.428 1.526.428s.617-.977.977-1.954 3.926-5.966 3.926-5.966 2.417 1.697 6.137 3.823c4.731 2.709 8.108 4.252 8.108 4.252.086-1.646-8.794-7.595-11.76-9.686z"
                  transform="translate(7.714 27.6)"/>
          </g>
          <path fill="#FFC648"
                d="M54.943 17.366s-.994-.635-1.886-.172c-.891.446-1.714 1.44-3.051 2.435-1.355.994-2.966 1.714-4.235 1.611-1.251-.086-1.08-1.474-1.08-1.474l-1.525.308s-3.24 7.115-4.766 9.892c-1.526 2.794-2.691 4.045-3.6 4.405-.891.36-1.251.446-1.714.36-.446-.085-.995-.445-.995-.445s1.612 1.44 2.606 3.874c.994 2.434.634 3.6 3.154 5.04s4.235 1.611 6.926 1.526c2.692-.086 3.6-.446 4.68 0 1.08.445 1.44 1.08 1.44 1.08s.172-6.206.994-9.086c.806-2.88 1.715-4.406 2.16-4.851.429-.463.892-14.503.892-14.503z"/>
          <path fill="#FFF"
                d="M.309 58.011c.548.892 1.68.858 6.48-1.628 4.817-2.486 6.377-2.914 6.428-4.08.034-1.183-.96-2.28-1.32-2.64-.36-.36-.994-.754-1.097-.257-.103.497-.223 1.714-1.68 2.52-1.457.823-2.143.428-2.143.428l-.223-1.028c-.103-.515-.703-.755-1.131-.463-.24.171-.497.411-.737.737-.703.977-3.326 3.874-3.875 4.423-.531.566-1.2 1.166-.702 1.988z"/>
          <path fill="#FFA171"
                d="M41.674 6.24s-.514 3.617.48 6.943c.806 2.708 1.44 3.926 3.823 3.36 2.383-.566 3.429-1.423 3.874-2.452.446-1.011.309-1.508.309-1.508.154.068.583-.103 1.234-.326.995-.343 1.612-1.371 1.097-2.571-1.2-2.795-4.148-.6-4.148-.6L46.2 6.137l-4.526.103z"/>
          <path fill="#5E2D1E"
                d="M41.091 2.006c-.257.103-1.302 1.114-.96 3.068.343 1.955 1.406 2.263 2.589 2.435 1.303.171 3.103-.892 3.377-1.046.292-.154.634.823 1.046 2.177.411 1.337.6 1.903.806 1.886.565-.035.565-.72 1.08-1.2.514-.48 1.457-.737 2.125-.446.669.291 1.149.291 1.252 1.32.103 1.029-.137.909-.463 1.32-.326.411-.754.789-.754.789l.171 2.365s2.794-2.28 3.823-4.491c1.028-2.212.154-3.514-.069-3.96-.223-.446-.925-.892-1.028-1.046-.103-.154 1.011-1.491-.326-2.914-.96-1.029-2.211-.514-2.4-.583-.189-.069-.96-1.749-3.737-1.663-2.263.086-3 .96-3.669 1.92-.548.772-1.165.994-1.628.892-.686-.189-1.235-.823-1.235-.823z"/>
          <circle cx="50.451" cy="10.354" r="2.091" fill="#FFA171"/>
          <circle cx="50.425" cy="10.5" r="1" fill="#F37E4E" transform="rotate(-70.378 50.425 10.5)"/>
          <path fill="#FFF"
                d="M29.126 77.571s-.617-.754-1.612 2.058c-.994 2.811-2.28 5.708-2.588 6.702-.309.995-.206 2.263 1.063 2.743 1.731.652 3.634-.205 4.8-2.52 1.371-2.725 2.211-4.8 2.52-6.171.308-1.372.291-2.452-.12-2.606-.035-.017-.326.514-.635 1.526-.823 2.674-1.423 1.971-1.56 2.263-.034.085-.154.051-.154-.035.034-.6-.103-1.405-1.114-1.56-1.337-.205-1.68.909-1.68.909l1.08-3.309z"/>
          <circle cx="44.949" cy="10.131" r="1" fill="#5E2D1E"/>
          <circle cx="42.034" cy="10.183" r="1" fill="#5E2D1E"/>
          <path fill="#F37E4E"
                d="M42.223 12.514c.12.326.617.292 1.097.292s.806-.103.771-.395c-.034-.291-.531-1.525-.651-1.868-.12-.343-.274-.874-.566.12-.223.806-.737 1.646-.651 1.851z"/>
          <path fill="#D36E4A"
                d="M43.303 14.177c-.497 0-.772-.206-.789-.206-.068-.051-.085-.154-.034-.24.051-.068.154-.085.223-.034.017.017.548.377 1.474-.068.737-.36 1.166-1.08 1.183-1.08.051-.086.154-.103.223-.052.086.052.103.154.051.223-.017.034-.48.823-1.32 1.217-.394.189-.737.24-1.011.24z"/>
          <path fill="#F37E4E"
                d="M43.526 14.897c.068.309.685.309 1.063.172.377-.12.462-.498.274-.669-.189-.171-.446-.051-.772.051-.308.086-.617.189-.565.446z"/>
          <path fill="#EDA320"
                d="M53.177 21.84c-.274-2.983-1.903 2.709-2.708 6.789-.806 4.062-1.629 7.868-1.355 11.382l.275 3.532s-3.532.806-6.789.548c-1.44-.12-2.914-.342-4.131-.565 2.194 1.131 3.84 1.268 6.308 1.2 2.692-.086 3.6-.446 4.68 0 1.08.445 1.44 1.08 1.44 1.08s.172-6.206.994-9.086c.446-1.56.909-2.726 1.303-3.531.035-1.612.223-8.709-.017-11.349z"/>
          <path fill="#F37E4E"
                d="M55.749 35.88l.805 3.051s.909.48 2.537.24c1.629-.24 2.246-.96 2.246-.96l-.617-3.771-4.971 1.44z"/>
          <path fill="#FFC648"
                d="M52.68 18c1.08-1.166 2.691-1.251 4.32-.086 1.886 1.355 1.971 4.046 3.24 8.366 1.251 4.32 2.88 6.84 2.88 6.84s-.806 2.606-4.32 3.051c-3.514.446-4.32 0-4.851-.445-.532-.446-1.612-8.452-1.8-11.16 0 0-.669-5.246.531-6.566z"/>
          <path fill="#333"
                d="M22.32 23.674s.703-.497 1.286-.891c.24-.172.394-.377.514-.463.12-.086.291-.103.429-.189.154-.102.291-.205.291-.205l.754.96s-.154.103-.325.24c-.155.103-.24.308-.326.36-.137.103-.429.171-.669.343l-1.285.908-.669-1.063z"/>
          <ellipse cx="48.39" cy="25.874" fill="#FFF9EE" rx="1.766" ry="1.337"
                   transform="rotate(-75.665 48.39 25.874)"/>
          <ellipse cx="48.301" cy="25.888" fill="#CC9340" rx="1.097" ry="1" transform="rotate(-75.665 48.3 25.888)"/>
        </g>
      </g>
    </g>
  </g>
</svg>
