<?xml version="1.0" encoding="UTF-8"?>
<svg width="130px" height="40px" viewBox="0 0 130 40" version="1.1" xmlns="http://www.w3.org/2000/svg" xmlns:xlink="http://www.w3.org/1999/xlink">
    <title>eatos_logo_no text</title>
    <g id="Checkout-V2" stroke="none" stroke-width="1" fill="none" fill-rule="evenodd">
        <g id="Desktop-Checkout-V2" transform="translate(-165.000000, -35.000000)" fill-rule="nonzero">
            <g id="App-Bar-/-Top-App-Bar-/-Regular-/-Flat-/-Surface-Color" transform="translate(0.000000, 24.000000)">
                <g id="eatos_logo_no-text" transform="translate(165.000000, 11.000000)">
                    <path d="M19.0929823,17.5056362 C18.0615121,16.6488793 16.7549789,16.1976252 15.4166938,16.2359095 C13.9920106,16.2351256 12.6053032,16.6969944 11.4636954,17.5525295 C10.2929558,18.3869961 9.53321323,19.6838199 9.37579351,21.1164217 L20.8502698,21.1164217 C20.6849626,19.5581207 20.0992001,18.3545255 19.0929823,17.5056362 Z M40.9925936,25.6037515 C38.074562,25.6037515 36.6155462,26.5199747 36.6155462,28.3379926 C36.5774011,29.1904506 36.9707703,30.0045778 37.661294,30.5022996 C38.3584592,31.0073045 39.353896,31.2561998 40.6511982,31.2561998 C41.8987275,31.2741553 43.1126351,30.8501131 44.079526,30.0586166 C45.0527528,29.2929951 45.6029492,28.1066871 45.5601035,26.8662639 L45.5601035,25.5929299 L40.9925936,25.6037515 Z M40.9925936,25.6037515 C38.074562,25.6037515 36.6155462,26.5199747 36.6155462,28.3379926 C36.5774011,29.1904506 36.9707703,30.0045778 37.661294,30.5022996 C38.3584592,31.0073045 39.353896,31.2561998 40.6511982,31.2561998 C41.8987275,31.2741553 43.1126351,30.8501131 44.079526,30.0586166 C45.0527528,29.2929951 45.6029492,28.1066871 45.5601035,26.8662639 L45.5601035,25.5929299 L40.9925936,25.6037515 Z M19.0929823,17.5056362 C18.0615121,16.6488793 16.7549789,16.1976252 15.4166938,16.2359095 C13.9920106,16.2351256 12.6053032,16.6969944 11.4636954,17.5525295 C10.2929558,18.3869961 9.53321323,19.6838199 9.37579351,21.1164217 L20.8502698,21.1164217 C20.6849626,19.5581207 20.0992001,18.3545255 19.0929823,17.5056362 L19.0929823,17.5056362 Z M73.2742161,10.62314 L73.2742161,6.02038056 C73.2742161,2.70899089 71.0533497,0 68.3114062,0 L4.96280983,0 C2.22446002,0 0,2.70899089 0,6.02038056 L0,33.9615836 C0,37.2910091 2.22446002,40 4.96280983,40 L68.3221871,40 C71.0030388,40 73.205937,37.3884029 73.284997,34.1599784 C71.0030388,36.2341059 68.6132716,37.269366 66.1192889,37.269366 C63.7488153,37.3251151 61.4541473,36.4292368 59.7441806,34.780413 C58.0192358,33.1247182 57.1423889,30.8521959 57.1423889,28.002525 L57.1423889,15.9040491 L54.0877992,15.9040491 L54.0877992,10.62314 L57.1423889,10.62314 L57.1423889,2.77031292 L64.4913723,2.77031292 L64.4913723,10.62314 L73.2742161,10.62314 Z M28.2351896,26.3396158 L9.1889245,26.3396158 C9.41438837,27.7710107 10.2245313,29.0431005 11.4241654,29.8494003 C12.6665183,30.7571063 14.167668,31.2378676 15.7041846,31.2201281 C18.2628527,31.2201281 20.3687227,30.3580124 22.0217948,28.6337812 L26.1077577,33.0706105 C23.3399307,35.796375 19.606657,37.3067309 15.7293401,37.269366 C11.7595713,37.269366 8.47738478,36.0405206 5.88278037,33.5828298 C3.28817595,31.125139 1.98847799,27.8317853 1.98368648,23.7027685 C1.98368648,19.5737518 3.30135262,16.2876123 5.93668489,13.8443503 C8.46089751,11.4552254 11.8109919,10.1437646 15.2801357,10.1866715 C18.8737706,10.1866715 21.9295582,11.2760393 24.4474984,13.454775 C26.9654386,15.6335107 28.220815,18.6274687 28.2136278,22.4366489 L28.2351896,26.3396158 Z M52.9018997,36.8797908 L46.0488379,36.8797908 L46.0488379,33.6910452 C44.168169,36.0669733 41.8418893,37.2549373 39.0699989,37.2549373 C36.2981085,37.2549373 33.9730267,36.4505366 32.0947535,34.8417351 C30.2164803,33.228124 29.2761458,31.0806505 29.2737457,28.3993146 C29.2713543,25.7179788 30.2440315,23.7087805 32.1917816,22.3717197 C34.137136,21.0370638 36.795228,20.3697358 40.1660575,20.3697358 L45.6032272,20.3697358 L45.6032272,20.2254486 C45.6032272,17.4262783 44.128639,16.0266931 41.1794626,16.0266931 C39.8092105,16.0461293 38.4525369,16.3023795 37.168966,16.7842006 C35.880785,17.2187159 34.6682492,17.8528279 33.5753311,18.6635404 L30.3194978,13.9309225 C33.7320746,11.4316007 37.8610875,10.1125274 42.0850586,10.1722428 C45.2618318,10.1722428 47.8540405,10.9694292 49.8616845,12.563802 C51.8693286,14.1581748 52.8743485,16.6831996 52.8767442,20.1388764 L52.9018997,36.8797908 Z M36.6191399,28.3379926 C36.5809947,29.1904506 36.9743639,30.0045778 37.6648876,30.5022996 C38.3620528,31.0073045 39.3574897,31.2561998 40.6547919,31.2561998 C41.9023211,31.2741553 43.1162288,30.8501131 44.0831196,30.0586166 C45.0563464,29.2929951 45.6065428,28.1066871 45.5636972,26.8662639 L45.5636972,25.5929299 L40.9925936,25.5929299 C38.074562,25.6037515 36.6191399,26.5199747 36.6191399,28.3379926 Z M19.096576,17.5164578 C18.0657035,16.6549777 16.7575843,16.1997702 15.4166938,16.2359095 C13.9920106,16.2351256 12.6053032,16.6969944 11.4636954,17.5525295 C10.2929558,18.3869961 9.53321323,19.6838199 9.37579351,21.1164217 L20.8502698,21.1164217 C20.6849626,19.5581207 20.0992001,18.3545255 19.0929823,17.5056362 L19.096576,17.5164578 Z M19.096576,17.5164578 C18.0657035,16.6549777 16.7575843,16.1997702 15.4166938,16.2359095 C13.9920106,16.2351256 12.6053032,16.6969944 11.4636954,17.5525295 C10.2929558,18.3869961 9.53321323,19.6838199 9.37579351,21.1164217 L20.8502698,21.1164217 C20.6849626,19.5581207 20.0992001,18.3545255 19.0929823,17.5056362 L19.096576,17.5164578 Z M19.096576,17.5164578 C18.0657035,16.6549777 16.7575843,16.1997702 15.4166938,16.2359095 C13.9920106,16.2351256 12.6053032,16.6969944 11.4636954,17.5525295 C10.2929558,18.3869961 9.53321323,19.6838199 9.37579351,21.1164217 L20.8502698,21.1164217 C20.6849626,19.5581207 20.0992001,18.3545255 19.0929823,17.5056362 L19.096576,17.5164578 Z M64.4949659,15.9148706 L64.4949659,27.6742718 C64.4449904,28.5283553 64.7212986,29.3694338 65.2675975,30.026152 C65.7256649,30.5735627 66.4025277,30.8881551 67.1147258,30.8846605 C68.4839007,30.8846605 69.6302703,30.2642258 70.5718026,29.0305708 L73.2885906,34.152764 L73.2885906,15.9040491 L64.4949659,15.9148706 Z" id="Shape" fill="#E91E63"></path>
                    <path d="M102.949878,23.9401118 C103.029562,27.5374339 101.590547,31.0047903 98.9790811,33.5078858 C96.331883,36.0992331 93.0040463,37.3937037 88.9955709,37.391301 C84.9870956,37.3888916 81.6580435,36.094421 79.0084145,33.5078858 C73.7086046,28.1980849 73.7086046,19.656875 79.0084145,14.347074 C81.6604743,11.7412903 84.9895265,10.4371953 88.9955709,10.4347859 C93.0016154,10.4323832 96.3294522,11.7364781 98.9790811,14.347074 C101.590022,16.8609518 103.028275,20.3356238 102.949878,23.9401118 L102.949878,23.9401118 Z M82.4359162,23.9401118 C82.4359162,26.0767102 83.0497064,27.8163055 84.2772868,29.1588976 C85.4991644,30.4458243 87.2040573,31.175698 88.9882784,31.175698 C90.7724995,31.175698 92.4773924,30.4458243 93.69927,29.1588976 C94.9146962,27.8163055 95.5224092,26.0767102 95.5224092,23.9401118 C95.5224092,21.8035135 94.9146962,20.0542939 93.69927,18.6924531 C92.4846148,17.3927274 90.7770319,16.6537706 88.9882784,16.6537706 C87.1995248,16.6537706 85.491942,17.3927274 84.2772868,18.6924531 C83.0521372,20.0542939 82.438347,21.8035135 82.4359162,23.9401118 Z" id="Shape" fill="#E91E63"></path>
                    <path d="M123.892617,28.8665615 C123.892617,31.4434736 122.944528,33.5078906 121.048348,35.0598124 C119.152169,36.6117343 116.745849,37.3888983 113.82939,37.3913043 C111.762868,37.3710068 109.713029,37.01884 107.758247,36.3482685 C105.694735,35.6745892 103.770889,34.6314374 102.080537,33.2696886 L105.285754,28.7041511 C108.007301,30.8118775 110.905713,31.8645377 113.980989,31.8621316 C114.76503,31.9042567 115.543589,31.709322 116.215256,31.3027179 C116.7335,30.9907247 117.047937,30.4278139 117.041827,29.8229785 C117.041827,29.209428 116.662831,28.6391869 115.901231,28.1230827 C114.873376,27.4896106 113.761623,27.0036467 112.598558,26.6794344 C111.154767,26.2294974 110.053876,25.8409154 109.295885,25.5136885 C108.39328,25.1149099 107.524205,24.6442075 106.69706,24.1061314 C104.711847,22.8597818 103.71924,21.0311607 103.71924,18.6202681 C103.67584,16.2973925 104.761666,14.0977037 106.63209,12.7193559 C108.576396,11.1963071 111.086187,10.4347826 114.161463,10.4347826 C117.236738,10.4347826 120.313218,11.4718033 123.3909,13.5458446 L120.683791,18.4001118 C118.417038,16.8481899 116.158707,16.0710259 113.908799,16.0686199 C111.658891,16.0662138 110.533936,16.6821704 110.533936,17.9164896 C110.5468,18.6175661 110.971068,19.2454203 111.61678,19.5189392 C112.756833,20.0738368 113.942756,20.5290801 115.161288,20.8795776 C116.814429,21.3968849 117.988713,21.7926851 118.68414,22.0669783 C119.55066,22.4297178 120.387068,22.8605518 121.185508,23.3554343 C122.987841,24.4574192 123.890211,26.2944616 123.892617,28.8665615 Z" id="Path" fill="#E91E63"></path>
                    <path d="M129.344276,11.4007228 L128.55512,12.8266345 L128.173885,12.8266345 L127.365667,11.4007228 L127.365667,13.0434783 L126.713755,13.0434783 L126.713755,10.4380681 L127.59822,10.4380681 L128.36069,11.8705509 L129.12316,10.4380681 L130,10.4380681 L130,13.0434783 L129.348088,13.0434783 L129.344276,11.4007228 Z M125.371809,10.9374658 L125.371809,13.0401927 L124.719897,13.0401927 L124.719897,10.9374658 L123.892617,10.9374658 L123.892617,10.4347826 L126.180027,10.4347826 L126.180027,10.9374658 L125.371809,10.9374658 Z" id="Shape" fill="#EC298F"></path>
                </g>
            </g>
        </g>
    </g>
</svg>