<?xml version="1.0" encoding="UTF-8"?>
<svg width="132px" height="50px" viewBox="0 0 132 50" version="1.1" xmlns="http://www.w3.org/2000/svg" xmlns:xlink="http://www.w3.org/1999/xlink">
    <title>Google Pay</title>
    <g id="Checkout-V2" stroke="none" stroke-width="1" fill="none" fill-rule="evenodd">
        <g id="Desktop-Checkout-V2" transform="translate(-477.000000, -745.000000)">
            <g id="Payment" transform="translate(165.000000, 707.000000)">
                <g id="Google-Pay" transform="translate(312.000000, 38.000000)">
                    <path d="M127.995503,0.5 C128.963183,0.5 129.839237,0.892557023 130.473391,1.5271376 C131.107695,2.16186754 131.5,3.03872862 131.5,4.00718972 L131.5,4.00718972 L131.5,45.9928103 C131.5,46.961558 131.108025,47.8386191 130.473695,48.4733753 C129.839779,49.1077175 128.963849,49.5 127.995503,49.5 L127.995503,49.5 L4.00449748,49.5 C3.03681699,49.5 2.16076282,49.107443 1.52660859,48.4728624 C0.892305087,47.8381325 0.5,46.9612714 0.5,45.9928103 L0.5,45.9928103 L0.5,4.00718972 C0.5,3.03844205 0.891975247,2.16138094 1.52630505,1.52662467 C2.16022109,0.892282458 3.03615138,0.5 4.00449748,0.5 L4.00449748,0.5 L127.995503,0.5 Z" id="Rectangle-Copy-4" stroke="#E6E7E8" fill="#FFFFFF"></path>
                    <g id="Google_Pay_(GPay)_Logo" transform="translate(35.000000, 13.000000)">
                        <path d="M29.1868938,11.7366857 L29.1868938,18.6966857 L26.9079948,18.6966857 L26.9079948,1.50857143 L32.9520315,1.50857143 C34.4092153,1.47907953 35.8181893,2.01476708 36.8657929,2.99657143 C37.9257266,3.92030853 38.521799,5.24287249 38.5006553,6.624 C38.5310135,8.01284164 37.933879,9.34527582 36.8657929,10.272 C35.8089122,11.2484571 34.504325,11.7362286 32.9520315,11.7353143 L29.1868938,11.7353143 L29.1868938,11.7366857 Z M29.1868938,3.62468571 L29.1868938,9.62468571 L33.0086501,9.62468571 C33.8558329,9.64901627 34.6743934,9.3264017 35.2634862,8.736 C35.8490048,8.18445509 36.179348,7.42688017 36.179348,6.63565714 C36.179348,5.84443412 35.8490048,5.0868592 35.2634862,4.53531429 C34.6815381,3.93222387 33.8604373,3.60011817 33.0086501,3.62331429 L29.1868938,3.62331429 L29.1868938,3.62468571 Z" id="Shape" fill="#5F6368" fill-rule="nonzero"></path>
                        <path d="M43.7520315,6.55268571 C45.4364351,6.55268571 46.7660288,6.9888 47.7408126,7.86102857 C48.7155963,8.73325714 49.2025164,9.92914286 49.2015741,11.4486857 L49.2015741,18.6966857 L47.0217562,18.6966857 L47.0217562,17.0646857 L46.9226737,17.0646857 C45.9790301,18.4086857 44.7239843,19.0806857 43.157536,19.0806857 C41.8203932,19.0806857 40.7017038,18.6966857 39.8014679,17.9286857 C38.9265203,17.2148178 38.4304295,16.1567682 38.451114,15.0486857 C38.451114,13.8317714 38.9257667,12.864 39.8750721,12.1453714 C40.8243775,11.4267429 42.0916907,11.0665143 43.6770118,11.0646857 C45.0301966,11.0646857 46.1446396,11.3046857 47.0203408,11.7846857 L47.0203408,11.28 C47.0255664,10.5246341 46.6799325,9.80703236 46.0790564,9.32571429 C45.4764168,8.79891846 44.6910305,8.51148033 43.8794233,8.52068571 C42.6064482,8.52068571 41.5991088,9.04091429 40.857405,10.0813714 L38.8502752,8.85668571 C39.9543381,7.32068571 41.5882569,6.55268571 43.7520315,6.55268571 Z M40.803592,15.0966857 C40.8005171,15.6668453 41.0820943,16.2032831 41.5594758,16.5366857 C42.0634918,16.920816 42.6890735,17.1243092 43.3302228,17.1126857 C44.2918832,17.1111287 45.2136878,16.7402667 45.8936304,16.0813714 C46.6485452,15.3929143 47.0260026,14.5851429 47.0260026,13.6580571 C46.3154391,13.1094857 45.3246134,12.8352 44.0535256,12.8352 C43.1278113,12.8352 42.3559109,13.0514286 41.7378244,13.4838857 C41.1136042,13.9227429 40.803592,14.4562286 40.803592,15.0966857 L40.803592,15.0966857 Z" id="Shape" fill="#5F6368" fill-rule="nonzero"></path>
                        <polygon id="Path" fill="#5F6368" points="61.7142857 6.93668571 54.1047444 23.8806857 51.7522412 23.8806857 54.5760944 17.952 49.5724246 6.93668571 52.0494889 6.93668571 55.6660026 15.3846857 55.7155439 15.3846857 59.2329751 6.93668571"></polygon>
                        <path d="M19.9778861,10.2363429 C19.9787361,9.56345413 19.920015,8.89173428 19.8023591,8.22857143 L10.1913499,8.22857143 L10.1913499,12.0315429 L15.6960944,12.0315429 C15.4684749,13.2589057 14.7331861,14.3428835 13.6606553,15.0322286 L13.6606553,17.5008 L16.9459502,17.5008 C18.8695675,15.7824 19.9778861,13.2411429 19.9778861,10.2363429 Z" id="Path" fill="#4285F4"></path>
                        <path d="M10.1913499,19.8857143 C12.941599,19.8857143 15.2573001,19.0107429 16.9459502,17.5021714 L13.6606553,15.0336 C12.7462647,15.6342857 11.5685976,15.9771429 10.1913499,15.9771429 C7.53310616,15.9771429 5.27685452,14.2409143 4.47003932,11.9012571 L1.08566186,11.9012571 L1.08566186,14.4452571 C2.81557824,17.7805125 6.33876782,19.8855442 10.1913499,19.8857143 Z" id="Path" fill="#34A853"></path>
                        <path d="M4.47003932,11.9012571 C4.04350506,10.6752609 4.04350506,9.34759626 4.47003932,8.1216 L4.47003932,5.5776 L1.08566186,5.5776 C-0.361267986,8.36726112 -0.361267986,11.655596 1.08566186,14.4452571 L4.47003932,11.9012571 Z" id="Path" fill="#FBBC04"></path>
                        <path d="M10.1913499,4.04571429 C11.644732,4.02270858 13.0490849,4.55475597 14.100865,5.52685714 L14.100865,5.52685714 L17.0096461,2.70857143 C15.165176,1.03004683 12.7216628,0.108508717 10.1913499,0.137142857 C6.33876782,0.13731298 2.81557824,2.24234466 1.08566186,5.5776 L4.47003932,8.1216 C5.27685452,5.78194286 7.53310616,4.04571429 10.1913499,4.04571429 Z" id="Path" fill="#EA4335"></path>
                    </g>
                </g>
            </g>
        </g>
    </g>
</svg>