<?xml version="1.0" encoding="UTF-8"?>
<svg width="132px" height="50px" viewBox="0 0 132 50" version="1.1" xmlns="http://www.w3.org/2000/svg" xmlns:xlink="http://www.w3.org/1999/xlink">
    <title>Pay Pal</title>
    <g id="Checkout-V2" stroke="none" stroke-width="1" fill="none" fill-rule="evenodd">
        <g id="Desktop-Checkout-V2" transform="translate(-165.000000, -745.000000)">
            <g id="Payment" transform="translate(165.000000, 707.000000)">
                <g id="Pay-Pal" transform="translate(0.000000, 38.000000)">
                    <path d="M0,4.00718972 C0,1.79407995 1.79088671,0 4.00449748,0 L127.995503,0 C130.207125,0 132,1.79426827 132,4.00718972 L132,45.9928103 C132,48.2059201 130.209113,50 127.995503,50 L4.00449748,50 C1.79287459,50 0,48.2057317 0,45.9928103 L0,4.00718972 Z" id="Rectangle-Copy-4" fill="#FFC339"></path>
                    <g id="paypal-seeklogo.com" transform="translate(17.000000, 13.000000)">
                        <path d="M9.11860891,5.53846154 L15.5660433,5.53846154 C19.0277531,5.53846154 20.3308871,7.38953752 20.1295088,10.1090195 C19.7966521,14.5987138 17.2269983,17.0826363 13.8185456,17.0826363 L12.0976764,17.0826363 C11.6300128,17.0826363 11.3154632,17.409607 11.1889776,18.295592 L10.4583572,23.4462593 C10.4100929,23.7802616 10.2436646,23.9736314 9.99402205,24 L5.94315592,24 C5.56203499,24 5.42722802,23.6923663 5.52708503,23.0261196 L7.9968818,6.51409988 C8.09341025,5.85312688 8.43625266,5.53846154 9.11860891,5.53846154 Z" id="Path" fill="#009EE3"></path>
                        <path d="M38.139268,5.53846154 C40.3936595,5.53846154 42.4738401,6.76519724 42.1892383,9.82252022 C41.8442664,13.456011 39.9037993,15.4665426 36.8421735,15.4751938 L34.1669163,15.4751938 C33.7822726,15.4751938 33.5959878,15.7900963 33.4959459,16.4354735 L32.9784881,19.7350292 C32.9008694,20.2333365 32.6455902,20.4790297 32.2695708,20.4790297 L29.7805984,20.4790297 C29.3838807,20.4790297 29.2458919,20.2246853 29.3338597,19.6554384 L31.3881675,6.43126214 C31.4899342,5.78069426 31.7331394,5.53846154 32.1764283,5.53846154 L38.1340934,5.53846154 L38.139268,5.53846154 Z M34.0858479,12.6185779 L36.1125579,12.6185779 C37.3803297,12.5701314 38.2220612,11.6894424 38.3065793,10.1010878 C38.3583251,9.12004533 37.6977039,8.41757044 36.6472644,8.42273256 L34.7395697,8.43141231 L34.0858479,12.6185779 L34.0858479,12.6185779 Z M48.9558625,19.4668429 C49.1835439,19.2592149 49.4146751,19.1519404 49.3819028,19.408015 L49.3008344,20.0205177 C49.2594378,20.340611 49.3853525,20.5101739 49.6820284,20.5101739 L51.8932984,20.5101739 C52.265868,20.5101739 52.4469783,20.3596435 52.5383959,19.7817455 L53.9010349,11.2032467 C53.9700293,10.7724185 53.8648129,10.56133 53.5388144,10.56133 L51.1067624,10.56133 C50.8877052,10.56133 50.7807639,10.6841766 50.7238436,11.0198419 L50.6341509,11.5475632 C50.5875797,11.8226704 50.4616649,11.8711169 50.3443744,11.5942795 C49.932133,10.6149673 48.8799687,10.1754879 47.4121131,10.2100926 C44.0020657,10.2810322 41.7028279,12.878113 41.456173,16.2070826 C41.2664384,18.7816704 43.1051387,20.8043136 45.5302913,20.8043136 C47.2896481,20.8043136 48.0761841,20.2852435 48.9627619,19.4720336 L48.9627619,19.4720336 L48.9558625,19.4668429 Z M47.1033633,18.1466746 C45.6355078,18.1466746 44.612666,16.9718459 44.8248237,15.5322915 C45.0369815,14.092737 46.4099697,12.9179083 47.8778252,12.9179083 C49.3456807,12.9179083 50.3685225,14.092737 50.1563648,15.5322915 C49.944207,16.9718459 48.5729436,18.1466746 47.1033633,18.1466746 L47.1033633,18.1466746 Z M58.2287077,10.5336463 L55.9863902,10.5336463 C55.5241278,10.5336463 55.3361181,10.879693 55.4827312,11.3053305 L58.2666546,19.482415 L55.5362018,23.3737107 C55.3067955,23.6989946 55.484456,23.9948646 55.8070048,23.9948646 L58.3270246,23.9948646 C58.6269671,24.0296519 58.919549,23.8856102 59.0756137,23.6263248 L67.6378167,11.3070607 C67.9017203,10.9281396 67.7775304,10.5301858 67.3445906,10.5301858 L64.9591098,10.5301858 C64.5503181,10.5301858 64.3864564,10.6928278 64.1518755,11.0336838 L60.5814161,16.224385 L58.985921,11.0215722 C58.8927786,10.7066696 58.6599226,10.5336463 58.2304325,10.5336463 L58.2287077,10.5336463 Z" id="Shape" fill="#113984"></path>
                        <path d="M76.4782797,5.54180867 C78.7003576,5.54180867 80.7507218,6.72836784 80.4701994,9.68556112 C80.1301721,13.2000523 78.217519,15.1447374 75.1997773,15.1531053 L72.5645662,15.1531053 C72.1854359,15.1531053 72.0018211,15.4576945 71.9032132,16.0819351 L71.3931724,19.2734278 C71.3166663,19.7554151 71.0650461,19.9930617 70.6944164,19.9930617 L68.24112,19.9930617 C67.8500886,19.9930617 67.7140777,19.7470473 67.8007847,19.1964437 L69.8290471,6.40202223 C69.9293552,5.77276095 70.1690744,5.53846154 70.6060094,5.53846154 L76.4782797,5.53846154 L76.4782797,5.54180867 Z M72.4829597,12.3900458 L74.4806197,12.3900458 C75.7302197,12.3431859 76.5598862,11.4913402 76.6431929,9.95500545 C76.694197,9.00609283 76.0430448,8.32662454 75.0076619,8.3316176 L73.1273113,8.34001307 L72.4829597,12.3900458 L72.4829597,12.3900458 L72.4829597,12.3900458 Z M87.1398335,19.0140248 C87.3642515,18.8131968 87.5920698,18.7094356 87.5597672,18.9571236 L87.4798608,19.5495664 C87.4390575,19.8591763 87.5631674,20.0231859 87.8555909,20.0231859 L90.0351654,20.0231859 C90.4023948,20.0231859 90.5809091,19.8775855 90.6710163,19.3186141 L92.0141239,11.0210678 C92.0821294,10.6043495 91.978421,10.4001743 91.6570953,10.4001743 L89.2633036,10.4001743 C89.0473863,10.4001743 88.9419779,10.5189976 88.8858734,10.8436696 L88.7974663,11.3541076 C88.7515626,11.6202048 88.6274527,11.6670647 88.5118434,11.399294 C88.1055109,10.4520549 87.0684278,10.0269688 85.6216119,10.0604402 C82.2604427,10.1290564 79.9941612,12.6410808 79.7510418,15.8610242 C79.5640268,18.3512922 81.3763719,20.3076923 83.7667634,20.3076923 C85.5009023,20.3076923 86.2761644,19.8056221 87.1500343,19.0190455 L87.1500343,19.0190455 L87.1398335,19.0140248 Z M85.3155874,17.737093 C83.8687716,17.737093 82.8605908,16.6007409 83.0697076,15.208333 C83.2788243,13.815925 84.6321327,12.6795729 86.0789486,12.6795729 C87.5257644,12.6795729 88.5339452,13.815925 88.3248284,15.208333 C88.1157117,16.6007409 86.7624033,17.737093 85.3155874,17.737093 L85.3155874,17.737093 Z M95.3684926,20.0365744 L92.852291,20.0365744 C92.7636777,20.0404763 92.6779171,20.0052545 92.6183971,19.9405144 C92.5588772,19.8757743 92.5318061,19.7882685 92.5445664,19.701861 L94.7547434,5.9183613 C94.7981914,5.72467043 94.9714852,5.58598293 95.1729769,5.58364785 L97.6891784,5.58364785 C97.7777917,5.57974597 97.8635524,5.61496779 97.9230723,5.67970787 C97.9825922,5.74444795 98.0096634,5.83195376 97.9969031,5.9183613 L95.7867261,19.701861 C95.7446491,19.8968802 95.5710085,20.0372349 95.3684926,20.0399216 L95.3684926,20.0365744 Z" id="Shape" fill="#009EE3"></path>
                        <path d="M4.41187832,0 L11.1909626,0 C13.0998744,0 15.3653961,0.0609779192 16.8792401,1.39378101 C17.8913829,2.28405863 18.4228015,3.70048858 18.3004354,5.22667879 C17.8843905,10.3854107 14.7885271,13.2757641 10.6350707,13.2757641 L7.29272692,13.2757641 C6.72285031,13.2757641 6.34701145,13.652085 6.18618738,14.6695451 L5.25270853,20.5931144 C5.19152546,20.9764042 5.02545712,21.2028936 4.72828221,21.2307692 L0.545108247,21.2307692 C0.0818649968,21.2307692 -0.0824552506,20.882324 0.0381628034,20.11226 L3.04487371,1.12547817 C3.16549177,0.362383063 3.58678091,0 4.41187832,0 Z" id="Path" fill="#113984"></path>
                        <path d="M6.41121495,13.8461538 L7.59801251,6.4922251 C7.70144095,5.84723391 8.06256398,5.53846154 8.78130401,5.53846154 L15.5725207,5.53846154 C16.6962094,5.53846154 17.6060291,5.71000175 18.317757,6.02735113 C17.6358305,10.549151 14.6469238,13.0604997 10.7341732,13.0604997 L7.38764957,13.0604997 C6.93887531,13.0622151 6.60930672,13.2817866 6.41121495,13.8461538 Z" id="Path" fill="#172C70"></path>
                    </g>
                </g>
            </g>
        </g>
    </g>
</svg>