<?xml version="1.0" encoding="UTF-8"?>
<svg width="760px" height="760px" viewBox="0 0 760 760" version="1.1" xmlns="http://www.w3.org/2000/svg" xmlns:xlink="http://www.w3.org/1999/xlink">
    <title>Group 11</title>
    <defs>
        <path d="M144.095338,615.738243 C223.676995,695.319901 352.704356,695.319901 432.286014,615.738243 L689.122903,358.901354 L689.122903,358.901354 C728.175332,319.848925 728.175332,256.532427 689.122903,217.479998 L542.353583,70.7106781 C503.301154,31.6582489 439.984656,31.6582489 400.932227,70.7106781 L144.095338,327.547567 L144.095338,327.547567 C64.5136802,407.129225 64.5136802,536.156585 144.095338,615.738243 Z" id="path-1"></path>
        <path d="M16.2144208,20.2912554 L18.646584,20.2912554 L18.646584,11.363103 C18.646584,8.67353082 20.824417,6.49320174 23.5109102,6.49320174 C26.1974034,6.49320174 28.3752365,8.67353082 28.3752365,11.363103 L28.3752365,25.1611567 C28.3752365,27.850729 26.1974034,30.031058 23.5109102,30.031058 C23.2346877,30.031058 22.9638425,30.0080082 22.7001892,29.9637248 C22.4365358,30.0080082 22.1656907,30.031058 21.8894681,30.031058 L16.2144208,30.031058 L16.2144208,43.0174615 L0,43.0174615 L0,8.11650217 C0,3.6338818 3.62972174,0 8.10721042,0 C12.5846991,0 16.2144208,3.6338818 16.2144208,8.11650217 L16.2144208,20.2912554 Z" id="path-3"></path>
        <path d="M0,139.785682 C9.8092628,134.693318 13.7740818,126.843592 11.8944571,116.236505 C9.07501999,100.325874 0.228154548,84.0206714 17.0701084,70.9665484 C33.9120623,57.9124254 43.8844902,37.4306226 26.3124418,24.3861836 C8.74039332,11.3417447 26.5115585,-12.6830434 57.1561711,8.21794119 C87.8007838,29.1189258 62.0704818,40.9265709 74.9356328,60.0000336 C87.8007838,79.0734963 92.8893216,106.923491 77.2835505,130.768432 C66.8797031,146.66506 41.1185196,149.67081 0,139.785682 Z" id="path-5"></path>
        <path d="M55.9247735,43.3399362 C42.3181297,39.7494713 34.1763161,30.9800076 31.4993328,17.031545 C28.3439538,0.590393944 11.0075936,0.169915437 5.29145287,0.169915437 C-8.42796005,0.169915437 10.2706418,16.4189006 10.2706418,31.4372596 C10.2706418,46.4556185 0.513017662,49.6470509 23.8648935,67.9797806 C39.4328107,80.2016004 50.1194374,71.9883189 55.9247735,43.3399362 Z" id="path-7"></path>
    </defs>
    <g id="Checkout-V2" stroke="none" stroke-width="1" fill="none" fill-rule="evenodd">
        <g id="Restaurant-Home-Error-404" transform="translate(-535.000000, -54.000000)">
            <g id="Group-11" transform="translate(535.000000, 54.000000)">
                <mask id="mask-2" fill="white">
                    <use xlink:href="#path-1"></use>
                </mask>
                <use id="Mask" fill="#FDEBF2" xlink:href="#path-1"></use>
                <line x1="120.5" y1="121" x2="120.5" y2="686" id="Path-5" stroke="#F390B1" stroke-width="2" mask="url(#mask-2)"></line>
                <line x1="181.5" y1="121" x2="181.5" y2="686" id="Path-5-Copy" stroke="#F390B1" stroke-width="2" mask="url(#mask-2)"></line>
                <line x1="549.5" y1="121" x2="549.5" y2="686" id="Path-5-Copy-7" stroke="#F390B1" stroke-width="2" mask="url(#mask-2)"></line>
                <line x1="242.5" y1="121" x2="242.5" y2="686" id="Path-5-Copy-2" stroke="#F390B1" stroke-width="2" mask="url(#mask-2)"></line>
                <path d="M505.898519,553.718025 C493.730864,542.199877 491.751646,531.884708 499.960864,522.772516 C512.274692,509.10423 515.841735,497.579075 503.561942,488.020193 C491.282149,478.46131 494.487808,461.228888 512.505887,454.751607 C530.523966,448.274326 520.169312,425.292073 538.07129,422.149444 C555.973267,419.006816 533.743713,466.2327 546.91494,488.020193 C560.086167,509.807686 564.04984,549.154074 544.613706,553.718025 C531.656283,556.760658 518.751221,556.760658 505.898519,553.718025 Z" id="Path-16" stroke="#E91E63" stroke-width="2" mask="url(#mask-2)"></path>
                <line x1="304.5" y1="121" x2="304.5" y2="686" id="Path-5-Copy-3" stroke="#F390B1" stroke-width="2" mask="url(#mask-2)"></line>
                <line x1="365.5" y1="121" x2="365.5" y2="686" id="Path-5-Copy-4" stroke="#F390B1" stroke-width="2" mask="url(#mask-2)"></line>
                <line x1="426.5" y1="121" x2="426.5" y2="686" id="Path-5-Copy-5" stroke="#F390B1" stroke-width="2" mask="url(#mask-2)"></line>
                <line x1="489.5" y1="121" x2="489.5" y2="686" id="Path-5-Copy-6" stroke="#F390B1" stroke-width="2" mask="url(#mask-2)"></line>
                <g mask="url(#mask-2)">
                    <g transform="translate(28.000000, 197.000000)">
                        <g id="Group-22" transform="translate(349.156527, 120.159295)">
                            <g id="Group-8-Copy" transform="translate(148.939704, 0.000000)">
                                <g id="Combined-Shape" transform="translate(12.160816, 0.000000)">
                                    <mask id="mask-4" fill="white">
                                        <use xlink:href="#path-3"></use>
                                    </mask>
                                    <use id="Mask" fill="#EF6A97" fill-rule="nonzero" xlink:href="#path-3"></use>
                                    <path d="M0.810721042,-2.43495065 L0.810721042,48.5240499 L0,48.5240499 L0,-2.43495065 L0.810721042,-2.43495065 Z M3.24288417,-2.43495065 L3.24288417,48.5240499 L2.43216313,48.5240499 L2.43216313,-2.43495065 L3.24288417,-2.43495065 Z M5.67504729,-2.43495065 L5.67504729,48.5240499 L4.86432625,48.5240499 L4.86432625,-2.43495065 L5.67504729,-2.43495065 Z M8.10721042,-2.43495065 L8.10721042,48.5240499 L7.29648938,48.5240499 L7.29648938,-2.43495065 L8.10721042,-2.43495065 Z M10.5393735,-2.43495065 L10.5393735,48.5240499 L9.7286525,48.5240499 L9.7286525,-2.43495065 L10.5393735,-2.43495065 Z M12.9715367,-2.43495065 L12.9715367,48.5240499 L12.1608156,48.5240499 L12.1608156,-2.43495065 L12.9715367,-2.43495065 Z M15.4036998,-2.43495065 L15.4036998,48.5240499 L14.5929788,48.5240499 L14.5929788,-2.43495065 L15.4036998,-2.43495065 Z M17.8358629,-2.43495065 L17.8358629,48.5240499 L17.0251419,48.5240499 L17.0251419,-2.43495065 L17.8358629,-2.43495065 Z M20.268026,-2.43495065 L20.268026,48.5240499 L19.457305,48.5240499 L19.457305,-2.43495065 L20.268026,-2.43495065 Z M22.7001892,-2.43495065 L22.7001892,48.5240499 L21.8894681,48.5240499 L21.8894681,-2.43495065 L22.7001892,-2.43495065 Z M25.1323523,-2.43495065 L25.1323523,48.5240499 L24.3216313,48.5240499 L24.3216313,-2.43495065 L25.1323523,-2.43495065 Z M27.5645154,-2.43495065 L27.5645154,48.5240499 L26.7537944,48.5240499 L26.7537944,-2.43495065 L27.5645154,-2.43495065 Z" fill="#E91E63" fill-rule="nonzero" mask="url(#mask-4)"></path>
                                </g>
                                <g id="Group-4" transform="translate(0.000000, 36.524260)" fill-rule="nonzero">
                                    <polygon id="Rectangle-7" fill="#EF6A97" points="0.810721042 0.811650217 41.3467731 0.811650217 32.3387616 26.7844572 9.81873262 26.7844572"></polygon>
                                    <rect id="Rectangle-8" fill="#E91E63" x="0" y="0" width="41.3467731" height="8.11650217"></rect>
                                </g>
                            </g>
                            <g id="Group-10" transform="translate(82.577199, 33.585300) rotate(-90.000000) translate(-82.577199, -33.585300) translate(52.077199, 25.585300)">
                                <polygon id="Rectangle-11" stroke="#E91E63" stroke-width="1.536" stroke-linecap="round" stroke-linejoin="round" points="0 2.43495065 58.371915 2.43495065 58.371915 12.6501439 0 12.6501439"></polygon>
                                <path d="M1.536,0 L60.0360781,0 C60.4602328,3.68933445e-15 60.8040781,0.343845312 60.8040781,0.768 L60.8040781,2.47860087 C60.8040781,2.90275556 60.4602328,3.24660087 60.0360781,3.24660087 L0,3.24660087 L0,3.24660087 L0,1.536 C-3.25932541e-16,0.687690624 0.687690624,3.77876509e-16 1.536,0 Z" id="Rectangle-11-Copy" fill="#E91E63" fill-rule="nonzero"></path>
                                <path d="M0,12.1747533 L60.0360781,12.1747533 C60.4602328,12.1747533 60.8040781,12.5185986 60.8040781,12.9427533 L60.8040781,14.6533541 C60.8040781,15.0775088 60.4602328,15.4213541 60.0360781,15.4213541 L1.536,15.4213541 C0.687690624,15.4213541 -2.11655811e-15,14.7336635 0,13.8853541 L0,12.1747533 L0,12.1747533 Z" id="Rectangle-11-Copy-3" fill="#E91E63" fill-rule="nonzero"></path>
                            </g>
                            <g id="Group-10-Copy" transform="translate(113.884384, 37.590433) rotate(-90.000000) translate(-113.884384, -37.590433) translate(87.384384, 29.090433)">
                                <polygon id="Rectangle-11" stroke="#E91E63" stroke-width="1.536" stroke-linecap="round" stroke-linejoin="round" points="0 2.56310595 49.6393002 2.56310595 49.6393002 16.6186547 0 16.6186547"></polygon>
                                <path d="M1.536,0 L51.9288677,0 C52.3530224,-7.79159521e-17 52.6968677,0.343845312 52.6968677,0.768 L52.6968677,2.6494746 C52.6968677,3.07362929 52.3530224,3.4174746 51.9288677,3.4174746 L0,3.4174746 L0,3.4174746 L0,1.536 C-5.47977146e-16,0.687690624 0.687690624,1.55831904e-16 1.536,0 Z" id="Rectangle-11-Copy" fill="#E91E63" fill-rule="nonzero"></path>
                                <path d="M0,12.8155297 L51.9288677,12.8155297 C52.3530224,12.8155297 52.6968677,13.1593751 52.6968677,13.5835297 L52.6968677,15.4650043 C52.6968677,15.889159 52.3530224,16.2330043 51.9288677,16.2330043 L1.536,16.2330043 C0.687690624,16.2330043 -2.11655811e-15,15.5453137 0,14.6970043 L0,12.8155297 L0,12.8155297 Z" id="Rectangle-11-Copy-3" fill="#E91E63" fill-rule="nonzero"></path>
                            </g>
                            <g id="Group-10-Copy-2" transform="translate(97.980899, 33.585300) rotate(-90.000000) translate(-97.980899, -33.585300) translate(67.480899, 25.585300)">
                                <rect id="Rectangle-11" stroke="#E91E63" stroke-width="1.536" stroke-linecap="round" stroke-linejoin="round" x="0" y="2.43495065" width="58.2329433" height="10.5514528"></rect>
                                <path d="M1.536,0 L60.0360781,0 C60.4602328,3.68933445e-15 60.8040781,0.343845312 60.8040781,0.768 L60.8040781,2.47860087 C60.8040781,2.90275556 60.4602328,3.24660087 60.0360781,3.24660087 L0,3.24660087 L0,3.24660087 L0,1.536 C-1.03887936e-16,0.687690624 0.687690624,-6.62127007e-17 1.536,0 Z" id="Rectangle-11-Copy" fill="#EF6A97" fill-rule="nonzero"></path>
                                <path d="M0,12.1747533 L60.0360781,12.1747533 C60.4602328,12.1747533 60.8040781,12.5185986 60.8040781,12.9427533 L60.8040781,14.6533541 C60.8040781,15.0775088 60.4602328,15.4213541 60.0360781,15.4213541 L1.536,15.4213541 C0.687690624,15.4213541 -1.89451351e-15,14.7336635 0,13.8853541 L0,12.1747533 L0,12.1747533 Z" id="Rectangle-11-Copy-3" fill="#EF6A97" fill-rule="nonzero"></path>
                            </g>
                            <g id="Group-10-Copy-3" transform="translate(128.788298, 33.585300) rotate(-90.000000) translate(-128.788298, -33.585300) translate(98.288298, 25.585300)">
                                <rect id="Rectangle-11" stroke="#E91E63" stroke-width="1.536" stroke-linecap="round" stroke-linejoin="round" x="0" y="2.43495065" width="58.2329433" height="10.5514528"></rect>
                                <path d="M1.536,0 L60.0360781,0 C60.4602328,-3.73414405e-15 60.8040781,0.343845312 60.8040781,0.768 L60.8040781,2.47860087 C60.8040781,2.90275556 60.4602328,3.24660087 60.0360781,3.24660087 L0,3.24660087 L0,3.24660087 L0,1.536 C-1.03887936e-16,0.687690624 0.687690624,1.55831904e-16 1.536,0 Z" id="Rectangle-11-Copy" fill="#EF6A97" fill-rule="nonzero"></path>
                                <path d="M0,12.1747533 L60.0360781,12.1747533 C60.4602328,12.1747533 60.8040781,12.5185986 60.8040781,12.9427533 L60.8040781,14.6533541 C60.8040781,15.0775088 60.4602328,15.4213541 60.0360781,15.4213541 L1.536,15.4213541 C0.687690624,15.4213541 -2.11655811e-15,14.7336635 0,13.8853541 L0,12.1747533 L0,12.1747533 Z" id="Rectangle-11-Copy-3" fill="#EF6A97" fill-rule="nonzero"></path>
                            </g>
                            <g id="Group-21" transform="translate(31.723829, 25.161157)">
                                <ellipse id="Oval-4" stroke="#E91E63" stroke-width="1.536" stroke-linecap="round" stroke-linejoin="round" cx="14.5929788" cy="14.6097039" rx="14.5929788" ry="14.6097039"></ellipse>
                                <path d="M17.8358629,27.5961074 L8.10721042,27.5961074 L8.10721042,22.7262061 L7.29648938,22.7262061 L9.7286525,17.8563048 L16.2144208,17.8563048 L17.8974894,21.2270043 L18.4434894,20.2910043 L17.8358629,20.2912554 L19.8626655,16.2330043 L21.8894681,20.2912554 L21.2804894,20.2910043 L22.7001892,22.7262061 L21.6864894,22.7260043 L23.5109102,25.1611567 L20.2674894,25.1610043 L20.268026,27.5961074 L19.457305,27.5961074 L19.4564894,25.1610043 L17.8354894,25.1610043 L17.8358629,27.5961074 Z" id="Combined-Shape" fill="#E91E63" fill-rule="nonzero"></path>
                                <path d="M12.1747533,26.7844572 L17.8219253,26.7844572 C24.5458558,26.7844572 29.9966785,32.2352799 29.9966785,38.9592104 L29.9966785,38.9592104 L29.9966785,38.9592104 L0,38.9592104 C-8.23444004e-16,32.2352799 5.4508227,26.7844572 12.1747533,26.7844572 Z" id="Rectangle-15" fill="#EF6A97" fill-rule="nonzero"></path>
                            </g>
                            <rect id="Rectangle-14-Copy" fill="#E91E63" fill-rule="nonzero" x="0" y="63.3087169" width="205.112424" height="11.363103"></rect>
                        </g>
                        <g id="Path-9-+-Path-11-+-Path-12-+-Path-13-+-Path-14-Mask" transform="translate(417.254431, 259.519303)">
                            <mask id="mask-6" fill="white">
                                <use xlink:href="#path-5"></use>
                            </mask>
                            <use id="Mask" fill="#EF6A97" xlink:href="#path-5"></use>
                            <path d="M25.3437188,135.977304 C65.9597444,59.3910281 63.9894525,14.5077791 19.4328432,1.32755703" id="Path-9" stroke="#FFFFFF" mask="url(#mask-6)"></path>
                            <line x1="60.7884755" y1="1.48392531" x2="49.4727485" y2="24.1355362" id="Path-11" stroke="#FFFFFF" mask="url(#mask-6)"></line>
                            <line x1="54.5675799" y1="45.7976691" x2="17.4907349" y2="49.5825504" id="Path-12" stroke="#FFFFFF" mask="url(#mask-6)"></line>
                            <line x1="47.2513661" y1="86.6200425" x2="96.4228311" y2="72.5302356" id="Path-13" stroke="#FFFFFF" mask="url(#mask-6)"></line>
                            <line x1="42.4652734" y1="100.335591" x2="-0.5416633" y2="80.4358054" id="Path-14" stroke="#FFFFFF" mask="url(#mask-6)"></line>
                        </g>
                        <g id="Group-9" transform="translate(504.543563, 0.000000)">
                            <ellipse id="Oval-5" stroke="#FFB6CE" stroke-width="7.04" fill="#FDEBF2" cx="41.79721" cy="41.7181062" rx="41.599119" ry="41.6654345"></ellipse>
                            <polyline id="Path-129" stroke="#E91E63" stroke-width="2" stroke-linecap="round" stroke-linejoin="round" transform="translate(43.487931, 55.677569) rotate(-150.000000) translate(-43.487931, -55.677569) " points="61.9665839 44.2271299 51.5595156 67.1280086 25.0092777 54.2274767"></polyline>
                            <ellipse id="Oval-6" fill="#EF6A97" cx="41.7873503" cy="41.8080023" rx="4.64303892" ry="4.64533359"></ellipse>
                        </g>
                        <g id="Group-10" transform="translate(0.000000, 180.238943)">
                            <polygon id="Rectangle-10" fill="#E91E63" points="0 126.353074 138.672096 126.353074 138.672096 234.744191 0 234.744191"></polygon>
                            <path d="M15.2860778,146.792541 L112.242725,146.792541 C115.556433,146.792541 118.242725,149.478833 118.242725,152.792541 L118.242725,192.2009 C118.242725,195.514608 115.556433,198.2009 112.242725,198.2009 L15.2860778,198.2009 C11.9723693,198.2009 9.28607784,195.514608 9.28607784,192.2009 L9.28607784,152.792541 C9.28607784,149.478833 11.9723693,146.792541 15.2860778,146.792541 Z" id="Rectangle-10" stroke="#F7A2BE" stroke-width="4" fill="#FDEBF2"></path>
                            <path d="M126.620216,85.7353824 L131.003261,112.485173 C131.311992,114.369362 130.827777,116.200314 129.795332,117.6374 C128.762886,119.074487 127.182211,120.117709 125.298021,120.42644 C124.928429,120.486999 124.554528,120.517429 124.180007,120.517429 C122.270692,120.517429 120.542131,119.743526 119.2909,118.492294 C118.039668,117.241062 117.265765,115.512502 117.265765,113.603186 C117.265765,113.228666 117.296194,112.854765 117.356753,112.485173 L117.356753,112.485173 L121.739799,85.7353824 L126.620216,85.7353824 Z" id="Rectangle-13" stroke="#E91E63" stroke-width="3"></path>
                            <path d="M11.2860778,159.180098 L103.861287,159.180098 C104.965857,159.180098 105.861287,160.075528 105.861287,161.180098 L105.861287,183.813344 C105.861287,184.917913 104.965857,185.813344 103.861287,185.813344 L11.2860778,185.813344 C10.1815083,185.813344 9.28607784,184.917913 9.28607784,183.813344 L9.28607784,161.180098 C9.28607784,160.075528 10.1815083,159.180098 11.2860778,159.180098 Z" id="Rectangle-10" stroke="#E91E63" stroke-width="2" fill="#FDEBF2"></path>
                            <polygon id="Rectangle-10" fill="#EF6A97" points="9.28607784 122.017429 147.958174 122.017429 147.958174 131.308096 9.28607784 131.308096"></polygon>
                            <polygon id="Rectangle-14" fill="#E91E63" points="39.0015269 108.391117 83.5747006 108.391117 83.5747006 122.017429 39.0015269 122.017429"></polygon>
                            <polygon id="Rectangle-12" fill="#EF6A97" points="110.813862 65.6540481 138.053024 65.6540481 150.434461 99.7198277 98.4324251 99.7198277"></polygon>
                            <path d="M192.111174,105.425365 C208.26216,90.332172 311.869765,105.335875 318.878907,118.755775 C324.730325,129.959065 311.39309,194.456761 295.484163,222.269031 C292.336525,227.771787 208.921995,235.841261 203.678365,225.129382 C198.434736,214.417503 175.960187,120.518557 192.111174,105.425365 Z" id="Rectangle" fill="#F7A2BE" fill-rule="nonzero"></path>
                            <g id="Group-4" transform="translate(128.020594, 96.822534)">
                                <g id="Group-2" transform="translate(54.293994, 69.756548) rotate(27.000000) translate(-54.293994, -69.756548) translate(26.293994, 5.756548)" fill-rule="nonzero">
                                    <path d="M28.7492658,20.9319543 C34.3391311,11.6340895 45.1413168,5.32430646 53.0074868,21.1115762 C60.8736568,36.8988459 43.2497764,98.4603197 35.5855682,113.842655 C27.9213601,129.224991 19.5456974,132.276981 11.6770977,116.484835 C3.80849798,100.692689 23.1594005,30.2298192 28.7492658,20.9319543 Z" id="Rectangle-3-Copy-4" fill="#F7A2BE" transform="translate(32.403278, 69.214773) scale(-1, 1) rotate(1.000000) translate(-32.403278, -69.214773) "></path>
                                    <path d="M24.9170226,10.0355459 C30.462513,0.706909052 41.178947,-5.62375737 48.9826744,10.2157599 C56.7864018,26.0552771 51.6411477,55.6112749 44.0377819,71.0445195 C36.4344161,86.4777641 10.2855741,74.9373388 2.47943619,59.092929 C-5.32670167,43.2485192 19.3715323,19.3641828 24.9170226,10.0355459 Z" id="Rectangle-3-Copy-4" fill="#ED457D" transform="translate(26.917845, 39.438487) scale(-1, 1) rotate(1.000000) translate(-26.917845, -39.438487) "></path>
                                </g>
                                <path d="M70.3136108,74.4378279 C58.5378609,82.1311136 48.0027337,81.0870618 38.7082293,71.3056725" id="Path-6" stroke="#FFFFFF" stroke-width="3.84" stroke-linecap="round" stroke-linejoin="round"></path>
                                <path d="M61.9544715,78.1823272 C59.4064409,69.9065232 58.3503569,63.9714734 58.7862197,60.3771779" id="Path-10" stroke="#820D34" stroke-width="3.84" stroke-linecap="round" stroke-linejoin="round"></path>
                            </g>
                            <path d="M309.286591,112.390195 C300.741979,106.160634 288.444951,104.559853 286.859633,121.642606 C285.274314,138.725359 323.873288,187.237355 336.541122,198.137026 L337.296606,198.777396 C349.560815,209.013763 358.109963,208.288378 359.664055,191.542108 C361.249863,174.454079 317.831204,118.619756 309.286591,112.390195 Z" id="Rectangle-3-Copy-4" fill="#F7A2BE" fill-rule="nonzero"></path>
                            <path d="M338.033424,186.264344 C337.833976,196.840269 343.576625,207.836554 358.472387,199.337548 C373.368148,190.838542 390.947757,131.37915 392.605863,114.745344 C394.26397,98.1115385 388.843884,91.0758438 373.943522,99.5774749 C359.043159,108.079106 338.232873,175.688419 338.033424,186.264344 Z" id="Rectangle-3-Copy-5" fill="#F7A2BE" fill-rule="nonzero"></path>
                            <path d="M192.359169,105.597736 C197.395149,100.891582 210.933941,99.1115456 227.395951,99.2972308 C237.185468,99.4076529 216.354341,163.929506 250.65253,167.536172 C294.075047,172.102319 274.673942,103.742987 282.048131,105.190665 L283.785054,105.537393 C302.191682,109.273447 316.656964,114.199133 319.126902,118.928146 C324.883545,129.949977 312.068096,192.553782 296.503092,221.061491 C293.116543,227.264042 197.68861,232.140948 197.802461,224.399888 C197.876472,219.367656 197.670503,214.247506 196.921294,209.450709 C193.83896,189.716124 176.208183,120.690928 192.359169,105.597736 Z" id="Rectangle-Copy" fill="#ED457D" fill-rule="nonzero"></path>
                            <path d="M307.46371,190.434781 C310.273295,179.604477 310.973862,168.77302 309.565409,157.94041" id="Path-10-Copy" stroke="#820D34" stroke-width="3.84" stroke-linecap="round" stroke-linejoin="round"></path>
                            <path d="M227.076042,128.687628 C229.063908,152.964912 236.816915,165.814312 250.335063,167.235829 C270.612284,169.368104 280.80688,148.251117 281.554626,129.483855" id="Path-79" stroke="#FFFFFF" stroke-width="5.376" stroke-linecap="round" stroke-linejoin="round"></path>
                            <g id="Group" transform="translate(276.038769, 85.740536) rotate(13.000000) translate(-276.038769, -85.740536) translate(202.538769, 14.740536)">
                                <g id="Group-5-Copy">
                                    <path d="M61.9648572,141.662477 C82.1464948,141.662477 97.2512823,105.716053 97.2512823,85.8924075 C97.2512823,66.0687616 80.8908324,49.9985214 60.7091948,49.9985214 C40.5275571,49.9985214 24.1671072,66.0687616 24.1671072,85.8924075 C24.1671072,105.716053 41.7832195,141.662477 61.9648572,141.662477 Z" id="Oval-2" fill="#F7A2BE" fill-rule="nonzero"></path>
                                    <g id="Group-7" transform="translate(60.670536, 125.858260) rotate(156.000000) translate(-60.670536, -125.858260) translate(50.670536, 115.358260)">
                                        <ellipse id="Oval-3" fill="#E91E63" transform="translate(10.005873, 10.016887) rotate(36.000000) translate(-10.005873, -10.016887) " cx="10.0058727" cy="10.0168874" rx="5.5529826" ry="8.33990763"></ellipse>
                                        <path d="M6.1931512,17.1179175 C7.76805918,17.1182875 9.18960493,16.1339434 10.1998306,14.5523826 C11.1568244,13.0541592 1.22906922,13.057009 2.18892765,14.5562242 C3.19966709,16.1349111 4.62014378,17.1175478 6.1931512,17.1179175 Z" id="Oval-3" fill="#FFFFFF" transform="translate(6.194190, 15.274090) rotate(36.000000) translate(-6.194190, -15.274090) "></path>
                                    </g>
                                    <path d="M30.0399759,109.327178 C34.2064835,109.327178 31.5254255,104.455955 31.4392628,98.9401834 L31.4371584,98.6728059 C31.4371584,93.0480603 28.0050588,88.4883031 23.7713494,88.4883031 C19.5376401,88.4883031 16.1055405,93.0480603 16.1055405,98.6728059 C16.1055405,104.297551 25.8062666,109.327178 30.0399759,109.327178 Z" id="Oval" fill="#F7A2BE" fill-rule="nonzero"></path>
                                    <path d="M33.671901,102.764832 C36.3574491,91.4511761 34.6704368,83.9507225 34.6704368,76.3918832 C41.0514958,82.1044671 57.2322993,80.2945127 61.8624798,78.4356893 C72.2646625,74.2596489 83.71978,70.4397606 89.0970564,64.7409368 C90.5019681,74.4581194 92.685989,76.3918832 96.7190903,83.9039745 C96.7190903,88.4737089 95.8308993,95.7814337 94.9467915,98.3447436 C101.166335,96.6941125 111.357693,86.1881306 108.492383,71.7845221 C116.806303,74.377549 136.137709,64.7409368 129.893642,48.9400996 C161.346748,26.8030268 144.285897,6.16818298 116.806303,17.1225374 C110.967581,6.33530114 88.9317627,-11.6714873 74.5895294,18.3480418 C61.6776808,-2.02894924 32.1107417,-0.475182854 23.3491599,46.2253273 C11.5173622,44.0473995 8.54033266,47.6988925 5.463508,59.7296883 C2.38668335,71.7604842 15.1950514,89.725742 17.3019104,92.7896916 C19.0709368,91.6199932 22.118575,87.2964277 25.7033595,89.54254 C28.7495335,91.4511761 29.9057611,105.048867 33.671901,102.764832 Z" id="Path-2" fill="#212121"></path>
                                    <path d="M75.1008148,21.0368419 C72.58384,23.6768712 71.3253526,28.9946446 71.3253526,36.9901621" id="Path-74" stroke="#000000" stroke-width="5.376" stroke-linecap="round" stroke-linejoin="round"></path>
                                    <path d="M33.8034766,75.0893285 C31.0360965,73.7929477 29.3227574,72.1374402 28.6634595,70.1228062" id="Path-75" stroke="#000000" stroke-width="5.376" stroke-linecap="round" stroke-linejoin="round"></path>
                                    <path d="M37.6387686,88.8714877 L44.938495,83.3680307 C45.8148809,82.7073002 47.0433555,82.8423351 47.7576678,83.6516017 L47.8614466,83.7788247 L47.8614466,83.7788247 C48.5552023,84.6999246 48.3712278,86.0089717 47.4504574,86.7031648 L40.150731,92.2066218 C39.2743451,92.8673523 38.0458706,92.7323173 37.3315582,91.9230508 L37.2277795,91.7958278 L37.2277795,91.7958278 C36.5340237,90.8747278 36.7179983,89.5656808 37.6387686,88.8714877 Z" id="Rectangle-4" fill="#212121"></path>
                                    <path d="M80.0842125,80.6704388 L87.383939,86.1738958 C88.3047093,86.8680889 88.4886839,88.177136 87.7949281,89.0982359 C87.134614,89.9749355 85.9165077,90.183745 85.0068026,89.6027192 L84.8719766,89.5090299 L84.8719766,89.5090299 L77.5722502,84.005573 C76.6514798,83.3113798 76.4675053,82.0023328 77.161261,81.0812328 C77.8215752,80.2045333 79.0396814,79.9957237 79.9493865,80.5767495 L80.0842125,80.6704388 L80.0842125,80.6704388 Z" id="Rectangle-4" fill="#212121"></path>
                                    <path d="M64.9384209,88.1267628 C63.5514633,96.4788436 64.1062463,101.490092 66.6027702,103.160508 C69.099294,104.830924 71.3184263,105.666132 73.2601671,105.666132 C71.0410348,108.728562 68.8219025,110.677381 66.6027702,111.512589 C63.2740717,112.765401 57.3313563,111.337116 60.302714,108.501624" id="Path-3" stroke="#212121" stroke-width="2" stroke-linecap="round" stroke-linejoin="round"></path>
                                    <path d="M24.0005444,93.4678018 C20.0329883,95.7359872 19.616901,98.3808127 22.7522825,101.402278" id="Path-4" stroke="#212121" stroke-width="2" stroke-linecap="round" stroke-linejoin="round"></path>
                                    <line x1="108.654509" y1="10.6066472" x2="117.392343" y2="1.00175437" id="Path-30" stroke="#000000" stroke-width="5.376" stroke-linecap="round" stroke-linejoin="round"></line>
                                    <line x1="108.654509" y1="13.8604915" x2="118.224517" y2="8.014035" id="Path-30" stroke="#000000" stroke-width="5.376" stroke-linecap="round" stroke-linejoin="round"></line>
                                    <line x1="100.655404" y1="9.70803731" x2="103.517095" y2="-2.88657986e-15" id="Path-30" stroke="#000000" stroke-width="5.376" stroke-linecap="round" stroke-linejoin="round"></line>
                                    <line x1="1.30263495" y1="60.5648964" x2="8.01622871" y2="64.4213702" id="Path-30" stroke="#000000" stroke-width="5.376" stroke-linecap="round" stroke-linejoin="round"></line>
                                    <line x1="0.0757975205" y1="64.4213702" x2="7.12785722" y2="65.5761449" id="Path-30" stroke="#000000" stroke-width="5.376" stroke-linecap="round" stroke-linejoin="round"></line>
                                    <path d="M40.6141846,127.492313 C46.415078,137.077742 53.7419812,141.870456 62.5948942,141.870456 C71.4478072,141.870456 78.7529704,136.666479 84.5103836,126.258524" id="Path-7" stroke="#212121" stroke-width="2" stroke-linecap="round" stroke-linejoin="round"></path>
                                </g>
                                <ellipse id="Oval-11" fill="#212121" fill-rule="nonzero" cx="79.6756446" cy="94.7111699" rx="2.57518356" ry="2.5792888"></ellipse>
                                <ellipse id="Oval-11-Copy" fill="#212121" fill-rule="nonzero" cx="47.7239485" cy="97.2125418" rx="2.57518356" ry="2.5792888"></ellipse>
                            </g>
                            <g id="Group-8" transform="translate(257.002662, 162.296788)">
                                <g id="Group-3" transform="translate(30.902203, 0.000000)">
                                    <rect id="Rectangle-6" fill="#EC961F" x="20.6014685" y="16.6661738" width="5.5465492" height="23.8088197"></rect>
                                    <rect id="Rectangle-5" stroke="#1C2229" stroke-width="1.28" fill="#FEFBF5" x="0" y="0" width="45.9571219" height="18.2534285"></rect>
                                    <path d="M11.6905392,10.7476813 C11.6905392,11.3068419 11.5546789,11.7855851 11.2829543,12.1839251 C11.0112297,12.5822652 10.6098243,12.8841084 10.0787261,13.0894639 C9.54762799,13.2948193 8.90167411,13.3974955 8.14084514,13.3974955 C7.41459929,13.3974955 6.79211219,13.2861599 6.27336516,13.0634853 C5.75461813,12.8408107 5.37173916,12.5624717 5.12471677,12.2284598 C4.87769437,11.894448 4.75418503,11.5592041 4.75418503,11.2227181 C4.75418503,11.0000435 4.83323101,10.8095359 4.99132534,10.6511895 C5.14941967,10.4928432 5.34950481,10.4136712 5.59158676,10.4136712 C5.80402602,10.4136712 5.96705836,10.4656278 6.08068866,10.5695426 C6.19431896,10.6734574 6.30300718,10.8194307 6.40675659,11.007467 C6.6142554,11.3686947 6.86250919,11.6383743 7.15152539,11.8165139 C7.44054159,11.9946536 7.8345364,12.0837221 8.33352164,12.0837221 C8.73863837,12.0837221 9.07087851,11.9934165 9.33025202,11.8128027 C9.58962554,11.6321889 9.71931035,11.4255995 9.71931035,11.1930283 C9.71931035,10.8367489 9.58468516,10.5769658 9.31543075,10.4136712 C9.04617634,10.2503765 8.60277779,10.0945066 7.9852218,9.94605691 C7.28861865,9.77286557 6.72171076,9.5910174 6.28448112,9.40050694 C5.84725148,9.20999647 5.49772003,8.95887281 5.23587629,8.64712841 C4.97403255,8.33538402 4.84311265,7.95189468 4.84311265,7.49664889 C4.84311265,7.09088634 4.9641518,6.70739701 5.20623375,6.34616937 C5.4483157,5.98494174 5.80525771,5.6967062 6.27707048,5.48145412 C6.74888326,5.26620203 7.31826134,5.15857761 7.9852218,5.15857761 C8.50890928,5.15857761 8.97947989,5.21300835 9.39694774,5.32187147 C9.81441558,5.4307346 10.1627119,5.57670796 10.4418472,5.75979594 C10.7209826,5.94288392 10.9334186,6.14576215 11.0791618,6.36843672 C11.2249051,6.59111129 11.2977756,6.80883427 11.2977756,7.02161219 C11.2977756,7.2541834 11.2199647,7.44469101 11.0643406,7.59314072 C10.9087165,7.74159044 10.6876347,7.81581418 10.4010888,7.81581418 C10.1935899,7.81581418 10.0169716,7.75643518 9.87122836,7.63767541 C9.72548515,7.51891564 9.55874753,7.34077866 9.37101051,7.10325912 C9.21785663,6.90532617 9.03753299,6.74698219 8.83003417,6.62822241 C8.62253536,6.50946264 8.34093405,6.45008365 7.9852218,6.45008365 C7.61962866,6.45008365 7.31579567,6.52801858 7.07371372,6.68389078 C6.83163178,6.83976298 6.71059262,7.03398177 6.71059262,7.26655299 C6.71059262,7.47933091 6.79951935,7.65375671 6.97737547,7.78983561 C7.1552316,7.92591451 7.39483972,8.03848719 7.69620705,8.12755702 C7.99757437,8.21662684 8.41256577,8.32548833 8.9411937,8.45414475 C9.56863058,8.60754279 10.0811944,8.79062802 10.4789004,9.00340594 C10.8766065,9.21618386 11.1779693,9.46730753 11.3829979,9.75678447 C11.5880265,10.0462614 11.6905392,10.3765571 11.6905392,10.7476813 Z M21.0709208,9.27803654 C21.0709208,9.88173204 20.9770536,10.4384101 20.7893166,10.9480875 C20.6015796,11.4577648 20.329859,11.8956849 19.9741468,12.2618608 C19.6184346,12.6280368 19.1935624,12.90885 18.6995176,13.1043088 C18.2054728,13.2997675 17.6496808,13.3974955 17.0321248,13.3974955 C16.4195092,13.3974955 15.8686576,13.2985305 15.3795532,13.1005975 C14.8904489,12.9026646 14.4668118,12.6193773 14.1086293,12.2507272 C13.7504469,11.8820771 13.4787263,11.4466311 13.2934595,10.9443762 C13.1081927,10.4421214 13.0155607,9.88668036 13.0155607,9.27803654 C13.0155607,8.66444439 13.1094278,8.10281807 13.2971648,7.59314072 C13.4849019,7.08346338 13.7541522,6.64801742 14.104924,6.28678978 C14.4556958,5.92556215 14.880568,5.64722311 15.3795532,5.45176432 C15.8785385,5.25630554 16.4293901,5.15857761 17.0321248,5.15857761 C17.6447403,5.15857761 18.2005324,5.2575426 18.6995176,5.45547555 C19.1985029,5.6534085 19.6258452,5.93545872 19.9815574,6.30163468 C20.3372697,6.66781064 20.6077551,7.1032566 20.7930219,7.60798562 C20.9782887,8.11271464 21.0709208,8.66939272 21.0709208,9.27803654 Z M19.0404068,9.27803654 C19.0404068,8.45166647 18.8588481,7.80839403 18.4957252,7.34819992 C18.1326022,6.88800581 17.6447403,6.65791221 17.0321248,6.65791221 C16.6368889,6.65791221 16.2885926,6.76058839 15.9872253,6.96594382 C15.6858579,7.17129926 15.4536604,7.47437954 15.2906256,7.87519377 C15.1275908,8.27600799 15.0460747,8.74361757 15.0460747,9.27803654 C15.0460747,9.80750718 15.1263557,10.2701685 15.2869203,10.6660344 C15.4474848,11.0619003 15.6772122,11.3649806 15.9761093,11.5752844 C16.2750064,11.7855881 16.6270081,11.8907384 17.0321248,11.8907384 C17.6447403,11.8907384 18.1326022,11.6594078 18.4957252,11.1967395 C18.8588481,10.7340712 19.0404068,10.09451 19.0404068,9.27803654 Z M24.7673454,10.4730508 L24.7673454,12.165369 C24.7673454,12.5760799 24.6710081,12.8841084 24.4783306,13.0894639 C24.2856532,13.2948193 24.0411047,13.3974955 23.7446778,13.3974955 C23.4531914,13.3974955 23.2135832,13.2935822 23.0258462,13.0857526 C22.8381092,12.877923 22.7442421,12.5711316 22.7442421,12.165369 L22.7442421,6.52430814 C22.7442421,5.61381656 23.0727769,5.15857761 23.7298565,5.15857761 C24.065807,5.15857761 24.3078853,5.26496497 24.4560987,5.47774289 C24.6043122,5.69052082 24.6858283,6.00473466 24.7006497,6.42039386 C24.9427316,6.00473466 25.1909854,5.69052082 25.4454185,5.47774289 C25.6998515,5.26496497 26.0395022,5.15857761 26.4643808,5.15857761 C26.8892593,5.15857761 27.3017805,5.26496497 27.7019568,5.47774289 C28.1021331,5.69052082 28.3022182,5.97257104 28.3022182,6.32390203 C28.3022182,6.57131821 28.2169968,6.77543351 28.0465513,6.93625403 C27.8761058,7.09707455 27.6920769,7.17748361 27.494459,7.17748361 C27.4203523,7.17748361 27.2412637,7.1317123 26.957188,7.04016831 C26.6731122,6.94862432 26.4223883,6.90285301 26.2050085,6.90285301 C25.9085817,6.90285301 25.6665034,6.98078794 25.4787663,7.13666014 C25.2910293,7.29253234 25.1452883,7.523863 25.0415389,7.83065908 C24.9377895,8.13745515 24.8661541,8.50238855 24.8266305,8.92547023 C24.7871069,9.34855191 24.7673454,9.86440693 24.7673454,10.4730508 Z M31.3094538,10.4730508 L31.3094538,12.165369 C31.3094538,12.5760799 31.2131165,12.8841084 31.020439,13.0894639 C30.8277616,13.2948193 30.5832131,13.3974955 30.2867862,13.3974955 C29.9952998,13.3974955 29.7556916,13.2935822 29.5679546,13.0857526 C29.3802176,12.877923 29.2863505,12.5711316 29.2863505,12.165369 L29.2863505,6.52430814 C29.2863505,5.61381656 29.6148854,5.15857761 30.2719649,5.15857761 C30.6079154,5.15857761 30.8499937,5.26496497 30.9982071,5.47774289 C31.1464206,5.69052082 31.2279367,6.00473466 31.2427581,6.42039386 C31.48484,6.00473466 31.7330938,5.69052082 31.9875269,5.47774289 C32.24196,5.26496497 32.5816107,5.15857761 33.0064892,5.15857761 C33.4313677,5.15857761 33.8438889,5.26496497 34.2440652,5.47774289 C34.6442415,5.69052082 34.8443266,5.97257104 34.8443266,6.32390203 C34.8443266,6.57131821 34.7591052,6.77543351 34.5886597,6.93625403 C34.4182143,7.09707455 34.2341853,7.17748361 34.0365674,7.17748361 C33.9624607,7.17748361 33.7833721,7.1317123 33.4992964,7.04016831 C33.2152206,6.94862432 32.9644967,6.90285301 32.747117,6.90285301 C32.4506901,6.90285301 32.2086118,6.98078794 32.0208747,7.13666014 C31.8331377,7.29253234 31.6873967,7.523863 31.5836473,7.83065908 C31.4798979,8.13745515 31.4082625,8.50238855 31.3687389,8.92547023 C31.3292153,9.34855191 31.3094538,9.86440693 31.3094538,10.4730508 Z M37.9108473,13.6498587 L38.0961132,13.1970894 L35.6061399,6.91769791 C35.452986,6.55647027 35.3764102,6.29421305 35.3764102,6.13091836 C35.3764102,5.95772703 35.4208736,5.79690892 35.5098016,5.64845921 C35.5987297,5.5000095 35.7210039,5.38125151 35.876628,5.29218168 C36.0322521,5.20311185 36.1940494,5.15857761 36.3620246,5.15857761 C36.653511,5.15857761 36.8733577,5.25135729 37.0215711,5.43691943 C37.1697846,5.62248157 37.3007045,5.88844998 37.4143348,6.23483264 L39.1261914,11.2227181 L40.7491204,6.58368772 C40.8775721,6.20761512 40.9936709,5.91319427 41.0974203,5.70041635 C41.2011697,5.48763843 41.311093,5.34413919 41.4271935,5.26991433 C41.543294,5.19568948 41.7075615,5.15857761 41.9200007,5.15857761 C42.0731546,5.15857761 42.2201307,5.19940067 42.3609335,5.28104801 C42.5017363,5.36269535 42.6104245,5.4727939 42.6870014,5.61134697 C42.7635784,5.74990003 42.8018663,5.89587339 42.8018663,6.04927143 C42.7821045,6.14328958 42.749992,6.27689232 42.705528,6.45008365 C42.661064,6.62327498 42.6067199,6.79893784 42.542494,6.9770775 L39.9043081,13.8947995 C39.6770475,14.5034433 39.4547306,14.9809494 39.2373509,15.3273321 C39.0199712,15.6737147 38.7321944,15.9396832 38.374012,16.1252453 C38.0158295,16.3108074 37.532908,16.4035871 36.9252329,16.4035871 C36.3323791,16.4035871 35.8877455,16.3392599 35.5913186,16.2106035 C35.2948917,16.081947 35.1466805,15.8469052 35.1466805,15.5054709 C35.1466805,15.2728996 35.2170808,15.0935256 35.3578836,14.9673433 C35.4986864,14.8411611 35.7074172,14.7780709 35.9840822,14.7780709 C36.0927721,14.7780709 36.1989901,14.7929156 36.3027395,14.8226056 C36.4311912,14.8522955 36.5423496,14.8671403 36.6362181,14.8671403 C36.8684192,14.8671403 37.051213,14.8325025 37.1846051,14.763226 C37.3179972,14.6939495 37.4378012,14.5739544 37.5440209,14.4032372 C37.6502405,14.2325201 37.7725148,13.9813964 37.9108473,13.6498587 Z" id="sorry" fill="#820D34"></path>
                                </g>
                                <g id="Group-6" transform="translate(0.000000, 18.650242)" fill-rule="nonzero" stroke="#FEFBF5" stroke-linecap="round" stroke-width="1.28">
                                    <g id="Group-5">
                                        <line x1="50.8621017" y1="0.302608413" x2="0.278803873" y2="22.1135802" id="Path-86"></line>
                                        <line x1="51.2519867" y1="0.497861695" x2="15.855996" y2="22.1945781" id="Path-87"></line>
                                        <line x1="50.9536818" y1="0.65610268" x2="31.8412822" y2="21.3711886" id="Path-88"></line>
                                        <line x1="51.2835846" y1="0.670049343" x2="45.405318" y2="21.3615332" id="Path-89"></line>
                                    </g>
                                    <path d="M35.107383,17.8892552 C42.5008477,13.0713358 46.19758,13.2598467 46.19758,18.454788" id="Path-90"></path>
                                    <path d="M41.4469415,11.2680896 C46.1987622,8.19082974 48.5746725,7.94097148 48.5746725,10.5185148" id="Path-90-Copy"></path>
                                    <path d="M32.3476032,12.3930222 C36.7214,10.3331012 38.9082983,10.5919124 38.9082983,13.1694557" id="Path-90-Copy-2"></path>
                                    <path d="M23.6315973,17.5515998 C29.7252252,16.7690369 32.7720391,17.666527 32.7720391,20.2440703" id="Path-90-Copy-3"></path>
                                    <path d="M10.9537706,17.5515998 C19.4292643,16.2646869 21.8193439,17.3295962 18.1240093,20.7463278" id="Path-90-Copy-4"></path>
                                    <path d="M20.1390216,13.7263126 C28.4512975,10.9454943 30.684962,11.5659735 26.8400152,15.5877502" id="Path-90-Copy-5"></path>
                                </g>
                            </g>
                            <path d="M270.063291,140.12749 C286.596969,107.489685 325.620835,92.3970093 360.116786,106.341165 C394.612736,120.285323 412.205082,158.263738 401.437489,193.232344 L270.063291,140.12749 Z" id="Combined-Shape" fill="#EDA900"></path>
                            <path d="M381.671102,125.535567 C381.014019,126.545383 379.664033,126.83048 378.655825,126.172349 C377.647617,125.514219 377.362974,124.162081 378.020057,123.152266 C379.723795,120.533934 380.643889,117.479269 380.643889,114.282335 C380.643889,105.297015 373.371441,98.0129745 364.400423,98.0129745 C358.930128,98.0129745 353.924429,100.739426 350.921852,105.19929 C350.249034,106.198657 348.89475,106.462508 347.896973,105.788618 C346.899196,105.114727 346.635765,103.758284 347.308583,102.758917 C351.112901,97.1081896 357.465682,93.6480242 364.400423,93.6480242 C375.7783,93.6480242 385.001891,102.88632 385.001891,114.282335 C385.001891,118.33202 383.83275,122.213513 381.671102,125.535567 Z" id="Oval-4" fill="#EC961F"></path>
                            <polygon id="Rectangle-9" fill="#EF6A97" points="81.0984132 224.214768 504.543563 224.214768 504.543563 338.799663 81.0984132 338.799663"></polygon>
                            <path d="M78.1422115,217.057073 L473.90601,217.057073 C477.741207,217.057073 480.850249,220.166115 480.850249,224.001312 C480.850249,227.83651 477.741207,230.945551 473.90601,230.945551 L78.1422115,230.945551 C74.3070141,230.945551 71.1979724,227.83651 71.1979724,224.001312 C71.1979724,220.166115 74.3070141,217.057073 78.1422115,217.057073 Z" id="Rectangle-2" fill="#820D34" fill-rule="nonzero"></path>
                            <path d="M241.155378,203.565409 L367.141281,203.565409 C367.141281,208.605954 363.055112,212.692123 358.014567,212.692123 L250.282092,212.692123 C245.329978,212.692123 241.299046,208.74807 241.159134,203.829802 L241.155378,203.565409 Z" id="Rectangle-3" fill="#EDA900" fill-rule="nonzero"></path>
                            <path d="M264.133939,212.692123 L346.539813,212.692123 C346.539813,215.541127 344.230239,217.8507 341.381235,217.8507 L269.292517,217.8507 C266.516564,217.8507 264.252734,215.658048 264.138465,212.910183 L264.133939,212.692123 Z" id="Rectangle-3-Copy" fill="#974E00" fill-rule="nonzero"></path>
                            <path d="M344.498367,166.661738 C339.804718,175.426311 338.631305,182.069662 340.97813,186.591793" id="Path-78" stroke="#212121" stroke-width="2" stroke-linecap="round" stroke-linejoin="round"></path>
                            <g id="Group-9" transform="translate(347.505469, 76.585037)">
                                <path d="M11.8135454,35.0867688 C9.92082323,32.7514568 10.5417298,31.8482101 9.78246722,28.9565118 C9.52101587,27.9607583 10.7159085,26.3835829 10.5608485,25.3300121 C10.4455946,24.5469076 9.24473279,23.4156807 9.25669905,22.6214312 C9.27822477,21.2093054 10.291059,19.816522 10.5622037,18.369979 C10.8003648,17.0994012 9.04278323,16.0711804 9.78537778,14.0079384 C10.5279723,11.9446965 12.5946962,11.7197066 13.3477364,10.6305902 C13.9465179,9.76457693 10.8486366,8.48865937 13.3486406,5.98663523 C15.8486445,3.4846111 23.276545,2.544539 26.980446,4.29565438 C31.4778584,5.44822994 38.92459,12.0358789 40.9942237,19.075512 C43.0638574,26.1151452 32.9401388,44.0247814 26.0677941,42.5909472 C24.9076015,42.3488866 21.6708728,41.8078266 19.598543,40.4468864 C18.6168346,39.802179 22.1110867,36.539988 20.2012833,35.3874887 C18.2914799,34.2349893 16.2184301,36.5438276 15.3804242,36.712067 C13.5992838,37.0696516 12.8713645,36.391946 11.8135454,35.0867688 Z" id="Oval" fill="#F7A2BE" fill-rule="nonzero" transform="translate(25.262342, 23.034918) rotate(-64.000000) translate(-25.262342, -23.034918) "></path>
                                <path d="M8.93889565,27.2716508 C9.52429152,23.8570871 10.1322412,21.9091827 10.7627446,21.4279378" id="Path-84" stroke="#212121" stroke-width="2" stroke-linecap="round" stroke-linejoin="round"></path>
                                <path d="M15.277809,33.2238557 C15.8632049,29.809292 16.4711545,27.8613877 17.101658,27.3801427" id="Path-84-Copy" stroke="#212121" stroke-width="2" stroke-linecap="round" stroke-linejoin="round"></path>
                                <path d="M22.4090866,36.7951787 C22.9944824,33.380615 23.6024321,31.4327106 24.2329355,30.9514656" id="Path-84-Copy-2" stroke="#212121" stroke-width="2" stroke-linecap="round" stroke-linejoin="round"></path>
                            </g>
                            <path d="M283.546861,132.786332 C293.750986,120.133752 302.55136,112.336579 309.947984,109.394814 M317.412276,106.476103 C320.652724,105.664692 324.063632,105.09226 327.644998,104.758807" id="Path-85" stroke="#FFFFFF" stroke-width="5.376" stroke-linecap="round" stroke-linejoin="round"></path>
                            <line x1="112.64111" y1="69.8051062" x2="103.877794" y2="93.7661064" id="Path-25" stroke="#E91E63"></line>
                            <line x1="118.831829" y1="69.8051062" x2="113.163872" y2="93.7661064" id="Path-25" stroke="#E91E63"></line>
                            <line x1="136.06953" y1="69.8051062" x2="144.832847" y2="93.7661064" id="Path-25" stroke="#E91E63"></line>
                            <line x1="129.878812" y1="69.8051062" x2="135.546769" y2="93.7661064" id="Path-25" stroke="#E91E63"></line>
                            <line x1="123.814371" y1="69.9896927" x2="123.814371" y2="93.9506929" id="Path-25" stroke="#E91E63"></line>
                        </g>
                    </g>
                </g>
                <path d="M521,546 C526.22026,528.074041 527.960346,512.5479 526.22026,499.421575 C523.61013,479.732088 521.488608,466.249248 530.958809,454.554237 C537.272275,446.757563 540.27922,435.90615 539.979643,422" id="Path-8" stroke="#E91E63" stroke-width="2" mask="url(#mask-2)"></path>
                <line x1="527" y1="432" x2="537" y2="444" id="Path-15" stroke="#E91E63" stroke-width="2" mask="url(#mask-2)"></line>
                <line x1="528" y1="459" x2="543" y2="457" id="Path-17" stroke="#E91E63" stroke-width="2" mask="url(#mask-2)"></line>
                <line x1="524" y1="472" x2="509" y2="457" id="Path-18" stroke="#E91E63" stroke-width="2" mask="url(#mask-2)"></line>
                <line x1="524" y1="493" x2="543" y2="477" id="Path-19" stroke="#E91E63" stroke-width="2" mask="url(#mask-2)"></line>
                <g id="Path-20" mask="url(#mask-2)">
                    <g transform="translate(450.000000, 517.000000)">
                        <mask id="mask-8" fill="white">
                            <use xlink:href="#path-7"></use>
                        </mask>
                        <use id="Mask" stroke="none" fill="#E91E63" fill-rule="evenodd" xlink:href="#path-7"></use>
                        <path d="M-2.70931704,0.398393414 C9.58354766,1.81930178 17.3878193,10.742134 20.7034979,27.1668901 C25.6770159,51.8040243 33.8947808,63.1360544 50.8649432,63.1360544" id="Path-20" stroke="#FFFFFF" stroke-width="1" fill="none" mask="url(#mask-8)"></path>
                        <path d="M24.3134222,41.6954636 C17.8981969,40.9508999 12.2552613,39.7968565 7.38461538,38.2333333" id="Path-21" stroke="#FFFFFF" stroke-width="1" fill="none" mask="url(#mask-8)"></path>
                        <line x1="11.6923077" y1="7.2701469" x2="16.3151811" y2="-8.63333333" id="Path-22" stroke="#FFFFFF" stroke-width="1" fill="none" mask="url(#mask-8)"></line>
                        <line x1="20.6600359" y1="27.0582204" x2="35.7288617" y2="17.2173184" id="Path-23" stroke="#FFFFFF" stroke-width="1" fill="none" mask="url(#mask-8)"></line>
                        <line x1="17.9845716" y1="17.7333645" x2="-1.05634505" y2="18.5088389" id="Path-24" stroke="#FFFFFF" stroke-width="1" fill="none" mask="url(#mask-8)"></line>
                    </g>
                </g>
            </g>
        </g>
    </g>
</svg>