<?xml version="1.0" encoding="UTF-8"?>
<svg width="22px" height="22px" viewBox="0 0 22 22" version="1.1" xmlns="http://www.w3.org/2000/svg" xmlns:xlink="http://www.w3.org/1999/xlink">
    <title>92C27FA7-FB3D-4CB9-99BB-2E82790152CD</title>
    <g id="Home-Page" stroke="none" stroke-width="1" fill="none" fill-rule="evenodd">
        <g id="Restaurant-Home-Screen-V2-Address-Field-Clicked" transform="translate(-949.000000, -703.000000)">
            <g id="Order-Ticket" transform="translate(925.000000, 155.000000)">
                <g id="Checkout-Blank" transform="translate(8.000000, 535.000000)">
                    <g id="cart-CTA" transform="translate(16.000000, 13.000000)">
                        <polygon id="Path" points="0 0 22 0 22 22 0 22"></polygon>
                        <path d="M15.5833333,16.5 C14.575,16.5 13.7591667,17.325 13.7591667,18.3333333 C13.7591667,19.3416667 14.575,20.1666667 15.5833333,20.1666667 C16.5916667,20.1666667 17.4166667,19.3416667 17.4166667,18.3333333 C17.4166667,17.325 16.5916667,16.5 15.5833333,16.5 Z M6.41666667,16.5 C5.40833333,16.5 4.5925,17.325 4.5925,18.3333333 C4.5925,19.3416667 5.40833333,20.1666667 6.41666667,20.1666667 C7.425,20.1666667 8.25,19.3416667 8.25,18.3333333 C8.25,17.325 7.425,16.5 6.41666667,16.5 Z M6.41666667,13.75 L7.425,11.9166667 L14.2541667,11.9166667 C14.9416667,11.9166667 15.5466667,11.5408333 15.8583333,10.9725 L19.8916667,3.66666667 L4.77583333,3.66666667 L3.91416667,1.83333333 L0.916666667,1.83333333 L0.916666667,3.66666667 L2.75,3.66666667 L6.05,10.6241667 L3.31833333,15.5833333 L17.4166667,15.5833333 L17.4166667,13.75 L6.41666667,13.75 Z" id="Shape" fill="#9E9E9E" fill-rule="nonzero"></path>
                    </g>
                </g>
            </g>
        </g>
    </g>
</svg>