<svg xmlns="http://www.w3.org/2000/svg" width="64" height="64" viewBox="0 0 64 64">
  <g fill="none" fill-rule="evenodd">
    <g>
      <g>
        <path d="M0 0h64v64H0V0zm0 0h64v64H0V0z" transform="translate(-156 -68) translate(156 68)"/>
        <path fill="#4CAF50" fill-rule="nonzero"
              d="M44.24 20.213L26.667 37.787l-9.574-9.547-3.76 3.76 13.334 13.333L48 24l-3.76-3.787zM32 5.333C17.28 5.333 5.333 17.28 5.333 32 5.333 46.72 17.28 58.667 32 58.667c14.72 0 26.667-11.947 26.667-26.667C58.667 17.28 46.72 5.333 32 5.333zm0 48c-11.787 0-21.333-9.546-21.333-21.333 0-11.787 9.546-21.333 21.333-21.333 11.787 0 21.333 9.546 21.333 21.333 0 11.787-9.546 21.333-21.333 21.333z"
              transform="translate(-156 -68) translate(156 68)"/>
      </g>
    </g>
  </g>
</svg>
