<svg xmlns="http://www.w3.org/2000/svg" width="77" height="24" viewBox="0 0 77 24">
  <g fill="none" fill-rule="evenodd">
    <g fill-rule="nonzero">
      <g>
        <g>
          <path fill="#E91E63"
                d="M11.165 10.387c-.603-.496-1.367-.757-2.15-.734-.833-.001-1.644.266-2.311.761-.685.483-1.13 1.233-1.221 2.062h6.71c-.097-.901-.44-1.598-1.028-2.089zm12.806 4.685c-1.706 0-2.56.53-2.56 1.582-.022.494.208.965.612 1.253.408.292.99.436 1.749.436.73.01 1.44-.235 2.004-.693.57-.443.891-1.13.866-1.847v-.737l-2.67.006zm0 0c-1.706 0-2.56.53-2.56 1.582-.022.494.208.965.612 1.253.408.292.99.436 1.749.436.73.01 1.44-.235 2.004-.693.57-.443.891-1.13.866-1.847v-.737l-2.67.006zm-12.806-4.685c-.603-.496-1.367-.757-2.15-.734-.833-.001-1.644.266-2.311.761-.685.483-1.13 1.233-1.221 2.062h6.71c-.097-.901-.44-1.598-1.028-2.089zm31.684-3.982V3.742c0-1.916-1.299-3.483-2.902-3.483H2.902C1.301.259 0 1.826 0 3.742v16.166c0 1.926 1.3 3.494 2.902 3.494h37.05c1.569 0 2.857-1.511 2.903-3.38-1.334 1.2-2.732 1.8-4.19 1.8-1.386.032-2.728-.486-3.728-1.44-1.009-.958-1.522-2.273-1.522-3.922v-7H31.63V6.405h1.786V1.862h4.298v4.543h5.136zM16.51 15.498H5.373c.132.828.606 1.564 1.308 2.03.726.526 1.604.804 2.502.794 1.497 0 2.728-.499 3.695-1.496l2.39 2.567c-1.62 1.577-3.803 2.45-6.07 2.429-2.321 0-4.24-.711-5.758-2.133-1.517-1.422-2.277-3.327-2.28-5.716 0-2.39.77-4.29 2.312-5.704 1.476-1.382 3.435-2.141 5.463-2.116 2.102 0 3.889.63 5.361 1.89 1.473 1.261 2.207 2.993 2.203 5.197l.012 2.258zm14.425 6.098h-4.008v-1.844c-1.1 1.374-2.46 2.062-4.08 2.062-1.622 0-2.982-.466-4.08-1.397-1.098-.933-1.648-2.176-1.65-3.727 0-1.551.568-2.714 1.707-3.487 1.137-.773 2.692-1.159 4.663-1.159h3.18v-.083c0-1.62-.863-2.43-2.587-2.43-.802.012-1.595.16-2.346.439-.753.251-1.462.618-2.101 1.087L17.73 8.32c1.996-1.446 4.41-2.21 6.88-2.175 1.858 0 3.374.461 4.548 1.384 1.174.922 1.761 2.383 1.763 4.383l.015 9.685zm-9.522-4.942c-.022.494.208.965.611 1.253.408.292.99.436 1.749.436.73.01 1.44-.235 2.005-.693.569-.443.89-1.13.865-1.847v-.737h-2.673c-1.706.006-2.557.537-2.557 1.588zm-10.247-6.26c-.603-.499-1.368-.762-2.152-.741-.833-.001-1.644.266-2.311.761-.685.483-1.13 1.233-1.221 2.062h6.71c-.097-.901-.44-1.598-1.028-2.089l.002.006zm0 0c-.603-.499-1.368-.762-2.152-.741-.833-.001-1.644.266-2.311.761-.685.483-1.13 1.233-1.221 2.062h6.71c-.097-.901-.44-1.598-1.028-2.089l.002.006zm0 0c-.603-.499-1.368-.762-2.152-.741-.833-.001-1.644.266-2.311.761-.685.483-1.13 1.233-1.221 2.062h6.71c-.097-.901-.44-1.598-1.028-2.089l.002.006zm26.548-.927v6.803c-.03.495.132.981.452 1.361.268.317.663.499 1.08.497.8 0 1.47-.36 2.021-1.073l1.59 2.964V9.46l-5.143.007zM59.998 14.418c.047 2.173-.793 4.268-2.316 5.78-1.544 1.566-3.485 2.348-5.824 2.347-2.338-.002-4.28-.784-5.825-2.347-3.092-3.207-3.092-8.368 0-11.576 1.547-1.574 3.489-2.362 5.825-2.363 2.337-.002 4.278.786 5.824 2.363 1.523 1.52 2.362 3.618 2.316 5.796zm-11.966 0c0 1.29.358 2.342 1.074 3.153.713.777 1.707 1.218 2.748 1.218 1.041 0 2.035-.44 2.748-1.218.71-.811 1.064-1.862 1.064-3.153 0-1.29-.355-2.348-1.064-3.17-.708-.786-1.704-1.232-2.748-1.232-1.043 0-2.04.446-2.748 1.232-.714.822-1.072 1.88-1.074 3.17zM72.857 17.394c0 1.557-.559 2.804-1.676 3.742-1.118.938-2.537 1.407-4.256 1.409-1.218-.013-2.426-.225-3.578-.63-1.217-.408-2.35-1.038-3.347-1.86l1.89-2.759c1.604 1.274 3.312 1.91 5.125 1.908.462.026.92-.092 1.317-.338.305-.188.49-.528.487-.894 0-.37-.223-.715-.672-1.027-.606-.383-1.262-.676-1.947-.872-.851-.272-1.5-.507-1.947-.704-.532-.241-1.044-.526-1.532-.85-1.17-.754-1.755-1.858-1.755-3.315-.026-1.403.614-2.732 1.717-3.565 1.146-.92 2.625-1.38 4.438-1.38 1.813 0 3.626.626 5.44 1.88l-1.595 2.932c-1.336-.937-2.668-1.407-3.994-1.408-1.326-.002-1.99.37-1.99 1.116.008.423.259.803.64.968.671.335 1.37.61 2.088.822.975.313 1.667.552 2.077.717.51.22 1.004.48 1.474.779 1.063.666 1.595 1.775 1.596 3.33z"
                transform="translate(-20 -60) translate(0 44) translate(20 16)"/>
          <path fill="#EC298F"
                d="M75.918 6.894l-.443.937h-.214l-.454-.937v1.08h-.366V6.26h.496l.428.941.428-.941h.493v1.712h-.366l-.002-1.08zm-2.23-.305v1.382h-.366V6.589h-.465v-.33h1.284v.33h-.453z"
                transform="translate(-20 -60) translate(0 44) translate(20 16)"/>
        </g>
      </g>
    </g>
  </g>
</svg>
