<svg xmlns="http://www.w3.org/2000/svg" width="24" height="25" viewBox="0 0 24 25">
  <g fill="none" fill-rule="evenodd">
    <g fill-rule="nonzero">
      <g>
        <g>
          <g transform="translate(-80 -592) translate(20 163.5) translate(0 418) translate(60 11)">
            <circle cx="12" cy="12" r="12" fill="#FFF"/>
            <g>
              <path fill="#FBBB00"
                    d="M3.546 9.669l-.557 2.08-2.036.042C.345 10.663 0 9.371 0 8c0-1.327.323-2.578.894-3.68l1.813.333.794 1.802c-.166.484-.257 1.004-.257 1.545 0 .587.107 1.15.302 1.669z"
                    transform="translate(4 4)"/>
              <path fill="#518EF8"
                    d="M15.86 6.505c.092.484.14.984.14 1.495 0 .573-.06 1.131-.175 1.67-.39 1.834-1.407 3.435-2.817 4.569l-2.283-.117-.323-2.017c.936-.549 1.667-1.407 2.052-2.435H8.176V6.505H15.86z"
                    transform="translate(4 4)"/>
              <path fill="#28B446"
                    d="M13.008 14.238C11.638 15.342 9.896 16 8 16c-3.047 0-5.695-1.703-7.047-4.209L3.546 9.67C4.222 11.472 5.96 12.756 8 12.756c.876 0 1.698-.237 2.402-.65l2.606 2.132z"
                    transform="translate(4 4)"/>
              <path fill="#F14336"
                    d="M13.106 1.842l-2.591 2.121c-.73-.455-1.591-.719-2.515-.719-2.085 0-3.857 1.343-4.499 3.21L.895 4.322C2.224 1.754 4.907 0 8 0c1.941 0 3.72.691 5.106 1.842z"
                    transform="translate(4 4)"/>
            </g>
          </g>
        </g>
      </g>
    </g>
  </g>
</svg>
