<svg xmlns="http://www.w3.org/2000/svg" xmlns:xlink="http://www.w3.org/1999/xlink" width="234" height="236" viewBox="0 0 234 236">
    <defs>
        <path id="rd1buxo0ba" d="M0 0.391H234V235.391H0z"/>
        <path id="wzqf1itl5c" d="M148.967 279.735c44.13 0 79.904-35.774 79.904-79.904V98.103c0-44.13-35.774-79.903-79.904-79.903-44.13 0-79.903 35.774-79.903 79.903v101.728c0 44.13 35.774 79.904 79.903 79.904z"/>
        <path id="v5l6odtmte" d="M6.37 7.95h.955V4.453c0-1.054.855-1.908 1.91-1.908 1.056 0 1.911.854 1.911 1.908V9.86c0 1.053-.855 1.908-1.91 1.908-.11 0-.216-.01-.32-.027-.103.018-.21.027-.318.027H6.37v5.088H0V3.18C0 1.424 1.426 0 3.185 0c1.758 0 3.184 1.424 3.184 3.18v4.77z"/>
        <path id="g4valpdzpg" d="M0 54.77c3.853-1.995 5.41-5.07 4.672-9.226C3.565 39.31.09 32.92 6.705 27.806c6.616-5.115 10.533-13.14 3.63-18.251-6.902-5.111.079-14.524 12.117-6.335 12.037 8.19 1.93 12.816 6.984 20.29 5.053 7.473 7.052 18.385.922 27.728C26.27 57.466 16.152 58.644 0 54.77z"/>
        <path id="3dxvzg1kgi" d="M22.209 16.672c-5.404-1.382-8.637-4.755-9.7-10.12C11.256.227 4.371.065 2.101.065c-5.448 0 1.978 6.25 1.978 12.028 0 5.777-3.875 7.005 5.398 14.057 6.183 4.701 10.427 1.542 12.732-9.478z"/>
    </defs>
    <g fill="none" fill-rule="evenodd">
        <g>
            <g transform="translate(-71 -182) translate(71 182)">
                <mask id="c0l1bo3jyb" fill="#fff">
                    <use xlink:href="#rd1buxo0ba"/>
                </mask>
                <g mask="url(#c0l1bo3jyb)">
                    <g transform="translate(-31 -31.609)">
                        <mask id="6gygmu0j4d" fill="#fff">
                            <use xlink:href="#wzqf1itl5c"/>
                        </mask>
                        <use fill="#FDEBF2" transform="rotate(45 148.967 148.967)" xlink:href="#wzqf1itl5c"/>
                        <path stroke="#F390B1" stroke-width="2" d="M47.591 47.591L47.591 269.09M70.719 47.591L70.719 269.09M214.827 47.591L214.827 269.09M95.627 47.591L95.627 269.09" mask="url(#6gygmu0j4d)"/>
                        <path stroke="#E91E63" stroke-width="2" d="M198.231 217.491c-4.81-4.511-5.593-8.551-2.347-12.12 4.868-5.354 6.278-9.868 1.423-13.611-4.854-3.744-3.587-10.494 3.536-13.03 7.124-2.538 3.03-11.54 10.108-12.77 7.078-1.23-1.711 17.266 3.496 25.8 5.208 8.533 6.775 23.944-.91 25.731-5.122 1.192-10.224 1.192-15.306 0z" mask="url(#6gygmu0j4d)"/>
                        <path stroke="#F390B1" stroke-width="2" d="M118.755 47.591L118.755 269.09M142.773 47.591L142.773 269.09M166.791 47.591L166.791 269.09M191.699 47.591L191.699 269.09" mask="url(#6gygmu0j4d)"/>
                        <g mask="url(#6gygmu0j4d)">
                            <g>
                                <g>
                                    <g>
                                        <g transform="translate(10.675 77.836) translate(137.153 47.08) translate(58.505) translate(4.777)">
                                            <mask id="1ahiqvri9f" fill="#fff">
                                                <use xlink:href="#v5l6odtmte"/>
                                            </mask>
                                            <use fill="#EF6A97" fill-rule="nonzero" xlink:href="#v5l6odtmte"/>
                                            <path fill="#E91E63" fill-rule="nonzero" d="M.318-.954v19.967H0V-.954h.318zm.956 0v19.967H.955V-.954h.319zm.955 0v19.967h-.318V-.954h.318zm.956 0v19.967h-.319V-.954h.319zm.955 0v19.967h-.318V-.954h.318zm.955 0v19.967h-.318V-.954h.318zm.956 0v19.967h-.319V-.954h.319zm.955 0v19.967h-.318V-.954h.318zm.956 0v19.967h-.319V-.954h.319zm.955 0v19.967h-.319V-.954h.319zm.955 0v19.967h-.318V-.954h.318zm.956 0v19.967h-.319V-.954h.319z" mask="url(#1ahiqvri9f)"/>
                                        </g>
                                        <g fill-rule="nonzero">
                                            <path fill="#EF6A97" d="M0.318 0.318L16.241 0.318 12.703 10.495 3.857 10.495z" transform="translate(10.675 77.836) translate(137.153 47.08) translate(58.505) translate(0 14.31)"/>
                                            <path fill="#E91E63" d="M0 0H16.241V3.18H0z" transform="translate(10.675 77.836) translate(137.153 47.08) translate(58.505) translate(0 14.31)"/>
                                        </g>
                                    </g>
                                    <g>
                                        <path stroke="#E91E63" stroke-linecap="round" stroke-linejoin="round" stroke-width="1.536" d="M0 0.954L22.929 0.954 22.929 4.957 0 4.957z" transform="translate(10.675 77.836) translate(137.153 47.08) rotate(-90 27.223 -2.081)"/>
                                        <path fill="#E91E63" fill-rule="nonzero" d="M1.272 0H23.25c.35 0 .636.285.636.636 0 .351-.285.636-.636.636H0C0 .57.57 0 1.272 0zM0 4.77h23.249c.35 0 .636.285.636.636 0 .352-.285.636-.636.636H1.272C.57 6.042 0 5.472 0 4.77z" transform="translate(10.675 77.836) translate(137.153 47.08) rotate(-90 27.223 -2.081)"/>
                                    </g>
                                    <g>
                                        <path stroke="#E91E63" stroke-linecap="round" stroke-linejoin="round" stroke-width="1.536" d="M0 1.004L19.499 1.004 19.499 6.512 0 6.512z" transform="translate(10.675 77.836) translate(137.153 47.08) rotate(-90 33.272 -8.133)"/>
                                        <path fill="#E91E63" fill-rule="nonzero" d="M1.339 0H20.03c.37 0 .67.3.67.67 0 .37-.3.669-.67.669H0C0 .599.6 0 1.339 0zM0 5.021h20.03c.37 0 .67.3.67.67 0 .37-.3.67-.67.67H1.34C.599 6.36 0 5.76 0 5.02z" transform="translate(10.675 77.836) translate(137.153 47.08) rotate(-90 33.272 -8.133)"/>
                                    </g>
                                    <g>
                                        <path stroke="#E91E63" stroke-linecap="round" stroke-linejoin="round" stroke-width="1.536" d="M0 0.954H22.875V5.088H0z" transform="translate(10.675 77.836) translate(137.153 47.08) rotate(-90 30.248 -5.107)"/>
                                        <path fill="#EF6A97" fill-rule="nonzero" d="M1.272 0H23.25c.35 0 .636.285.636.636 0 .351-.285.636-.636.636H0C0 .57.57 0 1.272 0zM0 4.77h23.249c.35 0 .636.285.636.636 0 .352-.285.636-.636.636H1.272C.57 6.042 0 5.472 0 4.77z" transform="translate(10.675 77.836) translate(137.153 47.08) rotate(-90 30.248 -5.107)"/>
                                    </g>
                                    <g>
                                        <path stroke="#E91E63" stroke-linecap="round" stroke-linejoin="round" stroke-width="1.536" d="M0 0.954H22.875V5.088H0z" transform="translate(10.675 77.836) translate(137.153 47.08) rotate(-90 36.299 -11.157)"/>
                                        <path fill="#EF6A97" fill-rule="nonzero" d="M1.272 0H23.25c.35 0 .636.285.636.636 0 .351-.285.636-.636.636H0C0 .57.57 0 1.272 0zM0 4.77h23.249c.35 0 .636.285.636.636 0 .352-.285.636-.636.636H1.272C.57 6.042 0 5.472 0 4.77z" transform="translate(10.675 77.836) translate(137.153 47.08) rotate(-90 36.299 -11.157)"/>
                                    </g>
                                    <g transform="translate(10.675 77.836) translate(137.153 47.08) translate(12.461 9.859)">
                                        <ellipse cx="5.732" cy="5.724" stroke="#E91E63" stroke-linecap="round" stroke-linejoin="round" stroke-width="1.536" rx="5.732" ry="5.724"/>
                                        <path fill="#E91E63" fill-rule="nonzero" d="M7.006 10.813H3.185V8.905h-.319l.956-1.909h2.547l.661 1.321.215-.367h-.239l.796-1.59.796 1.59H8.36l.558.955h-.399l.717.954H7.961v.954h-.318v-.955h-.638l.001.955z"/>
                                        <path fill="#EF6A97" fill-rule="nonzero" d="M4.77 10.495h2.243c2.634 0 4.77 2.135 4.77 4.77H0c0-2.635 2.136-4.77 4.77-4.77z"/>
                                    </g>
                                    <path fill="#E91E63" fill-rule="nonzero" d="M0 24.806H80.571V29.258000000000003H0z" transform="translate(10.675 77.836) translate(137.153 47.08)"/>
                                </g>
                                <g transform="translate(10.675 77.836) translate(163.902 101.685)">
                                    <mask id="ueeluo1igh" fill="#fff">
                                        <use xlink:href="#g4valpdzpg"/>
                                    </mask>
                                    <use fill="#EF6A97" xlink:href="#g4valpdzpg"/>
                                    <path stroke="#FFF" d="M9.955 53.279C25.91 23.27 25.135 5.684 7.633.52M23.878.581L19.433 9.457M21.435 17.944L6.871 19.427M18.561 33.939L37.876 28.419M16.681 39.313L-.213 31.516" mask="url(#ueeluo1igh)"/>
                                </g>
                                <g transform="translate(10.675 77.836) translate(198.19)">
                                    <ellipse cx="16.418" cy="16.346" fill="#FDEBF2" stroke="#FFB6CE" stroke-width="7.04" rx="16.341" ry="16.325"/>
                                    <path stroke="#E91E63" stroke-linecap="round" stroke-linejoin="round" stroke-width="2" d="M24.334 17.328L20.238 26.311 9.821 21.264" transform="rotate(-150 17.077 21.82)"/>
                                    <ellipse cx="16.415" cy="16.381" fill="#EF6A97" rx="1.824" ry="1.82"/>
                                </g>
                                <g transform="translate(10.675 77.836) translate(0 69.732)">
                                    <path fill="#E91E63" d="M0 50.397H54.472V92.86699999999999H0z"/>
                                    <rect width="42.799" height="20.143" x="3.648" y="58.406" fill="#FDEBF2" stroke="#F7A2BE" stroke-width="4" rx="6"/>
                                    <path stroke="#E91E63" stroke-width="3" d="M48.594 35.395l1.965 9.707c.081.492-.045.97-.314 1.344-.27.375-.682.648-1.173.728-.097.016-.195.024-.293.024-.498 0-.949-.202-1.275-.528-.327-.326-.529-.777-.529-1.276 0-.098.008-.195.024-.292h0l1.595-9.707z"/>
                                    <rect width="37.936" height="10.435" x="3.648" y="63.259" fill="#FDEBF2" stroke="#E91E63" stroke-width="2" rx="2"/>
                                    <path fill="#EF6A97" d="M3.648 48.698H58.120000000000005V52.338H3.648z"/>
                                    <path fill="#E91E63" d="M15.32 43.359H32.829V48.698H15.32z"/>
                                    <path fill="#EF6A97" d="M43.529 26.614L54.229 26.614 59.092 39.962 38.665 39.962z"/>
                                    <path fill="#F7A2BE" fill-rule="nonzero" d="M73.076 44.678c5.691-6.544 46.781-4.952 50.069-.01 2.745 4.125.176 29.806-4.9 41.296-1.004 2.274-33.26 8.843-35.748 4.885-2.487-3.96-15.113-39.626-9.421-46.17z" transform="rotate(6 97.94 66.218)"/>
                                    <g>
                                        <g fill-rule="nonzero">
                                            <path fill="#F7A2BE" d="M11.294 8.202c2.196-3.644 6.44-6.116 9.529.07 3.09 6.185-3.835 30.306-6.845 36.334-3.011 6.027-6.301 7.223-9.392 1.035-3.09-6.187 4.512-33.796 6.708-37.44z" transform="translate(50.5 37.937) rotate(27 9.508 47.717) scale(-1 1) rotate(1 0 -1431.408)"/>
                                            <path fill="#ED457D" d="M9.788 3.932c2.179-3.655 6.388-6.136 9.454.07 3.065 6.206 1.043 17.787-1.944 23.834C14.311 33.883 4.04 29.362.974 23.154-2.092 16.946 7.61 7.587 9.788 3.932z" transform="translate(50.5 37.937) rotate(27 9.508 47.717) scale(-1 1) rotate(1 0 -1196.17)"/>
                                        </g>
                                        <path stroke="#FFF" stroke-linecap="round" stroke-linejoin="round" stroke-width="3.84" d="M27.408 30.056c-4.626 3.014-8.764 2.605-12.415-1.228" transform="translate(50.5 37.937)"/>
                                        <path stroke="#820D34" stroke-linecap="round" stroke-linejoin="round" stroke-width="3.84" d="M24.124 31.523c-1-3.243-1.415-5.568-1.244-6.977" transform="translate(50.5 37.937)"/>
                                    </g>
                                    <path fill="#F7A2BE" fill-rule="nonzero" d="M125.596 44.128c2.198-3.52 6.441-5.911 9.526.061 3.085 5.973-3.853 29.277-6.867 35.1-3.013 5.824-6.303 6.982-9.39 1.007-3.085-5.974 4.533-32.647 6.731-36.168z" transform="scale(-1 1) rotate(22 0 -591.05)"/>
                                    <path fill="#F7A2BE" fill-rule="nonzero" d="M142.505 41.05c2.192-3.518 6.43-5.902 9.524.077 3.093 5.98-3.804 29.28-6.807 35.1-3.004 5.821-6.29 6.973-9.385.992-3.095-5.981 4.477-32.65 6.668-36.169z" transform="scale(1 -1) rotate(-33 -56.34 0)"/>
                                    <path fill="#ED457D" fill-rule="nonzero" d="M73.177 44.73c1.775-2.04 6.99-3.29 13.43-3.894 3.828-.359-1.667 25.639 11.88 25.636 17.15-.004 6.771-25.845 9.711-25.583 7.666.681 13.853 2.035 15.048 3.83 2.7 4.059.258 28.98-4.655 40.728-1.07 2.556-38.15 8.374-38.422 5.353-.177-1.964-.467-3.95-.956-5.789-2.013-7.563-11.727-33.737-6.036-40.281z" transform="rotate(6 97.888 66.24)"/>
                                    <path stroke="#820D34" stroke-linecap="round" stroke-linejoin="round" stroke-width="3.84" d="M120.775 75.506c1.104-4.244 1.38-8.488.826-12.732"/>
                                    <path stroke="#FFF" stroke-linecap="round" stroke-linejoin="round" stroke-width="5.376" d="M89.198 51.312c.781 9.512 3.826 14.547 9.137 15.104 7.965.835 11.97-7.439 12.263-14.792"/>
                                    <g transform="rotate(13 39.403 380.293)">
                                        <g>
                                            <path fill="#F7A2BE" fill-rule="nonzero" d="M24.34 55.506c7.928 0 13.861-14.084 13.861-21.852 0-7.767-6.426-14.064-14.354-14.064-7.927 0-14.354 6.297-14.354 14.064 0 7.768 6.92 21.852 14.848 21.852z"/>
                                            <g transform="rotate(156 9.076 28.829)">
                                                <ellipse cx="3.93" cy="3.925" fill="#E91E63" rx="2.179" ry="3.271" transform="rotate(36 3.93 3.925)"/>
                                                <path fill="#FFF" d="M2.432 6.708c.618 0 1.176-.387 1.574-1.008.376-.588-3.52-.582-3.145.005.396.619.953 1.004 1.57 1.003z" transform="rotate(36 2.434 5.985)"/>
                                            </g>
                                            <path fill="#F7A2BE" fill-rule="nonzero" d="M11.8 42.836c1.663 0 .549-1.97.549-4.174 0-2.204-1.348-3.99-3.011-3.99s-3.012 1.786-3.012 3.99 3.811 4.174 5.474 4.174z"/>
                                            <path fill="#212121" d="M13.227 40.265c1.055-4.433.392-7.372.392-10.333 2.507 2.238 8.863 1.529 10.681.8 4.086-1.636 8.586-3.132 10.698-5.365.552 3.807 1.41 4.565 2.994 7.508 0 1.79-.349 4.654-.696 5.658 2.443-.646 6.447-4.763 5.321-10.406 3.266 1.016 10.86-2.76 8.407-8.951 12.355-8.674 5.653-16.76-5.141-12.467-2.294-4.227-10.95-11.282-16.583.48C24.228-.795 12.613-.186 9.172 18.112c-4.648-.853-5.817.577-7.026 5.291-1.208 4.714 3.823 11.753 4.65 12.954.695-.459 1.892-2.153 3.3-1.273 1.197.748 1.651 6.076 3.13 5.181z"/>
                                            <path stroke="#000" stroke-linecap="round" stroke-linejoin="round" stroke-width="5.376" d="M29.5 8.243c-.988 1.034-1.483 3.118-1.483 6.25M13.278 29.421c-1.087-.508-1.76-1.156-2.019-1.946"/>
                                            <path fill="#212121" d="M14.917 33.576l3.589.004c.452 0 .819.367.82.82 0 .45-.366.817-.817.817h-.002l-3.589-.003c-.452 0-.819-.367-.82-.82 0-.451.366-.817.817-.818h.002z" transform="rotate(-37 16.712 34.397)"/>
                                            <path fill="#212121" d="M30.605 32.523l3.589-.004c.45 0 .817.365.818.817v.001c0 .453-.368.82-.82.82l-3.589.003c-.451 0-.817-.365-.818-.816v-.002c0-.452.367-.819.82-.82z" transform="rotate(37 32.398 33.34)"/>
                                            <path stroke="#212121" stroke-linecap="round" stroke-linejoin="round" stroke-width="2" d="M25.509 34.53c-.545 3.272-.327 5.236.653 5.89.981.655 1.853.982 2.615.982-.871 1.2-1.743 1.964-2.615 2.29-1.307.492-3.642-.068-2.474-1.179M9.428 36.622c-1.559.89-1.722 1.925-.49 3.11"/>
                                            <path stroke="#000" stroke-linecap="round" stroke-linejoin="round" stroke-width="5.376" d="M42.301 3.722L46.492 0.827" transform="rotate(-13 44.397 2.274)"/>
                                            <path stroke="#000" stroke-linecap="round" stroke-linejoin="round" stroke-width="5.376" d="M42.681 5.431L46.44 3.14"/>
                                            <path stroke="#000" stroke-linecap="round" stroke-linejoin="round" stroke-width="5.376" d="M39.125 3.629L41.076 0.175" transform="rotate(-13 40.1 1.902)"/>
                                            <path stroke="#000" stroke-linecap="round" stroke-linejoin="round" stroke-width="5.376" d="M.512 23.73L3.149 25.242M.03 25.242L2.8 25.694"/>
                                            <path stroke="#212121" stroke-linecap="round" stroke-linejoin="round" stroke-width="2" d="M15.954 49.954c2.278 3.756 5.156 5.634 8.634 5.634 3.478 0 6.347-2.04 8.609-6.118"/>
                                        </g>
                                        <ellipse cx="31.298" cy="37.11" fill="#212121" fill-rule="nonzero" rx="1.012" ry="1.011"/>
                                        <ellipse cx="18.747" cy="38.09" fill="#212121" fill-rule="nonzero" rx="1.012" ry="1.011"/>
                                    </g>
                                    <g>
                                        <g>
                                            <path fill="#EC961F" d="M8.092 6.53H10.271V15.859000000000002H8.092z" transform="translate(100.954 64.48) translate(12.139)"/>
                                            <path fill="#FEFBF5" stroke="#1C2229" stroke-width="1.28" d="M0 0H18.052V7.152H0z" transform="translate(100.954 64.48) translate(12.139)"/>
                                            <path fill="#820D34" d="M4.592 4.211c0 .22-.053.407-.16.563-.107.156-.264.274-.473.355-.209.08-.462.12-.761.12-.285 0-.53-.043-.734-.13-.204-.088-.354-.197-.451-.328-.097-.13-.146-.262-.146-.394 0-.087.032-.162.094-.224s.14-.093.235-.093c.084 0 .148.02.193.061.044.041.087.098.128.172.081.141.179.247.292.317.114.07.268.105.465.105.159 0 .29-.036.391-.107.102-.07.153-.151.153-.242 0-.14-.053-.242-.159-.306-.106-.064-.28-.125-.522-.183-.274-.068-.497-.14-.668-.214-.172-.074-.31-.173-.412-.295-.103-.122-.155-.272-.155-.45 0-.16.048-.31.143-.451.095-.142.235-.255.42-.34.186-.084.41-.126.672-.126.205 0 .39.022.554.064.164.043.301.1.41.172.11.072.194.151.251.238.057.088.086.173.086.256 0 .091-.03.166-.092.224-.06.058-.148.087-.26.087-.082 0-.151-.023-.208-.07-.058-.046-.123-.116-.197-.209-.06-.077-.131-.14-.212-.186-.082-.046-.193-.07-.332-.07-.144 0-.263.03-.358.092-.095.06-.143.137-.143.228 0 .084.035.152.105.205.07.054.164.098.282.133.119.034.282.077.49.127.246.06.447.132.603.216.156.083.275.181.355.295.08.113.121.243.121.388zm3.685-.576c0 .237-.037.455-.11.655-.074.2-.181.371-.32.514-.14.144-.308.254-.502.33-.194.077-.412.115-.655.115-.24 0-.457-.038-.649-.116-.192-.077-.358-.188-.499-.333-.14-.144-.247-.315-.32-.512-.073-.197-.11-.414-.11-.653 0-.24.038-.46.111-.66.074-.2.18-.37.318-.512.137-.141.304-.25.5-.327.196-.076.413-.115.65-.115.24 0 .458.039.654.117.196.077.364.188.504.331.14.144.246.314.319.512.073.198.109.416.109.654zm-.798 0c0-.323-.071-.576-.214-.756-.142-.18-.334-.27-.575-.27-.155 0-.292.04-.41.12-.118.08-.21.2-.274.357-.064.157-.096.34-.096.55 0 .207.032.388.095.543.063.155.153.274.27.356.118.083.256.124.415.124.241 0 .433-.09.575-.272.143-.181.214-.432.214-.752zm2.25.469v.663c0 .16-.038.281-.114.362-.075.08-.171.12-.288.12-.114 0-.208-.04-.282-.122-.074-.081-.11-.201-.11-.36v-2.21c0-.357.128-.536.386-.536.132 0 .227.042.286.125.058.084.09.207.096.37.095-.163.192-.286.292-.37.1-.083.234-.125.4-.125.167 0 .33.042.487.125.157.084.235.194.235.332 0 .097-.033.177-.1.24s-.14.094-.217.094c-.029 0-.1-.018-.21-.054-.112-.035-.211-.053-.296-.053-.117 0-.212.03-.286.091-.073.061-.13.152-.171.272-.041.12-.07.263-.085.43-.015.165-.023.367-.023.606zm2.57 0v.663c0 .16-.038.281-.114.362-.075.08-.172.12-.288.12-.114 0-.209-.04-.282-.122-.074-.081-.111-.201-.111-.36v-2.21c0-.357.13-.536.387-.536.132 0 .227.042.285.125.059.084.09.207.097.37.095-.163.192-.286.292-.37.1-.083.233-.125.4-.125s.33.042.486.125c.158.084.236.194.236.332 0 .097-.033.177-.1.24s-.14.094-.217.094c-.03 0-.1-.018-.211-.054-.112-.035-.21-.053-.296-.053-.116 0-.211.03-.285.091-.074.061-.13.152-.172.272-.04.12-.068.263-.084.43-.016.165-.023.367-.023.606zm2.593 1.244l.073-.177-.978-2.46c-.06-.142-.09-.245-.09-.309 0-.068.017-.13.052-.189.035-.058.083-.105.144-.14.06-.034.124-.052.19-.052.115 0 .201.037.26.11.058.072.11.176.154.312l.672 1.954.638-1.817c.05-.148.096-.263.137-.346.04-.084.083-.14.13-.17.045-.028.11-.043.193-.043.06 0 .118.016.173.048.055.032.098.075.128.13.03.054.045.111.045.171-.008.037-.02.09-.038.157-.017.068-.039.137-.064.207l-1.036 2.71c-.09.239-.177.426-.262.562-.086.135-.199.24-.34.312-.14.073-.33.11-.568.11-.233 0-.408-.026-.524-.076-.117-.05-.175-.143-.175-.277 0-.09.028-.161.083-.21.055-.05.137-.075.246-.075.043 0 .084.006.125.018.05.011.094.017.131.017.091 0 .163-.013.216-.04.052-.028.099-.075.14-.142.042-.066.09-.165.145-.295z" transform="translate(100.954 64.48) translate(12.139)"/>
                                        </g>
                                        <g fill-rule="nonzero" stroke="#FEFBF5" stroke-linecap="round" stroke-width="1.28">
                                            <g>
                                                <path d="M19.979.119L.11 8.665M20.132.195L6.228 8.696M20.015.257L12.508 8.374M20.145.263L17.836 8.37" transform="translate(100.954 64.48) translate(0 7.308)"/>
                                            </g>
                                            <path d="M13.79 7.01c2.905-1.888 4.357-1.815 4.357.22M16.28 4.415c1.867-1.206 2.8-1.304 2.8-.294M12.707 4.856c1.718-.807 2.577-.706 2.577.304M9.283 6.877c2.393-.307 3.59.045 3.59 1.055M4.303 6.877C7.632 6.373 8.57 6.79 7.119 8.13M7.91 5.378c3.266-1.09 4.143-.846 2.633.73" transform="translate(100.954 64.48) translate(0 7.308)"/>
                                        </g>
                                    </g>
                                    <path fill="#EDA900" d="M108.84 67.145c1.23-14.29 13.228-25.515 27.838-25.525 14.61-.01 26.592 11.198 27.803 25.486l-55.642.04z" transform="rotate(22 136.66 54.383)"/>
                                    <path fill="#EC961F" d="M149.925 50.077c-.258.395-.789.507-1.185.25-.396-.259-.507-.788-.25-1.184.67-1.026 1.031-2.223 1.031-3.475 0-3.521-2.856-6.375-6.38-6.375-2.15 0-4.115 1.068-5.295 2.816-.264.391-.796.495-1.188.23-.392-.263-.495-.795-.231-1.187 1.494-2.214 3.99-3.57 6.714-3.57 4.47 0 8.092 3.62 8.092 8.086 0 1.586-.459 3.107-1.308 4.409z"/>
                                    <path fill="#EF6A97" d="M31.856 88.741H198.19V133.638H31.856z"/>
                                    <path fill="#820D34" fill-rule="nonzero" d="M30.688 85.937h155.475c1.502 0 2.72 1.218 2.72 2.72 0 1.503-1.218 2.721-2.72 2.721H30.688c-1.502 0-2.72-1.218-2.72-2.72 0-1.503 1.218-2.721 2.72-2.721z"/>
                                    <path fill="#EDA900" fill-rule="nonzero" d="M94.729 80.65h49.488c0 1.975-1.6 3.576-3.576 3.576H98.305c-1.975 0-3.576-1.6-3.576-3.576z"/>
                                    <path fill="#974E00" fill-rule="nonzero" d="M103.755 84.226h32.37c0 1.117-.905 2.022-2.021 2.022h-28.328c-1.116 0-2.021-.905-2.021-2.022z"/>
                                    <path stroke="#212121" stroke-linecap="round" stroke-linejoin="round" stroke-width="2" d="M135.323 66.19c-1.844 3.435-2.305 6.038-1.383 7.81"/>
                                    <g>
                                        <path fill="#F7A2BE" fill-rule="nonzero" d="M4.656 13.752c-.743-.917-.5-1.272-.798-2.407-.103-.391.365-1.01.303-1.424-.045-.307-.516-.752-.512-1.064.008-.554.404-1.1.51-1.668.093-.5-.596-.904-.306-1.713.29-.81 1.1-.898 1.395-1.325.234-.34-.98-.842-.001-1.823.979-.982 3.89-1.348 5.343-.659 1.763.454 4.685 3.044 5.499 5.809.814 2.764-3.148 9.792-5.842 9.226-.455-.095-1.724-.309-2.537-.844-.385-.254.983-1.533.234-1.986-.749-.453-1.56.452-1.889.518-.698.14-.984-.127-1.399-.64z" transform="translate(136.504 30.897) rotate(-64 9.923 9.026)"/>
                                        <path stroke="#212121" stroke-linecap="round" stroke-linejoin="round" stroke-width="2" d="M3.511 10.686c.23-1.338.47-2.102.717-2.29M6.001 13.018c.23-1.338.47-2.101.717-2.29M8.803 14.417c.23-1.338.468-2.101.716-2.29" transform="translate(136.504 30.897)"/>
                                    </g>
                                    <path stroke="#FFF" stroke-linecap="round" stroke-linejoin="round" stroke-width="5.376" d="M111.38 52.918c4.009-4.958 7.466-8.013 10.371-9.165m2.932-1.144c1.273-.318 2.613-.542 4.02-.673"/>
                                    <path stroke="#E91E63" d="M44.247 28.241L40.804 37.629M46.679 28.241L44.452 37.629"/>
                                    <path stroke="#E91E63" d="M56.892 28.241L53.45 37.629" transform="matrix(-1 0 0 1 110.342 0)"/>
                                    <path stroke="#E91E63" d="M53.244 28.241L51.018 37.629" transform="matrix(-1 0 0 1 104.262 0)"/>
                                    <path stroke="#E91E63" d="M48.636 28.313L48.636 37.701" transform="matrix(-1 0 0 1 97.271 0)"/>
                                </g>
                            </g>
                        </g>
                        <path stroke="#E91E63" stroke-width="2" d="M204.597 213.937c1.955-7.073 2.607-13.199 1.955-18.378-.977-7.768-1.772-13.088 1.775-17.702 2.365-3.077 3.491-7.358 3.379-12.845M206.376 168.57L210.824 173.907M207.266 180.134L213.493 179.245M205.487 186.361L199.26 180.134M205.487 192.588L212.603 186.361" mask="url(#6gygmu0j4d)"/>
                        <g mask="url(#6gygmu0j4d)">
                            <g transform="translate(177.02 203.263)">
                                <mask id="wduis6n9fj" fill="#fff">
                                    <use xlink:href="#3dxvzg1kgi"/>
                                </mask>
                                <use fill="#E91E63" xlink:href="#3dxvzg1kgi"/>
                                <path stroke="#FFF" d="M-1.076.153C3.806.7 6.905 4.133 8.222 10.45c1.975 9.478 5.238 13.837 11.978 13.837M9.655 16.039c-2.547-.286-4.788-.73-6.722-1.332M4.643 2.797L6.479-3.321M8.205 10.409L14.189 6.623M7.142 6.822L-.419 7.12" mask="url(#wduis6n9fj)"/>
                            </g>
                        </g>
                    </g>
                </g>
            </g>
        </g>
    </g>
</svg>
