<?xml version="1.0" encoding="UTF-8"?>
<svg width="19px" height="19px" viewBox="0 0 19 19" version="1.1" xmlns="http://www.w3.org/2000/svg" xmlns:xlink="http://www.w3.org/1999/xlink">
    <title>DE2ED519-FFF0-4BCA-988F-E18B47A51EC9</title>
    <g id="Home-Page" stroke="none" stroke-width="1" fill="none" fill-rule="evenodd">
        <g id="Restaurant-Home-Screen-V2-Address-Search" transform="translate(-165.000000, -325.000000)">
            <g id="Group-5" transform="translate(165.000000, 186.000000)">
                <g id="schedule-24px" transform="translate(0.000000, 139.000000)">
                    <polygon id="Path" points="0 0 19 0 19 19 0 19"></polygon>
                    <path d="M9.49208333,1.58333333 C5.12208333,1.58333333 1.58333333,5.13 1.58333333,9.5 C1.58333333,13.87 5.12208333,17.4166667 9.49208333,17.4166667 C13.87,17.4166667 17.4166667,13.87 17.4166667,9.5 C17.4166667,5.13 13.87,1.58333333 9.49208333,1.58333333 Z M9.5,15.8333333 C6.00083333,15.8333333 3.16666667,12.9991667 3.16666667,9.5 C3.16666667,6.00083333 6.00083333,3.16666667 9.5,3.16666667 C12.9991667,3.16666667 15.8333333,6.00083333 15.8333333,9.5 C15.8333333,12.9991667 12.9991667,15.8333333 9.5,15.8333333 Z M9.89583333,5.54166667 L8.70833333,5.54166667 L8.70833333,10.2916667 L12.8645833,12.7854167 L13.4583333,11.8116667 L9.89583333,9.69791667 L9.89583333,5.54166667 Z" id="Shape" fill="#212121" fill-rule="nonzero"></path>
                </g>
            </g>
        </g>
    </g>
</svg>