<?xml version="1.0" encoding="UTF-8"?>
<svg width="13px" height="16px" viewBox="0 0 13 16" version="1.1" xmlns="http://www.w3.org/2000/svg">
  <title>Apple-15px</title>
  <g id="Home-Screen" stroke="none" stroke-width="1" fill="none" fill-rule="evenodd">
    <g id="Selected-Restaurant-Screen-Products-Added-to-Cart" transform="translate(-320.000000, -778.000000)"
       fill="#000000" fill-rule="nonzero">
      <g id="Payment" transform="translate(165.000000, 724.000000)">
        <g id="Apple-Pay" transform="translate(119.000000, 38.000000)">
          <g id="Group-3" transform="translate(36.000000, 14.500000)">
            <g id="Apple-15px" transform="translate(0.000000, 2.000000)">
              <path
                d="M10.5883586,7.95385443 C10.6102385,10.219507 12.6554372,10.973459 12.6780952,10.9830822 C12.6608021,11.0362551 12.3513066,12.0575378 11.6005874,13.1124498 C10.9516237,14.0244747 10.2780849,14.9331587 9.21706235,14.9519783 C8.17450157,14.9704496 7.8392601,14.3575156 6.64731798,14.3575156 C5.4557359,14.3575156 5.08326738,14.9331572 4.09636748,14.9704496 C3.07221154,15.0077148 2.29232754,13.9842155 1.63797068,13.0755315 C0.300871662,11.2167878 -0.720948646,7.82315848 0.651097745,5.53240333 C1.33270112,4.39480501 2.55077787,3.67443027 3.87289129,3.6559576 C4.87858624,3.6375117 5.82784275,4.30653262 6.44263682,4.30653262 C7.05704109,4.30653262 8.21058977,3.50197633 9.42327296,3.62013559 C9.93094356,3.64045264 11.3559833,3.81731847 12.2710405,5.105209 C12.1973094,5.14915871 10.5706764,6.05968595 10.5883586,7.95385657 M8.62898608,2.39041444 C9.17271734,1.75756342 9.53867982,0.876576281 9.43884131,0 C8.65509355,0.030288106 7.70736641,0.502180519 7.14520159,1.13468336 C6.64139394,1.69479409 6.20017171,2.59128702 6.31922111,3.45051396 C7.19280001,3.51550206 8.08522807,3.02366791 8.62898608,2.39041547"
                id="Shape"></path>
            </g>
          </g>
        </g>
      </g>
    </g>
  </g>
</svg>
