<?xml version="1.0" encoding="UTF-8"?>
<svg width="15px" height="15px" viewBox="0 0 15 15" version="1.1" xmlns="http://www.w3.org/2000/svg">
  <title>defaultPayment</title>
  <g id="Log-In/Sign-Up" stroke="none" stroke-width="1" fill="none" fill-rule="evenodd">
    <g id="Mobile-Payments-Filled" transform="translate(-237.000000, -300.000000)">
      <g id="1" transform="translate(20.000000, 290.000000)">
        <g id="defaultPayment" transform="translate(217.000000, 10.000000)">
          <path d="M0,0 L15,0 L15,15 L0,15 L0,0 Z M0,0 L15,0 L15,15 L0,15 L0,0 Z" id="Shape"></path>
          <path
            d="M10.36875,4.7375 L6.25,8.85625 L4.00625,6.61875 L3.125,7.5 L6.25,10.625 L11.25,5.625 L10.36875,4.7375 Z M7.5,1.25 C4.05,1.25 1.25,4.05 1.25,7.5 C1.25,10.95 4.05,13.75 7.5,13.75 C10.95,13.75 13.75,10.95 13.75,7.5 C13.75,4.05 10.95,1.25 7.5,1.25 Z M7.5,12.5 C4.7375,12.5 2.5,10.2625 2.5,7.5 C2.5,4.7375 4.7375,2.5 7.5,2.5 C10.2625,2.5 12.5,4.7375 12.5,7.5 C12.5,10.2625 10.2625,12.5 7.5,12.5 Z"
            id="Shape" fill="#4CAF50" fill-rule="nonzero"></path>
        </g>
      </g>
    </g>
  </g>
</svg>
