<?xml version="1.0" encoding="UTF-8"?>
<svg width="15px" height="16px" viewBox="0 0 15 16" version="1.1" xmlns="http://www.w3.org/2000/svg">
  <title>Google-15px</title>
  <g id="Home-Screen" stroke="none" stroke-width="1" fill="none" fill-rule="evenodd">
    <g id="Selected-Restaurant-Screen-Products-Added-to-Cart" transform="translate(-438.000000, -778.000000)"
       fill-rule="nonzero">
      <g id="Payment" transform="translate(165.000000, 724.000000)">
        <g id="Google-Pay" transform="translate(238.000000, 38.000000)">
          <g id="Google-15px" transform="translate(35.000000, 16.500000)">
            <path
              d="M3.32431641,9.0646875 L2.8021875,11.0138672 L0.893818359,11.0542383 C0.323496094,9.99641602 0,8.78613281 0,7.5 C0,6.25631836 0.302460937,5.08350586 0.83859375,4.05082031 L0.839003906,4.05082031 L2.53798828,4.36230469 L3.28224609,6.05109375 C3.12647461,6.50522461 3.04157227,6.99272461 3.04157227,7.5 C3.04163086,8.05054687 3.14135742,8.57803711 3.32431641,9.0646875 Z"
              id="Path" fill="#FBBB00"></path>
            <path
              d="M14.8689551,6.09890625 C14.9550879,6.55259766 15,7.02114258 15,7.5 C15,8.03695313 14.9435449,8.56072266 14.8359961,9.06594727 C14.4708984,10.7851758 13.5169043,12.2864063 12.1953516,13.3487695 L12.1949414,13.3483594 L10.0549805,13.2391699 L9.75210937,11.3484961 C10.6290234,10.8342188 11.3143359,10.0294043 11.675332,9.06594727 L7.66488281,9.06594727 L7.66488281,6.09890625 L11.7338379,6.09890625 L14.8689551,6.09890625 L14.8689551,6.09890625 Z"
              id="Path" fill="#518EF8"></path>
            <path
              d="M12.1949121,13.3483594 L12.1953223,13.3487695 C10.9100391,14.3818652 9.27732422,15 7.5,15 C4.64381836,15 2.16058594,13.403584 0.893818359,11.0542676 L3.32431641,9.0647168 C3.95768555,10.7550879 5.58832031,11.9583984 7.5,11.9583984 C8.32168945,11.9583984 9.09149414,11.7362695 9.75205078,11.3484961 L12.1949121,13.3483594 Z"
              id="Path" fill="#28B446"></path>
            <path
              d="M12.2872266,1.72664062 L9.85754883,3.71578125 C9.17390625,3.28845703 8.36578125,3.04160156 7.5,3.04160156 C5.54504883,3.04160156 3.88391602,4.30010742 3.28227539,6.05109375 L0.839003906,4.05082031 L0.83859375,4.05082031 C2.08681641,1.64422852 4.60136719,0 7.5,0 C9.31977539,0 10.9883203,0.648222656 12.2872266,1.72664062 Z"
              id="Path" fill="#F14336"></path>
          </g>
        </g>
      </g>
    </g>
  </g>
</svg>
