<?xml version="1.0" encoding="UTF-8"?>
<svg width="78px" height="78px" viewBox="0 0 78 78" version="1.1" xmlns="http://www.w3.org/2000/svg"
     xmlns:xlink="http://www.w3.org/1999/xlink">
  <title>Frozen Queen Ice Cream</title>
  <defs>
    <circle id="path-1" cx="39" cy="39" r="39"></circle>
  </defs>
  <g id="Log-In/Sign-Up" stroke="none" stroke-width="1" fill="none" fill-rule="evenodd">
    <g id="Mobile-Order-History-Current" transform="translate(-28.000000, -396.000000)">
      <g id="Shinjuku-Ramen" transform="translate(20.000000, 380.000000)">
        <g id="Frozen-Queen-Ice-Cream" transform="translate(8.000000, 16.000000)">
          <mask id="mask-2" fill="white">
            <use xlink:href="#path-1"></use>
          </mask>
          <use id="Mask" fill="#FFFFFF" xlink:href="#path-1"></use>
          <g id="Ice-Cream-Shop-Logo-3" mask="url(#mask-2)">
            <g transform="translate(-19.000000, 0.000000)">
              <rect id="Rectangle" fill="#93EBDF" x="0.0194902549" y="0.0194902549" width="116.941529"
                    height="77.9610195"></rect>
              <g id="Group" stroke-width="1" fill="none">
                <g fill="#AFFAF0" id="Path">
                  <polygon
                    points="17.8296852 2.56881559 19.0068966 2.92743628 19.0302849 1.69565217 19.7358321 0.686056972 18.5703148 0.284557721 18.3715142 0.0194902549 17.2878561 0.0194902549 17.0851574 0.284557721 15.9235382 0.686056972 16.6290855 1.69565217 16.6485757 2.92743628"></polygon>
                  <polygon
                    points="26.8653673 2.56881559 28.0425787 2.92743628 28.065967 1.69565217 28.7715142 0.686056972 27.605997 0.284557721 27.4071964 0.0194902549 26.3235382 0.0194902549 26.1208396 0.284557721 24.9592204 0.686056972 25.6647676 1.69565217 25.6842579 2.92743628"></polygon>
                  <polygon
                    points="35.9010495 2.56881559 37.0782609 2.92743628 37.1016492 1.69565217 37.8071964 0.686056972 36.6416792 0.284557721 36.4428786 0.0194902549 35.3592204 0.0194902549 35.1604198 0.284557721 33.9949025 0.686056972 34.7004498 1.69565217 34.71994 2.92743628"></polygon>
                  <polygon
                    points="44.9367316 2.56881559 46.113943 2.92743628 46.1373313 1.69565217 46.8428786 0.686056972 45.6773613 0.284557721 45.4785607 0.0194902549 44.3949025 0.0194902549 44.1961019 0.284557721 43.0305847 0.686056972 43.7361319 1.69565217 43.7595202 2.92743628"></polygon>
                  <polygon
                    points="53.9724138 2.56881559 55.1496252 2.92743628 55.1730135 1.69565217 55.8785607 0.686056972 54.7130435 0.284557721 54.5142429 0.0194902549 53.4305847 0.0194902549 53.2317841 0.284557721 52.0662669 0.686056972 52.7718141 1.69565217 52.7952024 2.92743628"></polygon>
                  <polygon
                    points="63.008096 2.56881559 64.1853073 2.92743628 64.2086957 1.69565217 64.9142429 0.686056972 63.7487256 0.284557721 63.549925 0.0194902549 62.4662669 0.0194902549 62.2674663 0.284557721 61.101949 0.686056972 61.8074963 1.69565217 61.8308846 2.92743628"></polygon>
                  <polygon
                    points="72.0437781 2.56881559 73.2209895 2.92743628 73.2443778 1.69565217 73.949925 0.686056972 72.7844078 0.284557721 72.5856072 0.0194902549 71.501949 0.0194902549 71.3031484 0.284557721 70.1376312 0.686056972 70.8431784 1.69565217 70.8665667 2.92743628"></polygon>
                  <polygon
                    points="79.9022489 2.92743628 81.0794603 2.56881559 82.2566717 2.92743628 82.28006 1.69565217 82.9856072 0.686056972 81.82009 0.284557721 81.6212894 0.0194902549 80.5376312 0.0194902549 80.3388306 0.284557721 79.1733133 0.686056972 79.8788606 1.69565217"></polygon>
                  <polygon
                    points="90.1151424 2.56881559 91.2962519 2.92743628 91.3157421 1.69565217 92.0212894 0.686056972 90.8596702 0.284557721 90.6569715 0.0194902549 89.5733133 0.0194902549 89.3745127 0.284557721 88.2089955 0.686056972 88.9145427 1.69565217 88.937931 2.92743628"></polygon>
                </g>
                <g transform="translate(0.000000, 5.535232)" fill="#AFFAF0" id="Path">
                  <g transform="translate(2.338831, 0.000000)">
                    <polygon
                      points="20.0086957 3.28605697 21.185907 3.64467766 21.2092954 2.41289355 21.9148426 1.40329835 20.7493253 1.0017991 20.0086957 0.0155922039 19.2641679 1.0017991 18.1025487 1.40329835 18.808096 2.41289355 18.8275862 3.64467766"></polygon>
                    <polygon
                      points="29.0443778 3.28605697 30.2215892 3.64467766 30.2449775 2.41289355 30.9505247 1.40329835 29.7850075 1.0017991 29.0443778 0.0155922039 28.3037481 1.0017991 27.1382309 1.40329835 27.8437781 2.41289355 27.8632684 3.64467766"></polygon>
                    <polygon
                      points="38.08006 3.28605697 39.2572714 3.64467766 39.2806597 2.41289355 39.9862069 1.40329835 38.8206897 1.0017991 38.08006 0.0155922039 37.3394303 1.0017991 36.173913 1.40329835 36.8794603 2.41289355 36.9028486 3.64467766"></polygon>
                    <polygon
                      points="47.1157421 3.28605697 48.2929535 3.64467766 48.3163418 2.41289355 49.0218891 1.40329835 47.8563718 1.0017991 47.1157421 0.0155922039 46.3751124 1.0017991 45.2095952 1.40329835 45.9151424 2.41289355 45.9385307 3.64467766"></polygon>
                    <polygon
                      points="56.1514243 3.28605697 57.3286357 3.64467766 57.352024 2.41289355 58.0575712 1.40329835 56.892054 1.0017991 56.1514243 0.0155922039 55.4107946 1.0017991 54.2452774 1.40329835 54.9508246 2.41289355 54.9742129 3.64467766"></polygon>
                    <polygon
                      points="65.1871064 3.28605697 66.3643178 3.64467766 66.3877061 2.41289355 67.0932534 1.40329835 65.9277361 1.0017991 65.1871064 0.0155922039 64.4464768 1.0017991 63.2809595 1.40329835 63.9865067 2.41289355 64.0098951 3.64467766"></polygon>
                    <polygon
                      points="74.2227886 3.28605697 75.4 3.64467766 75.4233883 2.41289355 76.1289355 1.40329835 74.9634183 1.0017991 74.2227886 0.0155922039 73.4821589 1.0017991 72.3166417 1.40329835 73.0221889 2.41289355 73.0455772 3.64467766"></polygon>
                    <polygon
                      points="83.2584708 3.28605697 84.4395802 3.64467766 84.4590705 2.41289355 85.1646177 1.40329835 83.9991004 1.0017991 83.2584708 0.0155922039 82.5178411 1.0017991 81.3523238 1.40329835 82.0578711 2.41289355 82.0812594 3.64467766"></polygon>
                    <polygon
                      points="92.2941529 3.28605697 93.4752624 3.64467766 93.4947526 2.41289355 94.2002999 1.40329835 93.0386807 1.0017991 92.2941529 0.0155922039 91.5535232 1.0017991 90.388006 1.40329835 91.0935532 2.41289355 91.1169415 3.64467766"></polygon>
                  </g>
                  <g transform="translate(0.000000, 7.640180)">
                    <polygon
                      points="17.8296852 3.29775112 19.0068966 3.65637181 19.0302849 2.42458771 19.7358321 1.4149925 18.5703148 1.01349325 17.8296852 0.0311844078 17.0851574 1.01349325 15.9235382 1.4149925 16.6290855 2.42458771 16.6485757 3.65637181"></polygon>
                    <polygon
                      points="26.8653673 3.29775112 28.0425787 3.65637181 28.065967 2.42458771 28.7715142 1.4149925 27.605997 1.01349325 26.8653673 0.0311844078 26.1208396 1.01349325 24.9592204 1.4149925 25.6647676 2.42458771 25.6842579 3.65637181"></polygon>
                    <polygon
                      points="35.9010495 3.29775112 37.0782609 3.65637181 37.1016492 2.42458771 37.8071964 1.4149925 36.6416792 1.01349325 35.9010495 0.0311844078 35.1604198 1.01349325 33.9949025 1.4149925 34.7004498 2.42458771 34.71994 3.65637181"></polygon>
                    <polygon
                      points="44.9367316 3.29775112 46.113943 3.65637181 46.1373313 2.42458771 46.8428786 1.4149925 45.6773613 1.01349325 44.9367316 0.0311844078 44.1961019 1.01349325 43.0305847 1.4149925 43.7361319 2.42458771 43.7595202 3.65637181"></polygon>
                    <polygon
                      points="53.9724138 3.29775112 55.1496252 3.65637181 55.1730135 2.42458771 55.8785607 1.4149925 54.7130435 1.01349325 53.9724138 0.0311844078 53.2317841 1.01349325 52.0662669 1.4149925 52.7718141 2.42458771 52.7952024 3.65637181"></polygon>
                    <polygon
                      points="63.008096 3.29775112 64.1853073 3.65637181 64.2086957 2.42458771 64.9142429 1.4149925 63.7487256 1.01349325 63.008096 0.0311844078 62.2674663 1.01349325 61.101949 1.4149925 61.8074963 2.42458771 61.8308846 3.65637181"></polygon>
                    <polygon
                      points="72.0437781 3.29775112 73.2209895 3.65637181 73.2443778 2.42458771 73.949925 1.4149925 72.7844078 1.01349325 72.0437781 0.0311844078 71.3031484 1.01349325 70.1376312 1.4149925 70.8431784 2.42458771 70.8665667 3.65637181"></polygon>
                    <polygon
                      points="79.9022489 3.65637181 81.0794603 3.29775112 82.2566717 3.65637181 82.28006 2.42458771 82.9856072 1.4149925 81.82009 1.01349325 81.0794603 0.0311844078 80.3388306 1.01349325 79.1733133 1.4149925 79.8788606 2.42458771"></polygon>
                    <polygon
                      points="90.1151424 3.29775112 91.2962519 3.65637181 91.3157421 2.42458771 92.0212894 1.4149925 90.8596702 1.01349325 90.1151424 0.0311844078 89.3745127 1.01349325 88.2089955 1.4149925 88.9145427 2.42458771 88.937931 3.65637181"></polygon>
                  </g>
                </g>
                <g transform="translate(0.000000, 19.451274)" fill="#AFFAF0" id="Path">
                  <g transform="translate(2.338831, 0.000000)">
                    <polygon
                      points="20.0086957 3.27436282 21.185907 3.63298351 21.2092954 2.4011994 21.9148426 1.3916042 20.7493253 0.990104948 20.0086957 0.00389805097 19.2641679 0.990104948 18.1025487 1.3916042 18.808096 2.4011994 18.8275862 3.63298351"></polygon>
                    <polygon
                      points="29.0443778 3.27436282 30.2215892 3.63298351 30.2449775 2.4011994 30.9505247 1.3916042 29.7850075 0.990104948 29.0443778 0.00389805097 28.3037481 0.990104948 27.1382309 1.3916042 27.8437781 2.4011994 27.8632684 3.63298351"></polygon>
                    <polygon
                      points="38.08006 3.27436282 39.2572714 3.63298351 39.2806597 2.4011994 39.9862069 1.3916042 38.8206897 0.990104948 38.08006 0.00389805097 37.3394303 0.990104948 36.173913 1.3916042 36.8794603 2.4011994 36.9028486 3.63298351"></polygon>
                    <polygon
                      points="47.1157421 3.27436282 48.2929535 3.63298351 48.3163418 2.4011994 49.0218891 1.3916042 47.8563718 0.990104948 47.1157421 0.00389805097 46.3751124 0.990104948 45.2095952 1.3916042 45.9151424 2.4011994 45.9385307 3.63298351"></polygon>
                    <polygon
                      points="56.1514243 3.27436282 57.3286357 3.63298351 57.352024 2.4011994 58.0575712 1.3916042 56.892054 0.990104948 56.1514243 0.00389805097 55.4107946 0.990104948 54.2452774 1.3916042 54.9508246 2.4011994 54.9742129 3.63298351"></polygon>
                    <polygon
                      points="65.1871064 3.27436282 66.3643178 3.63298351 66.3877061 2.4011994 67.0932534 1.3916042 65.9277361 0.990104948 65.1871064 0.00389805097 64.4464768 0.990104948 63.2809595 1.3916042 63.9865067 2.4011994 64.0098951 3.63298351"></polygon>
                    <polygon
                      points="74.2227886 3.27436282 75.4 3.63298351 75.4233883 2.4011994 76.1289355 1.3916042 74.9634183 0.990104948 74.2227886 0.00389805097 73.4821589 0.990104948 72.3166417 1.3916042 73.0221889 2.4011994 73.0455772 3.63298351"></polygon>
                    <polygon
                      points="83.2584708 3.27436282 84.4395802 3.63298351 84.4590705 2.4011994 85.1646177 1.3916042 83.9991004 0.990104948 83.2584708 0.00389805097 82.5178411 0.990104948 81.3523238 1.3916042 82.0578711 2.4011994 82.0812594 3.63298351"></polygon>
                    <polygon
                      points="92.2941529 3.27436282 93.4752624 3.63298351 93.4947526 2.4011994 94.2002999 1.3916042 93.0386807 0.990104948 92.2941529 0.00389805097 91.5535232 0.990104948 90.388006 1.3916042 91.0935532 2.4011994 91.1169415 3.63298351"></polygon>
                  </g>
                  <g transform="translate(0.000000, 7.640180)">
                    <polygon
                      points="17.8296852 3.28605697 19.0068966 3.64467766 19.0302849 2.41289355 19.7358321 1.40329835 18.5703148 1.0017991 17.8296852 0.0155922039 17.0851574 1.0017991 15.9235382 1.40329835 16.6290855 2.41289355 16.6485757 3.64467766"></polygon>
                    <polygon
                      points="26.8653673 3.28605697 28.0425787 3.64467766 28.065967 2.41289355 28.7715142 1.40329835 27.605997 1.0017991 26.8653673 0.0155922039 26.1208396 1.0017991 24.9592204 1.40329835 25.6647676 2.41289355 25.6842579 3.64467766"></polygon>
                    <polygon
                      points="35.9010495 3.28605697 37.0782609 3.64467766 37.1016492 2.41289355 37.8071964 1.40329835 36.6416792 1.0017991 35.9010495 0.0155922039 35.1604198 1.0017991 33.9949025 1.40329835 34.7004498 2.41289355 34.71994 3.64467766"></polygon>
                    <polygon
                      points="44.9367316 3.28605697 46.113943 3.64467766 46.1373313 2.41289355 46.8428786 1.40329835 45.6773613 1.0017991 44.9367316 0.0155922039 44.1961019 1.0017991 43.0305847 1.40329835 43.7361319 2.41289355 43.7595202 3.64467766"></polygon>
                    <polygon
                      points="53.9724138 3.28605697 55.1496252 3.64467766 55.1730135 2.41289355 55.8785607 1.40329835 54.7130435 1.0017991 53.9724138 0.0155922039 53.2317841 1.0017991 52.0662669 1.40329835 52.7718141 2.41289355 52.7952024 3.64467766"></polygon>
                    <polygon
                      points="63.008096 3.28605697 64.1853073 3.64467766 64.2086957 2.41289355 64.9142429 1.40329835 63.7487256 1.0017991 63.008096 0.0155922039 62.2674663 1.0017991 61.101949 1.40329835 61.8074963 2.41289355 61.8308846 3.64467766"></polygon>
                    <polygon
                      points="72.0437781 3.28605697 73.2209895 3.64467766 73.2443778 2.41289355 73.949925 1.40329835 72.7844078 1.0017991 72.0437781 0.0155922039 71.3031484 1.0017991 70.1376312 1.40329835 70.8431784 2.41289355 70.8665667 3.64467766"></polygon>
                    <polygon
                      points="79.9022489 3.64467766 81.0794603 3.28605697 82.2566717 3.64467766 82.28006 2.41289355 82.9856072 1.40329835 81.82009 1.0017991 81.0794603 0.0155922039 80.3388306 1.0017991 79.1733133 1.40329835 79.8788606 2.41289355"></polygon>
                    <polygon
                      points="90.1151424 3.28605697 91.2962519 3.64467766 91.3157421 2.41289355 92.0212894 1.40329835 90.8596702 1.0017991 90.1151424 0.0155922039 89.3745127 1.0017991 88.2089955 1.40329835 88.9145427 2.41289355 88.937931 3.64467766"></polygon>
                  </g>
                </g>
                <g transform="translate(0.000000, 33.328336)" fill="#AFFAF0" id="Path">
                  <g transform="translate(2.338831, 0.000000)">
                    <polygon
                      points="20.0086957 3.29775112 21.185907 3.66026987 21.2092954 2.42848576 21.9148426 1.41889055 20.7493253 1.0173913 20.0086957 0.0311844078 19.2641679 1.0173913 18.1025487 1.41889055 18.808096 2.42848576 18.8275862 3.66026987"></polygon>
                    <polygon
                      points="29.0443778 3.29775112 30.2215892 3.66026987 30.2449775 2.42848576 30.9505247 1.41889055 29.7850075 1.0173913 29.0443778 0.0311844078 28.3037481 1.0173913 27.1382309 1.41889055 27.8437781 2.42848576 27.8632684 3.66026987"></polygon>
                    <polygon
                      points="38.08006 3.29775112 39.2572714 3.66026987 39.2806597 2.42848576 39.9862069 1.41889055 38.8206897 1.0173913 38.08006 0.0311844078 37.3394303 1.0173913 36.173913 1.41889055 36.8794603 2.42848576 36.9028486 3.66026987"></polygon>
                    <polygon
                      points="47.1157421 3.29775112 48.2929535 3.66026987 48.3163418 2.42848576 49.0218891 1.41889055 47.8563718 1.0173913 47.1157421 0.0311844078 46.3751124 1.0173913 45.2095952 1.41889055 45.9151424 2.42848576 45.9385307 3.66026987"></polygon>
                    <polygon
                      points="56.1514243 3.29775112 57.3286357 3.66026987 57.352024 2.42848576 58.0575712 1.41889055 56.892054 1.0173913 56.1514243 0.0311844078 55.4107946 1.0173913 54.2452774 1.41889055 54.9508246 2.42848576 54.9742129 3.66026987"></polygon>
                    <polygon
                      points="65.1871064 3.29775112 66.3643178 3.66026987 66.3877061 2.42848576 67.0932534 1.41889055 65.9277361 1.0173913 65.1871064 0.0311844078 64.4464768 1.0173913 63.2809595 1.41889055 63.9865067 2.42848576 64.0098951 3.66026987"></polygon>
                    <polygon
                      points="74.2227886 3.29775112 75.4 3.66026987 75.4233883 2.42848576 76.1289355 1.41889055 74.9634183 1.0173913 74.2227886 0.0311844078 73.4821589 1.0173913 72.3166417 1.41889055 73.0221889 2.42848576 73.0455772 3.66026987"></polygon>
                    <polygon
                      points="83.2584708 3.29775112 84.4395802 3.66026987 84.4590705 2.42848576 85.1646177 1.41889055 83.9991004 1.0173913 83.2584708 0.0311844078 82.5178411 1.0173913 81.3523238 1.41889055 82.0578711 2.42848576 82.0812594 3.66026987"></polygon>
                    <polygon
                      points="92.2941529 3.29775112 93.4752624 3.66026987 93.4947526 2.42848576 94.2002999 1.41889055 93.0386807 1.0173913 92.2941529 0.0311844078 91.5535232 1.0173913 90.388006 1.41889055 91.0935532 2.42848576 91.1169415 3.66026987"></polygon>
                  </g>
                  <g transform="translate(0.000000, 7.679160)">
                    <polygon
                      points="17.8296852 3.27046477 19.0068966 3.63298351 19.0302849 2.4011994 19.7358321 1.3916042 18.5703148 0.990104948 17.8296852 0.00389805097 17.0851574 0.990104948 15.9235382 1.3916042 16.6290855 2.4011994 16.6485757 3.63298351"></polygon>
                    <polygon
                      points="26.8653673 3.27046477 28.0425787 3.63298351 28.065967 2.4011994 28.7715142 1.3916042 27.605997 0.990104948 26.8653673 0.00389805097 26.1208396 0.990104948 24.9592204 1.3916042 25.6647676 2.4011994 25.6842579 3.63298351"></polygon>
                    <polygon
                      points="35.9010495 3.27046477 37.0782609 3.63298351 37.1016492 2.4011994 37.8071964 1.3916042 36.6416792 0.990104948 35.9010495 0.00389805097 35.1604198 0.990104948 33.9949025 1.3916042 34.7004498 2.4011994 34.71994 3.63298351"></polygon>
                    <polygon
                      points="44.9367316 3.27046477 46.113943 3.63298351 46.1373313 2.4011994 46.8428786 1.3916042 45.6773613 0.990104948 44.9367316 0.00389805097 44.1961019 0.990104948 43.0305847 1.3916042 43.7361319 2.4011994 43.7595202 3.63298351"></polygon>
                    <polygon
                      points="53.9724138 3.27046477 55.1496252 3.63298351 55.1730135 2.4011994 55.8785607 1.3916042 54.7130435 0.990104948 53.9724138 0.00389805097 53.2317841 0.990104948 52.0662669 1.3916042 52.7718141 2.4011994 52.7952024 3.63298351"></polygon>
                    <polygon
                      points="63.008096 3.27046477 64.1853073 3.63298351 64.2086957 2.4011994 64.9142429 1.3916042 63.7487256 0.990104948 63.008096 0.00389805097 62.2674663 0.990104948 61.101949 1.3916042 61.8074963 2.4011994 61.8308846 3.63298351"></polygon>
                    <polygon
                      points="72.0437781 3.27046477 73.2209895 3.63298351 73.2443778 2.4011994 73.949925 1.3916042 72.7844078 0.990104948 72.0437781 0.00389805097 71.3031484 0.990104948 70.1376312 1.3916042 70.8431784 2.4011994 70.8665667 3.63298351"></polygon>
                    <polygon
                      points="79.9022489 3.63298351 81.0794603 3.27046477 82.2566717 3.63298351 82.28006 2.4011994 82.9856072 1.3916042 81.82009 0.990104948 81.0794603 0.00389805097 80.3388306 0.990104948 79.1733133 1.3916042 79.8788606 2.4011994"></polygon>
                    <polygon
                      points="90.1151424 3.27046477 91.2962519 3.63298351 91.3157421 2.4011994 92.0212894 1.3916042 90.8596702 0.990104948 90.1151424 0.00389805097 89.3745127 0.990104948 88.2089955 1.3916042 88.9145427 2.4011994 88.937931 3.63298351"></polygon>
                  </g>
                </g>
                <g transform="translate(0.000000, 47.244378)" fill="#AFFAF0" id="Path">
                  <g transform="translate(2.338831, 0.000000)">
                    <polygon
                      points="20.0086957 3.28605697 21.185907 3.64857571 21.2092954 2.4167916 21.9148426 1.40329835 20.7493253 1.0017991 20.0086957 0.0194902549 19.2641679 1.0017991 18.1025487 1.40329835 18.808096 2.4167916 18.8275862 3.64857571"></polygon>
                    <polygon
                      points="29.0443778 3.28605697 30.2215892 3.64857571 30.2449775 2.4167916 30.9505247 1.40329835 29.7850075 1.0017991 29.0443778 0.0194902549 28.3037481 1.0017991 27.1382309 1.40329835 27.8437781 2.4167916 27.8632684 3.64857571"></polygon>
                    <polygon
                      points="38.08006 3.28605697 39.2572714 3.64857571 39.2806597 2.4167916 39.9862069 1.40329835 38.8206897 1.0017991 38.08006 0.0194902549 37.3394303 1.0017991 36.173913 1.40329835 36.8794603 2.4167916 36.9028486 3.64857571"></polygon>
                    <polygon
                      points="47.1157421 3.28605697 48.2929535 3.64857571 48.3163418 2.4167916 49.0218891 1.40329835 47.8563718 1.0017991 47.1157421 0.0194902549 46.3751124 1.0017991 45.2095952 1.40329835 45.9151424 2.4167916 45.9385307 3.64857571"></polygon>
                    <polygon
                      points="56.1514243 3.28605697 57.3286357 3.64857571 57.352024 2.4167916 58.0575712 1.40329835 56.892054 1.0017991 56.1514243 0.0194902549 55.4107946 1.0017991 54.2452774 1.40329835 54.9508246 2.4167916 54.9742129 3.64857571"></polygon>
                    <polygon
                      points="65.1871064 3.28605697 66.3643178 3.64857571 66.3877061 2.4167916 67.0932534 1.40329835 65.9277361 1.0017991 65.1871064 0.0194902549 64.4464768 1.0017991 63.2809595 1.40329835 63.9865067 2.4167916 64.0098951 3.64857571"></polygon>
                    <polygon
                      points="74.2227886 3.28605697 75.4 3.64857571 75.4233883 2.4167916 76.1289355 1.40329835 74.9634183 1.0017991 74.2227886 0.0194902549 73.4821589 1.0017991 72.3166417 1.40329835 73.0221889 2.4167916 73.0455772 3.64857571"></polygon>
                    <polygon
                      points="83.2584708 3.28605697 84.4395802 3.64857571 84.4590705 2.4167916 85.1646177 1.40329835 83.9991004 1.0017991 83.2584708 0.0194902549 82.5178411 1.0017991 81.3523238 1.40329835 82.0578711 2.4167916 82.0812594 3.64857571"></polygon>
                    <polygon
                      points="92.2941529 3.28605697 93.4752624 3.64857571 93.4947526 2.4167916 94.2002999 1.40329835 93.0386807 1.0017991 92.2941529 0.0194902549 91.5535232 1.0017991 90.388006 1.40329835 91.0935532 2.4167916 91.1169415 3.64857571"></polygon>
                  </g>
                  <g transform="translate(0.000000, 7.640180)">
                    <polygon
                      points="17.8296852 3.29775112 19.0068966 3.66026987 19.0302849 2.42848576 19.7358321 1.41889055 18.5703148 1.0173913 17.8296852 0.0311844078 17.0851574 1.0173913 15.9235382 1.41889055 16.6290855 2.42848576 16.6485757 3.66026987"></polygon>
                    <polygon
                      points="26.8653673 3.29775112 28.0425787 3.66026987 28.065967 2.42848576 28.7715142 1.41889055 27.605997 1.0173913 26.8653673 0.0311844078 26.1208396 1.0173913 24.9592204 1.41889055 25.6647676 2.42848576 25.6842579 3.66026987"></polygon>
                    <polygon
                      points="35.9010495 3.29775112 37.0782609 3.66026987 37.1016492 2.42848576 37.8071964 1.41889055 36.6416792 1.0173913 35.9010495 0.0311844078 35.1604198 1.0173913 33.9949025 1.41889055 34.7004498 2.42848576 34.71994 3.66026987"></polygon>
                    <polygon
                      points="44.9367316 3.29775112 46.113943 3.66026987 46.1373313 2.42848576 46.8428786 1.41889055 45.6773613 1.0173913 44.9367316 0.0311844078 44.1961019 1.0173913 43.0305847 1.41889055 43.7361319 2.42848576 43.7595202 3.66026987"></polygon>
                    <polygon
                      points="53.9724138 3.29775112 55.1496252 3.66026987 55.1730135 2.42848576 55.8785607 1.41889055 54.7130435 1.0173913 53.9724138 0.0311844078 53.2317841 1.0173913 52.0662669 1.41889055 52.7718141 2.42848576 52.7952024 3.66026987"></polygon>
                    <polygon
                      points="63.008096 3.29775112 64.1853073 3.66026987 64.2086957 2.42848576 64.9142429 1.41889055 63.7487256 1.0173913 63.008096 0.0311844078 62.2674663 1.0173913 61.101949 1.41889055 61.8074963 2.42848576 61.8308846 3.66026987"></polygon>
                    <polygon
                      points="72.0437781 3.29775112 73.2209895 3.66026987 73.2443778 2.42848576 73.949925 1.41889055 72.7844078 1.0173913 72.0437781 0.0311844078 71.3031484 1.0173913 70.1376312 1.41889055 70.8431784 2.42848576 70.8665667 3.66026987"></polygon>
                    <polygon
                      points="79.9022489 3.66026987 81.0794603 3.29775112 82.2566717 3.66026987 82.28006 2.42848576 82.9856072 1.41889055 81.82009 1.0173913 81.0794603 0.0311844078 80.3388306 1.0173913 79.1733133 1.41889055 79.8788606 2.42848576"></polygon>
                    <polygon
                      points="90.1151424 3.29775112 91.2962519 3.66026987 91.3157421 2.42848576 92.0212894 1.41889055 90.8596702 1.0173913 90.1151424 0.0311844078 89.3745127 1.0173913 88.2089955 1.41889055 88.9145427 2.42848576 88.937931 3.66026987"></polygon>
                  </g>
                </g>
                <g transform="translate(0.000000, 61.160420)" fill="#AFFAF0" id="Path">
                  <g transform="translate(2.338831, 0.000000)">
                    <polygon
                      points="20.0086957 3.27436282 21.185907 3.63298351 21.2092954 2.4011994 21.9148426 1.3916042 20.7493253 0.990104948 20.0086957 0.00779610195 19.2641679 0.990104948 18.1025487 1.3916042 18.808096 2.4011994 18.8275862 3.63298351"></polygon>
                    <polygon
                      points="29.0443778 3.27436282 30.2215892 3.63298351 30.2449775 2.4011994 30.9505247 1.3916042 29.7850075 0.990104948 29.0443778 0.00779610195 28.3037481 0.990104948 27.1382309 1.3916042 27.8437781 2.4011994 27.8632684 3.63298351"></polygon>
                    <polygon
                      points="38.08006 3.27436282 39.2572714 3.63298351 39.2806597 2.4011994 39.9862069 1.3916042 38.8206897 0.990104948 38.08006 0.00779610195 37.3394303 0.990104948 36.173913 1.3916042 36.8794603 2.4011994 36.9028486 3.63298351"></polygon>
                    <polygon
                      points="47.1157421 3.27436282 48.2929535 3.63298351 48.3163418 2.4011994 49.0218891 1.3916042 47.8563718 0.990104948 47.1157421 0.00779610195 46.3751124 0.990104948 45.2095952 1.3916042 45.9151424 2.4011994 45.9385307 3.63298351"></polygon>
                    <polygon
                      points="56.1514243 3.27436282 57.3286357 3.63298351 57.352024 2.4011994 58.0575712 1.3916042 56.892054 0.990104948 56.1514243 0.00779610195 55.4107946 0.990104948 54.2452774 1.3916042 54.9508246 2.4011994 54.9742129 3.63298351"></polygon>
                    <polygon
                      points="65.1871064 3.27436282 66.3643178 3.63298351 66.3877061 2.4011994 67.0932534 1.3916042 65.9277361 0.990104948 65.1871064 0.00779610195 64.4464768 0.990104948 63.2809595 1.3916042 63.9865067 2.4011994 64.0098951 3.63298351"></polygon>
                    <polygon
                      points="74.2227886 3.27436282 75.4 3.63298351 75.4233883 2.4011994 76.1289355 1.3916042 74.9634183 0.990104948 74.2227886 0.00779610195 73.4821589 0.990104948 72.3166417 1.3916042 73.0221889 2.4011994 73.0455772 3.63298351"></polygon>
                    <polygon
                      points="83.2584708 3.27436282 84.4395802 3.63298351 84.4590705 2.4011994 85.1646177 1.3916042 83.9991004 0.990104948 83.2584708 0.00779610195 82.5178411 0.990104948 81.3523238 1.3916042 82.0578711 2.4011994 82.0812594 3.63298351"></polygon>
                    <polygon
                      points="92.2941529 3.27436282 93.4752624 3.63298351 93.4947526 2.4011994 94.2002999 1.3916042 93.0386807 0.990104948 92.2941529 0.00779610195 91.5535232 0.990104948 90.388006 1.3916042 91.0935532 2.4011994 91.1169415 3.63298351"></polygon>
                  </g>
                  <g transform="translate(0.000000, 7.640180)">
                    <polygon
                      points="17.8296852 3.28605697 19.0068966 3.64857571 19.0302849 2.41289355 19.7358321 1.40329835 18.5703148 1.0017991 17.8296852 0.0194902549 17.0851574 1.0017991 15.9235382 1.40329835 16.6290855 2.41289355 16.6485757 3.64857571"></polygon>
                    <polygon
                      points="26.8653673 3.28605697 28.0425787 3.64857571 28.065967 2.41289355 28.7715142 1.40329835 27.605997 1.0017991 26.8653673 0.0194902549 26.1208396 1.0017991 24.9592204 1.40329835 25.6647676 2.41289355 25.6842579 3.64857571"></polygon>
                    <polygon
                      points="35.9010495 3.28605697 37.0782609 3.64857571 37.1016492 2.41289355 37.8071964 1.40329835 36.6416792 1.0017991 35.9010495 0.0194902549 35.1604198 1.0017991 33.9949025 1.40329835 34.7004498 2.41289355 34.71994 3.64857571"></polygon>
                    <polygon
                      points="44.9367316 3.28605697 46.113943 3.64857571 46.1373313 2.41289355 46.8428786 1.40329835 45.6773613 1.0017991 44.9367316 0.0194902549 44.1961019 1.0017991 43.0305847 1.40329835 43.7361319 2.41289355 43.7595202 3.64857571"></polygon>
                    <polygon
                      points="53.9724138 3.28605697 55.1496252 3.64857571 55.1730135 2.41289355 55.8785607 1.40329835 54.7130435 1.0017991 53.9724138 0.0194902549 53.2317841 1.0017991 52.0662669 1.40329835 52.7718141 2.41289355 52.7952024 3.64857571"></polygon>
                    <polygon
                      points="63.008096 3.28605697 64.1853073 3.64857571 64.2086957 2.41289355 64.9142429 1.40329835 63.7487256 1.0017991 63.008096 0.0194902549 62.2674663 1.0017991 61.101949 1.40329835 61.8074963 2.41289355 61.8308846 3.64857571"></polygon>
                    <polygon
                      points="72.0437781 3.28605697 73.2209895 3.64857571 73.2443778 2.41289355 73.949925 1.40329835 72.7844078 1.0017991 72.0437781 0.0194902549 71.3031484 1.0017991 70.1376312 1.40329835 70.8431784 2.41289355 70.8665667 3.64857571"></polygon>
                    <polygon
                      points="79.9022489 3.64857571 81.0794603 3.28605697 82.2566717 3.64857571 82.28006 2.41289355 82.9856072 1.40329835 81.82009 1.0017991 81.0794603 0.0194902549 80.3388306 1.0017991 79.1733133 1.40329835 79.8788606 2.41289355"></polygon>
                    <polygon
                      points="90.1151424 3.28605697 91.2962519 3.64857571 91.3157421 2.41289355 92.0212894 1.40329835 90.8596702 1.0017991 90.1151424 0.0194902549 89.3745127 1.0017991 88.2089955 1.40329835 88.9145427 2.41289355 88.937931 3.64857571"></polygon>
                  </g>
                </g>
                <g transform="translate(2.338831, 75.037481)" fill="#AFFAF0" id="Path">
                  <polygon
                    points="21.1976012 2.94302849 21.2092954 2.42848576 21.9148426 1.41889055 20.7493253 1.0173913 20.0086957 0.0350824588 19.2641679 1.0173913 18.1025487 1.41889055 18.808096 2.42848576 18.8158921 2.94302849"></polygon>
                  <polygon
                    points="30.2332834 2.94302849 30.2449775 2.42848576 30.9505247 1.41889055 29.7850075 1.0173913 29.0443778 0.0350824588 28.3037481 1.0173913 27.1382309 1.41889055 27.8437781 2.42848576 27.8515742 2.94302849"></polygon>
                  <polygon
                    points="39.2728636 2.94302849 39.2806597 2.42848576 39.9862069 1.41889055 38.8206897 1.0173913 38.08006 0.0350824588 37.3394303 1.0173913 36.173913 1.41889055 36.8794603 2.42848576 36.8872564 2.94302849"></polygon>
                  <polygon
                    points="48.3085457 2.94302849 48.3163418 2.42848576 49.0218891 1.41889055 47.8563718 1.0173913 47.1157421 0.0350824588 46.3751124 1.0173913 45.2095952 1.41889055 45.9151424 2.42848576 45.9229385 2.94302849"></polygon>
                  <polygon
                    points="57.3442279 2.94302849 57.352024 2.42848576 58.0575712 1.41889055 56.892054 1.0173913 56.1514243 0.0350824588 55.4107946 1.0173913 54.2452774 1.41889055 54.9508246 2.42848576 54.9586207 2.94302849"></polygon>
                  <polygon
                    points="66.37991 2.94302849 66.3877061 2.42848576 67.0932534 1.41889055 65.9277361 1.0173913 65.1871064 0.0350824588 64.4464768 1.0173913 63.2809595 1.41889055 63.9865067 2.42848576 63.9943028 2.94302849"></polygon>
                  <polygon
                    points="75.4155922 2.94302849 75.4233883 2.42848576 76.1289355 1.41889055 74.9634183 1.0173913 74.2227886 0.0350824588 73.4821589 1.0173913 72.3166417 1.41889055 73.0221889 2.42848576 73.029985 2.94302849"></polygon>
                  <polygon
                    points="84.4512744 2.94302849 84.4590705 2.42848576 85.1646177 1.41889055 83.9991004 1.0173913 83.2584708 0.0350824588 82.5178411 1.0173913 81.3523238 1.41889055 82.0578711 2.42848576 82.0695652 2.94302849"></polygon>
                  <polygon
                    points="93.4869565 2.94302849 93.4947526 2.42848576 94.2002999 1.41889055 93.0386807 1.0173913 92.2941529 0.0350824588 91.5535232 1.0173913 90.388006 1.41889055 91.0935532 2.42848576 91.1052474 2.94302849"></polygon>
                </g>
              </g>
              <g id="Group" stroke-width="1" fill="none" transform="translate(37.538231, 14.656672)">
                <path
                  d="M40.0758621,32.5604198 L40.0758621,19.3928036 C40.0758621,8.90704648 31.4962519,0.331334333 21.0143928,0.331334333 L21.0143928,0.331334333 C10.5286357,0.331334333 1.95292354,8.91094453 1.95292354,19.3928036 L1.95292354,32.5565217 C1.95292354,37.0002999 3.49265367,41.0971514 6.06536732,44.3481259 L35.9634183,44.3481259 C38.5361319,41.1010495 40.0758621,37.0002999 40.0758621,32.5604198 Z"
                  id="Path" fill="#E9A2CA"></path>
                <path
                  d="M31.3286357,44.352024 C34.8095952,41.4089955 37.0314843,37.011994 37.0314843,32.1238381 L37.0314843,19.8293853 C37.0314843,11.0197901 29.823988,3.81229385 21.0143928,3.81229385 C12.2047976,3.81229385 4.99730135,11.0197901 4.99730135,19.8293853 L4.99730135,32.1238381 C4.99730135,37.011994 7.2191904,41.4089955 10.7001499,44.352024 L31.3286357,44.352024 Z"
                  id="Path" fill="#FFFFFF"></path>
                <path
                  d="M10.4896552,44.5976012 L10.5832084,44.6755622 L31.4494753,44.6755622 L31.5391304,44.5976012 C33.3517241,43.0656672 34.8251874,41.1517241 35.8386807,38.9805097 C36.8131934,36.8911544 37.3589205,34.567916 37.3589205,32.11994 L37.3589205,19.8293853 C37.3589205,15.3349325 35.5190405,11.2497751 32.5565217,8.28725637 C29.594003,5.32473763 25.5088456,3.48485757 21.0143928,3.48485757 C16.51994,3.48485757 12.4347826,5.32473763 9.47226387,8.28725637 C6.50974513,11.2497751 4.67376312,15.3349325 4.67376312,19.8293853 L4.67376312,32.1238381 C4.67376312,34.567916 5.21949025,36.8950525 6.194003,38.9844078 C7.19970015,41.1517241 8.67706147,43.0656672 10.4896552,44.5976012 Z M5.32083958,32.1238381 L5.32083958,19.8293853 C5.32083958,15.5142429 7.08665667,11.5889055 9.93223388,8.74722639 C12.7778111,5.90164918 16.6992504,4.13583208 21.0143928,4.13583208 C25.3295352,4.13583208 29.2548726,5.90164918 32.0965517,8.74722639 C34.9421289,11.5928036 36.707946,15.5142429 36.707946,19.8293853 L36.707946,32.1238381 C36.707946,34.4704648 36.1856072,36.704048 35.250075,38.7076462 C34.2950525,40.758021 32.9073463,42.5706147 31.2116942,44.0245877 L10.8170915,44.0245877 C9.12143928,42.5667166 7.73373313,40.7541229 6.77871064,38.7076462 C5.84317841,36.704048 5.32083958,34.4704648 5.32083958,32.1238381 Z"
                  id="Shape" fill="#653042"></path>
                <path
                  d="M29.056072,44.352024 C33.1061469,41.7091454 35.7958021,37.1367316 35.7958021,31.967916 L35.7958021,19.9892054 C35.7958021,11.8578711 29.1418291,5.20389805 21.0104948,5.20389805 L21.0104948,5.20389805 C12.8791604,5.20389805 6.22518741,11.8578711 6.22518741,19.9892054 L6.22518741,31.964018 C6.22518741,37.1328336 8.91484258,41.7052474 12.9649175,44.3481259 L29.056072,44.3481259 L29.056072,44.352024 Z"
                  id="Path" fill="#93EBDF"></path>
                <path
                  d="M12.7934033,44.6209895 L12.8752624,44.6755622 L29.1535232,44.6755622 L29.2353823,44.6209895 C31.3442279,43.2449775 33.0905547,41.3583208 34.2950525,39.1403298 C35.4605697,37.0002999 36.1193403,34.5562219 36.1193403,31.964018 L36.1193403,19.9892054 C36.1193403,15.8338831 34.4197901,12.0566717 31.6833583,9.32023988 C28.9469265,6.5838081 25.1697151,4.88425787 21.0143928,4.88425787 C16.8590705,4.88425787 13.0818591,6.5838081 10.3454273,9.32023988 C7.6089955,12.0566717 5.90944528,15.8338831 5.90944528,19.9892054 L5.90944528,31.964018 C5.90944528,34.5562219 6.57211394,37.0002999 7.73373313,39.1403298 C8.93823088,41.3583208 10.6845577,43.2449775 12.7934033,44.6209895 Z M6.55262369,31.964018 L6.55262369,19.9892054 C6.55262369,16.0131934 8.17811094,12.3997001 10.8014993,9.77631184 C13.4209895,7.15682159 17.0383808,5.52743628 21.0143928,5.52743628 C24.9904048,5.52743628 28.6038981,7.15292354 31.2272864,9.77631184 C33.8467766,12.3958021 35.4761619,16.0131934 35.4761619,19.9892054 L35.4761619,31.964018 C35.4761619,34.4470765 34.8446777,36.785907 33.7298351,38.8284858 C32.5916042,40.9256372 30.9466267,42.7109445 28.9664168,44.0245877 L13.0662669,44.0245877 C11.086057,42.7109445 9.44107946,40.9256372 8.30284858,38.8284858 C7.188006,36.785907 6.55262369,34.4470765 6.55262369,31.964018 Z"
                  id="Shape" fill="#653042"></path>
                <path
                  d="M11.623988,14.8008996 C11.4953523,14.8476762 11.3784108,14.9646177 11.2809595,15.143928 L11.008096,15.6428786 L12.4464768,16.4341829 L12.6608696,16.0443778 L12.1814093,15.7832084 L12.2398801,15.674063 C12.3373313,15.4986507 12.3646177,15.3427286 12.3295352,15.1985007 C12.2944528,15.0542729 12.1970015,14.9412294 12.0332834,14.8515742 C11.8890555,14.7697151 11.7526237,14.7541229 11.623988,14.8008996 Z M11.8227886,15.2452774 C11.8812594,15.2764618 11.9163418,15.3193403 11.931934,15.370015 C11.9475262,15.4206897 11.9358321,15.4791604 11.9046477,15.5376312 L11.8656672,15.6077961 L11.5343328,15.4245877 L11.5889055,15.3232384 C11.6473763,15.2218891 11.7253373,15.1946027 11.8227886,15.2452774 Z"
                  id="Shape" fill="#653042"></path>
                <path
                  d="M14.453973,11.3121439 L13.9745127,11.6551724 L14.9334333,12.9883058 L15.2530735,12.7583208 L14.835982,12.1814093 C14.7697151,12.0917541 14.6722639,11.9670165 14.5436282,11.8149925 L14.5514243,11.8071964 L15.5142429,12.5712144 L15.8572714,12.3256372 L15.4362819,11.1757121 L15.444078,11.167916 C15.5415292,11.316042 15.6038981,11.4095952 15.6272864,11.4485757 C15.6545727,11.4875562 15.677961,11.5187406 15.6974513,11.549925 L16.1184408,12.1346327 L16.4497751,11.8968516 L15.4908546,10.5637181 L15.0113943,10.9106447 L15.4206897,12.0527736 L15.4128936,12.0566717 L14.453973,11.3121439 Z"
                  id="Path" fill="#653042"></path>
                <polygon id="Path" fill="#653042"
                         points="13.5301349 12.083958 12.8674663 12.7973013 14.068066 13.916042 14.7346327 13.2026987 14.4695652 12.9571214 14.1070465 13.3469265 13.8809595 13.1325337 14.2161919 12.773913 13.9550225 12.5322339 13.6197901 12.8908546 13.4287856 12.7154423 13.7913043 12.3256372"></polygon>
                <path
                  d="M12.1034483,13.7523238 L11.7877061,14.1889055 L13.1208396,15.1478261 L13.3781109,14.7892054 L12.8947526,14.4383808 L12.9610195,14.3487256 L13.6509745,14.4149925 L13.9433283,14.0056972 L13.0818591,13.9745127 C13.1052474,13.764018 13.0389805,13.6002999 12.8869565,13.4911544 C12.6257871,13.304048 12.3646177,13.3898051 12.1034483,13.7523238 Z M12.6725637,14.1772114 L12.6257871,14.2434783 L12.3217391,14.0251874 L12.3724138,13.9550225 C12.462069,13.8302849 12.5517241,13.8029985 12.6413793,13.8692654 C12.7544228,13.9472264 12.7622189,14.0485757 12.6725637,14.1772114 Z"
                  id="Shape" fill="#653042"></path>
                <path
                  d="M18.0713643,10.85997 C17.9895052,10.8833583 17.9193403,10.8755622 17.8647676,10.8365817 C17.8101949,10.7976012 17.7634183,10.7235382 17.7322339,10.6104948 L17.4710645,9.68275862 L17.0422789,9.8035982 L17.3112444,10.7664168 C17.3697151,10.9730135 17.4710645,11.1172414 17.6191904,11.1952024 C17.7673163,11.2731634 17.9466267,11.2809595 18.1610195,11.2224888 C18.3832084,11.1601199 18.5352324,11.0548726 18.6209895,10.9106447 C18.7067466,10.7664168 18.7184408,10.5871064 18.6638681,10.3805097 L18.3988006,9.42938531 L17.970015,9.55022489 L18.2272864,10.474063 C18.2584708,10.5871064 18.2623688,10.6767616 18.2389805,10.7352324 C18.2155922,10.7937031 18.1571214,10.8365817 18.0713643,10.85997 Z"
                  id="Path" fill="#653042"></path>
                <polygon id="Rectangle" fill="#653042"
                         transform="translate(16.597136, 10.957932) rotate(-28.776906) translate(-16.597136, -10.957932) "
                         points="16.3749472 10.1373931 16.8193246 10.1373931 16.8193246 11.7784711 16.3749472 11.7784711"></polygon>
                <path
                  d="M23.6182909,10.2011994 C23.6572714,9.92833583 23.6221889,9.71004498 23.5091454,9.55022489 C23.3961019,9.3904048 23.2128936,9.28905547 22.9517241,9.25007496 C22.6944528,9.21109445 22.4878561,9.25397301 22.331934,9.37481259 C22.176012,9.49565217 22.0785607,9.69445277 22.0356822,9.96341829 C21.9967016,10.2362819 22.0317841,10.4545727 22.1487256,10.6182909 C22.2617691,10.782009 22.4488756,10.8833583 22.7022489,10.9184408 L22.7022489,10.9184408 L22.7022489,10.9184408 L22.7022489,10.9184408 L22.9361319,11.31994 L23.4818591,11.4017991 L23.1505247,10.8872564 C23.4116942,10.8014993 23.5637181,10.5715142 23.6182909,10.2011994 Z M23.1583208,10.1349325 C23.1349325,10.2947526 23.0881559,10.4116942 23.0257871,10.477961 C22.9595202,10.5481259 22.8737631,10.5715142 22.7607196,10.555922 C22.5424288,10.5247376 22.4566717,10.3493253 22.5034483,10.0374813 C22.5502249,9.72173913 22.6827586,9.57751124 22.9049475,9.6125937 C23.014093,9.62818591 23.0881559,9.67886057 23.1310345,9.76461769 C23.173913,9.84647676 23.1817091,9.97121439 23.1583208,10.1349325 Z"
                  id="Shape" fill="#653042"></path>
                <polygon id="Rectangle" fill="#653042"
                         transform="translate(28.476254, 13.271178) rotate(-42.353470) translate(-28.476254, -13.271178) "
                         points="27.6557169 13.0489902 29.2967904 13.0489902 29.2967904 13.4933663 27.6557169 13.4933663"></polygon>
                <polygon id="Path" fill="#653042"
                         points="27.8593703 11.5304348 26.7523238 12.7388306 27.5436282 13.4638681 27.7853073 13.2026987 27.3214393 12.773913 28.1868066 11.8266867"></polygon>
                <path
                  d="M25.2281859,11.6902549 L25.6296852,11.9670165 L25.8713643,11.7604198 L26.3118441,12.0644678 L26.2026987,12.3646177 L26.6041979,12.6413793 L27.0914543,10.9769115 L26.6041979,10.6416792 L25.2281859,11.6902549 Z M26.6197901,11.2224888 C26.5847076,11.316042 26.5574213,11.3901049 26.537931,11.4485757 L26.4443778,11.7097451 L26.155922,11.5109445 C26.3586207,11.3355322 26.4911544,11.2185907 26.5574213,11.1601199 C26.6236882,11.0977511 26.6704648,11.0548726 26.6977511,11.0275862 C26.6821589,11.0665667 26.6548726,11.1289355 26.6197901,11.2224888 Z"
                  id="Shape" fill="#653042"></path>
                <polygon id="Path" fill="#653042"
                         points="29.2275862 13.4053973 29.4614693 13.7328336 28.4245877 14.4773613 28.6818591 14.8398801 29.7226387 14.0914543 29.9565217 14.4149925 30.2488756 14.2044978 29.5238381 13.1949025"></polygon>
                <path
                  d="M24.7682159,9.7802099 L24.3511244,9.62038981 L23.9925037,10.552024 C23.9145427,10.7508246 23.9106447,10.9262369 23.9847076,11.0782609 C24.0548726,11.2263868 24.1952024,11.3433283 24.4056972,11.4212894 C24.62009,11.5031484 24.8032984,11.5109445 24.9592204,11.4446777 C25.1151424,11.3784108 25.232084,11.2458771 25.310045,11.0431784 L25.6647676,10.1193403 L25.2515742,9.95952024 L24.9085457,10.856072 C24.8656672,10.9652174 24.8149925,11.0392804 24.7604198,11.0743628 C24.701949,11.1094453 24.6317841,11.1094453 24.549925,11.0782609 C24.471964,11.0470765 24.4212894,11.0002999 24.397901,10.937931 C24.3745127,10.8716642 24.3862069,10.785907 24.4290855,10.6806597 L24.7682159,9.7802099 Z"
                  id="Path" fill="#653042"></path>
                <path
                  d="M19.88006,10.8014993 L20.3010495,10.7703148 L20.5427286,9.56971514 L20.5544228,9.56971514 C20.5583208,9.74902549 20.5622189,9.85817091 20.5661169,9.90494753 C20.570015,9.95172414 20.570015,9.99070465 20.573913,10.0296852 L20.6284858,10.7469265 L21.0338831,10.7157421 L20.9091454,9.07856072 L20.3205397,9.12533733 L20.0749625,10.3142429 L20.0671664,10.3142429 L19.6383808,9.17991004 L19.0497751,9.22668666 L19.1745127,10.8638681 L19.5643178,10.8326837 L19.5097451,10.1232384 C19.501949,10.0101949 19.4824588,9.85817091 19.4512744,9.65547226 L19.4629685,9.65547226 L19.88006,10.8014993 Z"
                  id="Path" fill="#653042"></path>
                <polygon id="Path" fill="#653042"
                         points="30.358021 14.4383808 29.7304348 15.4011994 29.1808096 15.7013493 29.3952024 16.0950525 29.9565217 15.7871064 31.0947526 15.7793103 30.8608696 15.3583208 30.1904048 15.4011994 30.591904 14.8632684"></polygon>
                <path
                  d="M21.0143928,42.5277361 C18.3481259,42.5277361 15.8338831,41.4830585 13.9355322,39.5847076 C12.0371814,37.6863568 10.9925037,35.1721139 10.9925037,32.5058471 L10.9925037,28.8065967 C10.9925037,28.6350825 11.1328336,28.4947526 11.3043478,28.4947526 C11.4758621,28.4947526 11.6161919,28.6350825 11.6161919,28.8065967 L11.6161919,32.5058471 C11.6161919,37.6863568 15.829985,41.904048 21.0143928,41.904048 C26.1949025,41.904048 30.4125937,37.6902549 30.4125937,32.5058471 L30.4125937,28.8065967 C30.4125937,28.6350825 30.5529235,28.4947526 30.7244378,28.4947526 C30.895952,28.4947526 31.0362819,28.6350825 31.0362819,28.8065967 L31.0362819,32.5058471 C31.0362819,35.1721139 29.9916042,37.6863568 28.0932534,39.5847076 C26.1910045,41.4830585 23.6806597,42.5277361 21.0143928,42.5277361 Z M30.7205397,23.4545727 C30.5490255,23.4545727 30.4086957,23.3142429 30.4086957,23.1427286 L30.4086957,19.4434783 C30.4086957,18.7535232 30.3307346,18.0635682 30.1826087,17.3892054 C30.1436282,17.2215892 30.2488756,17.053973 30.4164918,17.0149925 C30.5841079,16.976012 30.7517241,17.0812594 30.7907046,17.2488756 C30.9505247,17.9661169 31.0323838,18.7028486 31.0323838,19.4395802 L31.0323838,23.1388306 C31.0323838,23.3181409 30.892054,23.4545727 30.7205397,23.4545727 Z M11.3043478,23.4545727 C11.1328336,23.4545727 10.9925037,23.3142429 10.9925037,23.1427286 L10.9925037,19.4434783 C10.9925037,18.7067466 11.0743628,17.970015 11.2341829,17.2527736 C11.2731634,17.0851574 11.4407796,16.97991 11.6083958,17.0188906 C11.776012,17.0578711 11.8812594,17.2254873 11.8422789,17.3931034 C11.6902549,18.0635682 11.6161919,18.7574213 11.6161919,19.4473763 L11.6161919,23.1466267 C11.6161919,23.3181409 11.4758621,23.4545727 11.3043478,23.4545727 Z"
                  id="Shape" fill="#FFFFFF" fill-rule="nonzero"></path>
                <path
                  d="M17.2254873,0.713343328 C8.54062969,2.48305847 1.94902549,10.2050975 1.94902549,19.3928036 L1.94902549,32.5565217 C1.94902549,36.6221889 3.23928036,40.4032984 5.43388306,43.5061469 L7.67916042,43.5061469 C5.27016492,40.3136432 3.83958021,36.3493253 3.83958021,32.0692654 L3.83958021,18.9055472 C3.83958021,10.3961019 9.49175412,3.14182909 17.2254873,0.713343328 Z"
                  id="Path" fill="#F0BBD9"></path>
                <path
                  d="M5.90944528,44.6755622 C15.9781109,44.6794603 26.0506747,44.6794603 36.1193403,44.6755622 L36.2167916,44.5508246 C37.549925,42.8668666 38.6101949,40.9607196 39.3274363,38.8986507 C40.0212894,36.9067466 40.3994003,34.7745127 40.3994003,32.5604198 L40.3994003,19.3928036 C40.3994003,14.0602699 38.2164918,9.2149925 34.7043478,5.69895052 C31.1922039,2.1868066 26.3430285,0.00389805097 21.0104948,0.00389805097 C15.677961,0.00389805097 10.8326837,2.1868066 7.31664168,5.69895052 C3.80449775,9.21109445 1.62158921,14.0602699 1.62158921,19.3928036 L1.62158921,32.5565217 C1.62158921,34.7706147 1.99970015,36.9067466 2.69355322,38.8947526 C3.41469265,40.9568216 4.47106447,42.8629685 5.8041979,44.5469265 L5.90944528,44.6755622 Z M2.27646177,32.5604198 L2.27646177,19.3928036 C2.27646177,14.2395802 4.38530735,9.55412294 7.78050975,6.15892054 C11.1757121,2.76371814 15.8611694,0.654872564 21.0143928,0.654872564 C26.1676162,0.654872564 30.8530735,2.76371814 34.2482759,6.15892054 C37.6434783,9.55412294 39.7523238,14.2395802 39.7523238,19.3928036 L39.7523238,32.5565217 C39.7523238,34.7004498 39.3898051,36.7625187 38.7193403,38.6842579 C38.0410795,40.6293853 37.0509745,42.4302849 35.8074963,44.0245877 L6.22128936,44.0245877 C4.97781109,42.4302849 3.98770615,40.6293853 3.30944528,38.6842579 C2.63898051,36.7664168 2.27646177,34.7043478 2.27646177,32.5604198 Z"
                  id="Shape" fill="#653042"></path>
                <path
                  d="M10.8404798,26.456072 C10.7742129,26.456072 10.7001499,26.4443778 10.6221889,26.4248876 C10.5442279,26.4014993 10.4662669,26.3742129 10.3922039,26.3352324 L10.3922039,26.6821589 C10.4623688,26.7172414 10.5286357,26.7406297 10.5949025,26.7523238 C10.6611694,26.764018 10.7391304,26.7718141 10.8365817,26.7718141 C10.9496252,26.7718141 11.0509745,26.7523238 11.1367316,26.7133433 C11.2224888,26.6743628 11.2887556,26.6197901 11.3316342,26.5535232 C11.3784108,26.4833583 11.397901,26.4053973 11.397901,26.3157421 C11.397901,26.2182909 11.3745127,26.1403298 11.3277361,26.074063 C11.2809595,26.0116942 11.1952024,25.9493253 11.0704648,25.8947526 C10.9418291,25.8362819 10.8638681,25.7934033 10.8326837,25.773913 C10.8053973,25.7505247 10.7898051,25.7271364 10.7898051,25.6998501 C10.7898051,25.6725637 10.8014993,25.6530735 10.8248876,25.6335832 C10.8482759,25.614093 10.8833583,25.6062969 10.934033,25.6062969 C11.0314843,25.6062969 11.1484258,25.6374813 11.2809595,25.6998501 L11.397901,25.3997001 C11.241979,25.3295352 11.089955,25.2983508 10.9418291,25.2983508 C10.7742129,25.2983508 10.6416792,25.3334333 10.5442279,25.4074963 C10.4467766,25.4815592 10.4,25.5868066 10.4,25.7154423 C10.4,25.7856072 10.4116942,25.847976 10.4350825,25.8986507 C10.4584708,25.9493253 10.4935532,25.9961019 10.5403298,26.0350825 C10.5871064,26.074063 10.6572714,26.1169415 10.7508246,26.1598201 C10.856072,26.2065967 10.9184408,26.2377811 10.9418291,26.2533733 C10.9652174,26.2689655 10.9847076,26.2845577 10.9925037,26.2962519 C11.0041979,26.3118441 11.008096,26.3274363 11.008096,26.3469265 C11.008096,26.3781109 10.9964018,26.4053973 10.9691154,26.4248876 C10.937931,26.4482759 10.8950525,26.456072 10.8404798,26.456072 Z"
                  id="Path" fill="#653042"></path>
                <polygon id="Path" fill="#653042"
                         points="10.2050975 25.6296852 10.2050975 25.3178411 9.35142429 25.3178411 9.35142429 26.7523238 10.2050975 26.7523238 10.2050975 26.4365817 9.73733133 26.4365817 9.73733133 26.1637181 10.170015 26.1637181 10.170015 25.8518741 9.73733133 25.8518741 9.73733133 25.6296852"></polygon>
                <polygon id="Path" fill="#653042"
                         points="12.2515742 26.7523238 12.2515742 25.6335832 12.5985007 25.6335832 12.5985007 25.3178411 11.5109445 25.3178411 11.5109445 25.6335832 11.8617691 25.6335832 11.8617691 26.7523238"></polygon>
                <path
                  d="M29.2158921,26.7523238 L29.6095952,26.7523238 L29.6095952,25.313943 L29.2587706,25.313943 L28.7637181,25.7154423 L28.9664168,25.9649175 L29.1301349,25.8284858 C29.1652174,25.7973013 29.1964018,25.7661169 29.2197901,25.7349325 C29.2158921,25.8128936 29.211994,25.8947526 29.211994,25.9883058 L29.211994,26.7523238 L29.2158921,26.7523238 Z"
                  id="Path" fill="#653042"></path>
                <path
                  d="M33.0452274,26.7942029 C33.2989445,26.7942029 33.4850037,26.734846 33.6090432,26.6121752 C33.7330827,26.4934614 33.7951024,26.3035195 33.7951024,26.0463064 C33.7951024,25.7970076 33.7330827,25.6110227 33.6034051,25.4843947 C33.4793656,25.3577668 33.2876682,25.2944528 33.0452274,25.2944528 C32.7915103,25.2944528 32.605451,25.3538096 32.4814115,25.4764805 C32.3573721,25.5991513 32.2953523,25.7890933 32.2953523,26.0463064 C32.2953523,26.2956052 32.3573721,26.4815901 32.4870497,26.6042609 C32.605451,26.7308889 32.7971484,26.7942029 33.0452274,26.7942029 Z M32.8929971,25.7059937 C32.9211879,25.6426797 32.9719313,25.6110227 33.0395892,25.6110227 C33.1072471,25.6110227 33.1579906,25.6426797 33.1861813,25.7099508 C33.2143721,25.7732648 33.2312866,25.8880214 33.2312866,26.0502635 C33.2312866,26.2125056 33.2143721,26.3233051 33.1861813,26.3866191 C33.1579906,26.4499331 33.1072471,26.4815901 33.0395892,26.4815901 C32.9719313,26.4815901 32.9211879,26.4499331 32.8929971,26.3905762 C32.8648063,26.3272622 32.8478918,26.2164627 32.8478918,26.0502635 C32.85353,25.8801072 32.8648063,25.7653506 32.8929971,25.7059937 Z"
                  id="Shape" fill="#653042"></path>
                <path
                  d="M31.9242847,26.411016 C31.8199065,26.4708465 31.666086,26.4987674 31.4738103,26.4987674 C31.3969001,26.4987674 31.3144962,26.4947787 31.237586,26.4828126 L31.237586,26.7979197 C31.3035091,26.8058971 31.3969001,26.8058971 31.5177591,26.8058971 C31.8913232,26.8058971 32.1660027,26.7420779 32.336304,26.6144396 C32.5066053,26.4868013 32.5945027,26.279389 32.5945027,25.9922028 C32.5945027,25.7728245 32.5285797,25.6013105 32.3912399,25.4856383 C32.2539002,25.3659774 32.0616245,25.3061469 31.8144129,25.3061469 C31.5891757,25.3061469 31.4188744,25.3540113 31.2870283,25.4457513 C31.1606757,25.5374914 31.0947526,25.6651297 31.0947526,25.8286663 C31.0947526,25.9802367 31.1441949,26.095909 31.2430796,26.1796716 C31.3419642,26.2634342 31.4793039,26.3073099 31.6550988,26.3073099 C31.7320091,26.3073099 31.7924386,26.3033212 31.8473745,26.2913551 C31.8968168,26.279389 31.9407655,26.2634342 31.9737271,26.2434908 C32.0066886,26.2235473 32.0451437,26.187649 32.0781053,26.1397846 L32.094586,26.1397846 C32.0890925,26.2594455 32.028663,26.3511856 31.9242847,26.411016 Z M31.9792206,25.9483272 C31.9352719,25.9802367 31.880336,25.9961915 31.8254001,25.9961915 C31.759477,25.9961915 31.7100347,25.9802367 31.6770732,25.9483272 C31.6441116,25.9164176 31.6276309,25.8725419 31.6276309,25.8167002 C31.6276309,25.7488923 31.6441116,25.6970392 31.6825668,25.6651297 C31.7210219,25.6332201 31.7704642,25.6172653 31.8308937,25.6172653 C31.8913232,25.6172653 31.9462591,25.6372088 31.9847142,25.6810845 C32.0231694,25.7249601 32.0451437,25.7768132 32.0451437,25.8366436 C32.0451437,25.8805193 32.0231694,25.9204063 31.9792206,25.9483272 Z"
                  id="Shape" fill="#653042"></path>
                <path
                  d="M30.7470733,26.411016 C30.6426951,26.4708465 30.4888746,26.4987674 30.296599,26.4987674 C30.2196887,26.4987674 30.1372848,26.4947787 30.0603746,26.4828126 L30.0603746,26.7979197 C30.1262977,26.8058971 30.2196887,26.8058971 30.3405477,26.8058971 C30.7141118,26.8058971 30.9887913,26.7420779 31.1590926,26.6144396 C31.3293939,26.4868013 31.4172914,26.279389 31.4172914,25.9922028 C31.4172914,25.7728245 31.3513683,25.6013105 31.2140285,25.4856383 C31.0766888,25.3659774 30.8844131,25.3061469 30.6372015,25.3061469 C30.4119643,25.3061469 30.2416631,25.3540113 30.1098169,25.4457513 C29.9834643,25.5374914 29.9175412,25.6651297 29.9175412,25.8286663 C29.9175412,25.9802367 29.9669835,26.095909 30.0658682,26.1796716 C30.1647528,26.2634342 30.3020925,26.3073099 30.4778874,26.3073099 C30.5547977,26.3073099 30.6152272,26.3033212 30.6701631,26.2913551 C30.7196054,26.279389 30.7635541,26.2634342 30.7965157,26.2434908 C30.8294772,26.2235473 30.8679323,26.187649 30.9008939,26.1397846 L30.9173746,26.1397846 C30.9063875,26.2594455 30.8514516,26.3511856 30.7470733,26.411016 Z M30.8020093,25.9483272 C30.7580605,25.9802367 30.7031246,25.9961915 30.6481887,25.9961915 C30.5822656,25.9961915 30.5328233,25.9802367 30.4998618,25.9483272 C30.4669002,25.9164176 30.4504195,25.8725419 30.4504195,25.8167002 C30.4504195,25.7488923 30.4669002,25.6970392 30.5053554,25.6651297 C30.5438105,25.6332201 30.5932528,25.6172653 30.6536823,25.6172653 C30.7141118,25.6172653 30.7690477,25.6372088 30.8075028,25.6810845 C30.845958,25.7249601 30.8679323,25.7768132 30.8679323,25.8366436 C30.8679323,25.8805193 30.845958,25.9204063 30.8020093,25.9483272 Z"
                  id="Shape" fill="#653042"></path>
                <g transform="translate(0.000000, 21.595202)">
                  <polygon id="Path" fill="#FFCF61"
                           points="3.47316342 5.60149925 5.29355322 6.15892054 5.32473763 4.25667166 6.4161919 2.69745127 4.6191904 2.07766117 3.47316342 0.557421289 2.32713643 2.07766117 0.526236882 2.69745127 1.61769115 4.25667166 1.65277361 6.15892054"></polygon>
                  <path
                    d="M3.47316342,5.94062969 L5.60929535,6.5916042 L5.64827586,4.35802099 L6.93073463,2.52593703 L4.817991,1.7970015 L3.73043478,0.354722639 L3.47316342,0.0116941529 L2.12833583,1.7970015 L0.0155922039,2.52593703 L1.29805097,4.35802099 L1.33703148,6.5916042 L3.47316342,5.94062969 Z M1.03688156,2.86506747 L2.52203898,2.35442279 L3.46926537,1.09925037 L4.35802099,2.27646177 L4.41649175,2.35442279 L5.90164918,2.86506747 L5.0011994,4.15142429 L4.97391304,5.72233883 L3.46926537,5.26236882 L1.96461769,5.72233883 L1.93733133,4.15142429 L1.03688156,2.86506747 Z"
                    id="Shape" fill="#653042"></path>
                </g>
                <g transform="translate(34.965517, 21.595202)">
                  <polygon id="Path" fill="#FFCF61"
                           points="3.46536732 5.60149925 5.28575712 6.15892054 5.32083958 4.25667166 6.41229385 2.69745127 4.6113943 2.07766117 3.46536732 0.557421289 2.31934033 2.07766117 0.522338831 2.69745127 1.6137931 4.25667166 1.64497751 6.15892054"></polygon>
                  <path
                    d="M3.46536732,5.94062969 L5.60149925,6.5916042 L5.64047976,4.35802099 L6.92293853,2.52593703 L4.8101949,1.7970015 L3.72263868,0.354722639 L3.46536732,0.0116941529 L2.12053973,1.7970015 L0.00779610195,2.52593703 L1.29025487,4.35802099 L1.32923538,6.5916042 L3.46536732,5.94062969 Z M1.03298351,2.86506747 L2.51814093,2.35442279 L3.46536732,1.09925037 L4.35412294,2.27646177 L4.4125937,2.35442279 L5.89775112,2.86506747 L4.99730135,4.15142429 L4.97001499,5.72233883 L3.46536732,5.26236882 L1.96071964,5.72233883 L1.93343328,4.15142429 L1.03298351,2.86506747 Z"
                    id="Shape" fill="#653042"></path>
                </g>
                <path
                  d="M38.695952,48.3553223 C39.6743628,48.3553223 40.4734633,47.5562219 40.4734633,46.5778111 L40.4734633,40.376012 C40.4734633,39.3976012 39.6743628,38.5985007 38.695952,38.5985007 L3.20809595,38.5985007 C2.22968516,38.5985007 1.43058471,39.3976012 1.43058471,40.376012 L1.43058471,46.5778111 C1.43058471,47.5562219 2.22968516,48.3553223 3.20809595,48.3553223 L38.695952,48.3553223 Z"
                  id="Path" fill="#FFCF61"></path>
                <path
                  d="M38.695952,48.6788606 C39.2767616,48.6788606 39.8029985,48.4410795 40.1811094,48.0590705 C40.5631184,47.6770615 40.8008996,47.1508246 40.8008996,46.573913 L40.8008996,45.7553223 L40.8008996,44.2311844 L40.8008996,42.7070465 L40.8008996,41.1829085 L40.8008996,40.3643178 C40.8008996,39.7835082 40.5631184,39.2572714 40.1811094,38.8791604 C39.7991004,38.4971514 39.2728636,38.2593703 38.695952,38.2593703 L3.20809595,38.2593703 C2.62728636,38.2593703 2.10104948,38.4971514 1.72293853,38.8791604 C1.34092954,39.2611694 1.10314843,39.7874063 1.10314843,40.3643178 L1.10314843,41.1829085 L1.10314843,42.7070465 L1.10314843,44.2311844 L1.10314843,45.7553223 L1.10314843,46.573913 C1.10314843,47.1547226 1.34092954,47.6809595 1.72293853,48.0590705 C2.10494753,48.4410795 2.63118441,48.6788606 3.20809595,48.6788606 L38.695952,48.6788606 Z M1.75412294,46.573913 L1.75412294,46.0827586 L5.29355322,46.0827586 C5.47286357,46.0827586 5.61709145,45.9385307 5.61709145,45.7592204 C5.61709145,45.57991 5.47286357,45.4356822 5.29355322,45.4356822 L1.75412294,45.4356822 L1.75412294,44.5625187 L5.29355322,44.5625187 C5.47286357,44.5625187 5.61709145,44.4182909 5.61709145,44.2389805 C5.61709145,44.0596702 5.47286357,43.9154423 5.29355322,43.9154423 L1.75412294,43.9154423 L1.75412294,43.0422789 L5.29355322,43.0422789 C5.47286357,43.0422789 5.61709145,42.898051 5.61709145,42.7187406 C5.61709145,42.5394303 5.47286357,42.3952024 5.29355322,42.3952024 L1.75412294,42.3952024 L1.75412294,41.5142429 L5.29355322,41.5142429 C5.47286357,41.5142429 5.61709145,41.370015 5.61709145,41.1907046 C5.61709145,41.0113943 5.47286357,40.8671664 5.29355322,40.8671664 L1.75412294,40.8671664 L1.75412294,40.376012 C1.75412294,39.9745127 1.91784108,39.611994 2.18290855,39.3508246 C2.44797601,39.0857571 2.81049475,38.922039 3.20809595,38.922039 L38.695952,38.922039 C39.0974513,38.922039 39.45997,39.0857571 39.7211394,39.3508246 C39.9862069,39.6158921 40.149925,39.9784108 40.149925,40.376012 L40.149925,40.8671664 L36.6104948,40.8671664 C36.4311844,40.8671664 36.2869565,41.0113943 36.2869565,41.1907046 C36.2869565,41.370015 36.4311844,41.5142429 36.6104948,41.5142429 L40.149925,41.5142429 L40.149925,42.3874063 L36.6104948,42.3874063 C36.4311844,42.3874063 36.2869565,42.5316342 36.2869565,42.7109445 C36.2869565,42.8902549 36.4311844,43.0344828 36.6104948,43.0344828 L40.149925,43.0344828 L40.149925,43.9076462 L36.6104948,43.9076462 C36.4311844,43.9076462 36.2869565,44.0518741 36.2869565,44.2311844 C36.2869565,44.4104948 36.4311844,44.5547226 36.6104948,44.5547226 L40.149925,44.5547226 L40.149925,45.4278861 L36.6104948,45.4278861 C36.4311844,45.4278861 36.2869565,45.5721139 36.2869565,45.7514243 C36.2869565,45.9307346 36.4311844,46.0749625 36.6104948,46.0749625 L40.149925,46.0749625 L40.149925,46.5661169 C40.149925,46.9676162 39.9862069,47.3301349 39.7211394,47.5913043 C39.456072,47.8563718 39.0935532,48.02009 38.695952,48.02009 L3.20809595,48.02009 C2.8065967,48.02009 2.44407796,47.8563718 2.18290855,47.5913043 C1.91784108,47.337931 1.75412294,46.9754123 1.75412294,46.573913 Z"
                  id="Shape" fill="#653042"></path>
                <path
                  d="M19.2992504,42.7109445 L19.2992504,42.2548726 C19.2992504,41.5064468 18.9250375,41.0776612 18.2038981,41.0776612 C17.4827586,41.0776612 17.1085457,41.5064468 17.1085457,42.2548726 L17.1085457,44.6872564 C17.1085457,45.4356822 17.4827586,45.8644678 18.2038981,45.8644678 C18.9250375,45.8644678 19.2992504,45.4356822 19.2992504,44.6872564 L19.2992504,44.0674663 L18.6053973,44.0674663 L18.6053973,44.734033 C18.6053973,45.0692654 18.4572714,45.1901049 18.2233883,45.1901049 C17.9895052,45.1901049 17.8413793,45.0692654 17.8413793,44.734033 L17.8413793,42.208096 C17.8413793,41.8728636 17.9895052,41.7481259 18.2233883,41.7481259 C18.4572714,41.7481259 18.6053973,41.8767616 18.6053973,42.208096 L18.6053973,42.7109445 L19.2992504,42.7109445 Z"
                  id="Path" fill="#653042"></path>
                <polygon id="Path" fill="#653042"
                         points="15.677961 41.8026987 15.677961 41.1361319 13.6704648 41.1361319 13.6704648 45.8137931 15.677961 45.8137931 15.677961 45.1472264 14.4071964 45.1472264 14.4071964 43.7751124 15.4167916 43.7751124 15.4167916 43.1085457 14.4071964 43.1085457 14.4071964 41.8026987"></polygon>
                <rect id="Rectangle" fill="#653042" x="8.43148426" y="41.1361319" width="1" height="4.67766117"></rect>
                <path
                  d="M12.5283358,42.7109445 L12.5283358,42.2548726 C12.5283358,41.5064468 12.1541229,41.0776612 11.4329835,41.0776612 C10.7118441,41.0776612 10.3376312,41.5064468 10.3376312,42.2548726 L10.3376312,44.6872564 C10.3376312,45.4356822 10.7118441,45.8644678 11.4329835,45.8644678 C12.1541229,45.8644678 12.5283358,45.4356822 12.5283358,44.6872564 L12.5283358,44.0674663 L11.8344828,44.0674663 L11.8344828,44.734033 C11.8344828,45.0692654 11.6863568,45.1901049 11.4524738,45.1901049 C11.2185907,45.1901049 11.0704648,45.0692654 11.0704648,44.734033 L11.0704648,42.208096 C11.0704648,41.8728636 11.2185907,41.7481259 11.4524738,41.7481259 C11.6863568,41.7481259 11.8344828,41.8767616 11.8344828,42.208096 L11.8344828,42.7109445 L12.5283358,42.7109445 Z"
                  id="Path" fill="#653042"></path>
                <polygon id="Path" fill="#653042"
                         points="33.4725637 45.8137931 33.4725637 41.1361319 32.4473763 41.1361319 31.9523238 44.4572714 31.9406297 44.4572714 31.4065967 41.1361319 30.3814093 41.1361319 30.3814093 45.8137931 31.0245877 45.8137931 31.0245877 42.5043478 31.0362819 42.5043478 31.5742129 45.8137931 32.268066 45.8137931 32.7631184 42.4575712 32.7748126 42.4575712 32.7748126 45.8137931"></polygon>
                <path
                  d="M22.6398801,42.5784108 L22.6398801,42.211994 C22.6398801,41.4908546 22.3124438,41.1361319 21.5523238,41.1361319 L20.4413793,41.1361319 L20.4413793,45.8137931 L21.1781109,45.8137931 L21.1781109,43.9076462 L21.4314843,43.9076462 C21.7667166,43.9076462 21.9109445,44.0674663 21.9109445,44.504048 L21.9109445,45.2407796 C21.9109445,45.6227886 21.9382309,45.6968516 21.9772114,45.8137931 L22.7256372,45.8137931 C22.6515742,45.6383808 22.6437781,45.4746627 22.6437781,45.2446777 L22.6437781,44.5235382 C22.6437781,44.0362819 22.5229385,43.6893553 22.1565217,43.5334333 L22.1565217,43.5217391 C22.4878561,43.3658171 22.6398801,43.0617691 22.6398801,42.5784108 Z M21.9031484,42.746027 C21.9031484,43.1202399 21.7355322,43.2410795 21.4626687,43.2410795 L21.1742129,43.2410795 L21.1742129,41.8026987 L21.5289355,41.8026987 C21.7901049,41.8026987 21.9031484,41.9508246 21.9031484,42.2821589 L21.9031484,42.746027 L21.9031484,42.746027 Z"
                  id="Shape" fill="#653042"></path>
                <path
                  d="M28.4869565,44.964018 L28.6155922,45.8137931 L29.3562219,45.8137931 L28.6077961,41.1361319 L27.531934,41.1361319 L26.7835082,45.8137931 L27.4578711,45.8137931 L27.5865067,44.964018 L28.4869565,44.964018 Z M28.0230885,41.9625187 L28.0347826,41.9625187 L28.3817091,44.3286357 L27.6761619,44.3286357 L28.0230885,41.9625187 Z"
                  id="Shape" fill="#653042"></path>
                <polygon id="Path" fill="#653042"
                         points="25.8284858 41.8026987 25.8284858 41.1361319 23.8209895 41.1361319 23.8209895 45.8137931 25.8284858 45.8137931 25.8284858 45.1472264 24.5577211 45.1472264 24.5577211 43.7751124 25.5673163 43.7751124 25.5673163 43.1085457 24.5577211 43.1085457 24.5577211 41.8026987"></polygon>
                <g transform="translate(15.163418, 13.526237)" id="Path">
                  <path
                    d="M5.77691154,26.8224888 L5.77691154,26.8224888 C7.09835082,26.8224888 8.53673163,25.8011994 8.00269865,23.8053973 C7.69865067,22.6749625 7.54662669,21.6770615 7.54272864,20.6869565 C7.54662669,19.6968516 7.69865067,18.6989505 8.00269865,17.5685157 C8.53673163,15.5766117 7.09835082,14.5514243 5.77691154,14.5514243 L5.77691154,14.5514243 C4.45547226,14.5514243 3.01709145,15.5727136 3.55112444,17.5685157 C3.85517241,18.6989505 4.0071964,19.6968516 4.01109445,20.6869565 C4.0071964,21.6770615 3.85517241,22.6749625 3.55112444,23.8053973 C3.01709145,25.8011994 4.45547226,26.8224888 5.77691154,26.8224888 Z"
                    fill="#D29965"></path>
                  <path
                    d="M5.77691154,26.8224888 L5.77691154,26.8224888 L5.77691154,26.8224888 C5.96791604,26.8224888 6.16281859,26.7991004 6.34992504,26.7601199 C5.22728636,26.5067466 4.24107946,25.5127436 4.69715142,23.8092954 C5.0011994,22.6788606 5.15322339,21.6809595 5.15712144,20.6908546 C5.15322339,19.7007496 5.0011994,18.7028486 4.69715142,17.5724138 C4.24107946,15.8689655 5.22728636,14.8749625 6.34992504,14.6215892 C6.15892054,14.5787106 5.96791604,14.5592204 5.77691154,14.5592204 L5.77691154,14.5592204 L5.77691154,14.5592204 C4.45547226,14.5592204 3.01709145,15.5805097 3.55112444,17.5763118 C3.85517241,18.7067466 4.0071964,19.7046477 4.01109445,20.6947526 C4.0071964,21.6848576 3.85517241,22.6827586 3.55112444,23.8131934 C3.01709145,25.8011994 4.45547226,26.8224888 5.77691154,26.8224888 Z"
                    fill="#FFFFFF"></path>
                  <path
                    d="M3.23538231,23.7235382 C3.14962519,24.0470765 3.11064468,24.3433283 3.11064468,24.62009 C3.11064468,25.2866567 3.33673163,25.8245877 3.68755622,26.2338831 C4.03838081,26.6392804 4.51004498,26.9082459 5.01289355,27.0446777 C5.26236882,27.1109445 5.51964018,27.146027 5.77301349,27.146027 C6.02638681,27.146027 6.28365817,27.1109445 6.53313343,27.0446777 C7.03598201,26.9082459 7.50764618,26.6392804 7.85847076,26.2338831 C8.2131934,25.8245877 8.43538231,25.2827586 8.43538231,24.62009 C8.43538231,24.3433283 8.3964018,24.0431784 8.31064468,23.7235382 C8.21709145,23.3766117 8.13913043,23.0374813 8.07286357,22.710045 C8.0065967,22.3826087 7.95982009,22.0668666 7.92473763,21.7589205 C7.90524738,21.5796102 7.74542729,21.4509745 7.56611694,21.4704648 C7.3868066,21.489955 7.25817091,21.6497751 7.27766117,21.8290855 C7.31664168,22.1604198 7.36731634,22.4956522 7.43358321,22.8347826 C7.49985007,23.173913 7.58170915,23.5247376 7.67916042,23.8911544 C7.74932534,24.1523238 7.78050975,24.397901 7.78050975,24.62009 C7.78050975,25.1190405 7.6167916,25.5166417 7.36341829,25.8128936 C7.10224888,26.1130435 6.74362819,26.3157421 6.36161919,26.4209895 C6.16671664,26.4716642 5.96791604,26.4989505 5.76911544,26.4989505 C5.57031484,26.4989505 5.36761619,26.4716642 5.17661169,26.4209895 C4.79070465,26.3196402 4.43208396,26.1130435 4.17481259,25.8128936 C3.91754123,25.5166417 3.75772114,25.1190405 3.75772114,24.62009 C3.75772114,24.397901 3.78890555,24.1523238 3.85907046,23.8911544 C4.0149925,23.3142429 4.13193403,22.7724138 4.20989505,22.2422789 C4.28785607,21.716042 4.32683658,21.2053973 4.33073463,20.6869565 C4.33073463,20.1724138 4.28785607,19.6578711 4.20989505,19.1316342 C4.13193403,18.6053973 4.0149925,18.0596702 3.85907046,17.4827586 C3.78890555,17.2215892 3.75772114,16.976012 3.75772114,16.7538231 C3.75772114,16.2548726 3.92143928,15.8572714 4.17481259,15.5610195 C4.43598201,15.2608696 4.7946027,15.0581709 5.17661169,14.9529235 C5.37151424,14.9022489 5.57031484,14.8749625 5.76911544,14.8749625 C5.96791604,14.8749625 6.17061469,14.9022489 6.36161919,14.9529235 C6.74752624,15.0542729 7.10614693,15.2608696 7.36341829,15.5610195 C7.62068966,15.8572714 7.78050975,16.2548726 7.78050975,16.7538231 C7.78050975,16.976012 7.74932534,17.2215892 7.67916042,17.4827586 C7.52323838,18.0596702 7.40629685,18.6014993 7.32833583,19.1316342 C7.25037481,19.6578711 7.2113943,20.1685157 7.20749625,20.6869565 C7.20749625,20.8662669 7.35172414,21.0104948 7.53103448,21.0104948 C7.71034483,21.0104948 7.85457271,20.8662669 7.85457271,20.6869565 C7.85457271,20.2113943 7.89355322,19.731934 7.96761619,19.2290855 C8.04167916,18.7262369 8.15472264,18.2077961 8.30284858,17.6542729 C8.3886057,17.3307346 8.42758621,17.0344828 8.42758621,16.7577211 C8.42758621,16.0911544 8.20149925,15.5532234 7.85067466,15.143928 C7.49985007,14.7385307 7.02818591,14.4695652 6.52533733,14.3331334 C6.27586207,14.2668666 6.0185907,14.2317841 5.76521739,14.2317841 C5.51184408,14.2317841 5.25457271,14.2668666 5.00509745,14.3331334 C4.50224888,14.4695652 4.03058471,14.7385307 3.67976012,15.143928 C3.32503748,15.5532234 3.10284858,16.0911544 3.10284858,16.7577211 C3.10284858,17.0344828 3.14182909,17.3346327 3.22758621,17.6542729 C3.37571214,18.2077961 3.48875562,18.7262369 3.56281859,19.2290855 C3.63688156,19.731934 3.67586207,20.2152924 3.67586207,20.6869565 C3.67586207,21.1625187 3.63688156,21.641979 3.56281859,22.1448276 C3.49655172,22.6515742 3.38350825,23.170015 3.23538231,23.7235382 Z"
                    fill="#653042"></path>
                  <path
                    d="M5.85097451,0.331334333 C2.8143928,0.331334333 0.331334333,2.8143928 0.331334333,5.85097451 L0.331334333,17.0812594 C0.331334333,17.7790105 0.900449775,18.3481259 1.5982009,18.3481259 L10.0998501,18.3481259 C10.7976012,18.3481259 11.3667166,17.7790105 11.3667166,17.0812594 L11.3667166,6.31484258 C10.244078,6.22518741 9.35142429,5.30524738 9.30854573,4.16701649 C8.05727136,3.66806597 7.17241379,2.44407796 7.17241379,1.0173913 C7.17241379,0.84197901 7.18410795,0.670464768 7.2113943,0.506746627 C6.77481259,0.393703148 6.31874063,0.331334333 5.85097451,0.331334333 Z"
                    fill="#E9A2CA"></path>
                  <path
                    d="M6.49805097,0.370314843 C6.28365817,0.346926537 6.06926537,0.331334333 5.84707646,0.331334333 C2.81049475,0.331334333 0.327436282,2.8143928 0.327436282,5.85097451 L0.327436282,12.8791604 L1.62938531,12.8791604 L1.62938531,5.85097451 C1.62938531,3.03658171 3.76941529,0.697751124 6.49805097,0.370314843 Z"
                    fill="#FFFFFF"></path>
                  <path
                    d="M10.0998501,18.352024 C10.7976012,18.352024 11.3667166,17.7829085 11.3667166,17.0851574 L11.3667166,12.8830585 L0.327436282,12.8830585 L0.327436282,17.0851574 C0.327436282,17.7829085 0.896551724,18.352024 1.59430285,18.352024 L10.0998501,18.352024 Z"
                    fill="#93EBDF"></path>
                  <path
                    d="M0.331334333,12.8791604 L0.331334333,17.0812594 C0.331334333,17.7790105 0.900449775,18.3481259 1.5982009,18.352024 L2.90014993,18.352024 C2.2023988,18.352024 1.62938531,17.7829085 1.62938531,17.0851574 L1.62938531,12.8830585 L0.331334333,12.8830585 L0.331334333,12.8791604 Z"
                    fill="#FFFFFF"></path>
                  <path
                    d="M3.2041979,13.2026987 C3.38350825,13.2026987 3.52773613,13.0584708 3.52773613,12.8791604 C3.52773613,12.6998501 3.38350825,12.5556222 3.2041979,12.5556222 L0.331334333,12.5556222 C0.152023988,12.5556222 0.00779610195,12.6998501 0.00779610195,12.8791604 C0.00779610195,13.0584708 0.152023988,13.2026987 0.331334333,13.2026987 L3.2041979,13.2026987 Z"
                    fill="#653042"></path>
                  <path
                    d="M5.0089955,15.525937 L5.0089955,12.6296852 L3.2041979,12.6296852 L3.2041979,15.525937 C3.2041979,16.0209895 3.6095952,16.4302849 4.10854573,16.4302849 C4.6035982,16.4263868 5.0089955,16.0209895 5.0089955,15.525937 Z"
                    fill="#E9A2CA"></path>
                  <path
                    d="M5.91334333,11.3433283 C5.41829085,11.3433283 5.0089955,11.7487256 5.0089955,12.2476762 L5.0089955,15.143928 L6.8137931,15.143928 L6.8137931,12.2476762 C6.8137931,11.7487256 6.4083958,11.3433283 5.91334333,11.3433283 Z"
                    fill="#93EBDF"></path>
                  <path
                    d="M3.2041979,12.5556222 C3.02488756,12.5556222 2.88065967,12.6998501 2.88065967,12.8791604 L2.88065967,15.522039 C2.88065967,15.8611694 3.01709145,16.1652174 3.23928036,16.3874063 C3.46146927,16.6095952 3.76941529,16.746027 4.10464768,16.746027 C4.44377811,16.746027 4.74782609,16.6095952 4.97001499,16.3874063 C5.1922039,16.1652174 5.32863568,15.8572714 5.32863568,15.522039 L5.32863568,12.6257871 C5.32863568,12.4464768 5.1844078,12.3022489 5.00509745,12.3022489 C4.82578711,12.3022489 4.68155922,12.4464768 4.68155922,12.6257871 L4.68155922,15.522039 C4.68155922,15.6818591 4.61529235,15.826087 4.51004498,15.9313343 C4.4047976,16.0365817 4.26056972,16.1028486 4.10074963,16.1028486 C3.94092954,16.1028486 3.79670165,16.0365817 3.69145427,15.9313343 C3.5862069,15.826087 3.51994003,15.6818591 3.51994003,15.522039 L3.51994003,12.8791604 C3.52773613,12.6998501 3.38350825,12.5556222 3.2041979,12.5556222 Z"
                    fill="#653042"></path>
                  <path
                    d="M6.8137931,13.2026987 C6.99310345,13.2026987 7.13733133,13.0584708 7.13733133,12.8791604 L7.13733133,12.2476762 C7.13733133,11.9124438 7.00089955,11.6044978 6.77871064,11.3823088 L6.77871064,11.3823088 C6.55652174,11.1601199 6.24857571,11.0236882 5.91334333,11.0236882 C5.57811094,11.0236882 5.27016492,11.1601199 5.04797601,11.3823088 L5.04797601,11.3823088 C4.82578711,11.6044978 4.68935532,11.9124438 4.68935532,12.2476762 L4.68935532,15.143928 C4.68935532,15.3232384 4.83358321,15.4674663 5.01289355,15.4674663 C5.1922039,15.4674663 5.33643178,15.3232384 5.33643178,15.143928 L5.33643178,12.2476762 C5.33643178,12.0878561 5.40269865,11.9436282 5.50404798,11.8383808 C5.60929535,11.7331334 5.75352324,11.6707646 5.91334333,11.6707646 C6.07316342,11.6707646 6.2173913,11.7370315 6.32263868,11.8383808 C6.42788606,11.9436282 6.49025487,12.0878561 6.49025487,12.2476762 L6.49025487,12.8791604 C6.49025487,13.0584708 6.63448276,13.2026987 6.8137931,13.2026987 Z"
                    fill="#653042"></path>
                  <path
                    d="M11.3706147,13.2026987 C11.549925,13.2026987 11.6941529,13.0584708 11.6941529,12.8791604 C11.6941529,12.6998501 11.549925,12.5556222 11.3706147,12.5556222 L6.81769115,12.5556222 C6.63838081,12.5556222 6.49415292,12.6998501 6.49415292,12.8791604 C6.49415292,13.0584708 6.63838081,13.2026987 6.81769115,13.2026987 L11.3706147,13.2026987 Z"
                    fill="#653042"></path>
                  <path
                    d="M0.783508246,4.70884558 C0.869265367,4.33073463 0.997901049,3.96431784 1.16161919,3.62518741 C1.23958021,3.46536732 1.16941529,3.27046477 1.0095952,3.19250375 C0.849775112,3.11454273 0.654872564,3.18470765 0.576911544,3.34452774 C0.389805097,3.73043478 0.249475262,4.13973013 0.152023988,4.56461769 C0.0584707646,4.98170915 0.00779610195,5.41049475 0.00779610195,5.85097451 L0.00779610195,17.0812594 C0.00779610195,17.5178411 0.187106447,17.9193403 0.475562219,18.2077961 C0.764017991,18.4962519 1.16161919,18.6755622 1.60209895,18.6755622 L10.1037481,18.6755622 C10.5403298,18.6755622 10.9418291,18.4962519 11.2302849,18.2077961 C11.5187406,17.9193403 11.698051,17.5217391 11.698051,17.0812594 L11.698051,6.31484258 C11.698051,6.14722639 11.5694153,6.0029985 11.397901,5.99130435 C10.9145427,5.95232384 10.4857571,5.73403298 10.170015,5.4065967 C9.85427286,5.07916042 9.65547226,4.63868066 9.63988006,4.15532234 C9.63598201,4.03058471 9.55802099,3.91364318 9.43718141,3.86686657 C8.86416792,3.63688156 8.37301349,3.23928036 8.02998501,2.73643178 C7.69865067,2.24917541 7.50374813,1.65667166 7.50374813,1.0173913 C7.50374813,0.935532234 7.50764618,0.857571214 7.51154423,0.783508246 C7.51544228,0.705547226 7.52713643,0.631484258 7.53883058,0.553523238 L7.53883058,0.553523238 C7.56221889,0.389805097 7.46086957,0.233883058 7.29715142,0.191004498 C7.06326837,0.132533733 6.82548726,0.0857571214 6.5838081,0.0545727136 L6.5838081,0.0545727136 C6.33823088,0.0233883058 6.09655172,0.00779610195 5.85487256,0.00779610195 C5.0167916,0.00779610195 4.21769115,0.187106447 3.49265367,0.510644678 C2.74032984,0.845877061 2.07376312,1.33313343 1.52803598,1.93343328 C1.4071964,2.06596702 1.41889055,2.27256372 1.55142429,2.3934033 C1.68395802,2.51424288 1.89055472,2.50254873 2.0113943,2.37001499 C2.49865067,1.83208396 3.09115442,1.3994003 3.76161919,1.10314843 C4.40089955,0.818590705 5.11034483,0.658770615 5.85877061,0.658770615 C6.08485757,0.658770615 6.30314843,0.670464768 6.50584708,0.697751124 C6.62668666,0.713343328 6.74752624,0.732833583 6.86836582,0.756221889 C6.86056972,0.845877061 6.86056972,0.931634183 6.86056972,1.0173913 C6.86056972,1.78530735 7.09445277,2.50254873 7.49985007,3.09895052 C7.87796102,3.65637181 8.40029985,4.10464768 9.01229385,4.3892054 C9.07856072,4.95832084 9.33193403,5.46506747 9.70614693,5.85877061 C10.0608696,6.22908546 10.5286357,6.49415292 11.0509745,6.5994003 L11.0509745,17.0812594 C11.0509745,17.3424288 10.9457271,17.5763118 10.7742129,17.7478261 C10.6026987,17.9193403 10.3688156,18.0245877 10.1076462,18.0245877 L1.5982009,18.0245877 C1.33703148,18.0245877 1.10314843,17.9193403 0.931634183,17.7478261 C0.76011994,17.5763118 0.654872564,17.3424288 0.654872564,17.0812594 L0.654872564,5.85097451 C0.654872564,5.45727136 0.697751124,5.07526237 0.783508246,4.70884558 Z"
                    fill="#653042"></path>
                  <path
                    d="M9.35532234,9.17991004 L9.35532234,9.17991004 C9.50344828,9.09415292 9.55412294,8.90314843 9.46836582,8.75502249 L8.82128936,7.63238381 C8.73553223,7.48425787 8.54452774,7.43358321 8.3964018,7.51934033 L8.3964018,7.51934033 C8.24827586,7.60509745 8.1976012,7.79610195 8.28335832,7.94422789 L8.93043478,9.06686657 C9.0161919,9.2149925 9.2071964,9.26566717 9.35532234,9.17991004 Z"
                    fill="#653042"></path>
                  <path
                    d="M4.98170915,8.17811094 L5.89775112,7.26206897 C6.0185907,7.14122939 6.0185907,6.94242879 5.89775112,6.82158921 L5.89775112,6.82158921 C5.77691154,6.70074963 5.57811094,6.70074963 5.45727136,6.82158921 L4.54122939,7.73763118 C4.42038981,7.85847076 4.42038981,8.05727136 4.54122939,8.17811094 L4.54122939,8.17811094 C4.66206897,8.29895052 4.86086957,8.29895052 4.98170915,8.17811094 Z"
                    fill="#653042"></path>
                  <path
                    d="M3.37181409,10.095952 L3.37181409,10.095952 C3.51994003,10.0101949 3.57061469,9.8191904 3.48485757,9.67106447 L2.83778111,8.54842579 C2.75202399,8.40029985 2.56101949,8.34962519 2.41289355,8.43538231 L2.41289355,8.43538231 C2.26476762,8.52113943 2.21409295,8.71214393 2.29985007,8.86026987 L2.94692654,9.98290855 C3.02878561,10.1310345 3.22368816,10.1817091 3.37181409,10.095952 Z"
                    fill="#653042"></path>
                  <path
                    d="M6.46296852,4.82578711 L6.46296852,4.82578711 C6.5838081,4.70494753 6.5838081,4.50614693 6.46296852,4.38530735 L5.54692654,3.46926537 C5.42608696,3.34842579 5.22728636,3.34842579 5.10644678,3.46926537 L5.10644678,3.46926537 C4.9856072,3.59010495 4.9856072,3.78890555 5.10644678,3.90974513 L6.02248876,4.82578711 C6.14332834,4.94662669 6.34212894,4.94662669 6.46296852,4.82578711 Z"
                    fill="#653042"></path>
                </g>
              </g>
            </g>
          </g>
        </g>
      </g>
    </g>
  </g>
</svg>
