<?xml version="1.0" encoding="UTF-8"?>
<svg width="78px" height="78px" viewBox="0 0 78 78" version="1.1" xmlns="http://www.w3.org/2000/svg"
     xmlns:xlink="http://www.w3.org/1999/xlink">
  <title>Shinjuku Ramen</title>
  <defs>
    <circle id="path-1" cx="39" cy="39" r="39"></circle>
  </defs>
  <g id="Log-In/Sign-Up" stroke="none" stroke-width="1" fill="none" fill-rule="evenodd">
    <g id="Mobile-Order-History-Past" transform="translate(-28.000000, -700.000000)">
      <g id="Shinjuku-Ramen" transform="translate(20.000000, 684.000000)">
        <g transform="translate(8.000000, 16.000000)">
          <mask id="mask-2" fill="white">
            <use xlink:href="#path-1"></use>
          </mask>
          <use id="Mask" fill="#FFFFFF" xlink:href="#path-1"></use>
          <g id="Ramen-badge" mask="url(#mask-2)" fill-rule="nonzero">
            <rect id="Rectangle" fill="#FFECD6" x="0" y="0" width="78.0000557" height="78"></rect>
            <g id="Group" transform="translate(6.685714, 6.685714)">
              <path
                d="M62.3497457,35.2729929 C62.4811757,33.9330086 64.6006029,33.7262529 64.6006029,32.3139514 C64.6006029,30.9023743 62.4811757,30.6956186 62.3497457,29.3555229 C62.2184271,28.0163186 64.2547843,27.4000629 63.9800571,26.0159529 C63.70455,24.6307843 61.58685,24.8403814 61.1961814,23.55288 C60.8055129,22.2645429 62.6836971,21.2625214 62.1428229,19.9589743 C61.6019486,18.65448 59.5659814,19.2740229 58.9312286,18.0870857 C58.2973671,16.8985329 59.94378,15.5502471 59.1595457,14.3763471 C58.3746429,13.2036729 56.4996343,14.2083686 55.6445314,13.1682386 C54.7897629,12.12666 56.1425057,10.4830329 55.1439943,9.48441 C54.1455943,8.48606571 52.5018,9.83697 51.4615029,8.98387286 C50.4201471,8.12999571 51.4256786,6.25287 50.2508314,5.47002857 C49.0774329,4.68462429 47.7282557,6.33109286 46.5425443,5.69717571 C45.3546043,5.06158714 45.9740357,3.02523 44.6695971,2.48558143 C43.3654371,1.94582143 42.3630257,3.82300286 41.0756914,3.432 C39.7865186,3.04161 39.9977314,0.92391 38.61351,0.648402857 C37.2283971,0.372561429 36.6121971,2.41042286 35.2730486,2.27743286 C33.9336214,2.14589143 33.7255843,0.0278014286 32.31384,0.0278014286 C30.9022629,0.0278014286 30.6956186,2.14589143 29.3555229,2.27743286 C28.0163743,2.41042286 27.4001186,0.372561429 26.0158971,0.648402857 C24.6307843,0.923965714 24.8413843,3.04166571 23.55288,3.432 C22.2648771,3.82300286 21.26319,1.94582143 19.9589186,2.48558143 C18.6550929,3.02523 19.2744129,5.06158714 18.0869743,5.69717571 C16.9000929,6.33109286 15.5511943,4.68462429 14.3770157,5.47002857 C13.2033386,6.25287 14.2075329,8.12999571 13.16757,8.98387286 C12.1267714,9.83697 10.4829771,8.48606571 9.48452143,9.48441 C8.48656714,10.4829771 9.83858571,12.1266043 8.98398429,13.1682386 C8.12988429,14.2083686 6.25387286,13.2036729 5.46947143,14.3763471 C4.68468,15.5502471 6.33114857,16.8985329 5.69728714,18.0870857 C5.06253429,19.2740229 3.0264,18.65448 2.48563714,19.9589743 C1.94537571,21.2624657 3.82350429,22.2645429 3.43294714,23.5537157 C3.04177714,24.8411057 0.923575714,24.6307286 0.64896,26.0158971 C0.373118571,27.4000629 2.41053429,28.0162629 2.27860286,29.3554671 C2.14667143,30.6955629 0.0279128571,30.9023186 0.0279128571,32.3138957 C0.0279128571,33.7262529 2.14667143,33.9330086 2.27860286,35.2729371 C2.41053429,36.6121414 0.373118571,37.2283971 0.64896,38.6126186 C0.923575714,39.9977314 3.04177714,39.7875214 3.43294714,41.07558 C3.82311429,42.3633043 1.94582143,43.3647686 2.48563714,44.6694857 C3.0264,45.9746486 5.06253429,45.3546043 5.69728714,46.5418757 C6.33114857,47.7293143 4.68468,49.0774329 5.46947143,50.2514443 C6.25359429,51.4248429 8.12988429,50.4200914 8.98398429,51.4609457 C9.83858571,52.5018 8.48656714,54.1455943 9.48452143,55.1439386 C10.4829771,56.14245 12.1272171,54.7908214 13.16757,55.6444757 C14.2075329,56.4980186 13.2033943,58.37403 14.3774614,59.1589329 C15.5511943,59.9437243 16.8992014,58.2973114 18.08703,58.9320643 C19.2748586,59.5659257 18.6546471,61.60167 19.9589743,62.1418757 C21.2632457,62.6829729 22.2653786,60.8054571 23.5533814,61.1955686 C24.84144,61.5866829 24.63084,63.7044386 26.0159529,63.9800014 C27.40023,64.2551186 28.01643,62.2179257 29.3555786,62.3502471 C30.6952286,62.4819 30.9023186,64.6006029 32.3138957,64.6006029 C33.72564,64.6006029 33.9345686,62.4819557 35.2731043,62.3502471 C36.6122529,62.2179257 37.2284529,64.2550629 38.61312,63.9800014 C39.9978429,63.7044943 39.78663,61.5866829 41.0757471,61.1955686 C42.3630257,60.8054571 43.3654929,62.6829729 44.6696529,62.1427671 C45.9740914,61.60167 45.35466,59.5659257 46.5426,58.9320643 C47.7287014,58.2973114 49.0774886,59.9437243 50.2508871,59.1598243 C51.42579,58.37403 50.4210943,56.4980743 51.4615586,55.6444757 C52.50141,54.7908214 54.14565,56.14245 55.14405,55.1439386 C56.1425614,54.1455386 54.7902643,52.5007971 55.6450329,51.4609457 C56.49969,50.4200914 58.3743643,51.4248429 59.1596014,50.2505529 C59.9438357,49.0773771 58.2978686,47.7292586 58.9312843,46.5418757 C59.5660371,45.3545486 61.6020043,45.9745929 62.1428786,44.6694857 C62.6837529,43.3647686 60.8046771,42.3633043 61.1962371,41.0747443 C61.5869057,39.7866857 63.70455,39.9977871 63.9801129,38.6126743 C64.25484,37.2284529 62.2184271,36.6122529 62.3497457,35.2729929 Z"
                id="Path" fill="#9F0B10"></path>
              <path
                d="M60.5544086,32.3142857 C60.5544086,47.9103857 47.91033,60.5544643 32.3142857,60.5544643 C16.7176843,60.5544643 4.07421857,47.9103857 4.07421857,32.3142857 C4.07421857,16.71774 16.7176843,4.07410714 32.3142857,4.07410714 C47.9102743,4.07410714 60.5544086,16.71774 60.5544086,32.3142857 Z"
                id="Path" fill="#FAA819"></path>
              <g transform="translate(13.705714, 5.905714)" fill="#FED9B7" id="Shape">
                <path
                  d="M6.88767857,8.27925429 L6.38006571,7.64856857 C6.13481143,7.34381143 5.86972286,7.15911857 5.59148571,7.09933714 C5.55243,7.09042286 5.51253857,7.08451714 5.47164429,7.08095143 C5.48913857,6.98373 5.49682714,6.8874 5.49515571,6.79212857 C5.48925,6.44965286 5.36121857,6.12071571 5.11440429,5.81423143 C4.72507286,5.33013 4.25935714,5.09808 3.73753714,5.12660571 C3.25488429,5.15334857 2.71935857,5.40852 2.10020571,5.90682857 L0.00306428571,7.59474857 L0.958341429,8.78190857 L1.42845857,8.40360857 L3.51406714,10.9946571 L3.04395,11.3729571 L3.99984,12.5602843 L6.36201429,10.6585886 L5.40612429,9.47187429 L4.87656,9.89781 L4.21328143,9.07379571 L4.33223143,8.97802286 C4.63726714,8.73265714 4.78942286,8.71388143 4.82859,8.71388143 C4.83232286,8.71388143 4.83594429,8.71404857 4.83962143,8.71438286 C4.84112571,8.71455 4.99863,8.73393857 5.35436571,9.17530714 L6.47466857,10.5681086 L8.26281857,9.12867429 L7.30754143,7.94140286 L6.88767857,8.27925429 Z M3.90061286,7.23695143 C3.88757571,7.28742857 3.82707,7.42872 3.54342857,7.65698143 L3.25789286,7.88713714 L2.79089571,7.30676143 L3.07643143,7.07705143 C3.36012857,6.84890143 3.51144857,6.82004143 3.56343,6.81825857 L3.56972571,6.81814714 C3.59635714,6.81814714 3.67680857,6.81814714 3.80194286,6.97364571 C3.92763429,7.12975714 3.90741,7.21032 3.90061286,7.23695143 Z"></path>
                <path
                  d="M13.2450686,5.46807857 L10.9937657,2.76671571 L11.4621,2.58804 L10.9188857,1.16420571 L7.53307286,2.45638714 L8.07623143,3.88022143 L8.50211143,3.71748 L8.60278714,7.23962571 L8.08458857,7.43707714 L8.62802571,8.86091143 L11.2039757,7.87777714 L10.6608729,6.45411 L10.2356614,6.61623857 L10.2236829,6.31861286 L11.37825,5.87819143 L11.5676229,6.10812429 L11.1388457,6.27159 L11.6819486,7.69525714 L14.36916,6.67005857 L13.8253329,5.24650286 L13.2450686,5.46807857 Z M10.3687071,4.63208571 L10.1376043,4.72028143 L10.1221157,4.33083857 L10.3687071,4.63208571 Z"></path>
                <path
                  d="M21.4549586,4.88892857 L21.4008043,1.56312 L22.0010143,1.55364857 L21.9754414,0.0295842857 L19.2304543,0.07449 L18.4170257,2.55171429 L17.5325614,0.102068571 L14.7055629,0.147642857 L14.7304114,1.67103857 L15.33363,1.66145571 L15.3877843,4.98754286 L14.7845657,4.99718143 L14.8094143,6.52057714 L17.8180414,6.47210571 L17.8007143,5.42556857 L17.9137586,5.71801286 L18.9708814,5.70074143 L19.0541743,5.45743714 L19.0699414,6.45154714 L22.0792929,6.40279714 L22.0551129,4.87917857 L21.4549586,4.88892857 Z M17.1213343,4.95940714 L17.0992157,3.60621857 L17.6181943,4.95105 L17.1213343,4.95940714 Z M19.6958914,3.59078571 L19.7182886,4.91695286 L19.2374186,4.92519857 L19.6958914,3.59078571 Z"></path>
                <path
                  d="M26.4054514,6.38251714 L25.4346857,6.04383 L25.78641,5.03785286 L27.2097986,5.53515857 L27.7071043,4.11104571 L28.8111386,4.49603143 L29.5614429,2.34724286 L24.8119114,0.689297143 L24.3095914,2.12811857 L24.8793814,2.32679571 L23.7835371,5.46746571 L23.2139143,5.26862143 L22.7115943,6.70705286 L27.4597329,8.36505429 L28.2533271,6.09347143 L26.6952771,5.54931 L26.4054514,6.38251714 Z M27.3072986,3.89030571 L26.3083414,3.54170143 L26.52936,2.91079286 L27.5268686,3.25939714 L27.3072986,3.89030571 Z"></path>
                <path
                  d="M34.6718914,5.55549429 L33.7645286,6.74064857 L34.0233214,5.06019429 L32.1864771,3.65524714 L31.2617871,4.86603 L31.7403171,5.23224 L29.7200057,7.87471286 L29.2413086,7.50844714 L28.3155043,8.71889571 L30.6172843,10.4795229 L31.5433114,9.26868429 L31.0737514,8.90938286 L31.9921457,7.70718 L31.41138,11.22537 L32.5586486,12.10287 L35.5722343,8.16203143 L36.0519343,8.52874286 L36.9767357,7.31840571 L34.6718914,5.55549429 Z M34.2257314,7.13254286 L33.5728714,7.98519429 L33.75918,6.77597143 L34.2257314,7.13254286 Z"></path>
              </g>
              <path
                d="M58.9382486,21.06663 C57.4830471,17.6258271 55.3997229,14.5357457 52.74633,11.8822414 C50.0929371,9.22884857 47.0028557,7.14552429 43.5613286,5.69015571 C39.9992914,4.18319571 36.2151214,3.41913 32.3142857,3.41913 C28.41345,3.41913 24.6292243,4.18319571 21.0665743,5.69015571 C17.6257714,7.14552429 14.53569,9.22884857 11.8822414,11.8822414 C9.22884857,14.53569 7.14552429,17.6258271 5.69021143,21.06663 C4.18319571,24.62928 3.41918571,28.4135057 3.41918571,32.3142857 C3.41918571,36.2151771 4.18319571,39.9994029 5.69015571,43.5613843 C7.14546857,47.0028557 9.22879286,50.0929929 11.8821857,52.7463857 C14.5355786,55.3997786 17.6257157,57.4831029 21.0665186,58.9384157 C24.62928,60.4454314 28.41345,61.20933 32.31423,61.20933 C36.21501,61.20933 39.9992914,60.4454314 43.5612729,58.9384157 C47.0027443,57.4831029 50.0928814,55.3997786 52.7462743,52.7463857 C55.3996671,50.0929929 57.4829914,47.0028 58.9381929,43.5613843 C60.44532,39.9993471 61.2092186,36.2151771 61.2092186,32.3142857 C61.2092186,28.4135057 60.4453757,24.62928 58.9382486,21.06663 Z M59.8982057,32.3142857 C59.8982057,47.5241743 47.5240629,59.8984286 32.31423,59.8984286 C17.1043971,59.8984286 4.72980857,47.5241743 4.72980857,32.3142857 C4.72980857,17.1043971 17.1043971,4.72969714 32.3142857,4.72969714 C47.5241743,4.72969714 59.8982057,17.1043971 59.8982057,32.3142857 Z"
                id="Shape" fill="#FED9B7"></path>
              <g transform="translate(3.677143, 3.677143)" fill="#ED1C24" id="Path">
                <path
                  d="M56.7987086,30.7477114 C56.6045443,30.7327243 56.4558986,30.5665843 56.4677657,30.3753729 C56.4808029,30.1834371 56.6480571,30.0356271 56.8416643,30.0445414 C57.0377786,30.0534557 57.1863686,30.2210443 57.1727743,30.4177714 C57.1605729,30.6145543 56.9935414,30.7630886 56.7987086,30.7477114 Z"></path>
                <path
                  d="M56.56443,32.8472486 C56.3716586,32.8172186 56.23683,32.6401586 56.26296,32.4496157 C56.2758857,32.3552914 56.3274771,32.27484 56.3994043,32.22024 C56.4707743,32.1655286 56.5629257,32.1377829 56.6592557,32.1495943 C56.7565329,32.16135 56.8398814,32.2118271 56.8952614,32.2835314 C56.9499171,32.3550129 56.9763257,32.4478329 56.9628429,32.5460014 C56.9360443,32.7413914 56.7574243,32.8758857 56.56443,32.8472486 Z"></path>
                <path
                  d="M56.1742071,34.9230514 C55.9841657,34.8789814 55.86282,34.6917257 55.9027671,34.5045257 C55.92405,34.4113714 55.9814357,34.3335943 56.0572071,34.28568 C56.1318086,34.2362614 56.2261329,34.2140871 56.3212929,34.2343114 C56.4161186,34.2531429 56.4966257,34.3095257 56.5466571,34.38513 C56.5951286,34.4605671 56.6155757,34.5563957 56.5938471,34.6519457 C56.5526743,34.8447171 56.3644714,34.9657286 56.1742071,34.9230514 Z"></path>
                <path
                  d="M55.6286529,36.96303 C55.4422329,36.9050314 55.33515,36.7093629 55.3898057,36.5256729 C55.41783,36.4342457 55.4806757,36.3608143 55.5598457,36.3188057 C55.6384586,36.2751814 55.7336743,36.2612529 55.8272743,36.2870486 C55.9215429,36.3141257 55.9969243,36.3764143 56.0397129,36.4553614 C56.0833371,36.5341414 56.0958729,36.6311957 56.0680714,36.7250186 C56.0116886,36.9142243 55.8151286,37.0210286 55.6286529,36.96303 Z"></path>
                <path
                  d="M54.9315557,38.9573229 C54.7499829,38.8845043 54.6585557,38.6812586 54.7265829,38.5020257 C54.7946657,38.3242414 54.9983014,38.2319229 55.18071,38.2977771 C55.3655143,38.3644671 55.4570529,38.5686043 55.3868529,38.7520714 C55.3169314,38.9366529 55.1132957,39.02886 54.9315557,38.9573229 Z"></path>
                <path
                  d="M54.08676,40.89189 C53.9114829,40.8074271 53.8347643,40.5979971 53.91555,40.4241129 C53.9962243,40.2501171 54.2071029,40.1745686 54.3840514,40.2541286 C54.5625043,40.3348586 54.6386657,40.5444557 54.5556514,40.7235771 C54.4723586,40.9010271 54.2619257,40.9783029 54.08676,40.89189 Z"></path>
                <path
                  d="M53.0973857,42.7586529 C52.92924,42.6604843 52.8694029,42.4466529 52.9630029,42.2786743 C53.0558229,42.1123114 53.2713257,42.05214 53.4420343,42.1446257 C53.6138571,42.2384486 53.67492,42.4528929 53.5791471,42.6256071 C53.48304,42.7982657 53.2668686,42.8576571 53.0973857,42.7586529 Z"></path>
                <path
                  d="M51.9714557,44.5451871 C51.8111657,44.4347614 51.7698814,44.2186457 51.8730643,44.0581329 C51.97881,43.8977314 52.1978786,43.8532157 52.3612329,43.9593514 C52.5258129,44.0654871 52.5711643,44.2840543 52.46241,44.4494143 C52.3547143,44.6143286 52.1324143,44.6560029 51.9714557,44.5451871 Z"></path>
                <path
                  d="M50.7154886,46.2434143 C50.56272,46.1204529 50.5395429,45.9038914 50.6549829,45.7500643 C50.77176,45.5985771 50.9918871,45.5701629 51.1482771,45.6876086 C51.3042214,45.8054443 51.3330257,46.0283014 51.2129057,46.1842457 C51.0939557,46.3424743 50.8660843,46.3648157 50.7154886,46.2434143 Z"></path>
                <path
                  d="M49.3367829,47.8438071 C49.1940986,47.7097029 49.1857414,47.4900771 49.3143857,47.34834 C49.4415814,47.2040957 49.6628229,47.1926743 49.8102429,47.32143 C49.95627,47.4502971 49.9686943,47.6749929 49.8377657,47.8220786 C49.7053329,47.9678271 49.4787986,47.9767971 49.3367829,47.8438071 Z"></path>
                <path
                  d="M47.8436957,49.3368386 C47.7105943,49.1939871 47.7175586,48.9712971 47.8581257,48.84087 C47.9958514,48.7079914 48.2164243,48.7118357 48.3540943,48.85101 C48.4904271,48.9913543 48.4874186,49.2159943 48.3442329,49.3526614 C48.2002671,49.4881586 47.9765186,49.4798571 47.8436957,49.3368386 Z"></path>
                <path
                  d="M46.2433029,50.7155443 C46.1218457,50.5634443 46.1451343,50.3414229 46.2940029,50.2211914 C46.4429829,50.1011829 46.6619957,50.1198471 46.7885786,50.2693843 C46.9137129,50.4173614 46.8961071,50.6447871 46.7415557,50.7683057 C46.5885643,50.8921029 46.3648714,50.8678114 46.2433029,50.7155443 Z"></path>
                <path
                  d="M44.5451314,51.9715114 C44.4360429,51.8105529 44.4743186,51.5908714 44.63238,51.4812814 C44.7901629,51.37314 45.0076714,51.4083514 45.1212729,51.5674714 C45.2356543,51.7245857 45.2013343,51.9493929 45.03759,52.0598743 C44.87613,52.1723057 44.6552229,52.1331386 44.5451314,51.9715114 Z"></path>
                <path
                  d="M42.7585414,53.0975529 C42.6605957,52.9279029 42.7155857,52.7123443 42.8809457,52.6142871 C42.9632357,52.5660943 43.0590086,52.5550071 43.1461457,52.5782957 C43.2325586,52.5994114 43.3127871,52.6538443 43.3638771,52.7367471 C43.4139086,52.8206529 43.4274471,52.9165371 43.4053286,53.0044543 C43.3836557,53.0927057 43.3271057,53.1715971 43.2427543,53.2219629 C43.0726029,53.32236 42.8560414,53.2663114 42.7585414,53.0975529 Z"></path>
                <path
                  d="M40.8918343,54.0869271 C40.8079286,53.9105914 40.8784629,53.6982086 41.0503971,53.6133557 C41.2221086,53.5282243 41.4337671,53.6003186 41.52213,53.77242 C41.6131114,53.9464157 41.5421871,54.1582414 41.36535,54.2457686 C41.1883457,54.3342429 40.9771329,54.2618143 40.8918343,54.0869271 Z"></path>
                <path
                  d="M38.9572671,54.9317229 C38.88612,54.7510414 38.9724771,54.5447871 39.1500943,54.47247 C39.3276,54.3990386 39.5330186,54.4867329 39.6089571,54.6664114 C39.6848957,54.8462571 39.5991514,55.0520657 39.4163529,55.1265557 C39.2335543,55.2007671 39.0284143,55.1149114 38.9572671,54.9317229 Z"></path>
                <path
                  d="M36.9629743,55.6288757 C36.9061457,55.4432357 37.0085486,55.2455057 37.1907343,55.1855014 C37.3720286,55.1263329 37.5712629,55.2287357 37.63383,55.41354 C37.6963971,55.5985114 37.5943286,55.7976343 37.4066271,55.8585857 C37.2191486,55.9202057 37.0204714,55.8165214 36.9629743,55.6288757 Z"></path>
                <path
                  d="M34.9229957,56.1743186 C34.9004871,56.0786014 34.9203214,55.9850571 34.9663971,55.9078929 C35.0137543,55.83084 35.0888014,55.7717829 35.1827357,55.7494414 C35.3689329,55.7036443 35.5590857,55.8202543 35.6071114,56.0092929 C35.6551929,56.1984429 35.5389729,56.3894871 35.3471486,56.4365657 C35.2522114,56.4594643 35.15577,56.4424157 35.0792186,56.3950586 C35.0025,56.3466429 34.9441114,56.26881 34.9229957,56.1743186 Z"></path>
                <path
                  d="M32.8471929,56.5645414 C32.8323729,56.4674314 32.8584471,56.3755586 32.9113757,56.3031857 C32.9642486,56.22981 33.0434186,56.1764357 33.1374086,56.1598329 C33.3264471,56.1292457 33.5075186,56.2595057 33.5422286,56.4515529 C33.5756571,56.6436 33.4455086,56.8256186 33.2508986,56.8584343 C33.1545129,56.8743129 33.0596314,56.8491857 32.9868129,56.79609 C32.9137714,56.7434957 32.8612329,56.6602586 32.8471929,56.5645414 Z"></path>
                <path
                  d="M30.7476,56.79882 C30.73356,56.6057143 30.8780271,56.4346157 31.0686814,56.4163971 C31.25967,56.39985 31.42932,56.5430357 31.4499343,56.73837 C31.4691557,56.9324229 31.3260814,57.1032429 31.1297443,57.1215171 C30.9319586,57.1390114 30.7622529,56.9948229 30.7476,56.79882 Z"></path>
                <path
                  d="M28.6371419,56.8773214 C28.6375329,56.6821543 28.7925857,56.5214743 28.9855243,56.5190786 C29.17707,56.5167943 29.3359114,56.6732957 29.3410371,56.8684629 C29.3461629,57.0634071 29.19111,57.2229729 28.9939929,57.22548 C28.79604,57.2280429 28.6366971,57.0723771 28.6371419,56.8773214 Z"></path>
                <path
                  d="M26.5264071,56.79882 C26.5415614,56.6046557 26.7084257,56.45601 26.8995257,56.4679886 C27.0907929,56.4810257 27.2386029,56.6481686 27.22902,56.8417757 C27.2199943,57.03789 27.0532414,57.18648 26.8564586,57.1728857 C26.6590629,57.1606843 26.51181,56.9936529 26.5264071,56.79882 Z"></path>
                <path
                  d="M24.4271486,56.5645414 C24.4565657,56.37177 24.6341829,56.2369414 24.82389,56.2630714 C24.9189386,56.2761086 25.0001143,56.3275886 25.0540457,56.3996271 C25.1087014,56.4709971 25.13706,56.5630371 25.1252486,56.6593671 C25.1129357,56.7566443 25.0631271,56.8399929 24.9906986,56.8953729 C24.9191614,56.9500286 24.8256171,56.9764371 24.7281729,56.9630657 C24.5328943,56.9361557 24.3984,56.7575357 24.4271486,56.5645414 Z"></path>
                <path
                  d="M22.3519586,56.1743186 C22.39536,55.9842771 22.58256,55.8629314 22.76976,55.9028786 C22.8636386,55.9241614 22.9400786,55.9815471 22.9892186,56.0573186 C23.0380243,56.1320314 23.0594186,56.2262443 23.0399743,56.3214043 C23.0211429,56.4163414 22.9646486,56.4967371 22.8890443,56.5468243 C22.81305,56.59524 22.7177786,56.6156871 22.62156,56.59407 C22.4288443,56.5527857 22.3078329,56.3645829 22.3519586,56.1743186 Z"></path>
                <path
                  d="M20.3112557,55.6288757 C20.3692543,55.4424557 20.5648671,55.3352614 20.7486129,55.3900286 C20.8406529,55.4179414 20.9126914,55.4807871 20.9555914,55.5600686 C20.9991043,55.6386814 21.0130329,55.7338971 20.9865686,55.8273857 C20.9603829,55.9217657 20.8983729,55.9970357 20.8189243,56.0402143 C20.7402,56.0833929 20.6431457,56.0964857 20.5490443,56.0681271 C20.3598386,56.0118 20.2532571,55.81524 20.3112557,55.6288757 Z"></path>
                <path
                  d="M18.3177429,54.9317229 C18.38928,54.75015 18.5925814,54.6586114 18.7715914,54.7266386 C18.9508243,54.7948329 19.0423071,54.9983571 18.9765086,55.1807657 C18.90954,55.36557 18.7060714,55.4571086 18.52149,55.3869086 C18.3369643,55.3169871 18.2455371,55.1134071 18.3177429,54.9317229 Z"></path>
                <path
                  d="M16.3817829,54.0869271 C16.4668029,53.9115943 16.6770129,53.83482 16.8502286,53.9157171 C17.0241686,53.99628 17.0997171,54.2071586 17.0202129,54.3841071 C16.9398729,54.56256 16.7299971,54.6387214 16.5515443,54.5557071 C16.3725343,54.47247 16.2967071,54.2620371 16.3817829,54.0869271 Z"></path>
                <path
                  d="M14.5156329,53.0975529 C14.6131329,52.9292957 14.8276329,52.8694586 14.9950543,52.9630586 C15.1626986,53.0558786 15.2226471,53.2713814 15.1297157,53.4422014 C15.0365614,53.6140243 14.8213371,53.6749757 14.64879,53.5792029 C14.4764657,53.4830957 14.4170186,53.2671471 14.5156329,53.0975529 Z"></path>
                <path
                  d="M12.7285971,51.9715114 C12.8391343,51.8112214 13.0557514,51.7699371 13.2165429,51.87312 C13.3764986,51.9788657 13.4204014,52.1979343 13.3149343,52.3612886 C13.2094671,52.5258686 12.9902314,52.57122 12.82515,52.4624657 C12.6594557,52.3548814 12.6182829,52.1326929 12.7285971,51.9715114 Z"></path>
                <path
                  d="M11.0308714,50.7155443 C11.1534986,50.5628871 11.3705057,50.5395986 11.5236643,50.6550386 C11.6757643,50.7719271 11.7037886,50.9919429 11.5860643,51.1483886 C11.4685629,51.3043329 11.2460957,51.3331371 11.0897057,51.2129057 C10.9319229,51.0940114 10.90947,50.86614 11.0308714,50.7155443 Z"></path>
                <path
                  d="M9.43059,49.3368386 C9.56385857,49.1941543 9.78420857,49.1857971 9.92633571,49.3144414 C10.0694657,49.4416371 10.0811657,49.6628786 9.95213143,49.8102986 C9.82332,49.9563257 9.59934857,49.96875 9.45192857,49.8378214 C9.30579,49.7053886 9.29799,49.4788543 9.43059,49.3368386 Z"></path>
                <path
                  d="M7.93700143,47.8438071 C8.08035429,47.7107614 8.30237571,47.71767 8.43280286,47.8581814 C8.56568143,47.9960186 8.56189286,48.21648 8.42255143,48.3542614 C8.28304286,48.4904829 8.05773429,48.4874743 7.92101143,48.3442886 C7.78674,48.2003786 7.79381571,47.9765743 7.93700143,47.8438071 Z"></path>
                <path
                  d="M6.55868571,46.2435257 C6.71151,46.1219571 6.93286286,46.1452457 7.05259286,46.2941143 C7.17249,46.4430943 7.15499571,46.6621071 7.00490143,46.78869 C6.85647857,46.9138243 6.62961,46.8962186 6.50603571,46.7416671 C6.38223857,46.58862 6.40586143,46.3649271 6.55868571,46.2435257 Z"></path>
                <path
                  d="M5.30283,44.5451871 C5.46417857,44.4360986 5.68347,44.4743743 5.79255857,44.6324914 C5.90053286,44.7902186 5.86593429,45.0077271 5.70742714,45.1213286 C5.54975571,45.23571 5.32545,45.20139 5.21407714,45.0376457 C5.10186857,44.8762414 5.14148143,44.6553343 5.30283,44.5451871 Z"></path>
                <path
                  d="M4.1769,42.7586529 C4.34638286,42.6607071 4.56205286,42.7156971 4.65988714,42.8811686 C4.70858143,42.9633471 4.71872143,43.05912 4.69660286,43.1462571 C4.67493,43.23267 4.62044143,43.3128986 4.53759429,43.3639886 C4.45419,43.41402 4.35786,43.4275586 4.26927429,43.40544 C4.18180286,43.3837671 4.1028,43.3272171 4.05243429,43.2428657 C3.95209286,43.0727143 4.00797429,42.8561529 4.1769,42.7586529 Z"></path>
                <path
                  d="M3.18808286,40.89189 C3.36369429,40.8079843 3.57563143,40.8785186 3.66104143,41.0504529 C3.74645143,41.2221643 3.67407857,41.4338229 3.50214429,41.5221857 C3.32731286,41.6131671 3.11660143,41.5422429 3.02846143,41.3654057 C2.94054429,41.1884014 3.01185857,40.9771886 3.18808286,40.89189 Z"></path>
                <path
                  d="M2.34261857,38.9573229 C2.52335571,38.8863986 2.72961,38.9725329 2.80237286,39.15015 C2.87463429,39.3276557 2.78766429,39.5330743 2.60793,39.6090129 C2.42864143,39.6849514 2.22227571,39.5992071 2.14784143,39.4164086 C2.07307286,39.23361 2.15954143,39.0285257 2.34261857,38.9573229 Z"></path>
                <path
                  d="M1.64552143,36.96303 C1.83116143,36.9062014 2.02883571,37.0086043 2.08872857,37.19079 C2.14795286,37.3723071 2.04621857,37.5713186 1.86130286,37.6338857 C1.67638714,37.6964529 1.47726429,37.5943843 1.41631286,37.4066829 C1.35469286,37.2192043 1.45782,37.0205271 1.64552143,36.96303 Z"></path>
                <path
                  d="M1.10052429,34.9230514 C1.19574,34.9005429 1.28989714,34.9203214 1.36583571,34.9664529 C1.44322286,35.01381 1.50200143,35.0888571 1.52495571,35.1827914 C1.57058571,35.3689886 1.45408714,35.5590857 1.26504857,35.6072786 C1.07595429,35.6552486 0.88491,35.5389171 0.837775714,35.3472043 C0.814821429,35.2522114 0.831925714,35.15577 0.879282857,35.0792743 C0.927197143,35.0025 1.00547571,34.9441671 1.10052429,34.9230514 Z"></path>
                <path
                  d="M0.709744286,32.8472486 C0.806297143,32.8323171 0.898782857,32.8584471 0.971545714,32.9114314 C1.04497714,32.9643043 1.09846286,33.0434186 1.11389571,33.1374643 C1.14520714,33.3265029 1.01483571,33.5075743 0.822788571,33.5422843 C0.630741429,33.5757129 0.448722857,33.4455643 0.416408571,33.2509543 C0.40014,33.1545686 0.424654286,33.0596314 0.477582857,32.9868686 C0.531458571,32.9138829 0.61347,32.8612886 0.709744286,32.8472486 Z"></path>
                <path
                  d="M0.4758,30.7477114 C0.669128571,30.7336157 0.839558571,30.8781386 0.857275714,31.0687371 C0.874157143,31.2597814 0.730581429,31.4294314 0.536528571,31.44999 C0.34242,31.4692671 0.170652857,31.3261371 0.153437143,31.1298557 C0.13533,30.9319586 0.279964286,30.7623643 0.4758,30.7477114 Z"></path>
                <path
                  d="M0.397075714,28.6371419 C0.592521429,28.6375886 0.752811429,28.7926414 0.755207143,28.98558 C0.757602857,29.1771814 0.601324286,29.3359671 0.406435714,29.3410929 C0.210934286,29.3462186 0.0507557143,29.1911657 0.0483042857,28.9940486 C0.0457971429,28.7963186 0.20202,28.6366971 0.397075714,28.6371419 Z"></path>
                <path
                  d="M0.4758,26.5268529 C0.670187143,26.5416729 0.818331429,26.7077014 0.805907143,26.8989129 C0.793872857,27.0908486 0.626172857,27.2386586 0.43212,27.2298 C0.23595,27.2207743 0.0883628571,27.0532971 0.100787143,26.85657 C0.112988571,26.6598429 0.281301429,26.5113086 0.4758,26.5268529 Z"></path>
                <path
                  d="M0.709744286,24.4271486 C0.902571429,24.4571786 1.03790143,24.6344614 1.01127,24.82467 C0.99762,24.9189943 0.946752857,24.9994457 0.874324286,25.0541571 C0.802842857,25.1087571 0.711304286,25.1366143 0.614305714,25.1246914 C0.517752857,25.1130471 0.434014286,25.06257 0.378912857,24.9908657 C0.324201429,24.9192729 0.297291429,24.8264529 0.311275714,24.7282843 C0.338241429,24.5330057 0.516917143,24.3985114 0.709744286,24.4271486 Z"></path>
                <path
                  d="M1.10052429,22.3520143 C1.29073286,22.39536 1.41163286,22.58256 1.37073857,22.7698157 C1.35068143,22.8636943 1.29340714,22.9400786 1.21696714,22.9892186 C1.14231,23.0380243 1.04859857,23.0594186 0.952881429,23.0399743 C0.857275714,23.0211429 0.77766,22.9646486 0.727795714,22.8890443 C0.678544286,22.81305 0.659155714,22.7177786 0.67977,22.6216157 C0.722112857,22.4288443 0.910315714,22.3078886 1.10052429,22.3520143 Z"></path>
                <path
                  d="M1.64552143,20.3113114 C1.83194143,20.36931 1.93857857,20.5649229 1.88409,20.7486686 C1.85690143,20.8407086 1.79416714,20.9127471 1.71438429,20.9555914 C1.63571571,20.99916 1.54111286,21.0130886 1.44701143,20.9866243 C1.35318857,20.9604386 1.27752857,20.8984286 1.23396,20.81898 C1.19072571,20.7402 1.17807857,20.6432014 1.20621429,20.5490443 C1.26259714,20.3598943 1.45910143,20.2533129 1.64552143,20.3113114 Z"></path>
                <path
                  d="M2.34261857,18.3176871 C2.52419143,18.38928 2.61623143,18.5925814 2.54809286,18.7715357 C2.47945286,18.9507686 2.27598429,19.0422514 2.09352,18.9764529 C1.90877143,18.9094843 1.81650857,18.70596 1.88732143,18.5214343 C1.95735429,18.3369643 2.16099,18.2455371 2.34261857,18.3176871 Z"></path>
                <path
                  d="M3.18808286,16.3818386 C3.36269143,16.4668586 3.44007857,16.6770686 3.35873571,16.8502843 C3.27806143,17.0242243 3.06762857,17.0997171 2.88967714,17.0202129 C2.71183714,16.9398729 2.63500714,16.7299971 2.71869,16.5514886 C2.80242857,16.3725343 3.01169143,16.2967629 3.18808286,16.3818386 Z"></path>
                <path
                  d="M4.1769,14.5156886 C4.34493429,14.6131886 4.40427,14.8276329 4.31156143,14.9950543 C4.21829571,15.1626986 4.00351714,15.2227029 3.83169429,15.1297157 C3.66042857,15.0366171 3.59942143,14.8213929 3.69569571,14.6488457 C3.79130143,14.4765214 4.00747286,14.4170743 4.1769,14.5156886 Z"></path>
                <path
                  d="M5.30283,12.7285971 C5.46362143,12.8391343 5.50440429,13.0556957 5.40049714,13.2165429 C5.29542,13.3764986 5.07696429,13.4204014 4.91299714,13.3149343 C4.74847286,13.2094671 4.70373429,12.9902314 4.81193143,12.8252057 C4.91946,12.6594 5.14198286,12.6182271 5.30283,12.7285971 Z"></path>
                <path
                  d="M6.55868571,11.0308157 C6.71206714,11.1534986 6.73407429,11.37045 6.61924714,11.5236643 C6.50247,11.6757643 6.28173,11.7037886 6.12595286,11.5860643 C5.97012,11.4685629 5.94126,11.2460957 6.06143571,11.08965 C6.18033,10.9320343 6.40747714,10.9095257 6.55868571,11.0308157 Z"></path>
                <path
                  d="M7.93700143,9.43059 C8.08018714,9.56391429 8.0886,9.78426429 7.9599,9.92639143 C7.83276,10.0694657 7.61085,10.0812214 7.46426571,9.95218714 C7.31790429,9.82337571 7.30497857,9.59940429 7.43646429,9.45198429 C7.56884143,9.30579 7.79476286,9.29804571 7.93700143,9.43059 Z"></path>
                <path
                  d="M9.43059,7.93705714 C9.56291143,8.08041 9.55672714,8.30232 9.41610429,8.43285857 C9.27837857,8.56573714 9.05719286,8.56189286 8.92063714,8.42255143 C8.78380286,8.28315429 8.78692286,8.05773429 8.92927286,7.92101143 C9.07374,7.78674 9.29826857,7.79381571 9.43059,7.93705714 Z"></path>
                <path
                  d="M11.0308714,6.55874143 C11.1518271,6.71156571 11.1296529,6.93286286 10.9802271,7.05259286 C10.8306343,7.17254571 10.61229,7.15505143 10.4857629,7.00495714 C10.3606286,6.85647857 10.37868,6.62961 10.5326743,6.50609143 C10.68639,6.38223857 10.9093029,6.40586143 11.0308714,6.55874143 Z"></path>
                <path
                  d="M12.7285971,5.30283 C12.83841,5.46412286 12.7999114,5.68347 12.6424629,5.79255857 C12.4840114,5.90053286 12.2671714,5.86587857 12.1522886,5.70742714 C12.03852,5.5497 12.0735643,5.32545 12.2365843,5.21407714 C12.3986571,5.10192429 12.6190071,5.14153714 12.7285971,5.30283 Z"></path>
                <path
                  d="M14.5156329,4.17684429 C14.61291,4.34632714 14.5582543,4.56205286 14.3932286,4.65988714 C14.3109386,4.70852571 14.2157786,4.71872143 14.1280843,4.69660286 C14.0410586,4.67498571 13.9619443,4.62044143 13.9107986,4.53759429 C13.8596529,4.45419 13.8471171,4.35780429 13.8688457,4.26927429 C13.8905743,4.18174714 13.9470686,4.1028 14.0320329,4.05237857 C14.2016271,3.95214857 14.4183557,4.00797429 14.5156329,4.17684429 Z"></path>
                <path
                  d="M16.3817829,3.18802714 C16.4663014,3.36363857 16.3958229,3.57557571 16.2239443,3.66098571 C16.0526786,3.74645143 15.8405186,3.67402286 15.7515429,3.50214429 C15.6612857,3.32725714 15.7327114,3.11654571 15.9089914,3.02846143 C16.0858843,2.94054429 16.2977657,3.01185857 16.3817829,3.18802714 Z"></path>
                <path
                  d="M18.3177429,2.34261857 C18.3879986,2.52335571 18.3017529,2.72961 18.1246929,2.80237286 C17.9471871,2.87463429 17.7413229,2.78766429 17.6652729,2.60793 C17.5892786,2.42869714 17.6750786,2.22233143 17.8578771,2.14784143 C18.0407314,2.07324 18.2459271,2.15948571 18.3177429,2.34261857 Z"></path>
                <path
                  d="M20.3112557,1.64552143 C20.36814,1.83116143 20.2657929,2.02883571 20.08422,2.08878429 C19.9019229,2.14800857 19.7036914,2.04621857 19.6411243,1.86135857 C19.5785571,1.67638714 19.6798457,1.47726429 19.8676029,1.41631286 C20.0551371,1.35469286 20.2537586,1.45782 20.3112557,1.64552143 Z"></path>
                <path
                  d="M22.3519586,1.10052429 C22.3730743,1.19574 22.3546329,1.28989714 22.3071086,1.36583571 C22.2604757,1.44322286 22.1848714,1.50200143 22.09155,1.52501143 C21.9053529,1.57064143 21.7152557,1.45408714 21.6671186,1.26504857 C21.61848,1.07595429 21.7347,0.88491 21.9263571,0.837775714 C22.0220186,0.814821429 22.1177357,0.831981429 22.1949,0.879282857 C22.2717857,0.927141429 22.3301186,1.00547571 22.3519586,1.10052429 Z"></path>
                <path
                  d="M24.4271486,0.7098 C24.4418571,0.806297143 24.4157829,0.898838571 24.3629657,0.971601429 C24.3107057,1.04503286 24.2308114,1.09846286 24.1361529,1.11389571 C23.9470586,1.14520714 23.7667671,1.01489143 23.7321129,0.822844286 C23.6980157,0.630741429 23.82861,0.448722857 24.0233871,0.416464286 C24.1204414,0.40014 24.2146543,0.424654286 24.2874729,0.477582857 C24.3605143,0.531402857 24.4129971,0.613414286 24.4271486,0.7098 Z"></path>
                <path
                  d="M26.5264071,0.4758 C26.5406143,0.669128571 26.3968714,0.839614286 26.20605,0.857331429 C26.0152843,0.874157143 25.8444643,0.730637143 25.82502,0.536584286 C25.80513,0.34242 25.9488729,0.170652857 26.14521,0.153437143 C26.3415471,0.13533 26.51259,0.28002 26.5264071,0.4758 Z"></path>
                <path
                  d="M28.6371434,0.39702 C28.6366971,0.592465714 28.4809757,0.752755714 28.28943,0.755207143 C28.0978843,0.757547143 27.9383186,0.601324286 27.9332486,0.40638 C27.9281229,0.210878571 28.08312,0.0507 28.2809614,0.0482485714 C28.4780229,0.0458528571 28.6374771,0.201964286 28.6371434,0.39702 Z"></path>
                <path
                  d="M30.7476,0.4758 C30.7326129,0.670242857 30.5665286,0.818387143 30.3752614,0.805907143 C30.1833257,0.793872857 30.0355714,0.626172857 30.04443,0.43212 C30.0534557,0.23595 30.2209329,0.0883628571 30.41766,0.100842857 C30.6144986,0.113044286 30.7630329,0.281245714 30.7476,0.4758 Z"></path>
                <path
                  d="M32.8471929,0.7098 C32.8171629,0.902627143 32.6399914,1.03795714 32.4496714,1.01132571 C32.3552914,0.99762 32.2747843,0.946808571 32.2201843,0.874324286 C32.1654729,0.802842857 32.1377829,0.711304286 32.1495943,0.614361429 C32.1612943,0.517752857 32.2117714,0.434014286 32.2834757,0.378912857 C32.3549571,0.324257143 32.4478329,0.297291429 32.5460014,0.311275714 C32.7413357,0.338297143 32.87583,0.516917143 32.8471929,0.7098 Z"></path>
                <path
                  d="M34.9229957,1.10052429 C34.8789257,1.29073286 34.69167,1.41163286 34.50447,1.37079429 C34.4113157,1.35068143 34.3335386,1.29340714 34.2856243,1.21696714 C34.2362057,1.14231 34.2141429,1.04859857 34.2342557,0.952881429 C34.2530871,0.857275714 34.30947,0.77766 34.3850743,0.727795714 C34.4605114,0.678544286 34.5563957,0.659211429 34.65189,0.67977 C34.8447171,0.722112857 34.9656729,0.910315714 34.9229957,1.10052429 Z"></path>
                <path
                  d="M36.9629743,1.64552143 C36.9049757,1.83194143 36.7093071,1.93857857 36.5256171,1.88409 C36.43419,1.85695714 36.3607586,1.79416714 36.31875,1.71438429 C36.2751257,1.63577143 36.2611971,1.54111286 36.2869929,1.44701143 C36.3141257,1.35318857 36.3763586,1.27752857 36.4553057,1.23396 C36.5340857,1.19072571 36.6311957,1.17807857 36.7249629,1.20621429 C36.9141129,1.26259714 37.0209729,1.45910143 36.9629743,1.64552143 Z"></path>
                <path
                  d="M38.9572671,2.34261857 C38.8844486,2.52419143 38.6812029,2.61628714 38.50197,2.54814857 C38.3241857,2.47939714 38.2318671,2.27598429 38.2977214,2.09352 C38.3644114,1.90877143 38.5684371,1.81645286 38.7520157,1.88726571 C38.9365971,1.95729857 39.0287486,2.16104571 38.9572671,2.34261857 Z"></path>
                <path
                  d="M40.8918343,3.18802714 C40.8073714,3.36269143 40.5979414,3.44007857 40.4240571,3.35868 C40.2500614,3.27800571 40.1745129,3.06757286 40.2540729,2.88962143 C40.3346914,2.71183714 40.5444,2.63500714 40.7235214,2.71863429 C40.9009714,2.80248429 40.9781914,3.01163571 40.8918343,3.18802714 Z"></path>
                <path
                  d="M42.7585414,4.17684429 C42.6603729,4.34487857 42.4465414,4.40427 42.2785629,4.31150571 C42.1122,4.21824 42.0520286,4.00346143 42.1445143,3.83158286 C42.2383371,3.66037286 42.4527814,3.59931 42.6254957,3.69564 C42.7981543,3.79124571 42.8576014,4.00741714 42.7585414,4.17684429 Z"></path>
                <path
                  d="M44.5451314,5.30283 C44.4347057,5.46362143 44.21859,5.50440429 44.0580771,5.40049714 C43.8976757,5.29542 43.85316,5.07690857 43.9592957,4.91299714 C44.0654314,4.74847286 44.2839986,4.70367857 44.4493586,4.81193143 C44.6142171,4.91946 44.6558914,5.14198286 44.5451314,5.30283 Z"></path>
                <path
                  d="M46.2433029,6.55874143 C46.1203414,6.71212286 45.90378,6.73413 45.7499529,6.61924714 C45.5984657,6.50252571 45.5700514,6.28173 45.6874971,6.12595286 C45.8053329,5.97017571 46.02819,5.94131571 46.1841343,6.06143571 C46.3424186,6.18033 46.36476,6.40747714 46.2433029,6.55874143 Z"></path>
                <path
                  d="M47.8436957,7.93705714 C47.7096471,8.08018714 47.4900214,8.0886 47.3482843,7.95995571 C47.20404,7.83281571 47.1926186,7.61090571 47.3213743,7.46426571 C47.4502414,7.31796 47.6749371,7.30509 47.8220229,7.43652 C47.9677157,7.56889714 47.9767414,7.79481857 47.8436957,7.93705714 Z"></path>
                <path
                  d="M49.3367829,9.43059 C49.1939314,9.56291143 48.97113,9.55672714 48.8408143,9.41616 C48.7079357,9.27837857 48.71178,9.05724857 48.8509543,8.92069286 C48.9912429,8.78385857 49.2158271,8.78697857 49.3524943,8.92932857 C49.4879914,9.07374 49.4797457,9.29832429 49.3367829,9.43059 Z"></path>
                <path
                  d="M50.7154886,11.0308714 C50.5633886,11.1518271 50.3413671,11.1296529 50.2211357,10.9802271 C50.1011271,10.8306343 50.1197914,10.61229 50.2693286,10.4857629 C50.4171943,10.3606286 50.64462,10.37868 50.76825,10.5326743 C50.8920471,10.68639 50.8677,10.9093586 50.7154886,11.0308714 Z"></path>
                <path
                  d="M51.9714557,12.7285971 C51.8104971,12.83841 51.5908157,12.7999114 51.4812257,12.6424629 C51.3730843,12.4840114 51.4082957,12.2671714 51.5674157,12.1522886 C51.72453,12.03852 51.9493371,12.0735643 52.0598186,12.2365843 C52.1721943,12.3986571 52.1330271,12.6190071 51.9714557,12.7285971 Z"></path>
                <path
                  d="M53.0973857,14.5156886 C52.9278471,14.6129657 52.7122886,14.55831 52.61412,14.3932286 C52.5660386,14.3109943 52.5548957,14.2158343 52.5781843,14.1280843 C52.5993,14.0411143 52.6537329,13.962 52.7366357,13.9108543 C52.8205414,13.8597086 52.9164257,13.8471729 53.0043429,13.8689014 C53.0925943,13.89063 53.1714857,13.9471243 53.2218514,14.0320886 C53.3223043,14.2016829 53.2661443,14.4184114 53.0973857,14.5156886 Z"></path>
                <path
                  d="M54.08676,16.3818386 C53.9105357,16.4663571 53.6980414,16.3958229 53.6133,16.224 C53.5281686,16.0527343 53.6002629,15.8405743 53.7723643,15.7515986 C53.94636,15.6613414 54.1581857,15.7327671 54.2457129,15.9090471 C54.3341871,16.08594 54.2617029,16.2977657 54.08676,16.3818386 Z"></path>
                <path
                  d="M54.9315557,18.3176871 C54.7508743,18.3879986 54.5447314,18.3017529 54.4724143,18.1246929 C54.3988714,17.9471314 54.4866771,17.7413229 54.6663557,17.6652729 C54.8462014,17.5892786 55.05201,17.6750786 55.1263886,17.8578771 C55.2007114,18.0407314 55.1148557,18.2458714 54.9315557,18.3176871 Z"></path>
                <path
                  d="M55.6286529,20.3113114 C55.4431243,20.36814 55.2453943,20.2658486 55.18539,20.0842757 C55.1262214,19.9019229 55.2285129,19.7037471 55.4134286,19.64118 C55.5984,19.5786129 55.7974114,19.6799014 55.8584743,19.8676586 C55.92015,20.0551371 55.81641,20.2537586 55.6286529,20.3113114 Z"></path>
                <path
                  d="M56.1742071,22.3520143 C56.07849,22.37313 55.9848343,22.3546329 55.90767,22.3071086 C55.8307286,22.2604757 55.77156,22.1848714 55.74933,22.09155 C55.7035329,21.9053529 55.8201429,21.7152557 56.0091814,21.6671186 C56.19822,21.6185357 56.3893757,21.7347 56.4364543,21.9264129 C56.4593529,22.0220186 56.4423043,22.1177357 56.3949471,22.1949 C56.3465314,22.2717857 56.2687543,22.33023 56.1742071,22.3520143 Z"></path>
                <path
                  d="M56.56443,24.4271486 C56.4672086,24.4418014 56.3754471,24.4158386 56.3030743,24.3628543 C56.2296986,24.3100929 56.1763243,24.2308671 56.1597214,24.1368214 C56.1290229,23.9477829 56.2593943,23.7668229 56.4514414,23.7320014 C56.6434886,23.6986843 56.8255071,23.8288329 56.8583229,24.0233871 C56.87409,24.1197171 56.8489629,24.2145986 56.7959786,24.2874729 C56.7432729,24.3605143 56.6601471,24.4131086 56.56443,24.4271486 Z"></path>
                <path
                  d="M56.7987086,26.5268529 C56.6056029,26.54067 56.4345043,26.3961471 56.4162857,26.2055486 C56.3996271,26.0146157 56.5429243,25.8449657 56.7382586,25.8242957 C56.9323114,25.80513 57.1031314,25.9481486 57.1212943,26.1445414 C57.1389557,26.3423271 56.9947671,26.5120329 56.7987086,26.5268529 Z"></path>
                <path
                  d="M56.8772657,28.6371438 C56.6820986,28.6366971 56.5214186,28.4817557 56.5190229,28.2887057 C56.5167386,28.0973829 56.67324,27.9383186 56.8684071,27.9333043 C57.0633514,27.9281786 57.2228057,28.08312 57.2254243,28.2803486 C57.2278757,28.4782457 57.07221,28.6375886 56.8772657,28.6371438 Z"></path>
              </g>
              <path
                d="M12.3701314,20.0202043 C12.3701314,20.0202043 12.2811,20.2024457 12.1245986,20.5210757 C12.0858771,20.6010814 12.04008,20.6880514 11.9969571,20.7856629 C11.9529429,20.88294 11.9059757,20.9883514 11.8552757,21.1003929 C11.8053,21.2126014 11.75187,21.3319414 11.6954314,21.4575771 C11.64306,21.5852186 11.5886271,21.7192114 11.53113,21.8590543 C11.5025486,21.92931 11.4732986,22.0005129 11.4435471,22.0729971 C11.4290614,22.1092114 11.4137957,22.1464286 11.3990314,22.1833114 C11.3848243,22.2206957 11.3710629,22.2584143 11.3566329,22.2964671 C11.30064,22.4489571 11.2424186,22.6065171 11.18247,22.7684786 C11.1201257,22.9289914 11.0681443,23.0994771 11.0102014,23.2704643 C10.9817871,23.3563757 10.9532614,23.4432343 10.9245129,23.5304271 C10.9096929,23.5743857 10.8954857,23.61801 10.8804986,23.6625257 C10.8675729,23.7068743 10.8540343,23.7515571 10.8410529,23.7968529 C10.7881243,23.97681 10.7349171,24.1590514 10.6804843,24.3441343 C10.62711,24.5291614 10.5828729,24.7193143 10.5327857,24.9087986 C10.5084386,25.0036243 10.4845371,25.0988957 10.4600229,25.19439 C10.4386843,25.2907757 10.41768,25.3873286 10.3964529,25.4842157 C10.3750586,25.5808243 10.3538871,25.6782129 10.3327157,25.7749886 C10.3113214,25.8717643 10.2889243,25.9682614 10.2726,26.0662629 C10.2369986,26.26104 10.2013414,26.4558171 10.16574,26.64987 C10.13064,26.8437 10.10685,27.0388671 10.0771543,27.2309143 C10.0627243,27.3274671 10.0488514,27.42246 10.0345329,27.5183443 C10.0240586,27.6137271 10.01364,27.7092214 10.00272,27.8033229 C9.98288571,27.9930857 9.95920714,28.1783914 9.94238143,28.3621929 C9.91703143,28.7309657 9.88143,29.0848629 9.87340714,29.4218786 C9.86688857,29.5904143 9.86048143,29.7531 9.85435286,29.9118857 C9.85362857,30.0694457 9.85290429,30.2231057 9.85223571,30.3693557 C9.85290429,30.5163857 9.84711,30.6563957 9.85323857,30.7898314 C9.85719429,30.9229329 9.86103857,31.0493486 9.86466,31.1682986 C9.86817,31.2870257 9.87151286,31.3970614 9.87452143,31.4998543 C9.88148571,31.6029257 9.88778143,31.6962471 9.89329714,31.7822143 C9.91586143,32.1207343 9.92839714,32.3143414 9.92839714,32.3143414 L7.84663286,32.3143414 C7.84663286,32.3143414 7.86674571,32.1042429 7.90162286,31.7353029 C7.91031429,31.6427057 7.91995286,31.5418071 7.93098429,31.4306014 C7.94508,31.3198414 7.96095857,31.2002229 7.97733857,31.0726929 C7.99427571,30.9453857 8.01177,30.8101114 8.03071286,30.66765 C8.04765,30.5253 8.07717857,30.3752614 8.10191571,30.2202086 C8.12804571,30.06393 8.15523429,29.9029157 8.18337,29.73477 C8.21702143,29.56785 8.25189857,29.3968071 8.28766714,29.2196357 C8.35385571,28.8651257 8.45113286,28.4973557 8.54105571,28.1160471 C8.58986143,27.9262286 8.64568714,27.7347943 8.69900571,27.54102 C8.72613857,27.4449129 8.75338286,27.3469114 8.78079429,27.24969 C8.81138143,27.1520786 8.84224714,27.05547 8.87300143,26.9569671 C8.93634857,26.7618557 8.99395714,26.5643486 9.06287571,26.3686243 C9.13218429,26.17368 9.20166,25.9782343 9.27113571,25.7826771 C9.30445286,25.6847871 9.34373143,25.58868 9.38200714,25.4922943 C9.41989286,25.39602 9.45777857,25.3001357 9.49560857,25.2035829 C9.53360571,25.1080886 9.57171429,25.0123714 9.60926571,24.9172114 C9.64993714,24.8230543 9.69060857,24.72951 9.73155857,24.6359657 C9.81368143,24.4503814 9.89073429,24.2644071 9.97542,24.0842271 C10.0610529,23.9047714 10.14585,23.7280457 10.2291986,23.5535486 C10.2497571,23.5104257 10.27065,23.4669129 10.2912643,23.4239014 C10.3132157,23.3817257 10.33539,23.33916 10.3574529,23.2972629 C10.4009657,23.21319 10.4440329,23.1304543 10.4872114,23.0478857 C10.5735686,22.8841971 10.6533514,22.7220686 10.7427171,22.5696343 C10.8294643,22.4163643 10.9134257,22.2672171 10.9951029,22.1234186 C11.01516,22.0875386 11.03544,22.0514357 11.0556643,22.0162243 C11.0764457,21.9814586 11.0975614,21.9470829 11.1185657,21.9129857 C11.1600171,21.84507 11.2006329,21.77838 11.2410814,21.7129714 C11.3205857,21.5824886 11.39736,21.45741 11.4700114,21.3382371 C11.5465071,21.2212929 11.6197714,21.1109229 11.6880771,21.0064586 C11.7562714,20.9029971 11.8202314,20.80611 11.8794,20.7162986 C11.9381229,20.6264871 11.9974029,20.5483757 12.0476571,20.4754457 C12.25302,20.18562 12.3701314,20.0202043 12.3701314,20.0202043 Z"
                id="Path" fill="#FED9B7"></path>
              <path
                d="M52.2579386,20.0202043 C52.2579386,20.0202043 52.37544,20.18562 52.58058,20.4755014 C52.63128,20.5484871 52.6907271,20.6265429 52.7493386,20.7163543 C52.8085629,20.80611 52.8724114,20.9030529 52.9406614,21.0065143 C53.0090229,21.1109786 53.0815629,21.2213486 53.1579471,21.3382929 C53.2319357,21.4574657 53.3080414,21.5825443 53.3876571,21.7130271 C53.4281057,21.7784357 53.4690557,21.8451257 53.5100614,21.9130414 C53.5303971,21.9471386 53.5522371,21.9815143 53.5730743,22.01628 C53.5927971,22.0514914 53.61369,22.08765 53.63358,22.1234743 C53.7147557,22.2672729 53.7996643,22.41642 53.88591,22.56969 C53.9757771,22.7221243 54.05517,22.8842529 54.1414157,23.0479414 C54.18465,23.1304543 54.2282743,23.21319 54.27123,23.2973186 C54.2925686,23.3392157 54.3154671,23.3818371 54.3370843,23.4239571 C54.3586457,23.4669686 54.3789814,23.5104814 54.3993171,23.5536043 C54.4834457,23.7281571 54.5676857,23.9048271 54.6528729,24.0842829 C54.7386171,24.2644629 54.8150571,24.4504371 54.89718,24.6360214 C54.9380186,24.7295657 54.9781329,24.82311 55.0193614,24.9172671 C55.0575257,25.0124271 55.0946871,25.1081443 55.1330743,25.2036386 C55.17018,25.3001357 55.2086786,25.3960757 55.2472329,25.49235 C55.28445,25.58868 55.32423,25.6848429 55.3569343,25.7827329 C55.4262429,25.97829 55.497,26.1737357 55.5661414,26.36868 C55.6347257,26.5644043 55.6926686,26.7619114 55.7560714,26.9570229 C55.7863243,27.0555257 55.8176914,27.1521343 55.8477771,27.2497457 C55.8758571,27.3469114 55.9024886,27.4449686 55.9289529,27.5410757 C55.9823829,27.7349057 56.0386543,27.9262843 56.0876271,28.1161029 C56.1768814,28.4974114 56.2747714,28.8651257 56.3410714,29.2196914 C56.3773971,29.3968629 56.4116057,29.5679057 56.4458143,29.7348257 C56.4733929,29.9029714 56.50125,30.0639857 56.5268229,30.2202643 C56.55078,30.3753171 56.5809771,30.5254114 56.5978586,30.6677057 C56.6163557,30.8101671 56.6348529,30.9453857 56.6512886,31.0727486 C56.6676129,31.2002786 56.6828229,31.3198971 56.6981443,31.4306571 C56.7086743,31.5418629 56.7183129,31.6427614 56.72706,31.7353586 C56.7624386,32.1042429 56.7819943,32.3143971 56.7819943,32.3143971 L54.70023,32.3143971 C54.70023,32.3143971 54.7127657,32.12079 54.7359429,31.78227 C54.7414029,31.6963029 54.7475871,31.6029257 54.7541057,31.49991 C54.75717,31.3971171 54.7604014,31.2870814 54.7640229,31.1683543 C54.7675886,31.0494043 54.7713214,30.9229886 54.7753329,30.7898871 C54.7809043,30.6564514 54.7756671,30.5164414 54.7763357,30.3694114 C54.7756671,30.2231614 54.7749429,30.0695014 54.7741629,29.9119414 C54.76809,29.7531557 54.7617386,29.59047 54.75522,29.4219343 C54.7475871,29.0849186 54.7115957,28.7310771 54.68619,28.3622486 C54.6687514,28.1784471 54.64563,27.9931414 54.6258514,27.8033786 C54.6154886,27.7092771 54.6048471,27.6137829 54.5934257,27.5184 C54.57972,27.4225157 54.5658471,27.3275229 54.5519186,27.23097 C54.52161,27.0389786 54.4979871,26.8437557 54.4626086,26.6499257 C54.42762,26.4559286 54.3915729,26.2610957 54.3565286,26.0663186 C54.33909,25.9683171 54.3171943,25.8718757 54.2960786,25.7750443 C54.27435,25.6782686 54.2535686,25.58088 54.2326757,25.4842714 C54.2106129,25.3873843 54.1898314,25.2908314 54.1678243,25.1944457 C54.1439786,25.0989514 54.1201886,25.00368 54.0952286,24.9088543 C54.0461443,24.71937 54.0015171,24.5292171 53.9480871,24.34419 C53.8935429,24.1591629 53.8398343,23.9769214 53.7867943,23.7969086 C53.7738686,23.7516129 53.7608871,23.70693 53.7480729,23.6625814 C53.7336986,23.6180657 53.7182657,23.5744414 53.7040029,23.5304829 C53.6755329,23.44329 53.6462271,23.3564314 53.61837,23.27052 C53.5604271,23.0995329 53.5084457,22.9291029 53.4461014,22.7685343 C53.3861529,22.6065729 53.3277086,22.4490129 53.2712143,22.2965229 C53.2573971,22.2584143 53.2436914,22.2207514 53.2302086,22.1833671 C53.2141071,22.1464843 53.1993986,22.1092671 53.1849129,22.0730529 C53.1544371,22.0005686 53.1259114,21.9293657 53.0978314,21.85911 C53.0404457,21.7192671 52.9854,21.5852743 52.9329729,21.4576329 C52.87659,21.3319971 52.8229371,21.2127129 52.77246,21.1004486 C52.7230414,20.9884071 52.6754614,20.8829957 52.6314471,20.7857186 C52.5888814,20.6881071 52.5425829,20.6011371 52.5038057,20.5211314 C52.3481957,20.2024457 52.2579386,20.0202043 52.2579386,20.0202043 Z"
                id="Path" fill="#FED9B7"></path>
              <path
                d="M51.3339729,32.3142857 C51.3339729,42.81888 42.8186571,51.3340843 32.31423,51.3340843 C21.8103043,51.3340843 13.2951557,42.81888 13.2951557,32.3142857 C13.2951557,21.8104157 21.8103043,13.2951557 32.31423,13.2951557 C42.8187129,13.2951557 51.3339729,21.8104157 51.3339729,32.3142857 Z"
                id="Path" fill="#ED1C24"></path>
              <polygon id="Path" fill="#F37121"
                       points="51.3339729 33.07863 51.3338614 31.5501643 32.65041 32.2853143 51.1774157 29.7648 50.91177 28.2596786 32.6405486 32.2280957 50.4481157 26.5270757 49.9246243 25.09182 32.6205471 32.1717129 49.16691 23.4665786 48.4029 22.1424171 32.5906286 32.1206786 47.3754729 20.6744571 46.3922829 19.50351 32.5535229 32.0757729 45.1250057 18.2358986 43.9547271 17.2530429 32.5077814 32.0377757 42.4856529 16.2256714 41.1612686 15.4606029 32.45697 32.0079686 39.5377543 14.7036129 38.1016629 14.1810129 32.4014786 31.9876329 36.3688929 13.7164114 34.8633814 13.4511 32.3440929 31.9776043 33.0781843 13.2952114 31.55022 13.2952114 32.2844229 31.9776043 29.7643543 13.4511 28.2589543 13.7164114 32.2262014 31.9872986 26.5269086 14.1808457 25.09104 14.7036129 32.17071 32.0073 23.4665786 15.4606029 22.1423057 16.2256714 32.1202329 32.0368843 20.6742343 17.2530429 19.5034543 18.2358986 32.0741571 32.0748814 18.2357871 19.50351 17.2530986 20.6744571 32.0363829 32.1202886 16.2254486 22.1423057 15.4611043 23.4665786 32.0064643 32.1712114 14.7032786 25.0917086 14.1809014 26.5269643 31.9865743 32.22765 13.7166343 28.2596786 13.4510443 29.7648 31.9773257 32.2853143 13.2951 31.5501643 13.2952114 33.0782957 31.9773814 32.3434243 13.4511 34.8637714 13.7167457 36.3690043 31.9875771 32.4009214 14.1809014 38.1017186 14.70339 39.5372529 32.0080243 32.4570814 15.4611043 41.1614357 16.2256157 42.4856529 32.0371629 32.5078929 17.2531543 43.9543929 18.2358986 45.1251171 32.07477 32.5531329 19.5034543 46.3922829 20.67429 47.3755286 32.1206786 32.59113 22.1423614 48.4029557 23.4665786 49.1677457 32.1711557 32.6210486 25.09104 49.92468 26.5269643 50.4481157 32.2262014 32.6413843 28.2589543 50.9119929 29.7643543 51.17736 32.2844229 32.6509671 31.55022 51.3340843 33.0781843 51.3340843 32.3440929 32.6509671 34.8633814 51.1774714 36.3688929 50.9119929 32.4014786 32.6416071 38.1016629 50.4481157 39.5377543 49.92468 32.4573043 32.6212714 41.1612686 49.1677457 42.4855414 48.4029557 32.5082271 32.5917429 43.9547271 47.3755286 45.1248943 46.3922829 32.5541914 32.5535786 46.3921714 45.1251171 47.3753614 43.9542814 32.5915757 32.5085057 48.4029 42.4856529 49.1667986 41.1614357 32.6222743 32.4575829 49.9246243 39.53703 50.4480043 38.1016071 32.6420529 32.4012557 50.91177 36.3690043 51.1771929 34.8637714 32.6516914 32.3435357"></polygon>
              <path
                d="M49.9435114,32.3142857 C49.9435114,42.0499114 42.0498,49.9436229 32.31423,49.9436229 C22.5779914,49.9436229 14.68545,42.0499114 14.68545,32.3142857 C14.68545,22.5781029 22.5779914,14.6855057 32.31423,14.6855057 C42.0498557,14.6855057 49.9435114,22.5781029 49.9435114,32.3142857 Z"
                id="Path" fill="#56270F"></path>
              <path
                d="M32.3142857,16.8461614 C36.4467814,16.8461614 40.24176,18.3360171 43.2292157,20.8236043 C40.3356386,17.8099071 36.5102957,15.9758486 32.3142857,15.9758486 C28.1184986,15.9758486 24.2929329,17.8099071 21.3994114,20.8235486 C24.3874243,18.3359057 28.1824586,16.8461614 32.3142857,16.8461614 Z"
                id="Path" fill="#7F4128"></path>
              <polygon id="Path" fill="#ED1C24"
                       points="46.2769543 32.8756629 46.2768429 31.75302 32.5615457 32.2930586 46.1634643 30.4416729 45.9672386 29.3374714 32.5542471 32.2506043 45.6269914 28.0662943 45.2432871 27.0119571 32.5395386 32.2088186 44.6868129 25.81878 44.1256586 24.84651 32.5172529 32.1724929 43.3710086 23.7686614 42.6501771 22.9091014 32.4900643 32.1390643 41.7193586 21.9782829 40.8604671 21.2567829 32.4560229 32.1112071 39.7814486 20.5023 38.80968 19.9412014 32.4197529 32.0889214 37.6171157 19.3852286 36.5624443 19.0016357 32.3786357 32.0740457 35.2909886 18.6604971 34.18662 18.4656643 32.3363486 32.0667471 32.8753843 18.3509486 31.75302 18.3509486 32.2921671 32.0667471 30.4425086 18.4656643 29.3374714 18.6604971 32.2497686 32.0738229 28.0654029 19.0015243 27.0113443 19.3852286 32.2091529 32.0884757 25.81878 19.9412014 24.8463429 20.5023 32.17188 32.1105943 23.7684943 21.2567829 22.9091014 21.9782829 32.1378943 32.1384514 21.9782829 22.9091014 21.2568943 23.7686614 32.1107057 32.1721586 20.5021329 24.8463986 19.9415914 25.81878 32.0885314 32.20854 19.3850614 27.0118457 19.0014686 28.0661829 32.07321 32.2503257 18.6606643 29.3374714 18.4656086 30.4416729 32.0669143 32.2930586 18.3509486 31.75302 18.3510043 32.87544 32.06697 32.3357357 18.4656643 34.1868986 18.66072 35.2911 32.0739343 32.3782457 19.0014686 36.5625 19.3851171 37.6168371 32.0896457 32.4198643 19.9415914 38.8099029 20.5022443 39.7813929 32.1112629 32.4560786 21.2568943 40.8603557 21.9783386 41.71947 32.13834 32.4897857 22.9091014 42.6502886 23.76855 43.3710643 32.1723257 32.5176429 24.8463986 44.1257143 25.81878 44.6874257 32.2093757 32.5399843 27.0113443 45.2433986 28.0654586 45.6270471 32.2497686 32.55486 29.3374714 45.9675729 30.4425086 46.1634086 32.2921671 32.5619357 31.75302 46.2768986 32.8753843 46.2768986 32.3363486 32.5619357 34.18662 46.16352 35.2909886 45.9675729 32.3786914 32.5550829 36.5624443 45.6270471 37.6171157 45.2433986 32.4200314 32.5402071 38.80968 44.6874257 39.7813371 44.1257143 32.4563571 32.5180886 40.8604671 43.3710643 41.7193586 42.6501771 32.49051 32.49012 42.6501771 41.71947 43.3708971 40.8602443 32.5179214 32.4566357 44.1256586 39.7813929 44.6867014 38.8099029 32.5408757 32.4202543 45.2432871 37.6167257 45.62688 36.5623886 32.5554171 32.3784686 45.9672386 35.2911 46.1633529 34.1868986 32.5624929 32.3357357"></polygon>
              <path
                d="M46.6266729,33.1777457 C46.6266729,41.4695914 40.2183043,48.1926343 32.3142857,48.1926343 C24.4095986,48.1926343 18.0017871,41.4695914 18.0017871,33.1777457 C18.0017871,24.8845071 46.6266729,24.8845071 46.6266729,33.1777457 Z"
                id="Path" fill="#FED9B7"></path>
              <path
                d="M45.8365886,33.2333486 C45.8365886,36.4273371 39.7821729,39.0171043 32.3143414,39.0171043 C24.84573,39.0171043 18.79137,36.4273929 18.79137,33.2333486 C18.79137,30.0380229 24.84573,27.4482 32.3143414,27.4482 C39.7821729,27.4482 45.8365886,30.0380786 45.8365886,33.2333486 Z"
                id="Path" fill="#F8991D"></path>
              <g transform="translate(18.775714, 27.411429)" id="Path">
                <path
                  d="M27.0608743,5.82192 C27.0608743,9.01590857 21.0064586,11.6056757 13.5386271,11.6056757 C6.07001571,11.6056757 0.0156557143,9.01596429 0.0156557143,5.82192 C0.0156557143,2.62659429 6.07001571,0.0367714286 13.5386271,0.0367714286 C21.0064586,0.0367714286 27.0608743,2.62665 27.0608743,5.82192 Z"
                  fill="#FAA819"></path>
                <path
                  d="M24.3843043,6.55679143 C24.3843043,9.11964857 19.5285257,11.1968443 13.5386271,11.1968443 C7.54867286,11.1968443 2.69289429,9.11964857 2.69289429,6.55679143 C2.69289429,3.99532714 7.54867286,1.91802 13.5386271,1.91802 C19.52847,1.91802 24.3843043,3.99532714 24.3843043,6.55679143 Z"
                  fill="#F78C1E"></path>
                <path
                  d="M21.7076229,7.293 C21.7076229,9.22199571 18.0504814,10.7866757 13.5386271,10.7866757 C9.02733,10.7866757 5.37024429,9.22199571 5.37024429,7.293 C5.37024429,5.36261143 9.02738571,3.79793143 13.5386271,3.79793143 C18.0504814,3.79793143 21.7076229,5.36261143 21.7076229,7.293 Z"
                  fill="#F37121"></path>
                <path
                  d="M19.0297157,8.02926429 C19.0297157,9.32579143 16.5711557,10.3779557 13.5385714,10.3779557 C10.5059314,10.3779557 8.04742714,9.32579143 8.04742714,8.02926429 C8.04742714,6.73128857 10.5059314,5.67912429 13.5385714,5.67912429 C16.5711557,5.67918 19.0297157,6.73128857 19.0297157,8.02926429 Z"
                  fill="#F04F23"></path>
                <path
                  d="M16.3531457,8.76413571 C16.3531457,9.42953143 15.0932229,9.96778714 13.5385714,9.96778714 C11.9845886,9.96778714 10.7247214,9.42958714 10.7247214,8.76413571 C10.7247214,8.10002143 11.9845886,7.56048429 13.5385714,7.56048429 C15.0932229,7.56048429 16.3531457,8.10002143 16.3531457,8.76413571 Z"
                  fill="#ED1C24"></path>
              </g>
              <path
                d="M46.0318671,33.93546 C45.7866686,35.9457429 43.3584729,39.1157186 32.2773471,39.7191043 C34.73067,39.9382843 37.0309457,39.9220157 39.0964414,39.6505757 C39.3547886,39.6174814 39.6093471,39.5792057 39.8602286,39.5379771 C39.2123271,39.7221686 38.5092686,39.8878071 37.75005,40.0325529 C36.1716643,40.3337443 34.3512557,40.54791 32.3004129,40.6634614 C33.9467143,40.8172329 35.5189714,40.8527786 36.9885471,40.7664214 C37.5350486,40.7347757 38.0662843,40.6852457 38.5823657,40.6186671 C38.8694614,40.5810043 39.1499271,40.5376029 39.42744,40.4909143 C38.7781457,40.6870286 38.0683457,40.8617486 37.2977057,41.0125671 C35.8485214,41.2946486 34.1836114,41.4972257 32.3105529,41.6078186 C33.8150614,41.7554614 35.2529914,41.7929014 36.5989929,41.7171857 C37.0983043,41.6895514 37.5853586,41.6452586 38.0575371,41.5851986 C38.3591743,41.5463657 38.6545157,41.5021843 38.94384,41.4504814 C38.3045186,41.6552871 37.6006243,41.83647 36.8326586,41.9910771 C35.5127314,42.2566114 34.0018714,42.4459843 32.3080457,42.5517857 C33.67065,42.6930771 34.97286,42.7327457 36.1966243,42.6676714 C36.6488571,42.6440486 37.0903371,42.6048814 37.5195043,42.55134 C37.83702,42.5128414 38.1458443,42.4645929 38.4494314,42.4087671 C37.8217543,42.6235457 37.1265514,42.8107457 36.3649371,42.97059 C35.1741557,43.21707 33.8189057,43.3947429 32.3042014,43.4956414 C33.52362,43.62969 34.6929514,43.6724786 35.7916929,43.6180457 C36.1981843,43.5983229 36.5939786,43.5645043 36.9796329,43.51893 C37.3025529,43.4792057 37.6179514,43.4298986 37.9258843,43.3716771 C37.31715,43.5946457 36.6416143,43.7876957 35.8974386,43.9485429 C34.8359143,44.1771943 33.6347143,44.3431114 32.2991871,44.4392186 C33.3768129,44.5670829 34.41048,44.6119329 35.3868729,44.5681414 C35.7448929,44.5523743 36.09645,44.52513 36.4381457,44.4846814 C36.7558843,44.4469071 37.0660457,44.4002186 37.3682957,44.3418857 C36.7876414,44.5683086 36.1414114,44.7647571 35.4274329,44.9274429 C34.4965586,45.1369286 33.4494643,45.29109 32.29239,45.3824057 C33.2274429,45.5041971 34.1282314,45.5509414 34.9796014,45.5179029 C35.29188,45.5061471 35.5978629,45.4841957 35.8969929,45.45021 C36.2650414,45.4099286 36.621,45.3520414 36.96693,45.2781643 C36.3727371,45.5420271 35.7037757,45.7651071 34.9577614,45.9448971 C34.1547514,46.1364986 33.2631,46.2776786 32.2852029,46.3653729 C33.0785186,46.48098 33.8435314,46.5285043 34.57272,46.5073886 C34.83792,46.4996443 35.0982729,46.4828743 35.3533886,46.4554629 C35.7514671,46.4145686 36.1365643,46.3485471 36.5056714,46.2600171 C36.4436614,46.2898243 36.3786986,46.3194086 36.3132343,46.3511657 C35.7699643,46.6097357 35.1597257,46.8267429 34.4858057,47.0006271 C33.8134457,47.1744557 33.0758443,47.3037686 32.27718,47.3852786 C40.9506129,48.0806486 46.1851929,39.0171043 46.0318671,33.93546 Z"
                id="Path" fill="#ED1C24"></path>
              <g transform="translate(6.574286, 29.862857)" fill="#56270F" id="Path">
                <path
                  d="M2.42942143,0.0493071429 C2.42942143,1.37592 1.35385714,2.45142857 0.0267428571,2.45142857 C1.35385714,2.45142857 2.42942143,3.52699286 2.42942143,4.85366143 C2.42942143,3.52693714 3.50493,2.45142857 4.83165429,2.45142857 C3.50493,2.45142857 2.42942143,1.37586429 2.42942143,0.0493071429 Z"></path>
                <path
                  d="M49.0511357,0.0493071429 C49.0511357,1.37592 47.97546,2.45142857 46.6490143,2.45142857 C47.9755157,2.45142857 49.0511357,3.52699286 49.0511357,4.85366143 C49.0511357,3.52693714 50.1266443,2.45142857 51.45348,2.45142857 C50.1265886,2.45142857 49.0511357,1.37586429 49.0511357,0.0493071429 Z"></path>
              </g>
              <g transform="translate(14.207143, 6.295714)" fill="#56270F">
                <path
                  d="M4.31919429,10.0289614 L4.84848,9.60246857 L5.33937857,10.2127071 L3.55423714,11.6491886 L3.06361714,11.0394514 L3.53373429,10.6610957 L0.983412857,7.49251286 L0.513295714,7.87086857 L0.02223,7.26118714 L1.83132857,5.80537286 C2.38239857,5.36160857 2.85753,5.1285 3.25666714,5.10666 C3.65580429,5.08437429 4.01159571,5.26789714 4.32448714,5.65639286 C4.51915286,5.89852714 4.61871429,6.14929714 4.62322714,6.40853571 C4.62785143,6.66788571 4.53882,6.94183286 4.35546429,7.22970857 C4.59977143,7.08212143 4.81856143,7.02963857 5.01239143,7.07114571 C5.20605429,7.11282 5.39865857,7.25294143 5.59014857,7.49061857 L6.32986714,8.41023857 L6.74967429,8.07249857 L7.24023857,8.68218 L6.02962286,9.65684571 L5.14137,8.55309 C4.83627857,8.17428857 4.58038286,7.97522143 4.37312571,7.95533143 C4.16642571,7.93560857 3.90830143,8.05043571 3.59880857,8.29947857 L3.19125857,8.62730143 L4.31919429,10.0289614 Z M1.76887286,6.86032286 L2.70008143,8.01773143 L3.27471857,7.55541429 C3.54794143,7.33517571 3.70906714,7.12970143 3.75809571,6.93849 C3.80656714,6.74733429 3.75079714,6.55166571 3.58961571,6.35103857 C3.42631714,6.14896286 3.24669429,6.05129571 3.04907571,6.05787 C2.85201429,6.0645 2.61684429,6.17826857 2.34289714,6.39856286 L1.76887286,6.86032286 Z"
                  id="Shape"></path>
                <path
                  d="M9.38496,6.75608143 L9.94516714,6.54219429 L10.2244071,7.27372286 L8.34037286,7.99254857 L8.0613,7.26118714 L8.47915714,7.10195571 L8.35630714,2.79546429 L7.78896857,3.01185857 L7.50972857,2.28055286 L10.2032914,1.25268 L10.4824757,1.98426429 L9.87602571,2.21553429 L12.6282,5.51861143 L13.1104071,5.33469857 L13.3889229,6.06606 L11.3945743,6.82711714 L11.1153343,6.09581143 L11.6791629,5.88053143 L10.9930414,5.04715714 L9.34133571,5.67750857 L9.38496,6.75608143 Z M9.28679143,4.86018 L10.4786871,4.40538429 L9.20583857,2.84733429 L9.28679143,4.86018 Z"
                  id="Shape"></path>
                <polygon id="Path"
                         points="16.2552 4.94581286 16.9276157 4.93450286 16.9401514 5.7174 14.6719671 5.75406 14.6595429 4.97133 15.2627614 4.96158 15.1968514 0.894938571 14.5934657 0.904744286 14.58054 0.122181429 16.7726743 0.0866357143 17.9318657 3.29873143 18.99846 0.0500871429 21.1107557 0.0159342857 21.12318 0.798887143 20.5230814 0.808414286 20.5889357 4.87511143 21.1891457 4.86547286 21.20157 5.64837 18.93333 5.68503 18.92085 4.90218857 19.5934329 4.89149143 19.5316457 1.08436714 18.2040857 4.94481 17.6649943 4.95327857 16.1935243 1.13863286"></polygon>
                <polygon id="Path"
                         points="22.6826229 6.08951571 22.9407471 5.35018714 23.5104257 5.54931 24.8505214 1.70925857 24.2808429 1.51058143 24.5387443 0.771141429 28.5875014 2.18472429 28.0816157 3.63418714 27.2525314 3.34480714 27.49812 2.64174857 25.7997814 2.04889286 25.3357929 3.37923857 26.7592929 3.87648857 26.4817243 4.67314714 25.0568871 4.17584143 24.4621929 5.8812 26.1308914 6.46425 26.4222214 5.63104286 27.2796086 5.93084143 26.7317143 7.50298714"></polygon>
                <polygon id="Path"
                         points="30.0520071 8.58858 30.52296 8.94843857 30.04677 9.56993143 28.3329986 8.25969857 28.8091886 7.63753714 29.2876629 8.00430429 31.7578114 4.77304286 31.2793371 4.40672143 31.7540786 3.78472714 33.1226443 4.83076286 32.4847714 8.97222857 34.2432814 6.67262143 33.7634143 6.30641143 34.2396043 5.68430571 35.9563843 6.99749143 35.48142 7.61898429 35.0017757 7.25283 31.98819 11.1936686 31.3112614 10.6760829 32.0987829 5.91251143"></polygon>
              </g>
              <path
                d="M53.7417771,42.3658114 L52.3591714,37.8860486 L52.3586143,37.8860486 C49.9162114,46.6601571 41.8548557,53.11683 32.3142857,53.11683 C22.7731029,53.11683 14.7123043,46.6601571 12.2700686,37.8860486 L10.8874629,42.3658114 L7.13950714,41.14578 C7.32236143,41.66721 7.52248714,42.1848514 7.73916,42.6978686 C9.08248714,45.8738614 11.0052429,48.7257086 13.4540529,51.1745743 C15.9024729,53.6234957 18.7547657,55.5455271 21.9314271,56.8899686 C25.2214114,58.2816557 28.71492,58.9869429 32.31423,58.9869429 C35.9135957,58.9869429 39.4064357,58.2816557 42.6977571,56.8899686 C45.87375,55.5455271 48.7255971,53.6234957 51.1744629,51.1745743 C53.6233843,48.7257643 55.5454157,45.8738614 56.8898571,42.6978686 C57.1060843,42.1851857 57.30543,41.6674329 57.4888971,41.1460029 L53.7417771,42.3658114 Z"
                id="Path" fill="#ED1C24"></path>
              <g transform="translate(10.975714, 44.348571)" fill="#FED9B7">
                <polygon id="Path"
                         points="0.984415714 2.57533714 1.23546429 2.89597286 0.862234286 3.18747 0.0149314286 2.10527571 0.388551429 1.81366714 0.613915714 2.10093 2.55444429 0.581712857 2.32908 0.294227143 2.70275571 0.00161571429 3.52164429 1.04692714 2.39348571 2.78287286 4.35312429 2.10939857 5.14203857 3.11727 4.76830714 3.41021571 4.54439143 3.12351 2.60386286 4.64272714 2.82777857 4.92943286 2.45410286 5.22226714 1.60668857 4.13868 1.98036429 3.84718286 2.23146857 4.16787429 4.04864571 2.74487571 1.69755857 3.51624 1.49665286 3.25839429 2.80148143 1.15256143"></polygon>
                <path
                  d="M4.45569429,6.46090714 L4.73092286,6.69802714 L4.42187571,7.05827571 L3.49501286,6.26145 L3.80433857,5.90114571 L4.00936714,6.07787143 L6.26886,4.76925429 L5.98973143,4.53046286 L6.29900143,4.17032571 L7.62422143,5.30901429 L7.31495143,5.66926286 L7.01682429,5.41286571 L6.05101714,7.83237 L6.28824857,8.03561571 L5.97892286,8.39592 L4.99779429,7.55296286 L5.30700857,7.19304857 L5.58402,7.43150571 L5.83033286,6.82488857 L5.01746143,6.12662143 L4.45569429,6.46090714 Z M5.43771429,5.86220143 L6.02360571,6.36591429 L6.48659143,5.2377 L5.43771429,5.86220143 Z"
                  id="Shape"></path>
                <path
                  d="M10.05108,6.96406286 C10.59201,7.27667571 10.9307529,7.64088 11.06664,8.05650857 C11.2026943,8.47135714 11.13177,8.91935571 10.8542014,9.40089429 C10.57719,9.88076143 10.2247414,10.1650157 9.79691143,10.2549943 C9.36891429,10.34436 8.88464571,10.2327086 8.34366,9.92004 L7.15711286,9.23458714 L7.39473429,8.82436286 L7.71135857,9.00738429 L8.94414857,6.87302571 L8.62758,6.69000429 L8.86453286,6.27844286 L10.05108,6.96406286 Z M9.47332286,7.17884143 L8.24036571,9.31203 L8.59699286,9.51912 C8.95607143,9.72632143 9.28138714,9.79312286 9.57149143,9.71958 C9.86159571,9.64614857 10.10763,9.43393286 10.3087586,9.08599714 C10.5113357,8.73544286 10.57173,8.41625571 10.4905543,8.12877 C10.4092114,7.83983571 10.1889171,7.59185143 9.82978286,7.38459429 L9.47332286,7.17884143 Z"
                  id="Shape"></path>
                <polygon id="Path"
                         points="11.4605957 11.5270071 11.62005 11.0790086 11.9645314 11.2020814 12.7931143 8.88186 12.4486329 8.75889857 12.6081429 8.31201429 15.0560614 9.18489 14.74317 10.0612757 14.2417971 9.88326857 14.39373 9.45805714 13.36686 9.09129 13.0797643 9.89586 13.94055 10.2032357 13.7687829 10.6842729 12.9079971 10.37673 12.5397814 11.4084471 13.5488786 11.7687514 13.7288357 11.2653729 14.2472571 11.44962 13.90779 12.4009971"></polygon>
                <polygon id="Path"
                         points="18.8504271 12.8745686 19.2140186 12.9154629 19.1613129 13.3864157 17.8275686 13.2379371 17.8797171 12.7658143 18.24342 12.80682 18.5163643 10.3570071 18.1531629 10.3160014 18.2060357 9.84516 19.5397243 9.99347143 19.4869629 10.4658171 19.1238729 10.4247557"></polygon>
                <polygon id="Path"
                         points="21.5815971 13.0032129 21.9405643 12.9906214 21.9571114 13.4641371 20.6499986 13.51116 20.6333957 13.0375886 20.9984357 13.02366 20.9104071 10.5604757 20.5453671 10.5732343 20.5280957 10.0998857 21.5718471 10.062 22.8670929 12.24639 22.8045257 10.4930057 22.43904 10.5064886 22.4222143 10.0322486 23.7316671 9.98522571 23.7481586 10.4598557 23.3825057 10.4727814 23.49009 13.4762829 22.9745657 13.4956157 21.5090014 10.96368"></polygon>
                <path
                  d="M28.5708986,12.1004743 C28.6540243,12.3936986 28.6483971,12.62625 28.5526243,12.7971814 C28.4584114,12.9668314 28.2626314,13.0943614 27.96534,13.17966 C27.9247243,13.1907471 27.8945829,13.1990486 27.8733,13.20423 C27.85068,13.2094671 27.8302329,13.2133671 27.81051,13.2157629 L27.6471557,12.6439114 C27.6722829,12.6382286 27.6975214,12.6327129 27.7203086,12.62703 C27.7443771,12.6212357 27.7651586,12.6156643 27.7840457,12.6103157 C27.87681,12.5834057 27.9378729,12.5405057 27.9670114,12.4789971 C27.9974871,12.4176557 27.9981557,12.3355329 27.9686271,12.2353586 L27.261,9.7461 L26.86515,9.85892143 L26.7354471,9.40295571 L28.0708629,9.02309571 L28.2005657,9.47906143 L27.85263,9.57834429 L28.5708986,12.1004743 Z"
                  id="Path"></path>
                <path
                  d="M30.77061,11.1714943 L31.1026114,11.0247986 L31.2946586,11.4574757 L30.1768629,11.9524971 L29.9848157,11.5195971 L30.2324657,11.4098957 L30.0222,8.80653429 L29.6846829,8.95629429 L29.4927471,8.52250286 L31.09119,7.81515429 L31.2832929,8.24905714 L30.9232114,8.40784286 L32.6934214,10.31901 L32.97957,10.1924829 L33.1717843,10.6265529 L31.9886357,11.15127 L31.7965886,10.7172557 L32.1304286,10.5683314 L31.6888371,10.0864586 L30.7098814,10.5204729 L30.77061,11.1714943 Z M30.6510471,10.0274014 L31.3576157,9.71439857 L30.53778,8.81166 L30.6510471,10.0274014 Z"
                  id="Shape"></path>
                <path
                  d="M34.9456157,8.98264714 L35.3136086,8.73761571 L35.5764129,9.13341 L34.3951029,9.91909286 L34.13241,9.52452429 L34.4371114,9.32205857 L33.0707186,7.26982286 L32.7660171,7.47212143 L32.5034357,7.07766429 L33.4737557,6.43154571 C33.8716114,6.16746 34.2217757,6.04461 34.52709,6.06260571 C34.8324043,6.08065714 35.0842329,6.23955429 35.2822971,6.5364 C35.4804729,6.83475 35.5288886,7.12814143 35.42604,7.41501429 C35.3247514,7.70339143 35.0757643,7.97845286 34.6804157,8.24276143 L34.5219643,8.34711429 L34.9456157,8.98264714 Z M33.5767157,6.92779286 L34.2630043,7.95811714 L34.4203414,7.85253857 C34.6543971,7.69743 34.7992543,7.53892286 34.8558043,7.37974714 C34.9126329,7.21912286 34.8829929,7.05192429 34.7656029,6.87581143 C34.64994,6.70203857 34.5084814,6.61139143 34.3396114,6.60214286 C34.1718,6.59178 33.9693343,6.66504429 33.7351671,6.82227 L33.5767157,6.92779286 Z"
                  id="Shape"></path>
                <path
                  d="M37.6536643,6.96556714 L37.9213157,6.72009 L38.2415614,7.07047714 L37.3407729,7.89566143 L37.0204714,7.54516286 L37.2199843,7.36342286 L36.1906629,4.96414286 L35.9184986,5.21246143 L35.5982529,4.86240857 L36.8875371,3.68193429 L37.20795,4.03254429 L36.9173443,4.29796714 L39.20436,5.54563286 L39.4353514,5.33380714 L39.7555971,5.68441714 L38.8016014,6.55818429 L38.4813557,6.20763 L38.7506786,5.96059286 L38.1783257,5.64380143 L37.3875729,6.36808714 L37.6536643,6.96556714 Z M37.1750786,5.91992143 L37.7450357,5.39687571 L36.6801686,4.80351857 L37.1750786,5.91992143 Z"
                  id="Shape"></path>
                <polygon id="Path"
                         points="40.9150114 3.58031143 41.1324086 3.29388429 41.5106529 3.58092429 40.7204014 4.62250286 40.3422686 4.33663286 40.5636771 4.04480143 38.5991914 2.55583714 38.3777829 2.84789143 37.9995386 2.56085143 38.6298343 1.72892571 41.1416571 2.10455143 39.7435629 1.04486571 39.5220986 1.33692 39.1438543 1.05082714 39.9354986 0.00640714286 40.3137429 0.293057143 40.0922786 0.584164286 42.4886614 2.39989286 42.1766614 2.81045143 39.2888229 2.34713143"></polygon>
              </g>
              <g transform="translate(11.867143, 15.767143)" fill="#FED9B7" id="Path">
                <polygon
                  points="20.8456671 20.4689271 20.4470871 20.8680643 0.0108085714 1.13841 1.11657 0.0325928571"></polygon>
                <polygon
                  points="20.0477829 20.4689271 20.4470871 20.8680643 40.8834214 1.13841 39.7769914 0.0325928571"></polygon>
              </g>
              <path
                d="M42.6485614,38.2751571 C42.5316729,39.8324271 41.9628857,41.7257657 41.09859,43.4628814 C41.1833871,43.38048 41.2658443,43.2969086 41.3467971,43.21356 C42.6399814,41.8816543 43.7167157,40.2516771 44.4618386,38.5001314 C44.7131657,37.90956 44.9207571,37.3156457 45.0806014,36.7316486 C44.6412943,37.1359114 44.1088886,37.5120943 43.4935243,37.8533443 C43.23267,37.9974771 42.94914,38.1390471 42.6485614,38.2751571 Z"
                id="Path" fill="#9F0B10"></path>
            </g>
          </g>
        </g>
      </g>
    </g>
  </g>
</svg>
