<svg xmlns="http://www.w3.org/2000/svg" width="34" height="24" viewBox="0 0 34 24">
  <g fill="none" fill-rule="evenodd">
    <g>
      <g>
        <g>
          <path fill="#016FD0"
                d="M2 0h30c1.105 0 2 .895 2 2v20c0 1.105-.895 2-2 2H2c-1.105 0-2-.895-2-2V2C0 .895.895 0 2 0z"
                transform="translate(-60 -573) translate(20 557) translate(40 16)"/>
          <g>
            <path fill="#FFF"
                  d="M5.586 10.46V5.942h4.783l.513.669.53-.669h17.363v4.206s-.454.307-.979.312h-9.614l-.579-.713v.713h-1.896V9.244s-.259.17-.819.17h-.645v1.046h-2.87l-.513-.684-.52.684H5.585M0 2.537L1.079.022h1.865l.612 1.409V.022h2.32L6.24 1.04 6.593.022h10.41v.512s.547-.512 1.446-.512l3.378.012.601 1.39V.022h1.94l.535.799V.022h1.958V4.54h-1.958l-.512-.801v.8H21.54l-.287-.711h-.766l-.282.712H18.27c-.774 0-1.269-.502-1.269-.502v.502h-2.915l-.578-.712v.712H2.668l-.287-.712h-.764l-.284.712H0V2.537"
                  transform="translate(-60 -573) translate(20 557) translate(40 16) translate(3 7)"/>
            <path fill="#016FD0"
                  d="M1.46.58L.007 3.961h.947l.268-.677h1.56l.268.677h.968L2.563.579H1.461zM2 1.366l.475 1.183h-.952l.477-1.183zM4.117 3.961L4.117.579 5.463.584 6.246 2.765 7.01.579 8.345.579 8.345 3.961 7.5 3.961 7.5 1.469 6.603 3.961 5.862 3.961 4.963 1.469 4.963 3.961 4.117 3.961M8.924 3.961L8.924.579 11.684.579 11.684 1.335 9.779 1.335 9.779 1.914 11.639 1.914 11.639 2.626 9.779 2.626 9.779 3.227 11.684 3.227 11.684 3.961 8.924 3.961M12.173.58v3.382h.846V2.76h.356l1.014 1.202h1.033L14.31 2.716c.456-.039.927-.43.927-1.04 0-.711-.558-1.097-1.182-1.097h-1.882zm.846.756h.967c.232 0 .4.181.4.356 0 .225-.218.356-.388.356h-.98v-.712zM15.583 3.961L16.446 3.961 16.446.579 15.583.579zM18.493 3.961h-.186c-.902 0-1.45-.71-1.45-1.677 0-.991.542-1.705 1.681-1.705h.935v.8h-.97c-.461 0-.788.362-.788.913 0 .655.374.93.912.93h.223l-.357.74M20.334.58l-1.455 3.382h.947l.269-.677h1.56l.267.677h.968L21.437.579h-1.103zm.538.787l.476 1.183h-.953l.477-1.183zM22.989 3.961L22.989.579 24.064.579 25.437 2.704 25.437.579 26.283.579 26.283 3.961 25.242 3.961 23.835 1.78 23.835 3.961 22.989 3.961M6.164 9.881L6.164 6.498 8.924 6.498 8.924 7.255 7.019 7.255 7.019 7.834 8.88 7.834 8.88 8.546 7.019 8.546 7.019 9.147 8.924 9.147 8.924 9.881 6.164 9.881M19.686 9.881L19.686 6.498 22.446 6.498 22.446 7.255 20.541 7.255 20.541 7.834 22.393 7.834 22.393 8.546 20.541 8.546 20.541 9.147 22.446 9.147 22.446 9.881 19.686 9.881M9.031 9.881L10.375 8.211 8.999 6.498 10.065 6.498 10.884 7.557 11.706 6.498 12.73 6.498 11.372 8.19 12.718 9.881 11.653 9.881 10.858 8.839 10.081 9.881 9.031 9.881M12.819 6.499v3.383h.868V8.813h.89c.753 0 1.324-.4 1.324-1.176 0-.644-.448-1.138-1.214-1.138h-1.868zm.868.765h.937c.243 0 .417.149.417.39 0 .225-.173.389-.42.389h-.934v-.779zM16.268 6.498v3.383h.846V8.68h.356l1.014 1.202h1.033l-1.113-1.246c.457-.039.928-.43.928-1.04 0-.711-.558-1.097-1.182-1.097h-1.882zm.846.757h.966c.232 0 .401.181.401.356 0 .225-.219.356-.388.356h-.98v-.712zM22.838 9.881v-.734h1.692c.25 0 .359-.136.359-.284 0-.142-.108-.286-.359-.286h-.765c-.664 0-1.035-.405-1.035-1.013 0-.543.34-1.066 1.327-1.066h1.647l-.356.762h-1.424c-.273 0-.356.142-.356.279 0 .14.103.295.311.295h.801c.741 0 1.063.42 1.063.97 0 .592-.358 1.077-1.103 1.077h-1.802M25.941 9.881v-.734h1.621c.25 0 .36-.136.36-.284 0-.142-.109-.286-.36-.286h-.693c-.665 0-1.035-.405-1.035-1.013 0-.543.34-1.066 1.327-1.066h1.614l-.356.762h-1.391c-.273 0-.357.142-.357.279 0 .14.104.295.312.295h.73c.74 0 1.062.42 1.062.97 0 .592-.358 1.077-1.103 1.077h-1.73"
                  transform="translate(-60 -573) translate(20 557) translate(40 16) translate(3 7)"/>
          </g>
        </g>
      </g>
    </g>
  </g>
</svg>
