<svg xmlns="http://www.w3.org/2000/svg" width="34" height="24" viewBox="0 0 34 24">
  <g fill="none" fill-rule="evenodd">
    <g>
      <g>
        <g>
          <path fill="#0742A6"
                d="M0 2.005C0 .898.892 0 2 0h30c1.105 0 2 .897 2 2.005v19.99C34 23.102 33.108 24 32 24H2c-1.105 0-2-.897-2-2.005V2.005z"
                transform="translate(-60 -518) translate(20 502) translate(40 16)"/>
          <g fill="#FFF">
            <path
              d="M12.358 8.912L10.059 8.912 11.497.267 13.797.267zM20.695.478C20.24.304 19.522.11 18.632.11c-2.27 0-3.87 1.178-3.88 2.86-.019 1.242 1.145 1.932 2.016 2.346.89.423 1.192.7 1.192 1.076-.01.58-.72.846-1.381.846-.918 0-1.41-.137-2.158-.46l-.303-.138-.322 1.941c.54.239 1.534.45 2.565.46 2.413 0 3.984-1.159 4.003-2.952.009-.984-.606-1.739-1.93-2.355-.805-.395-1.298-.662-1.298-1.067.01-.368.417-.745 1.325-.745.748-.018 1.297.157 1.713.331l.208.092.313-1.867z"
              transform="translate(-60 -518) translate(20 502) translate(40 16) translate(2.5 7)"/>
            <path fill-rule="nonzero"
                  d="M23.751 5.85c.19-.497.918-2.42.918-2.42-.01.02.19-.505.303-.827l.16.745s.436 2.07.53 2.502h-1.91zM26.59.267H24.81c-.548 0-.965.156-1.202.717l-3.416 7.928h2.413l.483-1.297h2.952c.066.304.275 1.297.275 1.297h2.13L26.59.267z"
                  transform="translate(-60 -518) translate(20 502) translate(40 16) translate(2.5 7)"/>
            <path
              d="M8.138.267L5.886 6.162 5.64 4.967c-.417-1.38-1.722-2.879-3.18-3.624l2.063 7.56h2.432L10.57.267H8.138z"
              transform="translate(-60 -518) translate(20 502) translate(40 16) translate(2.5 7)"/>
            <path
              d="M3.795.267h-3.7L.057.442c2.886.717 4.797 2.446 5.583 4.525L4.835.994C4.703.442 4.296.285 3.795.267z"
              transform="translate(-60 -518) translate(20 502) translate(40 16) translate(2.5 7)"/>
          </g>
        </g>
      </g>
    </g>
  </g>
</svg>
